<svg id="Layer_1" data-name="Layer 1" xmlns="http://www.w3.org/2000/svg" viewBox="0 0 300 300"><title>Cars</title><path d="M288.64,121.83a21.15,21.15,0,0,1-3.49-.19c-2.35,0-4.71.06-7.05-.09a21.56,21.56,0,0,0-5,.14h-1.7a1.27,1.27,0,0,0-.53-.41,5.42,5.42,0,0,0-1.73,0c-5.1.06-10.2.18-15.3.14-.54,0-.83.09-1,.3h-1.58a11.16,11.16,0,0,0-1.39-.06c-4.45,0-8.9,0-13.35,0a3.27,3.27,0,0,0-1.21.1h-1.62a2.17,2.17,0,0,0-.59-.07,31,31,0,0,1-4.53,0c-3.4-.43-5.76,1.28-7.88,3.57a3.74,3.74,0,0,0-1,3.68,12.46,12.46,0,0,1,.2,2,6.33,6.33,0,0,0,4.77,5.41c1,.18,1.29.55,1.28,1.46,0,2.44,0,4.87,0,7.31a8.47,8.47,0,0,1-.05,1H201.35a1.68,1.68,0,0,1-.45-.7c-.27-.57-.84-.53-1.06.14a4.38,4.38,0,0,0-.12.55h-.54c.15-1.44-.6-2.87-.37-4.31.14-.87-.31-1.17-1.11-1.26-1.91-.22-3.81-.48-5.71-.73l-7.43-1a17.29,17.29,0,0,0-2.73-.43c-8,.11-16.09,0-24.14,0a5.14,5.14,0,0,0-2.46.3L139.4,121.19H138l.37,17.6a2.14,2.14,0,0,0-1.78.57,25.6,25.6,0,0,0-2.79,3.78c-.38.64-.71,1.13-1.47,1.13-2.27,0-4.54.14-6.8,0s-4.51.72-6.61-.63c-.16-.1-.56.2-.85.28a5.57,5.57,0,0,1-1.41.36c-2.69,0-5.38,0-8.06,0a2.18,2.18,0,0,1-1.5-.64,2.64,2.64,0,0,0-2.75-.82,11.51,11.51,0,0,0-3.76,1c-1.39.79-2.55.28-3.83,0a2.24,2.24,0,0,1-1.88-2c-.07-.39-.79-.74-1.27-1s-1-.24-1.42-.43c-2.47-1-4-.92-6.45.45a15.47,15.47,0,0,0-1.77,1c-.91.68-1.71,2-2.61,2.05a9.37,9.37,0,0,0-3.25,1.12,57.7,57.7,0,0,1-5.56,2.29A26,26,0,0,0,66.1,150a44.75,44.75,0,0,1-5.56,2.88c-3.07,1.32-6.23,2.43-9.31,3.73C45.61,159,40,161.46,34.41,163.88S23,168.72,17.35,171.26a25.2,25.2,0,0,0-4.9,3,7.52,7.52,0,0,0-2.1,2.74c-.74,1.59-.36,2.09,1.48,2.11,3.71,0,7.41.34,11.12.43,5,.11,10-.09,15,.47,5.72.63,11.54.47,17.31.65.5,0,1,0,1.51,0a1.21,1.21,0,0,1,1.3.89c.72,1.78,1,1.85,2.79,1.45a7.41,7.41,0,0,0,1.46-.37c1.45-.65,2.62-.24,4,.54,4.57,2.66,9.39,4.34,14.84,3.07a20.3,20.3,0,0,0,8.82-4,6,6,0,0,1,4.25-1.62q15.47.09,30.93,0a4.65,4.65,0,0,0,2.18-.33h2.14a1.82,1.82,0,0,0,1.29.34c3.27,0,6.53-.16,9.8-.19.42,0,.81.06,1.06-.15h1.08a4.32,4.32,0,0,0,.56.31,2.52,2.52,0,0,0,1,0c3.3-.09,6.6-.21,9.9-.24.4,0,.77.06,1-.11h2c.37.38,1.09.14,1.59.15,2.21,0,4.42,0,6.63-.05.38,0,.76-.05,1.14-.1h5.3l.26.08a.72.72,0,0,0,.25,0c2.57,0,5.14,0,7.71,0a1.55,1.55,0,0,0,.36,0h3.27c.66,0,1.31.06,2,0l1.24,0h8.8a1,1,0,0,0,.24.06l0-.06h28l.69,0c3.68.24,7.39.05,11.09,0,.31,0,.74,0,.92-.17.43-.43.65-.9,1.09,0,.13.29.89.26,1.33.44a8,8,0,0,1,2.17,1c5,4.25,10.73,5.29,16.95,4.25a17.5,17.5,0,0,0,9.15-4.44,3.72,3.72,0,0,1,2.92-.94c4.19.2,8.4.07,12.59.09,1,0,1.59-.3,1.58-1.42,0-4.2,0-8.4,0-12.6,0-.27-.25-.77-.38-.77-1.58,0-2.33-1.5-3.69-1.92a27.57,27.57,0,0,1-3.57-1.79.79.79,0,0,1-.46-1.2c.51-1.14,1-2.32,1.54-3.44,1.71-3.32,3.28-6.72,4.91-10.08a3.34,3.34,0,0,0,.56-1.26l.72-1.49a.63.63,0,0,0,.31-.47,2.88,2.88,0,0,1,.26-.71c.36-.76.74-1.51,1.11-2.26s.61-1.23.76-1.63l1-2h0l.68-1.4h0a5.13,5.13,0,0,0,.36-1.3c.43-2.2.69-4.44,1-6.67.21-1.65.37-3.31.5-5C290,122.36,290,121.62,288.64,121.83Z" fill="#d41308"/></svg>