<svg id="Layer_1" data-name="Layer 1" xmlns="http://www.w3.org/2000/svg" viewBox="0 0 300 300"><title>Cars</title><path d="M25.93,182.09c-4.53,0-9.06,0-13.58,0-2.23,0-2.29-.09-2.32-2.37,0-2.66,0-5.32,0-8,0-2.37.35-2.65,2.8-2.7,1.67,0,3.35,0,5,0,1.11,0,1.62-.48,1.6-1.59,0-2.17.08-4.34,0-6.49s-1.18-3.28-3.49-3.65a9.48,9.48,0,0,1-2-.33,1.47,1.47,0,0,1-.78-1.09,1.34,1.34,0,0,1,.82-1,48.24,48.24,0,0,1,6-1.19c4.87-.5,9.76-.75,14.63-1.28a170.14,170.14,0,0,1,20-1.14c3.15,0,5.89-1.48,8.71-2.52a14.27,14.27,0,0,1,5.44-1c1.87.05,3.74,0,5.61,0,1.68-.06,1.75-.18,1.83-1.94a14.1,14.1,0,0,0,0-1.48c-.06-1-.29-1.76-1.61-1.42-.29.07-.71-.37-1.08-.57.33-.31.62-.8,1-.91a2.24,2.24,0,0,1,2.83,1.86,16.25,16.25,0,0,1,.1,2.35c.09,2,.1,2,2.26,2.11a4.91,4.91,0,0,0,.59,0c1.06-.1,2.35.13,3.1-.41.55-.39.38-1.78.56-2.72a2.46,2.46,0,0,1,.29-.81.6.6,0,0,1,.47-.25.53.53,0,0,1,.31.4c.06.78.08,1.57.09,2.36a1.26,1.26,0,0,0,1.46,1.42l18.84-.46c.79,0,1.57,0,2.36-.06,2-.09,2-.13,2.08-2,.05-1.38,0-2.75.07-4.13,0-.17.17-.33.26-.5.23.15.64.29.66.46.12,1.46.1,2.94.27,4.4a2.56,2.56,0,0,0,.85,1.62c.23.17,1-.23,1.47-.55,1.8-1.38,1.87-1.5,3.47-.2a3.89,3.89,0,0,0,3.29.87c1.24-.22,2.47-1.14,3.51.35.29-.28.89-.68.84-.81-1.08-2.62.13-3.83,2.56-4.42.31-.07.49-.6.79-.84a.86.86,0,0,1,.71-.18,4.08,4.08,0,0,1,2,3.8,2.73,2.73,0,0,1-1.06,1.49c-.43.31-1.34.23-1,1.05a3.42,3.42,0,0,0,1.4,1.28c.29.18.77.06,1.16.06,4,0,8.07,0,12.11,0a6.51,6.51,0,0,0,4.36-1.54,9.44,9.44,0,0,1,6.83-2.05c4.1.14,4.1,0,5.48-3.77.85-2.35,1.22-2.63,3.58-2.69a7.39,7.39,0,0,0,1.47,0,8,8,0,0,0,1.46-.66c-.34-.39-.68-.78-1-1.15s-1-.68-1-1c.13-2.74-1.82-5.52.25-8.26a5.62,5.62,0,0,0,.73-2.81,1.9,1.9,0,0,1,2.33-2c2.33.25,4.65.62,7,1,.95.14,1.88.37,2.82.57l-1.8,2.09c-1.17,1.35-.9,2.36.76,2.77a14.9,14.9,0,0,0,2.3.45c.43,0,1.13,0,1.3-.32.89-1.52,2.32-1.25,3.67-1.26,4.92,0,9.84-.08,14.76,0a16.09,16.09,0,0,1,5.18.85c7.08,2.63,14.12,5.41,21.15,8.19,9,3.57,18.08,7.14,27.06,10.86,2,.82,3.79,1.29,5.83.44a9,9,0,0,1,1.73-.28c.61-.12,1.22-.29,1.83-.43a12.66,12.66,0,0,0-1.3-1.54,17,17,0,0,0-2.14-1.55,5.37,5.37,0,0,1-2.58-4.69c-.05-2.36-.08-4.73,0-7.09.12-3.4,1.28-4.68,4.64-4.71,3,0,6.06.32,9.09.43,2.46.09,4.92.09,7.38.06,1.38,0,2.56,0,2.57,1.91,0,1.1.94,1.21,1.73.93a12.63,12.63,0,0,0,2.31-1.26,8.65,8.65,0,0,1,5.26-1.59c1.17.08,1.88.39,1.84,1.7q-.24,7.5-.46,15c0,.88-.07,1.77-.07,2.65q0,13.29,0,26.57c0,.69,0,1.38,0,2.07,0,1.05-.37,1.64-1.52,1.71-1.46.08-2.91.29-4.37.42-1.17.1-1.71-.37-1.8-1.76s0-2.75-.09-4.13c0-.25-.22-.7-.36-.71-.35,0-.89.06-1,.29-.79,1.34-1.49,2.73-2.22,4.11.27.14.59.46.8.4,1.27-.37,1.68.35,1.65,1.36-.13,5.67,1.28,5.86-5.2,5.85a23.05,23.05,0,0,0-9,1.32c-4.15,1.69-8.32,1-12.33-.46a13.81,13.81,0,0,0-4.87-.82q-76.18,0-152.36,0c-2.43,0-4.87-.14-7.3-.25-.23,0-.6-.22-.63-.39a1,1,0,0,1,.31-.75A8,8,0,0,1,95,180.8c6.19.19,12.4.07,18.6.06.69,0,1.38,0,2.07,0,1.57-.15,1.88-.59,1.45-2.09a8.91,8.91,0,0,0-4.35-5.31A35.43,35.43,0,0,0,100,169.13c-3.38-.53-6.79-.92-10.2-1.2-2-.16-2,0-2.51,1.95a24.39,24.39,0,0,1-4.35,9.56A18.74,18.74,0,0,1,72.71,186c-9.08,2.43-17.4-3-20.73-8.34a26.1,26.1,0,0,1-3-8.54,48.37,48.37,0,0,0-2.14-6.69c-.43-1.14-3-2-4.11-1.47a1.56,1.56,0,0,0-.69,1.13c-.09,1.37-.05,2.75-.05,4.13,0,4.53,0,9.06,0,13.58,0,2.07-.14,2.21-2.17,2.22-4.63,0-9.25,0-13.88,0Z" fill="#d41308"/></svg>