<svg id="Layer_1" data-name="Layer 1" xmlns="http://www.w3.org/2000/svg" viewBox="0 0 300 300"><title>Cars</title><path d="M263.93,127.49c2.81,0,5.62,0,8.43,0,2,0,2.28.55,1.34,2.31-.2.38-.5.71-.67,1.1-.44,1,0,1.68,1.1,1.68a5.93,5.93,0,0,0,1.58-.28c3.72-1,7.55-1.64,11.05-3.43,1.65-.84,3.22.07,3,1.92-.33,2.58.49,5.4-1.33,7.77a2.36,2.36,0,0,0-.08,1.81c1.21,4.05,2,8.24,1.49,12.38a83.43,83.43,0,0,0-.53,10.82,2.08,2.08,0,0,1-1.46,2.27c-1.46.39-2.69,2.37-4.5.74a2.36,2.36,0,0,0-.59.52c-1.23,1.59-1.51,1.58-2.54-.11a3.47,3.47,0,0,1-.23-.59,4.47,4.47,0,0,0-.39.67c-.15.4-.12,1-.4,1.19a15.69,15.69,0,0,1-2.08,1.27c-.27-.64-.57-1.27-.8-1.92-.1-.3,0-.65-.1-1,0-.15-.27-.35-.4-.34s-.47.21-.48.34c0,1.6-.09,3.2,0,4.8.13,2.58.39,5.14.49,7.72,0,.29-.68.92-1,.87-3.39-.59-5.73,1.28-8,3.29-1.15,1-2.93,1.11-3.76,2.64-.15.29-.77.45-1.17.45-3,0-6.17.56-9-.12a14.92,14.92,0,0,1-6.87-4c-2.34-2.4-4.91-2.3-7.7-2.13-2.25.13-4.5.45-6.75.47-9.73.08-19.48-.32-29.18.22-11.12.63-22.26-.09-33.34.62-12.31.8-24.63-.09-36.91.64-14,.84-28.07.18-42.1.68-.66,0-1.51.26-1.44-.64.06-.73.71-2,1.08-2,2.78,0,2.33-1.85,2.43-3.55.13-2.25.35-4.5.6-6.74a2,2,0,0,0-1.93-2.43c-1.71-.18-3.44-.24-5.16-.29-1,0-1.17.67-1.31,1.5a26.53,26.53,0,0,1-2.11,7.41,19.26,19.26,0,0,1-7.21,7.68c-1.33.86-2.67,1.7-4.06,2.47a3.71,3.71,0,0,1-1.55.31c-.86,0-1.73,0-2.59,0-6,0-6.14.14-11.22-3.4a17.9,17.9,0,0,1-7.32-9.62c-.55-1.85-.65-1.81-2.41-1.14-.6.23-1.21.47-1.82.66a3.22,3.22,0,0,0-2.55,3.56c0,4.09-.09,4.07-4.17,4.11q-13.13.12-26.25.27c-.88,0-1.31-.41-.75-1.15,1-1.38.58-2.91.64-4.38s-.06-2.79.05-4.17c.15-1.82.55-2.15,2.47-2.25a25.73,25.73,0,0,1,3.89,0c4.19.42,8.07-.64,12-2.05,5.67-2.06,11.42-3.92,17.18-5.69A4.85,4.85,0,0,0,49.38,159c5.57-8.8,12-10.31,21-9.27a12.14,12.14,0,0,0,3.12,0c2.44-.36,4.84-1,7.28-1.22,2.65-.19,5.32.07,8,.09,4.94,0,9.88,0,14.82.07a13.14,13.14,0,0,1,1.59.13,5.64,5.64,0,0,0,5.48-2c1.21-1.45,2.92-1.71,3.8-.32,1.76,2.79,4.32,2.43,6.89,2.42.54,0,1.08,0,1.62-.05,3.32-.3,3.36-.36,1.71-3.24-.38-.66-1-1.24-.3-2,.89-1,1.92-2,3.32-1.43a4.9,4.9,0,0,1,1.94,1.9c.24.35,0,1-.06,1.57s-.6,1.26-.41,1.59a2.19,2.19,0,0,0,1.57.93c2.76.09,5.51,1,8.28.1a8,8,0,0,0,2.08-.73,10.5,10.5,0,0,1,7.56-1.95c2.33.27,4.72,0,7.08.06,1.19,0,1.83-.44,1.83-1.69a6,6,0,0,1,.16-1.61,2.25,2.25,0,0,1,2.25-1.93,6.08,6.08,0,0,0,2.42-.64c.31-.15.62-1.12.47-1.28-2.85-3.07-.75-6.35-.46-9.53,0-.51.46-1,.59-1.5.63-2.55.62-2.68,2.92-2.54a35.34,35.34,0,0,1,5.72.89c1.47.34,1.52.78.73,2.27-.35.65-.61,1.35-.91,2a11.1,11.1,0,0,0,2.42.45c2.36-.08,4.71-.41,7.07-.45,5.19-.07,10.38-.09,15.57,0a13.13,13.13,0,0,1,4.36.88c3,1.15,6.13,1.92,8.81,3.87.87.64,2.29.47,3.4.86q10,3.52,20,7.14c5.57,2,11.12,4.07,16.67,6.1a3.22,3.22,0,0,0,.91.32c.61,0,1.44.15,1.78-.18s.08-1.15,0-1.73a4.05,4.05,0,0,0-.53-1.18,8.22,8.22,0,0,1,.06-8.07,10.68,10.68,0,0,0,.79-4.95c0-.31-.24-.61-.28-.93-.39-3.65.63-4.78,4.31-4.79h7.13ZM94.49,174.57l.2,0c0,.43,0,.86,0,1.3,0,3.51,0,3.51,3.59,3.46a5.21,5.21,0,0,0,1,0A67.73,67.73,0,0,1,114,178c1.9,0,2.6-1.28,1.46-2.79a18.64,18.64,0,0,0-4.22-3.88,12.86,12.86,0,0,0-4.59-2.18c-3.15-.64-6.38-.85-9.58-1.25-1-.13-1.65.17-1.79,1.3C95.06,171,94.76,172.77,94.49,174.57Z" fill="#d41308"/></svg>