<svg id="Layer_1" data-name="Layer 1" xmlns="http://www.w3.org/2000/svg" viewBox="0 0 300 300"><title>Cars</title><path d="M290,124.44c0-2.33-.89-2.91-3.31-2.75s-4.59.16-6.88.17c-3.56,0-7.12-.09-10.68,0-3.3.08-4.22,1.12-4.23,4.48,0,3.79,0,7.58,0,11.37,0,1.94,0,3.89,0,5.83-.05,1.51-.24,1.58-1.8,1.27a22.4,22.4,0,0,0-4.55-.78c-6,.11-11.39,2-15.52,6.54a1.75,1.75,0,0,1-2.48.46c-4.79-2.32-9.59-4.65-14.4-6.92-5.09-2.4-10.2-4.75-15.31-7.1a150.63,150.63,0,0,0-27.85-9.77c-7.06-1.7-14.12-3.41-21.47-3.14-.68,0-1.36-.06-2-.05-2.4,0-4.81,0-7.2.14-1.2.06-2.27,1.08-2.09,2,.57,2.94.93,6,2.06,8.72a13.85,13.85,0,0,1,.71,9.27c-.85,3.16-2.62,5.11-6.49,5-4.74-.15-9.48-.38-14.22-.58a7.42,7.42,0,0,1-.87-.1c-5.81-.94-11.64-1.78-17.43-2.87-2-.38-4.3,0-6-1.85-.41-.44-1.46-.42-2.21-.39-5.32.19-10.64-.2-16,.42-4.21.49-8.46.48-12.68,1.24-3.76.68-7.6,1-11.32,1.92-5,1.24-9.88,2.72-14.87,3.84a60.64,60.64,0,0,0-9.1,2.7q-7.29,2.89-14.57,5.84a78.87,78.87,0,0,0-13,6.43c-2.43,1.56-2.47,2.68-.28,4.63.57.51.78,1,0,1.3-3.62,1.2-4.06,4-3.91,7.24.06,1.34.5,2.28,1.91,2.49a25.18,25.18,0,0,0,3.72.44q20.26.05,40.51,0c4.11,0,4.12,0,7.42,1.83a.53.53,0,0,1,.14.12l1.18,1h.63a15.7,15.7,0,0,0,12.76,0h.51l.05-.12c.54-.3,1-.6,1.49-.88h0c.32-.18.61-.36.88-.54a6.17,6.17,0,0,1,1.91-.82,44,44,0,0,1,6.58-.45.87.87,0,0,1,.67.45c.56,1.52,1.86,1.16,3,1.17,21,.26,41.9.09,62.86.44,30,.5,60,.14,90.06.15.78,0,1.56,0,2.33,0l.39.2.24.17-.18.2h.78c2.8,1.16,9.89,3.42,16.61,0h.66l-.15-.17c.08-.07.16-.16.24-.24l.18-.1c.68-.06,1.36-.08,2-.09h11.66c3.53,0,3.67-.14,3.68-3.55s-.13-7,.05-10.49a3.81,3.81,0,0,0-2.5-4.07,12.85,12.85,0,0,1-3.07-2.12,1.1,1.1,0,0,1,.78-1.88,28.89,28.89,0,0,1,2.91-.05c1.31,0,2.34-.36,2.36-1.92,0-1.07.5-1.43,1.56-1.64,2.31-.45,3.13-1.48,3.14-3.78Q290,139.6,290,124.44Zm-7.45,51.89a1.09,1.09,0,0,1,1.48.94,7.22,7.22,0,0,1,.09,1.44c.12,4-.23,4.32-4.09,4.32h-9.26a2.69,2.69,0,0,1-.56-.12,3.06,3.06,0,0,1,.39-.61c1.17-1.12,2.31-2.27,3.54-3.31a5.49,5.49,0,0,1,2-1.06C278.22,177.33,280.37,176.87,282.51,176.33Z" fill="#d41308"/></svg>