<svg id="Layer_1" data-name="Layer 1" xmlns="http://www.w3.org/2000/svg" viewBox="0 0 300 300"><title>Cars</title><path d="M19.57,166.71c-1.91,0-3.83,0-5.74,0-1,0-1.94-.06-2.91-.13a.79.79,0,0,1-.51-.3,2,2,0,0,1,.29-2.77,5.56,5.56,0,0,1,1.82-1.08c1.13-.33,2.12-1.06,3.4-1,.53,0,1.07-.43,1.63-.6,2.28-.67,4.6-1.23,6.84-2a9.34,9.34,0,0,1,2.64-.7,12.22,12.22,0,0,0,2.67-.61c1.12-.32,2.23-.72,3.35-1,.41-.12.85-.14,1.26-.24s1-.29,1.51-.44c.1,0,.19-.12.29-.14l4.31-.73c.11,0,.23,0,.33,0a18.09,18.09,0,0,1,4.46-.82c.91-.12,1.81-.31,2.71-.49a8.31,8.31,0,0,0,1.07-.33c.2-.07.38-.24.59-.27,1.93-.25,3.88-.44,5.8-.72,1.45-.21,2.87-.55,4.31-.82,1-.18,1.92-.34,2.88-.47,1.34-.19,2.69-.34,4-.52,2.29-.32,4.58-.71,6.87-1a8.84,8.84,0,0,0,2.64-.4,2.22,2.22,0,0,1,1,0c1.46.09,2.94.11,4.39.32a78.11,78.11,0,0,0,8.16.33c2.44.1,4.87.4,7.31.5,1.24.05,2.5-.14,3.74-.2l7.64-.33c2.12-.1,4.24-.16,6.36-.36a21,21,0,0,0,3.16-.71,1.5,1.5,0,0,1,1.91.73,2.59,2.59,0,0,0,2.29,1.3c1.94.1,3.88.24,5.83.3a5,5,0,0,0,1.44-.29,3.4,3.4,0,0,1,2.4-.1.92.92,0,0,0,.85-.24c.12-.16,0-.57-.13-.85-.19-.51-.48-1-.65-1.49a1.81,1.81,0,0,1,.87-2.2,17.08,17.08,0,0,1,2-.7,9.13,9.13,0,0,0,.88-.36c1-.51,1.79-.3,2.25.76a5.33,5.33,0,0,1,.32,1.74c.1,1.42.25,1.54,1.62,1.51,1.11,0,2.35-.35,3.05,1,0,.08.29.07.44.07,1.3,0,2.63.15,3.49-1.18a1.36,1.36,0,0,1,.62-.49c1.52-.58,3.05-1.14,4.58-1.7a16.35,16.35,0,0,1,6.14-.65,1.72,1.72,0,0,0,1.47-.63,8.94,8.94,0,0,0,2.09-3.2c.43-1.21,1.79-1.73,3.05-2.05.31-.08.66,0,1,0,.61-.09,1.08-.61.86-1.13-.8-1.89-.22-3.87-.5-5.79-.06-.43,0-.88-.08-1.31-.31-1.83.31-2.73,2.11-2.87a14.18,14.18,0,0,1,2.27.15,3.64,3.64,0,0,0,1.13.12c2.51-.67,5.05-.15,7.57-.23,6-.19,12-.31,18,0,9.61.5,19.22.15,28.83.24s19.14,0,28.71,0c.92,0,1.83-.22,2.75-.25a8,8,0,0,1,2.09.19,3.67,3.67,0,0,0,2.54.13A3,3,0,0,1,263,129h14.76c1.16.06,1.33.21,1.39,1.33,0,.55,0,1.09,0,1.64s.22.59.64.47.85-.19,1.27-.32l5.79-1.7a2.9,2.9,0,0,1,.48-.09c1.78-.21,2,0,2,1.77s0,3.39,0,5.09c.09,3.32,0,6.66.37,10,.55,5.51.1,11,.27,16.53a1.7,1.7,0,0,1-.85,1.8c-.2.11-.29.53-.33.82-.17,1.15-.25,1.21-1.38,1.19q-3.28-.06-6.56-.05c-1.43,0-1.59.18-1.65,1.59,0,.16,0,.33,0,.49-.12,3.33-.23,6.65-.37,10-.05,1.32-.35,1.57-1.7,1.56s-2.46-.06-3.69,0a1.45,1.45,0,0,0-.73.26c-.59.39-1.15.83-1.74,1.23A19.75,19.75,0,0,1,257.74,186a38.07,38.07,0,0,1-4.87-1.13,11.8,11.8,0,0,0-2.54-.45q-29.2,0-58.4,0c-3.83,0-7.66,0-11.48,0-5.35.06-10.71.45-16,.21-9.07-.4-18.14-.07-27.2-.21-.92,0-1.84.14-2.76.21a5.78,5.78,0,0,1-.65,0c-2.51-.08-5-.24-7.52-.25q-14,0-28.05,0c-1.69,0-3.37.2-5.06.25-.49,0-1.27.25-1.31-.54s.56-.84,1.26-.91c2.54-.23,5.08-.57,7.61-.88,2.27-.28,4.53-.59,6.79-.88l3.24-.4c.22,0,.44,0,.65-.07,2.11-.42,2.53-1.21,2.29-3.34-.19-1.72-.82-2.7-2.6-3.1-2.38-.53-4.69-1.35-7.05-2-1.31-.35-2.67-.53-4-.84-.66-.15-1,.12-1,.72,0,1.58,0,3.16.14,4.74.06.94,0,1-.88,1-2.62,0-5.25,0-7.87-.09a1.65,1.65,0,0,0-1.59.86,15.21,15.21,0,0,1-4.52,4.39,25.33,25.33,0,0,1-3.42,1.88,21.84,21.84,0,0,1-4.43,1.09A16.23,16.23,0,0,1,68,185.6,18.63,18.63,0,0,1,55.62,170c0-.11-.08-.21-.08-.32,0-.57.2-1.38-.09-1.66s-1.11-.16-1.7-.23a79.83,79.83,0,0,0-10.63-.37,1.25,1.25,0,0,0-.78.18q-1.58,1.48-3.09,3c-.31.32-.15.61.28.67a9.35,9.35,0,0,0,1.15,0h6.23c.38,0,.77,0,1.15,0,1.61.11,1.55.16,1.52,1.81,0,2.06.12,4.13.19,6.19,0,.33,0,.66,0,1-.07,1.21-.36,1.49-1.63,1.49-.54,0-1.08-.1-1.62-.13-.7,0-1.41-.06-2.11-.07H39.73a9.64,9.64,0,0,0-1.47,0c-3.43.52-6.87.14-10.3.29-.85,0-1.82-.36-2.54.56-.13.17-.62.07-1,.07-2.35,0-4.71-.07-7.05,0-.8,0-1.42-.65-2.3-.34-.24.08-.73-.64-.77-1.28-.17-2.71,0-5.42,0-8.12,0-1,.19-1.17,1.21-1.38a8.09,8.09,0,0,1,2.4-.13,26.54,26.54,0,0,0,3.57-.19c.87,0,1.75-.05,2.62-.06s1.53,0,2.3,0c1-.09,1.29-.39,1.34-1.45,0-.44,0-.88,0-1.31.09-1.38,0-1.47-1.38-1.48C24.17,166.7,21.87,166.71,19.57,166.71Zm238.49-19.17c2.32.1,2.32.1,2.75-2.33a8.69,8.69,0,0,0,.26-1.92,1.69,1.69,0,0,0-.59-1.24c-1.28-.72-1.41-1.85-1.33-3.09.07-1,.21-2,.3-3.07.06-.66-.2-1-.92-1-1,0-1.94-.22-2.91-.26s-2.18,0-3.27,0a1.77,1.77,0,0,0-.9.31c-.6.41-1.13.94-1.74,1.33a5.73,5.73,0,0,0-2.66,6c.15,1.23.53,2.4,2,2.75a3.82,3.82,0,0,1,1.59.81c1.14,1,2.6,1.26,3.89,1.9a2.54,2.54,0,0,0,1.26.14C256.56,147.78,257.31,147.64,258.06,147.54Z" fill="#d41308"/></svg>