<svg id="Layer_1" data-name="Layer 1" xmlns="http://www.w3.org/2000/svg" viewBox="0 0 300 300"><title>Cars</title><path d="M289.83,159.54c-.08-3.42-.16-6.83-.21-10.25,0-2.34-.15-4.69,0-7,.09-1.17,0-2.3,0-3.46-.05-2.11-.67-2.08-2.29-2.08-6.33,0-12.66,0-19,0-.2,0-.39,0-.58,0l-1.71,0a2,2,0,0,0-.54.32,5,5,0,0,0-1.43,3.66c.08,1.52,0,3,0,4.56,0,2.21,0,2.19-2.09,1.59-3.1-.9-6.2-1.48-9.43-.6a8.23,8.23,0,0,1-3.95.44,29.08,29.08,0,0,0-8.24-.9,4.19,4.19,0,0,1-1.48-.24c-2.06-.74-4.12-1.48-6.15-2.29-5.45-2.18-10.87-4.43-16.33-6.57s-11.21-4.31-16.83-6.42c-2.91-1.09-5.87-2-8.78-3.13l-5.22-1.29a8.45,8.45,0,0,1,.56-.72c.21-.24.63-.29.86-.52s.45-.57.39-.79a1,1,0,0,0-.72-.52c-1.56-.29-3.2-.36-4.25-1.87-.12-.17-.6-.12-.91-.13a19.9,19.9,0,0,0-2.5,0,12.89,12.89,0,0,0-3.18.61c-.49.18-1.16,1.26-1,1.44.87,1.24,0,2.11-.53,3a7.42,7.42,0,0,0-.87,3.88c.06,2.87,0,5.74,0,8.61,0,.88-.17,1.43-1.32,1.25a5.94,5.94,0,0,0-4,.81c-1.16.67-.55,1.85-1.24,2.55-.05.05,0,.16-.06.24a1.83,1.83,0,0,1-2.17,1.6,19.81,19.81,0,0,0-9.23,2.23,16.9,16.9,0,0,1-8.76,1.82c-1.64-.15-1.7-.06-2-1.76a1.37,1.37,0,0,0-1.24-1.3,5.57,5.57,0,0,0-6.22,2.08,2.14,2.14,0,0,1-3.73-.14c-.22-.37-.67-.82-1-.83a1.59,1.59,0,0,0-1.05.78c-.79,1.31-1.25,1.47-2.44.66a14.66,14.66,0,0,0-1.21-.89c-1.15-.62-2.3-1.51-3.49,0-.14.18-1.22,0-1.23-.12-.18-1.74-1.43-1.48-2.61-1.61-2.14-.23-4.16-.25-5.89,1.31-.26.24-.8.22-1.21.25-1,.09-1.67-.15-1.62-1.35,0-.26-.25-.53-.38-.79-.17.32-.52.67-.48,1,.12.75-.45,1.48-.79,1.29-1.49-.84-2.91.13-4.37,0a36.64,36.64,0,0,0-6.25-.1c-2.31.13-2.88-.24-2.9-2.62,0-1.51.17-3,.24-4.53a2.14,2.14,0,0,0-.2-.66c-.21.19-.52.35-.61.59a2.93,2.93,0,0,0-.06,1c0,1.44,0,2.87,0,4.31,0,1.86-.06,1.92-1.81,1.91-2,0-4.06.36-5.93-.78A1.35,1.35,0,0,0,87,147c-1.78,1.5-3.87.68-5.82.86a10.68,10.68,0,0,1-4.9-.85,43.19,43.19,0,0,0-6.58-1.66c-1-.22-2.51.19-3.12-.39s-.33-2-.44-3.09a3.1,3.1,0,0,0-.11-1c-.17-.35-.48-.87-.77-.89a26.29,26.29,0,0,0-3.24,0c-.08,0-.22.25-.22.38a.47.47,0,0,0,.23.37,7.83,7.83,0,0,0,1,.14c1.89.25,2,.31,2,2.14,0,.51,0,1,0,1.52,0,.8-.31,1.14-1.13,1.35a21.53,21.53,0,0,0-7.15,3.07,4.41,4.41,0,0,1-2.32.88c-2.56,0-5,.67-7.48,1a107.6,107.6,0,0,0-13,2.78,58.59,58.59,0,0,0-9.38,3.34c-2.9,1.33-5.93,2.39-8.82,3.74a26.93,26.93,0,0,0-4.72,2.9,2.91,2.91,0,0,0-1,2.11c0,.9,1,.87,1.78,1,1.93.33,2.07.51,2.09,2.45,0,2.36,0,4.73,0,7.09,0,1,.36,1.61,1.47,1.56.59,0,1.18,0,1.77,0,8.77,0,17.54,0,26.3,0,4.45,0,3.92.53,4-3.86,0-1.1,0-2.2,0-3.29s0-2,0-3c1.5,5.93,4,11,9.16,14.5a20,20,0,0,0,15.58,3.36,25.41,25.41,0,0,0,7.72-3,4.06,4.06,0,0,1,1.84-.47c2.08-.05,4.17,0,6.25,0,.17,0,.47.23.48.37.1,1.68.18,1.75,1.69,1.6.92-.09,1.85-.15,2.77-.15,3.55,0,7.09.06,10.64,0s7,.41,10.53,0a6.86,6.86,0,0,1,1,0c3.41.15,6.82.44,10.23.44q51.52.05,103,0c5,0,10,0,14.94,0a15.46,15.46,0,0,1,5.68.94,19.2,19.2,0,0,0,12.84.44,20.1,20.1,0,0,1,6.46-.86q6.46,0,12.92,0c1.67,0,1.79-.13,1.82-1.69,0-2.79,0-5.57,0-8.36a2.18,2.18,0,0,0-.94-1.92c-1.65-1.3-3.22-2.71-4.81-4.08a6,6,0,0,1-.61-.71,5.09,5.09,0,0,1,1.07-.4,10.9,10.9,0,0,1,1.52,0c3,0,5.91,0,8.86,0,1.79,0,1.91-.12,1.92-1.85C290,163.74,289.88,161.64,289.83,159.54Z" fill="#d41308"/></svg>