<svg id="Layer_1" data-name="Layer 1" xmlns="http://www.w3.org/2000/svg" viewBox="0 0 300 300"><title>Cars</title><path d="M289.85,167.62a1.19,1.19,0,0,0-.17-.38,1.41,1.41,0,0,0-.17.44c0,1.12,0,2.24,0,3.36,0,.1-.11.19-.17.29a.84.84,0,0,1-.09-.27,1.81,1.81,0,0,0-.69-1.81c-.13-.09-.13-.56,0-.79a28.59,28.59,0,0,0,1-4.67,5.76,5.76,0,0,0,0-2.19,2.27,2.27,0,0,0-.78-1.3c-.46-.35-.5-.23-.21-.76a7.52,7.52,0,0,0,.61-1.49,1.54,1.54,0,0,0-1.34-2.13c-.82-.12-1.65-.12-2.48-.16s-1-.06-1-1,0-2.16,0-3.24c0-.28,0-.69-.17-.82a5.26,5.26,0,0,0-1.68-1,3,3,0,0,0-1.56.18c-.4.11-.67.25-1-.21-.67-1-1.39-1.87-2.15-2.76a17.94,17.94,0,0,0-2-2.09,11.54,11.54,0,0,0-2-1.22,2.16,2.16,0,0,1-1.09-2.2,2.09,2.09,0,0,0-.67-2,1,1,0,0,1-.32-.63c-.07-.77-.52-1-1.2-1-.49,0-1,0-1.47,0-1.07.05-1.27.31-1,1.36.06.2.19.27-.1.39a4.1,4.1,0,0,1-3.16.32,21.37,21.37,0,0,0-3.49-.29c-1.6,0-3.2.25-4.81.37-.21,0-.54,0-.62-.12a10.38,10.38,0,0,1-1.08-1.89c-.33-.84-.27-.85-1.11-.58-.37.12-.76.19-1.13.29a3,3,0,0,0-2.56,2.32c0,.19-.1.48-.22.52a6.1,6.1,0,0,1-1.09.15,4.92,4.92,0,0,1,0-1.63,3.24,3.24,0,0,1,2.39-2.25c1.69-.32,3.1-1.28,4.71-1.73a3,3,0,0,1,1.12-.29c1.18.19,2-.51,2.88-1a10.28,10.28,0,0,1,1.12-.62c1.14-.5,2.31-.94,3.44-1.48s1.95-1.08,2.93-1.6c1.21-.64,2.45-1.22,3.64-1.89a2.23,2.23,0,0,0,1.13-2.94c-.13-.32-.47-.74-.75-.77a9.23,9.23,0,0,0-2.14.09c-.46.06-.9.26-1.36.35-.76.14-1.55.18-2.3.37a1.72,1.72,0,0,1-1.66-.11.83.83,0,0,0-.77-.06c-.54.54-1.19.4-1.8.39-3.08-.08-6.15-.18-9.23-.28-4.55-.15-9.09.06-13.65-.23-5.76-.37-11.54,0-17.32-.3s-11.67-.06-17.5-.07c-.58,0-1.17-.09-1.75-.09a1.14,1.14,0,0,0-.73.22,5.59,5.59,0,0,0-2.05,3.76,1.74,1.74,0,0,1-1.09,1.62c-.62.22-.62.64-.65,1.15a3.87,3.87,0,0,1-.21,1.7,2.92,2.92,0,0,0-.37,1.52c0,.68,0,1.36-.1,2,0,.37,0,.8-.63.77a1.23,1.23,0,0,0-.63.32c-.36.26-.53,1.1-1.21.39,0,0-.29.13-.3.22-.07.87-.69.77-1.29.81-1.33.09-2.73-.36-4,.53-.17.12-.48,0-.72,0-4,0-8,0-12.06,0a2,2,0,0,1-2.07-1.49l-.21-.55c-.4-1-.65-1.29-1.73-1.17a7.16,7.16,0,0,0-5.43,2.74,1.55,1.55,0,0,1-1.47.77c-1.07-.1-2.13-.21-3.2-.29a10.07,10.07,0,0,1-7.05-3.1c-.13-.14-.28-.27-.42-.41a.61.61,0,0,0-.9,0c-2,1.47-4.4,1.75-6.77,2-2.17.27-4.39.28-6.53.68-2.44.46-4.9.7-7.32,1.33a35.52,35.52,0,0,0-8.64,3.1,2.51,2.51,0,0,1-1.23.41c-.52,0-1-.19-1,.56a35.15,35.15,0,0,1-3.54,1.76c-.68.26-1.44.19-1.71,1.08,0,.12-.43.19-.66.19a1,1,0,0,0-1.11.88,1.91,1.91,0,0,1-1.91,1.49,16.77,16.77,0,0,0-3.48.37c-1.52.42-3,0-4.5.09a1.87,1.87,0,0,1-1.2-.47,14.8,14.8,0,0,0-3.83-2.13A19.05,19.05,0,0,0,92,145.77a18.21,18.21,0,0,0-3.93.35c-1.52.33-3,1-4.47,1.36-1,.26-1.71,1.14-2.83,1a1.13,1.13,0,0,1-.08.36,2.43,2.43,0,0,1-.43.5c-1,.9-2.11,1.74-3.08,2.7a2.76,2.76,0,0,1-2.08.82c-2.78,0-5.57.19-8.35.27-.66,0-1.21.25-1.37.88L53,157.46a.76.76,0,0,1-.12-.22c0-.06-.42-.08-.44,0a1.48,1.48,0,0,1-.3.51L24.1,165.59H24s-.08.05-.13.07l-4,1.59c-1,.39-2,.74-3,1.14q-1.85.75-3.68,1.57c-.47.21-.9.53-1.36.78a1.15,1.15,0,0,1-.51.17c-1.26,0-1.23,0-1.25,1.22,0,.63.38,1,.66,1.41s.52.91.43,1c-.78.71-.05,1.27.17,1.81a15.13,15.13,0,0,1,1.3,2.59.61.61,0,0,0,1,.36,1.89,1.89,0,0,1,1.23-.27c1.13.17,2.25.52,3.38,0a.37.37,0,0,1,.29,0,3.62,3.62,0,0,0,2.25.2,9.29,9.29,0,0,1,1.75.09,28,28,0,0,1,4.22.36c.93.21,1.75.81,2.64,0,0,0,.18,0,.28,0,1.5.16,3,.41,4.5.45,3.57.09,7.14,0,10.7.28,2.63.19,5.29.09,7.94,0,4.89-.11,9.78.22,14.68-.23a69.39,69.39,0,0,1,7.79,0c.54,0,1.35.18,1.57.56.7,1.17,2.38,1.29,2.77,2.73a.3.3,0,0,0,.24.15c1.18,0,1.89.95,2.85,1.39a1.63,1.63,0,0,1,.32.27s12.07,2.46,20,.08a15.62,15.62,0,0,0,1.69-.95c1.25-.91,2.71-1.54,3.75-2.76a3.14,3.14,0,0,1,2.67-1.12c20.58,0,41.16,0,61.74-.15,5.18,0,10.37-.19,15.55-.23a7.38,7.38,0,0,1,2.3-.05,9.36,9.36,0,0,0,2.49,0h2.5c2.88,0,5.77.24,8.58-.66a1,1,0,0,1,1.08.15c2.31,1.74,5,1.47,7.63,1.35.87,0,1.74-.18,2.61-.24a40.43,40.43,0,0,1,7.53.49,36.93,36.93,0,0,0,5.26-.08c.44,0,.87-.12,1.31-.11a35.71,35.71,0,0,0,6.11-.55c1.58-.25,3.18-.45,4.78-.59a2.18,2.18,0,0,1,1.85.64,18.53,18.53,0,0,0,2.85,2.52,33.23,33.23,0,0,0,3.63,1.84l1.48.75a44.24,44.24,0,0,0,18.56,0,1.54,1.54,0,0,1,.27-.2,20.85,20.85,0,0,0,8.3-5.42,26.82,26.82,0,0,0,3.15-4.2c.27-.51.71-.94,1-1.44.2-.35.18-1,.45-1.13a3.39,3.39,0,0,1,1.42-.17l5-.3c.76,0,1.47-.35,1.5-1.12C290.05,170.34,289.91,169,289.85,167.62Z" fill="#d41308"/></svg>