<svg id="Layer_1" data-name="Layer 1" xmlns="http://www.w3.org/2000/svg" viewBox="0 0 300 300"><title>Cars</title><path d="M290,131.17c0-1.7-.82-2.39-2.46-2a23.75,23.75,0,0,0-4.12,1.54c-1,.42-1.92,1-2.9,1.41s-1.43.12-1.68-.91c-.52-2.09-.57-2.11-2.62-2.12q-8.3,0-16.59,0c-3.19,0-3.94.77-4,4,0,2.47-.09,4.94,0,7.4a10.59,10.59,0,0,0,.78,3.36c1.11,2.79.47,4.72-2.15,6l-.93.44-4.23-1.65a2.15,2.15,0,0,0-.23-.13c-1.9-.75-3.8-1.46-5.7-2.2l-4.58-1.79,0,0c-2.17-.83-4.34-1.68-6.51-2.51-9.12-3.46-18.26-6.87-27.37-10.35a49.26,49.26,0,0,0-16.41-3.2c-3.26-.09-6.52,0-9.78,0-1.19,0-2.37,0-3.55,0-.76,0-.78-.47-.37-.94a16.31,16.31,0,0,1,1.31-1.19c1-.86,1-1.16-.22-1.47a27.89,27.89,0,0,0-9.33-1.11c-1.66.13-2,.64-2.33,2.38a5.43,5.43,0,0,1-1.17,2.89c-1.58,1.42-1.48,3.13-1.37,4.9,0,.78.5,1.59.36,2.3-.28,1.46.49,2,1.62,2.35a10.11,10.11,0,0,1,2.08,1c.23.15.3.68.27,1,0,.13-.5.35-.75.32-1-.12-1.93-.36-2.9-.5-2.82-.41-3.32-.17-4.41,2.5a2.16,2.16,0,0,1-2.45,1.62,15.25,15.25,0,0,0-10.89,2.84,14.64,14.64,0,0,1-3.52,1.5,4.52,4.52,0,0,1-1.72.29c-2.35-.12-4.7-.32-7.05-.46-1.87-.11-2.14-.12-2-2s-1.75-2.17-2.36-3.4c-.27.17-.55.32-.8.51-1.55,1.18-4,1.19-4.64,3.55,0,0-.18.08-.27.08-2.1-.13-4.29.76-6.27-.79-1.58-1.25-1.64-1.12-3.21.09a5.9,5.9,0,0,1-1.51.6,6.59,6.59,0,0,1-.53-1.57c-.1-1.28-.05-2.56-.12-3.84,0-.2-.33-.39-.51-.58-.19.18-.53.34-.54.53-.08,1.28-.12,2.56-.1,3.84s-.36,1.87-1.68,1.83c-1.78,0-3.56,0-5.33,0s-1.78-.18-1.82-2c-.05-2.27,0-4.54,0-6.81a8.89,8.89,0,0,0-.19-2c-.07-.26-.51-.51-.83-.6-.13,0-.51.35-.55.58a11.82,11.82,0,0,0-.19,2c0,2.27,0,4.54,0,6.81,0,2.47,0,2.51-2.45,2.52q-13.48.06-27,.06c-2.38,0-2.38,0-2.54-2.43-.15-2.12-1.58-3-3.57-2.16a.6.6,0,0,0-.28.45.57.57,0,0,0,.25.46,2,2,0,0,0,.85.18c1.46,0,1.48,1,1.47,2s-.35,1.95-1.63,2c-.49,0-1,0-1.48,0-4.92.21-9.84.38-14.75.66-2.45.14-4.89.46-7.32.79-3.4.46-6.79,1.05-10.2,1.5a75.53,75.53,0,0,0-17.42,4.32c-1.16.45-2.81.92-2.56,2.42s1.85,1.55,3.16,1.64q4.71.32,9.42.61c2.17.13,2.42.33,2.5,2.38,0,1.18.05,2.37,0,3.55-.09,1.92-.36,2.23-2.28,2.27-2.67.06-5.33,0-8,0S11,170,10.93,172.52c-.06,2.17,0,4.35,0,6.52,0,2.46.3,2.74,2.74,2.76,4.54,0,9.09,0,13.63,0s9.09,0,13.63,0c2.23,0,2.61-.36,2.56-2.61-.06-2.85-.4-5.69-.48-8.53,0-1.39-.56-2-1.94-1.92-1.68.05-3.36,0-5,0a1.37,1.37,0,0,1-1-.39,1.08,1.08,0,0,1,.28-1c4.16-3.24,8.77-5.23,14.15-5,1.16.05,1.06.8.9,1.69a18.82,18.82,0,0,0,3.51,15c5.82,7.87,17.6,9.87,25.39,4.68A19.58,19.58,0,0,0,88,170.9c.25-1.21.39-2.44.58-3.66l4,.63c.1,0,.18.08.28.1A1.8,1.8,0,0,1,94.45,170c-.06,3.16,0,6.32,0,9.48a2.22,2.22,0,0,1-1.36,2.38,4.1,4.1,0,0,0-1.29.71c-.32.3-.69.85-.61,1.18a1.51,1.51,0,0,0,1,.86,15.34,15.34,0,0,0,2.65.12H246.28a7.17,7.17,0,0,0,2.36-.07c2.15-.79,4,0,6,.71a18.42,18.42,0,0,0,14.1-.29,12.19,12.19,0,0,1,4-.87c2.36-.14,4.74,0,7.11-.06,1,0,1.77-.39,1.85-1.49a28,28,0,0,0,0-3.47,3.52,3.52,0,0,0-.5-1.94c-.27-.33-1.09-.24-1.67-.26-1.2,0-1.41-.7-.78-1.52a16.48,16.48,0,0,1,2.79-3,18.17,18.17,0,0,1,6.5-3.4c.64-.17,1.59-.89,1.62-1.4.23-4.31.3-8.64.36-13,0-1-.32-1.93-.31-2.9C289.77,145,289.94,138.07,290,131.17Zm-176.39,50c-2.56.06-5.11,0-7.67,0-2.36,0-4.72,0-7.08,0-1.82,0-1.92-.1-1.95-1.79-.05-3,0-6.1,0-9.15,0-.75.2-1.52,1.15-1.26,4.72,1.28,9.73,2,13.6,5.28,1.49,1.26,2.41,3.27,3.34,5.08C115.57,180.44,115,181.11,113.61,181.15Z" fill="#d41308"/></svg>