<svg id="Layer_1" data-name="Layer 1" xmlns="http://www.w3.org/2000/svg" viewBox="0 0 300 300"><title>Cars</title><path d="M10.58,181.16c1.85.2,3.15,1.4,4.63,2.28.12.07.31,0,.47,0,4.74.16,9.48.35,14.22.46,3.56.08,7.13,0,10.7.07.63,0,1.27,0,1.9,0,2.84.13,5.67.3,8.51.37a2.82,2.82,0,0,0,1.66-.58c1-.78,1.92-1.08,2.91-.49,1.3.78,2.55,1.66,3.8,2.52l20.58.08a.75.75,0,0,1,.13-.18,10.65,10.65,0,0,1,6.65-1.81c5.23,0,10.48-.28,15.68.11,7.36.56,14.72.09,22.07.39,3.38.14,6.75.55,10.12.82.71.06,1.42.07,2.14.07,6.34,0,12.69-.17,19,.09,16.39.67,32.78,0,49.16.55,12.19.42,24.38.13,36.56.31a8.38,8.38,0,0,1,2,.29l23.67.09c.58-.36,1.16-.7,1.75-1a5.93,5.93,0,0,1,2.41-.71c2.37-.09,4.75,0,7.13,0,1.91,0,2-.1,2-2,0-2.61,0-5.23,0-7.84,0-.75,0-1.55.89-1.72,1.37-.26,1.11-1,.41-1.56a4.2,4.2,0,0,1-1.33-3.62c0-1.26-.19-2.52-.21-3.78a1,1,0,0,1,.52-.82,45.87,45.87,0,0,1,5-1.44c3.51-.7,3.85-1.87,3.93-5.1,0-.94-.2-1.89-.17-2.83.1-3.15.34-6.29.39-9.43.07-4.66,0-9.32,0-14,0-2.27-.19-2.45-2.42-2.47-4.28,0-8.56,0-12.84-.08a43.2,43.2,0,0,1-4.33-.5c-.21,0-.57-.14-.62-.06-.72,1.17-2.19,1.78-2.21,3.5-.05,4.58-.28,9.16-.41,13.74,0,1.74,0,3.49,0,5.23,0,1.26-.06,1.26-1.14.86l-1.55-.58a19.55,19.55,0,0,0-14.12-.1,18.31,18.31,0,0,0-2.57,1.24,2.69,2.69,0,0,1-2.25.16c-2.84-.87-3-.73-3.06,2.14,0,.08,0,.16,0,.24-.08,2.56-1.35,3.33-3.74,2.28-1.08-.48-2.14-1-3.25-1.42-4.14-1.51-8.29-3-12.43-4.45-2.45-.88-4.84-2-7.34-2.61-3-.75-5.69-2.2-8.76-2.79-4.32-.84-8.5-2.34-12.76-3.53a139.07,139.07,0,0,0-16.84-3.67c-2.57-.38-5.14-.75-7.72-1-2.35-.25-4.71-.33-7.07-.54-1.17-.1-2.52,0-3.47-.55-1.67-1-3-.59-4.66,0a3,3,0,0,1-3.36-.7c-2-2-4.45-3.48-6.61-5.29-.61-.51-.84-1.46-1.35-2.12-.35-.45-.92-1.06-1.36-1s-1,.64-1.31,1.14a3.71,3.71,0,0,0-.17,1.63c0,1.74,0,3.49,0,5.23,0,.55.16,1.28-.12,1.63-1.2,1.47-.64,3.17-.85,4.77a7.85,7.85,0,0,1-.81,3.38,4.25,4.25,0,0,0-.9,3.73c.19.76-.33,1-.92,1s-1.42,0-2.14,0H105.92c-.4,0-.79,0-1.19,0-1.06.08-1.48-.34-1.66-1.46-.3-1.87-.8-2.13-2.78-1.95-1.49.14-3,.42-4.46.45a3.45,3.45,0,0,1-2.17-.61c-2.2-1.87-5-2.22-7.52-3.3a1.69,1.69,0,0,0-2.1.52c-.88.89-1.87,1.67-2.77,2.54a4.16,4.16,0,0,0-1,1.26c-.4.93-.77,1.15-1.46.23-.13-.17-.63-.12-.94-.06-.6.11-1.18.29-1.77.46a8.23,8.23,0,0,0-2.45.74A7.64,7.64,0,0,1,69,149.2c-5.81-.06-10.91,1.73-14.71,6.33a8.81,8.81,0,0,1-4.35,3,46,46,0,0,0-6.1,2.54c-2.12,1-4.35,1.86-6,3.71a6.19,6.19,0,0,1-3.3,1.72c-1.81.42-3.52,1.49-5.32,1.65s-3.55.51-4.83,2c-.44.53-1,1.18-1.74.33a.83.83,0,0,0-.7.19c-.32,1-.83,1.19-2,1.05a3.75,3.75,0,0,0-2.7,1.14A3.56,3.56,0,0,1,14.82,174,6,6,0,0,0,10,179.7C10,180.22,10.33,181.13,10.58,181.16Z" fill="#d41308"/></svg>