<svg id="Layer_1" data-name="Layer 1" xmlns="http://www.w3.org/2000/svg" viewBox="0 0 300 300"><title>Cars</title><path d="M16.1,164.3a6.16,6.16,0,0,1,1,5.86c-.62,2-.69,2.09,1,3.12A11.85,11.85,0,0,0,21,174.54a32.91,32.91,0,0,0,4.21.83c4.52.63,9,1.28,13.58,1.8,3.91.45,7.85.7,11.77,1.11a4.15,4.15,0,0,1,1.92.79c2.45,1.8,4.85,3.67,7.26,5.52a33.4,33.4,0,0,0,21.88.55,4,4,0,0,1,.58-.72q3.27-2.56,6.57-5.09a3,3,0,0,1,.93-.46,3,3,0,0,1,.8,0c7.27-.18,14.56-.72,21.81-.48,32.2,1,64.4.18,96.59.44a5.57,5.57,0,0,1,3.61,1.38c2.19,1.68,4.64,3,7,4.51a2.72,2.72,0,0,1,.43.44s8,2.49,18.68-.76c1.87-1,4.06-1.75,5.54-3.19,1.84-1.79,3.67-2.75,6.19-2.38a1.4,1.4,0,0,0,.8,0c.43-.23,1.14-.58,1.13-.86-.06-1.81,1.29-1.94,2.48-2.25,3.47-.9,7-1.67,10.42-2.69a80.81,80.81,0,0,0,13.92-5.51c2.8-1.44,5.71-2.46,7.55-5.31s4.08-5.7,3.1-9.56a6.87,6.87,0,0,1,0-1.88c.17-4.92-1.3-9.13-5.12-12.45-3.13-2.72-6.3-5.33-10.22-6.83-3.27-1.26-6.52-2.56-9.79-3.81a100.18,100.18,0,0,0-24.45-6.14c-1.45-.17-3-.26-3.87-1.89-.28-.5-1.44-.72-2.2-.7a43.73,43.73,0,0,1-10.14-1c-.88-.19-2.15-.54-2.71.52s-1.36,1-2.25,1c-1.71,0-3.42,0-5.13,0a1.74,1.74,0,0,0-2,1.69c-.12,1-.4,1.93-.49,2.91-.26,2.8-.38,2.95-3.31,3-7,0-14,0-21.06,0-4.57,0-9.16.34-13.71-.51-3.25-.61-6.53-1.05-9.78-1.66-4.14-.77-7.72-2.86-11.27-5-1.6-.95-1.63-1-2.89.29q-4.6,4.56-9.16,9.17a7.87,7.87,0,0,1-4.63,2.56,100.4,100.4,0,0,1-10.12,1c-3.76.08-7.52-.25-11.28-.48a15.82,15.82,0,0,1-3.69-.58,55.81,55.81,0,0,0-17.74-2.54A67.57,67.57,0,0,0,78.36,131c-2.7.65-5.39,1.37-8.05,2.16-.59.18-1.48.8-1.48,1.22,0,1.68-1.19,1.86-2.3,2.13-5.49,1.3-11,2.7-16.5,3.79a172.69,172.69,0,0,0-21.7,6.31c-2.46.83-4.83,1.94-7.24,2.94l-3.18,1.57A76.49,76.49,0,0,0,11,155.25c-1.32.91-1.2,1.37-.17,2.6C12.59,160,14.39,162.11,16.1,164.3Z" fill="#d41308"/></svg>