<svg id="Layer_1" data-name="Layer 1" xmlns="http://www.w3.org/2000/svg" viewBox="0 0 300 300"><title>Cars</title><path d="M289.9,151.21a4.67,4.67,0,0,0-1.13-2.67,7,7,0,0,1-1.9-6.24c.12-1.1-.08-1.51-1.22-1.52-2,0-4.09-.12-6.14-.22s-2.67-.67-2.73-2.74c0-.3,0-.61,0-.91,0-1-.39-1.44-1.36-1.36-.76.07-1.52.19-2.29.28l2,.19c.08,0,.16,0,.23,0,.25.13.63.23.69.42a.88.88,0,0,1-.22.81c-.56.31-1.58.83-1.74.66-1-1.14-1.86-.41-2.76.07a1.85,1.85,0,0,1-.64.08c0-.27-.08-.61.05-.78.42-.53.14-.87-.28-1.09a1.5,1.5,0,0,0-.93-.07,9.57,9.57,0,0,1-2.18.51c-2.86-.15-5.71-.42-8.56-.68-.67-.06-1.33-.36-2-.4a2.36,2.36,0,0,0-2.56,3.07c.3.82,0,1.2-.19,1.82-1.18,4.48-.77,5.27,1.87,7.12.68.48,1.8.59,1.91,1.74l-2.37-.07a14.94,14.94,0,0,1-5.14-.67c-1.49-.57-3-1-4.49-1.65q-6.42-2.65-12.8-5.4c-.82-.35-1.49-1.12-2.33-1.34a48,48,0,0,1-9.09-4c-2.42-1.22-4.66-2.77-7.06-4-.74-.39-1.79-.15-2.57-.49s-1.46-1.33-2.32-1.62c-2.31-.8-4.44-2.14-7-2.12a40.75,40.75,0,0,1-4.79-.36c-2.83-.31-5.66-.73-8.49-1a9.14,9.14,0,0,0-2.11.43,1.55,1.55,0,0,1-1-.08c-.84-.6-1.23-.4-1.34.58,0,.05-.23.08-.35.12.07-1.53-1.21-.64-1.81-1a12.05,12.05,0,0,0-6.6-1.14c-2,.07-3,1-3,3,0,3.64.14,7.28.28,10.92,0,1.11-.17,1.49-1.36,1.59-.6.05-1.22,0-1.83,0-1.32.09-1.6.36-1.7,1.63-.06.76,0,1.53-.08,2.28a1.56,1.56,0,0,1-1.59,1.59q-2.92.14-5.83.45a18,18,0,0,0-4.24.69,61.46,61.46,0,0,0-6.83,3.05,6.2,6.2,0,0,1-4.18.88c-2.22-.39-2.21-.27-4.24-1.61-1-.64-1.16-1.1-.87-2.34.56-2.34.25-3.44-2.6-3.4a38,38,0,0,0-5,.5,1.31,1.31,0,0,0-.87,2.1,7.38,7.38,0,0,0,1.46,1.42c.81.69,1.66,1.32,2.46,2,.11.09.09.39,0,.57s-.28.19-.39.16a3,3,0,0,1-1-.4c-1.33-1-1.32-1-2.61-.2-.38.24-.87.63-1.21.54-1.88-.51-4-.06-5.7-1.28a30,30,0,0,0-3.1-1.85,1.15,1.15,0,0,0-1,0c-.64.52-1.59,1.09-1.69,1.76-.2,1.33-1,1.08-1.76,1-3.17-.13-6.33-.39-9.5-.41-8.45-.06-16.9,0-25.35,0-1.29,0-2.58.12-3.87.16a12.7,12.7,0,0,1-5.51-.66,9.92,9.92,0,0,0-3.75-.83c-1.7,0-2.78-.46-3.14-2.21-.05-.25-.33-.45-.51-.68a4.54,4.54,0,0,0-.37.7,9.77,9.77,0,0,0-.42,1.53c-.1.6-.33,1-1,1a10.63,10.63,0,0,0-4.42,1.57,10.1,10.1,0,0,1-8.74.69,3.43,3.43,0,0,0-1.53-.37c-.43,0-1.11.39-1.18.72-.25,1.14-1,1.38-2,1.56-1.78.34-3.58.63-5.32,1.11-3.31.93-6.6,2-9.88,3q-4.39,1.39-8.74,2.88c-1,.34-2,.84-2.93,1.26a45.13,45.13,0,0,0-8.26,4.71,3.58,3.58,0,0,0-.85.73,1.92,1.92,0,0,0,1.28,3.19c1.56.32,3.11.69,4.68.87,1,.11,1.29.52,1.32,1.44.07,1.92.17,3.82-1.65,5.15-.41.3-.64.84-1,1.17-.74.62-.55,1.18,0,1.72.32.31.76.8,1.07.76,2.47-.35,5,.3,7.43-.79,1.59-.72,3.21-1.38,4.86-2a9.22,9.22,0,0,1,2.85-.57q7-.09,13.93,0c3.94,0,3.73-.57,3.48-4.21-.07-1-.06-2.07,0-3.1,0-.13.24-.31.4-.38a.42.42,0,0,1,.38.17,6,6,0,0,1,.52,1.25,19.84,19.84,0,0,0,9.31,12.65c.39.24.75.51,1.12.78l2.51.62c3.18.68,8.81,1.48,13.44,0H78.7l.22-.69c0-.2,0-.5.17-.56,2.3-1.15,4.12-3.37,7.14-2.94,1.63.23,3.31-.08,4.9.76a5.68,5.68,0,0,0,2.47.19l117.17,0c8.68,0,17.36,0,26,0,1.92,0,3.6.23,4.86,1.86a6.53,6.53,0,0,0,1.37,1h0l.46.35h18.21c1.69-1.26,3.11-2.34,4.57-3.34a3,3,0,0,1,1.52-.3c1.29,0,2.59,0,3.88,0,.65,0,.92-.29,1.33-.84a5,5,0,0,0,1-3.37c-.05-2.13,0-4.26,0-6.39,0-1.66.05-1.7,1.64-1.71,2.05,0,4.11.07,6.16.06s3.74-.39,4.66-2.47a1.91,1.91,0,0,1,1.23-.78c1.75-.4,1.77-.36,1.91-2.08,0-.44-.07-.9-.06-1.34.1-2.42.25-4.84.32-7.25A33.14,33.14,0,0,0,289.9,151.21Z" fill="#d41308"/></svg>