<svg id="Layer_1" data-name="Layer 1" xmlns="http://www.w3.org/2000/svg" viewBox="0 0 300 300"><title>Cars</title><path d="M255.87,143c-.36-.3-.58-.49-.81-.67-2.07-1.61-3.74-3.31-3.18-6.36.25-1.38-.29-2.91-.42-4.37a1.22,1.22,0,0,1,1.16-1.42c5.27-1,10.52-2.09,15.82-2.92,3-.47,6.06-.5,9.1-.7s6.27-.47,9.42-.58,3,0,3,2.85q0,9.33-.06,18.65a13.33,13.33,0,0,1-.19,2c-.39,2.38-.48,2.41-2.93,2.6q-3.08.24-6.15.65c-1.46.2-1.67.88-.76,2.16a4.58,4.58,0,0,1,.32.65c-2.09.19-1.48,1.79-1.37,2.93s1,2.4-.61,3.3c-.18.1-.07.75,0,1.14,0,.56.33.69.74.32.73-.66,1.46-1.33,2.13-2.05s1.39-.56,2.11-.09c.9.59.2,1.1,0,1.72-.9,2.44-3.38,3.2-5.1,4.68-1.24,1.07-2.88,1.47-2.5,3.56-1.92,3.63-3.71,7.34-7,10-.43.35-1.16.56-.47,1.31-.18.13-.42.42-.54.37-1.25-.48-1.91.54-2.85.92a34,34,0,0,1-7.31,2.08c-3.66.58-7.25-.23-10.78-1.25a4.15,4.15,0,0,1-1.59-.77c-1.92-1.7-4.15-1.5-6.44-1.25a25.44,25.44,0,0,1-3.46,0c-.88,0-1.77-.16-2.65-.16-7.39,0-14.78-.24-22.16,0-28.7,1.08-57.4.21-86.1.55-.88,0-1.76.17-2.63.27a8.08,8.08,0,0,1-2,.21c-6.38-1-12.8-.25-19.19-.46-3.06-.1-6.12.06-9.18,0-2.63-.08-5.2.91-7.91.21-.93-.24-2.25.6-3.27,1.17-6.35,3.51-12.64,2.66-18.93-.15a7.92,7.92,0,0,0-7,0,4.64,4.64,0,0,1-1.95.46q-18.65.05-37.31,0c-1.16,0-2.3,0-1.81-1.73,0-.12-.52-.57-.81-.59-1.1,0-2.06-.37-2.18-1.55a3.74,3.74,0,0,1,1.58-3.61,36.07,36.07,0,0,1,3.82-2.24c4.53-2.36,9.07-4.7,13.64-7,3-1.52,6.09-3,9.16-4.39.73-.34,1.44-1.23,2.39-.36a.45.45,0,0,0,.42-.07c2.54-2.66,5.94-4,9-5.9a4.39,4.39,0,0,0,1.48-1.72A20.56,20.56,0,0,1,64.1,144.76a17.3,17.3,0,0,1,9.26-.68,8.56,8.56,0,0,0,7-1.29,19.47,19.47,0,0,1,2.84-1.57c.85-.37,2.65-1.34,2.66-1.87,0-1.14.33-1.66,1.56-1.2a1.28,1.28,0,0,0,.83-.15c1.78-.8,1.77-.78,3.5,0a15.42,15.42,0,0,0,1.68.42,4.28,4.28,0,0,1,1.1.55c.47.32,1,1.08,1.32,1,2.14-.51,3.58,1.4,5.52,1.44s4.14.07,6.22.07h37.31c.59,0,1.19,0,1.78,0a1.51,1.51,0,0,0,1.78-1.48c.21-1.24.49-2.49,2-3,.37-.12.66-1.13.64-1.72,0-1.46-.34-2.91-.44-4.37a9.94,9.94,0,0,1,.12-2.9,2.17,2.17,0,0,1,2.33-1.83c3.37.14,6.75.35,10.13.4a66.11,66.11,0,0,1,14.84,2.12c4.57,1.13,9.27,1.79,13.8,3.06,5.92,1.65,11.73,3.7,17.59,5.58l9.54,3c3.62,1.15,7.24,2.31,10.86,3.44,3.15,1,6.32,1.92,9.47,2.91a4.23,4.23,0,0,0,3.84-.49c2.77-1.69,5.71-3.15,9.1-3.2C253.43,143,254.57,143,255.87,143Z" fill="#d41308"/></svg>