<svg id="Layer_1" data-name="Layer 1" xmlns="http://www.w3.org/2000/svg" viewBox="0 0 300 300"><title>Cars</title><path d="M290,174.34a2.25,2.25,0,0,1-.26-.67.25.25,0,0,0-.19-.14c-.49,0-1-.2-1.43.19a1.17,1.17,0,0,1-1.39.14,1.27,1.27,0,0,1-.83-1.29c0-2.31,0-4.62,0-6.93a1.66,1.66,0,0,1,0-.58.4.4,0,0,1,.36-.17c.16.08.28.26.42.39a7.38,7.38,0,0,0,.86.76.61.61,0,0,0,.91-.27.77.77,0,0,0-.09-.86l-.67-.85a.71.71,0,0,1-.07-.86c.2-.31.54-.25.83-.15s.33.23.51.27a2.26,2.26,0,0,0,1,.09h0V129l-.09,0a3.71,3.71,0,0,0-.58,0H270.64a3.34,3.34,0,0,0-.5,0,3.27,3.27,0,0,0-1.82,1.21.68.68,0,0,0-.08.4c-.06,1.36-.14,2.71-.16,4.07,0,1.75,0,3.5,0,5.26,0,.28,0,.55.05.83,0,1,.08,1.94.09,2.91,0,.15-.16.42-.28.45a9,9,0,0,1-1.55.18,7.17,7.17,0,0,1-1.15-.12l-.81-.14a9.71,9.71,0,0,0-1.39-.19H234.23a3.62,3.62,0,0,1-.75,0,6.12,6.12,0,0,1-1.25-.37c-.6-.27-1.15-.63-1.74-.92s-1.28-.6-1.93-.88-1-.58-1.51-.79c-1-.41-1.93-1-3-1.39a5.57,5.57,0,0,1-2.11-1.09,2,2,0,0,0-.43-.23c-1-.52-2-.8-3-1.38a10.32,10.32,0,0,0-1.13-.49,3.46,3.46,0,0,1-.57-.34,12.59,12.59,0,0,0-2.62-1.28c-.63-.26-1.22-.59-1.89-.81s-1.39-.82-2.16-1.16-1.49-.69-2.23-1.06-1.6-.75-2.39-1.14c-.64-.31-1.26-.67-1.91-1s-1.42-.59-2.13-.89a9.22,9.22,0,0,1-1.14-.49,5.77,5.77,0,0,0-2-.9,3.25,3.25,0,0,1-.75-.33,2,2,0,0,0-.61-.25c-.64,0-1.07-.51-1.64-.71s-1.27-.68-1.93-.94c-1.13-.44-2.28-.81-3.42-1.21a.82.82,0,0,1-.29-.15c-.52-.5-1.33-.37-1.86-.83a9.8,9.8,0,0,1-3.12-1c-.42-.16-.77-.23-1.12.18a2.51,2.51,0,0,1-1.35.77c-.29.07-.5,0-.51-.35,0-.11,0-.22,0-.33a1.51,1.51,0,0,0-1.64-1.55,1.56,1.56,0,0,1-1.22-.29,1.94,1.94,0,0,0-.77-.26,12.86,12.86,0,0,1-1.72-.23,4.24,4.24,0,0,0-1.45-.29.51.51,0,0,1-.54-.42c-.18-.58-.43-1.14-.56-1.72a3.84,3.84,0,0,0-1.31-2.31,1.11,1.11,0,0,1-.49-.92,1.77,1.77,0,0,0-.18-.64q-.81-2-1.63-4.05a2.58,2.58,0,0,0-.23-.44,1.36,1.36,0,0,1-.12-1.68.63.63,0,0,0-.29-1,1.85,1.85,0,0,0-.79-.19q-4.59,0-9.18,0a1.69,1.69,0,0,0-.72.16.79.79,0,0,0-.3,1.3c.22.32.4.66.6,1a.52.52,0,0,1,0,.68.59.59,0,0,0,0,.7c.12.24.18.52.29.76a4.08,4.08,0,0,0,.66,1.32c.57.54,1.2,1,1.19,1.87.63.66.5,1.67,1.13,2.36a4.18,4.18,0,0,1,.56,1.27,1.05,1.05,0,0,1-.57,1.43,1.37,1.37,0,0,0-.88,1.45c.08.8.11,1.6.18,2.4a8.36,8.36,0,0,0,.19,1.56,8,8,0,0,1,.31,2.55,6.69,6.69,0,0,0,.22,2.14c.24.86-.1,1.33-1,1.4s-1.71.13-2.57.17a2.32,2.32,0,0,0-2,1.08.75.75,0,0,0-.09.85,3,3,0,0,1,.18,1,.31.31,0,0,1-.34.37,1.4,1.4,0,0,0-1,.45,5.41,5.41,0,0,1-1.19.72,11.44,11.44,0,0,0-2.49,1.47c-.46.38-1,.68-1.49,1-.22.16-.42.35-.63.53a4.07,4.07,0,0,1-.37.31c-.5.34-1,.65-1.52,1-.8.54-1.57,1.11-2.38,1.65a6.06,6.06,0,0,1-1.29.73c-.62.22-1.13.73-1.84.71-.11,0-.21.16-.33.23a1.35,1.35,0,0,1-.44.2c-.92.13-1.69.86-2.69.71a.45.45,0,0,0-.3.13,1.69,1.69,0,0,1-1.25.34,2.38,2.38,0,0,0-.65.1,15.86,15.86,0,0,1-4.18.57,4.69,4.69,0,0,0-.73.12c-.46.07-.92.15-1.39.2s-.78,0-1.16.09-.46-.11-.49-.39a4.53,4.53,0,0,1,0-.5c0-.56,0-1.11,0-1.67,0-.9-.19-1.07-1.07-1.21l-.16,0a4.93,4.93,0,0,0-3.84.84,2.48,2.48,0,0,0-.89,2.43c.13.35,0,.45-.34.45-1.08,0-2.17,0-3.25,0-.49,0-.61-.11-.61-.59a1.84,1.84,0,0,0-.46-1.3,1.44,1.44,0,0,1-.22-.6c-.12-.46-.27-.64-.71-.67a12,12,0,0,0-1.42,0,.93.93,0,0,0-.86.86,4.21,4.21,0,0,0,0,.92,5.37,5.37,0,0,0,.22.77,3,3,0,0,0-.8-.3,7.53,7.53,0,0,1-2.11-.73,2,2,0,0,1-1.53-2,1.94,1.94,0,0,0-.13-.65c-.18-.56-.32-.7-.89-.68-2,.05-4-.25-5.91.48a1.11,1.11,0,0,1-.25,0,7.51,7.51,0,0,0-2.73.54,1.57,1.57,0,0,1-.48.12,6.65,6.65,0,0,0-1.22.19,1.86,1.86,0,0,1-1.86,0c-.13-.09-.38,0-.57,0a52.19,52.19,0,0,0-5.38.3c-2,.16-4.1.15-6.15.19a11.25,11.25,0,0,0-3.3.31,1.26,1.26,0,0,1-.33,0l-4.4.17a1.69,1.69,0,0,0-.49.06,12.11,12.11,0,0,1-4.11.46,9,9,0,0,0-2.78.38,2.1,2.1,0,0,1-.49.1l-2.48.18a2.33,2.33,0,0,0-.48.11,9.57,9.57,0,0,1-2.7.4,8.49,8.49,0,0,0-1.56.19c-.57.11-1.11.32-1.68.43a6.82,6.82,0,0,0-1.16.09,37.63,37.63,0,0,1-3.69.8c-1.27.37-2.59.54-3.89.82a1.22,1.22,0,0,0-.59.26c-.33.32-.6.64-1.11.28a.81.81,0,0,0-.57,0,15.6,15.6,0,0,0-2.64.7,17.43,17.43,0,0,1-3.1.89c-.94.22-1.83.56-2.74.85a15.85,15.85,0,0,0-2.33.82,28.93,28.93,0,0,1-3,1.1,5.83,5.83,0,0,1-1.46.57,7.82,7.82,0,0,0-2,.74,24.07,24.07,0,0,0-2.38,1.08c-.8.36-1.61.69-2.42,1s-1.31.58-2,.85-1.15,1-2,1c0,0-.08.07-.13.1l-1.76,1c-.67.38-1.34.76-2,1.16-.89.54-1.77,1.11-2.67,1.63a11.08,11.08,0,0,0-2.77,2.05,1.44,1.44,0,0,1-.32.26c-1,.62-2.08,1.22-3.09,1.86a1.23,1.23,0,0,0-.65,1.09c0,1.81,0,3.62,0,5.42a2.68,2.68,0,0,0,.34,1.09,13,13,0,0,0,.73,1.11,1.61,1.61,0,0,1,0,1.74,1.53,1.53,0,0,0-.27.59,10.94,10.94,0,0,0,.07,1.66c.11.85.33,1.69.39,2.54.08,1.13,0,1.14,1.18,1.14H46.65a5,5,0,0,0,.58,0,.93.93,0,0,0,.83-.81c0-1,0-1.93,0-2.89s0-2.06,0-3.09c0-.47.26-.67.75-.71a5.63,5.63,0,0,1,.58,0c.48,0,1,.06,1-.64,0,0,.27-.08.3,0a.84.84,0,0,1,.2.44c0,.86.09,1.71.08,2.57s-.09,2-.11,3a1.62,1.62,0,0,0,.19.72.94.94,0,0,0,.81.63,7.57,7.57,0,0,0,2.08,0,1.8,1.8,0,0,1,1.91.65c.56.55,1.09,1.12,1.66,1.65a6.76,6.76,0,0,0,1.18.9c1,.57,2,1.08,3,1.65a2.5,2.5,0,0,0,1.58.59c.17,0,.36.13.53.22a2.72,2.72,0,0,0,.44.23c.83.22,1.66.43,2.49.62a3.36,3.36,0,0,0,.74.06c1.59,0,3.17,0,4.76,0a4,4,0,0,0,.9-.13c.59-.14,1.17-.33,1.76-.46a3,3,0,0,0,1.4-.44c.13-.11.37-.09.56-.13a1.51,1.51,0,0,0,.48-.11c1.35-.84,2.78-1.54,4.13-2.37a11,11,0,0,0,1.92-1.56,41.64,41.64,0,0,0,2.83-3.26c.27-.32.49-.67.73-1a.39.39,0,0,1,.64-.07c.8.84,1.63,1.67,2.35,2.58.3.38.75.92.13,1.47,0,0,0,.16,0,.24-.1.88,0,1.67.93,2.09a1.42,1.42,0,0,1,.39.31,2.06,2.06,0,0,0,1.6.51H246.77a3.38,3.38,0,0,1,1.05.16c.49.17.95.44,1.44.61a18.91,18.91,0,0,0,2.67.85,20.21,20.21,0,0,0,3.38.36c1.24,0,2.49-.1,3.73-.16a1.22,1.22,0,0,0,.32-.07c1.11-.38,2.28-.57,3.39-1a9.2,9.2,0,0,0,1.78-.79c.37-.23.67-.59,1.18-.54a.3.3,0,0,0,.21-.11c.33-.41.78-.36,1.23-.36h14a2.74,2.74,0,0,0,.75,0c.87-.26,1.73-.52,2.57-.84.64-.24,1.23-.61,1.86-.86s1.29-.44,1.94-.67a.52.52,0,0,0,.21-.13,1.26,1.26,0,0,1,.82-.35,1.34,1.34,0,0,0,.68-.32Zm-5.76-3.45c0,.55-.11,1.1-.15,1.65a1.53,1.53,0,0,0,0,.66,1.16,1.16,0,0,1-.36,1.35c-.1.1-.26.21-.26.31,0,1.05-1,1-1.58,1.26-.91.33-1.8.67-2.67,1.07a2.18,2.18,0,0,1-.56.13,3.12,3.12,0,0,0-1.4.45,1.17,1.17,0,0,1-.62.2,1.54,1.54,0,0,0-1.29.41.22.22,0,0,1-.15.07c-1.24,0-2.32.69-3.55.73l-.23,0a.8.8,0,0,1,.08-.22c.59-.76,1.25-1.48,1.76-2.3.66-1.07,1.21-2.22,1.79-3.34a1.49,1.49,0,0,0,.14-.64,1.63,1.63,0,0,1,.41-1.38.42.42,0,0,0,.09-.31,4.26,4.26,0,0,1,.44-1.93,2.38,2.38,0,0,0,.07-.91.69.69,0,0,1,.44-.72,12.21,12.21,0,0,1,1.21-.5,16.47,16.47,0,0,0,2.63-1.18,11.19,11.19,0,0,1,2.25-1.13c.15,0,.26-.23.4-.28a3.11,3.11,0,0,1,.79-.16c.09,0,.19.14.15.1C284.31,166.58,284.25,168.73,284.24,170.89Z" fill="#d41308"/></svg>