<svg id="Layer_1" data-name="Layer 1" xmlns="http://www.w3.org/2000/svg" viewBox="0 0 300 300"><title>Cars</title><path d="M11,181.54a4.06,4.06,0,0,0,1.95.15c2.53-.15,5.06-.43,7.59-.5,3.3-.1,6.61,0,9.92-.07,3.57-.1,7.14-.32,10.71-.58.53,0,1.48-.63,1.46-.91-.11-1.38.92-2.8-.51-4.19-1.09-1.06-.51-2.32,1-2.76.9-.27,1.83-.44,2.75-.64,1.89-.41,2-.43,2.53,1.43a16.17,16.17,0,0,0,5.16,8c1.42,1.22,3,2.25,4.51,3.37.22.16.42.35.62.53,5.33,2.81,14.75.15,14.75.15.67-.39,1.36-.74,2-1.18,4-2.81,7.41-6.1,8.53-11.16.32-1.45.44-3.39,1.4-4.12s2.88-.35,4.38-.36c2.93,0,5.86-.06,8.78,0a39.23,39.23,0,0,1,5,.6,1.34,1.34,0,0,1,.9.87q.39,3.5.57,7a1.28,1.28,0,0,1-.75,1c-3,.59-5.9,1.56-9,.36-2.75-1.07-6.08.49-7.43,3.35a1.46,1.46,0,0,0,.39,1.36,8.81,8.81,0,0,0,3,.69,103,103,0,0,0,11.89-.05c9.71-1,19.44,0,29.12-.55,11.41-.71,22.84,0,34.22-.62s22.65.18,33.94-.57c8-.53,16,0,24-.61a2.1,2.1,0,0,1,.61,0l3.12.19c4.3-.24,8.6-.46,12.9-.57a5.07,5.07,0,0,1,3.59,1.21,23.45,23.45,0,0,0,4.18,2.3,8.8,8.8,0,0,1,.89.63c5.07,2.93,13.06.15,13.06.15.75-.43,1.5-.86,2.24-1.3a11,11,0,0,0,1.66-1.08c2.13-1.89,4.47-3,7.42-2.55,1.16.19,1.7-.42,1.72-1.64,0-2.16.21-4.32.3-6.48a1,1,0,0,0-.23-.74c-.48-.37-1.49-.49-1-1.34.27-.43,1.11-.59,1.72-.71,1-.19,2-.23,3.07-.36a7.09,7.09,0,0,0,2.19-.39c2.27-1.12,4.48-2.38,6.73-3.55a2.11,2.11,0,0,0,1.34-2c0-4.14.12-8.29,0-12.43-.12-5.46-.4-10.92-.59-16.37,0-1.42,0-2.83,0-4.25-.06-1.71-.16-1.91-1.73-1.89-3.1,0-6.21.18-9.3.37-.85.05-1.61,0-1.84-.85-.34-1.23-1.19-1.3-2.18-1.27-.47,0-.94,0-1.42,0-6.21.13-12.41.27-18.62.37-.92,0-1.05.58-1.18,1.26-.18,1-.39,2-.58,2.93h0c.28.68.83,1.37-.43,1.73-1.52.44-1.9,1.63-1.88,3.09q.07,4.53,0,9.06a2.71,2.71,0,0,1-1.53,2.56v.86l-2.05-.77-.24-.06c-.8-.29-1.6-.57-2.38-.91l-.17-.08-7.54-2.83c-.63-.22-1.26-.45-1.89-.67a2.24,2.24,0,0,1-.47-.22l-4.28-1.6c-2.8-1-5.58-2.08-8.37-3.11-6.19-2.27-12.41-4.46-18.56-6.82a11.75,11.75,0,0,0-4.38-.84c-5.48,0-11,0-16.43,0-.75,0-1.69-.16-2.21.22-2.09,1.52-4,.78-6-.12a10.09,10.09,0,0,0-2.45-.65c-2.15-.36-2.28-.57-1.15-2.28.21-.31.58-.53.71-.86s0-.76-.19-.81a16.32,16.32,0,0,0-8.31-1,2.15,2.15,0,0,0-1.5,1.1c-.74,2.74-2.52,5.24-1.9,8.33.28,1.4-.42,3.15,1.72,3.67.09,0,.16.51.07.7s-.47.48-.58.42L154,144a6,6,0,0,1-1.05.24c-2.71.13-5.47-.34-8.13.59h0c-.91,2-3.92,3.78-5.84,3.28l-3.4.1c-2.63.14-5.25.41-7.88.4a6.28,6.28,0,0,1-2.5-1.11c-.18-.1-.23-.45-.34-.69.26,0,.57-.21.78-.13,1.38.58,1.57-.15,1.66-1.31.23-2.81-.26-3.26-3.1-2.66-.46.1-.91.25-1.36.37-2,.55-2.2,1.14-1,2.92.11.15.34.27.37.42.12.8.18,1.62.26,2.42-.69.07-1.39.19-2.08.19-.46,0-.92-.22-1.38-.24a12.4,12.4,0,0,1-4.88-1c-1.81-.82-4-1.42-6,.22a5.62,5.62,0,0,1-3.22.7c-5.1.07-10.2.11-15.3,0A64.39,64.39,0,0,0,74.15,150c-1.51.34-2.18.25-2.58-1.44-.28-1.2-1-2.75-2-3.21s-2.53.17-3.81.41a3.55,3.55,0,0,0-1.06.66,8.48,8.48,0,0,0,1.44.29c.46,0,.93-.19,1.39-.18.71,0,1.72-.21,1.7.93a1.64,1.64,0,0,1-1.45,1.81c-.75.07-1.51,0-2.26,0a19.05,19.05,0,0,0-14,7,13.63,13.63,0,0,1-6.3,4.51,125,125,0,0,0-17.46,7.31,8.61,8.61,0,0,1-4.34,1c-3.49-.05-7,0-10.48,0-2.17,0-2.45.35-2.56,2.44-.15,2.81-.36,5.62-.42,8.44A2,2,0,0,0,11,181.54Zm96.24-11.38q2.72,2,5.34,4.11a3,3,0,0,1,.71,1.2c.6,1.45.13,2.37-1.43,2.68a15.5,15.5,0,0,1-2.25.13v0a7.1,7.1,0,0,1-1.69,0c-.38-.1-.94-.47-1-.78-.28-2.23-.46-4.46-.6-6.7C106.35,170.54,107.14,170.08,107.25,170.17Z" fill="#d41308"/></svg>