<svg id="Layer_1" data-name="Layer 1" xmlns="http://www.w3.org/2000/svg" viewBox="0 0 300 300"><title>Cars</title><path d="M287.2,169.18a1.76,1.76,0,0,1,.93.07c1.6.59,2.18.14,1.7-1.55-.07-.27.14-.6.15-.91.07-1.82-.07-2-1.81-2.13-1.46-.08-2.92,0-4.38-.06-.23,0-.46-.25-.68-.38.21-.2.42-.55.64-.56,1.35-.1,2.71-.09,4.06-.2a4.83,4.83,0,0,0,1.32-.53c-.48-.25-.94-.68-1.44-.71-1.46-.09-2.93.06-4.38,0s-3.27-1.38-2.92-2.19c.79-1.86-.6-3-1.48-3.7a5.1,5.1,0,0,1-1.52-2.51A36.9,36.9,0,0,0,275,147.7c-6.06-10.26-18.7-16.44-31.35-12.25-.26.09-.87-.32-1-.64a11.82,11.82,0,0,1-1-2.61c-.52-2.23-2.24-2.93-4.16-3.16a84,84,0,0,0-8.7-.64c-7.31-.09-14.62-.08-21.93,0-1.2,0-2.75.16-3.51.89-1.44,1.39-3,.13-4.42.72,0,0-.24-.56-.43-.8-.34-.44-.79-1.24-1.08-1.19-.62.11-1.5.56-1.64,1-.2.69-.09,1.12-1,.82a4,4,0,0,0-4.48,1.31,2.38,2.38,0,0,1-.74.38,6.82,6.82,0,0,1-.16-.91,28.31,28.31,0,0,0-.14-3.12c-.06-.36-.61-.71-1-.9-.1,0-.62.48-.73.81a4,4,0,0,0-.14,1.55c.21,2.25-.46,4.43.14,6.79H148.15c.11-.38.6-.47,1.24-.5s1,0,1.57,0c3.86,0,7.73,0,11.59,0a2.73,2.73,0,0,0,.91-.38,4,4,0,0,0-.88-.2c-4.28,0-8.56,0-12.84,0-.83,0-2,.23-2.43-.22-1.37-1.44-2.59-.54-3.62.13-.61.4-1.22.82-1.82,1.26h-8.28l-11.28-4.34a.82.82,0,0,0,0-.56c-.87-1.61-1.65-1.63-3.09-.61L103.74,136a.85.85,0,0,0-.75.28l-1.45.54A6.11,6.11,0,0,0,95.69,139l-.87.32-.37,0c.58-1.13-.34-1-.74-.69-.78.66-2.17.64-2.41,2l-1.76.65a43.26,43.26,0,0,0-5.67-2.61,19,19,0,0,0-9.48-1.47A29,29,0,0,0,60.07,143c-1.51,1.2-3.1,2.41-5.33,2.28s-4.41-.48-6.61.54c-1.38.64-3.74-.65-4,2.16,0,.07-.2.19-.24.17-1.91-1.1-3.29.71-5,.95-2.27.32-4.51,1-6.78.32-2.54-.74-4.55,1.23-6.92,1.17-.21,0-.41-.13-.61-.11-2.89.21-5.8.29-8.66.71-1.58.23-3.34.61-3.82,2.69-.1.43-.67.77-1,1.13-1.38,1.36-1.36,1.67-.58,3.14a26.25,26.25,0,0,1,2.83,6.16,4.08,4.08,0,0,0,3.21,3.35c3.1.87,6.24,1.59,9.38,2.3A169.85,169.85,0,0,0,53,174a2.89,2.89,0,0,1,2.37,1.41c2.13,2.4,4.11,5.12,6.72,6.87,5.4,3.64,11.35,5.32,18.09,4,5.54-1.09,10.28-3.38,14-7.53a7.39,7.39,0,0,1,6.21-2.7c14.93.11,29.86.07,44.8,0,2.7,0,5.39-.36,8.09-.49,1.35-.06,2.71,0,4.07.05,3.53.12,7.12.72,10.58.29a35.72,35.72,0,0,1,11.7.59c2.21.44,4.54.87,6.63-.7a2.68,2.68,0,0,1,1.5-.32q5.14,0,10.29,0c1.64,0,3.3-.26,4.48,1.48.34.51,1.53.46,2.33.65,3.92.93,8-.59,11.89.77a1.49,1.49,0,0,0,.9-.17,6.35,6.35,0,0,1,5.14-.25c.5.21,1.21-.13,1.83-.15,1,0,2,0,3,0s2,.43,2.75.1c1.54-.66,2.32.15,3.24,1,6.12,6,13.3,8.5,21.9,7.35A25,25,0,0,0,273.79,175a2.39,2.39,0,0,1,1.34-1,12.53,12.53,0,0,1,4.31-.27c3,.63,6-.46,8.94-.18.52,0,1.59-.69,1.57-1a3,3,0,0,0-1-2c-.48-.37-1.36-.24-2.07-.31-1.1-.1-2.2-.18-3.3-.27C284.53,168.44,286,169.44,287.2,169.18ZM190.9,135.36h.2l-.2.44h-1.33A1.62,1.62,0,0,1,190.9,135.36Z" fill="#d41308"/></svg>