<svg id="Layer_1" data-name="Layer 1" xmlns="http://www.w3.org/2000/svg" viewBox="0 0 300 300"><title>Cars</title><path d="M290,148.45V133.26H265.86v13.3a3.47,3.47,0,0,0-1.23-.36c-2.12-.23-4.24-.43-6.36-.59a11.72,11.72,0,0,0-2.62.06c-4.49.69-8.66,2.15-12,5.45a2,2,0,0,1-2.59.46c-6.06-2.85-12.16-5.62-18.25-8.42-1.94-.89-3.88-1.8-5.83-2.67l-28.58-12.1c-.07-.16-.11-.4-.23-.46-.61-.28-1.24-.54-1.87-.77-1.46-.51-2.93-1-4.39-1.5,1-1.07,2-2.18,3.06-3.2.58-.55.35-.69-.22-.91a19.45,19.45,0,0,0-8.89-1.06,2.81,2.81,0,0,0-2,1.33,29.46,29.46,0,0,0-1.48,5.85,27.38,27.38,0,0,0,0,4.67c.06,2.2.09,2.17,2.32,2.88.44.14,1.08.74,1,1a2.43,2.43,0,0,1-1,1.56c-.4.24-1.11,0-1.67-.08-2-.29-4-.65-6-.91a2.11,2.11,0,0,0-2.48,1.55,25.67,25.67,0,0,0-1,3.3c-.34,1.82-.88,3.28-3,3.74s-4.44,1.48-6.71,1.84c-5.82.92-11.68,1.62-17.52,2.37a8.76,8.76,0,0,1-1.94-.18c.51-.23,1.42-.39,1.47-.69a7.65,7.65,0,0,0,.09-3.68c-.42-1.16-1.65-.46-2.55-.18-.28.09-.58.06-.86.15-1.82.54-2.18,1.71-1,3.24.26.35.5.72.75,1.08a7.35,7.35,0,0,1-1.37.29,14.83,14.83,0,0,1-3.78-.07,24.25,24.25,0,0,0-7.41-.84c-3.47.22-7-.18-10.47-.2-5.91,0-11.81,0-17.72,0-3.1,0-6.19.3-9.28.51a10.28,10.28,0,0,1-5.3-1.22c-7.4-3.56-14.59-3.3-21.48,1.42a6.48,6.48,0,0,1-2.4.92c-4.84.92-9.7,1.63-14.51,2.79a163.14,163.14,0,0,0-25.39,8.38,11.94,11.94,0,0,0-2.27,1.28c-1.17.84-1.12,1.76.13,2.46a6.58,6.58,0,0,0,1.65.47c.94.23,1.89.41,2.82.67.2.06.33.36.49.55-.24.12-.53.38-.73.32-1-.28-2-.68-3-1-.22-.06-.51.14-.77.22.15.23.26.6.46.66,1.2.35,2.47.53,3.63,1,.5.19.82.88,1.22,1.35a4.39,4.39,0,0,1-1.11.7c-2.57.69-2.83,1-2.86,3.51s0,4.87,0,7.3c0,2.06.16,2.21,2.14,2.21q14.32,0,28.63,0c1.92,0,2-.11,2-2,.05-2.92,0-5.84,0-8.76,0-.87-.6-2.28.72-2.47s1.2,1.26,1.51,2.13a4.1,4.1,0,0,0,.21.54c1.07,2.05,1.89,4.31,3.31,6.1a21.53,21.53,0,0,0,5.39,4.84c1.93,1.21,4.32,1.64,6.42,2.62s4.56-.38,6.77.43c4.19-1,8.31-2.1,11.33-5.51.84-.95,1.71-1.87,2.63-2.73a3.11,3.11,0,0,1,1.62-1,24.77,24.77,0,0,1,10.05,1.16,7,7,0,0,1,2.27,1.24c1.85,1.67,1.36,3.91-1,4.73a6.63,6.63,0,0,1-2,.25c-1.66,0-3.31,0-5,0-1,0-2,.27-3,.41.68,1.48,2,.84,3.07.84q44.56.07,89.11,0a19.68,19.68,0,0,0,3.32-.59c.15,0,.37,0,.47,0,1.28,1.1,2.81.55,4.21.55q31.55.06,63.11,0a12.12,12.12,0,0,1,2.91.11,21.19,21.19,0,0,0,10.08-.24,15.77,15.77,0,0,1,3.44-.44c6.82,0,13.63,0,20.45.09,1,0,1.18-.34,1.18-1.14,0-2.63-.07-5.26,0-7.89s0-5.44-1.76-7.75c-.29-.37-.4-.88-.67-1.28-.77-1.15-.07-1.32.86-1.35.29,0,.59,0,.88,0,1.77-.15,1.86-.15,2-2.07.12-2.28.16-4.57.07-6.86-.11-2.93-.1-5.85,0-8.78ZM36.63,171.07c-.43.52-1,.93-1.43,1.45-1.85,2.28-4,2.73-6.7,1.45-1.1-.53-1.78-1-1.64-2.31.12-1-.27-2.45.27-3.06s1.94-.14,3-.07c3.37.25,6.73.54,10.09.81A4.28,4.28,0,0,0,36.63,171.07Zm149.86-42.12c.1-.48.42-.76,1.37-.4Z" fill="#d41308"/></svg>