<svg id="Layer_1" data-name="Layer 1" xmlns="http://www.w3.org/2000/svg" viewBox="0 0 300 300"><title>Cars</title><path d="M289.09,154.29c-2.67-5.13-6.36-9.53-10.18-13.78a49.58,49.58,0,0,0-7.17-6.22,77.38,77.38,0,0,0-8.77-5.83c-3.06-1.7-6.4-2.91-9.56-4.44-4.68-2.27-9.67-3.59-14.64-5-1.61-.44-3.36-.37-4.94-.87a36.38,36.38,0,0,0-8.55-1.63c-2.4-.18-5-.17-6.63-2.63-.22-.33-1-.46-1.46-.43-1.3.09-2.59.33-3.89.5a22,22,0,0,1-3.36.42c-1.85,0-3.69-.35-5.54-.41a4.63,4.63,0,0,0-2.2.54,6.49,6.49,0,0,0-3.78,5.63,13,13,0,0,1-.45,3.66c-1,2.8-2.26,5.52-3.42,8.27a32.22,32.22,0,0,1-6.75,9.71,6.15,6.15,0,0,1-5.18,2.06,63,63,0,0,0-6.89,0A18.72,18.72,0,0,1,163.38,140a33,33,0,0,1-5.12-5.27c-1-1.25-1-2.73.35-4.26l3.68,3.12a3,3,0,0,0,.1-2.37,41.87,41.87,0,0,0-3.71-6.91c-1.55-2.06-1.83-5-4.32-6.35a4.68,4.68,0,0,0,1.8,5.15,3.51,3.51,0,0,1,.74.76c.85,1.16.53,3.26-.79,3.61l-6.64-8.21h-.88c-.57-.61-1.31-.35-2.66,0l-4.65.61c-.65,0-1.3,0-1.95,0l-.18-.57,2.08-1.25c-1.24-1.11-2-1.91-2.94-2.59-1.37-1-2.09-.92-3,.59a10.94,10.94,0,0,0-1.1,2.68,3.06,3.06,0,0,1-2.46,2.42L117.15,123l-.7.07v0L97,125.69h-.43c-.44,0-.88,0-1.32.09-1.58.16-3.15.34-4.73.5a59.44,59.44,0,0,0-7.63.78c-5.29,1.23-10.77,1.15-16,2.59l-15.21,2-.61.7c-5.13.26-10.28.45-15.26,1.91a29.59,29.59,0,0,0-6.62,2.56,23.42,23.42,0,0,0-8.49,8.43,15.17,15.17,0,0,1-3.54,4.45c-1.8,1.37-3.77,2.49-5.48,4a4.13,4.13,0,0,0-1.54,4,35.38,35.38,0,0,0,1.57,5.81,10.63,10.63,0,0,1,.83,4c0,1.2,1.13,2.41,1.73,3.63.11.22,0,.53.08.79.38,2.3.7,2.71,3,3a11.31,11.31,0,0,1,6.27,3.11,50.36,50.36,0,0,0,7.56,5.71,17.27,17.27,0,0,0,6.65,2.31,67.37,67.37,0,0,0,10.59.1A11.37,11.37,0,0,0,53.4,185c3.09-1.81,6.55-3.11,9-5.88a7.07,7.07,0,0,1,5.73-2.23c5.82.07,11.64.15,17.47.16q23.86.05,47.71.05c17.48,0,35,.05,52.43,0a13.65,13.65,0,0,1,8.28,2.87,90.11,90.11,0,0,0,7.77,5,9.8,9.8,0,0,0,4,1.22c4,.29,7.94.27,11.89.54,3.27.23,6-1.21,8.77-2.52a29,29,0,0,0,8.69-6.38,10.28,10.28,0,0,1,8.56-3.27c3.7.18,7.42,0,11.13,0a5.15,5.15,0,0,0,4.1-1.38c1.49-1.54,3.46-1.88,5.48-2.26a92.29,92.29,0,0,0,10.3-2.37,53.3,53.3,0,0,0,11.44-5.34C290,160.86,290.95,157.86,289.09,154.29Z" fill="#d41308"/></svg>