<svg id="Layer_1" data-name="Layer 1" xmlns="http://www.w3.org/2000/svg" viewBox="0 0 300 300"><title>Cars</title><path d="M202,174.95c-5.48.34-10.44.7-15.41.94s-10.12.12-15.14.57c-5.36.49-10.72.14-16.06.38-15.55.7-31.12.3-46.68.47-7.45.08-14.9.21-22.36.3-1,0-2,0-2.94-.08a4.19,4.19,0,0,0-3.74,1.42,24.06,24.06,0,0,1-13.77,7.27,27,27,0,0,1-17.16-2.52A22.92,22.92,0,0,1,41,177.52a3.91,3.91,0,0,0-3.06-1.6c-3.39-.14-6.78-.27-10.16-.51-3.08-.22-6.15-.55-9.21-.92a2.62,2.62,0,0,1-2.41-2c-1.91-6.51-3.92-13-5.86-19.49-.52-1.76-.47-1.83,1.13-2.61a210.54,210.54,0,0,1,25.43-10.59c1.94-.64,4.2-.74,5.78-2.36a1,1,0,0,1,.65-.14c2.73.11,5.16-.94,7.6-1.93a27.87,27.87,0,0,1,8.1-1.88c2.76-.24,5.48-.94,8.22-1.44,6.88-1.26,13.74-2.62,20.64-3.75,5.79-.95,11.62-1.61,17.43-2.42,4-.56,8-1.17,12.06-1.69,3.06-.39,6.14-.65,9.21-1,1-.11,2.09-.29,3.14-.37s2.12-.33,2.86.82c.15.24.64.31,1,.36a3.21,3.21,0,0,0,.87-.11,5.07,5.07,0,0,0-.58-.61c-.42-.32-.87-.6-1.31-.9a1.59,1.59,0,0,1-.53-1.83c.15-.83.82-.6,1.39-.74a2,2,0,0,1,2,.51,5.94,5.94,0,0,0,5.37,1.58,25.43,25.43,0,0,1,5.17-.48,2.76,2.76,0,0,0,2.84-2.06l2.82-7.58c.39-1.06.76-2.13,1.21-3.17.12-.28.48-.45.73-.67a3.38,3.38,0,0,1,.66,1c.06.32-.22.7-.33,1.06-.87,2.88-1.74,5.76-2.59,8.64-.35,1.19-.13,1.43,1,1.16a.81.81,0,0,0,.21-.07c2.07-1.2,3.75-.77,5.29,1a13.89,13.89,0,0,0,2.79,2.29c.35.24.94.14,1.42.19A4.7,4.7,0,0,0,162,122c-.68-3-1.41-6-2.12-9,0-.15-.12-.28-.15-.43-.25-1.21.18-2.35,1-2.41,1-.07,1.4.75,1.64,1.56.63,2.17,1.22,4.35,1.82,6.53.28,1,.52,2,.83,3,.65,2.17.74,2.25,3,2.25l29.48.06c1.13,0,2.27,0,3.4,0,2.44.07,3,.58,3.32,3a2.86,2.86,0,0,0,.46.86c.22-.18.54-.31.66-.54,1.89-3.61,4-7.13,5.54-10.89,1-2.53,1.22-5.41,1.78-8.13.12-.59.21-1.19.36-1.77.23-.88.82-1.15,1.72-1,2.39.27,4.79.54,7.19.68a24.88,24.88,0,0,0,3.33-.24c.37,0,.91-.2,1.08,0,1.49,1.53,3.53,1.11,5.3,1.56,3.28.84,6.6,1.53,9.91,2.27a15.8,15.8,0,0,0,3.28.33c.95,0,1.83,1.15,2.83,1.62,3.07,1.44,6.25,2.66,9.24,4.23a69.23,69.23,0,0,1,14,9.11,3,3,0,0,0,1.81.66c2.64.05,5.29,0,7.93,0,.72,0,1.72-.51,2.08.31a7.89,7.89,0,0,1,.49,3,1.9,1.9,0,0,1-.72,1.35c-.33.24-.93.09-1.41.14-.67.07-1.34.17-2,.27s-1.1.21-1.65.31a16.91,16.91,0,0,0,1,1.5,70.25,70.25,0,0,1,9.24,14.19,9.92,9.92,0,0,0,.92,1.56c2.5,3.44,1.72,9.36-2.89,12.26a48.73,48.73,0,0,1-14.57,6c-5.85,1.42-11.76,2.55-17.66,3.73a4.56,4.56,0,0,0-3.35,2.29A27.68,27.68,0,0,1,208,178.78a9.73,9.73,0,0,1-1.83-1.67C205,175.34,203.61,174.4,202,174.95Z" fill="#d41308"/></svg>