<svg id="Layer_1" data-name="Layer 1" xmlns="http://www.w3.org/2000/svg" viewBox="0 0 300 300"><title>Cars</title><path d="M196.78,141.18q7.65,0,15.29,0c.53,0,1.05.16,1.58.16,1,0,1.91.17,2.78-.64a1.51,1.51,0,0,1,2.26,0,2.4,2.4,0,0,0,2.08.65H229a9.54,9.54,0,0,1,1.59.06c.88.15,1,.54.7,1.45-.05.14-.24.24-.25.37-.06.95-.5,2.1.37,2.73.45.32,1.43,0,2.13-.14,1.76-.43,3.48-1.07,5.25-1.38a24.64,24.64,0,0,1,4-.07l3.6,0c.67-1.3.88-.52,1.26.21a2.69,2.69,0,0,0,1.09,1c1.85,1,3.77,1.95,5.58,3a10.49,10.49,0,0,1,2.39,2.08c.88,1,1.47,2.13,2.95,2.61.86.28,1.37,1.54,2.11,2.3a.92.92,0,0,0,.86-.15c.77-1.47,1.46-3,2.17-4.48.25-.53.52-1,0-1.64-.73-1,.42-2.32.16-3.16s-1.39-1.56-1-3c.29-1.13-.61-1.81-2-1.64-.76.1-1,0-.79-.76,0-.07.07-.16.05-.22-1.36-4.64-1.37-4.41-.92-7.75.18-1.31.71-1.67,1.74-.91a2.15,2.15,0,0,0,2.48.12,8.38,8.38,0,0,1,3-.72c6.7-.06,13.41,0,20.11,0a8.93,8.93,0,0,1,1.14,0c1.15.15,1.4.55.95,1.69a13.91,13.91,0,0,0-.62,7.27c.18,1.29.44,2.58-1,3.42-.24.14-.26.65-.42,1a7.44,7.44,0,0,1-.72,1.25,9.92,9.92,0,0,1-1.35,1.47c-.87.74-1.79,1.43-2.73,2.08a.84.84,0,0,1-.78-.25c-1.08-1.77-2.7-1-4.06-.75-.67.12-1.12.38-1.83,0s-1.27,0-1,.81a2.88,2.88,0,0,1-.34,2.33,13.19,13.19,0,0,0-.68,3.32q-.5,3.59-.89,7.2a2.08,2.08,0,0,0,.3,1.28c.54.81.47,1.12-.57,1.33-1.51.3-3.19.34-4.14,1.91a.63.63,0,0,1-.6.12c-.9-.5-1.36.32-2,.6s-.61.56-.17,1c.91.83,1.52,1.6.57,2.91-.3.41.22,1.4.34,2.13,0,.21.08.49,0,.62a.59.59,0,0,1-.57,0c-1.06-1.38-2.94-.39-4.13-1.41-.12-.1-.75.14-.93.38a12,12,0,0,0-1.43,2.32,22.14,22.14,0,0,1-3.68,5.17,14.67,14.67,0,0,1-1.88,1.64,5.1,5.1,0,0,0-1.18,1.06c-.32.54-.24,1.5-.65,1.73s-1.17-.28-1.8-.4c-.19,0-.43.12-.64.21-5,2.2-8.6,2.42-14,1.36-1-.2-2-.5-3-.74-.17,0-.47-.05-.53,0-.74,1.16-1.9.8-2.91.8q-61.47,0-122.94,0c-2,0-3.32-.53-4.1-2.43-.31-.77-.72-1.72-2-1.35-.25.07-.66-.29-1-.5a3.17,3.17,0,0,0-3.86,0,1.22,1.22,0,0,1-.78.28c-1.95-.48-2.37-.43-4,.61a4.3,4.3,0,0,1-.59.35c-.52.23-1,.12-.89-.51.21-1.07-.28-1.15-.87-.59-1.3,1.22-3.14,1.76-4,3.5a1.48,1.48,0,0,1-2.3.63c-1-.68-2.07,0-3,.17a16.78,16.78,0,0,1-6.09,0,6.24,6.24,0,0,0-3.44,0c-1.4.49-3.22-.24-4.86-.43-.46-1.75-3.31-2.17-2.6-4.62,0-.12-.49-.56-.76-.58a29.16,29.16,0,0,0-3.88,0,1.71,1.71,0,0,0-1.12.86,2.33,2.33,0,0,1-2.4,1.38c-.91,0-1.83,0-2.74,0a2.6,2.6,0,0,1-1.46-.49c-.94-.85-1.74-1.22-2.62.07a1.34,1.34,0,0,1-1,.31c-1.43,0-2.85-.1-4.28-.17a3.37,3.37,0,0,1-1.08-.19c-.59-.24-.77-.57-.32-1.22.7-1,.44-1.6-.68-1.87a2.37,2.37,0,0,0-.45,0c-3.18-.16-6.36-.3-9.54-.48-1.36-.08-2.71-.26-4.06-.36a4.58,4.58,0,0,0-1.57.07,3.7,3.7,0,0,1-3.47-.31c-.85-.6-1.43.35-2,.74a3.75,3.75,0,0,1-3.87.42c-.69-.26-1-.41-.58-1.27.72-1.44.46-2-1.16-2a3.81,3.81,0,0,1-3-1.79,1.06,1.06,0,0,1,.48-1.83c1.56-.67,3.12-1.33,4.68-2,.14-.06.3-.22.39-.19a2.65,2.65,0,0,0,3.43-1.17.81.81,0,0,1,1.37.15c.57.92,1.29.84,2.17.57a14.87,14.87,0,0,1,2-.24,3,3,0,0,0,1.06-.32c.4-.23.11-1.17,1-1,1,.21,2.06.44,3.08.71.16,0,.31.33.38.53.67,2,.82,2.07,2.78,2,.59,0,1.18.2,1.77.21a5.9,5.9,0,0,0,1.75-.22c.73-.23,1.22-.61.57-1.49-.18-.25,0-.79.06-1.19.36.18.94.28,1.05.56.44,1.09,1.11.94,2,.68a9.28,9.28,0,0,0,4.29-3.08,29.22,29.22,0,0,1,3.13-2.94,2.18,2.18,0,0,1,2.87-.29,3.47,3.47,0,0,0,4.46-.88,1.57,1.57,0,0,1,1.38-.48c.4,0,1.11-.45,1.14-.75.07-.68-.61-.34-1-.44a.53.53,0,0,1-.19-1,5.75,5.75,0,0,0,1.94-2.12c.23-.38,1.25-.77,1.46-.6.85.69,1.19.16,1.6-.41.8-1.1,1.57-2.22,2.4-3.3a5,5,0,0,1,.88-.66c1-.79,2.44-.93,3-2.31.07-.19.65-.2,1-.23s.57.17.64.09c1.53-1.93,3.72-.84,5.53-1.06a11.82,11.82,0,0,0,6.8-3.26,4.12,4.12,0,0,1,1.2-.94c.94-.34,1.67-.73,1.6-1.9,0-.09.42-.34.48-.3,1.13.78,1.87.07,2.55-.68a3.28,3.28,0,0,1,3.18-1c1.93.19,3.73.92,5.66.94,1.11,0,2.22.17,3.33.18,2.33,0,4.67,0,7,0,.9,0,1.8-.23,2.7-.29a18,18,0,0,1,2.26,0,16.59,16.59,0,0,0,3.6.24,26.23,26.23,0,0,1,4.73.11c1.46,0,1.8.4,1.84,1.92,0,.67.26.78.77.78,2.44,0,4.88,0,7.31,0a2,2,0,0,0,1.19-.78,9.06,9.06,0,0,0,1-1.54,1.32,1.32,0,0,1,1.72-.73c1.17.52,2.22,0,3.33-.07,2.33-.23,4.68-.34,7-.49.61,0,1.22,0,1.83,0,1.77,0,1.72,0,1.63-1.8-.08-1.44-.05-2.89,0-4.34a2.07,2.07,0,0,1,.39-1.26c1.59-1.71,1.17-3.79.69-5.61a13.2,13.2,0,0,1,0-4.43,1.51,1.51,0,0,1,1.7-1.47,2.21,2.21,0,0,1,2.11,2,9.12,9.12,0,0,1-.25,1.1c-.19,1.57,0,1.68,1.4,2.37,2.18,1.06,4.29,2.26,6.41,3.43,2.38,1.31,4.71,2.72,7.13,4,.74.38,1.75.22,2.5.59s1.14,1.2,1.83,1.59q2.92,1.68,6,3.14a4.83,4.83,0,0,0,2,.25c5.79,0,11.58,0,17.37,0Z" fill="#d41308"/></svg>