<svg id="Layer_1" data-name="Layer 1" xmlns="http://www.w3.org/2000/svg" viewBox="0 0 300 300"><title>Cars</title><path d="M289.47,152.7c-2.1-7.7-12.85-21.09-20.6-25.52a85.4,85.4,0,0,0-29.2-9.87c-4.25-.69-8.5-1.39-12.82-2.1l2-1.86a37.82,37.82,0,0,0-10.86-1c-.3,0-.54,1.09-.83,1.73-3.06,0-6.67.09-10.28,0-2-.07-3.27.23-3,2.61a2.4,2.4,0,0,1-.34,1.28c-1.07,2-2.32,4-3.25,6.13-2.61,5.88-4,12.34-8.28,17.44-1.75,2.08-3.49,3.67-6.49,3.81-8,.36-14.66-2.09-19.38-8.91,1.76-.94,1.85-1,1.13-3-3.07-8.41-6.17-16.8-9.36-25.16-.27-.7-1.31-1.11-2-1.66a6.16,6.16,0,0,0-.25,2.42c1.06,3.15,2.35,6.22,3.44,9.36a12,12,0,0,1,.3,2.75l-.74.1-3.07-7.64-4.35,2.44c-.65-4,1.59-7.18,1.7-10.68a1.8,1.8,0,0,0-.81.87c-.9,2.4-1.95,4.76-2.61,7.22-.88,3.27-2.45,5.48-6.1,5.91-2,.23-3.93,1.08-5.93,1.42-.9.15-1.94-.51-2.85-.38-1.46.2-2.87,1-4.32,1.08-11.7.35-23.41.56-35.12.83-6.05.14-12.1.25-18.15.49-3.25.13-6.48.5-9.72.76-1.11.09-2,.25-2.13,1.75a2.63,2.63,0,0,1-2.84,2.56c-2.78.16-5.53.84-8.32,1.1-2.23.21-4.41,1.64-6.76.39-.2-.11-.71.35-1.06.56a8,8,0,0,1-1.55.94c-5.4,1.67-11,2.92-16.18,5.06-3.77,1.55-7.17,4.1-10.53,6.5a10.93,10.93,0,0,0-4,5.5A23.46,23.46,0,0,0,12.73,151h0l0,.2a13.53,13.53,0,0,0-.37,7.57l-2.1,1.09-.2.78c3.82-.63,4,2.31,5.14,4.34a16.38,16.38,0,0,0,1.8,2.33c2.91,3.47,6.9,4.7,11.14,5.53a5.48,5.48,0,0,1,2.58,1.75c1.85,2,3.38,4.29,5.38,6.09,9.32,8.41,28.76,8.37,37.88-5.2a3.49,3.49,0,0,1,2.44-1.4q39.51-.13,79-.08c8.09,0,16.2.05,24.28.44a88.25,88.25,0,0,1,12.08,1.88,6.23,6.23,0,0,1,3.24,1.57,27.26,27.26,0,0,0,21.36,8.75c8.62-.19,15.69-3.89,21.12-10.65a2.71,2.71,0,0,1,1.6-1c2.47-.25,5-.34,7.45-.49l11.26-.69-.2-4c2.13-.4,4.15-.65,6.11-1.18,7-1.89,14-3.63,20.85-5.92C289.62,161,290.86,157.8,289.47,152.7ZM159.58,123.4l.71-.46,2.44,4.5C160.9,127.3,160.9,127.3,159.58,123.4Z" fill="#d41308"/></svg>