<svg id="Layer_1" data-name="Layer 1" xmlns="http://www.w3.org/2000/svg" viewBox="0 0 300 300"><title>Cars</title><path d="M290,150.84q0,5.19,0,10.39c0,.4,0,.79,0,1.19a1,1,0,0,1-1.07,1.05c-.51,0-1,0-1.53,0-.32,0-.85.06-.93.24-.39.93-1.16.74-1.87.78-1.1.06-1.5.36-1.69,1.5-.11.7-.18,1.31-.91,1.68s-.49,1-.49,1.52q0,4.26,0,8.51c0,.4,0,.79,0,1.19a.8.8,0,0,1-.77.91c-2.73.43-5.45.93-8.18,1.36-1.73.27-3.46.47-5.19.72a2.12,2.12,0,0,0-.61.26c-2,1-3.89,2.07-5.89,3a9,9,0,0,1-4.3.83c-1.47-.08-3,0-4.43,0a21.61,21.61,0,0,1-11.7-3.39,4.19,4.19,0,0,0-2-.67c-5.1.06-10.2,0-15.28.39-2.72.2-5.43.18-8.14.25-5.72.14-11.45,0-17.15.42-5.33.38-10.65.09-16,.28-2,.07-4.06.23-6.09.33-.53,0-.89.2-.88.79,0,.78-.47.92-1.12.92-3.52,0-7,0-10.56,0a21,21,0,0,0-3.36-.27,59.36,59.36,0,0,1-10,.25c-2.65,0-5.3.15-7.94,0-1,0-1.9-.22-2.86-.27a18.69,18.69,0,0,0-2.2.07,7.24,7.24,0,0,1-1.84.18c-2.26-.47-4.49.07-6.73,0s-4.54,0-6.81,0c-1.35,0-2.7-.2-4-.3a8.78,8.78,0,0,0-1.36,0c-8.14.7-16.3.16-24.45.34a5.93,5.93,0,0,1-1,0c-.71-.11-.94-.52-.43-1a2.29,2.29,0,0,0,.51-2.2c-.07-.42-.54-.61-.74-.28-1,1.59-2.68,1.37-4.11,1.43a8.52,8.52,0,0,0-4,1.1,20,20,0,0,1-9.77,2.4,30.19,30.19,0,0,1-7.91-.73,11.54,11.54,0,0,1-2-.8c-.92-.43-1.83-.91-2.73-1.39a9.11,9.11,0,0,1-2-1.17,25.55,25.55,0,0,1-6-8.33,10.33,10.33,0,0,1-.52-2.64c-.08-.5,0-1-.1-1.52a.57.57,0,0,0-.46-.34c-.16,0-.32.27-.39.45s0,.33,0,.5c.09,1.58.22,3.16.24,4.73,0,1.15-.82,1.58-1.87,1.84-1.69.43-3.31-.28-5,.07a25.61,25.61,0,0,1-4.92.11c-1.7,0-3.41,0-5.11,0a1.89,1.89,0,0,0-1,.21c-2,1.3-4.32,1.59-6.48,2.39a1.1,1.1,0,0,1-.5.09A3.11,3.11,0,0,0,22,181.61c-.37.59-1,.62-1.68.61-2.1,0-4.2,0-6.3,0-.78,0-1.55,0-2.33,0A1.25,1.25,0,0,1,10.39,181c-.24-2.3-.72-4.59,0-6.89a4.93,4.93,0,0,1,.3-1,1.44,1.44,0,0,1,1.8-.8,7.67,7.67,0,0,0,1.48.19c.23,0,.45-.29.68-.45-.2-.14-.41-.43-.59-.41-.51.06,0-1.18-.89-.64,0,0-.46-.63-.76-.9-.75-.66-.46-1.33,0-2,.59-.86,1.73-1.29,2-2.45,0-.07.19-.16.28-.15,1.3.07,1.86-.92,2.53-1.74a4.15,4.15,0,0,1,1.74-1.25c2.94-1.18,5.81-2.53,8.77-3.66,2.53-1,5.12-1.78,7.72-2.56,2.36-.72,4.74-1.36,7.13-1.95,1.42-.35,2.87-.56,4.31-.8,2.22-.37,4.48-.59,6.67-1.12s4.45-1,6.26-2.68c.9-.84,2.3-1.15,3.49-1.68a4.78,4.78,0,0,1,.81-.25c1.64-.41,2.89-1.09,2.71-3.14-.07-.82-.27-1.09-1.12-.9a7.49,7.49,0,0,1-1.62.27.93.93,0,0,1-.67-.51c-.19-.47.24-.52.57-.6s.54-.18.82-.22c2.47-.42,3.1-.44,3.9,2.36.09.33.21.64.33,1a1.34,1.34,0,0,0,1.55,1,7.73,7.73,0,0,0,1.36,0,5.9,5.9,0,0,1,4.11.52,22,22,0,0,0,9.8,1.59c2.38-.13,4.77,0,7.15,0,1.53,0,1.71-.14,2-1.66s.42-3.24.65-4.85c.12-.84.28-1.67.47-2.49,0-.13.33-.24.51-.26s.27.25.26.38c-.08,1-.24,1.9-.31,2.86-.11,1.52-.23,3-.23,4.56,0,1.09.31,1.36,1.41,1.48a12,12,0,0,0,3.16.08,23.53,23.53,0,0,1,3.71.12c2.44,0,4.87.11,7.31,0a3.49,3.49,0,0,0,1.74-.89,6.45,6.45,0,0,1,3.39-1.37,28.17,28.17,0,0,1,3.4,0c1.11,0,1.21.15,1.39,1.26a2.37,2.37,0,0,0,.09.67c.09.17.31.39.47.38a1.15,1.15,0,0,0,.7-.31,1.32,1.32,0,0,0,.22-.63c.29-1.25.37-1.3,1.33-.41a5.5,5.5,0,0,1,1.26,1.48,2.25,2.25,0,0,0,3.59.27,2.56,2.56,0,0,1,2.16-.7c.77,0,1.47,0,1.85.87.24.52.67.35,1,.08a8,8,0,0,0,.76-.91,4.28,4.28,0,0,1,2.41-1.49,10.35,10.35,0,0,1,5,.08c.49.14.68.33.69.94,0,1.65.24,1.8,1.89,1.81.85,0,1.7,0,2.55,0a7.06,7.06,0,0,0,3.84-1,57.06,57.06,0,0,1,7.32-3,12.92,12.92,0,0,1,3-.41c1.29-.14,2.58-.28,3.88-.35a1.2,1.2,0,0,0,1.3-1.06,12.32,12.32,0,0,0,.39-2c0-.67.43-1,.77-1.43s1-.38,1.54-.31a2.46,2.46,0,0,0,.51,0l2.32-.22a6.52,6.52,0,0,0,.22-3.12,2.63,2.63,0,0,1-.14-.81c0-1.42.09-2.83.09-4.25,0-2.42-.13-4.84.83-7.15a9.53,9.53,0,0,0,.52-2,2.29,2.29,0,0,1,1.86-1.93,13,13,0,0,1,4.9-.24,41.62,41.62,0,0,1,5.3,1.07c.28.06.51.38.76.57-.18.19-.33.48-.56.57-1.16.46-1.37,1.58-1.82,2.53-.24.5-.13.88.46,1a6.07,6.07,0,0,0,1.32.29c4,0,7.75,1.31,11.53,2.46s7.55,3,11.44,4.1a18.74,18.74,0,0,0,2.39.68c1.37.21,2.34,1.2,3.6,1.65,4.42,1.58,8.78,3.33,13.18,5a38.47,38.47,0,0,0,6.08,2.13c2.32.45,4.23,1.72,6.37,2.49a6.22,6.22,0,0,0,2,.24c2.33,0,4.65,0,7,0,.78,0,1.56-.21,2.35-.3,1.58-.19,1.59-.18,1.59-1.81,0-2.16,0-4.31,0-6.47A6.44,6.44,0,0,1,254,136a2.94,2.94,0,0,1,3.17-2.48q9,0,18,0c1.42,0,1.43,0,1.46,1.42,0,.4,0,.79,0,1.19,0,2.1,0,2.13,2.23,2.15,2.84,0,5.68,0,8.51,0,.4,0,.8,0,1.19,0,1.08.06,1.27.25,1.33,1.32,0,.34,0,.68,0,1Q290,145.73,290,150.84Z" fill="#d41308"/></svg>