<svg id="Layer_1" data-name="Layer 1" xmlns="http://www.w3.org/2000/svg" viewBox="0 0 300 300"><title>Cars</title><path d="M268.78,132.44h18c.52,0,1,0,1.57,0,1.39.1,1.93.67,1.62,2-.65,2.83-1.37,5.65-2.19,8.44a4.28,4.28,0,0,1-1.42,1.94,35.35,35.35,0,0,1-7.65,4.44,2.26,2.26,0,0,1-1.31.2c-2.2-.47-3.16,1.21-4.36,2.47a.73.73,0,0,0,.07.69c.28.34.68.58,1,.89,1.54,1.53,1.35,3.29-.54,4.38a4.67,4.67,0,0,1-1.9.54,13.07,13.07,0,0,1-3.13,0c-2.14-.34-3.7.63-5.25,1.88-3.42,2.76-6.87,5.47-10.33,8.18a3.35,3.35,0,0,0-1.54,2.8c0,1.23-.13,1.2-1.45.85a12.75,12.75,0,0,0-1.76-.21,1.78,1.78,0,0,0-2.1,1.23,21.8,21.8,0,0,1-5.94,8,21.4,21.4,0,0,1-11.18,5.16c-5.08.89-9.6-.6-14-2.67-1.81-.86-3.24-2.55-4.81-3.91a3.62,3.62,0,0,0-2.08-1.17,2.55,2.55,0,0,0-2.56.78,17.21,17.21,0,0,1-2.5,2.2,1.63,1.63,0,0,1-1,.27c-30.81,0-61.63.09-92.44-.16-9.63-.08-19.26-.26-28.9-.36a5.9,5.9,0,0,0-4.61,1.78c-1.85,1.85-4.36,2.58-6.84,3.12-5.86,1.27-10.88-.54-15.16-4.54a4.26,4.26,0,0,0-3.17-1.28c-9.5,0-19,0-28.5,0a11.94,11.94,0,0,1-2-.07c-1-.17-1.26-.62-1-1.74.12-.58.08-.93-.54-.84-2.53.4-4.83-.79-7.27-1a1.36,1.36,0,0,1-.83-.28c-.33-.35-.77-.82-.73-1.2a1.44,1.44,0,0,1,.9-1.06,5.7,5.7,0,0,0,2.8-1.24,3.91,3.91,0,0,1,2.11-.64,38.33,38.33,0,0,1,6,.3A7.83,7.83,0,0,0,28.49,171c1.17-1,2.76-.83,4-1.68.15-.11.76.16.92.4s0,.66-.07,1c0,.13-.19.22-.29.34-.89,1.14-.87,1.52.54,1.76,2,.32,3.91.79,5.87-.74a60.85,60.85,0,0,1,8-4.92,5.12,5.12,0,0,0,2.51-2.85,16.37,16.37,0,0,1,4.8-6.92c3.1-2.64,6.51-4.37,10.73-4.37A16.58,16.58,0,0,1,73,154.57a3.3,3.3,0,0,0,3.21.11c1.82-1,4-1.1,5.76-2.15,1.51.77,2-1,3.09-1.26A34.16,34.16,0,0,0,88.7,150q6.17-2.31,12.33-4.66c2.29-.87,4.61-1.67,6.86-2.62,1.5-.63,2.93-1.4,3.56-3.15.36-1,.8-1,2-.5,2.18,1,4.33,2,6.5,3,1.52.69,2.85,1.64,4.8,1.25,1.62-.32,3.39.27,5.1.24,3.8-.07,7.6-.17,11.39-.46,4.37-.33,8.72-.87,13.08-1.33a9.59,9.59,0,0,0,1.3-.3c1.88-.47,1.88-.47,1.93-2.33,0-.45,0-.9,0-1.35a1.85,1.85,0,0,1,1.46-1.77,6.07,6.07,0,0,1,2.17-.45c2,.24,2.61-1,3.07-2.5.32-1.07.74-2.12,1-3.19a1.8,1.8,0,0,0-1.08-2.36,7.37,7.37,0,0,0-1.46-.57c-1.62-.38-2.06-1.57-2.07-3,0-4.64,0-9.27,0-13.91,0-1.65.4-2,2.07-2.35a63.32,63.32,0,0,1,16.89-1.29,32,32,0,0,1,9.64,1.69,12.57,12.57,0,0,1,3.77,2.3c1.18,1,1.09,2.76,1.24,4.2.44,4.14.66,8.3,1,12.45.14,1.78.27,3.56.46,5.33s1.58,3.07,3,4c5,3.05,10,6,15,9a1.49,1.49,0,0,0,1.64.13c.94-.46,1.91-.84,2.88-1.24,5.57-2.34,11.07-1.85,16.48.52a20.56,20.56,0,0,1,7.57,5.44c.38.45.66.34.8-.07a8.9,8.9,0,0,0,.57-2.37c0-1,.44-1.48,1.49-1.45a21.49,21.49,0,0,0,2.21-.16c-.24-.68-.48-1.36-.71-2-.62-1.84-1.31-3.66-1.84-5.53a4.79,4.79,0,0,1,4.64-6.16c6.43-.05,12.86,0,19.3,0Z" fill="#d41308"/></svg>