<svg id="Layer_1" data-name="Layer 1" xmlns="http://www.w3.org/2000/svg" viewBox="0 0 300 300"><title>Cars</title><path d="M270.37,130.82c3.06-.28,6.12-.62,9.19-.83,2.88-.2,5.77-.27,8.65-.38,1.14,0,1.56.64,1.46,1.66a9,9,0,0,0,.3,4.26c.1.25-.12.7-.31,1-2.18,3.28-4.48,6.48-6.53,9.83-.82,1.35-1.69,2-3.22,1.85-.48,0-1,0-1.45,0-1.22-.07-1.76.69-2,1.71a12.08,12.08,0,0,0-.13,2c-.06,1.28-.48,2.23-2,2.34-1.27.1-1.39.94-.88,1.82a8.45,8.45,0,0,0,1.79,2.2,17.62,17.62,0,0,0,2.46,1.49,2.53,2.53,0,0,1,1.33,3.12c-.45,1.09-1.38,1.57-2.83,1.18a6.83,6.83,0,0,0-4.24.34c-4.33,1.57-7.91,4.37-11.58,7a3.16,3.16,0,0,0-.9,1.44c-2.77,7.32-8.44,11.5-15.68,13.19a20.33,20.33,0,0,1-18.42-4.48c-2.23-1.92-4.48-1.27-6.8-1.38-.13,0-.48.63-.39.78.68,1.24-.16,1.52-1.06,1.7a9.84,9.84,0,0,1-2.27.25c-3.43-.13-6.9-.7-10.29-.37-3.22.32-6.42-.38-9.64.26-1.44.29-3-.36-4.56-.36q-49.2,0-98.39,0c-1.92,0-3.84-.09-5.75.05a8.05,8.05,0,0,0-2.35.93,67.94,67.94,0,0,1-6.29,2.67,14.94,14.94,0,0,1-9.78-.58,22.47,22.47,0,0,1-5-2.76,4.73,4.73,0,0,0-3-.88c-3.47,0-6.94.12-10.4-.07-4.32-.23-8.61-.88-12.93-1-5-.19-10.06-.05-15.09-.06-1.85,1.15-3.67.74-5.55,0-.49-.18-1.14.11-1.71.11a6.41,6.41,0,0,1-1.69-.18c-1.22-.35-2.81-1.87-2.46-2.49a7,7,0,0,1,2.1-1.7,1.86,1.86,0,0,1,.78-.35c5.59-.82,10.62-3.35,15.89-5.18.36-.13.73-.26,1.08-.41,2-.91,2.52-.75,3.39,1.09.32.69.53,1.28,1.6,1.32s1.38,1,.8,1.83c-.43.64-1,1.14-1.53,1.74s-.21,1.06.41,1.36,1.15.61,1.24-.37A2.78,2.78,0,0,1,38,175.22c2.51-.6,4.34-2.35,6.56-3.42,3.2-1.54,6.22-3.43,9.4-5a6.61,6.61,0,0,0,3.22-4.22A14.89,14.89,0,0,1,64,154.19c4-2.29,8.19-4,12.92-2.47a3.73,3.73,0,0,0,3.29-.37c2.12-1.24,4.48-2.1,6.16-4,.21-.24.7-.21,1-.35a12.69,12.69,0,0,0,1.87-.77q3.61-2.09,7.17-4.26c.41-.25.69-.83,1.1-.92,1.63-.36,1.08-3.13,3.18-2.84,1.51.21,3,.58,4.51.81a27.85,27.85,0,0,0,4,.44c6.48,0,13,0,19.45,0a22.64,22.64,0,0,0,3.15-.29c1.67-.24,2.1,0,2.29,1.65,0,.29,0,.59,0,.87.16.84-.51,2.16,1,2.28a3.2,3.2,0,0,0,3-2.68c0-.56-.34-1.14-.28-1.69,0-.37.49-.7.76-1.06.24.25.57.47.68.77a3.77,3.77,0,0,1,.08,1.15c0,.68.16,1.21,1,.64,2.75-1.91,5.83-2.34,9.1-2.26a60.1,60.1,0,0,0,6-.53,2.38,2.38,0,0,0,2.45-2.05c.38-2.79,2.63-4.21,4.38-5.88a5.78,5.78,0,0,1,3.82-1.18c.82,0,1-.09,1.07-.71s0-1.36.06-2c.14-1.58.78-2.17,2.15-2.07a2.61,2.61,0,0,1,2.13,2.33c0,.88-1.11,1.92,0,2.6.68.4,1.73.09,2.53.34a12.61,12.61,0,0,1,3.65,1.54c3.34,2.41,6.67,4.84,9.78,7.53,4.24,3.68,9.24,6.25,13.66,9.64a4,4,0,0,0,3.78.74,20.47,20.47,0,0,1,3.15-.34A14.4,14.4,0,0,0,214,147c.91-.54,1.9-.9,2.67-.23.44.38.41,1.39.46,2.13,0,.46-.33.95-.28,1.4a1.66,1.66,0,0,0,.67,1.13,3.6,3.6,0,0,0,3.92-.73,22.48,22.48,0,0,1,9-6.52A22.85,22.85,0,0,1,242,142.68c4.25.49,7.46,2.92,11.11,4.51.53.23.77,1.08,1.25,1.52a3.29,3.29,0,0,0,1.22.4c0-.42.25-1.06.06-1.24-2.24-2.1-3.56-5-6-6.91a10.36,10.36,0,0,1-2.67-4.38c-.28-.72.3-1.82.59-2.71s1-1,2-1.19a67,67,0,0,1,13.18-1.37c1.05,0,2.11-.18,3.16-.29l4.53-.52Z" fill="#d41308"/></svg>