<svg id="Layer_1" data-name="Layer 1" xmlns="http://www.w3.org/2000/svg" viewBox="0 0 300 300"><title>Cars</title><path d="M159.47,178c-3.47,0-7-.15-10.42,0-17.65.92-35.31.44-53,.56a5.63,5.63,0,0,0-4,1.81c-6.05,5.69-13.16,7.3-21.2,5.61a19.24,19.24,0,0,1-10.29-5.55,5.89,5.89,0,0,0-4.6-1.84c-4,0-8,.06-12-.11-3-.13-6.06-.59-9.09-.9s-5.88-.47-8.8-.9c-3.21-.47-6.39-1.17-9.59-1.78a3.91,3.91,0,0,1-3.1-2.65c-1-2.76-2.21-5.48-3.09-8.28s0-4.19,2.84-5.26c5.33-2,10.9-2.94,16.42-4.15,3.27-.71,6.53-1.48,9.81-2.14,1.69-.34,3.44-.39,5.12-.75,3.05-.65,6.07-1.45,9.11-2.17a6.86,6.86,0,0,1,2.08-.4A5.92,5.92,0,0,0,60.81,147c3.73-3.88,8.67-5.18,13.79-5.79s9.82,1,14.2,3.65a4.15,4.15,0,0,0,2,.58c3.14,0,6.23,0,9.29-1.14,2-.78,4.35-.75,6.49-1.31a31.75,31.75,0,0,0,4.82-1.86,7.37,7.37,0,0,0,4.36-4.4c.41-1.22,1.13-1.72,2.59-1.25a12.81,12.81,0,0,0,3.64.12,4.62,4.62,0,0,1,1.44,0c.3.11.47.6.7.92a6.56,6.56,0,0,1-.84,0c-1.21-.09-2.42-.25-3.64-.27-.74,0-1.43,1.84-.92,1.94,1.17.22,1.25,1.12,1.78,1.82a1.62,1.62,0,0,0,2.67-.55c.12-.27.07-.63.2-.89.56-1.13,1.66-1.35,2.06-.3.91,2.44,2.81,2.05,4.73,2.3a34.69,34.69,0,0,0,7.24-.14c.47,0,.9-.57,1.35-.87a7.64,7.64,0,0,0-1.3-.69c-.25-.08-.58.18-.87.16s-.42-.22-.62-.33c.24-.3.42-.69.72-.85s.58.11.88.14c2.89.25,5.69,1,8.69-.16,1.64-.61,3.78.21,5.7.3,3.45.18,6.91.43,10.37.41,4.07,0,8.13-.32,12.2-.49.61,0,1.23,0,1.84,0,4.42,0,4.43,0,4.52-4.63,0-1.43-.09-2.86,0-4.29a20.42,20.42,0,0,1,.54-2.94c.06-.28.29-.54.29-.81,0-2.67,0-2.62,2.4-2.71a15.55,15.55,0,0,0,3.6-.48c3.91-1.1,7.79-2.31,11.68-3.49a9.36,9.36,0,0,0,1.32-.64,9.53,9.53,0,0,0-.94-1.14,3.82,3.82,0,0,0-1.06-.61,2,2,0,0,1-1.27-2.19,2.12,2.12,0,0,1,1.64-2,11,11,0,0,1,3-.46c6.15.06,12.1-.77,17.68-3.56a2.21,2.21,0,0,1,1.58.14c.83.34,1.07.84.07,1.37-.36.19-.62.55-1,.72-4.81,2.38-8,6.52-11.52,10.33a7.81,7.81,0,0,0-2.31,7.2c.37,2.5,0,5.1.12,7.65a4,4,0,0,0,.59,2c1.06-.06,2.47.17,2.87-1.2.53-1.84,2-2.53,3.52-3a16.37,16.37,0,0,1,4.2-.7c4-.28,7.92-.4,11.88-.69,3.17-.23,6,.78,8.88,1.9,4.43,1.73,8.79,3.67,13.73,3.72a72,72,0,0,1,8.4,1.05,6.25,6.25,0,0,0,1.22.07c3.75-.26,7.51-.44,11.25-.85,1.19-.13,1.91-.32,2.2,1.15.25,1.29,1.38,1,2.26.86,3.33-.35,6.65-.77,10-1.08.63-.06,1.75.11,1.85.43a9.69,9.69,0,0,1,.32,3.25c0,.22-.79.55-1.24.61-2.52.31-5.05.55-7.57.83a7.87,7.87,0,0,0-1.12.29c.24.28.42.71.71.82,1.83.7,1.41,2.26,1.47,3.64.09,2.15.1,2.15,2.21,2.3,2.44.18,2.91.6,3.4,3s1.69,4.76,1.19,7.37c-.12.6.13,1.38-.17,1.8-.82,1.11-.77,1.59.63,2.09a1.06,1.06,0,0,1,0,1.94c-3.09,1.89-6.17,3.77-10,3.47-1.52-.12-3.07.13-4.59,0-2.06-.17-3.21.75-4,2.55a15.56,15.56,0,0,1-2.12,3.34c-5.07,6.25-11.59,9.17-19.72,9a23.14,23.14,0,0,1-17.51-7.88,2.86,2.86,0,0,0-2.47-.83c-4.9,0-9.84-.36-14.71.08-9.49.85-19,.22-28.45.5l-26.26.8Zm45.46-37,.43.06c0-4.58,0-9.16,0-13.73,0-.9-.39-1.78-.49-2.69s-.48-.93-1.23-.79c-2.59.49-5.2.88-7.78,1.37-.89.17-1.75.48-2.63.73.57.62,1.16,1.22,1.7,1.86s1.1,1.45,1.68,2.15c.78.93,1.86,1.79.27,3-.17.13-.17.8,0,1a15.22,15.22,0,0,0,2.69,3.27c1.26,1,2.55,2.54,4.56,1.34.08,0,.61.36.67.62A10.91,10.91,0,0,1,204.94,141.06Z" fill="#d41308"/></svg>