<svg id="Layer_1" data-name="Layer 1" xmlns="http://www.w3.org/2000/svg" viewBox="0 0 300 300"><title>Cars</title><path d="M289.71,149.23c0,4.75,0,9.51,0,14.26,0,.55-.08.76-.62.75h-1.23c-1.64,0-3.29,0-4.93,0a3.56,3.56,0,0,0-.78.19,3.39,3.39,0,0,0,.36.57c2,2.1,4.06,4.18,6.07,6.29A3.6,3.6,0,0,1,290,174c-.07,2.75,0,5.51,0,8.27,0,.64-.25,1-.93,1-.47,0-.94,0-1.41,0H273.76c-1.1,0-2.21-.06-3.31,0a4.38,4.38,0,0,0-1.64.54,19,19,0,0,1-6.18,2.39,23.38,23.38,0,0,1-6.6.35,22.33,22.33,0,0,1-6.85-2,7.16,7.16,0,0,0-2.71-.57c-1.69-.09-3.38,0-5.08,0q-74.66,0-149.32,0a4.67,4.67,0,0,1-3.43-1c-.56-.51-.61-1,0-1.42a2.67,2.67,0,0,1,1.47-.41c1.86.1,3.72.32,5.58.44s3.62.2,5.43.2c.92,0,1.35-.51,1.44-1.44a6.12,6.12,0,0,0-.68-3.4,2.53,2.53,0,0,0-1.77-1.34,15.16,15.16,0,0,0-2.6-.39c-3.27-.16-6.55-.25-9.82-.4a2,2,0,0,0-2.11,1.12A28.27,28.27,0,0,1,82.38,180a17.74,17.74,0,0,1-10,5.79,22.47,22.47,0,0,1-7.29.36A19.71,19.71,0,0,1,53.8,181a18.41,18.41,0,0,1-6.15-10.77,44,44,0,0,1-.48-4.87c0-.56-.19-.71-.68-.74-2.1-.12-4.2-.23-6.3-.38-2.85-.2-5.7-.45-8.55-.66-1.63-.12-3.26-.26-4.89-.3-.28,0-.61.41-.83.7s-.06.45-.06.69c0,2.16,0,4.33,0,6.49a1.42,1.42,0,0,0,1.2,1.63,3.37,3.37,0,0,0,2.68-.22c2.22-1.18,4.51-2.23,6.79-3.29a4.83,4.83,0,0,1,1.84-.48c2.23-.06,4.46,0,6.69,0,1.13,0,1.21.09,1.21,1.23q0,5.37,0,10.74c0,1-.12,1.07-1.14,1.12-.41,0-.82,0-1.23,0H22c-2.68,0-5.37,0-8,0-1.43,0-1.48,0-1.55-1.41a1.46,1.46,0,0,0-.93-1.52,2.26,2.26,0,0,1-.47-.24c-.42-.29-1-.48-.83-1.16s.62-.67,1.12-.63c.86.06,1.12-.37,1.1-1.17,0-1.29,0-2.58,0-3.87,0-1.94.88-2.88,2.82-3.05.72-.06,1.07-.28,1.05-1q0-2.11,0-4.23c0-.76-.33-1-1-1.06a11.09,11.09,0,0,1-4.26-.87c-1.23-.67-1.31-1.16-.32-2.11a3.72,3.72,0,0,1,.85-.62,36.78,36.78,0,0,1,7.1-3c5.3-1.43,10.55-3.06,15.88-4.39,4-1,8-1.64,12-2.4,2.35-.44,4.71-.82,7.08-1.19,1.49-.23,3-.27,4.48-.59a39.74,39.74,0,0,0,4.52-1.41,1,1,0,0,0,.47-.76c0-1.81-.19-3.62-.23-5.43,0-.81-.27-1.19-1.12-1.16a5,5,0,0,1-1.55-.17.83.83,0,0,1-.42-.67.77.77,0,0,1,.53-.54,17.58,17.58,0,0,1,3,0,1.55,1.55,0,0,1,1,.83,5.35,5.35,0,0,1,.39,1.7c.15,1.39.24,2.79.39,4.18.11,1,.43,1.38,1.45,1.33a25,25,0,0,1,8.94,1.51,8.59,8.59,0,0,0,2.77.22c2.4-.06,4.79-.21,7.18-.3a5.21,5.21,0,0,0,2.34-.54,7.74,7.74,0,0,1,3.89-.9c1.76.07,3.52.05,5.28,0,1.22,0,2.44-.25,3.66-.3,1.4-.06,1.43,0,1.76,1.32.11.47.28.73.77.79a21.55,21.55,0,0,0,2.25.31c2.76,0,5.52,0,8.27,0a5.08,5.08,0,0,0,3.87-1.3,1.1,1.1,0,0,1,1.69-.05c.26.23.64.34.86.6,1.08,1.22,2.5,1.1,3.92,1.07.57,0,.88-.24.88-.83a1.64,1.64,0,0,1,.05-.69c.14-.29.36-.7.6-.74a1,1,0,0,1,.84.46c.41.76.7,1.59,1,2.38.11.25.22.49.34.74a3.48,3.48,0,0,0,.71-.56,2,2,0,0,1,2.9-.37,4.79,4.79,0,0,0,3.72,1c1.58,0,3.17,0,4.75,0,.5,0,.67-.1.63-.71-.16-2.57-.13-2.62,2.33-2.84a30.45,30.45,0,0,1,3.64,0,1,1,0,0,1,1,1,5.21,5.21,0,0,1,0,1.58c-.22.89.21,1,.9.92a29.3,29.3,0,0,0,3.29-.5c3.62-.93,7.22-1.94,10.83-2.9.73-.2,1.48-.33,2.22-.5,1.32-.3,1.4-.4,1.43-1.75a12.14,12.14,0,0,0,0-2.28c-.25-1.44.53-2.6.92-3.85.23-.74.92-.9,1.74-.79,2,.26,3.94.44,5.91.61.57,0,1.3.17,1.52-.54s.48-1.64-.3-2.26a1.76,1.76,0,0,1-.62-1.55c0-2.47-.07-4.93,0-7.39a11.52,11.52,0,0,1,.73-3,1.71,1.71,0,0,0-.06-1.63,1.32,1.32,0,0,1,.63-2.14,4.31,4.31,0,0,1,1.85-.43c2.39,0,4.81-.28,7.08.83.35.17.89-.09,1.35-.09a.78.78,0,0,1,.59.27.64.64,0,0,1-.08.62c-1.35.94-1.38,2.51-1.88,3.86a1,1,0,0,0,.69,1.51c1.25.49,2.52,1,3.76,1.46q4.47,1.83,8.92,3.69c2.65,1.11,5.28,2.23,7.92,3.35,2,.86,4,1.71,6.06,2.59,3.06,1.33,6.11,2.69,9.17,4,2.31,1,4.66,1.91,6.94,3,4.55,2.15,9.12,4.29,13.56,6.66a2.74,2.74,0,0,0,3.61-.3,20.45,20.45,0,0,1,12.4-4,19.11,19.11,0,0,1,7.79,1.85c.27.12.52.28.79.39.83.34,1.1.21,1.12-.66,0-1.35,0-2.7,0-4,0-2.09,0-4.17,0-6.26a8.11,8.11,0,0,0-.18-1.21,2.74,2.74,0,0,1,2.72-3.45c1.11,0,2.23,0,3.35,0h14.26c.65,0,1.14-.1,1.12,1,0,2.62.21,5.23.26,7.85s0,5.52,0,8.28Z" fill="#d41308"/></svg>