<svg id="Layer_1" data-name="Layer 1" xmlns="http://www.w3.org/2000/svg" viewBox="0 0 300 300"><title>Cars</title><path d="M290.2,147.92c0-3.88,0-7.77,0-11.31l-1.52-1.77-.68-.12.15-.25c-.42-.33-.85-.65-1.27-1-.14-.11-.35-.26-.36-.4-.06-.74-.59-.72-1.1-.72-1.75,0-3.5,0-5.25,0-1,0-2-.06-3-.13s-2.08-.28-3.13-.3a10.24,10.24,0,0,0-2.95.19c-2.09.57-4.1,1.42-6.35,1.29a1.52,1.52,0,0,0-1,.67,3.25,3.25,0,0,0-.23,1.23,1.76,1.76,0,0,1-.48-.38c-.28-.44-.4-1-1.18-.83s-1.48.35-1.79,1.23c-1,2.79-2,5.57-2.95,8.36a1.88,1.88,0,0,0-.05.42l1.16.65-2.45.4.27,5.38c-.67,0-1.64-.09-2.59-.21a.89.89,0,0,1-.59-.57.94.94,0,0,1,.3-.77,12.75,12.75,0,0,1,1.58-.92c-2.4-.73-2.54-2.16-1.5-4-1.27-.5-2.48-1-3.7-1.44q-16-5.91-32-11.78a9,9,0,0,0-3.17-.54c-8.2.13-16.4.32-24.6.5-2.2,0-3.05.69-3.91,2.72-.23.54-.82,1.38-1.17,1.35a11.11,11.11,0,0,1-2.88-.93c-.39-.16-.69-.61-1.08-.67q-3.67-.62-7.36-1.12c-1.05-.14-2.11-.17-2.56-1.53.31-.79.74-1.72,1-2.68a1.33,1.33,0,0,0-.33-1.13,16.61,16.61,0,0,0-2-1.33,3.12,3.12,0,0,1-4.19-.49c-.57.51-1.17,1-1.7,1.55a1.22,1.22,0,0,0-.18.81,4.92,4.92,0,0,1-1.74,3.37c0,2.85,0,5.64,0,8.42a22.52,22.52,0,0,1-.17,2.44c0,.22-.22.57-.39.6a14,14,0,0,1-4.08.64c-4.86-.57-9.69-1.39-14.53-2.08-5.19-.75-10.37-1.63-15.58-2.13a17.2,17.2,0,0,0-9.41,1.63c-4.16,2.07-6.84,5.9-10.61,8.43l.08.33,5.5.27c-13.49.81-27.17.38-40.68,1.86l.8-.75c-.56,0-.94-.11-1.06,0-.71.78-1.4.23-2.09,0-3.38-1-6.86-1.54-10.21-.29a26.63,26.63,0,0,0-9.09,5.77c-1.2,1.14-2.61,2.05-3.22,3.67a2.74,2.74,0,0,1-2,1.8A19.36,19.36,0,0,0,42,162.69l-14.86,4.5c-2.23-.61-3.31-.15-3.77,1.69H10.3c0,3.74,0,7.16,0,10.58,0,1.48,0,1.48,1.59,1.43,3.11-.09,6.21-.21,9.35,0,5.11.28,10.25-.12,15.38-.22.68,0,1-.29,1-1s0-1.31,0-1.95a2.51,2.51,0,0,1,.55-.17c3-.07,5.91-.16,8.86-.17.33,0,.71.38,1,.67,1,1.08,2,2.17,3,3.27h0s13.52,8.5,27.34.35a16.53,16.53,0,0,0,6.56-4.41A15.25,15.25,0,0,0,89,169.15c.15-1,.65-1,1.43-1.08s1,.43,1.08,1.12c.13,1,.93,2,0,3.08l-1.6-.44a14.74,14.74,0,0,0,0,1.88c.18,1.31.5,2.6.63,3.91a10.66,10.66,0,0,1,0,3.36c-.28,1.2.37,1.41,1.16,1.49a22.06,22.06,0,0,0,2.91,0c3.89-.11,7.77-.26,11.66-.35q20.87-.49,41.74-.94c11-.22,21.92-.29,32.88-.57,18.42-.47,36.85-1,55.26-1.69,3.08-.12,5.21,1.12,7.63,2.93a31.8,31.8,0,0,0,15.46,4.78H262a32.42,32.42,0,0,0,9.73-1.92c6.87-4.4,9.89-10.57,9.5-18.48.56,0,1-.08,1.4-.1,1.9-.06,3.81-.11,5.71-.19a4,4,0,0,0,1-.29,9.09,9.09,0,0,1-.35-.84,3.81,3.81,0,0,1-.22-1c0-1.63-.12-3.27-.06-4.9a1.64,1.64,0,0,1,.75-1.21,1.41,1.41,0,0,0,.87-1.56C290.21,153.44,290.2,150.68,290.2,147.92ZM147.25,146a23.89,23.89,0,0,0-2.2,2.71,1.78,1.78,0,0,1-1.74.85c-2.14,0-4.29.24-6.41.06-2.81-.23-5.6-.73-8.37-1.22-.38-.07-.77-.74-.92-1.21s.1-1,0-1.5c-.06-.31-.41-.57-.63-.86l-.32.18-.28,2.54c-.85-.74-.9-1.35-.39-3a7.71,7.71,0,0,0-5.17-.5c-.49.1-1.32.32-1.34.55a4.29,4.29,0,0,0,.3,2.39c.45.79,1.22,1.37,1,2.64l-4.26-1.09.83-.72a2.73,2.73,0,0,1-.32-.14c-1.08-.66-1.23-1.41-.29-2.2a29.57,29.57,0,0,1,3.3-2.38,2.15,2.15,0,0,1,1.55-.3,4.34,4.34,0,0,0,4.66-1.38,1.86,1.86,0,0,1,1.44-.4q9.59,1.71,19.15,3.53C148,144.82,148,145.15,147.25,146Zm113.33,23.83h0a2.74,2.74,0,0,0,.33.45A2.75,2.75,0,0,1,260.58,169.86Z" fill="#d41308"/></svg>