<svg id="Layer_1" data-name="Layer 1" xmlns="http://www.w3.org/2000/svg" viewBox="0 0 300 300"><title>Cars</title><path d="M290,137.82c0,4.13,0,8.26,0,12.39,0,2.18-.13,2.38-2.2,3.06-1.65.54-3.34,1-5,1.43s-1.71.55-1.84,2.24.46,3.32-.41,4.9a1.93,1.93,0,0,0,.72.44c1.47.27,1.86.81,1.56,2.19a1.5,1.5,0,0,1-1.3,1.18c-1.48.38-1.79.8-1.37,2s1.14,2.27.53,3.63c-.1.21.3.67.51,1,.57.86,1.23,1.66,1.71,2.56a4,4,0,0,1,.13,1.51c-.45,0-1,.2-1.31,0-.91-.73-1-.14-1.21.56a15.33,15.33,0,0,1-.56,2,.87.87,0,0,1-.75.38c-.23,0-.44-.38-.57-.63s0-.47-.07-.7c-.09-.52-.21-1-.31-1.57-.47.47-1.29.9-1.34,1.41-.16,1.81-1.8,2.6-2.5,4a2.15,2.15,0,0,1-1.58.73c-2.21.14-4.43.25-6.65.21a8.77,8.77,0,0,0-4.72,1.14c-4.88,2.78-10.13,2.7-15.45,1.6a1.83,1.83,0,0,1-.65-.28c-2.22-1.54-4.74-1.5-7.3-1.5q-61.58,0-123.15,0c-5.94,0-11.89,0-17.83,0-3,0-6,.33-9,.4-1.49,0-3-.24-4.49-.2a7,7,0,0,0-2.93.62A19.4,19.4,0,0,1,67,186.09a17.46,17.46,0,0,1-6.82-3.22c-.38-.29-.71-.74-1.13-.83A10.36,10.36,0,0,0,57,182c.31.49.61,1,.95,1.45.18.26.45.45.63.71.37.56.12.91-.48,1a18.06,18.06,0,0,1-1.9.05c-7.46,0-14.93,0-22.39,0-1.15,0-2.29.37-3.44.4-.8,0-1.61-.38-2.41-.4-2.3-.06-4.61-.07-6.91,0a3.17,3.17,0,0,1-3.19-1.54A3.63,3.63,0,0,0,14,181.82a16.83,16.83,0,0,1-2.14,0,1.79,1.79,0,0,1-1.82-1.57c-.26-1,.52-1.42,1.27-1.71,5.39-2.08,10.79-4.13,16.19-6.21,2-.77,4-1.59,6-2.34,1.85-.69,3.73-1.29,5.58-2,4-1.52,8-3.09,11.95-4.6A1.7,1.7,0,0,0,52.27,162a8.57,8.57,0,0,1,2.31-5c1.13-1.05,1.78-2.59,2.79-3.79,4.2-5,9.74-6.87,16.07-6.52a16.36,16.36,0,0,1,8.51,2.63,10.38,10.38,0,0,0,1.87,1,2.92,2.92,0,0,0,1.31.14,4.86,4.86,0,0,0,1.13-.35c4.71-1.62,9.42-3.26,14.14-4.86.9-.31,1.86-.42,2.74-.77a5.27,5.27,0,0,0,2.17-1.3c.75-.94,1.34-.93,2.15-.23a4.17,4.17,0,0,0,.82.47c.69.35,1,.13,1.11-.63a5.66,5.66,0,0,1,.33-1,8,8,0,0,1,.61,1.14c.1.29,0,.66.08.94s.4.76.69.84a25.55,25.55,0,0,0,4.26,1.2c1.19.1,2.31,1.41,3.73,1.66,3.49.62,7,1.26,10.47,1.88a5.44,5.44,0,0,0,.95.06c5.64,0,11.28,0,16.91,0,2,0,4.09-.28,6.14-.47A3.51,3.51,0,0,0,157,145.2c-.07-3,.34-6-.41-9-.38-1.5-.73-2.76-2.65-2.57-.14,0-.3-.27-.45-.41.16-.14.3-.35.48-.4.58-.17,1.34-.11,1.7-.47s-.07-1-.07-1.6c0-2.13,0-4.26,0-6.39,0-1.13.4-1.54,1.61-1.6,3.55-.19,7.11-.53,10.66-.43a25.8,25.8,0,0,1,10.1,2.24c4.68,2.12,9.53,3.88,14.33,5.73q8.75,3.38,17.55,6.63c1.62.6,3.36.87,5,1.39q10.42,3.27,20.81,6.61a10.87,10.87,0,0,1,3.11,1.14c1.67,1.22,3.23.7,4.62-.17a10.12,10.12,0,0,1,4.19-1.48c4.45-.57,8.85-.51,13,1.54,1.84.91,3.8,1.64,5.16,3.31.45.55.69.23,1.05-.23a8.3,8.3,0,0,0,1.74-5.69c-.14-5.4,0-10.8,0-16.2a10.33,10.33,0,0,1,.08-1.9c.33-1.72,1.31-2.5,3.18-2.5q8,0,16,0c2,0,2.21.25,2.22,2.2,0,4.29,0,8.58,0,12.86Z" fill="#d41308"/></svg>