<svg id="Layer_1" data-name="Layer 1" xmlns="http://www.w3.org/2000/svg" viewBox="0 0 300 300"><title>Cars</title><path d="M107.83,182.74c-9.21,0-18.43,0-27.64,0a7.41,7.41,0,0,0-4.41,1.19c-4.89,3.26-10.14,3.48-15.56,1.45a4,4,0,0,1-1.43-.6c-2.25-2.27-5.08-2.08-7.92-2.06q-10.84.05-21.67,0c-1,0-2.4.11-3-.47-1.67-1.64-3.62-1.3-5.57-1.41-2.91-.16-5.85-.26-8.51-1.66a7.94,7.94,0,0,1-1.76-1.27.84.84,0,0,1,.24-1.51c3.83-1.72,7.7-3.56,12-2,3.4,1.2,6.3.31,9.17-1.47,2.24-1.39,3-.95,3.53,1.74a7.27,7.27,0,0,0,1,2.24,1,1,0,0,0,1,.16c.85-1,2.41-1.17,2.91-2.67.23-.69,1.14-1.15,1.7-1.75s1.27-1,1.33-1.64c.2-1.83,1.18-2.1,2.81-2.25A8.82,8.82,0,0,0,49.69,167c.49-.32.69-1.17.92-1.82,2-5.62,5.39-9.84,11.48-11.35,4-1,7.84-1,11.56,1,.39.21,1.26.34,1.38.16,1.1-1.67,3.07-1,4.31-1.7,1.84-1,3.82-1.47,5.68-2.32,5.13-2.35,10.32-4.57,15.37-7.09a36.35,36.35,0,0,0,6.13-4.27c2-1.55,3.78-3.28,5.6-5,.79-.75,1.32-.68,2.1,0,4.66,4.29,10.39,4.94,16.36,4.61a10.8,10.8,0,0,0,2.4-.6c1.5-.45,3-.87,4.47-1.4s2.48-.78,3.56.72c.39.53,1.71.62,2.57.55,3.52-.3,7-.74,10.54-1.12,2.28-.24,4.56-.4,6.83-.71,2.59-.35,3-.82,3.64-3.44a7.3,7.3,0,0,0,.35-1.84,8.36,8.36,0,0,1,3.46-7.05,3.93,3.93,0,0,0,1.66-3.73,5.69,5.69,0,0,1,.36-2.13c.3-.91.78-1.85,1.95-1.68a2.27,2.27,0,0,1,2,2.13c.12,1,.06,2.09.09,3.14,0,.69.13,1.16,1.07,1,4.43-.54,7.87,1.44,10.94,4.36,1.81,1.72,3.65,3.4,5.44,5.13a82.1,82.1,0,0,0,6,5.83c3,2.35,5.94,5,10.15,4.86,2.69,1.57,5.38.66,8.08,0a.8.8,0,0,1,.69.31c.52,1.12,1.23.61,1.73.13,2.72-2.63,6.1-3.94,9.64-5,.43-.12,1.46,0,.79-1.05a2.63,2.63,0,0,1,.6-.5c1.2,1.07,2-.41,3-.52a20.19,20.19,0,0,0,3.19-1,1.62,1.62,0,0,1,1.19,0c1.72,1.28,1.85.22,2.37-1.21.72-2,.88-1.9.78-3.72a2.07,2.07,0,0,1,.69-1.57,15,15,0,0,1,2.78-1.38c1.52-.65,3-1.29,4.59-1.86a8,8,0,0,1,2.41-.56c6.68-.25,13.35-.43,20-.67,4.69-.17,9.37-.49,14.06-.58,3.15-.06,4.75,1.35,5.28,4.23a3,3,0,0,1,0,1.24c-.79,3.14-1.53,6.29-2.46,9.38-.66,2.18-2.39,3.34-4.53,3.93-6.84,1.87-13.69,3.73-20.52,5.63-1.12.31-2.19.8-3.28,1.21.79,1.52-1.15,1.89-1.3,3.16-.26,2.23-1.29,4.35-.58,6.71.5,1.64-.55,3.59,1,5.07.08.08-.13.53-.29.74s-1.35.46,0,.7a7.33,7.33,0,0,0,2.18-.13c2.68-.34,5.35-.71,8-1,1.13-.14,1.61.37,1.9,1.52,1.39,5.5,1,5.3-3.9,5.43-3,.08-6,.35-9,.71a3.63,3.63,0,0,0-3.1,2.09c-1,1.89-2.87,3.39-3.79,5.47-3,1.52-6,3.38-9.17,4.49-7.43,2.57-14.52,1.51-21.17-2.76a7.56,7.56,0,0,0-3.78-1.14c-2.66,0-5.4-.59-7.93,1-.68.43-1.84.14-2.78.14-20.94,0-41.88-.05-62.81.09-11.58.08-23.16.51-34.74.78Z" fill="#d41308"/></svg>