<svg id="Layer_1" data-name="Layer 1" xmlns="http://www.w3.org/2000/svg" viewBox="0 0 300 300"><title>Cars</title><path d="M289.85,161.35a7.48,7.48,0,0,0-1.11-2.43,100.51,100.51,0,0,0-13.62-16.47,56.75,56.75,0,0,0-17.38-12.22c-7.73-3.5-16-4.55-24.16-6-3-.51-5.92-1-8.84-1.66-.8-.18-2.78.12-1.66-1.92-.31-.13-.64-.39-.94-.35-2.36.28-4.69.84-7-.51-1-.56-1.68.08-2,1.25-.07.29-.35.81-.44.79-1.79-.4-3,1-4.44,1.42-1.94.59-2.66,2-3.15,3.68s-.85,3.31-1.33,4.94c-.78,2.63-1.91,4.91-4.49,6.41a18.2,18.2,0,0,0-7.14,8,3.66,3.66,0,0,1-3.51,2.24,23.14,23.14,0,0,1-13.62-3,12.07,12.07,0,0,1-6.2-7.94c-1.79-7.09-4-14.08-6.07-21.1a11.14,11.14,0,0,0-1-2.5c-.18-.31-1-.62-1.21-.47a2.05,2.05,0,0,0-.74,1.41,1.78,1.78,0,0,0,.78,1.34c.85.42,1.09.52.81.77-1,.85-.61,1.77-.35,2.73.68,2.51,1.36,5,2,7.55.08.32,0,.91-.2,1a1.18,1.18,0,0,1-1.11-.09,6.66,6.66,0,0,1-1.22-2c-.34-.93-.45-1.95-.69-2.92s-.67-1.61-1.86-.77a20.64,20.64,0,0,1-3.46,1.82,1.79,1.79,0,0,1-1.38.08c-.86-.46-1.42-2.71-1-3.67.86-2.23,1.73-4.46,2.58-6.7a2.85,2.85,0,0,0,.06-.82c-.25.06-.63,0-.72.2-1.18,2.08-2.39,4.15-3.44,6.3a9.81,9.81,0,0,0-1.23,5.21c0,.39,0,1-.83.67-1.92-.77-3.89-1.41-5.83-2.13a3.1,3.1,0,0,1-1.22-.71c-.72-.8-.74-.87-1-.47-.56,1-1.44,2.08-.18,3.22.63.57.18.94-.32,1-2.87.39-5.76.74-8.64,1-.53.05-1.08-.31-1.63-.38a3.1,3.1,0,0,0-.94.21c-.56.12-1.39.51-1.62.29-.82-.81-1.27-.2-2,.1a11.22,11.22,0,0,1-3.22.62c-1.5.14-3,.1-4.52.24-3.29.3-6.57.68-9.86,1-2.9.28-5.8.48-8.7.78-5.18.54-10.36,1.12-15.54,1.71-4.68.53-9.34,1.27-14,1.57-4.13.26-8.29,1.69-12.47-.19-1.19-.54-2.78-.23-4.19-.22a.62.62,0,0,0-.3.11l-22.84,8a20,20,0,0,0-7.67,5.46,55.41,55.41,0,0,0-7.19,12.29c-.4.88-1.64,1.51-.92,2.93s-1.58.81-1.57,2.08a2,2,0,0,1-1.66,1.88c-.9.28-.56.88.16,1.15s1.55,0,1.33,1.13c-.34,1.78.73,3.17,1.29,4.7a4.66,4.66,0,0,0,4.16,3.41c3.79.37,7.57.93,11.36,1.13a11,11,0,0,1,7.28,2.8,24.57,24.57,0,0,0,33.64-.9,3.8,3.8,0,0,1,2.82-1.32c6.13-.11,12.26-.36,18.39-.5,9.76-.22,19.52-.44,29.28-.59q24-.37,48-.64c7.76-.09,15.52,0,23.27-.13a8,8,0,0,1,6.09,2.44c6.66,6.2,14.69,7.94,23.51,6.26,5.75-1.1,10.37-4.23,14.26-8.48a3.29,3.29,0,0,1,2.79-1.34c2.31.09,4.63,0,6.95,0v0c1.21,0,2.42,0,3.63,0,2.45,0,5,.43,7.16-1.26a4.35,4.35,0,0,1,2.31-.52,97.1,97.1,0,0,0,20.19-3.1,49.56,49.56,0,0,0,8.44-3.14A4.83,4.83,0,0,0,289.85,161.35Z" fill="#d41308"/></svg>