<svg id="Layer_1" data-name="Layer 1" xmlns="http://www.w3.org/2000/svg" viewBox="0 0 300 300"><title>Cars</title><path d="M290,150c-.08-2.88,0-5.76,0-8.65h0q0-4.56,0-9.12c0-1.86-.06-1.91-2-1.9a19.12,19.12,0,0,0-6.1,1.18,26.75,26.75,0,0,0-2.66.91c-1.27.6-2.47,1.32-3.71,2a3.57,3.57,0,0,1-.71.21c-.05-.25-.21-.52-.15-.74.29-1.05.61-2.1,1-3.14.41-1.22-.15-1.91-1.43-1.8a17.3,17.3,0,0,1-2-.06c-.57,0-1.15-.07-1.72,0-.83,0-1.65.23-2.48.23-3.88,0-7.76,0-11.63,0a2.7,2.7,0,0,0-2.87,2.91,49.91,49.91,0,0,0,0,6c.31,2.56.08,5.36,2.36,7.31a1.73,1.73,0,0,1,.34.53,4.69,4.69,0,0,0,1.91,1.8,11.07,11.07,0,0,1,1.21.72,15.16,15.16,0,0,1,1.17,1.13c-.51.22-1,.45-1.54.66a3,3,0,0,1-.47,0,11.88,11.88,0,0,0-3.43.78c-.83.47-1.7.89-2.55,1.35l-2.7-1-.19-.1-3.6-1.36-12.88-5c-2-.73-3.94-1.39-5.89-2.14-4.34-1.66-8.65-3.37-13-5-2.19-.84-4.46-1.48-6.58-2.46a85.4,85.4,0,0,0-8-3.1,4.65,4.65,0,0,0-2.74-.24,9.47,9.47,0,0,1-2.33-.1c-1.51,0-3-.05-4.53,0s-2.92.16-4.38.14c-1.82,0-3.65-.19-5.47-.24a1.17,1.17,0,0,0-.91.39c-.38.7-1,.58-1.51.48a10.38,10.38,0,0,1-2.08-.67,1,1,0,0,1-.52-.69,1.76,1.76,0,0,1,.34-1.12c.58-.66,1.28-1.21,1.9-1.83.3-.31.94-.55.64-1.09-.13-.24-.71-.25-1.09-.34s-.6-.09-.91-.13a27.66,27.66,0,0,0-2.78-.35c-2.62-.08-5.24-.08-7.85-.13-.44,0-.58.17-.48.55.2.78-.22,1.37-.46,2.06a15.62,15.62,0,0,0-.86,3.94c-.11,1.55.12,3.13.13,4.69a2.76,2.76,0,0,0,.91,2.53,2.08,2.08,0,0,1,.5.79c.19.39,0,.63-.39.63a16.23,16.23,0,0,1-2.5-.13c-1.55-.26-1.79-.18-2.28,1.34-.27.84-.44,1.72-.67,2.58-.4,1.52-.48,1.58-2,1.59-2,0-4,0-6,0a6.27,6.27,0,0,0-3.56,1,22.51,22.51,0,0,1-2.78,1.45,1.55,1.55,0,0,1-.74.16c-1.28-.08-2.57.45-3.85-.08-.17-.07-.41,0-.62.06-1.6.06-3.2.17-4.8.17-1.14,0-2.28-.18-3.43-.24-.84,0-1.68,0-2.52,0-.57,0-.69-.14-.18-.52a.44.44,0,0,0,.11-.27c0-.15-1.19-.37,0-.47.37,0,1-.2,1-.43a11.26,11.26,0,0,0,.39-2.46c0-.45-.19-.74-.79-.69-1.09.09-2.2,0-3.29.11a14.09,14.09,0,0,0-1.53.26c-.77.13-.94.64-1,1.35s.42,1.24.81,1.79c.51.72.35,1.13-.5,1.25a2.83,2.83,0,0,1-.62,0c-1-.08-2-.2-3-.24-1.48,0-2.9-.16-3.83-1.56a2.41,2.41,0,0,0-.76-.54c-1.16-.73-1.72-.58-2.38.62-.29.54-.44,1.18-1.28,1.17-3.2,0-6.39,0-9.59,0-.58,0-.85-.24-.88-.84-.08-1.39-.19-2.77-.3-4.16,0-.33.11-.86-.43-.81-.2,0-.43.53-.5.85a6.08,6.08,0,0,0,0,1.25q0,1.57,0,3.14c0,.47-.13.84-.69.84-2.2,0-4.4,0-6.6,0-.48,0-.71-.21-.66-.8.1-1.2.08-2.4.09-3.61a2.08,2.08,0,0,0-.15-1.07,4.9,4.9,0,0,0-1-.9,3.84,3.84,0,0,0-.4,1.1c0,1.36,0,2.73,0,4.09,0,1-.22,1.2-1.22,1.2q-4.72,0-9.43,0c-.88,0-.93-.09-1-1,0-1.15,0-2.31,0-3.46a15.4,15.4,0,0,0-.43-2.61c-.12-.51-.4-1-1-1s-1.47,0-2.2,0c-.31,0-.69.23-.45.6s.19.83.86.61c1.16-.38,1.65,0,1.69,1.16,0,1.52,0,3,0,4.56,0,1.19-.27,1.42-1.49,1.51s-2.7.24-4.05.3c-3.29.13-6.58.22-9.87.31-1.41,0-2.83,0-4.24.07-2.39.15-4.78.38-7.17.56-1.77.13-3.54.22-5.31.35q-2,.15-4.05.36c-1.71.17-3.41.37-5.12.56-.52.06-1,.11-1.55.19-2.83.45-5.65.93-8.49,1.35-3.09.46-6.2.79-9.28,1.31-2,.35-4.06.92-6.09,1.41-.46.11-1,.27-1,.83a1.45,1.45,0,0,0,.74,1.08c.7.17.85.6,1.07,1.16a6.47,6.47,0,0,0,3.59,3.79,8,8,0,0,1,1,.69,2.9,2.9,0,0,1,1.51,2.72c0,1.1,0,2.2,0,3.3,0,1.32,0,1.33-1.3,1.35-1.57,0-3.15,0-4.72,0-1.05,0-1.61.35-1.77,1.22a23.16,23.16,0,0,0,0,9.33,1.34,1.34,0,0,0,.06.15,1.21,1.21,0,0,0,1.28.93c.37,0,.73,0,1.1,0,5.54-.11,11.09.17,16.63-.27,2.92-.23,5.87,0,8.8,0,2,0,2.07,0,2.2-2,.05-.76.33-1.14,1.13-1.18s1.87-.25,2.8-.25a1.1,1.1,0,0,0,1.28-1,7.79,7.79,0,0,0,.13-1.08c0-1.36,0-2.73,0-4.09,0-.62-.15-1.24-.18-1.85s0-1.54,0-2.31c0-.52,0-1,0-1.56,0-1.19,0-2.38,0-3.58,0-.72.07-1.44.11-2.16s.58-1.12,1.33-1.24c1.27-.21,2.33.44,3.48.76.1,0,.2.49.12.66A17.47,17.47,0,0,0,49.58,166a18.63,18.63,0,0,0,.89,9,20,20,0,0,0,6.25,8.44,11.86,11.86,0,0,0,3.46,2.14,16.2,16.2,0,0,0,4.57.93c2.35.15,4.71,0,7.07,0a8.61,8.61,0,0,0,3.5-.74,20.52,20.52,0,0,0,5.28-3.27,18.39,18.39,0,0,0,4.69-6.33c.32-.68.62-1.55,1.19-1.9a7.18,7.18,0,0,1,3.44-1.35,2.47,2.47,0,0,0,1.95-1.18,1.38,1.38,0,0,0-1-2.28L87.71,169c-.77-.15-.57-.76-.56-1.25s.35-.62.76-.56c1.18.18,2.36.41,3.55.57a1,1,0,0,1,1,1.14q0,5,0,9.9a.84.84,0,0,1-.61,1c-.45.15-.84.41-.77,1a2.2,2.2,0,0,1-1.63,2.64,1.33,1.33,0,0,0-.28.15c-.34.2-.38.44-.12.76a2.08,2.08,0,0,0,1.8.75l30.82,0a6.9,6.9,0,0,0,1.36-.24,9.86,9.86,0,0,1,1.64-.36c5.65-.18,11.29,0,16.95-.25,9.62-.41,19.26.09,28.9-.31,6.8-.28,13.63-.07,20.44-.07q24.92,0,49.84,0c1.81,0,3.61-.55,5.44-.08a3.21,3.21,0,0,0,1.69,0,5.38,5.38,0,0,1,4.9.94,10.24,10.24,0,0,0,5.78,1.71c2.46.06,4.93.1,7.39,0a13.44,13.44,0,0,0,6.62-2.17,17.12,17.12,0,0,0,6.5-7.82,8.1,8.1,0,0,0,1-2.71,2.23,2.23,0,0,1,1.73-2.26,21.05,21.05,0,0,0,7.13-5,2.33,2.33,0,0,0,.63-1.36c.16-2.13.31-4.27.31-6.41C289.93,155.69,290.05,152.83,290,150Zm-176.13,28c0,1.23-.17,1.4-1.32,1.43q-6,.17-12,.31c-1.15,0-2.3,0-3.45,0s-1.08-.06-1.09-1.07c0-1.57,0-3.14,0-4.71h0c0-1.62,0-3.24,0-4.86,0-.88.23-1.09,1-.85a34.39,34.39,0,0,0,4.16.59c3.59.57,7.21,1.07,10.56,2.62l.84.42a2,2,0,0,1,1.34,2.2C113.77,175.3,113.86,176.61,113.84,177.92Z" fill="#d41308"/></svg>