<svg id="Layer_1" data-name="Layer 1" xmlns="http://www.w3.org/2000/svg" viewBox="0 0 300 300"><title>Cars</title><path d="M287.88,135.7H261.48a2.11,2.11,0,0,0-2.11,2.11l-1.48,4.32a3.2,3.2,0,0,0-.71,1.83c-.09,1.25-.16,2.49-.32,3.73a3.91,3.91,0,0,1-.6,1.56,1.28,1.28,0,0,1-1,.46c-1.13,0-2.26-.18-3.39-.22a1.7,1.7,0,0,1-1.33-.6,4.68,4.68,0,0,1-1.23-2.2,8.18,8.18,0,0,1,.94-6.25c1-1.54,2.06-3,3.09-4.47.13-.18.33-.38.33-.58a20,20,0,0,0,0-4.56,2.28,2.28,0,0,0-2.37-1.86l0-.14H174.28a1.7,1.7,0,0,1,.14-1.09c.17-.51.39-1.13-.18-1.36-.88-.35-1.25-1.55-2.44-1.39-.23,0-.52-.36-.79-.55s-.38-.36-.49-.32c-1.44.47-2.71-.81-4.14-.39-.85-1-1.48-.05-2.11.32a1.83,1.83,0,0,0-1.12,1.88,3.37,3.37,0,0,1-1,2.21c-.34.35-.59.59-.59,1.07,0,2.5,0,5,.06,7.49a13.6,13.6,0,0,0,.35,2.52c.21,1,.07,1.21-.9,1.28-.51,0-1,0-1.53,0a2.48,2.48,0,0,0-2.42,1.27c-.3.62-.95.54-1.51.54-1.82,0-3.64.11-5.46.05a4.24,4.24,0,0,0-4,1.87,4.18,4.18,0,0,1-3.48,1.87c-3.75.1-7.5.17-11.25.25-.43,0-.7-.12-.33-.58a3.57,3.57,0,0,0,.43-3,3,3,0,0,0-2.11-2.19,10.73,10.73,0,0,0-3.71-.17,1.68,1.68,0,0,0-1.82,1.46,1.43,1.43,0,0,1-.58.78,3.47,3.47,0,0,0-1.31,2.3c-.24,1.23-1,1.48-1.88.65a6.78,6.78,0,0,0-4.15-1.85,2.31,2.31,0,0,1-1-.15c-1-.64-1.81-.12-2.67.37a5.84,5.84,0,0,1-2.29,1c-3.69.19-7.38.26-11.08.29-1.35,0-1.57-.4-1.66-1.79-.07-1,.07-2.24-1.45-2.5-.21,0-.33-.51-.52-.76a1.75,1.75,0,0,0-.37-.28c-.08.13-.23.27-.24.4,0,1.14,0,2.28-.05,3.42s-.19,1.37-1.37,1.47c-.62.05-1.25.06-1.88.07-4.15.1-8.3.18-12.45.3-.69,0-1.11-.18-1.17-.9s-.13-1.7-.16-2.55a2.07,2.07,0,0,0-.84-1.77c-.36-.26-.63-.65-1-.93s-.51-.37-.72-.33a7.35,7.35,0,0,0-2.89.79,5.62,5.62,0,0,1-2.79,1.08c-.84.11-1.68.31-2.51.48-.54.11-.53.12-.2.72.05.1,0,.27-.06.41a2,2,0,0,0-.15.71c.19.92.92,1.35,2.09,1.22.5-.06,1-.28,1.5-.33.71-.06,1.58.5,1.36.66a3.94,3.94,0,0,1-1.22.4.78.78,0,0,1-.17,0,16.61,16.61,0,0,0-13.39,7.37,4.44,4.44,0,0,1-2.67,1.9c-1.26.32-2.54.59-3.77,1-2.7,1-5.36,2.07-8.06,3.05-1.76.64-3.58,1.13-5.34,1.76-2.46.89-4.88,1.88-7.34,2.77a5.75,5.75,0,0,1-1.84.26c-2.11,0-4.21,0-6.32,0-1.66,0-2,.31-2.15,1.93,0,.17,0,.39-.06.5a5.32,5.32,0,0,1-.67.61c-.19-.24-.48-.45-.54-.72-.1-.43,0-.92-.1-1.35-.06-.28-.31-.67-.53-.71a.76.76,0,0,0-1,.7c-.09.9-.18,1.8-.22,2.7s-.06,2,0,3.07c0,.81-.35,1.11-1.14,1.09a20.73,20.73,0,0,0-2.9.06,3.66,3.66,0,0,0-1.88.64c-.26.22,0,1,0,1.55,0,.06,0,.11,0,.17,0,1.48.06,1.51,1.42,2.14a15.07,15.07,0,0,0,6.35,1c5.28,0,10.57.27,15.86-.22a44.48,44.48,0,0,1,8.7,0,35.07,35.07,0,0,0,5.76-.1c1.31-.08,1.73-.5,1.79-1.79,0-1,0-2,0-3.07a2,2,0,0,1,1.17-2.22,2.72,2.72,0,0,1,3,.14,2,2,0,0,1,.71,1c.57,2.91,2.6,4.92,4.53,6.85a13.68,13.68,0,0,0,5.76,3.75c3,.88,5.84,2,9,1.15,1-.25,2-.4,2.94-.74a28.18,28.18,0,0,0,3.7-1.64,18.26,18.26,0,0,0,4.28-3.56,14.66,14.66,0,0,0,3.62-5.87c.31-1,.81-1.87,1.17-2.83a1.24,1.24,0,0,1,.59-.73l1.81,8.64c.18,1.12.41,2.23.5,3.35s.35,1.51,1.51,1.61c.62.05,1.25,0,1.88,0h120.6q10.51,0,21,0a6.12,6.12,0,0,1,2,.27,3.94,3.94,0,0,1,1.52,1,15.79,15.79,0,0,0,6.18,3.75,13.81,13.81,0,0,0,4.83.86,29.09,29.09,0,0,0,3.2,0,17.21,17.21,0,0,0,6.27-2,14.45,14.45,0,0,0,4.55-3.45,1.53,1.53,0,0,1,1.63-.58,4.43,4.43,0,0,0,3.14-.46,1.93,1.93,0,0,0,1.13-2.25c-.49-1.84.31-3.61.2-5.42a1.58,1.58,0,0,1,.41-.91,3.8,3.8,0,0,1,3.56-1.83,65.11,65.11,0,0,0,6.66,0c1.38,0,1.73-.28,2-1.62a8.49,8.49,0,0,0,.07-2.68c-.32-2.4-.2-2.75,1.86-3.94l.15-.07a1.2,1.2,0,0,0,.56-1.32,1.27,1.27,0,0,0-1-1c-.37-.13-.92.4-1.1-.25s-.69-.33-1-.43-1-.19-1.51-.28l-.34-.05c-.54-.07-.68-.39-.49-.85.37-.89.8-1.75,1.18-2.64.58-1.35,1.13-2.7,1.69-4.05l1.12-2.68h0l.07-.17c.72-1.72,1.45-3.44,2.16-5.17a3.47,3.47,0,0,0,.26-1l1.14-2.93A2.11,2.11,0,0,0,287.88,135.7Zm-37.34-1.09c.12.06.11.21-.07.49Z" fill="#d41308"/></svg>