<svg id="Layer_1" data-name="Layer 1" xmlns="http://www.w3.org/2000/svg" viewBox="0 0 300 300"><title>Cars</title><path d="M256.74,138.64c-2.15,0-4.3,0-6.45,0-.2,0-.41.22-.61.34a2.11,2.11,0,0,0,.56.19c2.43.11,4.86.29,7.29.27,4,0,7.94-.33,11.9-.22,4.33.11,8.51-.82,12.76-1.29.21,0,.39-.24.58-.36-.19-.06-.37-.13-.56-.18s-.21,0-.31,0l-2.1-.41a15.84,15.84,0,0,1,2.4-.18c1.82.13,3.63.39,5.46.53.31,0,.65-.32,1-.5a4.65,4.65,0,0,0-.9-.33,12.49,12.49,0,0,0-1.37-.07,8.51,8.51,0,0,1,1.3-.75,3.55,3.55,0,0,1,1.21-.13c.88,0,1.38.3,1,1.31s-.81,2.32-1.17,3.49c-.91,2.92-1.91,5.82-2.64,8.78-.26,1.06-.82,2.27.17,3.47.65.79.15,1.73-.5,2.49a12.32,12.32,0,0,0-2.08,3.58c-.51,1.31-1.88,2.37-3.05,3.31a8.28,8.28,0,0,0-3.23,6.92,3,3,0,0,0,.84,2.46c.6.58,1.07,2.37.76,2.64-1.07.92-1.54,2.71-3.32,2.73-2,0-4.1.08-6.14,0a3.72,3.72,0,0,0-3.39,1.54A23.9,23.9,0,0,1,255,185.6a21.39,21.39,0,0,1-13.56-.05c-3.53-1.1-6.92-2.51-9.54-5.29-.34-.36-.78-.84-1.21-.88-2.41-.26-4.88-.77-7.24-.5-3.88.44-7.68.7-11.52-.25a20,20,0,0,0-4.52-.59c-6.24-.07-12.49,0-18.74,0a2.2,2.2,0,0,0-2.1,1c-.41.55-2.12.14-3.24.15H164.58c-1.13,0-2.25,0-3.38,0s-2,.2-3.05.19c-9.62,0-19.23-.15-28.85-.18-11.16,0-22.32.08-33.48-.09a13.39,13.39,0,0,0-8.2,2.68,18.59,18.59,0,0,1-12.72,3.11,20.8,20.8,0,0,1-12.08-5.38,4.32,4.32,0,0,0-2.47-.92c-5.92-.26-11.84-.47-17.76-.57s-11.67,0-17.51-.11a53.13,53.13,0,0,1-6.38-.37,5.16,5.16,0,0,1-2.67-1.3c-1.7-1.6-3.26-3.36-4.83-5.09-1.73-1.91-1.67-2.62.58-4,1.74-1.06,3.61-1.88,5.43-2.81.77-.39,1.9-.38,1.82-1.7,0-.11.49-.36.51-.34,1.1,1.34,2,.08,3-.2,4.6-1.29,9-3,13.74-4.07,6-1.36,12.07-2.63,18.05-4.15a17.59,17.59,0,0,0,3.85-1.73c1.08-.58,2-1.25,3.33-.36a2.19,2.19,0,0,0,1.94-.4c1.3-1.09,3.12-1.62,3.79-3.41a.91.91,0,0,1,.64-.52c3,0,5.87-1.21,8.91-1.22a23.76,23.76,0,0,1,7.7,1.53,9.66,9.66,0,0,0,3.86.53c5.06-.49,10.11-1.17,15.16-1.75,3.84-.44,7.69-.82,11.54-1.24a2.18,2.18,0,0,0,.88-.21c1.81-1.11,3.88-2,5.34-3.44,2.46-2.47,5.61-3.32,8.68-4.14,4.32-1.16,8.78-1.77,13.18-2.6.2,0,.41,0,.61,0,1.23-.16,5.1.76,6.27,1.14,2.39.78,4.86,1.8,7.39.92a27.67,27.67,0,0,0,4.25-2.32c2.39-1.34,2.84-1.36,4,1a2.63,2.63,0,0,0,2.83,1.69c2.87,0,5.73,0,8.6,0,4.76.12,9.51.32,14.27.48,1,0,2,0,3.07.06s1.57-.49,1.74-1.61a14.82,14.82,0,0,1,4.61-8.76,2.71,2.71,0,0,1,1.52-.84c2.72-.07,3.56-1.87,4.07-4.1a7.74,7.74,0,0,1,.85-2.28c.76-1.25,1.87-1.17,2.86-.08,1.29,1.42,2.49,3.23,4.14,3.93,2.29,1,4.3,2.79,6.71,3.16a24.64,24.64,0,0,0,7.6-.3c5.73-1,11.42-2.14,17.11-3.29,2-.4,3.94-1,5.91-1.49,2.77-.66,5.56-1.28,8.34-1.92a1.09,1.09,0,0,1,.3-.07l3.86.29c-.49,1.41-.66,3.09-1.56,4.15a16.4,16.4,0,0,1-4.42,3.21c-2.84,1.62-5.82,3-8.65,4.62a4.79,4.79,0,0,0-2.8,4.07,3,3,0,0,1,0,.61c-.19.8-.4,1.6-.61,2.4a8.81,8.81,0,0,1,1.85-1.45A5.68,5.68,0,0,1,250,138c3.38,0,6.76,0,10.14-.05,1.82-.05,3.64-.38,5.46-.52.25,0,.53.36.8.56a3.27,3.27,0,0,1-.79.26c-2.94.19-5.88.37-8.82.54Zm-37.38-.46v.22c1-.15,2-.27,3-.48a1,1,0,0,0,.15-.84,13.94,13.94,0,0,0-1.71-1.74q-5.18-4.45-10.39-8.86c-1.48-1.25-2.06-1.09-2.82.67a1.93,1.93,0,0,0,.5,2.46,5.67,5.67,0,0,1,1.68,5c-.06.6,0,1.22,0,1.83,0,.94.36,1.54,1.42,1.56C213.9,138,216.63,138.11,219.36,138.18Z" fill="#d41308"/></svg>