<svg id="Layer_1" data-name="Layer 1" xmlns="http://www.w3.org/2000/svg" viewBox="0 0 300 300"><title>Cars</title><path d="M68,148.7c4.37.12,7.87,1.09,10.85,3.5a4.32,4.32,0,0,0,5.09.71c2.51-1.22,5.09-2.34,7.7-3.32,1.89-.71,3.92-1.07,5.85-1.69s3.58-1.36,5.39-2c1.21-.4,2.13-.9,2.09-2.38,0-.28.54-.83.55-.82,2,1.25,2.2-.73,2.91-1.65a1.63,1.63,0,0,1,2-.65c2.44.6,4.89,1.34,7.43.35a1.27,1.27,0,0,1,1.07.28c1.6,1.48,3.56,1.35,5.52,1.33,1.26,0,2.53.05,3.79,0,.57,0,1.47,0,1.63-.35,1-2,3.18-2,4.75-3.05,1.74-1.13,2.94-.72,3.51,1.34a2.15,2.15,0,0,0,2.53,1.75c4.17-.08,8.37,0,12.51-.41,3.9-.39,7.26-2,8.88-6,.92-2.29,2.7-4.2,3-6.79a1.59,1.59,0,0,1,1.19-.94,2.19,2.19,0,0,1,1.45.72,2.92,2.92,0,0,1,.52,1.34c.19.79.06,2,.53,2.33a14.51,14.51,0,0,0,5.22,2.37c6.14.84,12.34,1.17,18.48,2a35.15,35.15,0,0,1,8.67,2.36c1.48.61,2.68,2.18,3.69,3.55,1.38,1.87,2.47,3.95,3.66,5.95.4.67.8.68,1.39.21a43,43,0,0,1,5.11-3.82c6.75-3.8,13.73-4.56,20.87-1a2,2,0,0,0,2.7-.3c1.26-1.15,3.1-.73,4.72-.27.4.11,1,.35,1.22.17,1.19-1.09,2.16-1,3.6-.2.71.39,2.15-.48,3.23-.86.14-.05.23-.63.14-.89a18.58,18.58,0,0,1-1.12-2.95c-.25-1.61.27-2.25,1.93-2.64,4.15-1,8.3-1.93,12.46-2.84,4.54-1,9.08-1.95,13.64-2.83,2.75-.53,5.53-.91,8.3-1.33a6.21,6.21,0,0,1,1.75,0c1.48.2,2,1.14,1.29,2.49a12.74,12.74,0,0,1-6.76,5.7c-5.41,2.17-10.88,4.17-16.24,6.43a91.43,91.43,0,0,0-14,7.06c-1.73,1.11-1.91,1.52-1.42,3.6.78,3.3,1.78,6.57,2.25,9.91a50,50,0,0,0,1.45,7c.2.71.13,1.42-1,1.18-2.34-.51-4.36.77-6.52,1.22-.53.11-1.07.81-1.35,1.36a20.67,20.67,0,0,1-8.13,8.55,25.91,25.91,0,0,1-7.91,2.76c-6.83,1.41-12.83-.77-18.14-5a6,6,0,0,0-4.24-1.43,65.37,65.37,0,0,1-8.75,0c-9.8-1-19.62-.42-29.43-.46-27.14-.13-54.28-.09-81.42-.13a12.69,12.69,0,0,1-3.19-.17c-1-.27-1.93,1-3,0-.2-.18-1.39.49-1.92,1a17.3,17.3,0,0,1-10,4.31,16.08,16.08,0,0,1-6-.79,16.41,16.41,0,0,1-7.39-3.93,3.75,3.75,0,0,0-2.95-.92c-3.11,0-6.23.06-9.34,0q-10.19-.26-20.38-.65c-2.71-.11-5.41-.38-8.12-.59a3.68,3.68,0,0,1-3.46-2.22c-.7-1.59-1.59-3.11-2.26-4.71-.17-.4.11-1.42.31-1.45,1.43-.27,2.1-1.95,3.78-1.85.78,0,1.59-.63,2.39-1a14.68,14.68,0,0,1,2.44-.93c6.91-1.47,13.84-2.89,20.76-4.31a61.24,61.24,0,0,0,6.52-1.37,72.41,72.41,0,0,0,7.18-3c.4-.18.69-.67,1-1.05A17.48,17.48,0,0,1,68,148.7Z" fill="#d41308"/></svg>