<svg id="Layer_1" data-name="Layer 1" xmlns="http://www.w3.org/2000/svg" viewBox="0 0 300 300"><title>Cars</title><path d="M123.59,183.76c-3,0-5.95.11-8.92.2l32.67,0,1-.05c-2.44-.06-4.87-.11-7.31-.13Q132.33,183.66,123.59,183.76Z" fill="#d41308"/><path d="M289.4,138.51l-1,0c-2.88.1-5.76.23-8.64.3-2,.05-2.28-.17-2.73-2.17-.27-1.17-.27-1.21-1.4-1.19-2.15,0-4.29.12-6.44.18a3,3,0,0,1-1-.07,9.6,9.6,0,0,0-8.41,1.26,4,4,0,0,1-2.22.69c-1.28,0-2.57,0-3.85,0s-1.62.15-2,1.32c-.86,2.39-1.69,4.79-2.52,7.2-.14.39-.46.87.27,1.08,0,0,0,.14,0,.21a5.5,5.5,0,0,1-.84.09.79.79,0,0,0-.75.26l-.06-.05-7.15-2.5-2.34-.83c-.8-.28-1.59-.58-2.4-.84h0L231.65,142q-10.68-3.76-21.36-7.5a3.26,3.26,0,0,0-1.15-.16c-4.24.13-8.47.29-12.71.41-4.07.12-8.13.27-12.2.29a2.46,2.46,0,0,0-2.45,1.38c-.08.15-.19.28-.27.43a2,2,0,0,1-2.28,1.06c-.39-.07-.78-.14-1.17-.2l-8.88-1.22a11.53,11.53,0,0,1-1.18-.14,1.34,1.34,0,0,1-1.08-2c.23-.64.46-1.28.74-1.9a.68.68,0,0,0-.43-1.06c-.6-.23-1.4-.21-1.46-1.14a1.82,1.82,0,0,0-.66.12c-.91.58-2.82.51-3.47-.25-.4-.47-.57-.4-.84.07a2,2,0,0,1-.61.74,1.29,1.29,0,0,0-.74,1.3,3.62,3.62,0,0,1-1,2.59c-.85.58-.71,1.16-.7,1.84,0,.85.12,1.69.14,2.54,0,1.92,0,3.85.1,5.77,0,.83-.36,1-1.11,1.1-1,.07-2,.3-3,.43a3.13,3.13,0,0,1-.83,0c-3.74-.52-7.49-1-11.23-1.56-4.85-.7-9.7-1.49-14.56-2.14-5.73-.77-10.88.47-15.23,4.51-1.9,1.77-3.93,3.39-5.93,5-.62.52-1.24,1.27-2.22.56-.1-.07-.39.14-.6.18a16.42,16.42,0,0,1-2.33.37c-5.48.16-11,.28-16.44.43-1.41,0-2.82.14-4.23.24a25.13,25.13,0,0,1-4.88.31,21.38,21.38,0,0,0-5.19.31c-.93.1-2.14.21-2.24-1.32,0-.08-.08-.16-.12-.25a1.5,1.5,0,0,0-.09.32c0,.88-.68.73-1.23.72-1,0-1.93-.06-2.88,0A16.92,16.92,0,0,0,55.06,157a17.52,17.52,0,0,0-5.91,6.41c-.2.38-.46.86-.81,1-1.12.43-2.31.69-3.45,1.07-.63.21-1.45.38-1.79.85a1.35,1.35,0,0,1-1.39.61,1.28,1.28,0,0,0-1,.38,3.84,3.84,0,0,0-.35,1.26,5.94,5.94,0,0,0-1.19-.47c-.22,0-.49.2-.74.31a6.18,6.18,0,0,1-1.2.57,15.61,15.61,0,0,0-4.15,1.44,8.4,8.4,0,0,1-1.83.53c-1-1.1-2.19-.38-3.29-.46a1.23,1.23,0,0,0-1,.67c-.13.85-.61.93-1.3.95-4.13.1-8.25.23-12.38.34-.57,0-1.13,0-1.7,0-1.47.1-1.66.28-1.63,1.74.06,2.65.2,5.31.25,8a1.2,1.2,0,0,0,.61,1.2H44.1l.1-.09H43l-1.35,0c-.68,0-1.23-.18-1.07-1.07a1.88,1.88,0,0,0-.06-.5c-.12-1,.07-1.31,1.13-1.34,1.41,0,2.81,0,4.22,0v-.11c1.24,0,2.48,0,3.71,0,.3,0,.71,0,.88.21.75.83,1.45,1.72,2.13,2.61,11.47,7.81,27.74-.23,27.74-.23a51.6,51.6,0,0,0,4.13-3.19,13.86,13.86,0,0,0,3.93-7.15,2.5,2.5,0,0,1,.18-.81,1.2,1.2,0,0,1,.74-.54.94.94,0,0,1,.73.48,4.24,4.24,0,0,0,1.42,1.84c.22.17.2.67.24,1a.89.89,0,0,1-.53.17c-1.23-.12-1.23-.13-1.22,1.11.19,1,.38,2.1.58,3.15.16.81.51,1.62,0,2.43,0,.07.07.24.11.37A1.64,1.64,0,0,1,89.38,184l18.15,0a.67.67,0,0,1,.24-.11,5.36,5.36,0,0,1,.85,0l11-.33c5.59-.15,11.19-.27,16.79-.44,7.29-.22,14.57-.48,21.86-.72l7.79-.28,21-.73,8.64-.3c7.12-.24,14.24-.47,21.35-.73q6.27-.23,12.53-.57l5.86-.47,12.11,5.35c12.11,5.35,18.39-1.4,18.39-1.4l.25.28a15.9,15.9,0,0,0,4.3-6.08,15.48,15.48,0,0,0,1.27-8.76c-.22-1.15-.12-1.17,1.14-1.23l6.1-.29c1.12-.06,1.13-.1.62-1.23a2.37,2.37,0,0,1-.19-.81c-.09-1.52-.16-3-.25-4.57a1.05,1.05,0,0,1,.76-1.17c.26-.1.5-.27.77-.35a2.46,2.46,0,0,0,1.86-2,23.21,23.21,0,0,1,1-2.88c.13-.33.4-.82.66-.85.83-.11.92-.72,1.13-1.29,1-2.77,2-5.53,3-8.3.53-1.49,1-3,1.57-4.48C290.11,138.74,289.93,138.5,289.4,138.51ZM144.19,149.82a11.39,11.39,0,0,0-.84,1.06,4.59,4.59,0,0,1-4.14,2.19h-2.88v.11c-.79,0-1.58,0-2.37,0-.62,0-1.2.29-1.64-.59-.19-.37-1.23-.4-1.88-.42-2-.07-4.07-.06-6.11-.1a9.48,9.48,0,0,1-1.18-.11c-.09,0-.23-.15-.23-.22s.08-.38.16-.39c.78-.14.93-.69,1-1.36,0-.15.23-.29.35-.43a1.44,1.44,0,0,1,.21.4c0,.22,0,.46,0,.68.07.4-.16,1.07.53,1,.23,0,.5-.68.55-1.07.14-1,0-1-1-1.49-.65-.3-1.34-.53-2-.82-1.53-.72-2.95-.06-4.4,0-.59,0-.71.66-.68,1.2,0,.85.14,1.69.14,2.53,0,.28-.24.79-.39.79-.39,0-1-.07-1.15-.31a2.07,2.07,0,0,0-1.06-1c-.63-.36-.61-.89-.19-1.42a10.14,10.14,0,0,1,3.88-2.93,4.14,4.14,0,0,1,1.83,0c1.08.07,2.09.18,2.88-.91.66-.91,1.74-.91,2.8-.73l10.18,1.76c2.39.41,4.79.78,7.18,1.2C144.9,148.63,145,148.89,144.19,149.82Z" fill="#d41308"/></svg>