<svg id="Layer_1" data-name="Layer 1" xmlns="http://www.w3.org/2000/svg" viewBox="0 0 300 300"><title>Cars</title><path d="M290,164c0-2.14,0-4.28,0-6.42,0-7,0-14,0-21.07,0-1.87-.11-2-1.82-2-5.57,0-11.13,0-16.7,0a2.21,2.21,0,0,0-1.69.47h-1.08v1.35a1.18,1.18,0,0,0-.36.51,6,6,0,0,0,0,1.59c-.05,3.07,0,6.15,0,9.22,0,.91-.32,1.27-1.26.82a18.85,18.85,0,0,0-9.75-1.63c-1.52.11-3,.47-4.54.64-.44.05-1.12,0-1.32-.24-.75-1-1.76-.93-2.79-.93-1.63,0-3.26.09-4.88,0a9.74,9.74,0,0,0-6.33,1.51,2.78,2.78,0,0,1-2.88.17,8.51,8.51,0,0,0-1.91-.42c-6.37-2.92-14.73-6.71-17.52-7.75-4.73-1.75-10-6.3-14.88-9.62a15.81,15.81,0,0,0-5.9-2.44c-.16-1-1-.31-1.51-.47-1-.32-2.49,0-2.89-1.18s.67-2.17,1.6-2.94c.06-.05.16-.07.22-.13.21-.21.42-.43.63-.64a3.81,3.81,0,0,0-.69-.3c-1.83-.39-3.65-.86-5.5-1.13a23.77,23.77,0,0,0-4.58-.26c-1.93.1-2.42.75-2.75,2.65a4.73,4.73,0,0,1-.9,2.3,4.46,4.46,0,0,0-1.12,3.29c0,2.83,0,5.65,0,8.48,0,2.19-.12,2.26-2.37,2.24a2.86,2.86,0,0,1-.77,0,2.08,2.08,0,0,0-2.52,1.2,7.46,7.46,0,0,0-.74,1.88c-.58,2.11-.9,2.38-3.15,2.6a11.31,11.31,0,0,0-2,.37c-2.87.82-5.73,1.7-8.61,2.52a38.34,38.34,0,0,1-4.71,1.17c-1.89.29-2,.18-2.12-1.74-.05-1.13-.61-1.65-1.49-1.71a21.27,21.27,0,0,0-4.6.11c-1.43.22-2,.91-1.76,2.33.18,1.26-.28,1.54-1.31,1.55h-6.94a1.48,1.48,0,0,1-1.59-.94c-.68-1.42-1.67-1.55-2.35-.23-.56,1.09-1.08,1-2,.73a3.05,3.05,0,0,1-2.3-2.17c-.24-.77-.41-.4-.66.07s-.59.91-1,1c-1.18.15-2.47.29-3.24-.95s-1.58-1.11-2.51-.27a5.87,5.87,0,0,1-4.53,1.3c-3.83-.21-7.66-.43-11.5-.48-6.33-.08-12.65-.08-19,0-3.27,0-6.6.63-9.55-1.45a1.3,1.3,0,0,0-.5-.11c-5.94-1.07-11.7-1.06-17,2.52a6.44,6.44,0,0,1-2.29,1c-3.09.61-6.21,1-9.29,1.68-3.42.72-6.8,1.6-10.2,2.43a4.34,4.34,0,0,0-1,.51c.42.74,0,1.08-.54.65a2.22,2.22,0,0,0-2.41,0c-3,1.17-6.06,2.29-9,3.65a86,86,0,0,0-7.64,4.11,14.14,14.14,0,0,0-2.92,2.48c-1.39,1.46-1.28,2.24.6,3a1.9,1.9,0,0,1,1.35,2.14c-.13,1.86-.29,3.71-.45,5.57-.09,1.05.3,1.64,1.42,1.62.68,0,1.37,0,2.06,0q13.23,0,26.46,0c4.47,0,4,.49,4-3.94,0-1.63,0-3.25,0-4.88,0-.22.19-.44.29-.65a3.66,3.66,0,0,1,.74.52,1.23,1.23,0,0,1,.27.71c.11,2.22,1.27,4,2.28,5.9a19.63,19.63,0,0,0,12.31,9.7,18.39,18.39,0,0,0,11.79-.51,19,19,0,0,0,11-9.3c.47-1.07,3.34-1.64,4.3-1a1.54,1.54,0,0,1,.48,1.1c0,2.05,0,4.11,0,6.16a1,1,0,0,1-1.06,1.17,6.39,6.39,0,0,0-1.27.14.6.6,0,0,0-.16,1.11,4,4,0,0,0,1.44.41c1.53,0,3.06,0,4.6,0,24.32,0,48.64.12,73,0s48.78.67,73.16-.46c2.39-.11,4.8,0,7.19,0a7.12,7.12,0,0,1,3.18.71,19.58,19.58,0,0,0,16.62.4,14,14,0,0,1,5.93-1.12c4.54.07,9.08,0,13.62,0,2.23,0,2.24,0,2.28-2.34,0-.94-.08-1.89,0-2.82a5.36,5.36,0,0,0-2.38-5.29,4.72,4.72,0,0,1-2.28-3.56c0-.56-.77-1.88.9-.88.57.34.61-.32.52-.74s-.59-1.28-.39-1.61,1-.51,1.59-.67a6.08,6.08,0,0,1,2.23-.48C290,165.68,290,164.93,290,164Z" fill="#d41308"/></svg>