<svg id="Layer_1" data-name="Layer 1" xmlns="http://www.w3.org/2000/svg" viewBox="0 0 300 300"><title>Cars</title><path d="M282.84,171.09a2.17,2.17,0,0,0-.17.42c-.15,1.47-.17,1.47-1.51,1.87s-2.79.89-4.2,1.29a6.33,6.33,0,0,1-1.65.26,1.17,1.17,0,0,0-1.31,1,5.32,5.32,0,0,1-.48,1,1.48,1.48,0,0,0-.07.38l.29,0s.09,0,.14-.05c2-.45,2-.45,2,1.6,0,.56,0,1.12,0,1.68s-.27.93-.92.92c-1.07,0-2.14,0-3.22,0a3.56,3.56,0,0,0-2.51.88,18.26,18.26,0,0,1-19.05,2.93c-1.33-.62-2.54-1.5-3.83-2.2a3,3,0,0,0-1.42-.37c-1.42,0-2.84.23-4.26.25-4.49,0-9-.11-13.48.06-7.49.29-15,0-22.48.35-6,.26-12-.09-18,.28-6.22.38-12.45-.06-18.65.31s-12.25-.07-18.35.3-12.35-.06-18.5.3c-6.53.39-13.06-.06-19.57.32-5.25.31-10.5.11-15.75.22a12.49,12.49,0,0,1-2.08-.35c-.65-.1-1.31-.14-2-.26-.21,0-.38-.24-.57-.37.11-.16.19-.37.35-.46.39-.24.82-.42,1.23-.63.22-.11.59-.2.63-.37.31-1.11,1.18-.94,2-.94l13,0c1.33,0,1.35,0,1.35-1.37q0-4.14,0-8.27c0-1.3,0-1.26-1.38-1.36-4.72-.37-9.44-.63-14.18-.63-1.16,0-2.33-.18-3.49-.26a3.52,3.52,0,0,0-.91,0,.61.61,0,0,0-.42.33.53.53,0,0,0,.27.44c.38.14.85.17.84.72a10.26,10.26,0,0,1-.19,2.25c-.06.24-.67.44-1,.47-.64,0-.85.38-1.05.9a18.37,18.37,0,0,1-8.75,9.81,16.34,16.34,0,0,1-7.47,1.95,18,18,0,0,1-18.64-14.39c0-.2-.14-.39-.18-.58-.1-.49-.3-.65-.85-.52-1.28.31-2.59.52-3.89.75a.83.83,0,0,0-.79.94c.07,2,.14,4.07.21,6.1,0,.05,0,.1,0,.15.32,2.44.16,2.52-2.26,2.64-8.76.43-17.52.19-26.28.27-2.32,0-2.07.23-2.12-2.16,0-1.2-.17-2.39-.26-3.58-1.13.29-2.25.6-3.38.88a7.27,7.27,0,0,1-1.64.27,2,2,0,0,1-1.82-2.87,2.6,2.6,0,0,1,1.63-1.5c1.41-.45,2.8-1,4.2-1.42.58-.19,1.13-.32,1.38-1a1.42,1.42,0,0,1,1.52-.83c2.54.19,4.8-.8,7.11-1.57q5.13-1.72,10.24-3.51c3.4-1.19,6.78-2.46,10.2-3.63,2.31-.79,4.66-1.46,7-2.2,1.38-.45,1.43-.6.84-1.93-.31-.71-.25-1,.51-1.29a6.57,6.57,0,0,1,2.81-.5,2.68,2.68,0,0,0,2.05-.68c1.37-.87,2.7-1.83,4.13-2.57a15.3,15.3,0,0,1,5.88-1.5,22.4,22.4,0,0,1,5,.2c.13,0,.36,0,.4-.09a8.14,8.14,0,0,0,.74-1.77c.16-.77-.09-1-.9-1-1,0-2,.19-3,.27-.17,0-.35-.13-.53-.19.1-.15.19-.42.31-.44a36.52,36.52,0,0,1,4.05-.51c.67,0,1,.6,1,1.3,0,.52,0,1,.73,1.11s.3.69.33,1c.07.76.21,1.39,1,1.69.44.16.67.16.66-.39a12.79,12.79,0,0,1,0-1.38c0-.17.16-.33.25-.49.12.18.32.35.35.55.06.4,0,.82,0,1.22.07,1,.28,1.18,1.23,1,.79-.19,1.56-.5,2.35-.65s1-.34,1-1.07c0-.14.19-.3.3-.45a2,2,0,0,1,.17.38c.14.64.53.78,1.14.67,2.15-.38,4.29-.8,6.45-1.09a37.83,37.83,0,0,1,4.71-.35c5.41,0,10.82,0,16.23,0,.79,0,1.65.19,1.81-1.05,0-.29.69-.52,1.07-.76.54-.34.67.24,1,.44a2.3,2.3,0,0,1,.62.44c.93,1.27,2.27.89,3.51.88.1,0,.25,0,.28-.09.68-1.11,1.35-.49,2.14-.1a5.09,5.09,0,0,0,3,.83c.25,0,.64-.27.66-.44.09-.84.3-1.73-.54-2.4-.5-.4-1.17-.74-.81-1.6a2.24,2.24,0,0,1,2-1.67c.81-.06,1.61-.25,2.42-.27,1.18,0,1.57.38,1.64,1.51,0,.15,0,.31,0,.46,0,2.06-.13,2.23-2.19,2.37-.44,0-.53.23-.38.59a2.77,2.77,0,0,0,2.73,1.8c1,0,2,0,3.06,0,2.6,0,5.21-.08,7.81,0a5.59,5.59,0,0,0,3.77-1.29c3.8-3,2.9-2.35,7.52-2.43,1,0,1.94,0,2.91,0s1,0,1.1-1a14.08,14.08,0,0,1,.31-2,2.19,2.19,0,0,1,2.81-1.89c.6.07,1.2.2,1.81.26s.87-.13.84-.87,0-1.16-.92-1.36a1.52,1.52,0,0,1-1.17-1.72c.07-1.63,0-3.27,0-4.9a1.66,1.66,0,0,1,.61-1.46,3.59,3.59,0,0,0,1.26-2.36,6.72,6.72,0,0,1,.35-1.17c.52-1.58,1.06-2.08,2.78-2a27.58,27.58,0,0,1,4.21.59c1.25.24,2.47.59,3.7.9a1.43,1.43,0,0,1,.36.22c-.09.11-.16.26-.27.33a1.92,1.92,0,0,1-.58.19c-1.51.27-1.92,1.54-2.42,2.71-.18.41.14.52.48.55,1.47.11,2.94.31,4.41.3,6.42-.07,12.83-.2,19.24-.3,2.69-.77,5,.54,7.32,1.46,4.31,1.69,8.59,3.45,12.87,5.2L237.29,147c3.82,1.56,7.65,3.1,11.46,4.67a1.93,1.93,0,0,0,1.61,0c1-.42,2.11-.69,3.11-1.16a3.19,3.19,0,0,0,1.89-2.9c.06-1.43,0-2.86,0-4.29,0-3.47,0-6.94,0-10.41,0-.7.06-1.34.8-1.66a1.77,1.77,0,0,1,.67-.21l17.15,0c.76,0,1.53-.1,2.29-.09a1.63,1.63,0,0,1,1,.25c.19.17.17.6.22.92a1.76,1.76,0,0,0,2.15,1.53,8.49,8.49,0,0,1,.9-.13c1.88-.12,3.75-.25,5.63-.34.91,0,1.82,0,2.74,0,.59,0,.8.33.8.88,0,1,0,1.94,0,2.91,0,3.17-.11,6.34,0,9.49.31,6.83.24,13.66.23,20.49a25.33,25.33,0,0,1-.27,2.73.93.93,0,0,1-1,.89,4.89,4.89,0,0,0-2.68.45c-.13.08-.45-.08-.65-.19-.37-.22-.44-.07-.43.27,0,.82-.64.95-1.18,1.2s-.69,0-.78-.43C282.93,171.71,282.9,171.47,282.84,171.09Zm-171.44,5.23c0,1.33,0,2.65,0,4,0,1,.06,1.06,1,1.07,1.94,0,3.88,0,5.82,0a1.2,1.2,0,0,0,1.29-1.57,5.76,5.76,0,0,0-1.22-2.92,30.36,30.36,0,0,0-6.18-5.19c-.58-.37-.74-.27-.75.51C111.39,173.57,111.41,174.95,111.41,176.32Z" fill="#d41308"/></svg>