<svg id="Layer_1" data-name="Layer 1" xmlns="http://www.w3.org/2000/svg" viewBox="0 0 300 300"><title>Cars</title><path d="M284.14,148.24c-1.44,0-2.89.1-4.32,0-2.22-.19-4.45-.1-6.67-.15a2.82,2.82,0,0,0-1.3.27,3.3,3.3,0,0,1-1.05.23c-.75.08-1.51.11-2.26.19-.31,0-.44.24-.26.45.36.42.52,1,1,1.31.22.15.31.22.55.06a1.61,1.61,0,0,1,2.38,1,2.35,2.35,0,0,0,1.35,1.88,2.15,2.15,0,0,1,.44.39c.48.43,1,.86,1.43,1.31.1.09.09.29.13.44-.15,0-.35.07-.44,0-.62-.48-1.23-1-1.82-1.5-.16-.14-.3-.31-.49-.15a.79.79,0,0,0-.21.5,1,1,0,0,0,.17.47,3.88,3.88,0,0,0,.62,1c.67.61.65,1.47.85,2.23a13.47,13.47,0,0,1,.2,2.09,3.68,3.68,0,0,0,.06.5c.09.38.19.75.28,1.13a.62.62,0,0,0,.85.54,1.94,1.94,0,0,1,2,.63c.3.34.61.58,1.09.33a.89.89,0,0,1,.42,0,1.26,1.26,0,0,0,1.18-.49.78.78,0,0,1,.87-.15c.32.1.22.42.21.66,0,.58-.11,1.15-.15,1.73s.08.64.64.61,1.06-.14,1.59-.15a2.27,2.27,0,0,1,.9.17,2.32,2.32,0,0,1,.56.47s0,.05,0,.08c.09.44.69.68.51,1.2a18.58,18.58,0,0,1-.75,1.77,9.37,9.37,0,0,0-1,2.28,1,1,0,0,1-.22.45,1.9,1.9,0,0,0-.42,1.34c0,.55-.2.75-.73.86l-.17,0c-1.12.06-2.24.15-3.37.16a7.67,7.67,0,0,1-2.42-.21,11.93,11.93,0,0,0-2.19-.27c-.75-.11-1.51-.13-2.26-.18a2.71,2.71,0,0,1-1.3-.13.5.5,0,0,0-.74.33,8.62,8.62,0,0,1-1.38,2.38,21.29,21.29,0,0,1-3.17,3.72,6.14,6.14,0,0,1-1.62,1.32c-.34.15-.57.53-.87.77a8.71,8.71,0,0,1-1,.65c-1,.59-1.95,1.21-3,1.72a17.49,17.49,0,0,1-2.2.77c-.05,0-.13,0-.16.05-.51.55-1.24.42-1.88.61a1.75,1.75,0,0,0-.48.13,3.56,3.56,0,0,1-2,.39c-.92,0-1.84.17-2.76.26a1.42,1.42,0,0,1-.25.05l-2.67-.26a9.21,9.21,0,0,0-1.18-.05,3.93,3.93,0,0,1-1.56-.31,6,6,0,0,0-1.38-.36,1.49,1.49,0,0,1-1-.36.72.72,0,0,0-.46-.16,1.19,1.19,0,0,1-.85-.31,1.44,1.44,0,0,0-.53-.21,3.3,3.3,0,0,1-.48-.13,22.2,22.2,0,0,1-4.1-2.44c-1.11-.9-2.21-1.82-3.26-2.79a13.91,13.91,0,0,1-1.42-1.66,1.35,1.35,0,0,0-1.15-.59c-.76,0-1.52.09-2.27.09-.5,0-1-.09-1.51-.09q-18.8,0-37.6,0a2.14,2.14,0,0,1-2-.72,1.09,1.09,0,0,0-.74-.29c-.7,0-1.41,0-2.12,0a3,3,0,0,0-.58.1c-.35.08-.71.14-1.05.25s-.48.12-.57.27c-.23.4-.57.4-.95.4H168c-.42,0-.84.08-1.25.12a2.3,2.3,0,0,1-.34,0c-.87,0-1.74-.14-2.61-.14H137.42c-1.09,0-2.17.08-3.27,0s-2.2,0-3.3,0H117.73c-1.1,0-2.2,0-3.3,0-.39,0-.78.08-1.17.12a2.47,2.47,0,0,1-.59,0,38.68,38.68,0,0,0-6.58-.11c-1.25,0-2.49-.1-3.74,0-.45,0-.89.11-1.34.13a9.29,9.29,0,0,1-1,0,3.92,3.92,0,0,0-.92-.06,1.06,1.06,0,0,0-.7.39,8.84,8.84,0,0,1-1.74,2c-.48.5-1,.94-1.49,1.47A12.51,12.51,0,0,1,92,183.34a27.72,27.72,0,0,1-3.42,1.74,1.27,1.27,0,0,1-.49.08,1.23,1.23,0,0,0-.85.28c-.46.38-1.08.23-1.6.4-.16,0-.37,0-.49.09a3.31,3.31,0,0,1-2.11.42H77.8a4.58,4.58,0,0,1-1.63-.34,11.55,11.55,0,0,0-1.55-.34,1.5,1.5,0,0,1-.62-.2,1.19,1.19,0,0,0-.84-.32.91.91,0,0,1-.41-.09c-.66-.31-1.29-.68-2-.94a11.84,11.84,0,0,1-3.25-2c-.67-.55-1.43-1-2.06-1.61s-1.31-1.46-2-2.2c-.2-.23-.35-.51-.55-.75s-.57-.64-1.08-.37a.85.85,0,0,1-.42,0c-.78,0-1.57-.14-2.35-.14-4.09,0-8.19,0-12.28,0-.95,0-1.89-.18-2.84-.28l-.42,0c-2.08-.22-4.16-.15-6.25-.18a13.91,13.91,0,0,1-3.19-.21A30.78,30.78,0,0,0,30,176a21.94,21.94,0,0,1-4.5-.56,6.4,6.4,0,0,0-2.1-.08,8.56,8.56,0,0,1-2.32-.35,7.42,7.42,0,0,0-1.16-.17c-.73-.07-1.46-.08-2.18-.18-.43-.06-.85-.26-1.28-.35a5.62,5.62,0,0,0-1.16-.14,3.38,3.38,0,0,1-1.79-.36,1.9,1.9,0,0,0-.81-.15,1.31,1.31,0,0,1-1.33-1.31c-.16-1.14-.17-2.28-.42-3.42a19.16,19.16,0,0,1-.23-3.36,3.63,3.63,0,0,0-.27-1.48,3.83,3.83,0,0,1-.24-1.14c-.08-.67-.11-1.34-.21-2a1.53,1.53,0,0,1,.73-1.57c.52-.39,1.13-.55,1.65-1a6.46,6.46,0,0,1,1.85-.69c.1,0,.27,0,.33,0a3.84,3.84,0,0,1,2-.8,3.47,3.47,0,0,0,1.09-.39c.75-.47,1.66-.47,2.43-.87a2.36,2.36,0,0,1,.89-.25,2.59,2.59,0,0,0,1.34-.43c.18-.13.49-.07.73-.11a3.55,3.55,0,0,0,1-.26,3.31,3.31,0,0,1,1.52-.41,1.43,1.43,0,0,0,.95-.27,1.69,1.69,0,0,1,1.22-.24,2.14,2.14,0,0,0,1.37-.32,1.5,1.5,0,0,1,.8-.18,3.07,3.07,0,0,0,1.45-.37,4.17,4.17,0,0,1,1-.31c.46-.11.93-.19,1.4-.27.69-.13,1.38-.25,2.06-.39.41-.09.82-.2,1.22-.31a3,3,0,0,1,.73-.19,4.06,4.06,0,0,0,2.12-.45,2.16,2.16,0,0,1,.83-.08,2.87,2.87,0,0,0,.92-.09,8.36,8.36,0,0,1,3.44-.59.67.67,0,0,0,.33,0,4.6,4.6,0,0,1,2.53-.48,3.5,3.5,0,0,0,1.31-.25,3.31,3.31,0,0,1,1.57-.24,1.29,1.29,0,0,0,1-.37A3.26,3.26,0,0,1,53,148a1.4,1.4,0,0,1,1.12.05c.68.54,1.39.33,2.1.3.36,0,.72-.08,1.08-.12a3.11,3.11,0,0,0,.83-.08,4.91,4.91,0,0,1,2-.26,12.46,12.46,0,0,0,2.84-.28,17.07,17.07,0,0,1,3-.22,1.94,1.94,0,0,0,1.22-.44,23.46,23.46,0,0,1,2.84-1.9,28.19,28.19,0,0,1,3.46-1.64,15.64,15.64,0,0,1,2.52-.6c.77-.16,1.55-.24,2.31-.43a8.56,8.56,0,0,1,3.59-.11c1.24.21,2.49.36,3.74.54a2.73,2.73,0,0,1,.62.22c.13.05.24.18.37.19a8,8,0,0,1,2,.56,3.85,3.85,0,0,1,1.11.5,8.55,8.55,0,0,0,1.39.72,6.23,6.23,0,0,0,.59.28,2.55,2.55,0,0,0,.78.23c1.1,0,2.2,0,3.3,0a7.25,7.25,0,0,0,.91-.15c.55-.08,1.12-.12,1.66-.24a19.14,19.14,0,0,0,3.14-.86,4.41,4.41,0,0,1,1.93-.45.23.23,0,0,0,.16,0c.45-.49,1.05-.43,1.64-.5a4.72,4.72,0,0,0,1-.36c.05,0,.1-.07.15-.07,1.17-.11,2.26-.62,3.43-.69a7.93,7.93,0,0,0,2.14-.39,5.63,5.63,0,0,1,1.73-.28,2.57,2.57,0,0,0,1.5-.42c.62-.43,1.28-.81,1.9-1.25a4.18,4.18,0,0,0,1.5-2.19.92.92,0,0,1,1.13-.74,18,18,0,0,1,3,.43,7.15,7.15,0,0,0,1.74.25A7.77,7.77,0,0,1,127,138a4.54,4.54,0,0,0,1.07.24.91.91,0,0,1,.76.57,1,1,0,0,0,1.59.19c.38-.37.79-.71,1.19-1.06a.67.67,0,0,1,.79-.08c.59.28,1.2.54,1.2,1.36a.4.4,0,0,0,.46.4,8.79,8.79,0,0,0,2.92-.22,7.94,7.94,0,0,1,1.82-.28c.3,0,.61-.11.91-.15l3.17-.36a1.05,1.05,0,0,1,1,.44,2,2,0,0,0,1.84.76c10.19,0,20.38,0,30.57,0a27,27,0,0,0,3.18-.27,1.07,1.07,0,0,1,.69.21c.22.12.36,0,.44-.21a9.27,9.27,0,0,0,.52-3.73,8.32,8.32,0,0,1,.39-2.32,5.16,5.16,0,0,0,.11-.58c.07-1.07.11-2.13.18-3.2a2,2,0,0,1,.13-.66,6.2,6.2,0,0,0,.38-2.57,1.52,1.52,0,0,1,1.57-1.58,2.2,2.2,0,0,1,1.7.54c.46.4.64.78.32,1.32s-.05.62.21.84.37.26.55.39c.74.56,1.45,1.14,2.2,1.68s1.4.91,2.08,1.4c1.11.8,2.18,1.66,3.31,2.44a3.29,3.29,0,0,0,1.1.36c.38.09.78.12,1.16.21a1.35,1.35,0,0,1,1.08.71c.08.19.23.23.4.08,1.59-1.41,3.41-1.37,5.3-.85a1.81,1.81,0,0,1,1.22.68c.21.33.5.06.64-.09a3.72,3.72,0,0,1,1.66-.8,1.43,1.43,0,0,1,.57-.1,4.45,4.45,0,0,0,3.05-1,4.24,4.24,0,0,1,2.65-.93.62.62,0,0,0,.33-.06c.88-.48,1.83-.19,2.74-.25.08,0,.17.1.25.15-.08.06-.16.15-.24.16a4.21,4.21,0,0,1-.68,0,3.47,3.47,0,0,0-2,.49c-.56.32-1.22.52-1.81.83a8.19,8.19,0,0,0-.73.42c-.51.34-.5.33,0,.68a2.31,2.31,0,0,1,.38.43c.38.44.62.45,1.08.14a8.06,8.06,0,0,1,3.69-1.48c1.06-.11,2.1-.32,3.16-.47.28,0,.56,0,.84,0l1.67-.15a.71.71,0,0,1,.83.38,1.88,1.88,0,0,0,1.49,1.05,20.33,20.33,0,0,0,2.2.49,1.31,1.31,0,0,0,.48,0c.6-.24,1.18-.51,1.77-.77a6.31,6.31,0,0,1,3.44.32,1.94,1.94,0,0,1,.41.6,2.74,2.74,0,0,1,.31.67c.18.72.94.89,1.32,1.44a6.16,6.16,0,0,0,1.37,1.38,16.63,16.63,0,0,0,3.23,1.81c.15.07.34,0,.5.07s.46.17.53.32c.16.39.36.33.67.21a6,6,0,0,1,.89-.21c.16,0,.39,0,.48-.1.36-.4.85-.38,1.31-.47a4.51,4.51,0,0,0,1.6-.46,1.26,1.26,0,0,1,.57-.15c1.21-.07,2.41-.17,3.62-.17s2.47.1,3.7.16a1.19,1.19,0,0,1,.49.11,7,7,0,0,0,2.43.56c.06,0,.14,0,.16,0,.48.55,1.25.39,1.83.75a2.57,2.57,0,0,0,1,.24c.38,0,.8-.08,1.05.36a.38.38,0,0,0,.35,0,.78.78,0,0,1,1.13-.1.89.89,0,0,0,1.21-.15l.13-.11c.34-.24.43-.21.59.18s.19.44.5.16a.6.6,0,0,1,.84-.06,6.45,6.45,0,0,0,2,1.27,1,1,0,0,1,.61.95.72.72,0,0,0,.44.67,7.43,7.43,0,0,0,4.05,1.23c1.13,0,2.26,0,3.39,0s2.41.12,3.62.15a9,9,0,0,0,1.17-.12,2.19,2.19,0,0,1,.5,0c1.65.22,3.3-.12,5,0,1.32.08,2.64.12,4,.17a.57.57,0,0,1,.62.45c.13.49.28,1,.43,1.46a.47.47,0,0,1-.35.65,3.25,3.25,0,0,1-.9.14c-1.52,0-3,0-4.57,0Zm-2.3,18.83c-.07,0-.31.1-.35.22s-.11.61,0,.7c.42.3.51.77.76,1.14a1.59,1.59,0,0,1,.32,1,2,2,0,0,0,0,.5c0,.07.1.12.16.17s.12-.11.14-.17a9.14,9.14,0,0,1,.28-1c.23-.56.52-1.1.78-1.65a1.09,1.09,0,0,0,.1-.4c0-.3-.16-.48-.47-.41A3.58,3.58,0,0,1,281.84,167.07Z" fill="#d41308"/></svg>