<svg id="Layer_1" data-name="Layer 1" xmlns="http://www.w3.org/2000/svg" viewBox="0 0 300 300"><title>Cars</title><path d="M143.59,128.07c0-1.34,0-2.67,0-4a1.67,1.67,0,0,1,1.34-1.73,1.23,1.23,0,0,1,1.27.53,5.82,5.82,0,0,1,.34.51,2.06,2.06,0,0,0,1.51.93c.52.05,1,.31,1.54.42,1,.2,1.91.51,2.86.76a4.75,4.75,0,0,1,1.39.37.5.5,0,0,0,.21.09c1.25.08,2.36.74,3.62.84a10.69,10.69,0,0,1,1.84.51,2.61,2.61,0,0,1,1.07.37.94.94,0,0,0,.58.15,3.2,3.2,0,0,1,1.48.35,1.6,1.6,0,0,0,.51.18,8.06,8.06,0,0,1,2.2.58,3.73,3.73,0,0,0,.83.13c.15,0,.35,0,.45.06a4.35,4.35,0,0,0,2,.56,1,1,0,0,1,.15,0,32.67,32.67,0,0,0,4.21,1.1,3.16,3.16,0,0,1,.69.31,1.13,1.13,0,0,0,.86.18,1.56,1.56,0,0,1,.87.18,2.64,2.64,0,0,0,1.39.37h.08a11.17,11.17,0,0,0,1.58.55,7.75,7.75,0,0,1,1.63.36,3,3,0,0,0,2,.21,4,4,0,0,1,1.22-.05c.48,0,1,.09,1.44.15a3.73,3.73,0,0,1,.42.16l1.17.29a3.51,3.51,0,0,1,.74.15,3.25,3.25,0,0,0,1.66.5c.1,0,.21.13.32.19a3,3,0,0,0,.61.3,16.85,16.85,0,0,1,2.34,1c.59.25,1.08.78,1.78.79a.29.29,0,0,1,.14,0c.5.33,1,.67,1.51,1s.8.42,1.18.66a11,11,0,0,0,1.15.71,2.5,2.5,0,0,1,1.11,1c.64,1.12,1.29,2.23,2,3.29a12.73,12.73,0,0,1,.81,1.6,1.91,1.91,0,0,0,.16.26c0,.06.13.1.15.17.24.65.68,1.21.9,1.87a2.62,2.62,0,0,0,.22.47c.09.15.25.29.29.45.16.66.62.82,1.22.79l4.91-.16c.49,0,.64-.12.58-.6a7.25,7.25,0,0,1,.65-3,8.35,8.35,0,0,1,1.28-2.06,8.6,8.6,0,0,1,1.77-1.57.49.49,0,0,1,.64,0,.53.53,0,0,1,.25.59,8.67,8.67,0,0,0,0,2.59,21.86,21.86,0,0,1-.07,2.83c0,.05,0,.1,0,.15-.13,1,0,1.11,1,1.13a4.23,4.23,0,0,0,2.14-.45,2.4,2.4,0,0,1,2.29.12.6.6,0,0,0,.7,0,1.36,1.36,0,0,1,.66-.14c1.23,0,2.47,0,3.7,0a.94.94,0,0,1,1.07,1c0,.41,0,.82,0,1.23,0,.16.08.44.16.45a.75.75,0,0,0,.53-.15c.36-.29.65-.66,1-.93.66-.47,1.35-.9,2-1.31.27-.16.24-.37.24-.59,0-1.44,0-2.88,0-4.31,0-.31,0-.62,0-.92,0-.77.22-1,1-1s1.54,0,2.31,0a7.25,7.25,0,0,1,1.28.21,5.32,5.32,0,0,0,1.24.34c.88,0,1.5.57,2.28.78a6.29,6.29,0,0,1,1.79,1,7.55,7.55,0,0,1,.88.83l.84.77a.37.37,0,0,0,.2.11c.92,0,1.71.67,2.66.59a1.11,1.11,0,0,1,1.06.31.53.53,0,0,0,.34.16,7.1,7.1,0,0,1,2.06.72,13.62,13.62,0,0,1,1.65.89c.09,0,.15.14.25.18a10.85,10.85,0,0,1,3.34,2.34,22.83,22.83,0,0,1,2.44,2.55,11.59,11.59,0,0,1,1.58,2.24,4,4,0,0,0,1,1.66.66.66,0,0,0,.39.14c.43,0,.86-.08,1.29-.09.79,0,1.18-.22,1.37-.95.24-.93.81-1.71,1.08-2.6s.87-1.35.82-2.2a.43.43,0,0,1,.06-.22l.89-1.57c.11-.19,0-.3-.17-.31-.44,0-.87,0-1.31,0a.94.94,0,0,1-.77-.27,1.1,1.1,0,0,0-.38-.25,5.11,5.11,0,0,1-1.84-1.76c-.19-.23-.31-.52-.49-.77-.61-.82-1.24-1.62-1.85-2.43a4.56,4.56,0,0,1-.48-.79,8.8,8.8,0,0,1-.6-1.45,2.39,2.39,0,0,1,.7-2c.41-.58.9-1.11,1.35-1.67s.71-.93,1.07-1.38a4.58,4.58,0,0,1,1.61-1.26,5.67,5.67,0,0,1,2.37-.77c.74,0,1.48-.09,2.21-.15a.7.7,0,0,0,.3-.05,4.93,4.93,0,0,1,2.55-.42,3.63,3.63,0,0,0,1.19-.22,5.09,5.09,0,0,1,2.09-.38,6.6,6.6,0,0,0,1.81-.27c.81-.19,1.66-.23,2.49-.35.29,0,.58-.14.87-.2a6.83,6.83,0,0,1,1.34-.25,7.22,7.22,0,0,0,2.49-.37,5.11,5.11,0,0,1,2-.26,3.33,3.33,0,0,0,1.34-.26,6.56,6.56,0,0,1,1.87-.34,6.27,6.27,0,0,0,2.55-.41,1.53,1.53,0,0,1,.76-.05.58.58,0,0,1,.55.55,1.63,1.63,0,0,1,0,.69c-.37,1.06-.19,2.2-.46,3.27a.54.54,0,0,1-.12.28c-.41.33-.34.78-.33,1.21a5.49,5.49,0,0,1-.37,2.17,4.74,4.74,0,0,0-.24,2.2,5.16,5.16,0,0,1-.86,2.72c-.58,1.25-1.76,1.87-2.8,2.64a.48.48,0,0,1-.27.12c-.56,0-.88.38-1.25.67a10.26,10.26,0,0,1-2.6,1.71c-.47.62-1.35.43-1.87,1a.44.44,0,0,1-.29.06,1,1,0,0,0-.85.58c-.32.57-.54,1.18-.81,1.78l-.93,2.09-.88,2c-.07.16-.15.32-.23.47s-.17.31-.23.47a7.08,7.08,0,0,0-.35.91c-.2.74-.83,1.28-.89,2.07a6.55,6.55,0,0,0-.85,1.81c-.07.13-.2.26-.2.4,0,.63-.49,1.05-.74,1.58s-.69.4-1.09.4c-.82,0-1.64-.07-2.45-.07a.87.87,0,0,0-1,.94c0,.44,0,.87,0,1.31a1.33,1.33,0,0,1-1.42,1.28,1.39,1.39,0,0,1-.66-.31c-.46-.37-.89-.76-1.33-1.16a.49.49,0,0,0-.68-.06,5.2,5.2,0,0,1-.84.32l-.41.19c-.29.15-.57.33-.87.46a1,1,0,0,0-.71,1c0,.26,0,.51,0,.77a1,1,0,0,1-.11.51,3.7,3.7,0,0,0-.5,1.82c0,.08,0,.18,0,.23a7.94,7.94,0,0,0-.78,1.87,2.31,2.31,0,0,0-.3.76c0,.14-.13.27-.2.4l-.4.81c0,.09,0,.22-.12.27-.7.54-.76,1.54-1.5,2a7,7,0,0,1-1.77,2.19,17.77,17.77,0,0,1-2.47,2.17,35.49,35.49,0,0,1-3.26,2,5.22,5.22,0,0,1-1.4.57,2.85,2.85,0,0,0-.4.2c-.23.09-.46.17-.7.25l-1.22.4a2.17,2.17,0,0,1-.72.2,12.32,12.32,0,0,0-3.12.35,6.31,6.31,0,0,1-2.66-.05,9.88,9.88,0,0,0-2.58-.29c-.2,0-.47,0-.58-.12a1.72,1.72,0,0,0-1.05-.4,10.81,10.81,0,0,1-2.66-1.07c-.55-.29-1.16-.47-1.72-.77a6.71,6.71,0,0,1-1.17-.84c-.2-.17-.34-.23-.49,0a.69.69,0,0,1-.67.27c-.49,0-1,0-1.46,0s-.6.1-.63.65c0,.26,0,.51,0,.77a.88.88,0,0,1-.87.89c-.18,0-.36,0-.54,0H98.12c-.91.11-1.21-.43-1.36-1.21a3.74,3.74,0,0,1,0-.46c0-.47,0-.44-.49-.41a8.16,8.16,0,0,1-1.2-.1c-.35,0-.71-.12-1.06-.12H87.51c-.41,0-.81-.09-1.22-.11a4.18,4.18,0,0,0-.53,0,1.92,1.92,0,0,1-.75,0,1.64,1.64,0,0,0-1.39.22,7.42,7.42,0,0,0-1,.59c-.63.43-1.34.72-2,1.11s-1.45.35-2,.95a.28.28,0,0,1-.21.08,3,3,0,0,0-1.74.47,1.84,1.84,0,0,1-.74.16c-1.17.07-2.35.15-3.52.15s-2.3-.08-3.45-.16a2.34,2.34,0,0,1-.88-.26,2.47,2.47,0,0,0-1.4-.34c-.05,0-.12,0-.15,0a7.66,7.66,0,0,0-1.77-.82,2.51,2.51,0,0,0-.68-.32c-.6-.08-1-.54-1.45-.81-.19-.11-.37-.23-.56-.34a1.7,1.7,0,0,1-.39-.23,1.88,1.88,0,0,0-1.84-.5,4.5,4.5,0,0,1-1.29,0c-.83-.08-1.67-.07-2.51-.08a1.16,1.16,0,0,1-.92-.28.6.6,0,0,0-.48-.12,4.75,4.75,0,0,1-2.05,0,4.17,4.17,0,0,0-.84,0,30.84,30.84,0,0,1-4.05-.26,29.44,29.44,0,0,0-5.58-.39,24.36,24.36,0,0,1-3.12-.26l-.15,0c-1.07-.05-2.14-.14-3.22-.15-2.7,0-5.39,0-8.09,0a11.34,11.34,0,0,1-1.14-.12.85.85,0,0,0-.3,0,6.64,6.64,0,0,1-2,0c-1.89,0-3.8,0-5.68-.18-1.51-.14-3-.08-4.53-.12a1.71,1.71,0,0,1-1.68-.85.83.83,0,0,0-.69-.41,2,2,0,0,1-1.35-.94c-.34-.46-.25-.7.16-1.09a3.48,3.48,0,0,1,2.54-.85,2.66,2.66,0,0,0,1.75-.61,1.73,1.73,0,0,1,1-.34,8.34,8.34,0,0,0,1.17-.29,4.06,4.06,0,0,1,1.25-.29,2.46,2.46,0,0,0,1.72-.67,15.55,15.55,0,0,1,1.47-.92c.7-.39,1.42-.77,2.14-1.12.57-.27,1.16-.48,1.73-.76s.94-.51,1.4-.76,1-.55,1.54-.82a.8.8,0,0,1,.37-.06c.35,0,.67,0,.83-.4a.28.28,0,0,1,.17-.15,10.54,10.54,0,0,0,2.39-1.13,14.56,14.56,0,0,0,1.74-.94,4,4,0,0,1,.82-.35,14.53,14.53,0,0,0,1.62-.83c.2-.11.39-.24.6-.34.57-.26,1.17-.48,1.72-.78a1.64,1.64,0,0,1,.82-.35.76.76,0,0,0,.34-.16c.06,0,.1-.13.17-.15.65-.23,1.21-.69,1.87-.9a4,4,0,0,0,.42-.17l.68-.31c.27-.13.54-.27.82-.4s.58-.14.76-.31c.58-.54,1.41-.49,2-1a7.67,7.67,0,0,1,1.37-.59,12.82,12.82,0,0,0,1.9-1.1,12.08,12.08,0,0,1,1.62-.79,1.79,1.79,0,0,0,.45-.26,1.16,1.16,0,0,1,.73-.37c.18,0,.35-.19.53-.26a2.23,2.23,0,0,1,1-.29.75.75,0,0,0,.83-.29c.36-.41.69-.92,1.36-.87.57-.54,1.48-.41,2-1,.09-.12.27-.18.35-.3a11.07,11.07,0,0,1,2.64-2.43c.28-.22.55-.45.85-.66.56-.39,1.12-.76,1.69-1.12a1.15,1.15,0,0,1,.36-.11c.1,0,.24,0,.3,0,.47-.49,1.15-.52,1.7-.84l.06,0c.45-.31,1-.15,1.46-.37a2.74,2.74,0,0,1,1.41-.49,4,4,0,0,0,1.92-.32,1,1,0,0,1,.3,0c.71-.05,1.43-.1,2.14-.17a.88.88,0,0,0,.48-.19,8.14,8.14,0,0,1,.84-.48c.62-.46,1.45-.44,2-1a6.24,6.24,0,0,1,1.36-.67c.82-.45,1.61-1,2.43-1.39a4.91,4.91,0,0,0,2.07-2.18.7.7,0,0,1,.69-.4h.46q14.75,0,29.51,0a5.18,5.18,0,0,1,2.45.76,1,1,0,0,1,.61,1,2.42,2.42,0,0,0,.13.6.49.49,0,0,0,.54.43c.31,0,.62,0,.92,0l1.68-.14,2.51-.26.23,0c.84-.05,1.68-.17,2.52-.14a15.53,15.53,0,0,0,3.19-.35,5.89,5.89,0,0,1,1-.12,9.3,9.3,0,0,0,3.17-.49,1.54,1.54,0,0,1,.44-.12,4.28,4.28,0,0,0,3-1.76,12.28,12.28,0,0,0,1.65-2.9,16.22,16.22,0,0,0,.66-1.85c.1-.26.24-.5.36-.75s.15-.32.22-.48.19-.46.29-.69.25-.5.34-.76a2.26,2.26,0,0,1,1.84-1.3H143c.6,0,.61,0,.62-.6C143.59,130.89,143.59,129.48,143.59,128.07Zm19.19,4.84h8.16c.23,0,.46,0,.68,0l-.64-.26a1.38,1.38,0,0,1-.28-.12,2.35,2.35,0,0,0-1.39-.36,1.44,1.44,0,0,1-.74-.15c-1-.61-2.13-.44-3.11-.92,0,0-.1,0-.15,0a7.22,7.22,0,0,1-1.31-.38,2,2,0,0,0-.87-.24,2.93,2.93,0,0,1-1.45-.4,2.83,2.83,0,0,0-.88-.2,2.6,2.6,0,0,1-.88-.18,2.79,2.79,0,0,0-1.75-.44.73.73,0,0,1-.38,0,3.71,3.71,0,0,0-2.18-.61.1.1,0,0,1-.07,0c-.4-.47-1-.38-1.49-.43a2.1,2.1,0,0,1-.85-.32,1.71,1.71,0,0,0-1-.28,1.66,1.66,0,0,1-.54,0c-.89-.26-1.76-.6-2.69-.77-.47-.09-1-.27-1.46-.39-.64-.15-.83,0-.83.7,0,1.77,0,3.54,0,5.31a1.47,1.47,0,0,0,0,.38c0,.05.1.1.17.12a.15.15,0,0,0,.12-.07,1.45,1.45,0,0,0,.12-.43c0-.38,0-.77,0-1.15,0-.17.06-.41.17-.48a1.35,1.35,0,0,1,.77-.21c.29,0,.43.32.44.64a11.29,11.29,0,0,0,.08,1.14.5.5,0,0,0,.57.47c1.87,0,3.73,0,5.6.12C157.43,133,160.11,132.91,162.77,132.91Z" fill="#d41308"/></svg>