<svg id="Layer_1" data-name="Layer 1" xmlns="http://www.w3.org/2000/svg" viewBox="0 0 300 300"><title>Cars</title><path d="M21,184.28c12.39,0,24.78,0,37.17,0a9.29,9.29,0,0,1,6.79,2.26,4.53,4.53,0,0,1-.72.13h-.74l19.38-.08c1.34-.8,2.63-1.54,3.84-2.35a4.77,4.77,0,0,1,2.91-.9c1.28,0,2.56,0,3.83,0a3.63,3.63,0,0,1,1.8.45,9.42,9.42,0,0,0,5.48,1.37c15.1.07,30.21.09,45.31,0,2.21,0,4.42.15,6.63.07,27.55-1,55.11-.18,82.67-.47,2.32,0,4.64.09,7,0a11.63,11.63,0,0,1,5.67,1.14l20.27-.09a1.38,1.38,0,0,1-.14-.17,16.79,16.79,0,0,1,2-1.18,3.92,3.92,0,0,1,1.42-.14l14.58-.44c2-.06,2.45-.35,2.89-2.42.86-4,.32-8.12.31-12.18a2.35,2.35,0,0,0-2.08-2.3,16.19,16.19,0,0,1-2.22-.86c-1.33-.46-.83-1.56-.84-2.44s.7-.88,1.37-.95c2.32-.24,2.29-.26,2.45-2.53,0-.67.14-1.71.56-1.93,1.47-.78,1.34-2,1.33-3.3q0-13.19,0-26.38a19.88,19.88,0,0,1,.1-2.39c.24-1.93,0-2.32-1.88-2.33q-8,0-16.07,0a2.52,2.52,0,0,0-2.78,2.57c-.07.71,0,1.44,0,2.16-.14,5.42.25,10.85-.45,16.26-.2,1.54-.49,1.87-1.7,1.12a11.06,11.06,0,0,0-4.07-1.14,21.44,21.44,0,0,0-17.78,4.24,1.53,1.53,0,0,1-1.73.33c-1.69-.7-3.42-1.3-5.11-2-1.89-.78-3.74-1.66-5.64-2.42-2.05-.81-4.19-1.43-6.21-2.3-2.4-1-4.68-2.32-7.09-3.33-2.1-.88-4.32-1.44-6.43-2.29-4.38-1.75-8.73-3.6-13.09-5.41-3-1.24-5.94-2.58-9-3.69a55.14,55.14,0,0,0-7.27-2.14c-2.47-.54-5-.66-7.52-1.14a39.81,39.81,0,0,0-9-.84,6.53,6.53,0,0,1-2.15,0c-2.23-.72-4.4.21-6.61.08-1.26-.08-1.53.41-1.24,1.65.09.39.25.76.37,1.14a35.56,35.56,0,0,1,1.88,12.42c-.17,2.7-.33,5.4-.51,8.1a3,3,0,0,1-1.75,2.67,7.85,7.85,0,0,1-5.36.68,9,9,0,0,0-2.39-.22c-5.4-.19-10.8-.35-16.2-.59-2.07-.09-2.37-.56-2-2.72.17-1.08.23-2.15-.78-2.78a3.57,3.57,0,0,0-5.09,2.21c-.41,1.74-.85,2.23-2.42,1.82-3.22-.84-6.65-.75-9.75-2.15-.18-.08-.5.17-.75.26.51.19-.61.94.35,1a2.3,2.3,0,0,1,.63.23c-.18.08-.36.24-.54.24a18.21,18.21,0,0,1-5.1-.79,14.08,14.08,0,0,0-8.23-.11,38,38,0,0,0-5.24,2.22c-.49.26-.55,1.67-.92,1.72-.63.08-1.52-.91-2-.71-1.72.68-3.72.08-5.28,1.23a1.91,1.91,0,0,1-2.42.07c-.4-.26-.86-.43-1.26-.69a15.37,15.37,0,0,0-7.14-2.4c-7.24-.58-13.37,1.71-17.79,7.69-.93,1.26-1.54,2.77-2.36,4.12-.52.86-1,2-1.76,2.41a67.2,67.2,0,0,1-7,3c-3.56,1.35-7.18,2.53-10.72,3.92-4.17,1.64-8.27,3.43-12.4,5.16-2.17.91-4.34,1.8-6.47,2.78-1.64.75-3.22,1.62-4.81,2.46-.82.43-2.14.73-1.77,1.87.3,1,1.53.74,2.5.78,1.64.08,3.48.08,4.83.84A6.84,6.84,0,0,0,21,184.28Z" fill="#d41308"/></svg>