<svg id="Layer_1" data-name="Layer 1" xmlns="http://www.w3.org/2000/svg" viewBox="0 0 300 300"><title>Cars</title><path d="M161.07,105c3.12,0,6.25,0,9.37,0a11.09,11.09,0,0,0,2.26-.26c1.36-.3,2.38.56,3.54.95a2.93,2.93,0,0,1,2.16,3.24,4.26,4.26,0,0,0,.13,1c.24,1.33.7,2.62.22,4a4.22,4.22,0,0,0,0,1.63c.06.76.19,1.51.26,2.27a3.26,3.26,0,0,0,.43,1.87,2.92,2.92,0,0,1,.21,1.58,1.83,1.83,0,0,0,.61,1.45c1,.9,1.82,1.88,2.81,2.74a10.09,10.09,0,0,0,1.56.77c.56.33,1.49.39,1.21,1.46,0,.12.24.41.42.46,1,.31,1.39,1.37,2.48,1.71.9.28,1.51,1.42,2.3,2.12s1.62,1.3,2.43,1.94c1.27,1,2.55,2,3.8,3.08.53.45,1,1,1.49,1.48a4.19,4.19,0,0,0,.9.68,2.93,2.93,0,0,1,1.8,2,1.07,1.07,0,0,0,.62.69c1.91.53,3,2.17,4.51,3.26s3.2,2.38,4.8,3.57a.83.83,0,0,0,1.28-.16c.35-.42.77-.78,1.15-1.17a20.26,20.26,0,0,1,9.42-5.31,19.12,19.12,0,0,1,5.65-.76c5.41.2,10.48,1.53,14.59,5.35.83.78,1.65,1.57,2.45,2.38a.83.83,0,0,0,1.15.23c1.3-.81,2.6-1.61,3.89-2.44.39-.25.18-1-.42-1-.38,0-.52,0-.65-.35a6,6,0,0,0-.73-1.58,42.56,42.56,0,0,0-3.29-3.65,9.32,9.32,0,0,1-1.67-2.17,2.26,2.26,0,0,1-.25-2.47,1.43,1.43,0,0,0,.16-.79c-.16-2.44,2.81-4.47,5-4.44,3.23,0,6.47,0,9.7,0a19.17,19.17,0,0,0,1.95-.2,1.84,1.84,0,0,1,.48-.08c3.27.6,6.54,0,9.8-.12,4.21-.11,8.42-.18,12.62-.27,1.45,0,2.9-.25,4.35-.37a1.53,1.53,0,0,1,1.87,1.52c.05.76,0,1.53,0,2.3,0,.53,0,1.07.09,1.6a3.25,3.25,0,0,1-.9,3.08c-2,1.89-3.93,3.91-5.86,5.91-.49.51-1.48.53-1.47,1.59,0,.16-.91.37-1.42.47-.85.16-1.73.21-2.58.4a3.94,3.94,0,0,0-1.77.7c-1.81,1.67-3.52,3.44-5.28,5.16a1.15,1.15,0,0,0-.31,1.45,25.77,25.77,0,0,1,.73,4.5c.07.58-.3.89-.86,1-1.49.32-3,.67-4.48,1-1.76.36-3.55.61-5.29,1-1.25.31-1.85,1.46-2.5,2.47,0,.06.15.4.23.4a12.21,12.21,0,0,0,2.74-.24c.54-.15.68,0,.84.36a1.13,1.13,0,0,1,.12.47c-.11,1.52-.19,3-.37,4.56,0,.28-.44.55-.72.75s-.43.05-.64.06c-2.95.12-5.9.28-8.85.33a1.69,1.69,0,0,0-1.83,1.26,19.27,19.27,0,0,1-7.27,9.23,21,21,0,0,1-12.4,4,22.25,22.25,0,0,1-8.69-1.3,27.87,27.87,0,0,1-7.68-4.65,2.81,2.81,0,0,0-2.2-.72c-2.46.13-4.93,0-7.4.08-5.42.09-10.84,0-16.24.39-4.22.29-8.43,0-12.63.29-5.2.36-10.4.08-15.59.37-2.68.15-5.35.12-8,.25-1.79.09-3.57.35-5.36.51a5.12,5.12,0,0,1-1-.07,3.79,3.79,0,0,0-1.13-.11c-2,.46-4-.09-6,0s-4.06,0-6.08.05c-2.89.12-5.76.38-8.65.51-.86,0-1.73-.21-2.59-.2-6,.09-12,0-18.05.39-4.6.29-9.19.05-13.78.27a37.48,37.48,0,0,1-6.21.2c-.5-.06-1.16.57-1.61,1a16.51,16.51,0,0,1-8.29,4.34,19.6,19.6,0,0,1-8.46-.07,17.89,17.89,0,0,1-8.38-4.59,2.13,2.13,0,0,0-1.62-.63c-1,0-2,0-3,0-7.34,0-14.69,0-22,0a4.36,4.36,0,0,1-2.75-.82,20.82,20.82,0,0,0-1.84-1.08,5.43,5.43,0,0,0-3.26-.55c-3.19.17-6.45.63-9.56-.73-.89-.39-1.84-.75-1.78-1.85a2.35,2.35,0,0,1,1.86-2.25,46.45,46.45,0,0,1,5-1A85.63,85.63,0,0,0,30,170.37c1-.3,2-.76,3.09-1.1a.79.79,0,0,1,.71.13.8.8,0,0,1,0,.74,22.24,22.24,0,0,1-1.69,2c-.6.62-1.28,1.16-1.88,1.78-.17.17-.33.61-.25.7a1.19,1.19,0,0,0,.81.38,1.69,1.69,0,0,0,.87-.39c.57-.42,1.08-.93,1.66-1.33s.82-1.29,1.75-1.56c.77-.22,1.34-1.08,2.06-1.57s1.41-.81,2.12-1.21,1.52-.87,2.29-1.27,1.56-.81,2.37-1.13c2-.8,4-1.56,6-2.32.23-.09.52,0,.76-.1a1,1,0,0,0,.55-.35,12,12,0,0,0,.79-1.6,16.06,16.06,0,0,1,6.13-7.67,16.66,16.66,0,0,1,7.46-3c3.59-.39,7.21-.32,10.58,1.37.67.33,1.42.54,2-.32.16-.23.57-.3.87-.44.81-.36,1.71-.48,2.32-1.29.25-.33,1-.22,1.47-.44a7.27,7.27,0,0,0,1.93-1.15,11,11,0,0,1,2.68-1.48c1.54-.81,3-1.87,4.57-2.53,2.36-1,4.18-2.73,6.35-4a5.6,5.6,0,0,0,2.63-2.8c.32-.81.67-.92,1.22-.43,2.8,2.51,6.37,3,9.82,3.76a27.58,27.58,0,0,0,6.95.84,9.63,9.63,0,0,0,5.14-1.3c.3-.21.53-.37.85-.07a3.5,3.5,0,0,0,3.06.67c1.79-.18,3.59-.24,5.38-.41,1.46-.14,2.91-.36,4.37-.54.32,0,.65-.08,1-.1,2.18-.12,4.37-.1,6.53-.38,1.6-.2,3.24-.54,4.3-2.06a20.62,20.62,0,0,1,1.65-1.79c1.7-1.91,1.74-4.14,1.27-6.49a15.65,15.65,0,0,1-.11-1.63,32.36,32.36,0,0,0-.39-3.57,2.32,2.32,0,0,0-1-1.15,9.74,9.74,0,0,0-1.5-.65,2.37,2.37,0,0,1-1.58-2.63c.08-1.64.24-3.27.19-4.91-.09-2.78-.3-5.55-.48-8.33a2.14,2.14,0,0,1,1.66-2,13.74,13.74,0,0,1,2.27-.23C154.71,105,157.89,105,161.07,105Z" fill="#d41308"/></svg>