<svg id="Layer_1" data-name="Layer 1" xmlns="http://www.w3.org/2000/svg" viewBox="0 0 300 300"><title>Cars</title><path d="M10.23,161.81a15.18,15.18,0,0,0,2,6.39,4.79,4.79,0,0,0,.91,1.5,31.15,31.15,0,0,0,3.62,2.44,23.82,23.82,0,0,0,9.5,2.91,1.41,1.41,0,0,1,1.26.79A24.69,24.69,0,0,0,36.86,185c.49.28,1,.55,1.47.83l8.63.8H58.81l3.4-.8h0l1.12-.6A24.36,24.36,0,0,0,73,176.41a1.64,1.64,0,0,1,1.61-.87c3.05.09,6.11.19,9.17.21,7.82,0,15.64,0,23.46.08,15.82.08,31.64.2,47.46.27,7,0,14,0,21.05,0,2.78-.55,5.34.67,8,1,2.84.34,5.65.87,8.48,1.31.6.09,1.21.16,1.81.28a.66.66,0,0,1,.36.29,13.8,13.8,0,0,0,4.17,3.91c1.88,1.23,3.9,2.24,5.9,3.37l7.43.47H224.4l3.51-.47.6-.28a25.71,25.71,0,0,0,10-7.83,2.29,2.29,0,0,1,2-.87q6.7-.13,13.41-.32c2.11-.06,4.23-.16,6.34-.26.91,0,1.28-.36,1.34-1.28a29.05,29.05,0,0,0,0-3,1.42,1.42,0,0,0-.31-.91c-.6-.56-.13-.62.28-.73.13,0,.28,0,.42-.05A79.22,79.22,0,0,0,272.87,168a67.43,67.43,0,0,0,12-5.32,33.91,33.91,0,0,0,3.46-2.42c1.67-1.24,2.31-2.87,1-5.2a62,62,0,0,0-3.42-5.48c-1.57-2.28-3.12-4.59-4.89-6.7a70.45,70.45,0,0,0-8.45-8.86,84.06,84.06,0,0,0-8.41-6.36,44.27,44.27,0,0,0-9.2-4.56c-3.08-1.09-6.27-1.89-9.45-2.68a70.41,70.41,0,0,0-7-1.38c-2-.29-4.1-.26-6.13-.54-.87-.12-2.07.35-2.52-1,0,0-.08-.11-.09-.1-.44.24-.75,1-1.4.33a.8.8,0,0,0-.16.15.22.22,0,0,0,0,.14c0,.51-.24.42-.62.41-1.78-.06-3.57-.13-5.34,0-.72,0-1.25.05-1.68-.61-.15-.24-.56-.53-.76-.48a8.77,8.77,0,0,1-2.5,0c-3,0-5.94,0-8.9,0-1.45,0-1.63.2-2,1.58s-.42,2.86-1.75,3.8c-.28.2-.39.63-.56,1-.78,1.55-1.62,3.08-2.31,4.68-.61,1.42-1,2.92-1.55,4.38a11.25,11.25,0,0,1-.68,2c-1.53,2.64-3.1,5.26-4.7,7.87-.68,1.11-1.44,2.18-2.18,3.25a.75.75,0,0,1-.48.31c-1.87.11-3.75.28-5.63.27-2.91,0-5.83-.16-8.74-.24a23,23,0,0,1-6.25-.92,14.8,14.8,0,0,1-3.46-1.51,25.16,25.16,0,0,1-5-4.66c-.4-.44-.16-.43.24-.55,1-.32,1.25-.74.94-1.78-.07-.22-.2-.43-.28-.65-.56-1.65-1.13-3.29-1.65-4.95a18.71,18.71,0,0,1-1.22-5c-.05-1.4-.83-2.77-1.3-4.15a1.29,1.29,0,0,0-.14-.23,1.21,1.21,0,0,0-.13.21c-.06.16-.1.32-.16.49-.07-.17-.16-.34-.22-.51q-1.62-4.81-3.25-9.61a4.88,4.88,0,0,0-.49-1.16,2.71,2.71,0,0,0-.74-.55,4.55,4.55,0,0,0-.16.87,3.35,3.35,0,0,0,.18.77,2.88,2.88,0,0,1-.59-.94,4.22,4.22,0,0,0-.47-.61,5.12,5.12,0,0,0-.47.82c-.05.15,0,.37.1.55q.63,2,1.28,4c.24.76.5,1.51.75,2.27s.52,1.51.75,2.28.39,1.65.68,2.44-.44,1.36,0,2.06c.25.43,0,.69-.4.85-.1,0-.15.18-.23.27a2,2,0,0,0,.26.09c1.78.36,2.19.77,2.34,2.31.08.84,0,.88-.79.59a.36.36,0,0,0-.26,0c-.48.27-.69-.05-.88-.39a11.13,11.13,0,0,1-.58-1.13c-1.12-2.69-2.24-5.37-3.33-8.07-.37-.91-.4-1-1.3-.63s-2,.77-3,1.24c-.37.18-.46.26-.66-.2-.49-1.12-.94-1.24-1.93-.51a1.92,1.92,0,0,0-.76,1.11,1.11,1.11,0,0,1-1,1c-1.08.3-2.17.57-3.25.9-1.81.56-3.8.43-5.51,1.4-.1.06-.27,0-.41,0a12.65,12.65,0,0,0-4.3.26,57.28,57.28,0,0,1-6.83.68c-6.26.08-12.51-.2-18.77.21-4,.27-8.08,0-12.13.3-2.9.25-5.82.21-8.73.3-4,.11-8.09.2-12.13.33-1.31,0-2.62.12-3.93.26s-2.7.71-4.14.63a2.48,2.48,0,0,0-1.45.7c-.42.35-.3,0-.36-.17a3.71,3.71,0,0,0-.16-.35,1.54,1.54,0,0,0-.08.26c-.08.65-.12,1.31-.25,1.95A1.48,1.48,0,0,1,60,130.59a10.34,10.34,0,0,0-1.69,0c-1.06.13-2.12.34-3.18.49-2.68.4-5.38.71-8,1.21a6.2,6.2,0,0,0-3.27,1.14,2.41,2.41,0,0,1-1.59.33,9.18,9.18,0,0,0-3.66.52,6.73,6.73,0,0,1-2.15.69c-.78,0-1.63.19-1.68,1.29,0,.14-.22.31-.38.38a13.12,13.12,0,0,1-1.94.83,39.87,39.87,0,0,0-6.84,2.91,2.07,2.07,0,0,0-.86.66,3.14,3.14,0,0,1-2.89,1.62,2.07,2.07,0,0,0-1.55.51,2,2,0,0,1-1.24.58A4.11,4.11,0,0,0,16.47,145a.92.92,0,0,0-.35.4l-.67.77a2.84,2.84,0,0,0-.67.59,10.07,10.07,0,0,0-1.44,1.89A26.1,26.1,0,0,0,11.7,152a17.41,17.41,0,0,0-1.62,8.6C10.13,161,10.2,161.39,10.23,161.81Z" fill="#d41308"/></svg>