<svg id="Layer_1" data-name="Layer 1" xmlns="http://www.w3.org/2000/svg" viewBox="0 0 300 300"><title>Cars</title><path d="M164.42,175.09c-6.68,0-13.37-.05-20,0q-29.08.27-58.16.62c-1.81,0-3.62.11-5.43,0-1.1-.07-1.45.64-2,1.29a28.47,28.47,0,0,1-8.92,7.3,24.08,24.08,0,0,1-27.62-4.93,27.31,27.31,0,0,1-3.1-3.67,3.3,3.3,0,0,0-3-1.44c-6.22-.34-12.43-.77-18.65-1.11A2.44,2.44,0,0,1,15,171.09q-2.34-7.51-4.87-15a1.66,1.66,0,0,1,.89-2.38c1.17-.54,2.39-1,3.57-1.48,3.41-1.49,6.81-3,10.24-4.47.73-.3,1.66-.11,2.43-.36,2.14-.68,4.24-1.53,6.38-2.22,7.54-2.43,15.07-4.9,22.65-7.21,4.3-1.31,8.68-2.32,13-3.51a16.63,16.63,0,0,0,2.33-1c.39-.18.81-.54,1.17-.48,4,.67,7.75-1.1,11.62-1.65,7.41-1.05,14.77-2.46,22.14-3.76s14.75-2.61,22.1-4.05c1.26-.25,3.17-.24,2.85-2.58,0-.29.84-1,1.28-1a5.87,5.87,0,0,1,2.73.73c.53.32.71,1.2,1.05,1.83a14.61,14.61,0,0,1,.44-2.5c.13-.38.8-.91,1.08-.83,2.32.6,3.89-.68,5.5-2s1.94-1.3,2.86.82q1.15,2.66,2.34,5.31a5.59,5.59,0,0,0,.53.79,11.26,11.26,0,0,0,.82-.9,2.36,2.36,0,0,0,.08-2.41c-.66-1.82-1.24-3.66-1.79-5.52a3.45,3.45,0,0,1,.12-1.24c.39.26,1,.44,1.14.8.7,1.54,1.31,3.12,1.88,4.72.28.8.13,1.92.64,2.44,2.31,2.34,2.3,5.49,3.18,8.32.7,2.24,1.5,4.46,2.18,6.71a4.68,4.68,0,0,1,.21,2.11c-.2,1.11-.29,1,.49,1.08,6.84.5,13.6-.79,20.41-.92a79.65,79.65,0,0,0,12.84-.91c1.6-.29,2.27-.82,2.58-2.14.71-3,1.38-6.05,2-9.1.52-2.52.85-5.08,1.43-7.58a17.53,17.53,0,0,1,1.65-4.4,3,3,0,0,1,2.09-1c1.23-.12,3,.62,3.62,0,1.19-1.1,2.4-.31,3.52-.73a7.82,7.82,0,0,1,2.89-.07c1.07,0,2.13.17,2.32-1.34,0-.13.57-.33.8-.25s.41.44.48.71a1.75,1.75,0,0,1,0,1c-.56,1.61-.56,1.52,1.05,1.74,3.07.43,6.15.89,9.19,1.5a140,140,0,0,1,20.67,6c8.81,3.25,17.26,7.18,24.87,12.74a78.19,78.19,0,0,1,12,10.69,37.44,37.44,0,0,1,6.33,9.21c1.53,3.26,1.21,4.06-.75,6.38-2.66,3.13-6.35,4.39-10.08,5.4-4,1.09-8.15,1.87-12.26,2.59-3.69.64-7.43,1-11.15,1.49-5.21.63-10.42,1.59-15.64,1.69-3.42.07-5.24,1.61-7.42,3.86a25,25,0,0,1-18,8.12c-8.72.16-16-2.75-21.53-9.54a2,2,0,0,0-2.27-.66,20.08,20.08,0,0,1-3.83.37c-7.22,0-14.44,0-21.66,0Z" fill="#d41308"/></svg>