<svg id="Layer_1" data-name="Layer 1" xmlns="http://www.w3.org/2000/svg" viewBox="0 0 300 300"><title>Cars</title><path d="M223,181.33c.8,4.73-1.87,4.51-4.64,4.5-31.45-.05-62.9,0-94.35-.09-12.72,0-25.44-.32-38.16-.47-4.29-.05-4.93-.81-4.13-5.12.1-.55.27-1.08.64-2.51-1.2,1.1-1.84,1.65-2.45,2.24-7.94,7.78-18.94,8-27,.33a8.23,8.23,0,0,0-6.31-2.42c-10.74.1-21.47.11-32.21,0-1.47,0-2.91-1.13-4.37-1.74.71-1.43,1.05-3.4,2.21-4.21C19,167,25.76,162,33,158c10.65-5.84,21.77-10.8,32.62-16.29a29.89,29.89,0,0,0,6.5-4.56,3.1,3.1,0,0,1,3.78-.77c2.55,1.07,5.71.89,7.4,3.76.23.39,1.24.5,1.85.44,3.44-.35,6.88-.1,10.2-1.9,2.16-1.17,5.32-3.19,7.13,1.06.13.32,1.21.34,1.84.32,5.6-.18,11.2-.28,16.78-.64,6-.38,8.22-2.79,8.31-8.82,0-2,.35-3.64,2.88-3.6,1.73,0,2.3-1,2.28-2.56,0-2.18,0-4.37.09-6.55a2.43,2.43,0,0,1,1-1.83c.44-.19,1.26.43,1.88.76,2.25,1.18,4.44,2.5,6.75,3.56,6.13,2.81,12.26,5.63,18.49,8.2a14.65,14.65,0,0,0,6.33,1.12,34.91,34.91,0,0,1,26,8.71,32.83,32.83,0,0,0,4.42,3.12c2.43,1.47,3.31,1,4.45-1.62a28.4,28.4,0,0,1,2.93-4.35l1.17.46c.06,1.24.21,2.48.15,3.72-.08,1.79.6,2.65,2.46,2.61,2.56-.06,5.13-.1,7.69,0a49.66,49.66,0,0,1,4.93.71,27.94,27.94,0,0,0,.18-3.71c-.15-2.5,1-3.25,3.37-3.32,4.29-.12,8.06.81,11.29,3.78a6,6,0,0,0,3,1.33,21.69,21.69,0,0,1,12.39,5.9,2.55,2.55,0,0,0,3.74.37c2.66-1.83,5.36-3.59,8-5.39-1-1.33-2-2.52-2.78-3.83-3.35-5.46-.57-10.51,5.88-10.59,6.27-.08,12.54,0,18.81,0,2.94,0,3.21.51,2,3.17a47.88,47.88,0,0,0-2.28,5.22c-1.67,5.34-5.84,7.56-10.78,8.49-6.64,1.25-10.39,5.82-14,11.35,3.37,1.57,1.9,4.55,2,7.13,0,.38-.39,1.1-.67,1.13-3,.33-2.65,2.78-3.08,4.7-3.51,15.64-21.86,23-35.08,14C224.92,182.42,224.35,182.12,223,181.33Zm-64.13-51.18.14-.73-21-9.34-1,.65c.52,2.06.38,5.07,1.69,6,2.94,2,6.36,3.64,10.35,3.24,2.42-.24,4.91.23,7.37.33C157.31,130.3,158.11,130.19,158.89,130.15Z" fill="#d41308"/></svg>