<svg id="Layer_1" data-name="Layer 1" xmlns="http://www.w3.org/2000/svg" viewBox="0 0 300 300"><title>Cars</title><path d="M255.29,171.76c-3.77.35-7.53.71-11.3,1-1.29.11-2.58.09-3.88.08a2,2,0,0,0-1.84,1c-4.16,6-9.63,10-16.93,11.29-7.82,1.38-15.11.13-21.62-4.57a33.21,33.21,0,0,1-4.48-4.19,4,4,0,0,0-3.19-1.34c-9.81.05-19.62,0-29.43.05-1.67,0-3.34-.08-5,0-11.84.69-23.7.2-35.55.39-4.84.08-9.68-.06-14.53,0a5.09,5.09,0,0,0-3.58,1.09,3.53,3.53,0,0,1-2.53.79q-15.17,0-30.34,0a1.34,1.34,0,0,1-.45,0c-2.09-.81-3.31.41-4.56,1.81-3.77,4.24-8.84,6.21-14.17,7.14-5.64,1-11-.54-15.91-3.51a20.44,20.44,0,0,1-6.5-6,4.15,4.15,0,0,0-3.64-1.85c-3.09-.12-6.18-.54-9.26-.89a2.57,2.57,0,0,1-2.3-2.2c-.93-4.37-1.83-8.74-2.75-13.11-.43-2.07-.83-4.15-1.33-6.21s-.3-2.53,1.52-3.45A22.34,22.34,0,0,1,14.68,148c3.95-1.34,7.9-2.66,11.86-3.93,2.67-.85,5.38-1.59,8.06-2.42a6.59,6.59,0,0,0,1.39-.77,22.8,22.8,0,0,1,16.54-3.32c.94.18,1.41-.07,1.48-1.12a1.63,1.63,0,0,1,.75-1.24,18.35,18.35,0,0,1,3.68-.76c2.56-.25,5.14-.28,7.69-.58,4.28-.49,8.53-1.14,12.8-1.69,3.3-.43,6.6-.85,9.9-1.23,2-.23,4.07-.42,6.11-.52,4.09-.2,8.18-.33,12.27-.48,4.55-.17,9.1-.28,13.64-.51,4.84-.25,9.67-.59,14.51-.92a20.17,20.17,0,0,0,3.58-.5,2.39,2.39,0,0,0,1.22-1.17c.87-1.6,1.61-3.27,2.46-4.89s1.58-2.94,2.44-4.37c.19-.31.73-.69,1-.62.64.2.57.75.32,1.31q-1.87,4.15-3.7,8.31a4.36,4.36,0,0,0-.19.82,3.62,3.62,0,0,0,.84-.13A11.06,11.06,0,0,0,146,126c1.28-1,2.43-.18,3.62,0,.34.06.62.46.93.7-.09-.43-.18-.87-.28-1.3-.25-1-.56-2.05-.75-3.09a3.71,3.71,0,0,1,0-1.77,1.21,1.21,0,0,1,2.26-.34,5.16,5.16,0,0,1,.78,1.63c.67,2.41,1.33,4.82,1.92,7.25a1.37,1.37,0,0,0,1.38,1.23c2.19.15,4.38.36,6.57.47,3.63.19,7.29.13,10.9.53,5.77.64,11.54.37,17.3.29A28.1,28.1,0,0,0,199.5,130a2.44,2.44,0,0,0,1.81-2.32c.34-3.69.64-7.39,1-11.08.1-1.13.26-2.26.47-3.37a2.2,2.2,0,0,1,1.68-1.67c1.86-.65,3.75-.4,5.64-.29,1.58.1,3.17.25,4.75.35a1.4,1.4,0,0,0,1.62-1.21c.46-1.65.94-1.89,2.6-1.65,3.29.48,6.58,1,9.86,1.5,1.4.23,1.59.83.7,2-.14.17-.36.28-.52.44a4.88,4.88,0,0,0-.38.52,2.61,2.61,0,0,0,.56.25c2.53.47,5.08.82,7.58,1.4,3.84.9,7.66,1.87,11.44,3a77.26,77.26,0,0,1,17.6,7.93,84.83,84.83,0,0,1,12.88,8.94c4.31,3.74,8.31,7.76,10.25,13.42a13.56,13.56,0,0,1,1,4.79,6.64,6.64,0,0,1-1.24,4.45c-1.11,1.38-1.56,3.27-2.53,4.79-2.16,3.4-5.58,5.13-9.3,6.09-3.87,1-7.85,1.6-11.79,2.38-1.48.29-2.95.67-4.43.9-1.79.27-3.59.42-5.38.62Z" fill="#d41308"/></svg>