<svg id="Layer_1" data-name="Layer 1" xmlns="http://www.w3.org/2000/svg" viewBox="0 0 300 300"><title>Cars</title><path d="M166.15,136.85c5,0,9.43.3,13.79-.08,5-.44,10-.25,15-.29,1.42,0,2.31-.46,2.72-1.82.58-1.95,1.22-3.89,1.76-5.84,1.1-3.92,2-7.9,3.27-11.77a31.8,31.8,0,0,0,1.28-9.51,20.88,20.88,0,0,1,.71-4.38,2.51,2.51,0,0,1,2.76-2.16,13.86,13.86,0,0,1,8.49,2.27c.25.17.59.3.72.54,1,1.81,2.6,1.8,4.32,1.72,1.28-.06,2.57,0,3.86,0s2.78-.33,3.67,1.15c.06.1.27.11.4.17,2.19,1,4.36,2.05,6.58,3,5.24,2.16,10,5.25,14.8,8.13,4.06,2.42,7.73,5.49,11.58,8.26.79.57,1.68,1,2.45,1.61a37.77,37.77,0,0,1,6.31,5.35c.15.17.3.4.49.46,1.92.57,2.67,2.27,3.75,3.69a36.62,36.62,0,0,0,2.68,2.77,59.35,59.35,0,0,1,10.88,15.51,14.69,14.69,0,0,1,1.61,7.44,3.77,3.77,0,0,1-1.33,3,17.7,17.7,0,0,1-4.45,2.61,56.73,56.73,0,0,1-13.31,2.43c-3.37.27-6.71.87-10.08,1.25-2.09.24-4.2.31-6.3.52s-4.18.51-6.28.73-4,.41-6.08.57c-2.48.19-5,.29-7.45.51a3.19,3.19,0,0,0-1.58.7,11,11,0,0,0-1.75,1.78,25,25,0,0,1-17,9.31,34.33,34.33,0,0,1-10.52-.48c-2.26-.42-4.33-2-6.41-3.19a22.22,22.22,0,0,1-7.13-6.18,3.88,3.88,0,0,0-3.54-1.52q-26.91.07-53.82,0-17.37,0-34.74,0a17.84,17.84,0,0,0-4.2.62,18.24,18.24,0,0,1-5.84.14A88.52,88.52,0,0,0,76.83,175a4.53,4.53,0,0,0-3.54,1.57A28.13,28.13,0,0,1,66,182.66a24.76,24.76,0,0,1-11.8,3.41c-7.24.08-13.18-2.8-18.3-7.65a24.56,24.56,0,0,1-3.14-3.85,3.6,3.6,0,0,0-3.17-1.74,63,63,0,0,1-12.26-1.89l-1.76-.4A2.56,2.56,0,0,1,13.21,168q-1.36-9-2.73-18.05c-.15-1-.3-1.92-.43-2.88-.21-1.63.08-2.11,1.54-2.89a118.6,118.6,0,0,1,15.73-6.85c4.9-1.79,9.83-3.42,14.88-4.72.75-.19,1.62-.19,2.19-1a1.74,1.74,0,0,1,1.6-.42,4.38,4.38,0,0,0,2.65-.15c4.63-1,9.26-2.09,13.91-3,2.73-.53,5.53-.71,8.28-1.16,2-.32,4.07-.17,5.78-1.6a3.87,3.87,0,0,1,1.91-.59c3.58-.46,7.17-.88,10.75-1.31l.45,0c3.39-.17,6.78-.32,10.17-.53,2-.12,4.05-.34,6.08-.52,1-.1,2.09-.24,3.14-.32q5.85-.48,11.7-.93,6.42-.49,12.85-.95a7.57,7.57,0,0,1,1.13,0c1.19.09,1.7-1.62,3.26-1a8.26,8.26,0,0,0,3.74,0c1.19-.13,2.35-.64,3.53-.73a4.69,4.69,0,0,0,4-2.92c1.25-2.4,2.55-4.78,3.84-7.16a16.1,16.1,0,0,1,1.1-1.72c.3-.41.67-1,1.22-.52a1.47,1.47,0,0,1,.13,1.39c-1.32,2.28-1.74,5-3.61,7a4.19,4.19,0,0,0-.62,1.2,3.14,3.14,0,0,0-.14.62,2.24,2.24,0,0,0,.83,0c.9-.39,1.77-.87,2.67-1.26,1.32-.57,1.64-.39,2.08,1s.88,2.73,1.28,4.11c.19.68.48.8,1.14.52,1.48-.64,1.85-1,1.51-2.57-.72-3.23-1.53-6.43-2.36-9.64a2,2,0,0,1,1.13-2.58,1.26,1.26,0,0,1,1.16.29,7.27,7.27,0,0,1,1,2.22c.69,2.78,1.28,5.58,1.93,8.37a10,10,0,0,0,.67,1.9A11.07,11.07,0,0,1,165.6,124a4.69,4.69,0,0,0,.18,1.32c.64,2.72,1.27,5.43,1.94,8.14C168,134.78,168.26,136,166.15,136.85Zm-2.58-7.16c-.33-1.35-.64-2.78-1-4.18a1.26,1.26,0,0,0-.73-.78,19.1,19.1,0,0,0-2.35-.31L160,126a2.23,2.23,0,0,1,.15.4c.43,4.06,2.71,7.41,4.26,11,.22.52.42.48.59-.06.12-.38.52-.79.44-1.1-.41-1.66-1-3.28-1.37-5C163.91,130.79,162.69,130.62,163.58,129.69Z" fill="#d41308"/></svg>