<svg id="Layer_1" data-name="Layer 1" xmlns="http://www.w3.org/2000/svg" viewBox="0 0 300 300"><title>Cars</title><path d="M287.85,163.21a1.47,1.47,0,0,1,0-1.12c1.28-.37,1-1.4,1-2.28q0-14.28,0-28.56a3.63,3.63,0,0,0-.24-1.11v-.87H266v6.55c0,.37,0,.75,0,1.12,0,2.5,0,5,0,7.49,0,.81-.15,1.28-1.08.81a8.66,8.66,0,0,0-1.28-.51c-6.55-2.09-12.88-1.92-18.77,2a3.77,3.77,0,0,1-3.9.1c-4.85-2-9.69-4.05-14.53-6.09-3.46-1.45-6.9-2.93-10.37-4.36l-.35-.13-33.08-14c-.05,0,.08-.34.15-.51.42-1,.8-2,1.27-3,.7-1.43.21-2.69-1.3-2.77-2.67-.13-5.36-.15-8-.06-1.72.06-2.38.87-2.42,2.71,0,1.41-.07,2.64-1.42,3.64-.58.43-.71,1.65-.8,2.54a24.87,24.87,0,0,0,0,3.88,8.1,8.1,0,0,0,.46,2.39c.34.89,1.23.52,1.92.66a1.29,1.29,0,0,1,.75,1,1.19,1.19,0,0,1-.75.88,12.57,12.57,0,0,1-2.68.24c-1.57,0-3.13-.11-4.7-.18a1.54,1.54,0,0,0-1.81,1.31,36.26,36.26,0,0,0-1,4.85,2.42,2.42,0,0,1-1.8,2.45,53.33,53.33,0,0,1-5.52,1.67c-3.5.73-7,1.38-10.57,1.87-3,.41-6,.5-9.05.85-.84.1-1.15,0-1.27-.85-.36-2.74-.39-2.73-3.24-2.18-.18,0-.37,0-.55,0-1.66.33-2,.47-1.78,2.14.14,1.27-.46,1.19-1.2,1.13-2.5-.2-5.16.72-7.47-1-.25-.18-.72-.1-1.09-.08a4.52,4.52,0,0,1-3.32-1.12,2.5,2.5,0,0,0-3.66,0,9,9,0,0,1-5.8,1.74c-7,0-14,.14-21,.28-2.28,0-4.44,0-6.45-1.43-2.63-1.88-5.84-2.34-8.93-2.55a19.88,19.88,0,0,0-7,1,16.87,16.87,0,0,0-6.81,3.55,4.71,4.71,0,0,1-3.49,1.39,9.37,9.37,0,0,0-2.17.35c-3.5.77-7,1.66-10.49,2.32-9.1,1.71-17.69,5.06-26.36,8.14a11.66,11.66,0,0,0-2.67,1.44c-.85.59-.76,1.35.19,1.6,1.32.34,2.71.47,4.06.69l4.44.75c.14,1.63.29,3.27.41,4.9.08,1.09-.52,1.45-1.53,1.43a28,28,0,0,0-3.33,0,2.31,2.31,0,0,0-2.29,2.31,1.75,1.75,0,0,0,1.19,1.89,2,2,0,0,0-1.41,2.11c0,1.93.14,3.87.2,5.8,0,.95.56,1.29,1.42,1.29h30.5c.65,0,1.29,0,1.94,0a1.1,1.1,0,0,0,1.16-1.24q0-5.41,0-10.81a1.19,1.19,0,0,0-1.37-1.35H44.24c-4.25,0-8.5,0-12.76,0-1.12,0-1.77-.33-1.68-1.58a12.68,12.68,0,0,0,0-1.66c-.07-1.15.38-1.76,1.6-1.65l4.93.44c2.66.23,5.31.48,8,.67,2.41.18,2.92.45,3.41,2.7a18.79,18.79,0,0,0,3.72,7.93c1.72,2.13,3.42,4.36,6,5.54,0,0,4.08,3.16,11.63,3.33a2.28,2.28,0,0,0,.6,0,5.26,5.26,0,0,0,1-.11c7-.8,12.58-4,16.24-10.2,1.21-2.06,1.7-2.33,4-1.53.69.24,1.42.38,2.13.59A9.84,9.84,0,0,1,99.16,180c.45.89.32,1-.7.93-3.4-.13-6.8-.09-10.2-.1a4.75,4.75,0,0,0-1.37.16c-.21.06-.49.42-.46.6s.3.77.52.81a15.61,15.61,0,0,0,2.48.15l116.47,0h7.18c9,.15,18,.45,27.07.42a18,18,0,0,1,7.82,1.79,23.59,23.59,0,0,0,5.47,1.43h0l.11,0,.79.16a1,1,0,0,0,.24,0,15.52,15.52,0,0,0,5.46.06,1.73,1.73,0,0,0,.31-.13c.12,0,.24,0,.35-.07,3.84-1.11,7.6-2.5,10.37-5.52a4.56,4.56,0,0,1,3.88-1.51c4.34.06,8.69,0,13,0,1.8,0,1.89-.13,1.93-1.9,0-1.94,0-3.88,0-5.82C290.06,168.52,290.17,165.58,287.85,163.21Z" fill="#d41308"/></svg>