<svg id="Layer_1" data-name="Layer 1" xmlns="http://www.w3.org/2000/svg" viewBox="0 0 300 300"><title>Cars</title><path d="M284.38,127.92c5.49-.06,5-.08,4.78,6.74s.45,13.92.81,20.88c.16,3.14-.16,5.54-4.31,5.53-.9,0-2.43,2.07-2.58,3.32-.38,3.34-.1,6.74-.22,10.11,0,1.07-.42,3-.77,3-3.71.31-6.1,2.93-9.06,4.58-2.22,1.24-5.09,1.27-7.55,2.16-5.45,2-10.74,1.38-16.1-.39a18.19,18.19,0,0,0-5.73-1q-55.07.47-110.13,1.1c-13.78.15-27.56.47-41.34.61a14.45,14.45,0,0,1-3.77-1,22.75,22.75,0,0,0,3.32-2,14.15,14.15,0,0,0,3.52-3.79c.31-.58-1.16-3-1.46-2.89-1.85.41-4.42.77-5.26,2.09-6.57,10.39-19.65,11.83-29.16,7.13-5-2.49-7.34-3.73-8.57-9.46-1.46-6.8-5-9.46-11.59-9.53-3.05,0-6.08-1.13-9.15-1.32-1.08-.07-2.23,1.15-3.36,1.78,1.08.71,2.11,1.93,3.25,2,4.33.41,8.69.46,13,.65.42,0,1-.11,1.25.1,4.57,3.22,1.71,8,2.15,12,.1.92-2.41,3-3.78,3.05-8.83.33-17.68.33-26.53.24-1.83,0-5.09-.6-5.21-1.31-.39-2.47-.64-6.2.8-7.47,4-3.53,2.82-7.6,2.58-11.66A6.91,6.91,0,0,0,12.69,160,29,29,0,0,0,10,157.12c1.29-1,2.45-2.52,3.9-2.88,8.15-2,16.32-4.06,24.59-5.54s16.39-2.08,24.54-3.4c6.36-1,6.83-2.77,2.63-7.64-.23-.26-.46-.87-.34-1s.91-.55,1.08-.42c1.12.9,3.15,2,3,2.87-.71,5.8,3.49,5.76,7,5.74a207.5,207.5,0,0,0,22.32-1.11c4.3-.49,8.4-2.52,12.68-3.46,1.15-.25,2.62,1,4,1.51,3.27,1.27,6.54,2.56,9.87,3.67.22.07.87-1.45,1.46-2.11.9-1,1.8-2.4,2.94-2.69.69-.18,1.81,1.45,2.78,2.2s2.33,2.41,3.36,2.3c5.85-.63,11.67-1.57,17.45-2.66a4.33,4.33,0,0,0,2.93-2.33c.86-2.88,1.24-5.85,4.83-6.75.25-.06.26-1.09.38-1.67.62-2.86,1.35-5.71,1.82-8.6a6.94,6.94,0,0,0-.62-3.06c-.58-1.71-1.35-3.35-1.89-5.06a2.4,2.4,0,0,1,.34-1.67c2-.1,4.1-.51,5.84.13,1.17.43,2,2.29,2.58,3.69,1.4,3.63,2.83,5.93,7.63,6.82,8.9,1.64,17.64,4.65,26.12,7.91,12.06,4.64,23.79,10.15,35.79,15a9,9,0,0,0,6.61-.41c6.27-3.19,12.51-5.07,19.39-2.28,2.16.88,2.15,0,2-1.87-.16-1.72.66-3.52.85-5.3a9.51,9.51,0,0,0-.31-3.12c-.26-1.12-1.35-2.53-1-3.19a4.7,4.7,0,0,1,3.2-2.07C274.18,128.24,278.68,128.17,284.38,127.92Z" fill="#d41308"/></svg>