<svg id="Layer_1" data-name="Layer 1" xmlns="http://www.w3.org/2000/svg" viewBox="0 0 300 300"><title>Cars</title><path d="M164.06,186.11q-28.09,0-56.19,0a4.77,4.77,0,0,1-4.13-1.72,3.79,3.79,0,0,0-3.51-1.46c-1.85.1-3.72.08-5.57,0s-4-.25-6-.44a4.68,4.68,0,0,0-3.31,1,16.33,16.33,0,0,1-10.92,3,15.91,15.91,0,0,1-8.53-2.82A7.39,7.39,0,0,0,62,182.47c-4.37-.41-8.75-.14-13.1-.44-4.72-.33-9.43-.86-14.17-.85-.51,0-1-.23-1.53-.24-1.1,0-2.2,0-3.31,0-1.39,0-2.78,0-4.17,0-.36,0-.73-.16-1.09-.18-3-.17-5.91-.29-8.86-.48a29.55,29.55,0,0,1-3.51-.49c-.31-.06-.76-.37-.81-.63a3.23,3.23,0,0,0-1.2-1.73.88.88,0,0,1,.52-1.51c2.77-.18,5.23-1.59,8.15-1.6,3.15,0,6.35-.22,9.53-.32.65,0,1.3-.34,2-.34a4.46,4.46,0,0,1,1.38.47c-.17.44-.33.88-.53,1.31-.06.12-.23.18-.34.28s-.19.21-.29.32c.19.06.42.22.57.17,1.18-.41,2.38-.81,3.53-1.32,3.64-1.64,7.27-3.33,10.9-5l1.21-.58c1.36-.68,1.35-.67.51-1.92a.63.63,0,0,1,.12-.59,17.89,17.89,0,0,1,6.42-3.44c1-.33,2-.57,3-.81a4.45,4.45,0,0,0,2.84-2.23c2.43-3.82,5.56-6.94,10-8.41a13.71,13.71,0,0,1,2.81-.6,13.4,13.4,0,0,0,5.6-1.64c2.36-1.42,4.81-2.73,5.41-5.81a1.2,1.2,0,0,1,1.27-1l12.24.22c2.92,1.23,6,.81,9,.54,2.75-.25,5.47-.19,8.21-.31a3.71,3.71,0,0,1,3.1.9c.27.27.81.26,1.2.44s.82.34.84.55c.12,1.34,1.06,1.23,2,1.23,1.71,0,3.42.05,5.13,0a17.26,17.26,0,0,0,2.06-.52,11,11,0,0,1,2.82-.32,4.19,4.19,0,0,0,4.19-2.32,1.56,1.56,0,0,1,1.71-.89c2.74.12,5.5,0,8.25.05.58,0,1,0,.85-.86a33,33,0,0,1-.09-3.56,6.13,6.13,0,0,1,.73-2.91,9,9,0,0,0,.46-5.38,21,21,0,0,1-.29-3.3c0-1.35.39-1.75,1.43-1.81a1.85,1.85,0,0,1,2.1,1.8,17.35,17.35,0,0,1,0,2c0,.59.29.87.83,1.15,2.87,1.49,5.71,3.07,8.57,4.59,1.63.87,3.3,1.67,4.93,2.53,3.28,1.73,6.55,3.48,9.84,5.19a.93.93,0,0,0,.86-.09c1-1.14,2.39-.81,3.54-.54a23.61,23.61,0,0,1,4.51,1.71c2.63,1.24,4.93,3.09,7.42,4.52,3.4,2,6.28,4.66,9.81,6.38a1.24,1.24,0,0,0,1.52-.1c4.85-3.13,9.74-6.19,14.61-9.27a6.39,6.39,0,0,1,.58-.33c1.1-.54,1.5-.46,1.88.64a11.26,11.26,0,0,1,.63,3c.1,1.78,0,3.57.05,5.35,0,.39.26,1.1.43,1.11a3,3,0,0,0,1.6-.37,2.7,2.7,0,0,0,.78-1.06,18,18,0,0,1,8.63-7.36c3.71-1.69,7.65-2.8,11.85-1.78,1.43.35,2.91.51,4.32.92a17.9,17.9,0,0,1,9,6.08c1.86,2.25,3.67,4.46,4.44,7.34.07.24.36.42.55.63.21-.19.49-.33.61-.56,1.66-3.38,3.29-6.77,4.93-10.16.3-.62.54-1.16,0-1.84a5.05,5.05,0,0,1-.46-1.45c-.77-2.29-1.52-4.59-2.35-6.86a5,5,0,0,1,.31-3.81,2.91,2.91,0,0,1,2.83-1.39c6.69,0,13.38,0,20.07,0,1.71,0,1.92.33,2.08,2.1a6.73,6.73,0,0,1-.44,3.37,55.58,55.58,0,0,0-2,6.57,3,3,0,0,1-2,2c-2.39,1.13-4.69.14-7,.11-1.17,0-1.51.15-1.74,1.27-1,4.63-2,9.23-3,13.86a3.09,3.09,0,0,1-2.3,2.64c-2.12.67-4.16,1.58-6.25,2.33a14,14,0,0,1-1.92.41l-.53.13a1.69,1.69,0,0,0,.23.35,5.68,5.68,0,0,1,.67.57c.75,1,.84,1.57-.14,2.27-2.19,1.55-3,4-4.33,6.1a22,22,0,0,1-7,6.76,21.18,21.18,0,0,1-14.53,3,18,18,0,0,1-9.62-4.32c-1.2-1-2.36-1.73-4-1a4.52,4.52,0,0,1-1.77.08c-1.49,0-1.49,0-1.37-1.59,0-.22.08-.55,0-.63a2.14,2.14,0,0,0-.94-.37c-.08,0-.35.44-.31.61A15.83,15.83,0,0,0,222,184.5c.8,1.11.54,1.57-.84,1.6-2.15,0-4.31,0-6.47,0H164.06Z" fill="#d41308"/></svg>