<svg id="Layer_1" data-name="Layer 1" xmlns="http://www.w3.org/2000/svg" viewBox="0 0 300 300"><title>Cars</title><path d="M181.84,135.66a8.62,8.62,0,0,1,1.39-.31c1.38,0,1.89-.22,2.29-2s-.26-4.09,2-5.12c-.1-.13-.18-.31-.32-.39-1.08-.58-.36-1.06.19-1.13a2.29,2.29,0,0,1,1.53.62c.18.15-.06.77-.05,1.18.09,2.9.35,3.17,3.3,2.91,1.53-.14,3-.52,4.56-.75a23.78,23.78,0,0,1,3.38-.4c7,0,14-.21,20.93,0a91.5,91.5,0,0,1,20.52,3.33c1.1.29,2.22.56,3.3.93a7.85,7.85,0,0,0,4.55.29,18.36,18.36,0,0,1,8.64.58c5.57,1.44,10.51,4.12,14.09,8.69a27.86,27.86,0,0,1,4.74,9.38c.36,1.25.4,2.73,2,3.3.21.08.49.61.41.77-1.16,2.34,1.26,4.21.81,6.45-.33,1.67,1.88,2.84,1,4.65a4.92,4.92,0,0,0,1.44.32c1.75-.15,3.49-.5,5.24-.59,1.92-.1,2.24.41,2.27,3,0,1.74-.26,2-2.26,2.12-3.92.21-7.85.45-11.77.61a2.83,2.83,0,0,0-2.63,1.26,24.64,24.64,0,0,1-13.21,9.92,23.91,23.91,0,0,1-11,1.12A26.35,26.35,0,0,1,232.85,178a4.09,4.09,0,0,0-3.3-1.36c-12.81,0-25.63-.24-38.43.11a78.53,78.53,0,0,1-11.1-.24c-5.62-.65-11.22-.4-16.82-.42-20.72-.07-41.43,0-62.15-.07-2.06,0-3.72.13-5,2.19a13.77,13.77,0,0,1-4.42,4.35c-5.38,3.19-11.2,4.81-17.56,3.87-7.21-1.07-12.67-4.91-16.93-10.63a3.24,3.24,0,0,0-2.39-1.7c-5.56-.58-11.17-.61-16.69-1.73-5.27-1.06-10.64-1.63-15.93-2.62a40.59,40.59,0,0,1-5.9-2,4.46,4.46,0,0,1-2.6-3.32,26.17,26.17,0,0,0-3.08-6.41c-.82-1.32-.7-1.82.71-2.39A64.92,64.92,0,0,1,18.54,153a197.72,197.72,0,0,1,20.57-4.85c3-.48,6-1.15,9,.09a5.72,5.72,0,0,0,3.06-.14c2.23-.47,4.46-1,6.63-1.68a6.79,6.79,0,0,0,2.23-1.58c5.16-4.63,11.11-7.3,18.12-7a18.94,18.94,0,0,1,7.57,1.53,6.91,6.91,0,0,0,6.26,0,34.25,34.25,0,0,1,7.77-2.15c1.67-.3,3.11-2,5-.9,2-1.92,4.68-1.65,7-2.4s4.8-1.32,7.2-2a2.81,2.81,0,0,0,.84-.4c.73-.51,1.4-1.36,2.16-1.46.44-.05,1,1.1,1.54,1.73,1.46,1.88,3.92,1.71,5.78,2.79a7.52,7.52,0,0,0,.53-.7c.29-.37.65-1.07.87-1a2.16,2.16,0,0,1,1.46.87c1.19,2.64,2.25,5.34,3.37,8,.18.42.36,1.06.67,1.15a12.4,12.4,0,0,0,2.42.26c0-.25.07-.58-.06-.74-.85-1-.3-1.8.28-2.78,1.22-2.08,3.38-3,5.11-4.44a2.39,2.39,0,0,1,2,0,4.52,4.52,0,0,1,2.71,3.58c.15.71.22,1.43.36,2.14a2.07,2.07,0,0,0,2.37,1.89c7.08-.09,14.17.05,21.25-.17a32.2,32.2,0,0,0,7.6-1.49c2.11-.6,3.14-2.6,4.37-4.24,0-.05-.33-.54-.59-.65A21.39,21.39,0,0,0,181.84,135.66Z" fill="#d41308"/></svg>