<svg id="Layer_1" data-name="Layer 1" xmlns="http://www.w3.org/2000/svg" viewBox="0 0 300 300"><title>Cars</title><path d="M290,132.71q0,5.78,0,11.56c0,1.54-.45,2-1.82,2.64-2.1,1-4.33,1.71-6.47,2.62-.65.28-1.34.6-2,.94a1.27,1.27,0,0,0-.83,1.23c0,2.1,0,4.19,0,6.29,0,.24.21.66.33.67.4,0,.89-.23.76-.66-.39-1.28.38-1.34,1.27-1.38a.55.55,0,0,0,.38-.16,2.55,2.55,0,0,1,2.49-.88c.4,0,.78,0,.93-.51,0-.09.2-.13.3-.2a3.24,3.24,0,0,0,0,.4c0,.14,0,.37.09.39a3.54,3.54,0,0,0,.69,0,3.41,3.41,0,0,0-.42.73,4.08,4.08,0,0,0-.11,1c0,.63,0,1.27,0,1.9s-.29.95-.89.94a7.48,7.48,0,0,1-3-.29,1.81,1.81,0,0,0-2.44,1.81,1,1,0,0,0,.6.69c1.5.44,2.7,1.45,4.09,2.1,1,.47,1,1.2.31,2.11a2.92,2.92,0,0,0-.55,1c-.28,1-.49,2.06-.74,3.09a2.6,2.6,0,0,1-.19.54,23.63,23.63,0,0,0-1.09,2.23c-.28.78-.37,1.62-.62,2.42-.16.5-.48.94-.68,1.43-.35.88-.66,1.79-1,2.67-.17.45-.42.59-1,.53a26,26,0,0,0-2.74.16c-3.71,0-7.41.05-11.12,0a4.48,4.48,0,0,0-2.74.76,13.8,13.8,0,0,1-5.25,1.88,30.09,30.09,0,0,1-6.84.28,13.94,13.94,0,0,1-4.86-1.1,8.56,8.56,0,0,0-3.23-.65c-7,0-13.95,0-20.92,0-.66,0-1.37-.21-1.94.37-.07.08-.27,0-.41,0-5.21,0-10.44-.33-15.63-.08-8.48.41-17-.06-25.42.29-6.33.26-12.67,0-19,.3-7.84.4-15.69.06-23.52.25-2.28.06-4.55.26-6.83.36-.72,0-1.45-.09-2.17-.09q-5.27,0-10.53,0a2.54,2.54,0,0,0-1.52.33,3,3,0,0,1-1.54.22c-8.33,0-16.66,0-25,.05-1.48,0-3,.31-4.44.35a6.43,6.43,0,0,0-2.66.72c-.82.38-1.75.52-2.6.86a9.45,9.45,0,0,1-4.4.69c-.82-.07-1.66,0-2.48,0-1.71-.17-3.47,0-5.07-1a17.11,17.11,0,0,0-2.82-1.15,3.25,3.25,0,0,0-1.14-.18c-2.82,0-5.64.12-8.46.16-.77,0-1.55-.19-2.32-.15-7.74.37-15.49.25-23.23.29a5.17,5.17,0,0,0-1.23.29c-.14,0-.27.16-.39.14-2.1-.32-4.22-.1-6.32-.23-.39,0-.75-.71-1.1-1.11-.18-.21,0-.49-.46-.73a3.36,3.36,0,0,0-1.85-.75c-1.56,0-3.12,0-4.68,0-1.07,0-1.46-.44-1.5-1.52-.06-2-.05-2,1.84-2.8.78-.34,1.71-.46,2.22-1.3.08-.13.34-.19.52-.2a6,6,0,0,0,3.63-1.6,4.65,4.65,0,0,1,1.44-.61,3.81,3.81,0,0,0,1.89-1c.18-.22.61-.24.91-.37l6-2.57c.71-.3,1.43-.6,2.12-.94,1-.51,2-1.13,3.08-1.58,2.11-.89,4.28-1.67,6.39-2.56,1.11-.47,2.14-1.14,3.25-1.59,2.14-.87,4-2.31,6.3-2.89a3.8,3.8,0,0,0,2.8-2.7c.34-1.08,1.22-2,1.51-3.08.5-1.9,2.39-2.77,3-4.52,1-.7,2-1.42,3-2.1.47-.32,1.09-.44,1.26-1.12,0-.12.27-.2.43-.26l4.78-1.85A2.32,2.32,0,0,1,67,145c2.5-.3,5-.85,7.51-.27a7.66,7.66,0,0,0,1.6.09c1.61,0,2.93.92,4.39,1.42a2.34,2.34,0,0,0,1.11.24c.57-.12.68,0,.85.56s1.17.82,2,.5c1-.39,2.09-.7,3.14-1s1.87-.43,2.77-.74c.5-.17.92-.63,1.5-.18a.45.45,0,0,0,.41-.07c1.13-1,2.61-.68,3.89-1.08.76-.24,1.67-.1,2.23-.88,0-.07.39,0,.58.1a1.8,1.8,0,0,0,2.32-1.1c.3-.95.47-1.08,1.28-.79a15.42,15.42,0,0,1,2,.88c.7.37.72.41,1.11-.36a.76.76,0,0,1,.81-.46.81.81,0,0,1,.88.61c.07.28,0,.59.1.87a.84.84,0,0,0,.41.51c1.15.37,2.33.66,3.48,1a3.2,3.2,0,0,0,2,0,2.85,2.85,0,0,1,1.29-.1,1.43,1.43,0,0,1,.91.56,2.13,2.13,0,0,0,2.33,1.09,4.23,4.23,0,0,1,2.52.23c.71.33,1,.09,1-.66a29.11,29.11,0,0,0-.11-3.2c-.09-1-.26-1.89.68-2.61.45-.35.58-.52,1.21-.44h.15c.57.07,1.39-.06,1.64.25a3.19,3.19,0,0,1,.23,1.81,10.38,10.38,0,0,1-.23,1.72c0,.18-.15.47-.27.48-1.16.16-.95,1-1,1.78,0,1.87,0,1.84,1.86,1.88,3,.07,5.93.25,8.89.26a62.74,62.74,0,0,0,6.69-.31,32.79,32.79,0,0,0,4-1,9.17,9.17,0,0,1,1.22-.17c.34,0,.69,0,1-.05,1.33-.25,2.66-.55,4-.79.48-.09.93-.09,1.27-.56.14-.19.61-.17.93-.18a2.94,2.94,0,0,0,2.53-1.46,1.11,1.11,0,0,0,.23-.51q0-2.39-.12-4.78c0-.81.18-1.71-.34-2.39a4.78,4.78,0,0,1-.62-3.2q0-5,0-9.95c0-1.29.23-1.56,1.52-1.56,1.46,0,2.91.11,4.37.13.57,0,1.15-.13,1.72-.14,2.58,0,5.17-.07,7.75,0a29,29,0,0,1,4.43.55c.21,0,.76-.19.93.43.06.23.75.4,1.16.41a28,28,0,0,1,5.89,1.15c1.43.36,2.76,1.13,4.2,1.45,1.84.42,3.46,1.35,5.25,1.88.6.18,1.21.32,1.8.53a69.89,69.89,0,0,0,7.1,2.57c1.63,1.56,4.1,1.35,5.8,2.75a.88.88,0,0,0,.54.21c1.4-.06,2.53.78,3.71,1.28a26.88,26.88,0,0,1,4.6,1.94,27.1,27.1,0,0,0,4.17,1.9.63.63,0,0,0,.4.05c.57-.18.54-.17.78.18a1.65,1.65,0,0,0,.68.65c.35.12.77,0,1.13.08s.56.48.77.43c.59-.14.41.48.75.62,1.43.59,2.8,1.31,4.23,1.92,1.6.68,3.24,1.24,4.83,1.93.92.4,1.76,1,2.64,1.46a1.77,1.77,0,0,0,2.24-.16,22.5,22.5,0,0,1,3.95-2.64,20.34,20.34,0,0,1,3.77-1.18c.5-.14,1.06-.11,1.56-.26a17,17,0,0,1,10.3.45c.64.2,1.31.3,1.95.49a16.86,16.86,0,0,1,4.5,2.55,7.57,7.57,0,0,1,2,1.4c0,.05.51-.09.54-.21a3.57,3.57,0,0,0,.08-1c0-3.8.06-7.61,0-11.41,0-1.3,0-2.59,0-3.88,0-2.54-.29-5.08-.36-7.63,0-.42.36-.87.61-1.27a2.42,2.42,0,0,1,2.67-1.17,8.87,8.87,0,0,0,1.31.06c4.39,0,8.78,0,13.17,0,.69,0,1.47.28,2.09-.35,0,0,.38.31.6.33.58.06,1.17,0,1.75,0a.65.65,0,0,1,.72.72c0,.34,0,.68,0,1q0,5.69,0,11.38Z" fill="#d41308"/></svg>