<svg id="Layer_1" data-name="Layer 1" xmlns="http://www.w3.org/2000/svg" viewBox="0 0 300 300"><title>Cars</title><path d="M290,153.58a4.51,4.51,0,0,0-.85-2.89,6.75,6.75,0,0,1-1.39-4.76,32.08,32.08,0,0,0,0-4c0-1-.42-1.34-1.37-1.22a34.79,34.79,0,0,1-6.45,0c-.89-.06-1.38-.27-1.34-1.25,0-.2-.21-.4-.32-.61h0a3.49,3.49,0,0,0,.28-.67c.36-1.95.12-2.24-1.84-2.25-4.75,0-9.5,0-14.25,0a2.9,2.9,0,0,0-3.18,3.17c0,1.89,0,3.78,0,5.66,0,1.73,0,1.8-1.69,1.73a16,16,0,0,0-6.09.9c-2.87,1-5.7,2-8.81,1.79a3.19,3.19,0,0,1-1.52-.27,26.74,26.74,0,0,0-6.32-3.14c-2.71-1-5.35-2.22-8-3.31-4.6-1.87-9.25-3.63-13.82-5.6-3-1.3-5.87-2.9-8.83-4.31-1.46-.69-3.21-1-4.42-2a6.46,6.46,0,0,0-3.84-1.24c-2.72-.23-5.45-.28-8.18-.4-1.34-.06-1.74-.56-1.42-1.86.21-.89.5-1.77,1.55-2.07a2.8,2.8,0,0,0,.8-.43c.13-.09.27-.29.25-.41a.53.53,0,0,0-.37-.3c-2-.38-3.92-.83-5.89-1.1a12.62,12.62,0,0,0-5.58.54,1.81,1.81,0,0,0-1,.91c-.22.54.37.63.75.8.59.26.63.65.26,1.16a6.81,6.81,0,0,0-1.12,4.33c.05,1.95,0,3.9,0,5.85,0,1,.11,1.71,1.23,2.11.74.27.61,1.2.55,1.9s-.64.63-1.13.6c-.72,0-1.45-.2-2.17-.19-1.25,0-2.5.11-3.75.23-.65.06-.83.44-.76,1.16.15,1.38.12,2.79.16,4.18a1.05,1.05,0,0,1-1.06,1.21c-2.23.23-4.45.66-6.68.68a8.32,8.32,0,0,0-6.21,2.48,5.84,5.84,0,0,1-4.87,2,27.68,27.68,0,0,0-3.1,0,2.38,2.38,0,0,1-1.66-.55c-1.71-1.39-3.5-2.68-5.24-4-.24-.19-.32-.58-.47-.87a2.81,2.81,0,0,1,.8-.34c.71-.06,1.4-.15,1.47-1a10,10,0,0,0-.05-2.18,1,1,0,0,0-.71-.59c-1.69,0-3.39.07-5.08.09a3.2,3.2,0,0,0-2.4,1.14,2,2,0,0,0,.57,3.21,7.61,7.61,0,0,1,1.1.61c1.62,1.27,3.22,2.57,4.82,3.87a2.48,2.48,0,0,1,.38.54,2.07,2.07,0,0,1-.52.14c-3,0-6.09,0-9.13,0-1.43,0-1.43-.12-1.87-1.61a6.34,6.34,0,0,0-.35-1c-.6-1.2-2-1.39-2.55-.2-.48,1-.78.71-1.4.32s-1.23-.66-1.46.46c-.18.88-.95.69-1.48.5a12,12,0,0,1-1.55-.94,2.68,2.68,0,0,0-1.3-.51,6.85,6.85,0,0,0-3.61,1.1,2.6,2.6,0,0,1-1.31.44c-.91.07-1.83,0-2.74,0-.71,0-1.11-.11-1-1a19.92,19.92,0,0,0-.12-3.27c0-.17-.21-.33-.33-.49-.11.14-.3.27-.31.41-.06.73-.08,1.46-.09,2.19,0,2.35.16,2.21-2.16,2.19-5-.06-10.1-.16-15.14-.17-4,0-7.9.1-11.85.19-1.51,0-3,.16-4.54.19a1.68,1.68,0,0,1-1-.34,22.73,22.73,0,0,0-7-3.06,9.86,9.86,0,0,1-2.38-.68c-.78-.51-.49-1.55-.57-2.39-.05-.54-.24-.85-.94-.78-.95.1-1.92,0-2.88,0-.12,0-.25.11-.37.17.14.09.28.24.43.25.67,0,1.34,0,2,.05.28,0,.78.13.8.26a7.27,7.27,0,0,1,.12,2.13c-.09.64-.75.46-1.21.49a22.39,22.39,0,0,0-8.21,2.17,26.16,26.16,0,0,0-5.59,4,3.65,3.65,0,0,1-2.42,1.1,3.16,3.16,0,0,0-.9.13q-4.35,1.31-8.7,2.64c-1.67.52-3.34,1-5,1.6-3,1-6.08,2.05-9.06,3.24a58.48,58.48,0,0,0-5.34,2.68,5.4,5.4,0,0,1-3.29.72,3.37,3.37,0,0,0-3.76,2.7,4.8,4.8,0,0,1-1.19,2.18c-.65.72-.59,1.24.26,1.76a1.61,1.61,0,0,1,.79,1.68c0,.55,0,1.1,0,1.64,0,1.78.35,2.28,2.15,2.79.62.18.85.49.74,1a15.29,15.29,0,0,1-.6,2.07c-.5,1.45-.11,2.26,1.36,2.81a5.62,5.62,0,0,0,3.23.15,20.86,20.86,0,0,0,9-4.6,5.52,5.52,0,0,1,3.94-1.48c3.41.12,6.82,0,10.23,0,1.68,0,3.4.25,5-.72.45-.28.84-.23,1.19.34a19,19,0,0,0,6.72,6.52,42.36,42.36,0,0,0,3.87,1.87H70.8L72,186.2a19,19,0,0,0,9.74-8.4c.26-.48.61-.91.84-1.4s.5-.62.85-.43a1.11,1.11,0,0,1,.39.83c0,1.7,0,3.41,0,5.11,0,1.25.26,1.47,1.53,1.5,1.46,0,2.92,0,4.38,0a3,3,0,0,1,1.06.15.72.72,0,0,1,.28.6.62.62,0,0,1-.39.46c-1.21.09-2.43.11-3.63.21-.55,0-1.52-.31-1.54.43,0,.9,1,.66,1.59.67q20,0,40,0,56.17,0,112.33,0c2.48,0,5-.21,7.45-.32a3.65,3.65,0,0,1,1.27.05c.88.29,1.73.65,2.59,1h12.76a4.82,4.82,0,0,0,.93-.34,9,9,0,0,1,4.44-.74c2.62,0,5.24,0,7.86,0s5.36,0,8,0c1.48,0,1.5,0,1.51-1.57,0-2.13,0-4.26,0-6.39a5,5,0,0,0-.47-1.89c-.93-2-1.93-4.05-2.9-6.08-.53-1.11-.52-1.09.63-1.25.4-.05,1-.11,1.14-.36.41-.93,1.17-.72,1.87-.74.55,0,1.1,0,1.64,0,1.73,0,1.75,0,1.76-1.7C290,161.61,289.95,157.59,290,153.58Zm-26.92-17.32H270c2.24,0,4.49,0,6.73,0a2.11,2.11,0,0,1,1.18.31c.19.14.14.63.17,1,.05.56-.36.53-.72.53-1.64,0-3.27,0-4.91,0-.43,0-.58-.13-.08-.39.13-.07.19-.24.29-.37a1,1,0,0,0-.31-.1c-.36,0-.71.08-1.07.11a49.18,49.18,0,0,1-7.17,0,3,3,0,0,1-1.14-.46c-.17-.09-.27-.32-.4-.48A2.87,2.87,0,0,1,263.08,136.26ZM276.27,141H261.84a12.35,12.35,0,0,1-1.28,0,.92.92,0,0,1-.88-1.14c0-.1.28-.18.43-.26.52,1,1.44.69,2.26.74a44.22,44.22,0,0,0,5.43.31,32.21,32.21,0,0,0,6.44-.67c.1,0,.24-.08.31,0,1.64,1,2.77.28,3.72-1.07,0,.06,0,.12,0,.18C278.13,141,278.13,141,276.27,141Z" fill="#d41308"/></svg>