<svg id="Layer_1" data-name="Layer 1" xmlns="http://www.w3.org/2000/svg" viewBox="0 0 300 300"><title>Cars</title><path d="M83,150.58c.18.87-.6,1.17-1,1.7a5.07,5.07,0,0,0-.36.69,3.15,3.15,0,0,0,.73.17c2.36,0,4.72,0,7.08,0,1.56,0,1.91-.44,1.91-2.08,0-2.63,0-5.25,0-7.88,0-.37.25-1.06.36-1.05.66,0,.6.61.6,1.08,0,2,0,4,0,6,0,1,.23,1.9.29,2.86,0,.74.47.93,1.07.83a15,15,0,0,0,2.94-.65,3.16,3.16,0,0,1,2-.17c.93.23,1.86.5,2.8.7,1.77.39,2.29,0,2.44-1.86a2.24,2.24,0,0,1,.06-.48.27.27,0,0,1,.22-.14c.09,0,.22.1.23.18.07.42.08.85.18,1.26a.73.73,0,0,0,1.08.59,4.39,4.39,0,0,0,1.14-.59c1.18-.91,2.4-1.8,3.48-2.82a37.38,37.38,0,0,1,8.13-5.95,12.52,12.52,0,0,1,5.24-1.36c3.09-.15,6,.57,9,1.09s6.09,1.08,9.14,1.5c2.9.41,5.82.63,8.73,1,1.16.15,2.29.5,3.44.73a3.3,3.3,0,0,0,1.24.08c1.19-.24,2.37-.59,3.56-.82.53-.1.77-.33.75-.84-.08-1.76-.18-3.52-.24-5.27,0-1.39-.05-2.79,0-4.18a.71.71,0,0,1,.26-.54c1.14-.63,1.28-1.75,1.41-2.85.07-.6.29-1.08.84-1.24a7.48,7.48,0,0,1,2.64-.48,33.89,33.89,0,0,1,4.54.92c1.13.28,1.28.64.88,1.71-.26.7-.5,1.41-.75,2.12-.14.41,0,.62.45.63.7,0,1.39,0,2.09,0,1.17-.07,2.34-.2,3.51-.29l8.46-.59c.48,0,1,0,1.45,0,7-.11,14-.21,21-.35,1.76,0,3.51-.26,5.27-.27a7.44,7.44,0,0,1,2.5.43q7.33,2.6,14.63,5.3c4.17,1.53,8.31,3.11,12.47,4.65,1.1.41,2.23.74,3.34,1.14,2,.71,3.9,1.48,5.87,2.16a1,1,0,0,1,.8,1.19,7.43,7.43,0,0,0,0,1.29,1.77,1.77,0,0,1-1.23,2.14,1.4,1.4,0,0,0-1,1.31c0,.79-.1,1.33,1.11,1.28.64,0,1.29,0,1.93,0,1.06,0,1.25-.24,1.43-1.31.44-2.63.85-5.26,1.36-7.87a3.56,3.56,0,0,1,2.59-3.14c1.1-.3,1.29-1.15.71-2.25-.5-.94-.39-1.39.54-2a13.91,13.91,0,0,1,1.91-1.13,7.69,7.69,0,0,1,2.27-.63,8.43,8.43,0,0,0,2.64-.53,9.46,9.46,0,0,1,6.89-.34,7.25,7.25,0,0,0,3,.51.88.88,0,0,1,1.06.73c.32,1.27,1.21,1.58,2.44,1.52,3.2-.16,6.41-.23,9.62-.33.43,0,.86,0,1.29,0s.58.19.45.61-.22.72-.34,1.07q-2.82,7.85-5.65,15.7c-.49,1.36-1,2.7-1.53,4.05-.22.58-.07.82.55.75a15.36,15.36,0,0,0,1.55-.37,11.18,11.18,0,0,1,1.25-.23c.13,0,.38.13.39.2s0,.47-.17.55a11.53,11.53,0,0,1-1.45.66,1.88,1.88,0,0,0-1.42,2.06c.07,1.07,0,2.14,0,3.22,0,.58-.09,1.15.66,1.47a.68.68,0,0,1,.11,1.11,2,2,0,0,1-1.18.68c-3.52.16-7,.26-10.58.34a19,19,0,0,1-2-.2,1.36,1.36,0,0,0-1.48,1c-.79,2-1.72,4-1,6.34a7.58,7.58,0,0,1,.07,2.24.9.9,0,0,1-.88,1,1,1,0,0,1-.32,0c-1.77-.37-2.94.56-4,1.82-2.41,3-5.74,4.23-9.33,4.84a14.41,14.41,0,0,1-6.94-.82,14.91,14.91,0,0,1-6.77-4.7,2,2,0,0,0-1.92-.82c-1.33.14-2.66.25-4,.38-.79.08-1.58.23-2.38.24-3.06,0-6.12-.14-9.17.07-4.28.29-8.57,0-12.83.35-3.91.31-7.81,0-11.71.27-5.72.34-11.46.06-17.17.39-4.61.26-9.22-.06-13.8.3s-9.43,0-14.12.33c-4.5.34-9,0-13.48.32s-8.78.13-13.16.28c-2.56.09-5.15,0-7.68.35-2.89.36-5.77.17-8.66.25-4.65.13-9.3.23-14,.33-.8,0-1.61,0-2.41,0-.5,0-1.35-.06-1.43-.29-.22-.64.64-.68,1-1.05a3.23,3.23,0,0,1,.39-.28c.28-.23.28-.53-.09-.55-1.15-.08-1.2-.84-1.18-1.71s0-1.93,0-2.89c.06-1.84-1.17-2.77-2.51-3.62-.36-.23-.64-.05-.65.36,0,1.07,0,2.14,0,3.22,0,1.25,0,1.24-1.21,1.37-.79.09-1.58.26-2.37.32s-.92.67-1.25,1.12a14.38,14.38,0,0,1-5.63,4.89,15.3,15.3,0,0,1-17.2-2.24,13.64,13.64,0,0,1-3.1-3.81c-.54-1.08-1.74-1.06-2.45-1.81,0,0-.32,0-.4.13a.46.46,0,0,0-.06.43c.15.21.43.34.54.56a1.09,1.09,0,0,1,.07.68,3.12,3.12,0,0,0-1.4,1.18c-.31.38-2.16-.71-2.15-1.24a.8.8,0,0,1,.29-.5,9.51,9.51,0,0,0,1.6-1.79A9,9,0,0,1,55.51,175c.12-.1.34-.17.36-.28a1.52,1.52,0,0,0,0-.75c0-.07-.38-.08-.55,0-.9.34-1.78.73-2.69,1.05-1.25.46-2.51.91-3.79,1.29a1.05,1.05,0,0,0-.81,1.2c0,1.07,0,2.15,0,3.22,0,.91-.12,1-1,1h-.32c-7.28.11-14.56.21-21.84.35-3,.06-6.09.25-9.13.28-1.43,0-2.87-.23-4.3-.36A1.12,1.12,0,0,1,11,182c-.48-.19-1.13-.22-1-1s.62-.76,1.19-.83a4.82,4.82,0,0,0,1.39-.33,2.73,2.73,0,0,1,2-.12,3.11,3.11,0,0,0,1.27.11A1.37,1.37,0,0,0,17,177.75c-.67-1.47-.65-1.65.76-2.56a1.4,1.4,0,0,0,.63-1.35c.09-2.67.1-2.64,2.73-2.7s5.13-.17,7.69-.33a6.58,6.58,0,0,0,1.82-.57l13.48-5.14,15.59-5.94c2.45-.94,4.88-1.92,7.32-2.85A1.2,1.2,0,0,0,67.9,155c0-1,0-2,0-3.06,0-.75-.26-1.11-1-1a2.13,2.13,0,0,1-.64,0,1.35,1.35,0,0,1-.38-.23,2.5,2.5,0,0,1,.37-.42,1.76,1.76,0,0,1,.45-.16c.34-.12.94-.2,1-.38a4,4,0,0,0-.14-1.58.77.77,0,0,0-.59-.39,8.8,8.8,0,0,0-1.26.13c-.64.06-1.27.13-1.91.14-.15,0-.31-.2-.47-.32.15-.12.28-.32.45-.36.93-.22,1.89-.36,2.81-.63a4.29,4.29,0,0,0,1.34-.76.74.74,0,0,0,.18-.69.76.76,0,0,0-.64-.31c-.9.11-1.78.34-2.68.42a6.67,6.67,0,0,1-1.49-.19c.09-.92.83-.63,1.35-.71a18,18,0,0,1,2.21-.31c1.83-.08,2.6.64,2.72,2.51,0,.75,0,1.5,0,2.25.08,1.81.21,3.62.29,5.43,0,.57.3.6.72.45l.76-.26c.85-.32,2-.42,2.45-1S74,151.87,74,151c0-.05,0-.11,0-.16,0-.37,0-.85.49-.85s.48.48.49.86c0,.64,0,1.29,0,1.93a1,1,0,0,0,1.59.77,1.21,1.21,0,0,0,.36-.32c.37-.55.61-1.4,1.11-1.58a3.78,3.78,0,0,0,1.6-.94c.4-.45.73-.56,1.17,0a.81.81,0,0,0,1.26.11c.22-.17.61-.13.92-.19Zm47.3-2.89h0a.59.59,0,0,0,.64.64c1.07-.41,1.09-.44.65-1.61l-1.28-.31.5-.6a2.92,2.92,0,0,0-.63-.34,12.07,12.07,0,0,0-1.41-.26c-1.47-.2-2.88-.23-4,1.06a2,2,0,0,1-2.17.59,3.26,3.26,0,0,0-2.79.31c-.92.64-1.84,1.28-2.7,2-1.19,1-1.14,1.15.26,1.81a2.69,2.69,0,0,1,.39.27,22.88,22.88,0,0,0,1.95,1.36,1.7,1.7,0,0,0,1,0c.06,0,0-.46.06-.71.09-.94.13-1.89.29-2.81a1.29,1.29,0,0,1,1.19-1.14c1.43-.1,2.86-.19,4.3-.22.58,0,.8.46.81,1s0,1.07,0,1.6c0,.23.25.64.35.63a1.49,1.49,0,0,0,.81-.39c.1-.1,0-.44,0-.63-.51-1.11-.51-1.16.45-1.75.31-.19.64-.35,1-.52Zm9.64,4.58a5.93,5.93,0,0,0,5.46-2.79c.46-.74.43-.93-.49-1.16-2.12-.53-4.24-1.06-6.38-1.52-1-.22-2.12-.22-3.17-.4a2.61,2.61,0,0,0-2.79,1.53,2,2,0,0,1-1.3,1.08c-.24.06-.45.37-.63.59s-.23.47-.4.66c-.56.61-1.15,1.19-1.71,1.81a.48.48,0,0,0-.06.44.47.47,0,0,0,.38.19c.74,0,1.49-.11,2.23-.18a1.55,1.55,0,0,0,.76-.19c1.38-1.09,2.89-.84,4.45-.56C137.53,152,138.75,152.1,140,152.27Z" fill="#d41308"/></svg>