<svg id="Layer_1" data-name="Layer 1" xmlns="http://www.w3.org/2000/svg" viewBox="0 0 300 300"><title>Cars</title><path d="M290,140.31q0,9.69,0,19.38c0,.49,0,1,0,1.47,0,.83-.42,1.22-1.23,1.43-3.12.8-6.21,1.7-9.33,2.51-3.47.9-3.46.86-1.51,3.63a1.21,1.21,0,0,0,1.75.48c2.43-1.08,4.91-2.06,7.37-3.07.32-.13.66-.23,1-.34,1.48-.46,2-.19,1.92,1.41-.07,4.06.31,8.13-.33,12.18-.27,1.68-.17,1.72-1.88,1.72-5.9,0-11.79,0-17.69,0-1.67,0-1.55.22-2,.49a12.66,12.66,0,0,1-2.59.81,3,3,0,0,0-.56.29c-3,1.68-6.27,2.22-9.63,2.69-4.49.63-8.56-.42-12.58-2.2a8.31,8.31,0,0,0-3-.78c-6.09-.19-12.2-.58-18.28-.35-17.89.67-35.78,0-53.67.45-6.24.17-12.47.13-18.71.32-1.79.05-3.57.26-5.36.37a6.25,6.25,0,0,1-1.68,0c-3.27-.7-6.57-.29-9.85-.34-4.56-.06-9.13-.18-13.69,0-10.94.51-21.88.21-32.82.4a8,8,0,0,0-3.59,1c-4.25,2.34-8.82,2.71-13.48,2.27a19.71,19.71,0,0,1-4.8-1.44c-1.11-.41-2.12-1.1-3.22-1.55a11.22,11.22,0,0,0-2.61-.72,26,26,0,0,0-4.17-.35,39.49,39.49,0,0,0-4.15.48,17.22,17.22,0,0,1-2.07.26q-15.69,0-31.38,0a9.83,9.83,0,0,1-4.85-.93c-1.53-.82-1.69-2-.49-3.39a4.09,4.09,0,0,1,.93-.83q4.11-2.53,8.26-5c.71-.43,1.49-.74,2.23-1.14s1.43-.56,1.76-1.08a5.42,5.42,0,0,1,2.54-1.71c2.81-1.45,5.74-2.68,8.58-4.08,1.49-.73,2.87-1.69,4.36-2.43,3.27-1.63,6.59-3.17,9.85-4.8,1.56-.78,3.06-1.67,4.55-2.58A5.18,5.18,0,0,0,55,154c1.87-2.3,3.91-4.6,6.52-5.85,2.23-1.07,4.63-2.27,7.34-2.07,3.69.26,6.68-1.46,9.52-3.56a2.86,2.86,0,0,1,1.23-.7,8.45,8.45,0,0,0,3.59-1.61c2.63-1.56,5.3-3.07,7.94-4.61a1.11,1.11,0,0,1,1.74.38,11,11,0,0,0,6.07,4.24,4.78,4.78,0,0,0,3.81-.41,11.19,11.19,0,0,1,2.31-.91c1.62-.44,2.06-.35,2.6,1.15A2,2,0,0,0,110,141.5c2-.15,4-.35,6.06-.39,4-.07,8.1,0,12.14-.06,3.85-.07,7.69-.22,11.53-.43,1.42-.07,2.57-.42,3-2.24a7.53,7.53,0,0,1,2.5-3.28,1.53,1.53,0,0,0,.61-1.34c0-3.86,0-7.72,0-11.58,0-1.18-.26-2.36-.37-3.54a3.44,3.44,0,0,1,.06-1,1.49,1.49,0,0,1,1.54-1.18,1.66,1.66,0,0,1,1.2,1c.91,3,3.12,4.91,5.15,7,2.47,2.58,4.91,5.19,7.37,7.78a33,33,0,0,1,2.63,2.69,4,4,0,0,0,4.08,1.49,7.34,7.34,0,0,1,2,.06c2.75.44,5.41,1.38,8.24,1.31a13.3,13.3,0,0,1,2.07.28l4.15.55a4.19,4.19,0,0,1,1.44.22c1.1.62,2.3.48,3.47.66,2.58.4,5.13,1,7.7,1.46,2.13.38,4.26.76,6.41,1a13.58,13.58,0,0,1,3.64.71,20.83,20.83,0,0,0,5.12,1c2.34.28,4.59,1.3,7,1,1.46.91,3.11.66,4.7.82a13.32,13.32,0,0,1,2.76.83c1.54.51,3.23.48,4.69.94,1.74.54,3.61.36,5.23,1.18a1.92,1.92,0,0,0,2.31-.41,21.16,21.16,0,0,1,11.25-5.13,7.26,7.26,0,0,0,.77-.21,4.49,4.49,0,0,0-.41-.7c-1-1.22-2.49-2.27-3-3.68s-.07-3-.06-4.56c0-2.81,0-5.62,0-8.42,0-1.64,0-1.7,1.47-2.07,3.66-.94,7.33-1.82,11-2.74,2.24-.56,4.46-1.19,6.71-1.74a9.77,9.77,0,0,1,2.27-.32q9.79,0,19.59,0c2,0,2,0,2,2q0,10,0,20Z" fill="#d41308"/></svg>