<svg id="Layer_1" data-name="Layer 1" xmlns="http://www.w3.org/2000/svg" viewBox="0 0 300 300"><title>Cars</title><path d="M288.66,145.84a3.92,3.92,0,0,1-1.27-3.47c.06-1.2,0-2.41,0-3.61s-.41-1.37-1.6-1.33a56.23,56.23,0,0,1-7.16-.36c-2-.19-2-.29-2.05-2.29-.08-2.34-.08-2.36-2.51-2.37q-8.39,0-16.78,0c-3.42,0-3.44,0-3.53,3.38a9.22,9.22,0,0,0,.17,3c.4,1.23,1.77.74,2.69,1.1s2,.59,2,1.73a21,21,0,0,1-.31,3.58,1.66,1.66,0,0,1-1.9,1.63c-2.13-.06-4.27.18-6.28-.94a28.18,28.18,0,0,0-3.6-1.39c-6.48-2.5-12.95-5-19.43-7.49a1.26,1.26,0,0,0-.63,0l-31.09-11.2c-.08-.19-.16-.37-.3-.42-1.42-.54-2.74-1.32-4.4-1.28-2.36.07-3.32-1-3.43-3.32a4,4,0,0,0,0-.77,2.11,2.11,0,0,0-.33-.54l-.12.14-1.14-1a13.33,13.33,0,0,0-8.45-1.59,4.73,4.73,0,0,0-2.22,1.21c-.32.3-.17,1.08-.29,1.62s-.4,1.31-.56,2a12.41,12.41,0,0,0-.57,2.75c0,4,.06,8,.11,12,0,.65,0,.63-.65.33a8.87,8.87,0,0,0-2.7-.68c-.47-.06-1.2,0-1.43.29-.9,1.16-2.3,2-2.41,3.72s-.66,2.18-2.33,2.46a4.75,4.75,0,0,1-.75-.07h0a.5.5,0,0,0-.18,0l-1.56.27a2.36,2.36,0,0,0-.88.15c-3,1-6,2-9,2.93-4.37,1.3-8.71,2.19-12.19-2-.11-.13-.4-.2-.4-.3,0-.25.09-.71.2-.73.83-.12,1.58-.36,1.61-1.33a7.54,7.54,0,0,0-.3-2.28,1.23,1.23,0,0,0-.93-.67,51.9,51.9,0,0,0-5.41,0,2.86,2.86,0,0,0-2.34,2.42c0,1.22.7,1.81,1.77,2.23a7.78,7.78,0,0,1,2.2,1.3,17.19,17.19,0,0,1,1.78,2.06c-.85,0-1.7.12-2.55.14a11.74,11.74,0,0,1-2.06,0,1.81,1.81,0,0,1-1-.6c-1.42-1.66-1.85-1.75-3.81-.85a3.71,3.71,0,0,1-1.67.32c-1.45-.07-2.89-.31-4.33-.37-3.25-.13-6.51-.25-9.76-.23-.77,0-1.13-.09-1.26-.81a22.69,22.69,0,0,1-.38-2.27c-.07-.86,0-1.72-.05-2.58a3.7,3.7,0,0,0-.45-1.06c-.2.32-.56.62-.58.95-.09,1.37-.08,2.75-.09,4.13,0,1-.44,1.37-1.42,1.36-2.65,0-5.31,0-8,0-2.32-.07-2.65-.44-2.95-2.8a1.48,1.48,0,0,0-.07-.5c-.11-.2-.33-.54-.44-.51-.29.06-.7.22-.79.45a4.16,4.16,0,0,0-.27,1.5c0,1-.44,1.35-1.41,1.4-2.31.11-4.61.47-6.91.45-5.82-.06-11.67.56-17.43-.92-1.94-.5-1.94-.34-2.06-2.31,0-.74,0-1.84-.48-2.13a5.14,5.14,0,0,0-4.45-.54,1,1,0,0,0-.53.75c0,.2.41.53.67.57.68.09,1.38,0,2.05.1.35.06.91.38.94.63a6.81,6.81,0,0,1-.05,2.79c-.14.42-1.11.6-1.73.83-1.29.48-2.57,1-3.89,1.36a20.46,20.46,0,0,1-4.5.93,76.55,76.55,0,0,0-14.91,2.48A152.29,152.29,0,0,0,25.61,154a55.55,55.55,0,0,0-13.33,6.65A9.38,9.38,0,0,0,10.68,162a1.91,1.91,0,0,0,.26,3.11,4.16,4.16,0,0,0,3.39.86c.23,0,.78.37.78.57,0,3.22.58,6.56-1.64,9.4-.48.62-.26,1.06.28,1.52a7.06,7.06,0,0,0,6.32,1.42,32,32,0,0,0,9.56-3.33,11.66,11.66,0,0,1,6.86-1.77c3.34.22,6.71.08,10.06,0,1.59,0,1.73-.35,1.6-1.85-.19-2.21-.24-4.44-.34-6.66a1.47,1.47,0,0,1,.11-.75.84.84,0,0,1,.58-.4.82.82,0,0,1,.59.37,1.54,1.54,0,0,1,.12.75,18,18,0,0,0,4.35,11.31c4.26,5.34,10.06,7.68,16.75,7.46A18.08,18.08,0,0,0,81,180.11a3.07,3.07,0,0,1,1.62-.61c1.46-.08,2.92,0,4.39,0,.75,0,1.37.11,1.45,1,.11,1.2.94,1.54,2,1.54H222.55a13.18,13.18,0,0,0,1.41,0h2.33a1.57,1.57,0,0,0,.63.09c4-.09,8.09,0,12.13-.1a6.57,6.57,0,0,1,3.85,1.15,20.12,20.12,0,0,0,11.4,3.46,21.92,21.92,0,0,0,11.14-3.54,9,9,0,0,1,2.82-1c2-.42,4.05-.64,6.06-1.06,2.2-.46,2.23-.55,2.25-2.69s0-4.47,0-6.71a3.74,3.74,0,0,1,.35-2,2.31,2.31,0,0,0,.05-3.06c-.16-.22,0-1,.11-1A23.91,23.91,0,0,1,282,164a51.12,51.12,0,0,1,5.89-.08c2.07,0,2.1-.06,2.12-2.24,0-4.13,0-8.26,0-12.39A4.32,4.32,0,0,0,288.66,145.84Z" fill="#d41308"/></svg>