<svg id="Layer_1" data-name="Layer 1" xmlns="http://www.w3.org/2000/svg" viewBox="0 0 300 300"><title>Cars</title><path d="M290,145.77V160c0,.16,0,.32,0,.47,0,1.25,0,1.26-1.22,1.26h-8.88c-.28,0-.55,0-.83,0s-.54.09-.48.54.43,1,.09,1.62c-.11.18.1.32.36.23.55-.21,1.11-.4,1.66-.59a1.28,1.28,0,0,1,1.53.45c.69.8,1.52,1.48,2.23,2.27,1.24,1.39,2.44,2.81,3.66,4.23a4.38,4.38,0,0,1,1,1.26,5.85,5.85,0,0,1,0,1.63q0,4.08.07,8.16c0,.78-.28,1.06-1.08,1.05l-18.59,0a5.93,5.93,0,0,0-2.78.78,25.33,25.33,0,0,1-3.45,1.16c-2.17.77-4.37.3-6.56.44a1.05,1.05,0,0,1-.35,0c-1.69-.49-3.4-1-5.08-1.49a6.7,6.7,0,0,0-2.07-.4c-6.43,0-12.87,0-19.3,0-3.94,0-7.88,0-11.82,0-3.23,0-6.46.07-9.68.09-6.78.05-13.56,0-20.33.2-5.12.19-10.24,0-15.35.22-6.23.32-12.47,0-18.69.25-3.59.17-7.17.11-10.75.17-3.39.06-6.78-.11-10.16,0-7.25.33-14.52,0-21.76.25-6.86.28-13.72.05-20.58.19a1.64,1.64,0,0,1-1.58-.59c-.21-.3-.13-.51.25-.55s.86-.06,1.29-.07.56-.22.56-.6q0-2.78,0-5.56c0-.34,0-.69,0-1,.06-.9-.13-1.18-1-1.39a6.64,6.64,0,0,0-1.16-.15c-.63,0-1.26,0-1.89,0-1.16-.06-1.19-.09-1.64.9a21.58,21.58,0,0,1-3.1,4.58,21.33,21.33,0,0,1-4.91,4.12,16.14,16.14,0,0,1-2.16,1,17.72,17.72,0,0,1-2.46.79.93.93,0,0,0-.12,0c-2.57,1.21-5.29.6-7.94.58a13.57,13.57,0,0,1-4.3-1.11A21.83,21.83,0,0,1,54.67,182a17.55,17.55,0,0,1-2.33-2.5,16.93,16.93,0,0,1-3.43-5.88c-.43-1.34-.67-2.74-1-4.11-.07-.31-.13-.61-.2-.92-.11-.52-.38-.68-.94-.61-1,.12-1,.08-1,1.07,0,2.63.06,5.26.08,7.88,0,.63-.05,1.25-.09,1.88,0,.44-.22.58-.7.53a16,16,0,0,0-2.11,0c-5,.07-10.08.12-15.12.25a23.69,23.69,0,0,0-4.08.52,34.8,34.8,0,0,1-5.62.43,17,17,0,0,1-5-.71.87.87,0,0,1-.77-1c0-1.34,0-2.68,0-4,0-1.7,0-3.39,0-5.09,0-.5-.11-.77-.7-.84-1.37-.16-1.76-.7-1.68-2a1,1,0,0,1,.43-.91c.49-.33.93-.72,1.39-1.09s1.32-.73,1.48-1.26c.3-1,1.1-.23,1.56-.72.78-.83,2-1.07,2.91-1.8.09-.07.24-.08.31-.17a3.18,3.18,0,0,1,1.85-1c.21-.05.71-.07.47-.57.1,0,.2-.11.29-.11a3.16,3.16,0,0,0,1.65-.55,25.22,25.22,0,0,1,3-1.26,11.74,11.74,0,0,0,3.41-1.58,1.36,1.36,0,0,1,1-.3c.49.12.83-.14,1.23-.25.59-.16,1-.62,1.75-.6a5.56,5.56,0,0,0,1.91-.56c.62-.22,1.22-.5,1.83-.75s1.16.14,1.42-.6c0,0,.29,0,.44,0a2.23,2.23,0,0,0,1.59-.31,1.3,1.3,0,0,1,.56-.14,7.4,7.4,0,0,0,1.73-.31,23.8,23.8,0,0,1,4.46-1c1.37-.32,2.79-.39,4.19-.59l3.85-.55c.7-.1,1.4-.16,2.1-.27a3.21,3.21,0,0,0,.85-.26,1.7,1.7,0,0,0,1-1.82c-.05-3.08,0-6.16,0-9.24,0-.12,0-.24,0-.36,0-1-.06-1-1-.87a19,19,0,0,1-2,.09c-.31,0-.55-.12-.53-.48s.28-.44.58-.44c.83,0,1.66-.05,2.49,0,1,.07,1.31.67,1.26,1.7,0,.51-.27,1.16.36,1.62a1.66,1.66,0,0,1,.43.92c.21.87.3,1.78.58,2.62a32.88,32.88,0,0,1,.95,3.65c.18.83.25.77,1,.56a10.71,10.71,0,0,1,2.43-.42,18.65,18.65,0,0,1,3.63-.06c1,.17,2,.16,2.93.3.54.08,1,.32,1.58.43s.54,0,.53-.58c0-2.29-.06-4.57-.08-6.86a.62.62,0,0,1,.05-.34,1,1,0,0,1,.41-.35c.06,0,.28.16.31.28a5.26,5.26,0,0,1,.17,1.15c0,1.89,0,3.79,0,5.68,0,1,.08,1.08,1.06,1,1.72-.13,3.44-.31,5.16-.42a.54.54,0,0,0,.59-.55,15.76,15.76,0,0,0,.27-2.06c0-1.93,0-3.87,0-5.8a4.14,4.14,0,0,1,.09-.93c0-.1.26-.25.34-.22s.35.23.35.36c0,1-.05,2,0,3,0,1.61.13,3.22.23,4.83a3.15,3.15,0,0,0,.21.67.61.61,0,0,0,.8.48,17.59,17.59,0,0,1,4.29-.1c.77,0,1.55-.11,2.33-.13,1.69,0,3.38,0,5.08-.08.7,0,1.39,0,2.08-.09.08,0,.19-.2.2-.31.05-.82.07-1.65.12-2.47a.81.81,0,0,1,1.06-.72.67.67,0,0,1,.42.74c-.07.78,0,1.56,0,2.35,0,.37.17.5.49.5h.83c1.68,0,3.37,0,5.05,0a5,5,0,0,0,2.81-.73c.4-.24.86-.39,1.26-.64a2,2,0,0,1,2.43.2,5.8,5.8,0,0,0,3.95,1.16c2.05,0,4.1,0,6.16,0a1.53,1.53,0,0,0,.79-.15c.23-.15.3-.12.45.07s.29.19.37-.1c.34-1.15.36-1.18,1.45-.76a11.78,11.78,0,0,1,1.64.88.35.35,0,0,1,.15.3c-.24.82.34.7.79.71,1.14,0,2.29,0,3.43,0,2.32.06,4.63.16,6.95.21,1.45,0,2.91,0,4.36,0a3.81,3.81,0,0,0,.82-.06c.1,0,.2-.21.23-.34s-.12-.22-.2-.24c-.27,0-.55,0-.82-.07a12.73,12.73,0,0,1-1.44-.38c-.24-.08-.44-1.23-.29-1.59a1.91,1.91,0,0,1,1.85-1.33c.75,0,1.5,0,2.25,0,.59,0,1.17-.13,1.75-.16a4.16,4.16,0,0,1,1,.07c.15,0,.38.22.39.35.05.81.07,1.63.07,2.44,0,.43-.22.64-.67.64-.23,0-.47.09-.7.08s-.53-.08-.48.29c0,.12.28.29.43.29a24.27,24.27,0,0,0,4,0,9.1,9.1,0,0,0,2.75-1.16,33,33,0,0,1,8.26-3.07c.5-.11,1-.31,1.47-.43a25.59,25.59,0,0,1,5.94-.73c1.2,0,1.19,0,1.23-1.25,0-1,0-1.95.14-2.91a2,2,0,0,1,2.16-2,32.41,32.41,0,0,1,3.78.12.93.93,0,0,0,1-.57,1,1,0,0,0,0-1.32c-.27-.32-.51-.82-.84-.9-.72-.17-.61-.42-.49-1a12.77,12.77,0,0,0,0-2.55,3.93,3.93,0,0,1,0-.47c.27-2.35-.18-4.69-.15-7a1.4,1.4,0,0,1,.12-.53,8.77,8.77,0,0,0,.5-1c.31-1.07.61-2.15.82-3.24.18-.93.29-1.19,1.28-1.38a12.33,12.33,0,0,1,2.57-.27,30.73,30.73,0,0,1,3.87.33,19.22,19.22,0,0,1,4.31,1.19c.16.06.27.24.41.36-.14.12-.27.32-.43.36-.45.12-.92.17-1.38.25a2.38,2.38,0,0,0-1.71.93,1.19,1.19,0,0,0,.09,1.71,3.2,3.2,0,0,0,1.17.75c2.38.8,4.8,1.49,7.16,2.34a19.68,19.68,0,0,1,2.76,1.23c.94.52,1.9,1.05,2.86,1.56,1.66.88,3.38,1.65,5.07,2.49a12.51,12.51,0,0,1,1.09.65c.2.12.37.33.58.39,1.21.34,2.17,1.18,3.35,1.6.49.18.93.52,1.41.74,1.41.64,2.84,1.26,4.26,1.9s2.62,1.21,3.93,1.82c.07,0,.13.12.2.13a2.38,2.38,0,0,1,1.26.61,7.58,7.58,0,0,0,1.72.76c2.49,1.06,4.95,2.18,7.46,3.17,1.92.76,3.78,1.66,5.66,2.49,1.65.73,3.26,1.56,4.91,2.32,1.31.61,2.65,1.16,4,1.77a7.65,7.65,0,0,1,1,.61.85.85,0,0,0,1.17,0,8.31,8.31,0,0,1,1-.64,16.52,16.52,0,0,1,5.43-2.15,17.27,17.27,0,0,1,5.25-.63,22.74,22.74,0,0,1,5.62,1.06c1,.33,2,.71,2.92,1.14.34.15.65,0,.52-.3-.28-.77.08-1.48.07-2.22-.05-3.91.08-7.82-.07-11.72a3,3,0,0,1,3.08-3.17c5.8.1,11.6,0,17.41.05,1.1,0,1.11,0,1.11,1.13q0,7.46,0,14.92Zm-192.35,35v-.12H97c-1,0-1,0-1.06-1.08,0-.55.27-1.17-.23-1.66-.68-.67.59-1,.25-1.67-.08-.15,0-.41,0-.58s-.27-.42-.43-.44c-.93-.12-1.87-.22-2.81-.26-.66,0-.72.05-.72.77,0,1.66,0,3.31,0,5,0,.46-.11,1,.36,1.37,0,0,0,.17,0,.25-.16.88-.11.94.75.78a4.44,4.44,0,0,1,.58-.11c2.2-.09,4.4-.17,6.6-.27,1.33-.06,2.67-.15,4-.25a2.38,2.38,0,0,0,.68-.18,1.15,1.15,0,0,0,.67-1.44c-.14-.42-.45-.5-.87-.18-.09.07-.13.35-.26.07-.24-.51-.67-.34-1-.32C101.55,180.55,99.6,180.67,97.64,180.78Z" fill="#d41308"/></svg>