<svg id="Layer_1" data-name="Layer 1" xmlns="http://www.w3.org/2000/svg" viewBox="0 0 300 300"><title>Cars</title><path d="M289.57,164.34c-.47-2-.45-2.12-2.61-1.65-3,.65-5.92,1.42-8.9,2-3.27.68-6.56,1.26-9.86,1.81-.27,0-.95-.58-.91-.7,1.35-3.77,1.29-8.07,4.28-11.23,1.24-1.32,1-1.83-.64-2.71a13.72,13.72,0,0,0-4.58-1c-5.1-.77-10.15-1.85-15.24-2.7-3.39-.57-6.81-1-10.23-1.39-2.25-.22-4.29-.6-6-2.3a11.52,11.52,0,0,0-3.07-1.95c-4.81-2.4-9.79-4-15.24-2.56a32.72,32.72,0,0,0-6.9,2.24,6.77,6.77,0,0,1-6.43,0,27.9,27.9,0,0,0-10.42-3.08,123.94,123.94,0,0,0-12.74.05,35.45,35.45,0,0,0-5,1,5.69,5.69,0,0,1-1.5-.11c.13.38.44,1,.36,1.09-1.11.77-1.94,2-3.67,1.69-1.38-.27-1.59-.29-1.07-1.63,1.45-3.68,3-7.32,3.42-11.31.18-1.81.4-3.63.47-5.45a1.36,1.36,0,0,0-1.47-1.56c-.92,0-1.21.6-1.26,1.4,0,.3,0,.61-.07.91a42.24,42.24,0,0,1-.88,6.61c-.9,3.11-2.27,6.08-3.36,9.14a2.85,2.85,0,0,1-3,2.07c-7.51.15-15,.39-22.53.53-1.51,0-3-.33-4.54-.31-5.28.07-10.56.26-15.84.34-2.13,0-2.07-.08-3-2.23q-2-4.6-4.15-9.11c-.25-.51-1-.77-1.53-1.15a5.73,5.73,0,0,0-.76,1.87,7.42,7.42,0,0,0,.6,2,4.16,4.16,0,0,1,.07.84,8,8,0,0,1-.84-.62c-.14-.13-.17-.37-.28-.54-.59-.91-.84-1.2-1.18-.82l-1.91-1.78c0-.25-.25-.46-.66-.61a1.88,1.88,0,0,0-2.22.3c-3,2.71-6.1,5.31-9.16,8s-5.68,6-10.4,5.28c-.09,0-.19.07-.29.09a13.25,13.25,0,0,1-8.5-.93c-8.51-4-16.55-2.92-24,2.74-2.33,3.58-6.07,4.43-9.88,5.18l-.3.06c-3.07.38-5.91,2.22-9.16,1.4-.15,0-.36.13-.53.22-5,2.61-7.54,3-12.52,2-.4-.08-.91.38-1.37.58,1.64.7.15.68-.21,1s-.59.59-.55.64c1,1.38-.26,1.32-1,1.74-1.41.79-2.76,1.71-4.12,2.59-2.41,1.57-2.51,4-2.25,6.46a5.28,5.28,0,0,0,3.71,4.75,55.93,55.93,0,0,0,5.94,1.89C26.6,177,33.58,177.28,40.53,178c2.31.23,4.65,0,7,.13a3.83,3.83,0,0,1,2.38.92,20.59,20.59,0,0,0,8.23,5.5c8,2.78,15.37,1.94,22.09-3.32a8.41,8.41,0,0,1,5.52-2c17.3.09,34.6.05,51.9.06,4,0,7.94.13,11.91,0s8.06.39,12.11.19c3.08-.16,6.2.35,9.3.35,2.8,0,5.6-.32,8.4-.44,1,0,2,.1,3,.12s2,0,3,0c.81,0,1.62-.06,2.42,0,1.31.09,2.61.33,3.92.36,3.56.06,7.13.13,10.68,0,1.74-.07,2.44,1.36,3.67,2-.63,1-.18,1.08.76,1,.4-.05.86.33,1.29.54,1.71.84,3.34,2,5.15,2.47a51.66,51.66,0,0,0,6.86.94,24.63,24.63,0,0,0,17.36-7.09,5.27,5.27,0,0,1,3.76-1.6,70.7,70.7,0,0,0,8.47-.76c5.59-.88,11.16-2,16.74-2.95,1-.17,2-.55,1.94-1.58-.11-1.47.73-1.39,1.66-1.49,1.41-.15,2.81-.35,4.21-.56l9.6-1.45a12.61,12.61,0,0,1,2.1-.32C290.16,169,290.52,168.51,289.57,164.34Zm-255,7.42c-1,2.27-2.89,2.62-5,2.51a15.28,15.28,0,0,1-7.91-2,5.08,5.08,0,0,1-1.56-7.56,3.21,3.21,0,0,1,1.21-.81,12.53,12.53,0,0,1,8-.87c1.57.37,3.2.73,3.7,2.64.05.19.1.47.24.54C35.8,167.57,35.57,169.51,34.55,171.76Z" fill="#d41308"/></svg>