<svg id="Layer_1" data-name="Layer 1" xmlns="http://www.w3.org/2000/svg" viewBox="0 0 300 300"><title>Cars</title><path d="M290,143.61c0,4.12.05,8.25,0,12.37,0,1.75-.34,3.49-.52,5.24-.07.66-.4,1.52-.11,1.94,1.06,1.52.07,2.2-1,2.75-1.39.73-2.85,1.31-4.3,1.9a3.78,3.78,0,0,0-2.48,2.94c-.9,3.7-2.2,7.31-3.21,11a2.33,2.33,0,0,1-2.74,2c-.88-.06-1.77,0-2.65,0a15.25,15.25,0,0,0-7.11,1.32c-5.59,2.58-11.32,1.87-16.81-.47a10.34,10.34,0,0,0-4.22-.86c-13.46,0-26.91,0-40.37,0-5.76,0-11.52-.23-17.28-.22-10.4,0-20.83.61-31.2.13-19.63-.9-39.25-.16-58.88-.47a6.45,6.45,0,0,1-1.75-.09c-.37-.11-.87-.58-.88-.9s.44-.78.71-1.16c0-.06.18-.05.28-.06.75-.05,1.9.17,2.16-.21A16.94,16.94,0,0,0,99.26,177c.07-.18-.29-.71-.55-.79a6.93,6.93,0,0,0-7.79,2.5,18.24,18.24,0,0,1-13.44,6.85c-.59,0-1.18,0-1.77,0a17.17,17.17,0,0,1-11.43-3,7.55,7.55,0,0,0-4.42-1.18c-13.16.07-26.32.08-39.47.18-1.2,0-1.3-.74-1.46-1.42-.59-2.4,1-6.27,3.06-7.75.61-.44,1.15-1,1.71-1.48a19.32,19.32,0,0,0-2.07-.83c-3-.83-6-1.55-9-2.47-1-.32-2.41-.59-2.6-2.05s1.17-2,2.13-2.49a69.9,69.9,0,0,1,7.18-3.36c5.3-2.06,10.59-4.16,16-5.88s11.13-3,16.69-4.57a99.53,99.53,0,0,1,14.68-2.74,33.76,33.76,0,0,0,4.46-1.19c2.9-.77,5.78-.44,8.73-.2,2.67.22,5.41-.42,8.12-.67,1-.1,2.1-.16,3.15-.24,2.73-.21,5.46-.37,8.18-.64,3.28-.32,6.56-.72,9.83-1.12a14.9,14.9,0,0,0,2.87-.51,8.6,8.6,0,0,1,7.08.57c.95.51,1.75.73,2.52-.4a3.6,3.6,0,0,1,1.74-1c2.24-.81,2.71-.6,2.72,1.69a2.59,2.59,0,0,0,2.24,2.88c2.16.6,4.25,1.48,6.42,2.07a9.48,9.48,0,0,0,4,.49c4.39-.83,8.81-.31,13.2-.51a18.55,18.55,0,0,0,3.19-.38,4.05,4.05,0,0,0,3.25-4,59.38,59.38,0,0,0-.3-6.43c-.06-1.25,0-2.52-.14-3.76-.29-2.32-.71-4.63-1.08-6.94,0-.29-.12-.58-.16-.87-.35-3.12.51-3.83,3.66-3.22,8.72,1.71,17.45,3.37,26.17,5.08,1.24.24,2.44.73,3.67,1,7.37,1.92,14.82,3.54,22.08,5.8,7.92,2.47,15.68,5.44,23.45,8.36,3.37,1.26,6.6,2.9,9.87,4.41.93.43,1.74.8,2.75.17,3.31-2.06,7-2.37,10.77-2.27,2.4.06,2.43,0,2.44-2.46,0-4,0-8,0-12,0-3.16,1.13-4.28,4.23-4.29q10.75,0,21.51,0c2.58,0,2.62,0,2.63,2.66,0,5,0,10,0,15Z" fill="#d41308"/></svg>