<svg id="Layer_1" data-name="Layer 1" xmlns="http://www.w3.org/2000/svg" viewBox="0 0 300 300"><title>Cars</title><path d="M32.82,181.76c-3.24,0-6.48.05-9.72,0a35.87,35.87,0,0,1-4.8-.49c-2.14-.34-2.14-.39-2.19-2.34s-.08-3.82-.15-5.74c-.09-2.25.8-3.4,2.93-3.55,1.31-.09,2.63,0,3.95,0a3.34,3.34,0,0,0,2.87-3.23c0-.35-.83-.87-1.26-.86-3.63.11-7.25.32-10.87.49a8.8,8.8,0,0,1-1.82-.05c-1.58-.26-2.26-1.62-1.33-2.88a6.5,6.5,0,0,1,2.29-1.89,70.61,70.61,0,0,1,12.28-5c6.47-1.82,12.87-3.91,19.34-5.73,3.77-1.06,7.64-1.78,11.46-2.69.73-.17,1.9-.32,2.05-.76.37-1.07.69-2.36-.39-3.36-.19-.18-.4-.34-.6-.51.38,0,1-.23,1.1-.08.51.8,1.32,1.73,1.22,2.52-.21,1.61.53,1.74,1.67,1.55a12.62,12.62,0,0,0,2.63-.68c3.71-1.47,7.45-1.34,11.32-.65a49.51,49.51,0,0,0,7.7.38c1.2,0,2.41-.23,3.62-.22s1.78-.61,1.77-1.86c0-2.13,0-4.25.09-6.38,0-.21.34-.41.53-.62.13.23.37.46.36.68-.1,1.81-.34,3.61-.34,5.42,0,2.34.34,2.71,2.58,2.73,5.06,0,10.13.07,15.19,0,1.33,0,2.7,0,3.82-1.32.47-.55,2.09-.37,3.12-.17,3,.59,6,1.51,9,2,1.11.17,2.65-1.1,3.49-.69a6.4,6.4,0,0,0,3.39.82c.87-.06,1.47-.33.6-1.26a2.53,2.53,0,0,1-.21-.22c-1.65-2.27-.86-4.08,2-4.53,1-.15,2,0,3-.07,1.43-.09,1.9.55,2,2,.2,2.27.52,2.45,2.67,2.95a4.65,4.65,0,0,1,1.93.72c1.27,1.07,2.41.75,3.59,0a18,18,0,0,0,1.48-1c3.71-3,7.81-5,12.77-4.52,1.13.1,2,.13,2.21-1.55.29-2.17,1.69-2.79,3.91-2.38,1.58.29,3.17.52,4.77.69.26,0,.62-.4.81-.7.05-.08-.26-.55-.48-.65-.46-.19-1-.2-1.46-.36a2.41,2.41,0,0,1-1.88-2.46c.09-3.62-.49-7.28.55-10.86.19-.66.55-1.58.27-2-1-1.47,0-1.94,1-2.56,1.84-1.18,3.89-1.06,5.89-.78a52.37,52.37,0,0,1,5.3,1.21c.24.06.58.32.6.51s-.23.5-.43.68-.6.25-.76.48c-.44.62-.8,1.29-1.19,1.94a8,8,0,0,0,1.91.5c5.16.05,10.33.1,15.49,0a15.19,15.19,0,0,1,5.89,1.15c2.14.84,4.37,1.46,6.55,2.22.57.2,1.07.56,1.62.79a53.73,53.73,0,0,0,8.55,3.26,45.94,45.94,0,0,1,5.83,2.3c4,1.52,8,3,12,4.51,3.1,1.19,6.18,2.46,9.28,3.65.55.21,1.2.19,1.76.38.92.31,2.07.47,2.67,1.11,1.86,2,4.13,1.19,6.27,1.13.29,0,.83-.89.79-1.32-.11-1.09-.62-2.15-.72-3.24-.2-2.1-.26-4.22-.32-6.33,0-.37.14-1,.4-1.09,2.77-1.42,1.48-4.2,2.09-6.31.52-1.8.35-2.16,2.1-2.15,5.76,0,11.53.31,17.28.18,2.31-.05,4.65.52,7-.34,1.31-.48,2.89.85,4.34-.14,0,0,.7.62.72,1,.15,2.42.1,4.85.31,7.26a45.83,45.83,0,0,1-.12,6.67c-.22,3.71.21,7.46.22,11.2,0,2.72-.24,5.44-.3,8.16-.05,2.3-.06,4.6,0,6.9,0,1.42-.27,2.36-1.92,2.41-2,.07-4,.27-6,.34-.79,0-1.58-.18-2.37-.23-2.08-.11-2-.1-2,2,.08,2.83.19,5.68,0,8.5A10.6,10.6,0,0,1,276,180a1.9,1.9,0,0,1-1.57.57c-2.68-.29-4.77.83-7,2.21-3.79,2.34-7.85,4.36-12.53,3.86-3.18-.34-6.38-.79-9.25-2.46-2.13-1.24-4.34-2.14-6.91-1.24a7.63,7.63,0,0,1-2.42.07L92.89,183a3,3,0,0,1-.61,0c-.72-.15-1.43-.32-2.14-.49.64-.45,1.22-1.14,1.92-1.3A40.23,40.23,0,0,1,99.15,180c3.84-.17,7.24-1.67,10.76-2.88a2.18,2.18,0,0,0,1.62-2.29,2.68,2.68,0,0,0-1.69-2.63,61.48,61.48,0,0,0-12.92-4.25,11.85,11.85,0,0,0-1.51-.11c-1.34-.1-1.9.1-.44,1.11,0,2.21.09,4.42,0,6.63,0,.26-.76.71-1.15.7-1.2,0-2.39-.27-3.58-.42-1.55-.2-2.82-.16-3.91,1.46A22.57,22.57,0,0,1,82,181.84c-4.79,4-10.54,4.77-16.28,3.42-8.83-2.07-14.55-8.3-15.53-17.79C50,165.72,50,165.72,48,165.9a8.33,8.33,0,0,1-1.21,0c-2.38-.13-4.63.12-6.47,1.91a8.77,8.77,0,0,1-1.86,1.08c.68,1,1.46.13,2.19.12,1.72,0,3.44-.06,5.16,0a1.73,1.73,0,0,1,1.9,1.88c.09,2.62.28,5.25.21,7.86-.07,2.21-1,3-3.26,3C40.72,181.78,36.77,181.76,32.82,181.76Z" fill="#d41308"/></svg>