<svg id="Layer_1" data-name="Layer 1" xmlns="http://www.w3.org/2000/svg" viewBox="0 0 300 300"><title>Cars</title><path d="M289.12,135c-1.45.2-2.9.43-4.36.6-1.93.22-2.3,0-3.05-1.81a1,1,0,0,0-1.06-.78c-.43,0-.86,0-1.29,0-5,.26-10,.53-15,.77-3,.14-6,.29-9,.33a1.9,1.9,0,0,0-2.07,1.4c-.6,1.74-1.24,3.47-2,5.16-.38.9-.1,1.31.69,1.73a6.81,6.81,0,0,1,1.48,1.33c.07.07,0,.33-.08.48a.33.33,0,0,1-.32.08q-.71-.41-1.38-.88c-.76-.52-1.47-1.1-2.26-1.56-1-.55-1.2-.51-1.75.5-.72,1.34-2,2.39-1.93,4.18,0,.58-.88,1.19-1.38,1.77-.1.12-.38.11-.45.23a1.8,1.8,0,0,0-.09.62c-.17-.21-.47-.4-.5-.63a29.11,29.11,0,0,1-.38-3.27c-.07-1.66,0-3.32-.06-5,0-1.06-.28-1.29-1.34-1.34a25.23,25.23,0,0,0-3.13,0L213.35,127.6l-43.43,1.75,3.14.67c-.89,0-1.78,0-2.68,0-.52,0-.63-.25-.46-.7.28-.75.51-1.51.84-2.24s.17-1.08-.52-1.26-1.27-.43-1.41-1.24a1,1,0,0,0-.7-.07,3.15,3.15,0,0,1-3.62-.37,1.31,1.31,0,0,0-.6-.14c-.3,1.07-1.75,1.29-1.78,2.65a3.49,3.49,0,0,1-1,2.32c-1.25,1.12-1.13,2.52-1,3.82.17,1.75.75,3.46,1,5.21a7.42,7.42,0,0,1-.12,2.14c0,.19-.3.49-.46.48a16.82,16.82,0,0,0-5,.87,1.36,1.36,0,0,1-.55,0A88.87,88.87,0,0,0,143.44,140a6.29,6.29,0,0,1-1.74-.53,9.77,9.77,0,0,0-1.49-.54q-6.7-1.09-13.41-2.09c-.43-.07-1.12,0-1.33.26a2.16,2.16,0,0,1-1.77.76,12.48,12.48,0,0,0-6.47,2.36c-3.42,2.67-6.82,5.38-10.27,8-.44.34-.88,1.48-1.74.4,0,0-.3.11-.46.17a4.08,4.08,0,0,1-1.13.42c-2.81.15-5.63.27-8.44.35-2.19.06-4.38,0-6.57.08-.61,0-1.22.1-1.83.12-2.45.08-4.9.16-7.35.21a4.6,4.6,0,0,1-1-.29,17.21,17.21,0,0,0-2-.43,14.75,14.75,0,0,0-5.08.31c-1.85.42-1.87.35-1.91-1.65,0-.86,0-1.72-.07-2.58s-.39-1-1.08-.83A1.22,1.22,0,0,0,67.16,146c.1,1,.18,2.07.29,3.11.16,1.52,0,1.72-1.52,1.7a22,22,0,0,0-8.79,1.55,15.26,15.26,0,0,0-8,7c-.73,1.39-1.41,2.62-3.18,2.69a1.74,1.74,0,0,0-.5.22L33,167.27a1.92,1.92,0,0,1-1,.27c-2.25-.6-4.38.16-6.54.51a3.1,3.1,0,0,0-2.5,2.69A1.23,1.23,0,0,1,21.7,172a6.05,6.05,0,0,1-1.1,0c-1.83-.1-3.66-.25-5.49-.32-1.23,0-2.46,0-3.68,0s-1.46.36-1.43,1.48c.08,2.88.21,5.76.39,8.63.07,1.08.29,1.28,1.36,1.29,3,0,6,.05,9,0,2.56-.06,5.13-.25,7.69-.38l7-.24,3.81-.06c.54-.1.63-.36.65-1.15a4.58,4.58,0,0,0-.06-.91c-.28-1.51-.28-1.51,1.3-1.54,1,0,2.08,0,3.12,0s1.92.29,2.53-.91c.24-.48,1-.26,1.38.27,1,1.37,2.06,2.73,3.09,4.1,0,0,16.28,11.36,29-2.27,0-.14.14-.28.43-.45a29.91,29.91,0,0,0,3.29-2,4,4,0,0,1,2.52-.91,3.92,3.92,0,0,0,2.78-2.28c.23-1,.27-1,1-.5a2.58,2.58,0,0,1,1.49,2.54c-.05.67,0,1.35,0,2s.08,1.09.84,1.13c.5,0,.46.28.15.54s-.62.4-.89.65c-.54.51-.5.84.17,1a6,6,0,0,0,1.8.3c1.16,0,2.32-.2,3.48-.25,3.61-.15,7.23-.26,10.84-.39l9.92-.35c3.55-.13,7.11-.24,10.66-.38,5.63-.23,11.26-.49,16.9-.72l18.19-.74,8.08-.36c5.88-.26,11.76-.5,17.64-.78,4.65-.22,9.3-.48,14-.7q8.27-.39,16.53-.76c4.17-.18,8.35-.19,12.5-.56a6.4,6.4,0,0,1,.64,0l14.75-1,2,2.71c5.61,8.14,17.38,6.16,17.38,6.16.31-.15.61-.32.92-.45a18.09,18.09,0,0,0,8.92-7.36,17.91,17.91,0,0,0,2.55-11.46c-.05-.61-.4-1.5-.13-1.75s1.22-.29,1.86-.4l.18,0c.6-.16.91-.66.53-1.09-.66-.75-.5-1.59-.56-2.43a15.08,15.08,0,0,1,.85-5.57,17.47,17.47,0,0,1,2.56-5.22,5,5,0,0,0,.63-1.11q2.12-5.59,4.2-11.19C290.17,135.16,289.92,134.9,289.12,135Zm-142.63,9.91c-.38.48-.72,1-1.13,1.45a4.68,4.68,0,0,1-3.61,1.86c-2,0-4,.27-6,.42v-.1c-1,0-2.09,0-3.13,0a1.66,1.66,0,0,1-1.66-.89c-.41-.69-.37-1.07.4-1.18,1-.14,1.22-.64,1.16-1.5a10.18,10.18,0,0,0-.06-1.47c-.07-.3-.34-.76-.57-.79a9.7,9.7,0,0,0-2.51-.1c-.8.09-1.36.52-1.11,1.52a1.28,1.28,0,0,1-.72,1.52,3.87,3.87,0,0,0-1,1.08c-.63.85-1.21,1.62-2.49,1.52-.59,0-1.23.61-1.84.61a30.09,30.09,0,0,1-3.63-.4c-.11,0-.28-.08-.31-.16a1.55,1.55,0,0,0-2.13-1.12c0-.2-.14-.46-.05-.59a12.36,12.36,0,0,1,1.45-2.12,10.07,10.07,0,0,1,4.07-2.74,17.08,17.08,0,0,1,8.51-.69c5,.87,10,1.59,15.06,2.37a8.45,8.45,0,0,1,.9.16C147.1,143.88,147.16,144.08,146.49,144.92Z" fill="#d41308"/></svg>