<svg id="Layer_1" data-name="Layer 1" xmlns="http://www.w3.org/2000/svg" viewBox="0 0 300 300"><title>Cars</title><path d="M41.45,169.22c2.05-.08,4.1-.19,6.15-.23a13.79,13.79,0,0,1,2.5.21c.21,0,.48.4.53.65a8.54,8.54,0,0,1,.05,1.43q.1,3.81.21,7.62c0,1.25-.46,1.73-1.86,1.73l-17,0c-3.5,0-7,0-10.5,0-2.48,0-5,.07-7.43.1-1.27,0-1.89-.52-1.89-1.79,0-2.86.08-5.71.11-8.57a.76.76,0,0,0-.33-.55c-.26-.16-.65-.13-.89-.3-1.24-.89-1.55-2-.19-2.91q3.24-2.25,6.56-4.39a51.59,51.59,0,0,1,5-3c1.76-.87,3.65-1.48,5.49-2.2.39-.16.79-.31,1.17-.48s.82-.06.52-.65c0,0,.09-.07.12-.06,1.53.34,2.64-.92,4.06-1.1a12.13,12.13,0,0,0,3.33-1c3-1.31,6.22-1.65,9.19-2.92a.68.68,0,0,1,.3-.08c1.64.16,3.07-.71,4.61-1a10,10,0,0,0,2.17-.37c1.57-.68,3.3-.45,4.89-.95a9.66,9.66,0,0,1,1.55-.28,27.41,27.41,0,0,1,3.07-.38,13,13,0,0,0,2.93-.48c1.37-.35,2.8-.51,4.19-.79.87-.18,1.71-.46,2.57-.68a8.52,8.52,0,0,1,1.07-.21c1.15-.14,2.3-.34,3.45-.37s2.4.09,3.6.15c.05,0,.1,0,.15,0,3.17-.12,6.11,1.39,9.34,1.18,3-.2,6.11-.08,9.16-.17,4.86-.14,9.72-.23,14.59-.2a9.9,9.9,0,0,0,5-1.23,1.64,1.64,0,0,1,2.16.17,1.91,1.91,0,0,0,1.31.38,9.11,9.11,0,0,1,4.56,1.05,2.23,2.23,0,0,0,.74.24c1.58.13,3.16.23,4.74.34.47,0,.95.08,1.42.1s1.24,0,1.86,0a4.21,4.21,0,0,1,1.25-.08c1.43.46,2.82-.14,4.24-.06a4.57,4.57,0,0,0,1.07-.24c.52-.1.69-.37.85-.93.56-2,1.79-2.82,4-3,.73-.05,1.46-.26,2.19-.26,1.47,0,1.56.21,1.84,1.64.13.66-.5,1.55.25,1.9.45.21,1.19-.18,1.8-.29s1-.16,1.54-.26c.31-.06.62-.28.91-.24,2.46.3,4.67-.77,6.95-1.32a22.51,22.51,0,0,0,4.08-1.05c.43-.19.85-.41,1.26-.64a1.1,1.1,0,0,0,.58-1.19,6.35,6.35,0,0,1,.16-1.7c.3-1.55.69-3.09.95-4.65a1.14,1.14,0,0,1,1-1.06,12.46,12.46,0,0,1,2.35-.06c1.16.06,2.31.26,3.46.28s1.27-.21,1.43-1.35.26-2-1.05-2.48c-.16-.06-.26-.56-.25-.84.1-2,.25-3.9.36-5.85,0-.63,0-1.27,0-1.91,0-1.09.36-1.71,1.43-1.84a10.94,10.94,0,0,1,5.55.66c1.71.7,3.44,1.32,5.14,2s3.07,1.4,4.61,2.08c.52.23,1.09.33,1.61.55.36.15.65.44,1,.6,2.55,1.15,5.11,2.26,7.65,3.43,1,.46,1.95,1.05,2.93,1.55,1.83.92,3.66,1.82,5.5,2.71,2.11,1,4.26,2,6.33,3.09s4.14,2.41,6.2,3.63c.09.05.19.19.26.17,1.61-.38,2.35,1.08,3.51,1.64s2.3,1.28,3.43,2c.71.42,1.31,1.05,2.25,1a.86.86,0,0,1,.55.29c1.58,1.53,3.65,2.24,5.48,3.36,1.65,1,3.35,1.93,5,3,.65.42,1,.3,1.45-.21,2.72-2.84,5.69-5.24,9.71-6.14a26.19,26.19,0,0,1,6.54-.85c1.42,0,2.84.23,4.25.38.95.1,1.19,0,1.28-.81.15-1.26.28-2.52.31-3.79.05-2.28.08-4.56,0-6.84a3.83,3.83,0,0,1,1.89-3.29,2,2,0,0,1,1.2-.27c2.79.07,5.58.2,8.37.26,2.54.05,5.09,0,7.64,0,.42,0,.85,0,1.27,0a.65.65,0,0,1,.68.72c0,.37,0,.74,0,1.11q0,13.44,0,26.89c0,1.63,0,1.69-1.59,2-1,.17-2.11.08-3.16.2a4.07,4.07,0,0,0-1.75.5c-.72.47-.68,1.12.06,1.47,2,.94,3.48,2.5,5.32,3.6a1.61,1.61,0,0,1,.85,1.56c0,4,0,8.06,0,12.09,0,1.08-.07,1.12-1.21,1.16-3.54.11-7.08.22-10.63.31a16,16,0,0,1-3.13.12c-.6-.1-1.38.48-2,.88a20.54,20.54,0,0,1-7.12,2.53,19.71,19.71,0,0,1-9.77-.74,5.85,5.85,0,0,0-3.71-.3,4.94,4.94,0,0,1-1.58.06H93.36c-.5-.09-1.32,0-1.43-.3-.28-.66.55-.76.94-1a1.53,1.53,0,0,0,.75-1.45c0-1.8,0-3.61,0-5.41a5.65,5.65,0,0,0-.14-1.1c-.12-.56-.36-1-1.05-.94a3.09,3.09,0,0,1-.94-.14c-.39-.11-.52.05-.69.4a22.88,22.88,0,0,1-2,3.77c-2,2.71-4.3,5.2-7.5,6.63a21.21,21.21,0,0,1-8.52,2.06c-5.18,0-9.91-1.36-13.73-5.11a23.44,23.44,0,0,1-3.23-3.67,22.42,22.42,0,0,1-3.31-8c-.28-1.35-.27-1.36-1.59-1.36-2.07,0-4.14,0-6.2,0-1.08,0-2.16.24-3.24.37Zm60.11,9.88a4,4,0,0,0-2.19-3.32c-.92-.49-1.74-1.47-3-.95-.17.07-.47-.18-.7-.29-1.21-.52-1.68-.26-1.65,1.09,0,2,.19,3.9.28,5.85a.67.67,0,0,0,.83.71c1.61-.14,3.23-.22,4.83-.46S101.55,181.24,101.56,179.1Z" fill="#d41308"/></svg>