<svg id="Layer_1" data-name="Layer 1" xmlns="http://www.w3.org/2000/svg" viewBox="0 0 300 300"><title>Cars</title><path d="M10,160.34c0-1.31,0-2.61,0-3.92a3.31,3.31,0,0,1,2-3.14c5.33-2.52,10.54-5.36,16-7.44a184.11,184.11,0,0,1,24.5-7.74c.22-.05.54-.06.64-.21.89-1.33,2.16-.93,3.46-1a19.27,19.27,0,0,0,5.76-1.29A23.7,23.7,0,0,1,72,133.51c4,.13,7.87-1,11.79-1.62,3.54-.55,7.08-1.09,10.63-1.6,3.78-.54,7.56-1,11.34-1.56,1.59-.22,3.17-.5,4.76-.66,3.8-.37,7.61-.64,11.41-1,3.56-.37,7.11-.87,10.67-1.28,1.66-.19,3.33-.32,5-.44,2.82-.21,5.66-.27,8.46-.63a14.15,14.15,0,0,0,4.73-1.37c3.79-2,7.46-4.21,11.16-6.36.46-.26,1-.56,1.23-1,1.6-3.58,4.59-6.1,6.88-9.14.28-.37.48-.79.78-1.14s.76-.87,1.35-.43.38.89,0,1.39c-1.26,1.71-2.47,3.46-3.73,5.17-.5.68-.68,1,.2,1.74s1.47,2.29,2.22,3.45,1.62,2.42,2.48,3.59c.14.19.53.19.8.28.06-.28.23-.61.15-.85-.56-1.67-1.2-3.31-1.75-5a8.82,8.82,0,0,1-.38-2,1.36,1.36,0,0,1,1-1.58,1.55,1.55,0,0,1,1.78.75,4.79,4.79,0,0,1,.47,1.27c1.39,4.46,2.75,8.93,4.15,13.39.44,1.39.48,1.34,1.89,1a13.71,13.71,0,0,1,2.49-.33c2-.05,4,0,6,0l26.9-.46c1.9,0,1.84-.07,2.57-1.92s1.58-3.47,2.32-5.23a6.8,6.8,0,0,0,.55-2.19c.22-3.9.36-7.8.55-11.7.08-1.72.32-1.95,2.06-2a13.52,13.52,0,0,1,1.84,0,8.16,8.16,0,0,0,4.33-.56,6.85,6.85,0,0,1,3.83-.26c2.07.4,4.25.33,6.17,1.54a8.84,8.84,0,0,0,2.89.63c3.29.66,6.61,1.25,9.88,2,2,.47,4,1.19,5.94,1.79a66.82,66.82,0,0,1,10.14,4.3c.95.47,2,.73,3,1.17.53.24,1.26.52,1.44,1a6.46,6.46,0,0,0,2.32,2.47,29.76,29.76,0,0,1,6.61,8.19c.56.92,1,1.82,2.13,2.26a2,2,0,0,1,1,2.57c-.38,1.45.18,2.67.51,4,.85,3.33,1.38,6.75,2.42,10a19.35,19.35,0,0,1,.69,6A17.52,17.52,0,0,1,285.88,163c-3.1,3.58-7,5.53-11.38,7a76.33,76.33,0,0,1-12.48,3,3.43,3.43,0,0,0-2.46,1.39,27.78,27.78,0,0,1-8.33,7.46,26.79,26.79,0,0,1-12.41,3.73,25.56,25.56,0,0,1-13.77-2.9,43.2,43.2,0,0,1-6.74-4.74,4.38,4.38,0,0,0-3.08-1.16c-3,.07-6-.2-9,.12-5.75.61-11.51,0-17.23.46-8,.63-15.95.16-23.92.33q-4.36.09-8.72,0c-2.42-.05-4.83-.28-7.25-.34-1.29,0-2.59.13-3.89.21-.53,0-1.07.13-1.6.12-3.83-.11-7.65-.33-11.47-.36-8.91-.07-17.81,0-26.72-.08-3.6,0-7.19-.23-10.78-.45a4.09,4.09,0,0,0-3.42,1.44,28.17,28.17,0,0,1-15.43,8.09A23.67,23.67,0,0,1,63.62,185,28.32,28.32,0,0,1,51,175.4a3.07,3.07,0,0,0-2.26-1.31c-4.47-.52-8.94-1.12-13.4-1.73-3.48-.47-7-.76-10.42-1.54-4.32-1-8.55-2.37-12.8-3.65A2.72,2.72,0,0,1,10,164.26c0-1.3,0-2.61,0-3.92Z" fill="#d41308"/></svg>