<svg id="Layer_1" data-name="Layer 1" xmlns="http://www.w3.org/2000/svg" viewBox="0 0 300 300"><title>Cars</title><path d="M104.07,179.78c-4.64-.82-9.14-1.58-13.61-2.43a2,2,0,0,0-2,.6c-1.61,1.54-3.18,3.42-5.14,4.22-3.82,1.55-7.8,3.19-12.1,2.39a60,60,0,0,1-7-1.9c-1.39-.44-2.66-1.82-4.14-.16-.13.15-.55.06-.84.05l-40.78-.23c-.39,0-.78,0-1.17,0A2.47,2.47,0,0,1,14.53,181c-.58-1.18-.73-2.3.27-3.23,1.23-1.14.87-2.08.08-3.31-1-1.53-1.49-3.39-3.76-3.65-.43,0-1-.93-1.08-1.49a3.9,3.9,0,0,1,2.85-4,34.8,34.8,0,0,0,4.28-1.72,62.94,62.94,0,0,1,6.92-3.09c1.66-.51,3.29-1.57,5.19-1.17.19,0,.57,0,.58-.12.33-1.65,1.86-1.58,3-2,4-1.57,8-3.13,12-4.56,2.38-.84,4.87-1.38,7.29-2.14a18,18,0,0,0,6.06-2.76c1.51-1.2,3.28-2.07,4.87-3.18a13.31,13.31,0,0,0,1.75-1.75c.18-.19.46-.57.53-.54,2.44,1.24,4.91-.44,7.35.07a11.49,11.49,0,0,0,2,0c1,0,1.42-.23,1.17-1.39a12,12,0,0,1,0-2.81c1.51.35.9,1.77,1.24,2.66.67,1.77.56,1.76,2.44,1.62,2.6-.19,5.24-.19,7.69-1.24a31,31,0,0,1,4.32-1.44,5,5,0,0,1,2.6.07,2.16,2.16,0,0,0,.91,0q5.66-1.28,11.31-2.59a3.52,3.52,0,0,1,3.5.81,4.49,4.49,0,0,0,2.7.7c1.21,0,1.78.44,1.9,1.67a3,3,0,0,0,2.73,2.86c2.38.44,4.69,1.24,7,1.85.24.06.54-.09.81-.15a4.32,4.32,0,0,0-.49-.66c-.35-.33-.84-.55-1.08-.94a1.12,1.12,0,0,1,.11-1c1-1.22,5.12-2,6.49-1.35.88.44,1.15,3,.4,3.78-.18.19-.38.36-.58.54.3.18.58.48.9.53,6.21.85,12.46.67,18.7.58,1.71,0,3.52-.22,4.88-1.57a1.88,1.88,0,0,0,.66-2c-.64-2.56-.5-5,1.55-7.09.26-.26.15-1.05,0-1.54-.8-2.61-1.74-5.18-2.47-7.8a16.52,16.52,0,0,1-.5-4,1.54,1.54,0,0,1,2-1.64,62.59,62.59,0,0,1,9.94,1.93,64,64,0,0,0,9.12,2c.75.13,1.63-.5,2.41-.4s1.23.89,1.92,1.09c5.43,1.57,10.93,2.92,16.32,4.65,4.61,1.48,9.36,2.61,13.6,5.17,1.81,1.09,4,1.51,6,2.35,5,2.16,10,4.48,15,6.54,2.49,1,4.86,2.43,7.64,2.65,1.12.09,1.47,1.66,2.95,1.48a3.29,3.29,0,0,0,1.68-.35,21.47,21.47,0,0,1,19.5-2.21c1.65.59,1.71.59,1.69-1.2,0-1.95-.2-3.89-.22-5.84,0-2.68-.11-5.37.09-8a9.88,9.88,0,0,1,1.25-3.5,3.37,3.37,0,0,1,2.76-1.79c2.36-.4,4.63.09,6.94.08,4.49,0,9,0,13.46,0,2.06,0,2.26.18,2.22,2.15-.08,3.31-.3,6.62-.46,9.92,0,.88,0,1.76,0,2.64,0,6.42,0,12.85,0,19.27,0,1.83-.1,2.55-2.24,2.48-.58,0-1.5.25-1.71.67a2.19,2.19,0,0,0,.77,2.61c.68.63,1.38,1.22,2.08,1.83l-2.78,1.38c-2.43,1.21-4.85,2.45-7.3,3.62-.87.42-.94,1.09-1,1.91-.05,3.1-.16,6.2-.23,9.31,0,1.12-.6,1.54-1.67,1.54-2.93,0-5.87-.07-8.8,0a13.55,13.55,0,0,0-4,.62,23.65,23.65,0,0,1-17.35-.65,4,4,0,0,0-1.67-.45c-5,.39-9.9-.24-14.86-.11s-9.78,0-14.67,0-10,.14-15-.07c-20.91-.87-41.84,0-62.74-.68-13.1-.44-26.19-.1-39.27-.43-.9,0-2.39.42-2.48-.83-.11-1.59,1.44-1.06,2.44-1.2C99.38,180.6,101.66,180.18,104.07,179.78Zm176.47-17.93c-3.39-.3-3.84.18-3.3,3.43.64,3.85.64,3.84,4.23,2.22,1-.47,2-.74,2-2.35C283.49,162.13,283.63,162.13,280.54,161.85Z" fill="#d41308"/></svg>