<svg id="Layer_1" data-name="Layer 1" xmlns="http://www.w3.org/2000/svg" viewBox="0 0 300 300"><title>Cars</title><path d="M10,177.17a79.68,79.68,0,0,1,13.39-8.47c3.73-1.89,7.41-3.9,11.23-5.59,6.23-2.76,12.53-5.36,18.85-7.92a5.81,5.81,0,0,0,2.66-2.06A58,58,0,0,1,61,147.37c.61-.63,1.82-.63,2.57-1.18,2.1-1.56,4.66-1.78,7-2.31a17.71,17.71,0,0,1,6,.19,14.3,14.3,0,0,1,4.47,1.29c3.09,1.55,6.22.88,9.35.53,2.6-.29,5.19-.74,7.79-1,3.1-.29,6.21-.39,9.31-.66a2.58,2.58,0,0,0,1.75-.78c.79-1.16,1.58-.79,2.51-.33,2.7,1.32,5.31,2.92,8.43,3.12.51,0,1.23.64,1.34-.32,0-.29-.69-.69-1.08-1a6,6,0,0,1-1.26-1.09c-.72-1.15-.45-2,.88-2.47a18.17,18.17,0,0,1,3.91-1.08c1.49-.2,1.89.23,2.27,2,.24,1.1.72,2.35-1.07,2.79a1.61,1.61,0,0,0-.92,1.18c-.07.94.76,1,1.45,1,3.81,0,7.61,0,11.42-.07,2.72-.07,5.43-.52,8.14-.45s5.49-1.14,8.34-.67c1.36.23,2-.85,2-2-.09-3.86.76-7.76-.76-11.56a59.84,59.84,0,0,1-2.15-7.23,1.49,1.49,0,0,1,.66-1.3,19.84,19.84,0,0,1,4-.68,46.89,46.89,0,0,1,11,.91c3.15.57,6.4.66,9.5,1.4,4.63,1.1,9.22,2.42,13.73,3.95s9.11,3.43,13.62,5.27c4.21,1.72,8.36,3.61,12.55,5.39s8.26,3.45,12.38,5.22c2.06.88,4.07,1.87,6.11,2.8,1.18.54,2.24.79,3.43-.26a31.11,31.11,0,0,1,3.91-2.49c3.67-2.35,7.66-2.88,12-2.47a24.21,24.21,0,0,1,8.1,2.28c2,.94,2.15.87,2.17-1.26,0-4.59,0-9.18,0-13.76,0-.68,0-1.37,0-2,.11-2.5,1.31-3.75,3.81-3.79,3.49-.06,7,0,10.46,0,2.54,0,5.07-.07,7.61-.12a2.36,2.36,0,0,1,2.1,2.59,21.49,21.49,0,0,0-.46,3.39c0,6.15,0,12.3,0,18.45,0,1.94.3,3.87.48,5.8.13,1.38-.33,2.07-1.84,2.36-3.23.61-6.42,1.46-9.61,2.27a4.4,4.4,0,0,0-1.17.75,4.17,4.17,0,0,0,.76,1.09,3.13,3.13,0,0,1,1.42,2.43,3.64,3.64,0,0,0,.49,1.36c2.53,4.84,3.66,10.21,5.82,15.19.66,1.53.19,2.08-1.51,2.07-5.83,0-11.65-.06-17.48-.15a8.76,8.76,0,0,0-3.9,1c-5.05,2.32-10.33,3-15.55.81-3.64-1.5-7.19-2.28-11.06-1.28a10.82,10.82,0,0,1-2.63.08c-36.9,0-73.79-.09-110.69.2-8.07.06-16.16.3-24.25.38-3.6,0-7.19.06-10.79,0a10.51,10.51,0,0,0-4.48,1c-2.55,1.1-4.43,1.64-7.05,2.56a6,6,0,0,1-1.42.06c-4.36-1-8.86-1-12.61-3.95a5.94,5.94,0,0,0-2.76-.72c-1.32-.17-1.54.07-1.06,1.38s.38,1.83-1.14,1.78c-1.16,0-2.32.22-3.49.22-9.66,0-19.33,0-29,.09-2.51,0-5,.25-7.53.43-1.89.13-2.78-.58-3.06-2.59a5.22,5.22,0,0,1-.13-1.71c.24-1.14-.41-1.56-1.26-1.35-1.21.31-2.07-.27-3-.74Z" fill="#d41308"/></svg>