<svg id="Layer_1" data-name="Layer 1" xmlns="http://www.w3.org/2000/svg" viewBox="0 0 300 300"><title>Cars</title><path d="M15.91,170.27c3.35,1,6.85,2,10.27,2,4.33,0,7.65,1.15,10.23,4.6.74,1,1.76,1.77,2.56,2.72,1.31,1.53,2.55,3.11,3.82,4.67a49.36,49.36,0,0,0,32.63-.62,13.86,13.86,0,0,1,.94-1.4c4.54-5.3,9.79-8,16.92-5.1,1.61.66,3.7.19,5.57.19,33.21,0,66.42.14,99.63-.22,5.46-.06,8.93,2.3,12.49,5.48.25.23.5.87.37,1,0,0,12.51,5.95,35.25.68,1.08-1.08,2.17-2.15,3.25-3.23,1.31-1.33,3-2.46,3.84-4,1.62-3.17,4.12-3.66,7.24-3.54a81.3,81.3,0,0,0,10.58-.11c1.72-.16,4.58-1,4.81-2,.84-3.71,4-3.85,6.39-5.14a24,24,0,0,0,3.85-2c3-2.4,5-5.19,1.91-9.58-1.62-2.33-2.58-5.14-3.78-7.76-.86-1.88-1.45-3.9-2.47-5.67-5.89-10.26-14.66-17.08-25.57-21.48-6.57-2.65-13.4-4-20.23-5.64a71.66,71.66,0,0,0-17.88-1.57c-4.74.08-9.06,3.75-9,8.37a16.14,16.14,0,0,1-3,9.26c-4,6-9,10.85-17.26,9.82-4.36-.54-11.14-5.68-12.14-9.44-1.75-6.57-3.45-13.16-5.51-19.63-.62-2-2.34-3.55-3.56-5.31-.34,1.92-.65,3.85-1,5.77a7.83,7.83,0,0,1-.67,1.55,9,9,0,0,1-1.42-1c-2.7-2.92-5.63-3.61-9.37-1.77-5,2.44-10.16,3.36-15.66,1.51-1.93-.65-3.92-.73-5.62,1.33a6.52,6.52,0,0,1-4.23,1.89c-8.67.59-17.35,1-26,1.38-11.59.5-23.19.82-34.77,1.38A144.21,144.21,0,0,0,53.86,119c-3.17.5-6.64.75-8.89,3.81a5.81,5.81,0,0,1-2.68,1.51c-5.58,2-11.24,3.89-16.76,6.08a12,12,0,0,0-5,3.49c-3.31,4.36-7.91,8.23-6.81,14.69a2.34,2.34,0,0,1-.38,1.78c-3.06,3.18-2,7.49-3,11.2C9.11,165.85,11.36,169,15.91,170.27Z" fill="#d41308"/></svg>