<svg id="Layer_1" data-name="Layer 1" xmlns="http://www.w3.org/2000/svg" viewBox="0 0 300 300"><title>Cars</title><path d="M288.41,165.17c.29.18.51.49.81.64a.63.63,0,0,0,.6-.1,1.48,1.48,0,0,0-.77-2.08v-.71c.48-.38.38-1.28.38-3.42,0-5.72,0-11.44,0-17.15,0-.52,0-1,0-1.56-.05-.78-.11-1.17-.38-1.38v-5.78h-6.38v0l-.05,0h-8.73a4.52,4.52,0,0,0-1.91-.23h-.52c-1.72,0-2.6,0-3,.23h-2.67v5.81a2,2,0,0,0-.39,1.49c0,1.21.06,2.43,0,3.64-.07,1.42-.58,1.74-2,1.4-.34-.08-.66-.2-1-.29a18.09,18.09,0,0,0-7.68-.77,39.52,39.52,0,0,1-8.71,1,2.61,2.61,0,0,0-1.34.57c-.48.31-.43.35-.79-.19a.88.88,0,0,0-.56-.37c-.6-.06-1.21,0-1.82,0h-9.1a4.18,4.18,0,0,1-.71-.12,1.62,1.62,0,0,0,.42-.23c.6-.63.6-.64-.08-1a227.86,227.86,0,0,0-35.72-15.25,133.06,133.06,0,0,0-18.74-4.88,80.69,80.69,0,0,0-13.92-.86c-1.55,0-1.82.41-1.63,1.88.26,2,.52,4.09.75,6.13a.83.83,0,0,1-.21.66,18.71,18.71,0,0,1-2.57,1.62,4.39,4.39,0,0,0-2.65,4.72,37.93,37.93,0,0,1,.41,4.62c0,2.65-.24,2.88-2.81,3.19a8.59,8.59,0,0,1-1,0c-8,0-15.94,0-23.91,0-1.16,0-1.4-.32-1.24-1.44a3.77,3.77,0,0,0-.35-2.47,2.15,2.15,0,0,0-2.6-.61c-1.09.41-2.5.37-2.77,1.93a11.83,11.83,0,0,0-.08,1.45c-.58-.14-1.17-.24-1.73-.43a26.65,26.65,0,0,1-2.67-1c-3.61-1.63-3.6-1.71-7.69-1.61-4.31.1-8.63.35-12.94.53l-.52,0c-3.77.32-7.55.63-11.32,1-3.08.29-6.16.63-9.24.95a15.67,15.67,0,0,1-3.81.32,21.27,21.27,0,0,0-14.41,3,11.2,11.2,0,0,1-1.9.79c-4.46,1.6-9,3.1-13.39,4.81A115.41,115.41,0,0,0,12.42,172a8.82,8.82,0,0,0-2.07,2.62c-.67,1.24-.33,2.16.76,3.15a3.56,3.56,0,0,1,1,1.13c1.33,3.18,1.78,3.51,5.15,3.51,8.92,0,17.85,0,26.77,0,1.1,0,2.47.14,3.21-.43.56-.43.41-1.9.44-2.91s.62-1.27,1.52-1.26,1.55.2,1.51,1.27c0,.35,0,.69,0,1,.12,2,.29,2.23,2.25,2.29a7,7,0,0,0,2.07,0,4,4,0,0,1,3.34.83c7.48,4.59,15,4.64,22.49,0,1.45-.89,2.79-1.32,4.26-.64,3.34,1.54,6.83,1.45,10.39,1.48,18.77.15,37.54-.31,56.31.32,12.72.43,25.47.13,38.21.13q27.42,0,54.84,0a10,10,0,0,1,3.53.46c4.66,1.81,9.37,2.41,14.16.75a23.6,23.6,0,0,1,8.37-1.23c5.37.11,10.74,0,16.11,0,2.4,0,2.41,0,2.43-2.49,0-2.69,0-5.37,0-8.06a18,18,0,0,0-.3-2.23,17.74,17.74,0,0,0-2,1.08c-.8.57-.83.08-.83-.51,0-2,0-4,0-6C286.36,164.63,287,164.31,288.41,165.17Zm-6.53,11c-3.13,1.58-6,3.74-9.52,4.46a3,3,0,0,1-.74,0c.08-.21.09-.49.24-.63,3-3,4.4-6.68,5.26-10.75.54-2.55,2.77-3.87,5-4.84,1.28-.57,1.91,0,2,1.44s0,2.6,0,3.9a19.3,19.3,0,0,0,0,2.6C284.38,174.17,283.56,175.29,281.89,176.13Z" fill="#d41308"/></svg>