<svg id="Layer_1" data-name="Layer 1" xmlns="http://www.w3.org/2000/svg" viewBox="0 0 100 100"><g id="badoer"><path d="M94.58,43.54C92,33.56,82.12,15.27,55.38,14.72,37,14.34,25.42,25.41,20,32.33a31.62,31.62,0,0,0-4.11,7h38.6a2.31,2.31,0,0,1,2,3.41L45.21,63.58a7.17,7.17,0,0,1-6.3,3.74H6.08a33.41,33.41,0,0,0-.82,15.92,2.49,2.49,0,0,0,2.45,2H70.78a60.56,60.56,0,0,0,12-1.2L84,83.84a4.32,4.32,0,0,0,2.6-1.65C93.07,73.44,97.08,53,94.58,43.54Z" fill="#efe300"/><path d="M20,32.33c-.54.7-1.05,1.42-1.54,2.16H90.88a38.3,38.3,0,0,0-7.73-9.7H27.27A50.41,50.41,0,0,0,20,32.33Z" fill="#fff"/><path d="M74.68,71.23H91.82c3.12-9.51,4.48-21.2,2.76-27.69a38,38,0,0,0-2.18-6H61.72Z" fill="#fff"/><path d="M83.15,24.79Q82,23.72,80.63,22.72c-5.28-1.22-12.56-1.53-17-1.6H59.53L57,14.78l-1.67-.06c-.81,0-1.61,0-2.39,0l3.86,10.05Z" fill="#e2071c"/><path d="M63.59,21.12c4.48.07,11.77.38,17,1.6C75,18.47,67.3,15.29,57,14.78l2.48,6.34Z" fill="#057c57"/><path d="M74.68,71.23H91.82c.41-1.25.79-2.54,1.14-3.85H73.2Z" fill="#e2071c"/></g></svg>