<svg id="Layer_1" data-name="Layer 1" xmlns="http://www.w3.org/2000/svg" viewBox="0 0 100 100"><g id="gurney"><path d="M94.65,43.54C92,33.56,82.18,15.27,55.44,14.72c-18.42-.38-30,10.69-35.35,17.61-.28.37-.56.74-.83,1.12l-.17.24c-.27.38-.53.77-.77,1.16C16.64,37.08,7,37.74,4.94,38.07h0c-.49.09-.35.31-.21.43h0a1,1,0,0,0,.38.13L16,39.29l30.14,3.57a6,6,0,0,1,4.82,7.74L44.79,69.32a12.17,12.17,0,0,0,11.56,16h14.5a60.56,60.56,0,0,0,12-1.2l1.21-.25a4.32,4.32,0,0,0,2.6-1.65C93.14,73.44,97.15,53,94.65,43.54Z" fill="#021a42"/><path d="M20.09,32.33c-.28.37-.56.74-.83,1.12l-.17.24c-.27.38-.53.77-.77,1.16a2.92,2.92,0,0,1-.93.74l2.7.38c.21-.33.45-.69.72-1.08l.16-.23c.29-.4.53-.73.77-1,4.89-6.28,15.66-16.81,32.77-16.81h.88c11.2.23,20.37,3.69,27.23,10.29a37.53,37.53,0,0,1,10,17C95,53.22,90.37,72.46,85,80.94a29.23,29.23,0,0,1-2.48,3.22l.36-.07,1.21-.25a4.32,4.32,0,0,0,2.6-1.65c6.49-8.76,10.5-29.2,8-38.65C92,33.56,82.18,15.27,55.44,14.72,37,14.34,25.48,25.41,20.09,32.33Z" fill="#fff"/></g></svg>