<svg id="Layer_1" data-name="Layer 1" xmlns="http://www.w3.org/2000/svg" viewBox="0 0 100 100"><g id="larini"><path d="M94.58,43.52C92,33.55,82.12,15.26,55.38,14.71,37,14.32,25.42,25.4,20,32.32a31.62,31.62,0,0,0-4.11,7h38.6a2.31,2.31,0,0,1,2,3.41L45.2,63.57a7.17,7.17,0,0,1-6.3,3.74H6.08a33.41,33.41,0,0,0-.82,15.92,2.49,2.49,0,0,0,2.45,2H70.78a60.56,60.56,0,0,0,12-1.2L84,83.83a4.32,4.32,0,0,0,2.6-1.65C93.07,73.42,97.08,53,94.58,43.52Z" fill="#fff"/><polygon points="69.67 38.98 66.01 38.98 49.75 85.28 54.07 85.28 69.67 38.98" fill="#071c4f"/><path d="M94.58,43.52A37.22,37.22,0,0,0,93.05,39H70.3L54.7,85.28H70.78a60.56,60.56,0,0,0,12-1.2L84,83.83a4.32,4.32,0,0,0,2.6-1.65C93.07,73.42,97.08,53,94.58,43.52Z" fill="#071c4f"/><path d="M66.28,85.26h4.5a15.88,15.88,0,0,0,3.08-.1L85.13,46.83l10-.2a21.42,21.42,0,0,0-.55-3.12c-.18-.68-.39-1.4-.64-2.15H80.68Z" fill="#0037d3"/><polyline points="66.28 85.28 80.67 41.38 93.94 41.38" fill="none" stroke="#fff" stroke-miterlimit="10" stroke-width="0.6"/><polyline points="73.86 85.18 85.13 46.84 95.14 46.64" fill="none" stroke="#fff" stroke-miterlimit="10" stroke-width="0.6"/></g></svg>