<svg id="Layer_1" data-name="Layer 1" xmlns="http://www.w3.org/2000/svg" viewBox="0 0 100 100"><g id="giunti"><path d="M94.58,43.54C92,33.56,82.12,15.27,55.38,14.72,37,14.34,25.42,25.41,20,32.33a31.62,31.62,0,0,0-4.11,7h38.6a2.31,2.31,0,0,1,2,3.41L45.21,63.58a7.17,7.17,0,0,1-6.3,3.74H6.08a33.41,33.41,0,0,0-.82,15.92,2.49,2.49,0,0,0,2.45,2H70.78a60.56,60.56,0,0,0,12-1.2L84,83.84a4.32,4.32,0,0,0,2.6-1.65C93.07,73.44,97.08,53,94.58,43.54Z" fill="#101c14"/><path d="M54.52,39.29a2.31,2.31,0,0,1,2,3.41L45.2,63.58a7.17,7.17,0,0,1-6.3,3.74L49,67.21,56.39,50H72.46l4.69-10.56H93.23a40.08,40.08,0,0,0-4.32-8.08H53.4L51.21,34.9h-33a31.87,31.87,0,0,0-2.31,4.39Z" fill="#e2071c"/><path d="M67.93,63.9H93.79c1.63-7.64,2.09-15.47.79-20.36-.27-1-.61-2.1-1-3.25H78.2Z" fill="#fff"/><polygon points="53.4 66.28 65.4 66.28 72.06 51.11 57.49 51.11 50.5 67.21 53.11 67.23 53.4 66.28" fill="#fff"/><polyline points="52.8 67.58 58.37 55.37 70.19 55.37" fill="none" stroke="#101c14" stroke-miterlimit="10" stroke-width="0.3"/><line x1="57.89" y1="56.78" x2="70.19" y2="56.78" fill="none" stroke="#101c14" stroke-miterlimit="10" stroke-width="0.31"/><line x1="57.33" y1="57.97" x2="69.63" y2="57.97" fill="none" stroke="#101c14" stroke-miterlimit="10" stroke-width="0.31"/><line x1="56.77" y1="59.15" x2="69.07" y2="59.15" fill="none" stroke="#101c14" stroke-miterlimit="10" stroke-width="0.31"/><line x1="56.21" y1="60.34" x2="68.5" y2="60.34" fill="none" stroke="#101c14" stroke-miterlimit="10" stroke-width="0.31"/><line x1="55.64" y1="61.53" x2="67.94" y2="61.53" fill="none" stroke="#101c14" stroke-miterlimit="10" stroke-width="0.31"/><line x1="55.08" y1="62.71" x2="67.38" y2="62.71" fill="none" stroke="#101c14" stroke-miterlimit="10" stroke-width="0.31"/><line x1="54.52" y1="63.9" x2="66.82" y2="63.9" fill="none" stroke="#101c14" stroke-miterlimit="10" stroke-width="0.31"/><line x1="53.96" y1="65.09" x2="66.26" y2="65.09" fill="none" stroke="#101c14" stroke-miterlimit="10" stroke-width="0.31"/><path d="M88.18,59.74,86.37,63.9h1.31l1.29-3h5.4q.1-.6.2-1.2Z" fill="#e2071c"/><path d="M85.17,55.4l-3.7,8.5h1.31L86,56.6h9q.07-.6.12-1.2Z" fill="#e2071c"/><path d="M76.08,63.9h1.31l5.43-12.48H95.32q0-.61,0-1.2H82Z" fill="#e2071c"/><path d="M71.41,63.9h1.31l7.9-18.16H95c-.06-.41-.13-.81-.21-1.2h-15Z" fill="#e2071c"/><line x1="76.08" y1="41.85" x2="56.82" y2="41.85" fill="none" stroke="#101c14" stroke-miterlimit="10" stroke-width="0.6"/><rect x="35.65" y="35.43" width="1.18" height="3.86" fill="#fff"/><rect x="30.69" y="35.43" width="1.18" height="3.86" fill="#fff"/><rect x="28.11" y="35.43" width="1.18" height="3.86" fill="#fff"/><rect x="23.16" y="35.43" width="1.18" height="3.86" fill="#fff"/><rect x="20.57" y="35.43" width="1.18" height="3.86" fill="#fff"/><path d="M50.5,34.9H91.11l-.34-.6H50.5Z" fill="#101c14"/><path d="M49.91,34.28H51l2.08-3.37H88.6l-.66-.9H52.55Z" fill="#fff"/><path d="M15.92,39.29H36.83v-1h-20v-.89Q16.33,38.34,15.92,39.29Z" fill="#fff"/><path d="M20,32.33a31.28,31.28,0,0,0-2.12,3.1h2.68s6-9.78,11.92-10.65,6-1,7.3-.54c0,0,1.12-2.51-1.75-4.35a6.13,6.13,0,0,0-2.14-.81A47.66,47.66,0,0,0,20,32.33Z" fill="#e2071c"/><path d="M31.71,23.34a44.77,44.77,0,0,1,5.72-.3,11.27,11.27,0,0,0-3.36-3,45.68,45.68,0,0,0-8.33,6.09C27.71,24.69,29.86,23.49,31.71,23.34Z" fill="#fff"/></g></svg>