<svg id="Layer_1" data-name="Layer 1" xmlns="http://www.w3.org/2000/svg" viewBox="0 0 100 100"><g id="vettel"><path d="M94.58,43.54C92,33.56,82.12,15.27,55.38,14.72,37,14.34,25.42,25.41,20,32.33a31.62,31.62,0,0,0-4.11,7h38.6a2.31,2.31,0,0,1,2,3.41L45.21,63.58a7.17,7.17,0,0,1-6.3,3.74H6.08a33.41,33.41,0,0,0-.82,15.92,2.49,2.49,0,0,0,2.45,2H70.78a60.56,60.56,0,0,0,12-1.2L84,83.84a4.32,4.32,0,0,0,2.6-1.65C93.07,73.44,97.08,53,94.58,43.54Z" fill="#fff"/><path d="M80,84.58A29,29,0,0,0,83.69,80c5.68-7.66,9.7-27,7.42-35.59a36,36,0,0,0-9.58-16.26c-6.59-6.33-15.41-9.65-26.23-9.87h-.85C38,18.31,27.59,28.48,22.86,34.55q-.44.56-.85,1.15a21.43,21.43,0,0,0-1.83,3.6H17.85l.93-1.8a29.62,29.62,0,0,1,2.65-4.05c4.93-6.32,15.77-16.93,33-16.93h.89c11.28.23,20.51,3.72,27.43,10.37A37.85,37.85,0,0,1,92.84,44c2.43,9.21-1.68,29-7.71,37.12,0,0-.9,1.28-2.36,3Z" fill="#ede603"/><path d="M94.58,43.54C92,33.56,82.12,15.27,55.38,14.72,37,14.34,25.42,25.41,20,32.33a31.62,31.62,0,0,0-4.11,7h1.94l.93-1.8a29.62,29.62,0,0,1,2.65-4.05c4.93-6.32,15.77-16.93,33-16.93h.89c11.28.23,20.51,3.72,27.43,10.37A37.85,37.85,0,0,1,92.84,44c2.43,9.21-1.68,29-7.71,37.12,0,0-.9,1.28-2.36,3L84,83.84a4.32,4.32,0,0,0,2.6-1.65C93.07,73.44,97.08,53,94.58,43.54Z" fill="red"/></g></svg>