<svg id="Layer_1" data-name="Layer 1" xmlns="http://www.w3.org/2000/svg" viewBox="0 0 100 100"><g id="mansell"><path d="M94.58,43.54C92,33.56,82.12,15.27,55.38,14.72,37,14.34,25.42,25.41,20,32.33a31.62,31.62,0,0,0-4.11,7h38.6a2.31,2.31,0,0,1,2,3.41L45.21,63.58a7.17,7.17,0,0,1-6.3,3.74H6.08a33.41,33.41,0,0,0-.82,15.92,2.49,2.49,0,0,0,2.45,2H70.78a60.56,60.56,0,0,0,12-1.2L84,83.84a4.32,4.32,0,0,0,2.6-1.65C93.07,73.44,97.08,53,94.58,43.54Z" fill="#fff"/><path d="M70.17,20.71q.12.29.23.59a13.39,13.39,0,0,1,.8,4.7,16.38,16.38,0,0,1-.53,4H87.9A37.52,37.52,0,0,0,66.45,16.12,10.33,10.33,0,0,1,70.17,20.71Z" fill="#05214f"/><path d="M68,68.83l12,15.76q1.43-.22,2.85-.5L84,83.84a4.32,4.32,0,0,0,2.6-1.65C89,79,91,74.12,92.56,68.83Z" fill="#05214f"/><path d="M63.61,30h4.9a12.52,12.52,0,0,0-.28-8.44c-2.12-5-7.74-6.36-16.81-6.7-1.11.08-2.2.2-3.26.36l-.29,0-.92.15-.32.06-1.36.28-.7.16L44,16l-.9.24-.34.09h0v.15C64.52,16.45,66,23.89,63.61,30Z" fill="#e2071c"/><path d="M53.32,53l6.78-8.94H94.71c0-.18-.08-.36-.13-.53a37,37,0,0,0-1.41-4.24H57.74l-1.08,1.43a2.28,2.28,0,0,1-.1,2l-7.1,13.08L71.81,85.28q2.86,0,5.71-.37L63.74,66.73H93.13c.4-1.57.75-3.17,1.05-4.77H60.12Z" fill="#e2071c"/></g></svg>