<svg id="Layer_1" data-name="Layer 1" xmlns="http://www.w3.org/2000/svg" viewBox="0 0 100 100"><g id="andretti"><path d="M94.58,43.54C92,33.56,82.12,15.27,55.38,14.72,37,14.34,25.42,25.41,20,32.33a31.62,31.62,0,0,0-4.11,7h38.6a2.31,2.31,0,0,1,2,3.41L45.21,63.58a7.17,7.17,0,0,1-6.3,3.74H6.08a33.41,33.41,0,0,0-.82,15.92,2.49,2.49,0,0,0,2.45,2H70.78a60.56,60.56,0,0,0,12-1.2L84,83.84a4.32,4.32,0,0,0,2.6-1.65C93.07,73.44,97.08,53,94.58,43.54Z" fill="#c1c1c1"/><path d="M94.58,43.54C92,33.56,82.12,15.27,55.38,14.72A42.09,42.09,0,0,0,24.55,27.27l6.65-1a37.8,37.8,0,0,1,23.26-8h.85c10.81.22,19.64,3.55,26.23,9.87A36,36,0,0,1,91.1,44.46C93.38,53.1,89.36,72.39,83.69,80A29,29,0,0,1,80,84.58l2.75-.49L84,83.84a4.32,4.32,0,0,0,2.6-1.65C93.07,73.44,97.08,53,94.58,43.54Z" fill="red"/></g></svg>