<svg id="Layer_1" data-name="Layer 1" xmlns="http://www.w3.org/2000/svg" viewBox="0 0 100 100"><title>SVG_alonso</title><path d="M94.58,43.54C92,33.56,82.12,15.27,55.38,14.72,37,14.34,25.42,25.41,20,32.33a31.62,31.62,0,0,0-4.11,7h38.6a2.31,2.31,0,0,1,2,3.41L45.21,63.58a7.17,7.17,0,0,1-6.3,3.74H6.08a33.41,33.41,0,0,0-.82,15.92,2.49,2.49,0,0,0,2.45,2H70.78a60.56,60.56,0,0,0,12-1.2L84,83.84a4.32,4.32,0,0,0,2.6-1.65C93.07,73.44,97.08,53,94.58,43.54Z" fill="#3571c9"/><path d="M90.14,33.24A37.54,37.54,0,0,0,79.7,22.05H30.87A49.3,49.3,0,0,0,20,32.33c-.26.33-.5.68-.74,1H90.14Z" fill="#fff"/><path d="M7.61,79.12l8.68,1.76L14.7,85.29H41l8.05-6.17C41.41,80.55,7.61,79.12,7.61,79.12Z" fill="#1a154c"/><path d="M95.2,53,80.33,64.59h4.09S89,62.14,91,60.69s-23.38,18.19-28,20,14,0,14,0,12.3-11.37,17-18.35h0A68.08,68.08,0,0,0,95.27,53Z" fill="#c7c9c3"/><path d="M81.16,23.13q-.71-.55-1.46-1.08H30.87q-.77.53-1.5,1.08Z" fill="red"/><path d="M28.33,39.29l2.09-3.57H84.64L65,38.71a6.33,6.33,0,0,0-3.43,2.37L45.21,63.58a7.17,7.17,0,0,1-6.3,3.74H6.08A31.81,31.81,0,0,0,4.76,79.12H6.44a33.75,33.75,0,0,1,2.79-7.58,3,3,0,0,1,2.57-1.46H62.12L95.33,51a29,29,0,0,0-.75-7.45,39.44,39.44,0,0,0-5-11.21l-70.21.93a31.7,31.7,0,0,0-3.44,6Z" fill="#dacb2e"/><path d="M51.48,52l-3.66,6.73H50c10-2.09,35.51-12.46,44.34-16.1-.28-.95-.62-2-1-3-13.18,4.78-39.38,11.9-39.38,11.9Z" fill="red"/><path d="M74,69,95.2,54.15a48.45,48.45,0,0,0,.11-5.09C69.42,68.33,38.76,72.55,38.76,72.55Z" fill="red"/><path d="M19.28,33.36H90.21q-.33-.54-.68-1.08H20.07l0,.06C19.76,32.67,19.52,33,19.28,33.36Z" fill="red"/></svg>