<svg id="Layer_1" data-name="Layer 1" xmlns="http://www.w3.org/2000/svg" viewBox="0 0 100 100"><g id="leclerc"><path d="M94.58,43.54C92,33.56,82.12,15.27,55.38,14.72,37,14.34,25.42,25.41,20,32.33a31.62,31.62,0,0,0-4.11,7h38.6a2.31,2.31,0,0,1,2,3.41L45.21,63.58a7.17,7.17,0,0,1-6.3,3.74H6.08a33.41,33.41,0,0,0-.82,15.92,2.49,2.49,0,0,0,2.45,2H70.78a60.56,60.56,0,0,0,12-1.2L84,83.84a4.32,4.32,0,0,0,2.6-1.65C93.07,73.44,97.08,53,94.58,43.54Z" fill="#161616"/><path d="M5.26,83.25a2.49,2.49,0,0,0,2.45,2h7L10.53,81.2a2.41,2.41,0,0,1-.29-3.09L13.09,74a53.4,53.4,0,0,0-8.42,2.33A36.89,36.89,0,0,0,5.26,83.25Z" fill="#e2071c"/><path d="M4.86,73.15l5.33-2.27a3.2,3.2,0,0,0,1.66-1.63l.87-1.93H6.08A30,30,0,0,0,4.86,73.15Z" fill="#fff"/><path d="M48.39,24c-2.06,2.23-5.54,5.77-7.13,6.06H88a37.08,37.08,0,0,0-8.05-7.86H52.48A5.57,5.57,0,0,0,48.39,24Z" fill="#fff"/><path d="M14.11,72.4l3.69,3.33H43.57a21.13,21.13,0,0,1-6-4.2A3.08,3.08,0,0,1,37,68.3l.4-1H13.91l-.63,1.73A3.09,3.09,0,0,0,14.11,72.4Z" fill="#e2071c"/><path d="M51.67,33.17H90.1c-.64-1-1.34-2.08-2.12-3.11H41.26c1.59-.29,5.07-3.83,7.13-6.06a5.57,5.57,0,0,1,4.09-1.79H79.92a37.87,37.87,0,0,0-9.3-4.83L67,21.19H54.15l3.51-2.48h-21a43.18,43.18,0,0,0-6.39,3.77L24.13,39.29h25Z" fill="#e2071c"/><path d="M55,85.29h15.8a60.56,60.56,0,0,0,12-1.2L84,83.84a4.32,4.32,0,0,0,2.6-1.65q.31-.42.61-.87H57.6Z" fill="#fff"/><path d="M59.95,77.74,57.6,81.32H87.19a34.61,34.61,0,0,0,2.95-5.59H53.92Z" fill="#e2071c"/><path d="M47.78,63.58h0l9.67-20.87H94.35a39.59,39.59,0,0,0-4.25-9.54H51.67l-2.56,6.13h5.41a2.31,2.31,0,0,1,2,3.41L45.2,63.58a7.17,7.17,0,0,1-6.3,3.74h-1.5l-.4,1a3.08,3.08,0,0,0,.54,3.23,15.68,15.68,0,0,0,3,2.47H51.59c-1.25,0-3.61-2.63-4.73-4.09a3.43,3.43,0,0,1-.39-3.53Z" fill="#fff"/></g></svg>