<svg id="Layer_1" data-name="Layer 1" xmlns="http://www.w3.org/2000/svg" xmlns:xlink="http://www.w3.org/1999/xlink" viewBox="0 0 100 100"><defs><linearGradient id="linear-gradient" x1="48.54" y1="39.29" x2="48.54" y2="14.71" gradientUnits="userSpaceOnUse"><stop offset="0" stop-color="#b3190b"/><stop offset="0.72" stop-color="#1e1a1a"/></linearGradient><linearGradient id="linear-gradient-2" x1="94.09" y1="41.07" x2="81.16" y2="41.07" gradientUnits="userSpaceOnUse"><stop offset="0" stop-color="#b3190b"/><stop offset="0.72" stop-color="red"/></linearGradient></defs><title>helmets</title><path d="M94.58,43.54C92,33.56,82.12,15.27,55.38,14.72,37,14.34,25.42,25.41,20,32.33a31.62,31.62,0,0,0-4.11,7h38.6a2.31,2.31,0,0,1,2,3.41L45.21,63.58a7.17,7.17,0,0,1-6.3,3.74H6.08a33.41,33.41,0,0,0-.82,15.92,2.49,2.49,0,0,0,2.45,2H70.78a60.56,60.56,0,0,0,12-1.2L84,83.84a4.32,4.32,0,0,0,2.6-1.65C93.07,73.44,97.08,53,94.58,43.54Z" fill="#b3190b"/><path d="M81.16,23.13q-.71-.55-1.46-1.08H30.87q-.77.53-1.5,1.08Z" fill="red"/><path d="M90.14,33.24h0l-.09-.13Z" fill="#fff"/><path d="M89.52,32.28a37.58,37.58,0,0,0-8.37-9.15H38.08l-6.29,9.15Z" fill="#fff"/><path d="M15.92,67.33H6.08a30.82,30.82,0,0,0-1.4,8.75h5Z" fill="#1e1a1a"/><path d="M55.38,14.72C37,14.34,25.42,25.41,20,32.33a31.62,31.62,0,0,0-4.11,7H27L38.08,23.13H81.16C75.15,18.44,66.81,15,55.38,14.72Z" fill="url(#linear-gradient)"/><path d="M86.18,74.48,68,74.72,78.09,60H94.51c1-6.33,1.15-12.43.07-16.49A38.6,38.6,0,0,0,91.69,36H85.58l-6,8.57H59.35L49.15,59.42H60.79l-2.71,3.94H49.26l-7,10.21.2,2.63-6.25,9.09H63.47l2.32-3.37Z" fill="#fbb41e"/><polygon points="31.39 85.29 42.81 68.58 19.28 68.58 7.79 85.29 31.39 85.29" fill="red"/><path d="M50.33,39.29l4.83-7H89.52L91.69,36H85.58l-6,8.57H55.53l1-1.88a2.23,2.23,0,0,0,0-2.19,2.14,2.14,0,0,0-2-1.22Z" fill="red"/><polygon points="42.06 85.23 53.16 68.99 61.6 68.99 50.51 85.23 42.06 85.23" fill="#f98d16"/><path d="M93.36,65.77h-30L61.6,68.33H92.7Q93.05,67.06,93.36,65.77Z" fill="red"/><path d="M93.55,40.28H81.71l-.55,1.57H94.09Q93.85,41.09,93.55,40.28Z" fill="url(#linear-gradient-2)"/><path d="M93.36,65.77q.31-1.27.57-2.56H84.47l-1.76,2.56Z" fill="#1e1a1a"/><rect x="60.65" y="47.8" width="27.67" height="1.26" fill="#f98d16"/><rect x="58.89" y="53.27" width="27.67" height="1.26" fill="#f98d16"/></svg>