<svg id="Layer_1" data-name="Layer 1" xmlns="http://www.w3.org/2000/svg" viewBox="0 0 100 100"><g id="reutemann"><path d="M94.58,43.54C92,33.56,82.12,15.27,55.38,14.72,37,14.34,25.42,25.41,20,32.33a31.62,31.62,0,0,0-4.11,7h38.6a2.31,2.31,0,0,1,2,3.41L45.21,63.58a7.17,7.17,0,0,1-6.3,3.74H6.08a33.41,33.41,0,0,0-.82,15.92,2.49,2.49,0,0,0,2.45,2H70.78a60.56,60.56,0,0,0,12-1.2L84,83.84a4.32,4.32,0,0,0,2.6-1.65C93.07,73.44,97.08,53,94.58,43.54Z" fill="#fff"/><path d="M85.12,26.7C79,20.31,69.57,15,55.38,14.72a42,42,0,0,0-30.24,12Z" fill="#071c4f"/><path d="M93,67.33c2.28-8.63,3.1-18.16,1.61-23.79a38.69,38.69,0,0,0-3-7.79H69.76L54.5,67.33Z" fill="#eabd00"/></g></svg>