<svg id="Layer_1" data-name="Layer 1" xmlns="http://www.w3.org/2000/svg" viewBox="0 0 100 100"><g id="amon"><path d="M94.65,43.54C92,33.56,82.18,15.27,55.44,14.72c-18.42-.38-30,10.69-35.35,17.61-.28.37-.56.74-.83,1.12l-.17.24c-.27.38-.53.77-.77,1.16C16.64,37.08,7,37.74,4.94,38.07h0c-.49.09-.35.31-.21.43h0a1,1,0,0,0,.38.13L16,39.29l30.14,3.57a6,6,0,0,1,4.82,7.74L44.79,69.32a12.17,12.17,0,0,0,11.56,16h14.5a60.56,60.56,0,0,0,12-1.2l1.21-.25a4.32,4.32,0,0,0,2.6-1.65C93.14,73.44,97.15,53,94.65,43.54Z" fill="#fff"/><path d="M55.44,14.72H54.1q-1.11,0-2.18.08h0c-16.4,1-26.82,11.07-31.86,17.55-.28.37-.56.74-.83,1.12l-.17.24c-.27.38-.53.77-.77,1.16l15.05,1.77S29,27.36,40.48,21.08h0a37.26,37.26,0,0,1,14.24-2.77h.85c10.81.22,19.64,3.55,26.23,9.87a36,36,0,0,1,9.58,16.26C93.65,53.1,89.63,72.39,84,80a29.82,29.82,0,0,1-3.61,4.49c.83-.13,1.67-.28,2.5-.45l1.21-.25a4.32,4.32,0,0,0,2.6-1.65c6.49-8.76,10.5-29.2,8-38.65C92,33.56,82.18,15.27,55.44,14.72Z" fill="#e2071c"/></g></svg>