<svg id="Layer_1" data-name="Layer 1" xmlns="http://www.w3.org/2000/svg" viewBox="0 0 100 100"><g id="sommer"><path d="M86.95,43.95C84.31,34,74.48,15.68,47.74,15.13c-18.42-.38-30,10.69-35.35,17.61q-.95,1.22-1.77,2.52h0a13.43,13.43,0,0,0-1.22,4.95h0l27,5.28s.7.12,1.9.39L39,46l.26.08C48.9,48.56,78.86,59,63,91.38a3.22,3.22,0,0,0,.06,2.35q.12.27.26.51a4.47,4.47,0,0,0,1.11,1.19c.93.49,2.1.08,3.56-1.54,7.09-7.85,16.4-21,18.83-33.05a11.71,11.71,0,0,0,.23-1.9l.41-3.43A35.82,35.82,0,0,0,86.95,43.95Z" fill="#fff"/></g></svg>