<svg id="Layer_1" data-name="Layer 1" xmlns="http://www.w3.org/2000/svg" viewBox="0 0 100 100"><g id="tambay"><path d="M94.58,43.54C92,33.56,82.12,15.27,55.38,14.72,37,14.34,25.42,25.41,20,32.33a31.62,31.62,0,0,0-4.11,7h38.6a2.31,2.31,0,0,1,2,3.41L45.21,63.58a7.17,7.17,0,0,1-6.3,3.74H6.08a33.41,33.41,0,0,0-.82,15.92,2.49,2.49,0,0,0,2.45,2H70.78a60.56,60.56,0,0,0,12-1.2L84,83.84a4.32,4.32,0,0,0,2.6-1.65C93.07,73.44,97.08,53,94.58,43.54Z" fill="#003491"/><path d="M45.2,63.58a7.15,7.15,0,0,1-1,1.44H93.54q.23-1,.44-2H45.53Z" fill="#fff"/><path d="M56.72,42.29H94.23q-.27-.87-.6-1.81H56.53A2.28,2.28,0,0,1,56.72,42.29Z" fill="#fff"/><path d="M46.72,60.79H94.39c1-6.12,1.28-12.1.41-16.31H55.59Z" fill="#fff"/></g></svg>