<svg id="Layer_1" data-name="Layer 1" xmlns="http://www.w3.org/2000/svg" viewBox="0 0 100 100"><g id="johansson"><path d="M94.58,43.54C92,33.56,82.12,15.27,55.38,14.72,37,14.34,25.42,25.41,20,32.33a31.62,31.62,0,0,0-4.11,7h38.6a2.31,2.31,0,0,1,2,3.41L45.21,63.58a7.17,7.17,0,0,1-6.3,3.74H6.08a33.41,33.41,0,0,0-.82,15.92,2.49,2.49,0,0,0,2.45,2H70.78a60.56,60.56,0,0,0,12-1.2L84,83.84a4.32,4.32,0,0,0,2.6-1.65C93.07,73.44,97.08,53,94.58,43.54Z" fill="#fff"/><path d="M86,43s-4.47-2.09-6.56,1,1,8.66,2.65,11.31,4.75,5.31,3.21,8.1A13.61,13.61,0,0,1,83,66.92s8.64-9.78,8.93-18.57S86,43,86,43Z" fill="#1ca02e"/><path d="M75.32,43s-4.47-2.09-6.56,1,1,8.66,2.65,11.31,4.75,5.31,3.21,8.1a13.61,13.61,0,0,1-2.37,3.49s8.64-9.78,8.93-18.57S75.32,43,75.32,43Z" fill="#076819"/><path d="M64.61,43S60.14,40.94,58,44s1,8.66,2.65,11.31,4.75,5.31,3.21,8.1a13.61,13.61,0,0,1-2.37,3.49s8.64-9.78,8.93-18.57S64.61,43,64.61,43Z" fill="#04420d"/><path d="M61.95,68.83h-23L30.35,85.29H70.78a60.56,60.56,0,0,0,12-1.2L84,83.84a4.32,4.32,0,0,0,2.6-1.65,29,29,0,0,0,2.75-4.68H61.95Z" fill="#161616"/><path d="M61.95,77.95H89.12a47.4,47.4,0,0,0,1.95-4.56H61.95Z" fill="#0269af"/><path d="M61.95,73.39H91.07c.54-1.46,1-3,1.49-4.56H61.95Z" fill="#ccae00"/><path d="M20,32.33a31.62,31.62,0,0,0-4.11,7H26.21L36.74,21.52h42.2c-5.8-3.86-13.48-6.6-23.57-6.81C37,14.34,25.42,25.41,20,32.33Z" fill="#161616"/></g></svg>