<svg id="Layer_1" data-name="Layer 1" xmlns="http://www.w3.org/2000/svg" viewBox="0 0 100 100"><g id="massa"><path d="M94.58,43.54C92,33.56,82.12,15.27,55.38,14.72,37,14.34,25.42,25.41,20,32.33a31.62,31.62,0,0,0-4.11,7h38.6a2.31,2.31,0,0,1,2,3.41L45.21,63.58a7.17,7.17,0,0,1-6.3,3.74H6.08a33.41,33.41,0,0,0-.82,15.92,2.49,2.49,0,0,0,2.45,2H70.78a60.56,60.56,0,0,0,12-1.2L84,83.84a4.32,4.32,0,0,0,2.6-1.65C93.07,73.44,97.08,53,94.58,43.54Z" fill="#002f8e"/><path d="M76.19,42.6,90,33c-5.49-8.82-15.92-17.85-34.6-18.24a41,41,0,0,0-16.91,3.17L50,26Z" fill="#58d109"/><path d="M5.26,83.25a2.49,2.49,0,0,0,2.45,2H59.38L74,63.76a2.37,2.37,0,0,1,3.89-.05L88.69,78.79l2.45-5.58a68.85,68.85,0,0,0,2.43-8.28l-10.05-13a3.49,3.49,0,0,1-.17-4c2-3.15,6-8.93,8.82-10.94h0l-5-8-6,5.51-4.45,4.69a2.33,2.33,0,0,1-3.38,0l-4.43-4.69S55.66,21,38.47,17.89a43.09,43.09,0,0,0-9.41,5.47C52.15,30,63.63,42.82,67.41,47.88A3.56,3.56,0,0,1,67.49,52L55.38,69.73H5.43A34.31,34.31,0,0,0,5.26,83.25Z" fill="#ceff00"/><path d="M92.16,37h0a39.56,39.56,0,0,0-5-8H22.89l-.75.83-.12.13-.59.68-.15.18-.51.62-.15.19-.59.74h0c-.26.33-.51.67-.75,1l-.17.24q-.32.46-.62.92l-.08.12Q17.67,35.76,17,37Z" fill="#fff"/></g></svg>