<svg id="Layer_1" data-name="Layer 1" xmlns="http://www.w3.org/2000/svg" viewBox="0 0 100 100"><g id="ickx"><path d="M94.58,43.54C92,33.56,82.12,15.27,55.38,14.72,37,14.34,25.42,25.41,20,32.33a31.62,31.62,0,0,0-4.11,7h38.6a2.31,2.31,0,0,1,2,3.41L45.21,63.58a7.17,7.17,0,0,1-6.3,3.74H6.08a33.41,33.41,0,0,0-.82,15.92,2.49,2.49,0,0,0,2.45,2H70.78a60.56,60.56,0,0,0,12-1.2L84,83.84a4.32,4.32,0,0,0,2.6-1.65C93.07,73.44,97.08,53,94.58,43.54Z" fill="#04163a"/><path d="M7.71,85.29H70.78a60.56,60.56,0,0,0,12-1.2L84,83.84a4.32,4.32,0,0,0,2.6-1.65c.39-.52.76-1.09,1.13-1.69H4.87c.1,1,.23,1.88.39,2.74A2.49,2.49,0,0,0,7.71,85.29Z" fill="#fff"/><path d="M54.52,39.29a2.31,2.31,0,0,1,2,3.41L45.21,63.58a7.17,7.17,0,0,1-6.3,3.74H6.08A29.68,29.68,0,0,0,5,72.13H38.91a12,12,0,0,0,10.51-6.25L60.76,45a7.11,7.11,0,0,0-6.25-10.5h-36a31.82,31.82,0,0,0-2.57,4.8Z" fill="#fff"/></g></svg>