<svg id="Layer_1" data-name="Layer 1" xmlns="http://www.w3.org/2000/svg" viewBox="0 0 100 100"><g id="berger"><path d="M94.58,43.54C92,33.56,82.12,15.27,55.38,14.72,37,14.34,25.42,25.41,20,32.33a31.62,31.62,0,0,0-4.11,7h38.6a2.31,2.31,0,0,1,2,3.41L45.21,63.58a7.17,7.17,0,0,1-6.3,3.74H6.08a33.41,33.41,0,0,0-.82,15.92,2.49,2.49,0,0,0,2.45,2H70.78a60.56,60.56,0,0,0,12-1.2L84,83.84a4.32,4.32,0,0,0,2.6-1.65C93.07,73.44,97.08,53,94.58,43.54Z" fill="#161616"/><path d="M44.35,69,59.51,41.09a2.7,2.7,0,0,1,2.37-1.41H83.33a2.7,2.7,0,0,1,2.44,3.86L72.22,71.41a2.7,2.7,0,0,1-2.44,1.54H46.72A2.7,2.7,0,0,1,44.35,69Z" fill="#fff" stroke="#fff" stroke-miterlimit="10" stroke-width="0.9"/><polygon points="51.57 72.95 69.67 39.69 61.88 39.69 60.16 40.31 59.51 41.09 44.02 69.66 44.02 71.13 45.12 72.42 46.72 72.95 51.57 72.95" fill="#f90815"/><polygon points="78.75 39.69 60.65 72.95 69.67 72.64 71.39 72.02 72.04 71.23 86.3 42.97 86.3 41.51 85.2 40.21 83.6 39.69 78.75 39.69" fill="#f90815"/><path d="M44.35,69,59.51,41.09a2.7,2.7,0,0,1,2.37-1.41H83.33a2.7,2.7,0,0,1,2.44,3.86L72.22,71.41a2.7,2.7,0,0,1-2.44,1.54H46.72A2.7,2.7,0,0,1,44.35,69Z" fill="none" stroke="#fff" stroke-miterlimit="10" stroke-width="0.9"/><path d="M20,32.33a31.29,31.29,0,0,0-2.06,3H91.33A37.91,37.91,0,0,0,79.92,22.2H30.66A49.36,49.36,0,0,0,20,32.33Z" fill="#fff"/></g></svg>