<svg id="Layer_1" data-name="Layer 1" xmlns="http://www.w3.org/2000/svg" viewBox="0 0 100 100"><g id="prost"><path d="M94.58,43.54C92,33.56,82.12,15.27,55.38,14.72,37,14.34,25.42,25.41,20,32.33a31.62,31.62,0,0,0-4.11,7h38.6a2.31,2.31,0,0,1,2,3.41L45.21,63.58a7.17,7.17,0,0,1-6.3,3.74H6.08a33.41,33.41,0,0,0-.82,15.92,2.49,2.49,0,0,0,2.45,2H70.78a60.56,60.56,0,0,0,12-1.2L84,83.84a4.32,4.32,0,0,0,2.6-1.65C93.07,73.44,97.08,53,94.58,43.54Z" fill="#fff"/><path d="M85.36,27q-.43-.45-.87-.9H25.83l-1,.9Z" fill="red"/><path d="M90.46,33.76H19q-.31.45-.6.9H91Z" fill="red"/><path d="M61.77,73.7H91q.35-.93.68-1.89H63.3Z" fill="red"/><path d="M63.95,85.28h6.84a60.56,60.56,0,0,0,12-1.2L84,83.84a4.32,4.32,0,0,0,2.6-1.65,31.9,31.9,0,0,0,3.48-6.29H71.51Z" fill="#002f8e"/><path d="M83.47,25.08A37.58,37.58,0,0,0,69,16.82a58.41,58.41,0,0,1,6,8.26Z" fill="#002f8e"/><path d="M54.52,39.29a2.31,2.31,0,0,1,2,3.41L45.21,63.58a7.17,7.17,0,0,1-6.3,3.74H6.08a33.41,33.41,0,0,0-.82,15.92,2.49,2.49,0,0,0,2.45,2H45.43L69.54,55.42h16L89.1,50H75.27L65.88,35.69H17.74a32,32,0,0,0-1.82,3.6Z" fill="#002f8e"/></g></svg>