<svg id="Layer_1" data-name="Layer 1" xmlns="http://www.w3.org/2000/svg" viewBox="0 0 100 100"><g id="raikkonen"><path d="M94.58,43.54C92,33.56,82.12,15.27,55.38,14.72,37,14.34,25.42,25.41,20,32.33a31.62,31.62,0,0,0-4.11,7h38.6a2.31,2.31,0,0,1,2,3.41L45.21,63.58a7.17,7.17,0,0,1-6.3,3.74H6.08a33.41,33.41,0,0,0-.82,15.92,2.49,2.49,0,0,0,2.45,2H70.78a60.56,60.56,0,0,0,12-1.2L84,83.84a4.32,4.32,0,0,0,2.6-1.65C93.07,73.44,97.08,53,94.58,43.54Z" fill="#fff"/><polygon points="91.36 35.83 31.5 35.83 31.5 34.93 91.14 34.93 91.36 35.83" fill="red"/><path d="M27.63,24.49H82.82C76.72,19.13,67.9,15,55.38,14.72A41.45,41.45,0,0,0,27.63,24.49Z" fill="#161616"/><path d="M7.71,85.29H70.78a60.56,60.56,0,0,0,12-1.2L84,83.84a4.32,4.32,0,0,0,2.6-1.65c6.49-8.76,10.5-29.2,8-38.65a38.8,38.8,0,0,0-3.22-8.15h0C78.64,38.18,64.55,44.67,51.5,52l-6.3,11.59a7.17,7.17,0,0,1-6.3,3.74h-12C14,76.14,5.26,83.25,5.26,83.25A2.49,2.49,0,0,0,7.71,85.29Z" fill="#161616"/><path d="M83.37,25q-.5-.46-1-.9H28.14L27,25Z" fill="red"/><path d="M51.84,52.32l.17-.09L52.4,52v0C67,43.87,79.88,38.48,90.74,36h0l.82-.22c-.14-.26-.27-.53-.42-.79C80.06,37.43,66.86,42.9,51.9,51.25L51,52.83l.78-.49Z" fill="red"/><path d="M5.36,83.63l.4-.21c1.44-1.15,9.74-7.74,21.31-15.64l.6-.45H26.14c-11.46,7.85-19.63,14.34-21,15.41,0,.17.06.34.09.51A2.49,2.49,0,0,0,5.36,83.63Z" fill="red"/><path d="M81.61,49.37H52.92L45.21,63.58a7.16,7.16,0,0,1-5,3.62l31.39-.61L78.82,54.2c-.46,2-3.7,15.4-10.22,21.79C68.6,76,82.65,62.72,81.61,49.37Z" fill="red"/><polygon points="71.3 44.79 55.41 44.79 51.56 51.89 71.3 51.6 71.3 44.79" fill="#fff"/></g></svg>