<svg id="Layer_1" data-name="Layer 1" xmlns="http://www.w3.org/2000/svg" viewBox="0 0 100 100"><g id="capelli"><path d="M94.58,43.54C92,33.56,82.12,15.27,55.38,14.72,37,14.34,25.42,25.41,20,32.33a31.62,31.62,0,0,0-4.11,7h38.6a2.31,2.31,0,0,1,2,3.41L45.21,63.58a7.17,7.17,0,0,1-6.3,3.74H6.08a33.41,33.41,0,0,0-.82,15.92,2.49,2.49,0,0,0,2.45,2H70.78a60.56,60.56,0,0,0,12-1.2L84,83.84a4.32,4.32,0,0,0,2.6-1.65C93.07,73.44,97.08,53,94.58,43.54Z" fill="#fff"/><path d="M89.7,76.73q.49-1.09,1-2.25H4.75c-.05.76-.08,1.52-.08,2.25Z" fill="#0c07db"/><path d="M38.91,67.33H6.08A29.68,29.68,0,0,0,5,72.14H91.51a73.3,73.3,0,0,0,3-12.08H47.12l-1.91,3.52A7.17,7.17,0,0,1,38.91,67.33Z" fill="#e2071c"/><path d="M55.38,14.72A42,42,0,0,0,25,26.81h60.2C79.11,20.36,69.65,15,55.38,14.72Z" fill="#0931d8"/><path d="M54.52,39.29a2.31,2.31,0,0,1,2,3.41L53,49.29H95.32a26,26,0,0,0-.73-5.75,38,38,0,0,0-2.19-6.06H16.76q-.45.89-.85,1.82Z" fill="#05aa48"/></g></svg>