<svg id="Layer_1" data-name="Layer 1" xmlns="http://www.w3.org/2000/svg" viewBox="0 0 100 100"><g id="baghetti"><path d="M94.65,43.54C92,33.56,82.18,15.27,55.44,14.72c-18.42-.38-30,10.69-35.35,17.61-.28.37-.56.74-.83,1.12l-.17.24c-.27.38-.53.77-.77,1.16C16.64,37.08,7,37.74,4.94,38.07h0c-.49.09-.35.31-.21.43h0a1,1,0,0,0,.38.13L16,39.29l30.14,3.57a6,6,0,0,1,4.82,7.74L44.79,69.32a12.17,12.17,0,0,0,11.56,16h14.5a60.56,60.56,0,0,0,12-1.2l1.21-.25a4.32,4.32,0,0,0,2.6-1.65C93.14,73.44,97.15,53,94.65,43.54Z" fill="#fff"/></g></svg>