<svg id="Layer_1" data-name="Layer 1" xmlns="http://www.w3.org/2000/svg" viewBox="0 0 100 100"><g id="barrichello"><path d="M94.58,43.54C92,33.56,82.12,15.28,55.38,14.72,37,14.34,25.42,25.41,20,32.33a31.62,31.62,0,0,0-4.11,7h38.6a2.31,2.31,0,0,1,2,3.41L45.21,63.58a7.17,7.17,0,0,1-6.3,3.74H6.08a33.41,33.41,0,0,0-.82,15.92,2.49,2.49,0,0,0,2.45,2H70.78a60.56,60.56,0,0,0,12-1.2L84,83.84a4.32,4.32,0,0,0,2.6-1.65C93.07,73.44,97.08,53,94.58,43.54Z" fill="#fff"/><path d="M50.9,72.74A18.11,18.11,0,1,0,41.29,39.3H54.52a2.31,2.31,0,0,1,2,3.41L45.21,63.58a7.17,7.17,0,0,1-6.3,3.74H38A18,18,0,0,0,50.9,72.74Z" fill="#ff1800"/><path d="M55.38,14.72C44.53,14.44,33.41,18.43,27,25H83.39C76.41,18.29,66.52,15,55.38,14.72Z" fill="#1127c9"/><path d="M50.9,53.09l-5.7,10.49a7.17,7.17,0,0,1-6.3,3.74H6.08a29.88,29.88,0,0,0-1.17,5.42h46Z" fill="#ff1800"/><path d="M50.9,39.3V36.53H17.26q-.74,1.35-1.35,2.76Z" fill="#ff1800"/><path d="M82.73,54.64a18.1,18.1,0,0,0,9.34,15.84c2.95-9.37,4.19-20.61,2.52-26.94a37.54,37.54,0,0,0-1.78-5.13A18.1,18.1,0,0,0,82.73,54.64Z" fill="#ff1800"/></g></svg>