<svg id="Layer_1" data-name="Layer 1" xmlns="http://www.w3.org/2000/svg" viewBox="0 0 100 100"><g id="perdisa"><path d="M52.26,48.1,91,60.43l.64-5.32a35.83,35.83,0,0,0-.54-11.56c-2.63-10-12.47-28.26-39.21-28.82-18.42-.38-30,10.69-35.35,17.61q-.95,1.22-1.77,2.52h0A9.45,9.45,0,0,1,8.51,38.3h0c-.49.09-.35.31-.21.43h0a1,1,0,0,0,.38.13l31.8,6.23A106.05,106.05,0,0,1,52.26,48.1Z" fill="#fff"/><path d="M42.08,32.69l-21.34-5.1A51,51,0,0,0,17,31.79,66.51,66.51,0,0,0,42.08,32.69Z" fill="#161616"/><path d="M44.4,22.5l-12.74-3a43.76,43.76,0,0,0-5.37,3.36A64.78,64.78,0,0,0,44.4,22.5Z" fill="#161616"/></g></svg>