<svg id="Layer_1" data-name="Layer 1" xmlns="http://www.w3.org/2000/svg" viewBox="0 0 100 100"><g id="scheckter"><path d="M94.58,43.54C92,33.56,82.12,15.27,55.38,14.72,37,14.34,25.42,25.41,20,32.33a31.62,31.62,0,0,0-4.11,7h38.6a2.31,2.31,0,0,1,2,3.41L45.21,63.58a7.17,7.17,0,0,1-6.3,3.74H6.08a33.41,33.41,0,0,0-.82,15.92,2.49,2.49,0,0,0,2.45,2H70.78a60.56,60.56,0,0,0,12-1.2L84,83.84a4.32,4.32,0,0,0,2.6-1.65C93.07,73.44,97.08,53,94.58,43.54Z" fill="#fff"/><path d="M6.08,67.33c-.17.55-.32,1.1-.46,1.65h86.9q.26-.91.5-1.83H40.52a7.15,7.15,0,0,1-1.61.19Z" fill="#041299"/><path d="M19.55,33H90q-.57-.92-1.21-1.83H21c-.34.41-.67.82-1,1.21Z" fill="#041299"/><path d="M54.52,39.29a2.31,2.31,0,0,1,2,3.41L45.21,63.58a7.16,7.16,0,0,1-4.69,3.56H93c2.24-8.58,3-18,1.56-23.6A39.34,39.34,0,0,0,90,33H19.55a31.68,31.68,0,0,0-3.64,6.34Z" fill="#ffc200"/></g></svg>