<svg id="Layer_1" data-name="Layer 1" xmlns="http://www.w3.org/2000/svg" viewBox="0 0 100 100"><g id="parkes"><path d="M94.65,43.54C92,33.56,82.18,15.27,55.44,14.72c-18.42-.38-30,10.69-35.35,17.61-.28.37-.56.74-.83,1.12l-.17.24c-.27.38-.53.77-.77,1.16C16.64,37.08,7,37.74,4.94,38.07h0c-.49.09-.35.31-.21.43h0a1,1,0,0,0,.38.13L16,39.29l30.14,3.57a6,6,0,0,1,4.82,7.74L44.79,69.32a12.17,12.17,0,0,0,11.56,16h14.5a60.56,60.56,0,0,0,12-1.2l1.21-.25a4.32,4.32,0,0,0,2.6-1.65C93.14,73.44,97.15,53,94.65,43.54Z" fill="#fff"/><path d="M44.79,69.32a12.17,12.17,0,0,0,11.56,16h14.5a60.56,60.56,0,0,0,12-1.2l1.21-.25a4.32,4.32,0,0,0,2.6-1.65c3.54-4.78,6.35-13,7.76-21.09L49.65,54.54Z" fill="#161616"/><path d="M45.72,42.82l.4,0a6,6,0,0,1,5.11,5.68L95.2,55a44.54,44.54,0,0,0,0-8.22l-49-7.18Z" fill="#b2a370"/><polygon points="65.56 50.65 56.22 49.24 66.55 42.55 75.9 43.95 65.56 50.65" fill="#cc0a0a"/><polygon points="82.76 53.19 73.41 51.78 83.75 45.09 93.09 46.49 82.76 53.19" fill="#cc0a0a"/></g></svg>