<svg id="Layer_1" data-name="Layer 1" xmlns="http://www.w3.org/2000/svg" viewBox="0 0 100 100"><g id="villeneuve"><path d="M94.58,43.54C92,33.56,82.12,15.27,55.38,14.72,37,14.34,25.42,25.41,20,32.33a31.62,31.62,0,0,0-4.11,7h38.6a2.31,2.31,0,0,1,2,3.41L45.21,63.58a7.17,7.17,0,0,1-6.3,3.74H6.08a33.41,33.41,0,0,0-.82,15.92,2.49,2.49,0,0,0,2.45,2H70.78a60.56,60.56,0,0,0,12-1.2L84,83.84a4.32,4.32,0,0,0,2.6-1.65C93.07,73.44,97.08,53,94.58,43.54Z" fill="#111628"/><path d="M38.91,67.33H6.08a33.41,33.41,0,0,0-.82,15.92,2.49,2.49,0,0,0,2.45,2H70.78a60.56,60.56,0,0,0,12-1.2L84,83.84a4.32,4.32,0,0,0,2.6-1.65c4.49-6.06,7.79-17.7,8.57-27.44H50l-4.8,8.83A7.17,7.17,0,0,1,38.91,67.33Z" fill="red"/><path d="M94.58,43.54A39.44,39.44,0,0,0,85.12,26.7H53.18V22.14H43.67l-17.81,17h9.72L46.31,29V39.25H85.57L95.33,50A27.23,27.23,0,0,0,94.58,43.54Z" fill="red"/></g></svg>