<svg id="Layer_1" data-name="Layer 1" xmlns="http://www.w3.org/2000/svg" viewBox="0 0 100 100"><g id="simon"><path d="M47.4,48.07,86.13,60.4l.64-5.32a35.83,35.83,0,0,0-.54-11.56C83.59,33.54,73.76,15.25,47,14.7c-18.42-.38-30,10.69-35.35,17.61q-.95,1.22-1.77,2.52h0a9.45,9.45,0,0,1-6.24,3.44h0c-.49.09-.35.31-.21.43h0a1,1,0,0,0,.38.13l31.8,6.23A106.05,106.05,0,0,1,47.4,48.07Z" fill="#fff"/><rect x="22.91" y="31.33" width="4.32" height="4.32" transform="translate(11.24 -5.99) rotate(17.51)" fill="#161616"/><rect x="25.73" y="36.75" width="4.32" height="4.32" transform="translate(13 -6.59) rotate(17.51)" fill="#161616"/><rect x="14.72" y="28.62" width="4.32" height="4.32" transform="translate(10.04 -3.65) rotate(17.51)" fill="#161616"/><rect x="17.53" y="34.04" width="4.32" height="4.32" transform="translate(11.8 -4.25) rotate(17.51)" fill="#161616"/><rect x="31.14" y="33.93" width="4.32" height="4.32" transform="translate(12.4 -8.35) rotate(17.51)" fill="#161616"/><rect x="33.96" y="39.35" width="4.32" height="4.32" transform="translate(14.16 -8.94) rotate(17.51)" fill="#161616"/><rect x="39.38" y="36.53" width="4.32" height="4.32" transform="translate(13.56 -10.7) rotate(17.51)" fill="#161616"/><rect x="42.2" y="41.94" width="4.32" height="4.32" transform="translate(15.32 -11.3) rotate(17.51)" fill="#161616"/><rect x="47.62" y="39.12" width="4.32" height="4.32" transform="matrix(0.95, 0.3, -0.3, 0.95, 14.72, -13.06)" fill="#161616"/><rect x="50.44" y="44.54" width="4.32" height="4.32" transform="translate(16.48 -13.66) rotate(17.51)" fill="#161616"/><rect x="55.85" y="41.72" width="4.32" height="4.32" transform="translate(15.89 -15.42) rotate(17.51)" fill="#161616"/><rect x="58.67" y="47.14" width="4.32" height="4.32" transform="translate(17.65 -16.02) rotate(17.51)" fill="#161616"/><rect x="64.09" y="44.32" width="4.32" height="4.32" transform="translate(17.05 -17.78) rotate(17.51)" fill="#161616"/><rect x="66.91" y="49.74" width="4.32" height="4.32" transform="translate(18.81 -18.37) rotate(17.51)" fill="#161616"/><rect x="72.33" y="46.92" width="4.32" height="4.32" transform="translate(18.21 -20.13) rotate(17.51)" fill="#161616"/><rect x="75.15" y="52.34" width="4.32" height="4.32" transform="translate(19.97 -20.73) rotate(17.51)" fill="#161616"/><rect x="80.56" y="49.52" width="4.32" height="4.32" transform="translate(19.38 -22.49) rotate(17.51)" fill="#161616"/><polygon points="82.83 58.5 86.23 59.58 86.75 55.21 84.13 54.38 82.83 58.5" fill="#161616"/><path d="M9.89,34.83h0l-.27.33,3.28,1,1.3-4.12-1.89-.6-.66.83Q10.71,33.53,9.89,34.83Z" fill="#161616"/></g></svg>