<svg id="Layer_1" data-name="Layer 1" xmlns="http://www.w3.org/2000/svg" viewBox="0 0 100 100"><g id="galli"><path d="M94.58,43.54C92,33.56,82.12,15.27,55.38,14.72,37,14.34,25.42,25.41,20,32.33a31.62,31.62,0,0,0-4.11,7h38.6a2.31,2.31,0,0,1,2,3.41L45.21,63.58a7.17,7.17,0,0,1-6.3,3.74H6.08a33.41,33.41,0,0,0-.82,15.92,2.49,2.49,0,0,0,2.45,2H70.78a60.56,60.56,0,0,0,12-1.2L84,83.84a4.32,4.32,0,0,0,2.6-1.65C93.07,73.44,97.08,53,94.58,43.54Z" fill="#ffc200"/><path d="M94.58,43.54C92,33.56,82.12,15.27,55.38,14.72,37,14.34,25.42,25.41,20,32.33a31.62,31.62,0,0,0-4.11,7h38.6a2.31,2.31,0,0,1,2,3.41L45.21,63.58a7.17,7.17,0,0,1-6.3,3.74H6.08a33.41,33.41,0,0,0-.82,15.92,2.49,2.49,0,0,0,2.45,2H70.78a60.56,60.56,0,0,0,12-1.2L84,83.84a4.32,4.32,0,0,0,2.6-1.65C93.07,73.44,97.08,53,94.58,43.54Z" fill="#ffc200"/><path d="M54.52,39.29a2.31,2.31,0,0,1,2,3.41L45.21,63.58a7.17,7.17,0,0,1-6.3,3.74H6.08a30.33,30.33,0,0,0-1.33,7.11H41.3a13.29,13.29,0,0,0,11.58-6.78L62.81,50H95.33a27.25,27.25,0,0,0-.75-6.46A38.23,38.23,0,0,0,92.18,37H17c-.39.75-.76,1.51-1.09,2.28Z" fill="#05214f"/><path d="M5.95,74.44V67.76a30.49,30.49,0,0,0-1.2,6.68Z" fill="#008ad6"/><path d="M16.1,39.29v-.42l-.19.42Z" fill="#008ad6"/><rect x="11.42" y="67.33" width="4.69" height="7.11" fill="#008ad6"/><rect x="19.25" y="37.01" width="5.95" height="2.28" fill="red"/><rect x="19.25" y="67.33" width="5.95" height="7.11" fill="red"/><rect x="27.78" y="37.01" width="4.69" height="2.28" fill="#008ad6"/><rect x="27.78" y="67.33" width="4.69" height="7.11" fill="#008ad6"/><rect x="37.5" y="37.01" width="2.34" height="2.28" fill="#008ad6"/><path d="M39.84,74.44V67.26a7.16,7.16,0,0,1-.93.06H37.5v7.11Z" fill="#008ad6"/><rect x="45.31" y="37.01" width="4.69" height="2.28" fill="#008ad6"/><path d="M45.31,63.39V73.81A13.29,13.29,0,0,0,50,71.19V54.76Z" fill="#008ad6"/><path d="M54.52,39.29a2.31,2.31,0,0,1,2,3.41L53.14,49V67.2l5.95-10.58V37H53.14v2.28Z" fill="red"/><polygon points="62.81 50 66.37 50 66.37 37.01 61.68 37.01 61.68 52.02 62.81 50" fill="#008ad6"/><rect x="71.39" y="37.01" width="2.34" height="12.99" fill="#008ad6"/><rect x="79.21" y="37.01" width="4.69" height="12.99" fill="#008ad6"/><path d="M92.43,50V37.55L92.18,37h-5.7V50Z" fill="red"/></g></svg>