<svg id="Layer_1" data-name="Layer 1" xmlns="http://www.w3.org/2000/svg" viewBox="0 0 100 100"><g id="rodriguez_p"><path d="M94.58,43.54C92,33.56,82.12,15.27,55.38,14.72,37,14.34,25.42,25.41,20,32.33a31.62,31.62,0,0,0-4.11,7h38.6a2.31,2.31,0,0,1,2,3.41L45.21,63.58a7.17,7.17,0,0,1-6.3,3.74H6.08a33.41,33.41,0,0,0-.82,15.92,2.49,2.49,0,0,0,2.45,2H70.78a60.56,60.56,0,0,0,12-1.2L84,83.84a4.32,4.32,0,0,0,2.6-1.65C93.07,73.44,97.08,53,94.58,43.54Z" fill="#aaa"/><path d="M88,80q.25-.42.49-.87l0,0c.16-.3.32-.6.48-.91l.08-.15.09-.18h0c4.9-10,7.55-26.17,5.41-34.29C92,33.56,82.12,15.27,55.38,14.72c-18-.37-29.41,10.17-35,17.12l-.39.5c-.27.34-.53.7-.78,1.05l-.13.18a31.74,31.74,0,0,0-3.2,5.73h38.6a2.28,2.28,0,0,1,1.71.77,3.7,3.7,0,0,1,1.41,3.84L52.1,67.34a14.87,14.87,0,0,0,11.33,18h7.36a60.56,60.56,0,0,0,12-1.2L84,83.84a4.32,4.32,0,0,0,2.6-1.65c.29-.39.58-.81.86-1.25h0l0-.06q.25-.4.5-.82ZM66.56,77.82a7.07,7.07,0,0,1-6.88-8.69L65.23,45.7A11.52,11.52,0,0,0,54,31.52H23.41c5.49-6.27,15.71-14.71,31-14.71h.88c11.2.23,20.37,3.69,27.23,10.29a37.54,37.54,0,0,1,10,17c2.14,8.12-.84,24.52-5.73,33.75Z" fill="#161616"/></g></svg>