<svg id="Layer_1" data-name="Layer 1" xmlns="http://www.w3.org/2000/svg" viewBox="0 0 100 100"><g id="behra"><path d="M52.26,48.1,91,60.43l.64-5.32a35.83,35.83,0,0,0-.54-11.56c-2.63-10-12.47-28.26-39.21-28.82-18.42-.38-30,10.69-35.35,17.61q-.95,1.22-1.77,2.52h0A9.45,9.45,0,0,1,8.51,38.3h0c-.49.09-.35.31-.21.43h0a1,1,0,0,0,.38.13l31.8,6.23A106.05,106.05,0,0,1,52.26,48.1Z" fill="#fff"/><rect x="27.77" y="31.36" width="4.32" height="4.32" transform="translate(11.47 -7.45) rotate(17.51)" fill="#161616"/><rect x="30.58" y="36.78" width="4.32" height="4.32" transform="translate(13.23 -8.05) rotate(17.51)" fill="#161616"/><rect x="19.57" y="28.65" width="4.32" height="4.32" transform="translate(10.28 -5.11) rotate(17.51)" fill="#161616"/><rect x="22.39" y="34.07" width="4.32" height="4.32" transform="translate(12.04 -5.71) rotate(17.51)" fill="#161616"/><rect x="36" y="33.96" width="4.32" height="4.32" transform="translate(12.63 -9.81) rotate(17.51)" fill="#161616"/><rect x="38.82" y="39.38" width="4.32" height="4.32" transform="translate(14.39 -10.4) rotate(17.51)" fill="#161616"/><rect x="44.24" y="36.56" width="4.32" height="4.32" transform="translate(13.8 -12.16) rotate(17.51)" fill="#161616"/><rect x="47.06" y="41.98" width="4.32" height="4.32" transform="translate(15.56 -12.76) rotate(17.51)" fill="#161616"/><rect x="52.47" y="39.16" width="4.32" height="4.32" transform="translate(14.96 -14.52) rotate(17.51)" fill="#161616"/><rect x="55.29" y="44.57" width="4.32" height="4.32" transform="translate(16.72 -15.12) rotate(17.51)" fill="#161616"/><rect x="60.71" y="41.75" width="4.32" height="4.32" transform="translate(16.12 -16.88) rotate(17.51)" fill="#161616"/><rect x="63.53" y="47.17" width="4.32" height="4.32" transform="translate(17.88 -17.48) rotate(17.51)" fill="#161616"/><rect x="68.95" y="44.35" width="4.32" height="4.32" transform="matrix(0.95, 0.3, -0.3, 0.95, 17.29, -19.24)" fill="#161616"/><rect x="71.77" y="49.77" width="4.32" height="4.32" transform="translate(19.05 -19.83) rotate(17.51)" fill="#161616"/><rect x="77.18" y="46.95" width="4.32" height="4.32" transform="translate(18.45 -21.59) rotate(17.51)" fill="#161616"/><rect x="80" y="52.37" width="4.32" height="4.32" transform="translate(20.21 -22.19) rotate(17.51)" fill="#161616"/><rect x="85.42" y="49.55" width="4.32" height="4.32" transform="translate(19.61 -23.95) rotate(17.51)" fill="#161616"/><polygon points="87.69 58.53 91.09 59.61 91.61 55.24 88.99 54.42 87.69 58.53" fill="#161616"/><path d="M14.75,34.86h0l-.27.33,3.28,1,1.3-4.12-1.89-.6-.66.83Q15.57,33.56,14.75,34.86Z" fill="#161616"/></g></svg>