<svg id="Layer_1" data-name="Layer 1" xmlns="http://www.w3.org/2000/svg" viewBox="0 0 100 100"><g id="alesi"><path d="M94.58,43.54C92,33.56,82.12,15.27,55.38,14.72,37,14.34,25.42,25.41,20,32.33a31.62,31.62,0,0,0-4.11,7h38.6a2.31,2.31,0,0,1,2,3.41L45.21,63.58a7.17,7.17,0,0,1-6.3,3.74H6.08a33.41,33.41,0,0,0-.82,15.92,2.49,2.49,0,0,0,2.45,2H70.78a60.56,60.56,0,0,0,12-1.2L84,83.84a4.32,4.32,0,0,0,2.6-1.65C93.07,73.44,97.08,53,94.58,43.54Z" fill="#fff"/><path d="M55.38,14.72A41.92,41.92,0,0,0,25.27,26.57H85C78.87,20.24,69.48,15,55.38,14.72Z" fill="#041299"/><path d="M64.55,46.56l-21,38.73H53.77L69.91,55.56H95.09a45,45,0,0,0,0-9H64.55Z" fill="#e2071c"/><path d="M56.49,42a2.31,2.31,0,0,1-.25.72L44.9,63.58a7.16,7.16,0,0,1-.7,1L33,85.29H43.53l21-38.73H95.13a21.23,21.23,0,0,0-.54-3,38,38,0,0,0-2.15-6H58.9Z" fill="#161616"/></g></svg>