<svg id="Layer_1" data-name="Layer 1" xmlns="http://www.w3.org/2000/svg" viewBox="0 0 100 100"><g id="morbidelli"><path d="M94.58,43.54C92,33.56,82.12,15.27,55.38,14.72,37,14.34,25.42,25.41,20,32.33a31.62,31.62,0,0,0-4.11,7h38.6a2.31,2.31,0,0,1,2,3.41L45.21,63.58a7.17,7.17,0,0,1-6.3,3.74H6.08a33.41,33.41,0,0,0-.82,15.92,2.49,2.49,0,0,0,2.45,2H70.78a60.56,60.56,0,0,0,12-1.2L84,83.84a4.32,4.32,0,0,0,2.6-1.65C93.07,73.44,97.08,53,94.58,43.54Z" fill="#fff"/><path d="M55.38,14.72A41.92,41.92,0,0,0,25.27,26.57H85C78.87,20.24,69.48,15,55.38,14.72Z" fill="#0931d8"/><path d="M61,46.4l4.54-8.88a1.2,1.2,0,0,1,1.07-.65H89.5a1.2,1.2,0,0,1,1.07,1.75L86,47.5a1.2,1.2,0,0,1-1.07.65H62A1.2,1.2,0,0,1,61,46.4Z" fill="#05aa48"/><path d="M52.12,63.23l6.62-12.14a1.2,1.2,0,0,1,1.05-.63H78.52a1.2,1.2,0,0,1,1.05,1.77L73,64.38A1.2,1.2,0,0,1,71.9,65H53.17A1.2,1.2,0,0,1,52.12,63.23Z" fill="#f90815"/><path d="M65.62,67.06H47.82l16-30.2H17.09c-.42.79-.82,1.6-1.17,2.43h38.6a2.31,2.31,0,0,1,2,3.41L45.21,63.58a7.17,7.17,0,0,1-6.3,3.74H6.08a30,30,0,0,0-1.22,5.87H63.64a1.2,1.2,0,0,0,1.06-.64l2-3.73A1.2,1.2,0,0,0,65.62,67.06Z" fill="#0931d8"/></g></svg>