<svg id="Layer_1" data-name="Layer 1" xmlns="http://www.w3.org/2000/svg" viewBox="0 0 100 100"><g id="salo"><path d="M94.58,43.54C92,33.56,82.12,15.27,55.38,14.72,37,14.34,25.42,25.41,20,32.33a31.62,31.62,0,0,0-4.11,7h38.6a2.31,2.31,0,0,1,2,3.41L45.21,63.58a7.17,7.17,0,0,1-6.3,3.74H6.08a33.41,33.41,0,0,0-.82,15.92,2.49,2.49,0,0,0,2.45,2H70.78a60.56,60.56,0,0,0,12-1.2L84,83.84a4.32,4.32,0,0,0,2.6-1.65C93.07,73.44,97.08,53,94.58,43.54Z" fill="#009be8"/><path d="M5.26,83.25a2.49,2.49,0,0,0,2.45,2H26.19l4.58-9.47a2.47,2.47,0,0,0-2.22-3.54H5A35.31,35.31,0,0,0,5.26,83.25Z" fill="#fff"/><path d="M58.26,51.13,40.86,85.29H57.74l11-22.58a6.34,6.34,0,0,1,5.7-3.56H94.65a51.43,51.43,0,0,0,.5-12.37H65.36A8,8,0,0,0,58.26,51.13Z" fill="#fff"/><path d="M20,32.33A31.42,31.42,0,0,0,17,37H92.16A39,39,0,0,0,84.3,25.87H26A50.68,50.68,0,0,0,20,32.33Z" fill="#fff"/></g></svg>