<svg id="Layer_1" data-name="Layer 1" xmlns="http://www.w3.org/2000/svg" viewBox="0 0 100 100"><g id="rodriguez_r"><g id="gonzalez"><path d="M52.26,48.1,91,60.43l.64-5.32a35.83,35.83,0,0,0-.54-11.56c-2.63-10-12.47-28.26-39.21-28.82-18.42-.38-30,10.69-35.35,17.61q-.95,1.22-1.77,2.52h0A9.45,9.45,0,0,1,8.51,38.3h0c-.49.09-.35.31-.21.43h0a1,1,0,0,0,.38.13l31.8,6.23A106.05,106.05,0,0,1,52.26,48.1Z" fill="#edbf00"/></g><rect x="52.05" y="37.74" width="16.18" height="5.66" transform="translate(10.77 -12.58) rotate(13.11)" fill="#fff"/><rect x="62.75" y="38.97" width="5.34" height="5.66" transform="translate(11.18 -13.75) rotate(13.11)" fill="#e2071c"/><rect x="52.19" y="36.51" width="5.34" height="5.66" transform="translate(10.35 -11.42) rotate(13.11)" fill="#038e35"/></g></svg>