<svg id="Layer_1" data-name="Layer 1" xmlns="http://www.w3.org/2000/svg" viewBox="0 0 100 100"><g id="irvine"><path d="M94.58,43.54C92,33.56,82.12,15.27,55.38,14.72,37,14.34,25.42,25.41,20,32.33a31.62,31.62,0,0,0-4.11,7h38.6a2.31,2.31,0,0,1,2,3.41L45.21,63.58a7.17,7.17,0,0,1-6.3,3.74H6.08a33.41,33.41,0,0,0-.82,15.92,2.49,2.49,0,0,0,2.45,2H70.78a60.56,60.56,0,0,0,12-1.2L84,83.84a4.32,4.32,0,0,0,2.6-1.65C93.07,73.44,97.08,53,94.58,43.54Z" fill="#ff2400"/><path d="M92.16,37h0A39,39,0,0,0,84.3,25.87H26a50.67,50.67,0,0,0-6,6.46A31.41,31.41,0,0,0,17,37H92.16Z" fill="#fff"/><path d="M4.8,79.76H88.15a44.91,44.91,0,0,0,3.32-7.49H5A33.94,33.94,0,0,0,4.8,79.76Z" fill="#0db535"/><path d="M51.68,51.66l-4.07,7.49h47a62,62,0,0,0,.67-7.49Z" fill="#0db535"/></g></svg>