<svg id="Layer_1" data-name="Layer 1" xmlns="http://www.w3.org/2000/svg" viewBox="0 0 100 100"><g id="alboreto"><path d="M94.58,43.54C92,33.56,82.12,15.27,55.38,14.72,37,14.34,25.42,25.41,20,32.33a31.62,31.62,0,0,0-4.11,7h38.6a2.31,2.31,0,0,1,2,3.41L45.21,63.58a7.17,7.17,0,0,1-6.3,3.74H6.08a33.41,33.41,0,0,0-.82,15.92,2.49,2.49,0,0,0,2.45,2H70.78a60.56,60.56,0,0,0,12-1.2L84,83.84a4.32,4.32,0,0,0,2.6-1.65C93.07,73.44,97.08,53,94.58,43.54Z" fill="#ffe000"/><path d="M5.26,83.25c0,.05,0,.1,0,.15h79.9a4.28,4.28,0,0,0,1.39-1.2,42.26,42.26,0,0,0,5.73-12.52H5.44A34.28,34.28,0,0,0,5.26,83.25Z" fill="#041299"/><path d="M85.4,27H24.82A51,51,0,0,0,20,32.33a31.33,31.33,0,0,0-2.31,3.41H91.55A39,39,0,0,0,85.4,27Z" fill="#fff"/><path d="M55.38,14.72a42,42,0,0,0-30.24,12h60C79,20.31,69.57,15,55.38,14.72Z" fill="#041299"/></g></svg>