<svg id="Layer_1" data-name="Layer 1" xmlns="http://www.w3.org/2000/svg" viewBox="0 0 100 100"><g id="fisichella"><path d="M94.58,43.54C92,33.56,82.12,15.27,55.38,14.72,37,14.34,25.42,25.41,20,32.33a31.62,31.62,0,0,0-4.11,7h38.6a2.31,2.31,0,0,1,2,3.41L45.2,63.58a7.17,7.17,0,0,1-6.3,3.74H6.08a33.41,33.41,0,0,0-.82,15.92,2.49,2.49,0,0,0,2.45,2H70.78a60.56,60.56,0,0,0,12-1.2L84,83.84a4.32,4.32,0,0,0,2.6-1.65C93.07,73.44,97.08,53,94.58,43.54Z" fill="#fff"/><path d="M31.39,21.7h10l6.07-6.42A41.06,41.06,0,0,0,31.39,21.7Z" fill="red"/><path d="M79.21,21.7a38.11,38.11,0,0,0-8.91-4.45L66.53,21.7Z" fill="#00bf24"/><path d="M54.52,39.29a2.31,2.31,0,0,1,2,3.41L45.21,63.58a7.17,7.17,0,0,1-6.3,3.74H6.08a33.41,33.41,0,0,0-.82,15.92,2.49,2.49,0,0,0,2.45,2H70.78a60.56,60.56,0,0,0,12-1.2L84,83.84a4.32,4.32,0,0,0,2.6-1.65c6.49-8.76,10.5-29.2,8-38.65a38.83,38.83,0,0,0-3.25-8.22H18a31.91,31.91,0,0,0-2.05,4Z" fill="#161616"/><path d="M82,23.8l-.74-.6h-52l-.78.6Z" fill="red"/><path d="M89.22,65.79,83.8,57.88l-6.18,9a8.24,8.24,0,0,1-6.8,3.58h-3.5l-.8,8.74H76a7.64,7.64,0,0,0,6.3-3.32Z" fill="red"/><polygon points="95.01 57.35 89.59 49.45 84.16 57.35 89.59 65.26 95.01 57.35" fill="#fff"/><polygon points="66.53 79.21 70.1 70.47 45.35 70.47 41.81 79.21 66.53 79.21" fill="#fff"/><path d="M54.52,39.29a2.31,2.31,0,0,1,2,3.41L55,45.55H71.72a8.24,8.24,0,0,1,6.79,3.58l5.28,7.7,5.43-7.91-6-8.79a7.64,7.64,0,0,0-6.3-3.32H17.11c-.43.81-.84,1.64-1.2,2.48Z" fill="#05aa48"/><path d="M44.37,39.29l1-2.48H17.11c-.43.81-.84,1.64-1.2,2.48Z" fill="red"/><path d="M4.76,79.21H41.81l3.58-8.74H5.27A33,33,0,0,0,4.76,79.21Z" fill="#05aa48"/><path d="M92.4,69.37a75.15,75.15,0,0,0,2.29-10.48L90,65.79Z" fill="#05aa48"/><path d="M95,56.29c.52-4.94.43-9.5-.43-12.76q-.13-.48-.27-1L90,48.92Z" fill="red"/><path d="M55,45.55H66.53l3.58-8.74H45.35l-1,2.48H54.52a2.31,2.31,0,0,1,2,3.41Z" fill="#fff"/><path d="M90.66,34.12l-.35-.6H19.15l-.42.6Z" fill="red"/></g></svg>