<svg id="Layer_1" data-name="Layer 1" xmlns="http://www.w3.org/2000/svg" viewBox="0 0 100 100"><g id="schumacher2"><path d="M94.58,43.54C92,33.56,82.12,15.27,55.38,14.72,37,14.34,25.42,25.41,20,32.33a31.62,31.62,0,0,0-4.11,7h38.6a2.31,2.31,0,0,1,2,3.41L45.21,63.58a7.17,7.17,0,0,1-6.3,3.74H6.08a33.41,33.41,0,0,0-.82,15.92,2.49,2.49,0,0,0,2.45,2H70.78a60.56,60.56,0,0,0,12-1.2L84,83.84a4.32,4.32,0,0,0,2.6-1.65C93.07,73.44,97.08,53,94.58,43.54Z" fill="#ff2400"/><polygon points="70.19 39.29 91.13 39.29 76.38 67.33 55.44 67.33 70.19 39.29" fill="#ff2400"/><path d="M55.38,14.72a41.9,41.9,0,0,0-30,11.79H84.93C78.81,20.2,69.43,15,55.38,14.72Z" fill="#ff2400"/><path d="M70.19,39.29H54.52a2.31,2.31,0,0,1,2,3.41L45.21,63.58a7.17,7.17,0,0,1-6.3,3.74H55.43Z" fill="#161616"/><path d="M76.38,67.33H93c2.28-8.63,3.1-18.16,1.61-23.79a37,37,0,0,0-1.41-4.24h-2Z" fill="#eabd00"/><path d="M6.08,67.33c-.08.25-.15.5-.22.75H92.77l.24-.9H40.37a7.16,7.16,0,0,1-1.46.15Z" fill="#fff"/><path d="M54.52,39.29a2.31,2.31,0,0,1,.81.15h37.9c-.12-.3-.24-.6-.37-.9H16.25c-.11.25-.23.5-.34.75Z" fill="#fff"/><path d="M85.36,27q-.43-.45-.87-.9H25.83l-1,.9Z" fill="#fff"/></g></svg>