<svg id="Layer_1" data-name="Layer 1" xmlns="http://www.w3.org/2000/svg" viewBox="0 0 100 100"><g id="pironi"><path d="M94.58,43.54C92,33.56,82.12,15.27,55.38,14.72,37,14.34,25.42,25.41,20,32.33a31.62,31.62,0,0,0-4.11,7h38.6a2.31,2.31,0,0,1,2,3.41L45.21,63.58a7.17,7.17,0,0,1-6.3,3.74H6.08a33.41,33.41,0,0,0-.82,15.92,2.49,2.49,0,0,0,2.45,2H70.78a60.56,60.56,0,0,0,12-1.2L84,83.84a4.32,4.32,0,0,0,2.6-1.65C93.07,73.44,97.08,53,94.58,43.54Z" fill="#fff"/><path d="M77.93,33.87c-2.5-.19-5-.41-7.48-.66A3,3,0,0,0,67.16,36L64.72,68a3,3,0,0,0,3.16,3.22c3.5-.19,6.88-.4,10-.62a3,3,0,0,0,2.79-3V36.86A3,3,0,0,0,77.93,33.87Z" fill="#002f8e"/><path d="M94.58,43.54c-.89-3.39.1-4.7-2.84-9l-2.28-.06a3,3,0,0,0-3.1,3V66.65a3,3,0,0,0,3.32,3l2.72-.32C95.11,60.19,96.19,49.6,94.58,43.54Z" fill="#002f8e"/><path d="M44.48,32.83l-.82,6.46H54.52a2.31,2.31,0,0,1,2,3.41L45.21,63.58a7.17,7.17,0,0,1-6.3,3.74H6.08a30.07,30.07,0,0,0-1.26,6.23s26.4-.57,51.27-1.71a3,3,0,0,0,2.86-2.77l2.59-34a3,3,0,0,0-2.6-3.2c-3.83-.51-7.52-1.05-11-1.61A3,3,0,0,0,44.48,32.83Z" fill="#002f8e"/><path d="M28.89,29.71l-.5,2a3,3,0,0,0,2.91,3.73h4.48a3,3,0,0,0,3-2.62l.15-1.19a3,3,0,0,0-2.43-3.33l-4.11-.78A3,3,0,0,0,28.89,29.71Z" fill="#002f8e"/></g></svg>