<svg id="Layer_1" data-name="Layer 1" xmlns="http://www.w3.org/2000/svg" viewBox="0 0 100 100"><g id="hawthorn"><path d="M52.26,47.82,91,60.15l.64-5.32a35.83,35.83,0,0,0-.54-11.56C88.45,33.29,78.61,15,51.88,14.45c-18.42-.38-30,10.69-35.35,17.61q-.95,1.22-1.77,2.52h0A9.45,9.45,0,0,1,8.51,38h0c-.49.09-.35.31-.21.43h0a1,1,0,0,0,.38.13l31.8,6.23A106.05,106.05,0,0,1,52.26,47.82Z" fill="#02260d"/><path d="M8.51,38h0c-.49.09-.35.31-.21.43h0a1,1,0,0,0,.38.13l31.8,6.23L14.75,34.58h0A9.45,9.45,0,0,1,8.51,38Z" fill="#fff"/></g></svg>