<svg id="Layer_1" data-name="Layer 1" xmlns="http://www.w3.org/2000/svg" viewBox="0 0 100 100"><g id="arnoux"><path d="M94.58,43.54c-2.63-10-12.47-28.26-39.21-28.82C37,14.34,25.41,25.41,20,32.33a31.62,31.62,0,0,0-4.11,7h38.6a2.31,2.31,0,0,1,2,3.41L45.2,63.58a7.17,7.17,0,0,1-6.3,3.74H6.07a33.41,33.41,0,0,0-.82,15.92,2.49,2.49,0,0,0,2.45,2H70.78a60.56,60.56,0,0,0,12-1.2L84,83.84a4.32,4.32,0,0,0,2.6-1.65C93.07,73.44,97.08,53,94.58,43.54Z" fill="#fff"/><line x1="48.82" y1="67.38" x2="92.96" y2="67.38" fill="none" stroke="#071c4f" stroke-miterlimit="10" stroke-width="0.9"/><line x1="50.32" y1="64.81" x2="93.59" y2="64.81" fill="none" stroke="#071c4f" stroke-miterlimit="10" stroke-width="0.9"/><line x1="59.81" y1="44.21" x2="95.33" y2="48.14" fill="none" stroke="#071c4f" stroke-miterlimit="10" stroke-width="0.9"/><line x1="60.59" y1="41.71" x2="95.33" y2="45.56" fill="none" stroke="#071c4f" stroke-miterlimit="10" stroke-width="0.9"/></g></svg>