<?xml version="1.0" encoding="utf-8"?>
<!-- Generator: Adobe Illustrator 21.0.0, SVG Export Plug-In . SVG Version: 6.00 Build 0)  -->
<svg version="1.1" xmlns="http://www.w3.org/2000/svg" xmlns:xlink="http://www.w3.org/1999/xlink" x="0px" y="0px"
	 viewBox="0 0 500 36.3" style="enable-background:new 0 0 500 36.3;" xml:space="preserve">
<style type="text/css">
	.st0{fill:#FFFFFF;}
</style>
<g id="Layer_1">
</g>
<g id="Layer_2">
	<g>
		<path class="st0" d="M335.7,28.1l12.5-17.8c3.5-4.9,9.1-7.9,15.2-7.9h29.9c3.1,0,5,3.5,3.2,6.1l-12.5,17.8
			c-3.5,4.9-9.1,7.9-15.2,7.9h-29.9C335.7,34.2,333.9,30.6,335.7,28.1z M349.9,26.4h18.8c1.9,0,3.7-0.9,4.8-2.5l9.2-13
			c0.2-0.3,0-0.7-0.4-0.7h-18.8c-1.9,0-3.7,0.9-4.8,2.5l-9.2,13C349.3,26,349.5,26.4,349.9,26.4z"/>
		<path class="st0" d="M385.6,28.1l12.5-17.8c3.5-4.9,9.1-7.9,15.2-7.9h29.9c3.1,0,5,3.5,3.2,6.1l-12.5,17.8
			c-3.5,4.9-9.1,7.9-15.2,7.9h-29.9C385.6,34.2,383.8,30.6,385.6,28.1z M399.8,26.4h18.8c1.9,0,3.7-0.9,4.8-2.5l9.2-13
			c0.2-0.3,0-0.7-0.4-0.7h-18.8c-1.9,0-3.7,0.9-4.8,2.5l-9.2,13C399.2,26,399.4,26.4,399.8,26.4z"/>
		<path class="st0" d="M328.4,34.2l17.5-24.9c2-2.9,0-6.9-3.6-6.9h-12.3l-5.4,7.7h6.9c0.5,0,0.8,0.6,0.5,1l-15.8,22.4
			c-0.2,0.3,0,0.6,0.3,0.6H328.4z"/>
		<path class="st0" d="M459,19.6h12c0.4,0,0.7,0.5,0.4,0.8l-2.4,3.4c-0.1,0.1-0.2,0.2-0.3,0.2h-2.5c-0.4,0-0.7-0.5-0.4-0.8v0
			c0.2-0.4,0-0.8-0.4-0.8h-4.6c-0.1,0-0.3,0.1-0.3,0.2l-5.8,8.2c-0.2,0.4,0,0.8,0.4,0.8h4.6c0.1,0,0.3-0.1,0.3-0.2l1.3-1.9
			c0.2-0.4,0-0.8-0.4-0.8h-1.1c-0.2,0-0.3-0.2-0.2-0.4l1.6-2.3c0.1-0.1,0.2-0.2,0.3-0.2h5.3c0.3,0,0.5,0.4,0.3,0.7l-5.2,7.4
			c-0.1,0.1-0.2,0.2-0.3,0.2h-12c-0.4,0-0.7-0.5-0.4-0.8l9.5-13.5C458.7,19.7,458.8,19.6,459,19.6z"/>
		<path class="st0" d="M465.6,33.3l9.5-13.5c0.1-0.1,0.2-0.2,0.3-0.2h12.2c0.4,0,0.7,0.5,0.4,0.8l-6.1,8.6c-0.1,0.1-0.2,0.2-0.3,0.2
			h-9.3c-0.1,0-0.3,0.1-0.3,0.2l-3.3,4.7H466C465.6,34.2,465.3,33.7,465.6,33.3z M476.8,22.6l-2.1,3c-0.2,0.4,0,0.8,0.4,0.8h4.8
			c0.1,0,0.3-0.1,0.3-0.2l2.1-3c0.2-0.3,0-0.8-0.4-0.8l-4.8,0C477,22.4,476.9,22.5,476.8,22.6z"/>
		<path class="st0" d="M493.1,2.4h-29.9c-6,0-11.7,2.9-15.2,7.9l-12.5,17.8c-1.8,2.6,0,6.1,3.2,6.1h4.7l6-8.5l9.2-13
			c1.1-1.6,2.9-2.5,4.8-2.5h18.8c0.4,0,0.6,0.4,0.4,0.7l-3.3,4.7h12.1l0,0l5-7C498.1,6,496.3,2.4,493.1,2.4z"/>
	</g>
</g>
<g id="Layer_5">
	<g>
		<polygon class="st0" points="3.4,34.2 3.4,2.5 42.6,2.5 42.6,11 14.4,11 14.4,17.4 39.2,17.4 39.2,25.1 14.4,25.1 14.4,34.2 		"/>
		<polygon class="st0" points="48.6,34.2 48.6,2.5 86.1,2.5 86.1,8.9 59.6,8.9 59.6,15.1 86.1,15.1 86.1,21.5 59.6,21.5 59.6,27.7 
			86.1,27.7 86.1,34.2 		"/>
		<path class="st0" d="M126.2,34.1l-6.4-8.3h-13.5v8.3h-11V2.4l31.7,0c3,0,6,1.3,8.2,3.5c2.2,2.2,3.4,5.1,3.4,8.2
			c0,2.3-0.6,4.5-1.9,6.3c-1.2,1.9-2.9,3.3-4.9,4.2l-1.3,0.6l6.9,8.8H126.2z M106.3,18.1h17.2c1.1,0,2.1-0.4,2.8-1.2
			c0.8-0.8,1.2-1.7,1.2-2.8c0-2.2-1.8-4-4-4h-17.2V18.1z"/>
		<path class="st0" d="M175.8,34.1l-6.4-8.3h-13.5v8.3h-11V2.4l31.7,0c3,0,6,1.3,8.2,3.5c2.2,2.2,3.4,5.1,3.4,8.2
			c0,2.3-0.6,4.5-1.9,6.3c-1.2,1.9-2.9,3.3-4.9,4.3l-1.3,0.6l6.9,8.8H175.8z M155.9,18.1h17.2c1.1,0,2.1-0.4,2.8-1.2
			c0.8-0.8,1.2-1.7,1.2-2.8c0-2.2-1.8-4-4-4h-17.2V18.1z"/>
		<path class="st0" d="M228.3,34.2l-2.7-5.8h-18.4l-2.7,5.8h-12.3l17-31.7h14.4l17,31.7H228.3z M210,22.3h12.8l-6.4-13.8L210,22.3z"
			/>
		<path class="st0" d="M275.5,34.1l-6.4-8.3h-13.5v8.3h-11V2.4l31.7,0c3,0,6,1.3,8.2,3.5c2.2,2.2,3.4,5.1,3.4,8.2
			c0,2.3-0.6,4.5-1.9,6.3c-1.2,1.9-2.9,3.3-4.9,4.3l-1.3,0.6l6.9,8.8H275.5z M255.6,18.1h17.2c1.1,0,2.1-0.4,2.8-1.2
			c0.8-0.8,1.2-1.7,1.2-2.8c0-2.2-1.8-4-4-4h-17.2V18.1z"/>
		<rect x="294.2" y="2.4" class="st0" width="11" height="31.7"/>
	</g>
</g>
</svg>
