<?xml version="1.0" encoding="utf-8"?>
<!-- Generator: Adobe Illustrator 21.0.0, SVG Export Plug-In . SVG Version: 6.00 Build 0)  -->
<svg version="1.1" xmlns="http://www.w3.org/2000/svg" xmlns:xlink="http://www.w3.org/1999/xlink" x="0px" y="0px"
	 viewBox="0 0 100 100" style="enable-background:new 0 0 100 100;" xml:space="preserve">
<style type="text/css">
	.st0{fill:#FFFFFF;}
</style>
<g id="Layer_2">
</g>
<g id="Layer_1">
	<g>
		<path class="st0" d="M64.7,37.5l-2.8,3.6c-1.2-11.6-11-20.6-22.8-20.6v1.1c11.3,0,20.7,8.6,21.7,19.8l-3.6-3.2L56.5,39l5,4.5
			l4.1-5.3L64.7,37.5z"/>
		<path class="st0" d="M31.4,20.7H5.5c-1.8,0-3.3,1.5-3.3,3.3v52.1c0,1.8,1.5,3.3,3.3,3.3h25.9c1.8,0,3.3-1.5,3.3-3.3V24.1
			C34.8,22.2,33.3,20.7,31.4,20.7z M31.9,71.3H5v-46h26.9V71.3z"/>
		<path class="st0" d="M94.5,46.9H42.4c-1.8,0-3.3,1.5-3.3,3.3v25.9c0,1.8,1.5,3.3,3.3,3.3h52.1c1.8,0,3.3-1.5,3.3-3.3V50.2
			C97.8,48.4,96.3,46.9,94.5,46.9z M93.2,76.6h-46V49.7h46V76.6z"/>
	</g>
</g>
</svg>
