<svg id="Layer_1" data-name="Layer 1" xmlns="http://www.w3.org/2000/svg" viewBox="0 0 200 200"><title>Circuits</title><path d="M122.27,121.26l-2.36-2.76c-5,3.54-9.95,7-14.83,10.48Q89.49,140.1,73.92,151.27q-20.34,14.52-40.72,29c-4.16,2.94-8.72,5-14,5.06a9,9,0,0,1-6.67-2.84c-2.82-2.95-2.69-6.73.85-10.12,8.46-8.09,16.1-17,25.7-24,9.85-7.15,13.25-17.58,11.93-29.54-.55-5-1.65-10-2-15a26.15,26.15,0,0,1,3.71-16c3.53-5.53,11.93-7.24,18.29-4.06C80.65,88.6,87.66,95.46,90.5,106a7.77,7.77,0,0,0,1.28,2.38c1.08,1.5,2.33,1.68,3.76.37,3.18-2.9,3.87-6.74,3.71-10.68-.23-5.45-1-10.88-1.3-16.32a135.83,135.83,0,0,1-.48-16.29c.49-8,4.08-14.9,9.18-21,8.3-10,19.15-15.17,31.77-17.14,4-.62,8-1.53,12-2.1,7-1,13.43.93,19.51,4.3,7.92,4.39,12.83,11.57,17,19.21,2.43,4.5,2.22,9.55.83,14.65-2.15,7.88-7.91,12.39-14.11,16.78-16,11.33-31.9,22.8-47.84,34.22-.47.34-1,.64-1.44,1C120.95,117.63,120.95,117.63,122.27,121.26ZM102.82,96.53c-.06,4.19-.27,8.32-2.55,12-1.56,2.51-3.37,4.77-6.79,4.55-3.13-.2-4.92-2.06-5.9-4.88-.43-1.24-.82-2.5-1.25-3.74C83.46,96.17,77.27,90.93,69.87,87c-6-3.18-12.17-1.35-15.16,4.7a21.13,21.13,0,0,0-2.1,9.55c.15,5.74,1.18,11.46,1.79,17.19,1.36,12.77-2,24-12.41,31.91-9.79,7.45-18,16.45-26.67,25-1.77,1.73-1.47,3.78.49,5.25,2.32,1.74,4.82,1.52,7.35.71,7.76-2.48,13.83-7.62,19.77-12.88,3.26-2.88,5.85-6.56,9.28-9.18,8.49-6.46,17.28-12.53,26-18.74,4.65-3.33,9.33-6.62,14-9.94s9-6.79,13.78-9.78,8.67-6.85,13.44-9.74c4.94-3,9.39-6.78,14.19-10,4.24-2.85,8.6-5.53,13.05-8,2.5-1.41,5.55-1.94,7.9-3.53,7.18-4.86,14.09-10.13,21.21-15.09,8.33-5.81,12.11-16.06,8-24a56,56,0,0,0-10.68-14.18,26.3,26.3,0,0,0-22-7.56c-4.09.47-8.11,1.47-12.18,2.1-11.29,1.75-21.12,6.25-28.8,14.94-7,8-10.44,17.18-9.46,27.86C101.34,81.22,102.09,88.87,102.82,96.53ZM46.91,164.79l.72.84c1-.66,2.12-1.27,3.12-2q28.54-20.41,57.06-40.85c2.89-2.07,5.8-4.13,8.64-6.28.38-.28.41-1,.6-1.55a4.74,4.74,0,0,0-1.51.27,31.06,31.06,0,0,0-2.91,1.9Q83.42,138,54.24,158.84C51.68,160.67,49.34,162.8,46.91,164.79Zm100.3-70.2-.35-.59a31.74,31.74,0,0,0-4.53,2.2q-11.4,7.9-22.66,16c-.58.42-.82,1.31-1.22,2a6,6,0,0,0,2.18-.47q9.83-6.87,19.56-13.87C142.57,98.13,144.87,96.34,147.2,94.59Z" fill="#fff"/></svg>