<svg id="Layer_1" data-name="Layer 1" xmlns="http://www.w3.org/2000/svg" viewBox="0 0 200 200"><title>Circuits</title><path d="M195.69,151.35c-6-12.07-13.68-23.11-21.18-34.27l-7.29-10.89c-5.93-8.89-12-17.66-17.92-26.59A49.32,49.32,0,0,1,143.66,69c-1-3-1-6.46-1-9.73-.22-8.69-5.87-14-14.18-12.42-7.55,1.48-12.65-1.27-16.77-7.11a6.57,6.57,0,0,0-.48-.71c-2.84-3.06-5.59-6.52-10.41-5.8-5.14.77-9.77-.6-14.15-2.94A177.69,177.69,0,0,0,39.48,12.76c-6-1.26-13.56,1.31-15.9,7C22,23.52,20.3,27.2,18.8,31l-2.74,6.36-.11.23C11.87,47,7.9,56.51,3.68,65.89a21.29,21.29,0,0,0-.75,16.59A78.12,78.12,0,0,0,9.71,95.74a98.52,98.52,0,0,0,8.17,11.2,7.51,7.51,0,0,0,13.34-4.56c.25-3.33-1.32-5.82-4.15-7.54a52.8,52.8,0,0,1-6-3.8,5.54,5.54,0,0,1-1.88-3.45c-.28-3.45,3-7.13,6.8-8.54q14.91-5.5,29.75-11.19C68.29,63,80.74,58,93.33,53.36a12,12,0,0,1,7.43-.2c6.56,2.24,11.33,7.06,15.42,12.5.48.64.73,2.18.35,2.57a3.61,3.61,0,0,1-2.75.67c-3.37-.47-6.71-1.21-10.07-1.74-3.59-.56-6.26,2-5.61,5.46,1.26,6.78,2.74,13.53,4,20.31.94,5,.4,9.79-2.77,14.07-2.48,3.35-4.82,6.79-7.13,10.26-2.68,4-3.7,8.26-1.48,12.89s4.56,9.14,6.42,13.87c.12.31.25.6.39.86l8,17.84,2,5.49a22.11,22.11,0,0,0,1.38,2.13c1.91,3.8,3.63,7.71,5.64,11.46.86,1.6,2,3.41,3.46,4.25a19.85,19.85,0,0,0,20.53,0,4.6,4.6,0,0,0,2.34-5.09,40.33,40.33,0,0,0-1.43-4.78c1.62-.37,3.26-.67,4.86-1.11q7.27-2,14.52-4.09a68.16,68.16,0,0,1,25.55-2.71C194.06,169.19,198.66,157.27,195.69,151.35ZM93.34,120a55.42,55.42,0,0,1,7-9.26l-7.57,17.48C90.85,125.53,91.79,122.62,93.34,120Zm14.34,39h0l.88,2,1.64,3.77-.84.36,0,0-5.72-13.16c-.35-1-.7-2-1.07-3l-.23,0L101.5,147c0-.1,0-.19,0-.28ZM151,170.67c-3.33.78-6.68,1.42-10,2.17s-4.5,2.37-3.54,5.7c1.43,4.94.8,6.22-5.3,7.53a21.52,21.52,0,0,1-5.69.25c-5.21-.3-9.15-2.25-11-7.72-1.23-3.67-3.21-7.1-4.9-10.62l-.21-.49.84-.43c.55,1.07,1.13,2.13,1.66,3.21,2,4.18,4.57,5.52,9.13,4.49,7.85-1.76,15.64-3.82,23.52-5.4,4-.79,8.06-.83,12.09-1.21l.12.69C155.53,169.46,153.31,170.14,151,170.67Zm33.19-4.51c-6.87-.18-13.77.38-20.65.76-6.06.33-12.19.37-18.13,1.42a173.24,173.24,0,0,0-22.92,5.57c-5.73,1.84-10.6-4.2-9.58-8.46a26.45,26.45,0,0,1-2.89-3.49,28.16,28.16,0,0,1-1.49-3.42h0l0-.05a15.62,15.62,0,0,0-.66-1.44c-.71-1.34-1.47-2.67-2.23-4l-4.57-8.58c-1.94-4.7-4.11-9.3-5.88-14.06a7.86,7.86,0,0,1-.1-5.1c1.68-4.42,3.77-8.68,5.74-13,2.83-6.19,4.87-12.48,3.47-19.46-1.3-6.51-2.48-13-3.59-19.6-.62-3.62.44-4.5,4-3.78a81.75,81.75,0,0,0,10.33,1.85,5.42,5.42,0,0,0,4.07-2.22c.61-.92.32-3.12-.42-4.12a42.7,42.7,0,0,0-14.41-13c-3.22-1.69-6.37-3.29-10.22-1.69-5.6,2.32-11.3,4.43-16.92,6.71L65.68,61.29a6.57,6.57,0,0,0-1.05.37l-1.09.42-2,.74h.07C53.43,66,45.23,69.09,37.09,72.34c-5.43,2.16-11,4.11-16.08,7-6.32,3.61-6,11,.23,14.62a25,25,0,0,1,3.42,2,14.84,14.84,0,0,1,3.73,3.75c1.26,2.23-.06,5.86-2.11,7-2.28,1.24-6.19.08-7.8-2.35-2.8-4.23-5.24-8.75-8.42-12.66A24.22,24.22,0,0,1,4.54,71.8c.72-4.36,2.92-8.51,4.65-12.68,2.32-5.6,4.79-11.16,7.32-17h0l.08-.19.69-1.57h0L20,34c1.86-4.25,3.82-8.46,5.54-12.76a9.9,9.9,0,0,1,7-6c4.84-1.45,9.15.76,13.6,1.77a149.63,149.63,0,0,1,35.8,13.53c6.3,3.27,12.61,5.95,20,5a5.87,5.87,0,0,1,4.05,1.6c2.55,2.35,4.72,5.09,7.2,7.52a22.51,22.51,0,0,0,4.86,3.77c3.85,2.09,8,1.13,12,.56,4.72-.66,10.21,2.83,9.75,8.72-.27,3.54-.29,7.38.82,10.66,1.37,4,3.81,7.79,6.17,11.41,6,9.28,12.29,18.44,18.52,27.6l5.43,8.06c.91,1.42,1.82,2.85,2.72,4.28,6.48,10.36,12.79,20.82,19.49,31C196.45,156.21,192.37,166.38,184.24,166.16Z" fill="#fff"/></svg>