<svg id="Layer_1" data-name="Layer 1" xmlns="http://www.w3.org/2000/svg" viewBox="0 0 200 200"><title>Circuits</title><path d="M169.14,152.21c-2.26-4-5.15-7.7-7.71-11.57a10.12,10.12,0,0,1-1.57-3.12c-.85-3.69-1.51-7.42-2.26-11.13-.34-1.68-.63-3.38-1.13-5a3.19,3.19,0,0,0-3.67-2.32c-1.09.1-2.18.21-3.27.37-1.39.2-1.88-.61-2.06-1.78-.32-2-.51-4.12-.94-6.15-1.4-6.58-2.82-13.17-4.37-19.72a4.44,4.44,0,0,1,1.13-4.64,16.61,16.61,0,0,0,1.41-1.46c1.89-2.36,1.61-5.52-.69-6.76-4.12-2.22-8.31-4.34-12.47-6.5s-8.48-4.48-12.79-6.6-8.61-2.58-12.88-.09c-3.23,1.88-6.38,3.9-9.52,5.92-2.94,1.89-5.86,3.84-8.82,5.8l2,2.45,9.71-6.71.33.48L90,80.55l1.07,1.31c1-.75,1.95-1.54,3-2.25,4.11-2.76,8.32-5.37,12.39-8.18,3.07-2.12,6.33-1.74,9.6-1a57.82,57.82,0,0,1,8,2.35c3.5,1.36,6.89,3,10.29,4.58,2.19,1,4.32,2.23,6.45,3.4.74.4,1.4.93,2.35,1.56A20.35,20.35,0,0,1,141,85.2c-2.11,1.91-2.46,4.14-1.89,6.82,1.84,8.69,3.55,17.4,5.32,26.11.64,3.13,1.89,4.74,6.36,4.24,3.16-.35,3-.25,3.58,2.94a122.4,122.4,0,0,0,3.45,14.89c.77,2.42,2.93,4.36,4.28,6.63,2.82,4.77,5.76,9.5,8.19,14.47,3.06,6.26,3.41,13,2.52,19.86-.5,3.83-.89,7.67-1.36,11.76a7,7,0,0,1-1.62-.53c-2.54-1.78-5.28-1.67-8.12-1-4,1-8,1.89-12.52,2.94.26-2.69.39-5.18.77-7.64,1.55-10.13-1.52-18.83-7.85-26.66a44.51,44.51,0,0,0-10.82-9.94,76.45,76.45,0,0,0-16.12-7.55c-8.33-2.87-16.74-5.54-24.91-8.81-5.62-2.25-10.9-5.36-16.32-8.09l-12.57-6.33c-2.18-1.1-2.26-1.58-.57-3.48,2.7-3,3-6.75.2-8.72a35.19,35.19,0,0,0-7.54-3.8c-2.63-1-5.44-1.65-8.15-2.52a1.65,1.65,0,0,1-1.15-2.56c1.75-3.93,3.41-7.9,5.17-11.83a39.19,39.19,0,0,0,3.16-13.32C52.89,68,53.13,63,51.57,58a10.69,10.69,0,0,0-2-3.84c-4.15-4.67-6.59-10.23-9-15.9s-5-11.26-7.51-16.9c-2-4.58-4-9.19-5.92-13.79A3.92,3.92,0,0,1,27,6.72l.55-.43c2.37,2.53,4.74,5,7.09,7.58A8.52,8.52,0,0,0,44,16.25c3.77-1.25,6.73-.62,9.54,2.06,1.31,1.25,3,2.06,4.29,3.36a5.13,5.13,0,0,1,1.36,3.24c0,7.38,0,14.77-.48,22.13-.22,3.6-1.32,7.15-2.08,10.71A25.36,25.36,0,0,0,57,69.29c.76,3.06,1.29,6.2,2.28,9.18a10.26,10.26,0,0,0,2.76,3.69c1.49,1.45,2.54,3,2.43,5.14q-.24,4.83-.44,9.66a14,14,0,0,0,.09,2c.18,1.73.44,3.43,2.53,3.92a5.5,5.5,0,0,0,5.47-1.78c3-3.13,6-6.31,9-9.47l6.24-6.59-1-1.25-16.5,17.31-.57-.57L85.87,83.19l-1.93-2.37L67.09,98.49c.16-3.18.19-6,.46-8.74A11.3,11.3,0,0,0,64.21,80a15.89,15.89,0,0,1-2.92-5.36,35.19,35.19,0,0,1-1.09-4.8A27,27,0,0,1,60.41,55a34.9,34.9,0,0,0,1.44-8.85c.32-7,.4-14,.45-21a7.18,7.18,0,0,0-2.75-6c-2-1.57-4-3.21-6.11-4.69S49,11.59,46.2,12.66a16.64,16.64,0,0,1-3,.79c-2.32.41-4.57.33-6.36-1.49-2.11-2.15-4.14-4.37-6.25-6.52a15.61,15.61,0,0,0-2.52-2.13c-2-1.31-4-.38-4.27,2a5.88,5.88,0,0,0,.35,2.84c3.09,7.23,6.27,14.43,9.41,21.64,1.91,4.38,3.68,8.83,5.73,13.14,1.52,3.2,3.32,6.28,5.13,9.34,1,1.65,2.34,3.07,3.37,4.69,1.81,2.84,1.84,6.12,1.89,9.33.07,5.16,0,10.37-1.8,15.26-2,5.29-4.34,10.42-6.52,15.62a8.83,8.83,0,0,0-.56,1.74c-.43,2.26.91,3.87,3.75,4.75,3.65,1.13,7.31,2.27,10.91,3.54,4.54,1.61,5.12,3.67,2.32,7.36-1.21,1.59-1.91,3.55-.48,5.17A15.89,15.89,0,0,0,61.94,123c5.34,2.79,10.83,5.29,16.13,8.16a139.54,139.54,0,0,0,21.13,9.32c7.5,2.57,15.13,4.84,22.44,7.87A42.76,42.76,0,0,1,140,162.07c5.48,7.28,8.57,15.07,7,24.33a45.37,45.37,0,0,0-.55,7.24c0,2.93,1.95,4,4.27,3.5,3-.69,5.92-1.45,8.89-2.13,3.26-.74,6.42-1.7,9.76.31,2.53,1.52,4.9,0,5.27-3.21.68-6,1.34-12,1.58-18C176.52,166,173,159,169.14,152.21ZM110.07,68.4c-2.39.38-4.61,1.84-6.72,2.74,4.52-4.38,9.64-5.28,14.29-2.26C115.13,68.68,112.52,68,110.07,68.4Z" fill="#fff"/><rect x="92.88" y="85.42" width="1.66" height="1.66" transform="translate(220.91 92.63) rotate(140.25)" fill="#fff"/><rect x="90.55" y="85.21" width="1.66" height="1.66" transform="translate(216.65 93.75) rotate(140.25)" fill="#fff"/><rect x="90.34" y="87.54" width="1.66" height="1.66" transform="translate(217.76 98.01) rotate(140.25)" fill="#fff"/><rect x="90.76" y="82.88" width="1.66" height="1.66" transform="translate(215.54 89.49) rotate(140.25)" fill="#fff"/><rect x="88.43" y="82.66" width="1.66" height="1.66" transform="translate(211.27 90.6) rotate(140.25)" fill="#fff"/><rect x="88.22" y="85" width="1.66" height="1.66" transform="translate(212.39 94.86) rotate(140.25)" fill="#fff"/><rect x="88.65" y="80.33" width="1.66" height="1.66" transform="translate(210.16 86.34) rotate(140.25)" fill="#fff"/><rect x="86.31" y="80.12" width="1.66" height="1.66" transform="translate(205.9 87.45) rotate(140.25)" fill="#fff"/><rect x="86.1" y="82.45" width="1.66" height="1.66" transform="translate(207.01 91.71) rotate(140.25)" fill="#fff"/><rect x="86.53" y="77.79" width="1.66" height="1.66" transform="translate(204.79 83.19) rotate(140.25)" fill="#fff"/><rect x="84.2" y="77.57" width="1.66" height="1.66" transform="translate(200.53 84.3) rotate(140.25)" fill="#fff"/><rect x="83.98" y="79.9" width="1.66" height="1.66" transform="translate(201.64 88.56) rotate(140.25)" fill="#fff"/><rect x="84.41" y="75.24" width="1.66" height="1.66" transform="translate(199.42 80.04) rotate(140.25)" fill="#fff"/><rect x="81.87" y="77.36" width="1.66" height="1.66" transform="translate(196.27 85.41) rotate(140.25)" fill="#fff"/></svg>