<svg id="Layer_1" data-name="Layer 1" xmlns="http://www.w3.org/2000/svg" viewBox="0 0 200 200"><title>Circuits</title><path d="M77.07,114.12a7.49,7.49,0,0,0,.37.76c.42.66.85,1.31,1.32,2l-2.67,1.77,1.72,2.66-2.66,1.76-1.36-2-.48.3Q56.8,132.28,40.26,143.17a3.5,3.5,0,0,0-1.81,3.72,2.47,2.47,0,0,0,.63,1.28,18.67,18.67,0,0,0,2.73,2.45c3,2,6,3.86,9,5.84a48.22,48.22,0,0,1,10.58,9,16.55,16.55,0,0,1,4,9.16c.41,4.22-1.52,7.1-5.15,9a25.65,25.65,0,0,1-6.4,2,44.59,44.59,0,0,1-8.17,1.11,17.53,17.53,0,0,1-11.39-3.83,14.12,14.12,0,0,1-4.06-4.49Q24,167.25,17.81,156.06a11,11,0,0,1-1.24-4.89,13.15,13.15,0,0,1,6-12c6.09-4.23,12.26-8.35,18.41-12.5l42.82-29,.49-.36c-.18-.31-.33-.61-.52-.89a3.12,3.12,0,0,1,0-3.59c2.24-3.67,4.51-7.32,6.73-11a178.52,178.52,0,0,0,10.79-20.51,23.32,23.32,0,0,0,.53-17.78c-2.4-6.74-4.79-13.49-7.32-20.18a6.81,6.81,0,0,1,2.2-7.55c2.46-1.65,4.82-3.46,7.26-5.15,2-1.38,4.06-2.61,6-4,3.7-2.69,11.12-2,14.44,1.28s6.92,6.26,10.32,9.45A36.81,36.81,0,0,0,147,24.89c7.33,2.83,14.62,5.75,21.92,8.64a11.2,11.2,0,0,1,2,1,4.58,4.58,0,0,1,.41,7.48c-1.75,1.37-3.67,2.51-5.5,3.78a9.14,9.14,0,0,0-2.89,2.44,16.37,16.37,0,0,0-.9,1.46c-1.24,2.55-3.39,4.2-5.64,5.74-3.42,2.36-6.88,4.65-10.32,7Q132.28,71.71,118.55,81a2.58,2.58,0,0,0-.91,1.14c-1,2.77-2,5.56-3,8.35a3.62,3.62,0,0,0-.26,1.11A4.92,4.92,0,0,1,112,95.71c-2.18,1.5-4.42,2.93-6.63,4.39L82.27,115.41l-.44.32,1.34,2-2.65,1.78,1.71,2.61-2.57,1.71,1.76,2.68-2.67,1.77L77,125.66l2.57-1.72-1.73-2.62,2.69-1.79-1.74-2.62,2.65-1.78L80,113l.61-.42,28.63-18.94c.28-.19.57-.37.84-.58a1.86,1.86,0,0,0,.73-2.55,16.72,16.72,0,0,0-1.13-2.06,4.59,4.59,0,0,1-.88-3.25.43.43,0,0,0-.16,0c-2.11,1.42-4.21,2.85-6.33,4.25a2,2,0,0,0-.95,2.19c.19,1.55.2,3.12.25,4.69a1.81,1.81,0,0,1-1,1.59q-10.35,6.71-20.68,13.45l-.66.45.39.74-2.58,1.6-1.86-2.49,2.69-1.79.59.79.24-.13q10.55-6.87,21.09-13.75a1.19,1.19,0,0,0,.46-.87,28.47,28.47,0,0,0-.28-4.31,3,3,0,0,1,1.49-3.21l.41-.3c3.67-2.43,7.37-4.83,11-7.29q21-14.13,41.87-28.31a11.67,11.67,0,0,0,4.62-5,3.57,3.57,0,0,1,.24-.38,12.68,12.68,0,0,1,4.41-4.13q2.5-1.63,5-3.34a1.34,1.34,0,0,0-.13-2.38,13.46,13.46,0,0,0-1.68-.76c-7.48-3-14.95-5.95-22.44-8.88a35.47,35.47,0,0,1-11.31-6.93c-3.71-3.42-7.5-6.76-11.21-10.17a7.4,7.4,0,0,0-4.46-2.08c-2-.18-4-.26-5.82,1-4.42,3.07-8.84,6.14-13.28,9.17a3.52,3.52,0,0,0-1,3.58Q101.38,32.18,105,42.3a26.47,26.47,0,0,1-.55,20.29A176,176,0,0,1,93.47,83.45C91.34,87,89.16,90.5,87,94a.78.78,0,0,0-.08.86A8,8,0,0,1,87.67,97c.27,1.63-.69,2.64-1.94,3.48L43.79,128.77c-6.37,4.31-12.76,8.6-19.1,13a9.87,9.87,0,0,0-4.66,7,9.37,9.37,0,0,0,.76,5.83q5.53,10.12,11.15,20.19a23.4,23.4,0,0,0,2.78,4.08,14.33,14.33,0,0,0,6.15,3.88,12.67,12.67,0,0,0,3.66.66,37.81,37.81,0,0,0,12.61-2.07,11.45,11.45,0,0,0,3.29-1.85,4.55,4.55,0,0,0,1.34-1.87,6.88,6.88,0,0,0,0-4.49A13.31,13.31,0,0,0,59,167.77a27.35,27.35,0,0,0-10-7.85c-2.36-1-4.66-2.14-7-3.18a25.32,25.32,0,0,1-8-5.32,5.83,5.83,0,0,1-1.89-3.17c-.62-4.59.46-7.43,3.75-9.58q17-11.11,33.94-22.32l.6-.43-.48-.78,2.67-1.77L74.32,116l-2.65,1.76-.53-.68-.35.2c-11.51,7.57-23,15.22-34.55,22.67-3.15,2-4.26,8.25-.9,11a33.52,33.52,0,0,0,7.32,4.63l.67.29a1.56,1.56,0,0,0-.49-.48c-1.8-1.33-3.69-2.57-5.39-4a6.41,6.41,0,0,1-2.34-6.18,6.89,6.89,0,0,1,3.35-4.78q16.48-10.86,33-21.75l.55-.35,1.43,2.15L76,118.69,74.32,116Zm36.1-26.77L114.39,84a4.3,4.3,0,0,0-1.22.67c-1.28,1-1.42,1.14-.19,2.59A1.18,1.18,0,0,0,113.17,87.35Z" fill="#fff"/></svg>