<svg id="Layer_1" data-name="Layer 1" xmlns="http://www.w3.org/2000/svg" viewBox="0 0 200 200"><title>Circuits</title><path d="M166.52,8.17a2.82,2.82,0,0,0-2.11,3.61A23.93,23.93,0,0,0,166,17c2.16,4.66,4.62,9.19,6.68,13.88,3.27,7.43,6.09,15.08,5.61,23.36-.36,6.16-2.68,10-8.33,12.14-1,.37-2,.72-3,1.11-2.73,1.06-4.84-.25-6.7-1.94-1.54-1.41-1.32-3.35-.63-5.1,1.69-4.27,3.51-8.49,5.26-12.74a29.75,29.75,0,0,0,2-5.23A6.06,6.06,0,0,0,163.94,36c-2.2-1.44-4.56-1-6.64.41Q145.13,44.9,133,53.51c-2.3,1.63-2.93,1.59-4.82-.6-2.73-3.16-5.44-6.34-8.21-9.46-2-2.26-3.7-2.5-6.22-.88-5.45,3.5-10.86,7.06-16.28,10.6L82.38,63.05l-5.84,3.81c-.75-1.08-1.45-2-2-2.92-.75-1.25-1.52-.71-2.4-.18s-.79,1.2-.22,2,1.21,1.75,2,2.85c-1.8,1.26-3.52,2.34-5.09,3.59C62.69,77,56.66,81.87,50.6,86.73c-7.14,5.73-14.32,11.41-21.43,17.18-3.26,2.65-3.41,5.37-.63,8.54,4.17,4.75,8.37,9.46,12.55,14.2,1.49,1.69,1.5,2.18-.12,3.74-3.1,3-5.64,6.32-6.7,10.57a48.78,48.78,0,0,0-1.3,6.29,14.16,14.16,0,0,1-5.67,9.69c-3.49,2.83-6.93,5.74-10.32,8.69-2.58,2.24-2.83,4.29-1.32,7.28A16.27,16.27,0,0,1,17,176.8c.79,3.72,1.44,7.46,2.17,11.19.69,3.53,3.11,4.8,6.4,3.39a15.36,15.36,0,0,0,1.7-.9c5.13-3,10.24-6,15.38-9,2.08-1.21,3.61-1,5,1A21.31,21.31,0,0,1,49.76,187c1.73,4.42,2.6,4.89,7.24,3.9,14.78-3.18,29.39-7,43.9-11.21h0l.8-.24q8.74-2.51,17.44-5.13l.51-.15h0l5.55-1.67c22.18-6.7,36.77-21.7,44.72-43.33.18-.49.38-1,.57-1.46l3.35.56.6-2.89-3.06-.79c.14-.64.25-1.16.36-1.67,2.32-10.29,4.61-20.59,7-30.86a5.57,5.57,0,0,0-1.27-5.17,11.92,11.92,0,0,0-8.08-4.73,2.05,2.05,0,0,1-2-2.68,5.61,5.61,0,0,1,1.28-2.81,17.13,17.13,0,0,1,4.41-3.43,9.61,9.61,0,0,1,4.91-1c4.51.46,5,.27,6-4.17.06-.26.12-.52.17-.78a52.28,52.28,0,0,0,.08-20.69h0l-.12-.55c-.25-1.24-.53-2.48-.86-3.71-.93-3.75-2.38-8.9-3.81-10.77-3.11-7.1-7.07-13.82-9.35-21.29A2.87,2.87,0,0,0,166.52,8.17ZM78.08,68.94q7.85-5.17,15.72-10.32l4-2.6q9.34-6.11,18.72-12.17l.27.42L78.53,69.65ZM31,105.71C36.66,101.13,42.35,96.6,48,92c6.55-5.26,13.07-10.55,19.64-15.78,2.09-1.66,4.29-3.18,6.46-4.74a8.82,8.82,0,0,1,1.34-.66l.11.26L29.28,108l-.2-.09A17.37,17.37,0,0,1,31,105.71Zm139.4-87.4c1.11,2.61,2.38,5.15,3.6,7.71s2.52,5,3.6,7.53c.74,1.74,1.37,3.53,2.06,5.3a40.69,40.69,0,0,1,2,8c.39,3,.79,6.11,1,9.22a35.66,35.66,0,0,1-1.87,14.11c-.36-.1-.77-.21-1.17-.34-5.34-1.75-11.07,2.47-13.64,6.11-.91,1.28-1,3.34-1,5,.08,2,1.59,3.21,3.6,3.51a9.58,9.58,0,0,1,6.9,3.91,3.4,3.4,0,0,1,.66,2.31c-2.37,10.77-4.83,21.52-7.27,32.28-.06.26-.17.5-.33,1-1.55-.31-3.11-.61-4.66-.94-2.16-.46-2.66-.06-2.85,2.55l6.6,1.44c-.17.61-.28,1.11-.46,1.6-7.45,20.76-21.52,34.75-42.61,41.47-1.8.57-3.61,1.09-5.43,1.6L99.85,177h0c-14.5,3.94-29,8.05-43.72,11-3,.59-3,.58-4.1-2.23a28.2,28.2,0,0,0-1.67-4c-2.07-3.64-5.54-4.49-9.13-2.38q-7.75,4.56-15.51,9.09a9.44,9.44,0,0,1-1,.53c-1.89.82-2.64.44-3-1.59-.69-3.57-1.29-7.17-2.09-10.72a29,29,0,0,0-1.75-5.13c-.81-1.87-.81-2.58.77-3.93,3.13-2.69,6.21-5.43,9.46-8,4.43-3.44,7.45-7.63,8-13.36.09-1,.39-1.89.51-2.84a17.45,17.45,0,0,1,5.89-10.93c.31-.29.63-.58.92-.89a4.07,4.07,0,0,0,.1-6c-3.33-3.78-6.69-7.52-10-11.3a24.84,24.84,0,0,1-2.08-2.65c-1.12-1.69-1-2.45.52-3.7q8.37-6.76,16.78-13.47C54.58,89.77,60.46,85,66.4,80.37c3-2.35,6.11-4.52,9.13-6.82,1-.73,1.55-.71,2.13.4.43.83.86,1.52,2.09.79s1.48-1.49.44-2.58A7.47,7.47,0,0,1,79.44,71l8.72-5.81,26.73-17.79c.36-.24.74-.44,1.08-.69a2.2,2.2,0,0,1,3.36.37c2.32,2.59,4.75,5.09,7.06,7.68,2.68,3,4.49,3.34,7.75,1.07,7.64-5.33,15.23-10.72,22.83-16.09.57-.4,1.15-.79,1.72-1.18,1.29-.9,2.71-1.24,4-.28a3.7,3.7,0,0,1,1.61,4.08,37.75,37.75,0,0,1-1.72,4.3c-1.81,4.4-3.75,8.75-5.42,13.2-1.92,5.14,1.27,8.77,5.63,10.63a5.66,5.66,0,0,0,3.58,0c2.71-.82,5.36-1.86,8-2.95a9.73,9.73,0,0,0,5.55-6.7A29.89,29.89,0,0,0,180.32,46a83.07,83.07,0,0,0-8.25-22.37c-1.74-3.25-3.13-6.68-4.6-10.07a15.52,15.52,0,0,1-.65-2.71l.65-.22C168.44,13.22,169.34,15.8,170.41,18.32Z" fill="#fff"/></svg>