<svg id="Layer_1" data-name="Layer 1" xmlns="http://www.w3.org/2000/svg" viewBox="0 0 200 200"><title>Circuits</title><g id="_1986_Circuit" data-name="1986 Circuit"><path d="M92.12,188.33a6.82,6.82,0,0,1-4.89-2.06c-3.71-3.71-1.59-8.08-.89-9.52,3.21-6.64,10.36-20.61,14.29-28.14,2.1-4,1.17-11.6-1.91-15.57-1.11-1.43-2.8-3.62-4.74-6.14C89.43,121,83.22,112.95,80.05,109c-3.73-4.62-7.91-7.45-16.19-6.19-5.28.8-11.41,7.19-13.66,14.25-1.89,5.91-4.8,14.33-7.14,21.08l-2,5.76a9.25,9.25,0,0,1-6.1,6,8.94,8.94,0,0,1-7.92-1.29l-3.8-2.93c-2.87-2.22-5.61-4.33-7.78-6-3.37-2.56-3.68-6.91-.93-12.93,2.35-5.15,15.38-30.85,17.84-35.47,4.6-8.64,11.8-10,21.93-9.26l3.14.21c4.7.31,9.57.64,14.06,1.08a11.88,11.88,0,0,1,7.75,4.13c2.21,2.76,9.46,12.13,16.48,21.19,6.78,8.75,13.19,17,15.06,19.37a5.65,5.65,0,0,0,6.92,1.47c.7-.33,4.1-2.24,2.05-7-2.54-5.93-40.59-95.9-42.18-99.92a8,8,0,0,1,.85-7.4,8,8,0,0,1,6.78-3.48c4.07,0,12.37,0,19.42.07l11.37,0c1.68,0,6.81,0,7.6,5.06.64,4.09-.48,5.68-4,8.12-1.43,1-2.43,1.63-3.4,2.24-.76.48-1.52,1-2.51,1.63a12.14,12.14,0,0,0-5.23,9.74c.07,3,.46,9.56.81,15.4.2,3.41.39,6.52.48,8.39C110.17,70,119,77.65,126,78.62l3,.43c3.24.46,7.43,1,12,1.64,7.7,1,12.41,3.42,14.38,7.36,1.77,3.54,3.49,6.6,5.15,9.57,1.29,2.3,2.62,4.67,4,7.29,2.15,4.1.45,6.9-3.67,11-4.61,4.54-9.6,9-15.24,13.8-1.77,1.49-5.72,5.51-4.17,10.66,1.62,5.39.64,9.34-3.09,12.41-10.49,8.65-35.47,29.22-40.78,33.52A8.66,8.66,0,0,1,92.12,188.33ZM67.67,100c5.89,0,10.24,2.32,14.39,7.46,3.19,3.94,9.41,12,13.95,17.92,1.94,2.52,3.63,4.71,4.73,6.13,3.67,4.72,4.7,13.46,2.16,18.34-3.92,7.51-11,21.45-14.25,28.07-1.41,2.92-1.29,4.89.4,6.58,2.18,2.18,5,1.33,6.86-.2,5.31-4.3,30.28-24.86,40.77-33.51,2.9-2.39,3.58-5.29,2.26-9.68-2-6.61,2.82-11.55,5-13.37C149.51,123,154.44,118.51,159,114c4.15-4.08,4.44-5.56,3.2-7.93-1.35-2.59-2.68-4.94-4-7.23-1.68-3-3.41-6.08-5.21-9.68-.57-1.15-2.32-4.64-12.41-6-4.53-.59-8.73-1.18-12-1.64l-3-.42c-9.92-1.37-18-11.18-18.38-18.7-.09-1.86-.27-5-.48-8.36-.35-5.86-.74-12.5-.81-15.49a14.85,14.85,0,0,1,6.36-11.93c1-.69,1.81-1.19,2.58-1.68,1-.62,1.92-1.21,3.3-2.17,3-2.07,3.34-2.81,2.9-5.61-.23-1.5-1-2.88-5.06-2.88l-11.38,0c-7,0-15.34-.07-19.41-.07A5.42,5.42,0,0,0,80,21.6c1.58,4,39.61,93.92,42.15,99.85,2.16,5-.11,8.83-3.31,10.36a8.26,8.26,0,0,1-10-2.18c-1.89-2.36-8.3-10.63-15.08-19.4-7-9.05-14.26-18.41-16.46-21.16a9.29,9.29,0,0,0-6-3.17c-4.46-.44-9.3-.76-14-1.07l-3.15-.21c-9.56-.65-15.49.41-19.48,7.9C32.27,97,19.15,122.9,16.89,127.85c-3.29,7.21-.71,9.17.14,9.81,2.17,1.65,4.91,3.76,7.79,6l3.8,2.93a6.33,6.33,0,0,0,5.6.87,6.62,6.62,0,0,0,4.41-4.34l2-5.77c2.33-6.75,5.24-15.14,7.12-21,2.56-8,9.47-15.06,15.73-16A27.94,27.94,0,0,1,67.67,100Z" fill="#fff"/></g></svg>