<svg id="Layer_1" data-name="Layer 1" xmlns="http://www.w3.org/2000/svg" viewBox="0 0 200 200"><title>Circuits</title><path d="M58.54,110.68l.49-.3h0Z" fill="#fff"/><path d="M38,157.94l0,0v0l.06,0Z" fill="#fff"/><rect x="27.22" y="155.49" width="1.24" height="1.24" transform="translate(-127.48 124.18) rotate(-68.27)" fill="#fff"/><rect x="28.83" y="154.8" width="1.24" height="1.24" transform="translate(-125.82 125.24) rotate(-68.27)" fill="#fff"/><rect x="28.14" y="153.19" width="1.24" height="1.24" transform="translate(-124.76 123.58) rotate(-68.27)" fill="#fff"/><rect x="29.53" y="156.41" width="1.24" height="1.24" transform="translate(-126.88 126.9) rotate(-68.27)" fill="#fff"/><rect x="31.14" y="155.72" width="1.24" height="1.24" transform="translate(-125.23 127.96) rotate(-68.27)" fill="#fff"/><rect x="30.45" y="154.11" width="1.24" height="1.24" transform="translate(-124.17 126.3) rotate(-68.27)" fill="#fff"/><rect x="31.83" y="157.33" width="1.24" height="1.24" transform="translate(-126.29 129.62) rotate(-68.27)" fill="#fff"/><rect x="33.44" y="156.63" width="1.24" height="1.24" transform="translate(-124.63 130.68) rotate(-68.27)" fill="#fff"/><rect x="32.75" y="155.02" width="1.24" height="1.24" transform="translate(-123.57 129.02) rotate(-68.27)" fill="#fff"/><rect x="34.13" y="158.25" width="1.24" height="1.24" transform="translate(-125.69 132.34) rotate(-68.27)" fill="#fff"/><rect x="35.75" y="157.55" width="1.24" height="1.24" transform="translate(-124.03 133.4) rotate(-68.27)" fill="#fff"/><rect x="35.05" y="155.94" width="1.24" height="1.24" transform="translate(-122.97 131.74) rotate(-68.27)" fill="#fff"/><rect x="36.44" y="159.16" width="1.24" height="1.24" transform="translate(-125.09 135.05) rotate(-68.27)" fill="#fff"/><rect x="37.36" y="156.86" width="1.24" height="1.24" transform="translate(-122.37 134.46) rotate(-68.27)" fill="#fff"/><path d="M185,84.2a18.74,18.74,0,0,0-4.63-.31c-3.29.22-6.56.63-9.84,1a39.67,39.67,0,0,1-8.42.12,5,5,0,0,1-1.82-.58,7,7,0,0,1-3.55-5c-.32-1.58-.53-3.19-.88-4.77a7.37,7.37,0,0,0-4.34-5.59,8.6,8.6,0,0,0-5-.52c-1.81.34-3.6.8-5.39,1.22L132,72c-5.07,1.2-10.06,2.67-15,4.22a20.32,20.32,0,0,1-7.15,1.12c-1.13-.06-2.26-.05-3.39-.15a10.32,10.32,0,0,1-5.89-2.92,26,26,0,0,1-5.36-7,19,19,0,0,1-2-4.52,6,6,0,0,1,.13-3.43,12.33,12.33,0,0,1,3-4.94c2.56-2.61,5.12-5.21,7.74-7.76a135.91,135.91,0,0,0,14.3-15.55c2.64-3.51,5.52-6.85,7.78-10.64a5.57,5.57,0,0,1,2-1.94A3.94,3.94,0,0,1,132,18c.64.3,1.33.5,2,.76,3.28,1.27,6.54,2.6,9.85,3.8,3.14,1.14,5.62.42,7.58-2,1.49-1.81,2.2-5.63-.72-7.9a13.44,13.44,0,0,0-2.47-1.5,27.52,27.52,0,0,0-3-1.14c-2.26-.77-4.53-1.51-6.92-2.3l-.47-.11a2.19,2.19,0,0,0-.29-.15q-9.13-2.92-18.27-5.83a6.32,6.32,0,0,0-1.52-.28,6.13,6.13,0,0,0-4.23,1.38,24.67,24.67,0,0,0-4.69,5.4,29.57,29.57,0,0,1-2.56,3.27,3.43,3.43,0,0,1-3.75.89c-.77-.26-1.51-.58-2.28-.83-2.72-.87-5.24-.7-7.32,1.52-.84.9-1.73,1.75-2.49,2.71-2,2.52-4,5.09-6,7.65C80.8,28.21,77.1,33,73.36,37.82Q66.92,46.08,60.42,54.3q-4,5.06-8.11,10c-2.29,2.77-4.68,5.44-7,8.2a40,40,0,0,0-5,7.46c-2.77,5.48-5,11.18-7.34,16.87-1.25,3.12-2.52,6.24-3.75,9.36a3.66,3.66,0,0,1-.2.43l-.84,1.82h0a10.15,10.15,0,0,1-2,3c-.83.82-1.75,1.54-2.6,2.33a16.26,16.26,0,0,0-5,7.61,17.87,17.87,0,0,0-.5,6.45,18,18,0,0,1-.51,6.33c-1,3.75-1.89,7.51-2.86,11.27-1,4-2.1,7.93-3.12,11.9-.57,2.25-1.16,4.5-1.57,6.78a47.66,47.66,0,0,0-.39,10.25c.17,4.95.83,9.86,1.41,14.77.2,1.67.3,3.35.47,5a7.14,7.14,0,0,0,.8,3.17,2.18,2.18,0,0,0,3.66.48,12.14,12.14,0,0,0,1.74-2.31c.54-.91.91-1.92,1.39-2.88,2.52-5,5.07-10,7.56-15.07,2-4,3.87-8,5.78-12.06.89-1.87,1.72-3.76,2.59-5.64.12-.27-.17-.62.19-.63l-.29-.26c-.13.18-.08-.28-.23-.08-.22-.29-.44.08-.44-.18l-.36-.14-.13.31-.1.24c-.74,1.65-1.46,3.31-2.25,4.94q-4.54,9.42-9.11,18.83c-1.07,2.21-2.21,4.39-3.32,6.57a2.62,2.62,0,0,1-.41.51c.2-.54.39-1.09.63-1.61Q25.6,174.65,32,161c.41-.87.79-1.76,1.18-2.62h0l0,0-.73-.29c-.51,1.15-1,2.33-1.56,3.5Q25.67,172.74,20.42,184l-3.31,7.12c-.1.2-.19.41-.3.61a1.61,1.61,0,0,1-3-.06,15,15,0,0,1-1-2.72,47.8,47.8,0,0,1-1.13-7.47h0l-.48-6.52h0c0-.7-.09-1.39-.09-2.08a41.89,41.89,0,0,1,.44-8.6c.53-2.62,1.22-5.22,1.88-7.81.93-3.66,1.9-7.31,2.85-11,.22-.84.41-1.7.62-2.56l.22-1h0c.49-1.86,1-3.73,1.47-5.59a22.67,22.67,0,0,0,1-8.41,23.9,23.9,0,0,1,0-3.29c.14-3.93,2-7,4.85-9.58.83-.76,1.73-1.47,2.54-2.25a15.11,15.11,0,0,0,2.83-4.26c1.76-3.54,3-7.29,4.49-10.94l1.32-3.22.49-1.21h0l3-7.23c.24-.5.47-1,.69-1.53a47.22,47.22,0,0,1,8.55-13.2c5.71-6.44,11-13.19,16.35-20s10.44-13.34,15.65-20c3.59-4.62,7.13-9.28,10.75-13.88,1.06-1.34,2.32-2.52,3.5-3.75a3.3,3.3,0,0,1,2.74-1,18.44,18.44,0,0,1,2.84.53c.62.15,1.21.45,1.82.66a5.09,5.09,0,0,0,5.23-1.12,15.35,15.35,0,0,0,2.55-3.16,26.79,26.79,0,0,1,4.23-5.16,5,5,0,0,1,5.21-1.1C125,5.12,130.84,7,136.62,8.8l1.05.31.56.23c1.92.64,3.85,1.27,5.77,1.93,1.25.43,2.52.85,3.72,1.38A8.58,8.58,0,0,1,149.83,14a4.06,4.06,0,0,1,.6,5.43,4.48,4.48,0,0,1-5.24,2c-2.22-.68-4.39-1.55-6.56-2.37-1.93-.73-3.86-1.48-5.75-2.3-2.49-1.08-4.62-.36-6.54,1.25a7.73,7.73,0,0,0-1.69,2,74.68,74.68,0,0,1-5.44,7.55c-1.67,2.18-3.36,4.36-5.11,6.47-2.94,3.53-6.19,6.78-9.47,10S98.19,50.3,95,53.53a13.39,13.39,0,0,0-3.26,5.76,6.81,6.81,0,0,0,.13,4.3,27.16,27.16,0,0,0,9.38,13.13,11.49,11.49,0,0,0,6,2A31.15,31.15,0,0,0,119.54,77c3.54-1.13,7.13-2.12,10.73-3,5.07-1.3,10.18-2.48,15.27-3.7A9.58,9.58,0,0,1,149.2,70a5.74,5.74,0,0,1,5,4.58,32.55,32.55,0,0,1,.73,3.9c.44,3.33,1.92,5.95,5,7.48a6.05,6.05,0,0,0,2.14.54,44.65,44.65,0,0,0,9-.19c2.79-.32,5.58-.67,8.38-.9a18.61,18.61,0,0,1,5.21.25,4.68,4.68,0,0,1,4.18,4.82,68.76,68.76,0,0,1-.56,11.22,15.94,15.94,0,0,1-.76,3.29,8.57,8.57,0,0,1-4.5,4.6,26.93,26.93,0,0,1-5.71,2.13,51.63,51.63,0,0,1-10.69,1.83,45.35,45.35,0,0,1-7.06-.35,87.42,87.42,0,0,1-10.31-1.77,61.93,61.93,0,0,1-11.36-4.15c-3.93-1.82-7.8-3.76-11.72-5.58a49.79,49.79,0,0,0-7.88-2.93,17.28,17.28,0,0,0-6-.5c-3.48.28-7,.52-10.41,1.08A68.44,68.44,0,0,0,86.19,104a14.61,14.61,0,0,0-5.81,4.85,72.38,72.38,0,0,0-4.21,6.85,104.12,104.12,0,0,1-6.59,10.39c-1.49,1.9-3.22,3.62-4.85,5.41-.23.26-.48.51-.83.88l-.56.6a8.78,8.78,0,0,0-.7.55c-2.75,2.6-5.47,5.22-8.24,7.81-1.91,1.78-3.86,3.51-5.8,5.26h0l-.31.28a1.57,1.57,0,0,1-.56.42,4.44,4.44,0,0,1-.64.38.25.25,0,0,1-.14.1l-.15,0c-.71.23-.87-.19-.87-.19h0a.69.69,0,0,1-.16-.22c-.27-.62-.53-1.25-.75-1.89a6.72,6.72,0,0,0-1.58-2.75,3.16,3.16,0,0,0-4.79.17,13.92,13.92,0,0,0-1.33,1.81c-.17.32-.36.63-.51,1q-1.7,3.75-3.3,7.54a10.76,10.76,0,0,0-.45,1.65l.75.3a12.31,12.31,0,0,1,.52-1.93c.92-2.23,1.91-4.44,2.89-6.64a6.29,6.29,0,0,1,.69-1,.57.57,0,0,0,.13-.22,4,4,0,0,1,1.85-2.56,2.13,2.13,0,0,1,2.73.26s-.09.11-.13.11a2.79,2.79,0,0,0-2.59,1.25,5.32,5.32,0,0,0-.51.92l-1,2.38-.22.54c-.94,2.29-1.84,4.6-2.77,6.89-.07.18.05.46-.06.62l1.29.48a1.3,1.3,0,0,1,.07-.23q1.68-4.13,3.31-8.28a1.58,1.58,0,0,1,.16-.31l.33-.78-.08,0c.16-.29.31-.58.46-.86l0,0h0a4.21,4.21,0,0,1,.35-.57,1.05,1.05,0,0,1,1.75-.07,2.81,2.81,0,0,1,.51.81c.29.65.55,1.31.82,2a2,2,0,0,0,1.27,1.24,4.56,4.56,0,0,0,.73.15,5.06,5.06,0,0,0,2.83-1.16c.14-.13.3-.25.45-.37.33-.26.65-.53,1-.82l14.81-13.88.31-.36c.29-.29.53-.5.75-.74,1.49-1.66,3.07-3.25,4.42-5a112.73,112.73,0,0,0,6.88-10.9,56.55,56.55,0,0,1,4.34-6.88A12.46,12.46,0,0,1,87,105.33a67.5,67.5,0,0,1,15.43-4.48c3.38-.53,6.81-.76,10.22-1.05a14.43,14.43,0,0,1,5.94.64c2.35.81,4.7,1.63,7,2.66,4.41,2,8.74,4.18,13.14,6.2a56.33,56.33,0,0,0,10,3.58,87.71,87.71,0,0,0,12.9,2.08,34.93,34.93,0,0,0,8.32-.12,60.13,60.13,0,0,0,9.46-2.1,24.31,24.31,0,0,0,5.67-2.5,9.85,9.85,0,0,0,4.65-7.16,78.07,78.07,0,0,0,.73-12.28C190.41,87.21,188.52,84.87,185,84.2ZM18.53,190.12l-.17.63-.2-.09Zm-1,2.19a11.42,11.42,0,0,1-2.64,4.46c-.44.4-.79.39-1.14-.09a2.65,2.65,0,0,1-.5-1.13c-.16-1.16-.23-2.33-.35-3.59C14.86,193.81,15.67,193.89,17.53,192.31Z" fill="#fff"/></svg>