<svg id="Layer_1" data-name="Layer 1" xmlns="http://www.w3.org/2000/svg" viewBox="0 0 200 200"><title>Circuits</title><path d="M192.14,29.74a15.76,15.76,0,0,0-1.94-5.09,9.19,9.19,0,0,0-5.1-3.78,51.7,51.7,0,0,0-5.55-1.27c-2.51-.5-5-.94-7.55-1.39l-11.29-2q-3.29-.57-6.6-1.1t-6.81-1c-2.12-.31-4.25-.61-6.38-.91a14.91,14.91,0,0,0-7,.43A11.17,11.17,0,0,0,130.06,16a14.86,14.86,0,0,0-3,3.69,22.13,22.13,0,0,0-2.22,6.65c-.55,2.69-.93,5.42-1.46,8.12-.43,2.22-.9,4.43-1.46,6.61s-2.33,3.89-3.69,5.71c-.9,1.21-1.91,2.35-2.93,3.48-1.32,1.47-2.67,2.92-4.07,4.31s-2.79,2.65-4.23,3.91c-1.94,1.69-3.88,3.37-5.89,5-1.78,1.42-3.67,2.71-5.5,4.07a17.1,17.1,0,0,1-8.32,3.36c-4.27.5-8.57.81-12.86,1.15-3,.24-6,.36-9,.58-2.36.18-4.73.36-7.08.66a7.91,7.91,0,0,0-5.89,3.37A49,49,0,0,0,48,85.39c-1.18,2.9-2.31,5.82-3.29,8.79-1.06,3.18-1.93,6.43-2.88,9.65A19.74,19.74,0,0,1,39,109.72a28.77,28.77,0,0,1-5.79,6c-2.07,1.61-4.26,3.08-6.4,4.61a51.77,51.77,0,0,0-7.13,5.48,46.7,46.7,0,0,0-3.46,3.7c-1.4,1.77-2.65,3.67-4,5.52a24.06,24.06,0,0,0-3,6.22,38.66,38.66,0,0,0-2.1,15.27c.32,4.37.85,8.73,1.47,13.06.37,2.55,1.07,5.06,1.68,7.57a10.33,10.33,0,0,0,5.7,7,10.58,10.58,0,0,0,8.56.54,16,16,0,0,0,4.29-2.48c2.31-1.7,4.65-3.35,7-5,3.16-2.22,6.37-4.37,9.51-6.63q4.42-3.19,8.73-6.54c2.51-1.94,4.95-4,7.41-6,2.28-1.86,4.54-3.73,6.81-5.6.32-.26.64-.51,1-.75l-.48-.69q-2.49,2.09-5,4.15c-1.91,1.56-3.83,3.1-5.75,4.64s-3.69,3-5.57,4.45c-2.05,1.59-4.15,3.13-6.23,4.68-1.1.82-2.22,1.62-3.34,2.43a2,2,0,0,1-.26.14l-.08-.1,25.73-21.06-1.43-2L64,150.73c-1.42,1.18-2.84,2.37-4.27,3.54-1.7,1.39-3.41,2.77-5.11,4.15L50,162.17l-4.19,3.39-3.32,2.69c-2.28,1.83-4.55,3.67-6.84,5.48-3,2.36-5.95,4.73-9,7-2.87,2.18-6,2.89-9.4,1.3a7.7,7.7,0,0,1-4.56-5.29c-.6-2.59-1.25-5.18-1.71-7.8s-.7-5.26-1-7.9c-.17-1.44-.36-2.87-.44-4.32a40.11,40.11,0,0,1,.3-7.49,35.59,35.59,0,0,1,2.36-9,24.42,24.42,0,0,1,1.88-3.64,54.38,54.38,0,0,1,3.28-4.74c1.09-1.39,2.33-2.67,3.55-3.95,2.74-2.88,6.18-4.85,9.42-7.06a50.38,50.38,0,0,0,8.45-7.14,24.82,24.82,0,0,0,5.54-9.93c.83-2.71,1.48-5.48,2.41-8.16,1.22-3.52,2.58-7,4-10.45a57.94,57.94,0,0,1,2.73-5.65c.79-1.46,1.65-3,3.4-3.46a18.28,18.28,0,0,1,3.28-.64c3.17-.31,6.35-.57,9.53-.79s6.43-.35,9.64-.6c2.72-.21,5.44-.42,8.13-.81a20.34,20.34,0,0,0,9.47-3.79c2.22-1.67,4.52-3.22,6.69-5s4.26-3.61,6.34-5.48c1.52-1.36,3-2.78,4.42-4.23,1-1,1.87-2,2.78-3.09s2-2.31,3-3.5,1.66-2.13,2.46-3.22c1.84-2.54,2.24-5.58,2.85-8.53.83-4,1.54-8.08,2.39-12.1a11.55,11.55,0,0,1,1.21-3.3,10.55,10.55,0,0,1,5.88-5.24A11.24,11.24,0,0,1,140,15.5c4,.56,8,1.13,12,1.76,4.44.7,8.87,1.43,13.29,2.23,6,1.08,12,2.27,17.94,3.36a7.06,7.06,0,0,1,4.86,3.06,15.39,15.39,0,0,1,1.7,4.42,26.63,26.63,0,0,1,.61,9.21,9.85,9.85,0,0,1-1.73,4.75c-.87,1.27-1.64,2.61-2.56,3.84a57.49,57.49,0,0,1-3.78,4.69c-2.2,2.38-4.51,4.66-6.79,7q-2.75,2.77-5.54,5.5c-2,2-4.14,3.94-6.19,5.92s-4.31,4.18-6.45,6.28c-2.44,2.4-4.86,4.83-7.31,7.22-1.47,1.44-3,2.83-4.48,4.28-1.65,1.62-3.25,3.29-4.89,4.92-1.87,1.85-3.78,3.65-5.64,5.5s-3.75,3.78-5.63,5.67c-1.5,1.51-3,3-4.52,4.53q-2.9,3-5.76,6a17.22,17.22,0,0,0-2,2.34,3.13,3.13,0,0,0,.41,4.1c.77.82,1.59,1.59,2.4,2.37.4.39.6.82.23,1.3-.76,1-1.52,2-2.33,2.91-1.38,1.62-2.8,3.2-4.19,4.81q-1.78,2.06-3.53,4.15c-1.27,1.52-2.52,3-3.78,4.57s-2.49,3-3.71,4.52c-1.5,1.87-3,3.76-4.44,5.65-1.05,1.34-2.13,2.66-3.15,4-1.32,1.76-2.6,3.55-3.9,5.33-.81,1.1-1.63,2.19-2.42,3.31-.95,1.34-1.86,2.71-2.8,4.06s-1.77,2.52-2.63,3.79c-.74,1.1-1.44,2.23-2.15,3.34s-1.5,2.3-2.21,3.47-1.45,2.47-2.17,3.71a2.1,2.1,0,0,1-3,1,2.88,2.88,0,0,1-1.62-1.8,2.09,2.09,0,0,1,.11-1.39c1.25-2.31,2.56-4.6,3.88-6.87q1.82-3.12,3.72-6.2c.94-1.51,1.94-3,2.91-4.47s1.86-2.92,2.81-4.36c1.11-1.68,2.24-3.34,3.38-5q1.33-2,2.69-3.91c.71-1,1.46-2,2.18-3s1.58-2.28,2.39-3.41,1.69-2.31,2.56-3.45q1.54-2,3.11-4c.66-.83,1.37-1.62,2-2.46a5.31,5.31,0,0,0,.69-5.36A6,6,0,0,0,99,124.28a6.31,6.31,0,0,0-4.26,1.41c-2.94,2.28-5.81,4.65-8.71,7-2.31,1.86-4.63,3.7-6.92,5.57-1.91,1.56-3.79,3.16-5.69,4.73-1.17,1-2.37,1.91-3.56,2.87l1.47,2.08a2.14,2.14,0,0,1,.38-.46q3.19-2.67,6.41-5.29c2.27-1.84,4.55-3.66,6.82-5.5,1.72-1.39,3.42-2.8,5.13-4.19,2-1.62,4-3.28,6-4.81a3.84,3.84,0,0,1,4.42-.51c1.91,1.07,2.86,4.1,1.1,5.92-1.31,1.37-2.42,2.94-3.6,4.44q-1.31,1.66-2.56,3.37c-.88,1.2-1.73,2.43-2.61,3.64s-1.73,2.38-2.6,3.57c-.27.37-.52.75-.78,1.12l-.2-.11c.37-.78.74-1.56,1.1-2.34A31.63,31.63,0,0,0,92.07,143c.74-2.38,0-4-2.09-4.93a8.61,8.61,0,0,0-2.69-.68A4.56,4.56,0,0,0,84,138.75c-1.89,1.51-3.81,3-5.7,4.5-1.73,1.38-3.43,2.8-5.14,4.19-.47.38-1,.75-1.43,1.12l.48.68a1.08,1.08,0,0,1,.17-.15c1-.76,2-1.55,3-2.35,1.54-1.26,3.06-2.54,4.62-3.78s3.14-2.33,4.61-3.6a4.31,4.31,0,0,1,5.19-.53c1.72.94,2.21,2.29,1.36,4.32-.53,1.26-1.14,2.49-1.74,3.72-1.18,2.4-2.31,4.83-3.58,7.19-1,1.88-2.15,3.69-3.28,5.5-.92,1.47-1.94,2.88-2.87,4.34s-1.89,3.05-2.83,4.58c-1,1.69-2.11,3.37-3.11,5.08q-1.8,3.07-3.51,6.2a5.34,5.34,0,0,0-.58,1.8,5.2,5.2,0,0,0,3.92,5.29,4.22,4.22,0,0,0,5-1.8c1-1.42,1.79-3,2.71-4.44,1.23-2,2.47-3.95,3.74-5.9.88-1.36,1.82-2.68,2.74-4s1.86-2.71,2.81-4q1.63-2.31,3.3-4.59c1-1.38,2-2.76,3.06-4.12s2.15-2.72,3.21-4.08c1.46-1.87,2.89-3.75,4.36-5.61,1-1.27,2.06-2.52,3.1-3.77,1.46-1.77,2.91-3.54,4.39-5.29s2.76-3.22,4.15-4.83c1.2-1.39,2.41-2.76,3.58-4.17.88-1.06,1.78-2.12,2.55-3.27a3,3,0,0,0-.28-3.8c-.73-.83-1.55-1.58-2.35-2.35s-.82-1.3-.12-2.07q1.51-1.66,3.07-3.26c1.28-1.32,2.59-2.6,3.87-3.91,1.5-1.54,3-3.11,4.49-4.64s3-3,4.55-4.52,3.28-3.29,4.94-4.92c1.85-1.82,3.73-3.6,5.58-5.42s3.72-3.7,5.59-5.54c1.7-1.67,3.43-3.32,5.14-5s3.2-3.17,4.82-4.74,3.05-2.92,4.57-4.39,2.82-2.79,4.24-4.17,2.64-2.49,3.94-3.75,2.57-2.54,3.85-3.8c.88-.87,1.8-1.71,2.66-2.6,1.14-1.19,2.26-2.39,3.33-3.63,1.25-1.44,2.5-2.88,3.64-4.41s2.1-3,3.06-4.6a11.18,11.18,0,0,0,1.65-3.75A29.32,29.32,0,0,0,192.14,29.74Z" fill="#fff"/><rect x="64.95" y="144.81" width="1.35" height="1.35" transform="translate(-72.8 66.05) rotate(-35.87)" fill="#fff"/><rect x="66.83" y="145.11" width="1.35" height="1.35" transform="translate(-72.62 67.21) rotate(-35.87)" fill="#fff"/><rect x="67.13" y="143.23" width="1.35" height="1.35" transform="translate(-71.46 67.03) rotate(-35.87)" fill="#fff"/><rect x="66.53" y="146.99" width="1.35" height="1.35" transform="translate(-73.78 67.39) rotate(-35.87)" fill="#fff"/><rect x="68.41" y="147.3" width="1.35" height="1.35" transform="translate(-73.6 68.55) rotate(-35.87)" fill="#fff"/><rect x="68.71" y="145.41" width="1.35" height="1.35" transform="translate(-72.44 68.37) rotate(-35.87)" fill="#fff"/><rect x="68.11" y="149.18" width="1.35" height="1.35" transform="translate(-74.77 68.73) rotate(-35.87)" fill="#fff"/><rect x="69.99" y="149.48" width="1.35" height="1.35" transform="translate(-74.59 69.89) rotate(-35.87)" fill="#fff"/><rect x="70.29" y="147.6" width="1.35" height="1.35" transform="matrix(0.81, -0.59, 0.59, 0.81, -73.42, 69.71)" fill="#fff"/><rect x="69.69" y="151.37" width="1.35" height="1.35" transform="translate(-75.75 70.07) rotate(-35.87)" fill="#fff"/><rect x="71.57" y="151.67" width="1.35" height="1.35" transform="translate(-75.57 71.23) rotate(-35.87)" fill="#fff"/><rect x="71.87" y="149.78" width="1.35" height="1.35" transform="translate(-74.41 71.05) rotate(-35.87)" fill="#fff"/><rect x="71.27" y="153.55" width="1.35" height="1.35" transform="translate(-76.73 71.41) rotate(-35.87)" fill="#fff"/><rect x="73.46" y="151.97" width="1.35" height="1.35" transform="translate(-75.39 72.39) rotate(-35.87)" fill="#fff"/></svg>