<svg id="Layer_1" data-name="Layer 1" xmlns="http://www.w3.org/2000/svg" viewBox="0 0 200 200"><title>Circuits</title><path d="M97.77,40.19l-10.54.5c-.6,0-1.2.08-1.8.08-1.63,0-2.09-.62-1.65-2.21a17.09,17.09,0,0,1,.75-2.13,46.64,46.64,0,0,0,3.85-13.75l.33-4.52h0c0-.91,0-1.77,0-2.61A2.62,2.62,0,0,0,87,13a19.43,19.43,0,0,0-8.31-1.82c-17.4.32-34.8.73-52.2,1.09-2.47.05-3.37.47-4,2.91-1.36,5.34-2.45,10.73-.31,16.3-1.59,1.07-3.22,2.21-4.89,3.28a11,11,0,0,0-5.49,8.7c-.27,3.18-.81,6.34-1.28,9.5a17.34,17.34,0,0,1-2.58,7.5,5.5,5.5,0,0,0-1,2.49c-.32,3.72,1.08,4.28,3.78,3.57l.32-.1c3.17-1.16,6.35-2.3,9.51-3.5,5.79-2.2,11.57-4.45,17.36-6.65,3.72-1.41,7.37-3.16,11.21-4.07,8-1.92,16.16-3.41,24.26-5,1.9-.38,3.84-.57,6-.87a24.38,24.38,0,0,1-.06,2.55c-.47,3.58-1,7.15-1.49,10.73-.73,5.52-1.45,11-2.11,16.56a15.27,15.27,0,0,0,0,4.35,31.23,31.23,0,0,0,1.68,6.06,59.24,59.24,0,0,0,3,6c.35.65.25,1-.35,1.38-1.2.7-2.34,1.51-3.6,2.08a6.9,6.9,0,0,0-3.2,2.56c-1.53,2.49-2.51,5-.82,7.9,1.36,2.33,2.46,4.81,3.73,7.2,2.52,4.75,5.08,9.48,7.62,14.22a2.15,2.15,0,0,0,2.34,1.22,20.82,20.82,0,0,0,3-.67c2.3-.69,4.58-1.45,6.88-2.13a1.54,1.54,0,0,1,2.09.76c1.91,3.71,3.91,7.37,5.82,11.08.77,1.49,1.39,3,2.09,4.6-1.57.92-3,1.69-4.41,2.61a5.87,5.87,0,0,0-2.19,7.35c.88,2,1.89,4,2.9,6q4.08,8,8.2,16.07c1.86,3.61,3.79,7.18,5.69,10.76a5,5,0,0,0,4.38,2.73c2.29.14,4.6.11,6.86.45,3.67.55,6.6-.71,9.28-3.07,1.74-1.53,3.62-2.9,5.47-4.36l3.15,3.83,3.06-2.5c-.75-1-1.44-1.79-2.09-2.66-.93-1.24-.91-1.24.27-2.16,4.81-3.8,9.63-7.58,14.41-11.42,5.22-4.18,10.41-8.41,15.61-12.63l15.41-12.51a2.61,2.61,0,0,0,.95-3.21,17.88,17.88,0,0,0-1.9-3.57,7.54,7.54,0,0,1-.69-8,28.72,28.72,0,0,0,1.45-3.66,4.77,4.77,0,0,0,.08-2.42,3.15,3.15,0,0,0-4.08-2.26,47.7,47.7,0,0,0-6.37,2.19c-4.14,1.69-8,3.79-10.79,7.49q-2.66,3.57-5.38,7.09c-4.55,5.88-9.68,11.09-16.37,14.58a3.3,3.3,0,0,1-3.8,0,10.67,10.67,0,0,1-3-2.93q-5.73-10.29-11.18-20.74c-4.66-8.93-9.11-18-13.84-26.86a23.77,23.77,0,0,1-3-11.3c0-3.38-.16-6.76-.16-10.15,0-10.83,0-21.65,0-32.48,0-2.16-.37-2.63-2.52-3s-4.4-.53-6.61-.78l-5.57-.65ZM146.48,183.6l-1.3.88-.88-1.09,1.23-.94Zm.35-2.38-1.29,1-1.19-1.35,1.28-.86Zm44-43.35a1.49,1.49,0,0,1-.45,2.21c-6.21,5-12.37,10.05-18.56,15.07-4.32,3.5-8.68,7-13,10.44L145.9,175.87c-.32.26-.66.5-1,.73-1,.72-1.07.7-1.69-.58l5.36-4.25,25.7-20.25,12.21-9.66a3,3,0,0,0,1.29-3.05c-.24-1.33-.49-2.66-.81-4a3.56,3.56,0,0,1,.42-3.1C188.51,133.78,189.65,135.83,190.81,137.88Zm-50.24,40.85-1-1.38,1.15-1.12,1.05,1.56ZM111.64,173c-2.8-5.53-5.64-11-8.45-16.57-.71-1.41-1.41-2.83-2.05-4.26a4.09,4.09,0,0,1,1.48-5.26c1.13-.74,2.36-1.33,3.54-2,1.79-1,2.09-1.56,1.23-3.44-1.29-2.83-2.74-5.6-4.15-8.38-1.12-2.21-2.32-4.38-3.43-6.6-.92-1.85-1.84-2.5-3.87-2.06s-4.18,1.21-6.27,1.81c-1.26.36-2.71,1.2-3.75.84s-1.48-1.92-2.07-3q-4.67-8.69-9.28-17.42c-.3-.56-.56-1.15-.81-1.74-1-2.29.66-5.8,3.07-7a46.41,46.41,0,0,0,4.65-2.72c1.28-.83,1.47-1.57.8-3s-1.41-2.57-2.1-3.86a26.16,26.16,0,0,1-2.71-8.44,12.18,12.18,0,0,1,.07-3.24q1-8,2-16c.49-3.69,1.08-7.37,1.57-11.06a15.56,15.56,0,0,0,.08-3c-.1-1.47-.71-2.12-2.16-2a72.85,72.85,0,0,0-7.47,1c-7.12,1.37-14.28,2.57-21.3,4.35-4.81,1.22-9.43,3.26-14.1,5-8.33,3.12-16.64,6.31-25,9.45A23.75,23.75,0,0,1,8.78,65c.07-.92.1-1.64.19-2.35a1.67,1.67,0,0,1,.3-.73c2.8-4,3.12-8.62,3.78-13.19.32-2.27.67-4.54,1-6.81a6.43,6.43,0,0,1,2.91-4.5c1.79-1.25,3.62-2.43,5.4-3.7a5.41,5.41,0,0,0,1.6-1.54A2.64,2.64,0,0,0,24,30.43c-.3-1.3-1-2.55-1.09-3.84a33.74,33.74,0,0,1,1.32-10.93,1.94,1.94,0,0,1,2.19-1.55c17.18-.31,34.35-.75,51.53-1,2.43,0,4.87.73,7.29,1.19,1.11.21,1.54.92,1.54,2.1a44.28,44.28,0,0,1-3.67,18.33,23.84,23.84,0,0,0-1.25,3.5c-.7,2.67.61,4.41,3.36,4.41,1.69,0,3.37-.26,5.06-.28,2.74,0,5.49-.11,8.22.09,4,.3,7.93.86,11.89,1.27,1.16.12,1.62.54,1.61,1.82q-.12,16.52-.1,33c0,3.61.17,7.21.25,10.82a21.59,21.59,0,0,0,2.87,10c2.93,5.42,5.62,11,8.44,16.45s5.62,10.89,8.48,16.31c2.67,5.05,5.4,10.07,8.1,15.1a10.11,10.11,0,0,0,5.2,4.45,4,4,0,0,0,3.71-.18c3.12-1.95,6.54-3.64,9.14-6.16,4.06-3.93,7.57-8.43,11.25-12.73,1.56-1.82,2.85-3.88,4.49-5.62,2.29-2.43,5.34-3.72,8.36-5,1.42-.6,2.87-1.12,4.3-1.68a2.9,2.9,0,0,1,.53-.17c.91-.16,1.89-.57,2.64.31s.25,1.78-.06,2.66c-.71,2.05-1.39,4.12-2.14,6.16a11.83,11.83,0,0,1-1,1.88,4.94,4.94,0,0,0-.49,4.12c.33,1.11.46,2.28.71,3.41a2.29,2.29,0,0,1-.95,2.46c-2.94,2.34-5.86,4.71-8.82,7q-9.57,7.54-19.17,15-7.23,5.68-14.43,11.4c-.23.18-.49.34-.88.6L141,173.55l-3,2.33,1.33,2c-2,1.54-4,2.92-5.8,4.56a8.42,8.42,0,0,1-7.36,2.09,23.21,23.21,0,0,0-3.71-.26c-2.41.05-3.95-1.24-5.52-2.9A33.39,33.39,0,0,1,111.64,173Zm29,3.18-.93-1.19,1.16-1.05.91,1.36Zm-10.8,10.68c-2.82-.06-5.63-.27-8.45-.37a4.13,4.13,0,0,1-4.06-2.47,10.44,10.44,0,0,0-.9-1.36c.29.08.43.08.47.14a5.6,5.6,0,0,0,4.75,2.34c2.74.13,5.48.32,8.22.4a2.86,2.86,0,0,0,1.66-.53c2.3-1.7,4.54-3.47,6.8-5.21l1.62-1.24.9,1.34c-2.88,2.16-5.72,4.37-8.66,6.44A4.18,4.18,0,0,1,129.89,186.86Zm12.15-9,1.28-.86,1,1.27-1.27.94Zm1,1.62,1.27,1.38-1.34.9-1.09-1.33Z" fill="#fff"/></svg>