<svg id="Layer_1" data-name="Layer 1" xmlns="http://www.w3.org/2000/svg" viewBox="0 0 200 200"><title>Circuits</title><path d="M193.76,55.26c0-.07-.1-.13-.1-.2a2.59,2.59,0,0,1,0-.64c0-.24-.22-.36-.17-.58s-.08-.34-.15-.5-.28-.53-.39-.81c0-.09-.08-.18-.12-.27s-.34-.26-.33-.51c0,0-.07-.07-.11-.11a2.81,2.81,0,0,1-.59-.72,1.73,1.73,0,0,0-.5-.52c-.19-.17-.33-.39-.6-.5s-.35-.31-.53-.46c0,0-.13,0-.15,0s-.41-.2-.6-.32a2.52,2.52,0,0,0-.67-.32c-.13-.26-.45-.07-.62-.27s-.38,0-.49-.17c0,0-.09,0-.14,0-.25,0-.53.07-.74-.16H186c-.05,0-.13,0-.15,0-.13-.2-.33-.13-.51-.13s-.65,0-1,0-.69-.09-1,.16a2.77,2.77,0,0,1-.64,0c-.25-.06-.36.19-.58.18a.48.48,0,0,0-.44.1c-.14.14-.36,0-.53.07,0,0,0,0-.06.06s-.33,0-.43.12-.28.11-.43.15-.25.14-.42.17-.42.16-.64.19c-.06.15-.26.06-.33.17s-.29.09-.4.22-.26,0-.36.07c-.34.21-.71.36-1.06.56-.13.08-.28.09-.4.22a1.47,1.47,0,0,1-.44.29,2.68,2.68,0,0,0-.54.24c-.14.12-.36.09-.46.27s-.38.15-.51.34-.36.17-.51.34-.4.21-.56.4-.39.25-.54.41-.29.09-.4.22a2.73,2.73,0,0,1-.78.64c-.21.1-.34.33-.52.5a1.78,1.78,0,0,1-.55.42c-.21.08-.35.32-.52.49a6.59,6.59,0,0,1-.63.62c-.26.2-.33.53-.56.74s-.34.34-.51.51a4.66,4.66,0,0,1-.46.45c-.2.15-.24.4-.4.56s-.38.38-.57.57l-.57.57c0,.33-.33.46-.52.67s-.38.38-.57.57l-.57.57-.17.17a.37.37,0,0,0-.15.26c0,.19-.27.05-.29.18s-.12.22-.28.29-.3.3-.47.44-.21.3-.42.34-.33.26-.47.41a4.21,4.21,0,0,1-.84.51c-.16.11-.36,0-.54,0h-.65c-.11,0-.28,0-.31,0-.14-.23-.4-.07-.57-.22s-.19-.07-.27-.12-.21-.31-.45-.3c-.06,0-.12-.1-.17-.15l-.46-.46a5.17,5.17,0,0,0-.52-.51c-.18-.14-.21-.35-.34-.51a4.51,4.51,0,0,1-.33-.35,3.28,3.28,0,0,1-.21-.48.39.39,0,0,0-.09-.13,3.49,3.49,0,0,1-.56-1l-.32-.59c.08-.26-.19-.41-.2-.64-.25-.13,0-.5-.28-.61,0-.11,0-.22,0-.32s0-.27,0-.31a.55.55,0,0,1-.14-.59c0-.26-.28-.4-.17-.66q0-1.41,0-2.82a.66.66,0,0,1,.12-.44c.09-.13.05-.35.07-.53,0,0,0,0,.06-.06s0-.2.08-.29.16-.23.15-.34.21-.36.18-.58c.27-.12.08-.44.27-.62s.12-.39.25-.53a3.27,3.27,0,0,0,.39-.57c.07-.13.07-.31.23-.39s.12-.28.23-.39a3.33,3.33,0,0,0,.64-.78,2.47,2.47,0,0,1,.56-.58,2.31,2.31,0,0,1,.61-.47c.23-.11.39-.36.58-.55a.1.1,0,0,1,.07,0c.2,0,.26-.16.38-.25s.31-.06.39-.23.3-.12.38-.23.45-.25.63-.44a1.9,1.9,0,0,1,.66-.35,3.63,3.63,0,0,0,.57-.38,4.13,4.13,0,0,1,.6-.3c.22-.11.45-.22.67-.34s.45-.21.67-.34a5,5,0,0,1,.6-.29c.23-.1.43-.29.71-.23.08-.16.28-.12.39-.23s.29-.08.4-.22.28,0,.44-.11a13.06,13.06,0,0,1,1.27-.64c.18-.08.36-.17.53-.27a2.18,2.18,0,0,0,.58-.36c.13-.14.35-.18.53-.28a.65.65,0,0,0,.13-.07,2.68,2.68,0,0,0,.39-.4c.13-.19.38-.15.52-.33s.31-.3.45-.46.14-.39.34-.5c.08-.3.39-.47.46-.78.22-.11.07-.33.16-.5a1.32,1.32,0,0,0,.27-.93c0-.51,0-1,0-1.53,0-.31.08-.62-.15-.91-.08-.1,0-.31,0-.46-.25-.11-.05-.39-.22-.56s-.17-.42-.31-.59,0-.31-.11-.44-.23-.18-.27-.29a.62.62,0,0,0-.24-.38c-.14-.08-.08-.24-.17-.34l-.34-.34-.34-.34-.4-.4-.32-.35c.06-.27-.21-.16-.3-.26s-.45-.46-.68-.69-.43-.41-.62-.63-.55-.29-.74-.56-.82-.57-1.13-1c-.31.1-.18-.44-.49-.34a2.11,2.11,0,0,0-.4-.39,1.89,1.89,0,0,1-.5-.35.91.91,0,0,0-.31-.23c-.18-.08-.31-.28-.48-.4a3.43,3.43,0,0,0-.6-.29s0,0-.06-.06a1.62,1.62,0,0,0-.56-.41c-.23-.08-.3-.45-.62-.44a2,2,0,0,0-.4-.39,1.62,1.62,0,0,0-.54-.26s-.08-.06-.12-.09a3.18,3.18,0,0,0-.29-.28c-.1-.07-.23-.1-.33-.18s-.27-.26-.4-.4c-.21.06-.28-.19-.49-.19s-.21-.29-.43-.31-.25-.36-.51-.32-.28-.13-.39-.21-.36-.09-.46-.27c-.19.07-.25-.21-.42-.16s-.31-.17-.5-.17-.18-.2-.34-.16-.23-.09-.35-.14-.4,0-.53-.08-.35-.08-.53-.1-.32.05-.39,0c-.33-.31-.72-.09-1.07-.14-.08,0-.16.13-.26.15s-.27,0-.4,0c-.36,0-.74-.13-1.06.16-.23,0-.49-.09-.69.09s-.55-.07-.71.23h-.56c-.18,0-.28.24-.5.16s-.21,0-.23,0c-.21.32-.65,0-.84.32-.28,0-.58-.08-.82.16-.38,0-.79.11-1.14-.16-.21,0-.34-.08-.48-.2s-.2-.48-.45-.63c0,0,0-.17-.07-.2s-.11-.3-.23-.39,0-.34-.12-.43-.06-.42-.15-.59a1.06,1.06,0,0,1-.15-.59c0-.21,0-.43,0-.65a4.43,4.43,0,0,0,0-.56c0-.22.12-.39.15-.58.05-.37,0-.75,0-1.13s-.18-.75.15-1.06c-.06-.08-.17-.12-.16-.26s.05-.32,0-.39-.1-.29-.15-.43a1.32,1.32,0,0,0-.29-.53c-.31-.3-.61-.6-.91-.91a.44.44,0,0,0-.33-.17c-.12-.27-.48,0-.62-.28,0,0-.15,0-.22,0l-1.28,0c-.1.23-.35.05-.49.17s0,0-.06.06-.34.12-.45.29-.31.06-.39.23-.35.14-.44.29-.38.18-.51.34-.4.21-.58.37c-.26,0-.28.31-.51.32s-.27.29-.43.31-.28.26-.44.3a1.25,1.25,0,0,0-.45.29c-.14.1-.31.16-.45.28s-.39.24-.56.4a2,2,0,0,1-.33.17c-.1.06-.24.08-.33.18a.51.51,0,0,1-.33.19c-.11,0-.18.24-.29.26-.31,0-.41.4-.72.41-.16.26-.5.27-.68.51s-.29.08-.39.23a.5.5,0,0,1-.32.2c-.14,0-.22.25-.36.3a1.79,1.79,0,0,0-.66.36c-.19.18-.47.22-.62.46-.23,0-.29.22-.45.27s-.33.27-.51.34a1.59,1.59,0,0,0-.44.3c-.08.06-.19.07-.27.12s-.19.24-.3.25-.26.17-.38.26-.31.06-.39.23-.3.12-.38.23-.46.24-.63.45-.46.23-.61.46c-.2,0-.28.13-.39.23s-.36.1-.45.28-.3.08-.39.23-.3.19-.44.29-.24.25-.45.29-.21.28-.44.3-.22.29-.43.31-.25.35-.51.32c-.14.12-.28.24-.41.37s-.41.12-.51.34c0,.05-.13.07-.2.1s-.31.36-.58.37c-.06,0-.12.1-.17.16a1,1,0,0,1-.5.34c-.11.24-.4.22-.57.39s-.2,0-.27.12-.2.18-.28.29-.31.06-.39.23-.32.16-.45.29l-.4.4c-.27,0-.31.28-.51.32s-.34.24-.49.38-.4.12-.52.33-.22.1-.32.18-.22.23-.35.33-.14,0-.21.08-.25.36-.51.33c0,0,0,0-.06.05-.28.36-.74.5-1,.86-.31.06-.46.32-.67.51-.21,0-.3.2-.45.28a1.17,1.17,0,0,0-.5.35c-.11.17-.32.16-.45.28s-.32.4-.52.5a1.68,1.68,0,0,0-.55.42,3.2,3.2,0,0,1-.56.4,3.15,3.15,0,0,0-.51.51,4.09,4.09,0,0,1-.61.46c-.33.28-.61.6-.92.91s-.62.6-.91.91a4.08,4.08,0,0,0-.82,1,1.82,1.82,0,0,1-.56.57c-.22.17-.28.43-.45.62s-.23.23-.34.34a.65.65,0,0,0-.19.33c0,.13-.2.24-.32.35a1.77,1.77,0,0,0-.31.6c-.12.23-.39.34-.49.61a1.68,1.68,0,0,1-.51.76.29.29,0,0,0-.12.19c0,.17-.24.23-.17.42l-.34.34a.37.37,0,0,0-.15.26c0,.12-.16.18-.17.34s-.16.2-.25.29,0,.26-.17.34-.21.48-.46.62a.16.16,0,0,0-.07.13c0,.17-.23.23-.17.42-.15.09-.11.31-.23.38s-.21.42-.39.57c0,.28-.32.34-.34.58s-.18.23-.19.41-.28.21-.31.43-.16.25-.19.4-.06.09-.11.11-.16.31-.27.46a4.16,4.16,0,0,1-.29.45,1.78,1.78,0,0,0-.26.45,5,5,0,0,0-.26.54,3.32,3.32,0,0,1-.33.51,6.33,6.33,0,0,0-.3.6c-.1.23-.22.45-.34.67s-.06.31-.23.39-.12.28-.23.39-.06.31-.23.39c0,.2-.23.29-.18.49-.18.12-.14.39-.32.51.06.29-.36.32-.32.59a7.41,7.41,0,0,0-.59,1.13,12.47,12.47,0,0,0-.55,1.14,3,3,0,0,1-.2.4c-.07.13-.24.19-.28.37s-.17.31-.23.47a3.32,3.32,0,0,1-.27.53c-.08.15-.15.32-.24.47a2.08,2.08,0,0,0-.25.54,2.8,2.8,0,0,1-.27.45c-.09.18-.11.42-.24.54s0,.36-.16.51a1,1,0,0,0-.25.53c0,.21-.22.32-.17.5s-.25.34-.17.58-.18.23-.17.42.11.49-.15.66c0,.19,0,.38,0,.56s-.17.29-.17.5c0,1.1,0,2.2,0,3.28l.14.19c-.19.15-.19.3,0,.46a.36.36,0,0,1-.07.11c-.19.18,0,.28.09.39v1.69a3.34,3.34,0,0,1,0,.64c0,.22.16.32.17.5s0,.43,0,.65v.88c.12.12.27.22.09.4a.28.28,0,0,0-.06.11c.2.13.12.34.13.51s0,.54,0,.81a1,1,0,0,0,.13.29l-.12.13c0,.09.13.18.14.27,0,.46,0,.91,0,1.36.13.09.19.18,0,.29.24.38.1.81.13,1.21,0,.13-.05.31,0,.4.29.36.1.77.15,1.15a5.3,5.3,0,0,1,0,.64c.31.28.13.65.15,1s0,.86,0,1.23a1.07,1.07,0,0,1,.15.31c0,.24,0,.48,0,.73v1.53c0,.27,0,.54,0,.81s0,.48,0,.72c.39.23-.1.45,0,.68s0,.26.09.37-.06.15-.07.22.14.17.14.26-.09.17-.13.24a2,2,0,0,1,.12.17.4.4,0,0,0-.14.35c0,.65,0,1.29,0,1.94,0,.1,0,.26,0,.3s-.11.34-.12.52,0,.32-.16.42c.06.22-.11.39-.16.58s0,.43-.17.58c.1.23-.16.38-.15.58s-.27.4-.17.66a2.88,2.88,0,0,1-.27.45c-.13.15,0,.36-.16.51s-.15.31-.22.46-.21.4-.32.59-.13.44-.32.59-.16.45-.4.56a1.9,1.9,0,0,1-.57.73c0,.23-.17.31-.29.44s-.23.23-.34.34c0,.26-.22.23-.33.33l-.33.35c.08.31-.25.19-.35.32a2.13,2.13,0,0,1-.4.4c-.14.11-.33.16-.43.3s-.33.14-.46.28-.45-.05-.55.22H85.15a2.45,2.45,0,0,0-.48,0c-.19,0-.25-.16-.42-.18a1.37,1.37,0,0,1-.74-.35,6.18,6.18,0,0,0-.58-.56c-.22-.17-.24-.46-.45-.62-.39-.29-.53-.78-.91-1.08,0-.31-.39-.41-.4-.72a1.61,1.61,0,0,1-.51-.67c-.25-.13-.25-.44-.45-.62s-.23-.46-.45-.61c0-.2-.14-.27-.24-.38s-.1-.36-.28-.45-.08-.3-.23-.39-.25-.44-.44-.63a1.23,1.23,0,0,1-.3-.59c-.23-.15-.27-.43-.44-.62,0-.23-.21-.29-.29-.44s-.11-.41-.24-.54-.29-.6-.51-.84a3.67,3.67,0,0,1-.49-.85c-.1-.18-.24-.34-.34-.51a3.35,3.35,0,0,0-.31-.59c-.39-.42-.46-1-.87-1.43-.15-.15-.13-.44-.32-.58s-.16-.44-.39-.57-.13-.32-.28-.45a.93.93,0,0,1-.28-.44.61.61,0,0,0-.18-.33,1.5,1.5,0,0,1-.32-.59c-.11-.25-.43-.33-.48-.61s-.24-.23-.17-.41L72,81.74a.76.76,0,0,1-.14-.18,3.35,3.35,0,0,0-.21-.48c-.11-.15-.32-.25-.38-.41a1.59,1.59,0,0,0-.41-.55c-.17-.16-.18-.43-.4-.57s0-.24-.17-.33a4.42,4.42,0,0,1-.46-.45l-.51-.51c-.15-.15-.28-.37-.47-.43s-.35-.32-.55-.42a1.39,1.39,0,0,1-.5-.35s0,0-.06-.05-.12,0-.16,0a3.41,3.41,0,0,0-.45-.27,4.22,4.22,0,0,1-.4-.2,2.27,2.27,0,0,1-.47-.21c-.14-.12-.36-.09-.46-.27-.19.07-.25-.21-.42-.16s-.31-.18-.5-.17c-.21-.21-.54-.12-.75-.32-.21.07-.33-.13-.5-.16s-.34.08-.46-.06-.33,0-.43-.12a.44.44,0,0,0-.43-.14c-.22.06-.31-.16-.5-.17-.36,0-.74.1-1.06-.16H57.61c-.15.2-.37.14-.58.17s-.54-.12-.74.16a2.21,2.21,0,0,1-.48,0c-.19,0-.25.17-.42.17s-.35,0-.53.1-.31,0-.45.06-.3.21-.5.15c-.16.17-.38.13-.57.17a2.74,2.74,0,0,0-.63.21c-.15.08-.36.08-.46.26a.53.53,0,0,0-.5.16c-.26-.09-.42.18-.65.19-.13.25-.49,0-.61.29a.37.37,0,0,0-.33.17c-.19-.07-.25.18-.42.16A8.64,8.64,0,0,0,48,78c-.23,0-.28.25-.44.29s-.33.29-.51.34a.78.78,0,0,0-.44.31c-.14.17-.37.17-.51.34s-.26.27-.4.4l-.4.4-.42.36c-.29,0-.13.29-.31.39a3.35,3.35,0,0,0-.58.56,5.59,5.59,0,0,1-.52.51c-.22.17-.23.47-.45.62a1,1,0,0,0-.34.5,1.51,1.51,0,0,1-.34.51c-.11.13-.15.31-.28.45a2.51,2.51,0,0,0-.27.53c-.1.18-.28.34-.29.52s-.27.28-.19.49c-.2.12-.15.38-.32.51.1.24-.12.38-.17.58s-.14.17-.15.26,0,.32-.16.42c.08.21-.26.28-.17.49s-.16.25-.17.42-.16.19-.14.25c.07.24-.19.39-.16.58s-.27.35-.17.58-.21.36-.16.58-.11.23-.15.34a1.54,1.54,0,0,0,0,.48c-.33.19,0,.64-.32.83,0,.28.08.58-.16.82a1.41,1.41,0,0,1-.15.83.73.73,0,0,0,0,.47c0,.21-.14.33-.16.5a4.09,4.09,0,0,0,0,.56,2.75,2.75,0,0,0,0,.64c.06.23-.24.28-.18.5a2.26,2.26,0,0,1,0,.56v2.42a3.29,3.29,0,0,1,0,.64c0,.22.16.32.17.5s-.1.64.16.9a3.89,3.89,0,0,1,0,.48c0,.2.24.28.17.5a.42.42,0,0,0,.13.43c.1.1,0,.31.12.43s0,.36.17.5.13.26.21.39,0,.29.13.43,0,.38.18.49c0,.18.19.27.17.41s.15.33.17.5.16.17.16.26a.58.58,0,0,0,.17.5c-.06.18.22.25.16.42s.2.3.17.5a1.9,1.9,0,0,1,.31.6c.06.16.25.29.17.49.13.16.16.37.28.53a2.38,2.38,0,0,1,.2.48c0,.09.13.17.15.26s0,.26.11.36.07.23.16.34a6.61,6.61,0,0,1,.34.66,5.15,5.15,0,0,1,.29.6c.1.23.29.43.23.71.2.12.21.35.31.52a3.08,3.08,0,0,1,.27.53c.07.21.22.39.28.61.24.12,0,.44.23.55a1.75,1.75,0,0,0,.3.6c.13.18,0,.44.22.56,0,.23.27.39.18.65.15.09.14.26.22.39a2.17,2.17,0,0,1,.26.46c0,.14,0,.32.15.42,0,.22.26.33.19.57a2.9,2.9,0,0,0,.32.59s0,.05,0,.08.08.28.15.42,0,.32.14.42c0,.24.19.44.18.64s.15.43.18.66-.11.49.16.66q0,.64,0,1.29a.36.36,0,0,0-.16.42c.06.22-.16.32-.17.5s0,.21-.07.29-.34.25-.38.4-.19.3-.3.44-.52.38-.57.73l-.68.68s-.05,0-.05.06c0,.21-.16.32-.29.45s-.28.26-.4.4-.18.3-.29.44a1.71,1.71,0,0,1-.4.39c-.15.09,0,.37-.24.36s-.11.34-.32.37a4,4,0,0,0-.75.9,1.61,1.61,0,0,1-.5.51c-.22.17-.26.44-.45.63s-.68.52-.81,1c-.25.25-.48.51-.75.74s-.37.56-.61.8a4.15,4.15,0,0,0-.93,1.06,2.06,2.06,0,0,1-.62.63c-.24.18-.29.48-.5.69a4.84,4.84,0,0,0-1,1.11,2.47,2.47,0,0,1-.68.69c-.28.22-.36.58-.62.8s-.27.27-.4.4a1,1,0,0,0-.34.5c-.22,0-.24.19-.34.33a3.76,3.76,0,0,1-.45.46,2.27,2.27,0,0,1-.4.39c-.21.12-.17.37-.34.51s-.31.3-.46.45a6.32,6.32,0,0,1-.52.51c-.17.14-.18.37-.34.51s-.34.34-.52.51-.35.34-.51.51-.22.39-.39.57a4.62,4.62,0,0,0-.94,1.06,2.37,2.37,0,0,1-.67.69c-.28.22-.38.55-.62.8A5.67,5.67,0,0,0,25.94,148a2.14,2.14,0,0,1-.45.46,3.12,3.12,0,0,1-.4.39c-.19.13-.15.38-.33.52a4,4,0,0,0-.46.45,3.68,3.68,0,0,1-.46.45c-.19.13-.17.37-.34.51s-.31.3-.46.45-.24.31-.4.39,0,.5-.38.4a1.83,1.83,0,0,1-.17.33c-.12.14-.26.27-.4.4a4.18,4.18,0,0,0-.34.34c-.11.14-.18.31-.29.44a5.52,5.52,0,0,1-.4.4,2.83,2.83,0,0,1-.4.39c-.17.11-.14.33-.28.46s-.33.35-.52.51a2.62,2.62,0,0,0-.46.62,2.91,2.91,0,0,1-.39.4,4,4,0,0,1-.46.45c-.17.12-.13.33-.28.46s-.27.26-.4.4-.32.29-.45.46-.18.31-.29.44a4.38,4.38,0,0,0-.75.9,1.39,1.39,0,0,1-.51.51c-.22.14-.22.4-.39.58a3.87,3.87,0,0,0-.88,1,2.19,2.19,0,0,1-.56.58c-.2.18-.24.45-.45.63s-.52.38-.58.72c-.23.23-.46.45-.68.69,0,.05,0,.15-.09.2a3.65,3.65,0,0,0-.42.47,5.41,5.41,0,0,1-.3.6c-.13.17-.31.29-.25.55,0,0,0,.09-.09.12a.51.51,0,0,0-.23.55c-.19.12-.16.31-.17.5-.27.12,0,.47-.29.61,0,.27-.25.47-.18.72s-.24.41-.17.66-.21.22-.16.42a.43.43,0,0,1-.16.5c.09.23-.16.39-.15.58a2.08,2.08,0,0,1-.17.66c0,.12,0,.31,0,.38a.42.42,0,0,0-.12.44c.06.22-.21.29-.18.5a.43.43,0,0,1-.15.5c.12.28-.22.46-.17.74s.09.33-.06.45,0,.34-.12.43-.14.34-.13.51-.21.28-.18.5.09.36-.08.53,0,.36-.07.53a.11.11,0,0,1,0,.06c-.18.11-.13.29-.1.44s-.19.25-.17.42a1.52,1.52,0,0,1-.15.82c-.05.11,0,.31,0,.38a.46.46,0,0,0-.12.44c0,.19-.14.27-.16.42s0,.42,0,.63c-.23.19-.07.45-.12.68,0,0,0,.12-.05.14s-.13.3-.1.44-.22.28-.18.5a.89.89,0,0,1-.06.69c-.16.22,0,.5-.1.68-.24.4-.11.82-.15,1.23,0,.19,0,.38,0,.56a1.7,1.7,0,0,0,0,.48c0,.14.17.24.16.42s.1.22.15.34a4.35,4.35,0,0,0,.64,1.11s0,.11,0,.14l.45.46.29.29c.15.15.4.12.51.34,0,.05.14.06.2.1s.36.18.53.29.48-.08.65.18a2.58,2.58,0,0,1,.56,0c.19,0,.35.18.58.16a9.69,9.69,0,0,1,1.13,0,.53.53,0,0,0,.5-.16c.23.09.38-.14.58-.16a.44.44,0,0,0,.35-.14c.18-.22.52-.25.67-.51.27,0,.31-.28.51-.32s.33-.24.49-.38a1,1,0,0,1,.27-.13c.18-.08.27-.3.51-.34s.23-.25.43-.31.3-.3.48-.41.33-.13.44-.29a.19.19,0,0,1,.12-.08c.23,0,.28-.28.44-.3s.31-.19.44-.3.16-.2.24-.2c.23,0,.28-.27.44-.3a.87.87,0,0,0,.44-.3c.09-.1.25,0,.34-.17s.2-.3.34-.33a.89.89,0,0,0,.49-.36c.13-.18.4-.14.51-.34s.38-.15.5-.34.39-.14.5-.34.42-.22.56-.4.32-.15.45-.28l.4-.39c.29.06.33-.3.59-.34s.33-.42.61-.46.3-.38.58-.34c.21-.15.3-.45.61-.47.16-.22.43-.28.62-.45a1.72,1.72,0,0,1,.39-.24c.16-.08.26-.26.41-.38s.28-.09.39-.22a2.46,2.46,0,0,1,.44-.29c.15-.11.23-.31.42-.35s.31-.28.48-.39.14-.05.2-.1a2,2,0,0,1,.36-.29c.12-.05.26-.06.33-.18s.28-.13.39-.23.25-.33.41-.38a1,1,0,0,0,.49-.36c.12-.16.35-.12.45-.28s.32-.17.45-.29.27-.26.4-.4c.29.06.35-.27.58-.35s.36-.3.54-.45c.29,0,.37-.27.56-.4s.08-.1.12-.09c.26,0,.3-.29.51-.33s.36-.29.55-.44c0,0,0,0,.06,0,.2,0,.27-.14.39-.24s.33-.12.45-.28.17-.27.36-.29.28-.23.42-.34a.54.54,0,0,1,.26-.15c.2,0,.25-.35.51-.32,0,0,0,0,.06,0s.29-.36.47-.42a.82.82,0,0,0,.42-.33c.14-.18.41-.13.51-.34s.28-.12.39-.23.25-.34.4-.38.29-.22.45-.29a1.09,1.09,0,0,0,.49-.35c.11-.17.32-.16.45-.28s.24-.35.48-.4.31-.37.58-.35l.46-.46c.29.07.32-.34.59-.32l.53-.47c.29,0,.37-.27.56-.4s.08-.09.12-.09c.26,0,.3-.3.51-.33s.31-.28.49-.38a2.27,2.27,0,0,0,.62-.46c.17-.19.47-.23.62-.46.2,0,.27-.14.39-.23s.19-.24.38-.26.24-.36.51-.32c0,0,0,0,.06,0,.18-.14.31-.34.54-.45a2.33,2.33,0,0,0,.53-.47c.29,0,.37-.27.56-.4s.09-.09.12-.08c.28,0,.31-.38.59-.33l.26-.25-1-1.44c-.13.15-.23.35-.46.39s-.3.37-.58.35l-.46.46c-.26,0-.36.2-.5.35s-.37.17-.52.33a2.62,2.62,0,0,1-.44.29c-.16.12-.27.3-.5.36s-.26.26-.41.38-.33.13-.45.29a.74.74,0,0,1-.44.3c-.16,0-.21.31-.44.3,0,0-.08.06-.12.09s-.27.41-.56.4c-.18.16-.33.39-.54.45s-.29.41-.59.35c-.15.15-.28.37-.46.44a1.11,1.11,0,0,0-.49.36c-.11.14-.29.12-.39.23a1.75,1.75,0,0,1-.5.34c-.2.1-.28.36-.56.41s-.26.29-.51.34-.25.2-.34.33-.28.1-.4.22-.24.36-.48.39-.25.35-.51.33c0,0-.09.05-.12.09l-.34.34c-.09.09-.26,0-.33.17s-.36.19-.51.34-.22.31-.42.35-.3.29-.48.4-.23.11-.33.17-.2.16-.31.23-.16.05-.19.11c-.2.3-.57.36-.79.62s-.28.09-.39.22a.86.86,0,0,1-.42.35.75.75,0,0,0-.36.29c-.13.18-.4.14-.51.34s-.37.15-.51.33A.82.82,0,0,1,32,174c-.18.06-.31.28-.48.41s-.3.08-.39.23-.22.12-.33.18a2.71,2.71,0,0,0-.37.29c-.06,0-.14.06-.2.1s-.24.35-.49.38-.25.35-.51.33c0,0-.09.05-.12.09l-.34.34c-.09.09-.26,0-.33.17s-.36.19-.51.34-.22.31-.42.35-.32.27-.48.4-.3.07-.4.22a.49.49,0,0,1-.32.2c-.13,0-.22.26-.36.29a.66.66,0,0,0-.32.2,1.59,1.59,0,0,1-.5.36c-.21.09-.3.38-.55.43s-.25.35-.51.34c-.08,0-.16.13-.24.19s-.22.27-.44.3-.21.29-.43.31-.16.12-.24.18-.22.28-.44.31-.22.26-.43.32-.28.25-.44.3-.25.18-.37.28-.16.22-.23.21c-.29,0-.32.36-.59.34a.17.17,0,0,0-.12.08c-.12.2-.34.23-.51.34s-.24.35-.49.38-.25.35-.51.33c0,0-.09.05-.12.09a3.23,3.23,0,0,1-.35.34c-.12.09-.29.09-.39.23s-.45.16-.56.4-.44.18-.56.4-.28.12-.39.23a2.4,2.4,0,0,1-.3.24s-.09,0-.15,0,.14-.19.22-.28.23-.23.34-.34l.29-.28a.54.54,0,0,1,.33-.19c.11,0,.19-.18.29-.26s.34-.46.66-.54.35-.47.68-.48l.4-.4c.11-.11.31-.07.39-.23s.37-.16.51-.34a.82.82,0,0,1,.42-.33c.18-.05.29-.33.48-.4a2.24,2.24,0,0,0,.67-.53c.3,0,.36-.39.66-.34l.4-.4c.13-.12.35-.11.45-.29s.33-.11.45-.28a.87.87,0,0,1,.49-.37c.16,0,.25-.3.41-.37a2.29,2.29,0,0,0,.67-.52c.3,0,.36-.37.66-.37.06,0,.12-.09.18-.15a3.32,3.32,0,0,1,.29-.28c.08-.06.22-.05.27-.12.15-.24.48-.22.62-.45s.4-.24.55-.4.37-.18.51-.33.22-.31.42-.35.3-.31.48-.39a1.68,1.68,0,0,0,.56-.41c.29,0,.33-.32.59-.34a.2.2,0,0,0,.13-.06c.28-.36.74-.49,1-.85.21,0,.34-.25.51-.32a1.46,1.46,0,0,0,.44-.3c.08-.07.16-.22.23-.22.3,0,.33-.35.59-.34a.22.22,0,0,0,.13-.07,3.65,3.65,0,0,1,.7-.67,4.73,4.73,0,0,0,.67-.53c.22-.17.34-.49.67-.52l.68-.68.63-.63c.21-.21.42-.41.62-.63a.68.68,0,0,1,.33-.17c.13,0,0-.3.19-.29s.2-.12.2-.25c.5-.18.76-.64,1.13-1s.73-.72,1.09-1.08.72-.73,1.09-1.08c.2-.19.49-.28.68-.51s.42-.42.62-.63.42-.18.57-.39a1.39,1.39,0,0,1,.51-.5,2.6,2.6,0,0,0,.67-.53c.3,0,.36-.39.66-.34.13-.13.26-.27.4-.4s.32-.13.45-.28.4-.22.56-.4a4.15,4.15,0,0,1,.55-.41c.2-.16.47-.22.62-.45.29.06.32-.35.59-.32a.1.1,0,0,0,.07,0l.46-.46c.15,0,.23-.06.32-.16l-.21-.3a.72.72,0,0,1-.3.17c-.14,0-.24.19-.37.28s-.11,0-.14,0a1.55,1.55,0,0,1-.5.35c-.2.1-.29.37-.55.42s-.25.36-.51.32c-.13.13-.27.26-.4.4s-.31.06-.39.23-.34.13-.45.29-.31.18-.45.29-.25.33-.41.38a1,1,0,0,0-.44.3c-.09.09-.26,0-.34.17a1.14,1.14,0,0,1-.28.29c-.16.13-.25.35-.48.41s-.36.29-.54.45-.28.36-.46.44a4.49,4.49,0,0,0-1.12,1c-.43.4-.84.83-1.26,1.25a5.11,5.11,0,0,0-1.3,1.14c-.41.38-.8.8-1.2,1.19s-.84.83-1.25,1.26c-.22.23-.54.3-.74.56a2.53,2.53,0,0,1-.69.68,4.92,4.92,0,0,0-.95.82c-.13.13-.34.11-.45.28a1.15,1.15,0,0,1-.49.36c-.16.08-.25.31-.41.37s-.33.29-.5.34-.37.28-.56.42-.38.16-.51.34-.33.12-.44.29-.39.13-.51.34a.73.73,0,0,1-.43.31c-.16.05-.27.25-.4.38s0,.06-.06.05c-.26,0-.33.24-.51.33s-.16,0-.21.08-.22.24-.35.33-.27.09-.32.18-.37.19-.52.33-.25.34-.49.38-.24.36-.51.32c-.15.15-.28.36-.46.44a1.37,1.37,0,0,0-.44.3c-.08.07-.16.22-.23.22-.3,0-.33.35-.59.34-.06,0-.14.07-.18.13-.24.32-.66.41-.91.73-.07.09-.22.11-.32.18s-.2.17-.3.24-.14.06-.2.1-.25.34-.48.39-.31.28-.48.41-.33.13-.45.28-.38.14-.5.34a1.1,1.1,0,0,1-.43.31c-.24.14-.39.42-.68.5-.28.36-.74.5-1,.86-.33.07-.5.37-.73.57s-.46.23-.62.45a6,6,0,0,1-.56.58l-.51.51a5.76,5.76,0,0,0-.56.57c-.23.3-.6.41-.85.68s-.53.53-.8.8c0,0-.09.08-.13.08-.26,0-.28.31-.51.33s-.29.23-.5.16a.81.81,0,0,0-.24,0h-.14l-.19.15c-.15-.23-.38-.12-.58-.15s-.48.1-.67-.14a1.22,1.22,0,0,1-.57-.18,1.84,1.84,0,0,1-1-.9c-.1-.15-.26-.23-.34-.43a1.88,1.88,0,0,1-.31-1c-.26-.23-.13-.54-.16-.82.36-.25,0-.75.32-1,0,0,0-.05,0-.08,0-.22-.11-.49.13-.67l0-.63c.23-.24.15-.54.16-.82.23-.21.16-.48.16-.74s.21-.23.17-.42a2.38,2.38,0,0,1,0-.48c.33-.17,0-.58.28-.78,0,0,0-.14,0-.22a1.1,1.1,0,0,1,.15-.67c.1-.14-.07-.42.15-.58,0,0,0-.15,0-.23s.12-.33.16-.5-.06-.41,0-.55a.8.8,0,0,0,.14-.51.42.42,0,0,0,.16-.5c0-.21.24-.28.18-.5a1.62,1.62,0,0,1,0-.47c.24-.11.06-.4.23-.55a.26.26,0,0,0,.08-.13c0-.17-.08-.37.09-.53s.07-.3.07-.45.22-.23.17-.42a.55.55,0,0,1,.14-.51c.08-.09,0-.29.13-.43s-.08-.48.18-.65a1.61,1.61,0,0,1,.18-.57c.09-.17-.07-.43.16-.58,0-.18,0-.38.17-.5,0,0,0-.1,0-.16a.49.49,0,0,1,.16-.5c0-.19.09-.34.14-.5s.23-.27.2-.49a.67.67,0,0,1,.19-.47c.13-.14.09-.36.27-.46,0,0,0-.1,0-.15s0,0,.05-.06a2.18,2.18,0,0,0,.35-.5c.19-.26.51-.43.66-.7a2.05,2.05,0,0,1,.54-.66c.24-.19.3-.48.51-.68a2.55,2.55,0,0,0,.56-.58,4.72,4.72,0,0,1,.75-.9c.11-.14.18-.31.29-.44s.3-.31.45-.46.28-.26.4-.4.2-.41.4-.56a1.41,1.41,0,0,0,.45-.46,3.11,3.11,0,0,1,.82-.95c.16-.15.2-.36.34-.51s.34-.34.51-.52.37-.28.44-.46a3.07,3.07,0,0,1,.88-1c.23-.22.32-.53.56-.75s.46-.45.69-.68c.1-.39.44-.57.69-.84s.49-.39.6-.64a2.37,2.37,0,0,1,.48-.61c.2-.22.48-.39.61-.64a4.14,4.14,0,0,1,1-1.11c.18-.17.18-.43.38-.58a4.29,4.29,0,0,0,.46-.45c.17-.17.33-.35.52-.51s.16-.38.34-.51a3.86,3.86,0,0,0,.4-.39c.15-.15.3-.31.46-.45s0-.4.33-.33c.09-.15.12-.33.28-.45a4.06,4.06,0,0,0,.4-.39l.4-.4c.15-.14.13-.38.34-.51a3,3,0,0,0,.46-.45c.15-.15.32-.29.45-.46s.18-.31.29-.44.3-.31.45-.46.26-.27.4-.4.16-.37.34-.51a6.46,6.46,0,0,0,.52-.51c.15-.15.3-.31.46-.45s.11-.34.28-.46a4,4,0,0,0,.46-.45,3,3,0,0,0,.39-.4,2.65,2.65,0,0,1,.46-.62c.19-.15.33-.36.52-.5s0-.43.32-.36c.15-.1.12-.33.29-.44a3,3,0,0,0,.4-.39,5.55,5.55,0,0,0,.4-.4c.11-.14.18-.31.29-.44s.3-.31.45-.46l.4-.4c.18-.19.23-.45.45-.62a1.84,1.84,0,0,0,.56-.57,4.54,4.54,0,0,1,1-1.12c.22-.23.29-.55.56-.75a4,4,0,0,0,.68-.68,3.7,3.7,0,0,1,.4-.56c.18-.16.34-.35.52-.51s.18-.42.39-.57a1.37,1.37,0,0,0,.5-.51,2.53,2.53,0,0,1,.71-.83c.18-.17.17-.43.39-.58a1.46,1.46,0,0,0,.51-.51,5,5,0,0,1,.87-1c.15-.18.26-.38.4-.56s.4-.32.5-.52a4.36,4.36,0,0,1,.75-.9,4.49,4.49,0,0,0,.29-.44c.11-.17.37-.24.34-.5.19-.09.18-.31.27-.46a1.28,1.28,0,0,0,.23-.72c0-.21.18-.41.15-.66a6.9,6.9,0,0,1,0-.81v-.73c0-.24,0-.48,0-.73s-.23-.28-.17-.5a.35.35,0,0,0-.16-.42c.11-.31-.27-.51-.16-.82,0-.11,0-.19-.12-.27a.34.34,0,0,1,0-.22c0-.12-.07-.19-.13-.27s0-.18-.07-.21c-.24-.15,0-.49-.28-.61,0-.22-.24-.34-.17-.58,0,0,0-.09-.05-.14s-.25-.36-.24-.54-.16-.32-.2-.5-.27-.34-.28-.52a1.59,1.59,0,0,0-.19-.57,1.8,1.8,0,0,0-.24-.46c-.14-.14,0-.34-.11-.44s-.1-.29-.22-.4-.07-.31-.23-.39c.06-.28-.11-.44-.28-.61s0-.26-.17-.33a4.26,4.26,0,0,0-.52-1.24,2.27,2.27,0,0,1-.15-.34c0-.15-.23-.23-.17-.42s-.12-.22-.16-.34c-.14-.4-.4-.75-.54-1.15-.23-.12,0-.44-.23-.55-.1-.26-.26-.49-.35-.74s-.24-.23-.18-.41-.14-.26-.17-.42a1,1,0,0,0-.23-.46c-.14-.14,0-.31-.11-.44s-.21-.29-.28-.45,0-.3-.07-.37-.07-.31-.22-.4-.06-.23-.16-.34,0-.42-.22-.55c.1-.26-.16-.42-.18-.66a1.74,1.74,0,0,0-.24-.54.63.63,0,0,1-.06-.14c0-.15.07-.34-.06-.46a.42.42,0,0,1-.11-.36c0-.16-.21-.23-.17-.42a.58.58,0,0,0,0-.4c-.27-.42-.11-.87-.15-1.31,0-.18.07-.38-.13-.51,0,0,0-.1,0-.15,0-.38,0-.75,0-1.13,0-.12.23-.23,0-.36a.16.16,0,0,1,0-.15c.18-.13.16-.31.16-.5,0-.35,0-.7,0-1,0-.15-.08-.33.06-.46s.08-.3.1-.45,0-.34,0-.47.13-.17,0-.3.16-.16.13-.32,0-.27,0-.4.21-.23.17-.42a2.37,2.37,0,0,1,0-.48c.25-.17.13-.43.17-.66.27-.12,0-.47.28-.61,0,0,0-.15,0-.22-.07-.31.11-.55.2-.81,0-.07.13-.14.12-.19-.05-.21.18-.34.16-.5s.23-.36.17-.58.22-.28.18-.5.14-.37.24-.53,0-.44.22-.56c-.07-.21.25-.28.17-.49.19-.12.18-.36.31-.52s.1-.34.21-.47.17-.37.28-.53a.81.81,0,0,0,.16-.34c0-.13.11-.18.18-.25s.12-.23.18-.33.1-.23.17-.34a.91.91,0,0,1,.28-.28c.15-.1.13-.28.23-.39s.26-.27.4-.4l.34-.34c-.11-.32.34-.15.34-.41s.21-.3.34-.41.33-.11.33-.34c0,0,.07-.07.11-.11s.34-.11.45-.28a2.66,2.66,0,0,1,.34-.35c.14-.15.39-.13.51-.34a.85.85,0,0,1,.43-.31c.18-.07.3-.31.47-.43s.18-.06.27-.12.29-.09.39-.23.14-.15.18-.13c.25.1.37-.18.58-.17.11-.16.31-.16.46-.26a1.17,1.17,0,0,1,.54-.24c.08-.16.29-.1.39-.23s.37,0,.5-.17.31-.07.38-.23c.28.11.46-.24.74-.17a.85.85,0,0,1,.57-.18c.11-.24.4-.07.55-.22a.28.28,0,0,1,.2-.08,1.13,1.13,0,0,0,.58-.16c.18-.07.43.06.58-.17.18,0,.39.07.54-.06a.57.57,0,0,1,.52-.09c.28,0,.45-.25.74-.18a3.26,3.26,0,0,0,.72,0c.49-.32,1-.1,1.55-.15.2,0,.43-.09.59.13,0,0,.1,0,.15,0l.71,0c.19.24.45.09.67.12s.28.24.5.17a.36.36,0,0,1,.42.16c.3-.1.51.27.82.16a.21.21,0,0,1,.15,0c.18.1.34.27.52.29a3.77,3.77,0,0,1,.5.17c.17,0,.28.23.5.17s.23.16.41.18.29.22.45.26.3.19.45.29a1.73,1.73,0,0,0,.47.23.91.91,0,0,1,.41.35c.11.13.29.1.4.22s.26.27.4.4l.34.34c.11.11.27.21.33.35a1.33,1.33,0,0,0,.29.44.75.75,0,0,1,.26.38c0,.16.23.29.37.4s.06.31.23.39.15.32.28.45.34.25.37.41.23.29.31.44.13.32.19.48.3.23.32.43.26.26.32.43a2.36,2.36,0,0,0,.2.48,3.76,3.76,0,0,0,.39.41.48.48,0,0,1,.06.14,1.67,1.67,0,0,0,.46.7c0,.18.17.26.18.41s.3.27.31.43.16.25.19.41.35.31.35.58c.17.16.22.4.39.57s.17.47.36.65a2.19,2.19,0,0,1,.35.58,1,1,0,0,1,.16.34c0,.16.16.2.23.31s0,0,.05.06c.12.48.54.79.68,1.25.07.23.39.3.35.58.19.15.16.45.4.56a1.45,1.45,0,0,0,.33.51,3.32,3.32,0,0,1,.22.47c.09.15.26.28.31.44s.32.27.32.43.26.28.19.49a2.15,2.15,0,0,1,.39.4c.1.18.23.34.34.51a3.94,3.94,0,0,1,.34.5,1.56,1.56,0,0,0,.36.5c.2.2.25.51.5.68,0,.2.16.26.24.38s.36.25.4.48.23.28.34.42.32.27.34.51l1.08,1.08c.35.13.63.47,1,.4.23,0,.28.23.5.18a2,2,0,0,1,.48,0c.34.33.77.07,1.14.17.21.05.28-.23.5-.17a2,2,0,0,0,.56,0s.09,0,.13-.07l1-.51c.09,0,.22-.05.27-.12.17-.25.5-.27.69-.5s.52-.48.72-.76.49,0,.4-.38l.4-.4c.15-.15.3-.31.46-.45s.34-.57.59-.81c0-.16.11-.25.21-.31s.06-.26.17-.34c.27-.19.29-.56.57-.73a4.94,4.94,0,0,1,.46-.94c.1-.17,0-.43.21-.56a1.39,1.39,0,0,1,.26-.54c.11-.18,0-.45.22-.56-.1-.28.19-.46.19-.74s.2-.35.15-.57c.21-.11.08-.36.18-.48a.45.45,0,0,0,.12-.43c-.07-.22.2-.3.17-.5a3.58,3.58,0,0,1,0-.48c.25-.23.16-.54.15-.82s.25-.39.18-.66a3.6,3.6,0,0,1,0-.8V83.46c0-.19,0-.38,0-.56a.57.57,0,0,0-.16-.5s0-.15,0-.24c0-.51,0-1,0-1.53s.16-.8-.15-1.14c0-.38,0-.75,0-1.13,0-.2.08-.42-.12-.6-.06,0,0-.2,0-.3,0-.32,0-.65,0-1s.09-.48-.14-.67c0,0,0-.15,0-.23,0-.32,0-.65,0-1s.09-.37-.09-.53-.05-.3-.06-.46,0-.38,0-.56a3.54,3.54,0,0,0,0-.48c0-.06-.1-.12-.15-.17l.14-.18c-.23-.15-.14-.38-.15-.58s0-.7,0-1-.23-.33-.17-.58a3.37,3.37,0,0,0,0-.72,4.39,4.39,0,0,1,0-.64c0-.15-.21-.21-.12-.31s.17-.26,0-.4-.05-.2-.05-.3c0-1.21,0-2.42,0-3.62l-.16-.18c.1-.09.24-.21.12-.33s-.08-.18,0-.3,0-.24-.13-.31a.85.85,0,0,0,.14-.27c0-.21,0-.43,0-.64s-.06-.36.11-.52-.07-.44.12-.59,0-.38.17-.5,0-.33.12-.43.07-.26.17-.33,0-.34.13-.43.14-.33.26-.47a1.63,1.63,0,0,0,.21-.39c.13-.3.29-.58.43-.87s.23-.55.39-.81A5,5,0,0,1,96,55.8c0-.19.12-.28.23-.39a.34.34,0,0,0,.11-.28.4.4,0,0,1,.07-.21,3.41,3.41,0,0,0,.25-.3c.17-.33.32-.67.49-1,.32-.65.66-1.28,1-1.94.09-.2.32-.26.35-.5s.17-.3.23-.46a1.35,1.35,0,0,1,.34-.51s0-.19.06-.21c.25-.12.06-.42.23-.55a1.64,1.64,0,0,0,.34-.5c.08-.13.06-.31.22-.39s.15-.26.23-.39a6.39,6.39,0,0,0,.29-.6,1.28,1.28,0,0,1,.29-.44c.13-.12.14-.27.22-.4s.2-.52.4-.72a1.42,1.42,0,0,0,.35-.66c.37-.27.38-.78.73-1.07a.36.36,0,0,0,.08-.13,1.77,1.77,0,0,1,.28-.53c.14-.14.16-.33.28-.45a1.5,1.5,0,0,0,.34-.51c0-.09.05-.22.12-.27s.26-.38.39-.57.25-.39.4-.56a1.67,1.67,0,0,0,.28-.53c.07-.19.31-.26.32-.43s.31-.3.33-.51.2-.31.33-.42.14-.27.22-.4.15-.4.34-.5.22-.4.39-.57.35-.25.35-.5c0,0,.07-.07.11-.11a4.4,4.4,0,0,0,.68-.77,3.89,3.89,0,0,1,.75-.82c.24-.26.49-.5.74-.74s.6-.62.92-.91.42-.55.79-.63a3.57,3.57,0,0,1,.69-.67c.33-.18.53-.52.85-.68a6.56,6.56,0,0,0,.78-.64c.14-.1.34-.13.44-.29s.33-.24.5-.35a2.76,2.76,0,0,0,.41-.39c.27,0,.35-.22.5-.35s.39-.15.51-.34.33-.12.45-.28a1,1,0,0,1,.49-.36c.16,0,.27-.25.4-.38s0-.06.06-.05c.26,0,.32-.28.51-.32a.71.71,0,0,0,.32-.2c.14-.11.22-.28.44-.31s.25-.3.51-.33.21-.31.44-.3a.19.19,0,0,0,.12-.08.78.78,0,0,1,.45-.28c.2-.29.54-.4.79-.63s.45-.16.56-.4.36-.19.51-.34a4.94,4.94,0,0,1,.56-.4,2.51,2.51,0,0,0,.62-.44c.28.05.31-.35.59-.33.08,0,.16-.12.24-.19s.19-.19.29-.28.13,0,.15,0c.24-.29.6-.39.87-.64.16,0,.24-.12.31-.22s.27,0,.34-.17.45-.25.63-.45.46-.23.61-.45c.3,0,.36-.36.66-.36.13,0,.19-.26.36-.28s.27-.29.43-.31.27-.16.38-.25.35-.11.45-.28.36-.09.45-.29.27-.13.39-.23a1.63,1.63,0,0,1,.44-.3,5.1,5.1,0,0,0,.5-.34c.17-.1.34-.22.5-.34a3.94,3.94,0,0,1,.51-.33c.16-.08.34-.11.45-.28s.33-.24.49-.36a5.28,5.28,0,0,1,.51-.33c.13-.08.31-.06.39-.22s.3-.12.38-.23.43-.2.56-.4.38-.15.51-.34.44-.17.56-.4c.19-.05.34-.2.54-.25s.23-.3.43-.32.27-.31.51-.34.23-.22.36-.28.26-.06.33-.18.33-.13.45-.28a.71.71,0,0,1,.38-.24c.16,0,.21-.28.44-.3s.25-.35.51-.31c.15-.19.4-.2.57-.39a3.09,3.09,0,0,1,.5-.34c.17-.12.34-.22.5-.35s.4-.12.53-.25a.52.52,0,0,1,.51-.12,1.34,1.34,0,0,1,.53.26,8.17,8.17,0,0,1,.63.62c0,.15-.05.32.11.44a.19.19,0,0,1,0,.14c0,.4,0,.81,0,1.21,0,.23-.22.4-.17.66a2.79,2.79,0,0,1,0,.72c0,.08-.1.16-.12.25s.14.07.08.17a.89.89,0,0,1-.13.13c.07.26-.12.57.17.8a3,3,0,0,0,0,.4c0,.21-.1.44.06.62s.06.35.1.53.05.09.07.13c.07.24.27.42.27.7a.73.73,0,0,0,.25.45,2.25,2.25,0,0,1,.28.45c.1.15.25.25.3.45a.4.4,0,0,0,.37.24c.13,0,0,.34.26.3a9.1,9.1,0,0,1,.85.48h1c.24,0,.48,0,.73,0s.49.09.66-.16h.65c.17-.26.43-.12.65-.17.15-.23.38-.11.58-.16s.23-.2.42-.16a.37.37,0,0,0,.43-.14s0,0,.07,0c.23,0,.47.08.69-.09s.42,0,.62-.07.35-.2.58-.16a4.94,4.94,0,0,0,.72,0,3.29,3.29,0,0,0,.64,0c.22,0,.32.16.5.17h.56c.11.21.33.1.49.18s.29.21.45.27.38,0,.49.18c.21-.09.28.26.49.17.15.1.29.2.45.28a3.08,3.08,0,0,1,.73.4c.19.17.47.23.61.46s.28.11.39.23l.4.4c.19-.07.25.16.41.17s.17.1.25.17a1.7,1.7,0,0,0,.5.36c.18.07.29.36.47.41a.81.81,0,0,1,.43.32c.12.16.34.13.45.28s.3.19.45.29.24.26.45.29.19.18.29.27.22.31.42.34.23.23.37.28a1.26,1.26,0,0,1,.39.23c.23.21.39.5.71.62s.4.44.65.56a2.86,2.86,0,0,1,.72.58l.69.68a.76.76,0,0,0,.44.29c.13,0,0,.29.19.29s.17.13.21.25.32,0,.32.26c0,.1.15.2.24.3l.34.34a3,3,0,0,1,.86,1.26l.22.47s.1.09.09.12c-.1.36.21.64.17,1s.23.33.17.58a2.76,2.76,0,0,0,0,.64c0,.13,0,.27,0,.4s-.11.18-.14.26,0,.27-.07.37a2.06,2.06,0,0,0-.12.27c0,.11-.12.21-.17.33s-.31.27-.33.51c0,.06-.11.11-.16.17l-.46.46c-.11.11-.28.09-.4.22s-.2.32-.42.34-.23.21-.41.18a2.29,2.29,0,0,1-.77.48,3,3,0,0,0-.72.39c-.16.15-.35,0-.51.15a1,1,0,0,1-.53.26c-.1.17-.33.13-.46.27s-.35,0-.5.16-.32.13-.47.22a.68.68,0,0,1-.5.16,9.08,9.08,0,0,1-1.06.55l-.54.26a1.64,1.64,0,0,0-.45.26c-.13.14-.31.18-.45.29s-.36.09-.46.28a.23.23,0,0,1-.11.11,1.4,1.4,0,0,0-.59.3c-.15.17-.36.2-.52.32s-.29.09-.39.23-.58.35-.79.62c0,0-.16,0-.21.07a4.23,4.23,0,0,1-.7.66,3.53,3.53,0,0,0-.72.59c-.13.13-.32.25-.36.41s-.26.32-.38.49-.32.22-.28.45c-.18.22-.47.35-.51.67a1.24,1.24,0,0,0-.39.56,5,5,0,0,1-.25.54c-.11.2-.19.41-.3.61s-.27.33-.3.52-.2.34-.2.57-.21.35-.14.58-.19.24-.17.42a1.22,1.22,0,0,1,0,.39c0,.07-.12.12-.13.19,0,.33.08.69-.17,1v1c0,.35,0,.7,0,1,0,.17.22.23.17.42a1.75,1.75,0,0,0,0,.4,1.88,1.88,0,0,0,0,.48c.05.19.21.35.16.58s.07.34.14.5,0,.47.18.65c-.1.26.21.41.16.66,0,0,0,.07,0,.08s.13.39.32.51a.79.79,0,0,0,.15.51,3,3,0,0,1,.29.6c.08.21.25.33.34.5a1.48,1.48,0,0,1,.17.33.47.47,0,0,0,.19.33c.18.13.15.38.34.51a2.24,2.24,0,0,1,.4.4c.1.11.08.29.23.39a3.71,3.71,0,0,1,.4.39c.11.11.24.22.34.34.26.3.68.4.9.74l1.23.53c.12,0,.22.12.34.15s.29,0,.4,0,.18.16.34.16c.37,0,.75,0,1.13,0,.16-.26.47-.06.65-.18a1.57,1.57,0,0,1,.53-.28c.26,0,.29-.41.59-.34.3-.41.79-.59,1.14-1,.77-.82,1.59-1.6,2.39-2.4l.57-.57c0-.33.33-.46.52-.67s.44-.35.55-.58A5.3,5.3,0,0,1,169.84,58c.11-.12,0-.43.32-.36a3.29,3.29,0,0,1,.24-.37c.12-.14.26-.27.4-.4l.34-.34c.13-.13.26-.27.4-.4a3.82,3.82,0,0,1,.78-.65c.27-.14.45-.46.7-.66a5,5,0,0,0,.5-.35,1.47,1.47,0,0,1,.48-.4,2,2,0,0,0,.48-.4c.12-.1.31-.07.39-.23s.27-.14.39-.23.19-.23.37-.27.22-.24.36-.29a.65.65,0,0,0,.33-.18c.2.05.26-.15.39-.22s.41-.18.6-.3c.56-.34,1.18-.55,1.73-.9a.82.82,0,0,1,.48-.18c.22,0,.29-.25.5-.18.12-.18.31-.17.5-.16.11-.26.41-.06.55-.23s.45,0,.55-.23c.13,0,.26,0,.39,0s.28-.23.5-.17a.87.87,0,0,0,.48,0,1.55,1.55,0,0,1,.66-.16c.24,0,.48,0,.73,0h.73a3,3,0,0,0,.72,0c.27-.07.42.2.66.18s.43,0,.64,0c.11.2.33.12.49.18s.34.26.52.28a1.41,1.41,0,0,1,.5.18,2.22,2.22,0,0,1,.71.43,5.51,5.51,0,0,0,.55.41,3.68,3.68,0,0,1,.46.46c.13.16.35.24.4.48s.29.3.4.48.23.44.34.66a2.27,2.27,0,0,0,.3.6c.17.17,0,.44.21.57,0,0,0,.14,0,.22a6.22,6.22,0,0,0,0,.89c0,.22-.21.31-.17.5s-.09.29-.21.4-.13.39-.34.51a2.82,2.82,0,0,0-.46.45l-.46.46c-.15.15-.29.32-.46.45s-.37.16-.51.34a3.77,3.77,0,0,1-.45.46c-.15.14-.38.14-.51.34a.91.91,0,0,1-.43.3c-.18.08-.31.28-.47.43-.27,0-.33.24-.5.35a1.59,1.59,0,0,0-.44.29c-.14.18-.38.15-.52.33a.87.87,0,0,1-.42.34c-.18.06-.31.28-.48.4s-.34.12-.44.29-.3.08-.39.23a.68.68,0,0,1-.28.28,2,2,0,0,0-.67.52c-.3,0-.36.37-.66.36,0,0-.08.06-.12.09s-.27.41-.56.4c-.18.16-.33.39-.54.45s-.29.41-.58.35l-.4.4c-.11.11-.3.07-.39.23s-.43.29-.61.47-.37.18-.52.33-.22.31-.42.35-.31.28-.48.4-.23.11-.33.18-.2.16-.31.24-.14.07-.2.11-.25.35-.49.38-.25.35-.51.33c-.06,0-.13.08-.18.15-.21.28-.56.36-.8.62s-.58.34-.78.63c0,0,0,0-.06,0-.26,0-.31.27-.51.33a.56.56,0,0,0-.2.09c-.12.1-.23.22-.34.34s-.26,0-.34.17-.36.19-.5.34-.22.31-.42.35-.31.28-.48.39-.23.11-.33.18-.2.16-.31.24-.14.06-.2.1-.26.31-.48.4a1.9,1.9,0,0,0-.48.4s0,.06-.06.05c-.29,0-.33.32-.59.34a.29.29,0,0,0-.19.12c-.22.31-.62.38-.85.68,0,0-.15,0-.21.06-.27.36-.72.51-1,.85-.11.12-.32.14-.44.29a.8.8,0,0,1-.44.3c-.16,0-.23.25-.44.3s-.27.24-.41.37-.34.11-.45.28a1.45,1.45,0,0,1-.49.36c-.17.11-.32.24-.51.34s-.28.37-.56.42-.25.35-.51.32c-.15.15-.28.37-.46.44a.81.81,0,0,0-.43.31c-.12.21-.37.18-.52.33a1.41,1.41,0,0,1-.55.42c-.18.07-.31.28-.47.43-.29-.06-.32.36-.59.32l-.53.48c-.29-.07-.32.35-.59.32l-.53.48c-.29,0-.37.28-.56.4s-.23.11-.33.17-.2.16-.31.24-.14.06-.2.1-.27.25-.41.38c-.26,0-.3.29-.51.32s-.28.29-.43.31-.32.3-.51.33-.35.23-.49.38-.25.08-.34.17-.36.09-.45.28-.29.11-.39.23a1.4,1.4,0,0,1-.51.34c-.16.08-.35.11-.45.28s-.27.13-.4.21l-.44.29a3.63,3.63,0,0,0-.5.34,1.33,1.33,0,0,1-.47.22c-.17.05-.23.22-.36.3s-.33.11-.48.2-.23.28-.36.3-.29.25-.45.29a1.2,1.2,0,0,0-.5.35c-.21-.06-.29.17-.49.2s-.26.3-.51.33-.23.25-.36.28-.27.29-.43.32-.26.17-.39.24-.37.29-.57.38a1.58,1.58,0,0,0-.49.37c-.16.17-.45.16-.56.4-.27.07-.42.29-.62.45s-.46.24-.62.46-.45.16-.56.4-.36.2-.51.34a1.28,1.28,0,0,1-.56.41c-.13,0-.25.2-.34.33s-.25.06-.34.17c-.28.36-.74.5-1,.86-.31.06-.44.39-.68.49a2.54,2.54,0,0,0-.61.48s0,.05-.06,0c-.27,0-.31.29-.51.32s-.26.17-.38.26-.18.28-.39.23c-.15.23-.44.27-.62.46A2.26,2.26,0,0,1,136,97c-.18.1-.25.35-.49.38s-.25.35-.51.33c0,0-.08.06-.12.09s-.25.35-.48.39-.3.31-.48.4a5.3,5.3,0,0,0-.51.34,3.42,3.42,0,0,1-.5.34,1.52,1.52,0,0,0-.55.42c-.15.16-.37.15-.52.33s-.41.22-.54.41-.4.14-.51.34-.27.14-.39.23-.18.25-.37.27-.16.12-.24.18-.22.28-.44.3-.22.26-.43.32-.28.25-.44.3-.25.18-.37.28-.16.22-.23.21c-.29,0-.32.34-.59.35-.1,0-.19.17-.3.24s-.25.09-.32.18-.3.19-.45.28-.18.26-.38.26-.12.09-.18.13-.22.31-.42.34-.26.3-.43.31-.29.29-.44.3c-.3,0-.36.41-.66.36-.22.3-.64.36-.84.69-.09.15-.29.08-.4.22a.59.59,0,0,1-.38.25c-.13,0-.24.2-.36.29s-.16,0-.2.1-.3.19-.45.29-.29.35-.48.41-.27.29-.43.31-.33.31-.51.33-.31.3-.51.33-.32.26-.49.37,0,0-.06.06a5.37,5.37,0,0,0-.6.29c-.17.11-.3.32-.48.4a1.2,1.2,0,0,0-.36.28c-.1.09-.24,0-.34.16s-.38.26-.55.41-.4.21-.58.38-.41.17-.59.31-.25.06-.37.09-.19.17-.25.14c-.25-.09-.37.18-.58.17s-.38,0-.51.15c0,0-.1,0-.15,0-.29,0-.61-.1-.86.06s-.58,0-.85.11-.35.2-.58.16a2.32,2.32,0,0,0-.56,0c-.15,0-.23.2-.42.16a.75.75,0,0,0-.4,0c-.17.06-.3.2-.5.15a.61.61,0,0,1-.58.16c-.17,0-.23.23-.42.16-.09.15-.29.12-.39.23s-.27,0-.36.1c-.31.23-.68.35-1,.59-.49.41-.92.9-1.38,1.36-.08.3-.39.44-.49.68a2.79,2.79,0,0,1-.47.61.24.24,0,0,0-.06.13c0,.17-.18.23-.19.41s-.26.22-.28.36-.18.25-.27.38-.11.35-.29.45-.06.31-.23.39-.17.31-.28.45-.23.19-.26.38-.19.26-.32.34-.12.28-.22.39-.28.26-.4.4-.3.21-.34.42-.23.28-.35.42a.54.54,0,0,1-.39.24s-.06.19-.12.26-.18.07-.27.12-.28.36-.56.42-.27.29-.5.34-.25.2-.34.33-.28.1-.4.22a1.4,1.4,0,0,1-.48.4,1.9,1.9,0,0,0-.48.4s0,.06-.06.05c-.26,0-.32.27-.51.32a.68.68,0,0,0-.32.2,1.58,1.58,0,0,1-.5.36c-.21.09-.3.38-.55.43s-.25.35-.51.34c-.08,0-.18.11-.24.19-.19.27-.56.29-.73.57-.24,0-.35.21-.51.34s-.25.32-.5.36-.21.3-.43.31c-.06,0-.12.09-.19.13s-.23.38-.5.35c-.13.13-.26.27-.4.39a3.68,3.68,0,0,1-.33.18c-.11.07-.2.16-.31.24s-.14.06-.2.1-.25.35-.49.38-.25.35-.51.33c0,0-.08.06-.12.09s-.27.41-.56.4l-.53.48c-.27,0-.3.39-.59.32l-.4.4c-.13.12-.33.13-.45.28a.66.66,0,0,1-.44.31c-.16,0-.21.3-.43.31-.06,0-.13.08-.19.13s-.31.36-.56.4c-.13.25-.46.24-.62.46a1.55,1.55,0,0,1-.56.4c-.18.1-.25.35-.49.38s-.25.35-.51.33c0,0-.09.05-.12.09l-.34.34c-.09.09-.26,0-.33.17s-.36.19-.51.34-.22.31-.42.35-.3.29-.48.4-.23.11-.33.17-.19.2-.31.22a.59.59,0,0,0-.25.17c-.16.13-.26.31-.5.35s-.21.28-.44.3-.25.35-.51.31c-.15.15-.28.37-.46.44a1.11,1.11,0,0,0-.49.36c-.11.14-.29.12-.39.23a1.76,1.76,0,0,1-.5.34c-.2.1-.28.36-.56.41s-.27.28-.5.34-.26.26-.41.38-.33.13-.45.28a.71.71,0,0,1-.44.3c-.16,0-.21.28-.44.3s-.25.36-.51.31c-.15.15-.28.36-.46.44a1.37,1.37,0,0,0-.44.3c-.08.07-.16.22-.23.22-.3,0-.33.35-.59.34,0,0-.09,0-.13.07s-.22.24-.35.34-.27.09-.32.18-.37.18-.52.33-.24.33-.49.38-.25.35-.51.31l-.4.4c-.13.12-.34.11-.45.29s-.33.12-.45.28a.84.84,0,0,1-.49.36c-.16,0-.21.31-.44.29,0,0-.08.06-.12.1s-.22.24-.34.34-.23.06-.34.17-.4.25-.55.41-.4.23-.57.39a1,1,0,0,1-.39.24c-.14,0-.24.19-.37.28s-.14.07-.2.11-.25.35-.49.38-.25.35-.51.33c-.06,0-.12.09-.18.14a3.38,3.38,0,0,1-.29.28c-.08.06-.21.06-.27.12-.21.24-.53.32-.74.56s-.52.25-.67.52-.3.1-.39.23a1,1,0,0,1-.45.29c-.14.06-.18.26-.37.27a.23.23,0,0,0-.13.07c-.12.11-.22.24-.35.34s-.25.09-.32.18-.49.21-.62.45-.45.25-.63.45-.42.19-.55.41c-.26,0-.39.24-.56.4s-.44.18-.56.4a1,1,0,0,0-.56.4c-.14.16-.39.15-.51.34s-.33.11-.45.28a.86.86,0,0,1-.49.36c-.16,0-.23.25-.44.3s-.26.26-.41.37a2.41,2.41,0,0,0-.51.34c-.11.13-.31.15-.45.28a6,6,0,0,0-.62.46,1.07,1.07,0,0,1-.4.26l.2.28c.13-.1.31-.09.42-.25a.86.86,0,0,1,.49-.36c.16,0,.22-.31.45-.28.13-.13.27-.26.4-.4s.31-.06.39-.23.34-.13.44-.29.31-.18.45-.29.25-.33.41-.38a1.77,1.77,0,0,0,.44-.3c.15-.1.33-.13.45-.29s.33-.12.45-.28a.73.73,0,0,1,.43-.32c.16,0,.25-.28.41-.36a1.94,1.94,0,0,0,.56-.41c.28,0,.34-.32.58-.34a.25.25,0,0,0,.14-.06l.34-.34c.11-.12.31-.07.39-.23s.27-.14.39-.23.21-.26.35-.33a1.78,1.78,0,0,0,.56-.41c.29,0,.34-.32.59-.34a.42.42,0,0,0,.19-.12c.14-.12.26-.32.42-.35s.28-.33.51-.34.26-.28.43-.31a.5.5,0,0,0,.32-.2c.26-.3.68-.4.9-.74.23,0,.33-.27.51-.33s.38-.27.56-.42.4-.14.5-.34a1.62,1.62,0,0,0,.67-.51s0-.06.06-.05c.27,0,.32-.25.51-.33a.74.74,0,0,0,.21-.08c.12-.1.23-.23.35-.34s.28-.09.4-.22a3.1,3.1,0,0,1,.44-.3c.13-.1.22-.29.35-.32s.3-.19.45-.3.28-.1.39-.22a3.48,3.48,0,0,1,.44-.29,4.2,4.2,0,0,0,.34-.34c.29.06.35-.27.58-.35s.36-.29.54-.45c.29,0,.36-.29.56-.39a1.77,1.77,0,0,0,.56-.4c.28,0,.34-.31.58-.35a.22.22,0,0,0,.14-.06c.28-.36.74-.49,1-.85,0,0,0-.06.06-.05.26,0,.32-.27.51-.32a.52.52,0,0,0,.27-.14c.16-.16.31-.36.56-.4.18-.27.54-.3.74-.57s.5-.27.68-.51.32-.17.43-.3.5-.2.62-.45.43-.19.56-.4.37-.17.51-.34a.73.73,0,0,1,.43-.31c.18,0,.27-.28.5-.34s.27-.25.4-.38.31-.07.39-.23.37-.16.51-.34a.81.81,0,0,1,.42-.33c.18-.05.29-.31.48-.4s.33-.26.51-.34a1.45,1.45,0,0,0,.44-.3c.08-.07.16-.22.23-.22.3,0,.33-.35.59-.34.06,0,.14-.07.18-.13.24-.32.66-.41.91-.73.07-.09.22-.11.32-.18s.19-.2.31-.23a.64.64,0,0,0,.26-.16c.16-.13.25-.32.5-.36s.21-.3.44-.3c.06,0,.12-.09.18-.14s.24-.36.5-.34c.13-.13.26-.28.4-.4a2.51,2.51,0,0,1,.33-.18c.11-.07.15-.22.31-.23a.21.21,0,0,0,.14-.05c.28-.36.74-.49,1-.85,0,0,0-.06.06-.05.26,0,.33-.24.51-.33s.15,0,.21-.08.23-.23.35-.34.31-.07.39-.23.37-.16.51-.34a.81.81,0,0,1,.42-.33c.18-.05.29-.31.48-.4s.33-.27.5-.34a1.09,1.09,0,0,0,.49-.36c.13-.18.38-.15.52-.33a1.06,1.06,0,0,1,.49-.36c.18-.07.31-.29.46-.44.27,0,.31-.28.51-.31s.34-.24.49-.38.4-.11.51-.33.32-.12.45-.28a.7.7,0,0,1,.43-.33c.15,0,.27-.24.41-.37s.08-.1.12-.09c.26,0,.3-.3.51-.32a.43.43,0,0,0,.31-.22c.19-.26.56-.29.74-.57a.65.65,0,0,0,.5-.35c.17-.25.49-.3.68-.51s.39-.37.57-.57.52-.39.62-.71.5-.4.52-.75c.15-.18.38-.3.45-.54s.37-.36.49-.6.12-.45.32-.59.13-.28.23-.39a1,1,0,0,0,.3-.44c0-.14.19-.24.28-.37s0-.12.05-.14c.21-.13.24-.4.4-.56s.29-.21.33-.35a1,1,0,0,1,.3-.44,1.16,1.16,0,0,0,.25-.38c.07-.18.29-.31.44-.46a3.41,3.41,0,0,1,.52-.5l.51-.34a1.2,1.2,0,0,1,.54-.24c.17-.21.45-.22.66-.34.07,0,.14-.13.19-.12.24.07.37-.22.58-.16s.25-.18.42-.17.33.05.39,0a.5.5,0,0,1,.51-.13c.28.06.46-.21.74-.18a6.39,6.39,0,0,0,.81,0c.26-.26.6-.14.9-.16s.28-.22.5-.17a1.36,1.36,0,0,0,.56,0c.11,0,.18-.2.34-.15s.25-.17.42-.17a.8.8,0,0,0,.46-.05c.32-.19.66-.35,1-.52.09,0,.22-.05.27-.12s.39-.24.57-.39.24-.34.49-.37.23-.3.43-.31.26-.32.51-.34.23-.14.29-.24.38-.18.5-.34.36-.2.52-.32.29-.11.38-.24.55-.29.73-.57a.8.8,0,0,0,.5-.35c.11-.13.27-.14.39-.23s.39-.12.52-.33.54-.31.72-.57c.26,0,.33-.29.51-.32s.34-.24.49-.37.48-.22.62-.45c.29.07.33-.32.59-.34.1,0,.2-.16.3-.23s.25-.09.32-.18.3-.19.45-.28a1.76,1.76,0,0,1,.44-.3c.16-.05.26-.26.41-.38s.34-.12.45-.29.36-.1.44-.29.28-.11.39-.23.27-.27.4-.4c.29.07.32-.32.59-.33s.25-.32.51-.33c.1,0,.19-.17.29-.26s.16-.2.23-.2c.26,0,.31-.28.51-.34s.17,0,.2-.09c.11-.21.35-.21.51-.34s.26-.32.49-.39.28-.26.44-.3.27-.33.51-.34a.29.29,0,0,0,.19-.12c.22-.31.63-.38.85-.68a.32.32,0,0,0,.28-.11c.15-.13.25-.34.49-.38s.25-.35.51-.32c.19-.26.55-.3.73-.56a1.44,1.44,0,0,1,.51-.34c.18-.11.24-.36.49-.38s.25-.36.51-.33c0,0,.08-.05.12-.08s.27-.42.56-.4a2.32,2.32,0,0,1,.53-.47,2.42,2.42,0,0,0,.54-.45c.1-.08.26,0,.34-.17s.36-.18.5-.34.28-.37.46-.44.43-.41.68-.51a2.91,2.91,0,0,0,.61-.47c.06,0,.17,0,.21-.06.25-.31.7-.38.9-.74s.37-.18.51-.34a1.42,1.42,0,0,1,.55-.42c.18-.07.31-.28.47-.43.29.05.32-.33.59-.33s.25-.35.51-.31l.4-.39c.13-.13.33-.12.46-.28s.32-.17.43-.3.34-.13.46-.28a.73.73,0,0,1,.38-.24c.16-.05.21-.32.44-.29a2.61,2.61,0,0,1,.62-.44.19.19,0,0,1,.28,0c-.18.14-.29.34-.54.43s-.34.33-.54.45-.2.05-.26.14c-.19.3-.58.35-.79.63-.31.06-.46.32-.67.51-.3,0-.36.39-.66.35,0,0,0,0-.06.05s-.31.3-.45.46-.39.15-.51.34-.33.11-.45.28a1,1,0,0,1-.49.36c-.16.05-.27.25-.4.38s0,.06-.06.05c-.27,0-.31.29-.51.31a.48.48,0,0,0-.32.21,2,2,0,0,1-.56.4c-.17.11-.27.3-.48.39a2.33,2.33,0,0,0-.53.46c-.29-.06-.35.27-.58.35s-.39.34-.62.45-.34.35-.54.44-.33.27-.5.34a.94.94,0,0,0-.43.31c-.12.16-.31.18-.45.29s-.3.34-.48.4-.27.24-.43.33-.17,0-.21.06c-.28.35-.73.51-1,.84-.11.12-.32.13-.44.29a.78.78,0,0,1-.44.3c-.16,0-.22.31-.45.28,0,0,0,0-.06,0-.18.14-.29.39-.55.44s-.25.35-.51.33c-.06,0-.13.09-.18.15-.21.28-.56.36-.8.62s-.58.34-.78.63c-.32.05-.46.33-.67.51-.31-.05-.36.4-.66.34-.15.15-.28.37-.46.44a1.61,1.61,0,0,0-.5.36c-.22.18-.5.27-.68.51s-.46.23-.62.46c0,0-.17,0-.21.06-.28.35-.73.51-1,.84-.11.12-.32.13-.44.29a.78.78,0,0,1-.44.3c-.16,0-.22.31-.45.28,0,0,0,0-.06,0-.18.14-.29.39-.55.44s-.25.35-.51.33c-.06,0-.13.09-.18.15-.21.28-.56.36-.8.62s-.58.34-.78.63c-.31,0-.42.34-.72.42s-.3.44-.62.44a6.32,6.32,0,0,1-.84.69c-.12.12-.3.07-.4.22s-.24.22-.33.35-.32.15-.45.28-.18.28-.39.23a4.16,4.16,0,0,1-.34.34c-.14.11-.33.16-.43.3s-.34.13-.46.28a3.16,3.16,0,0,1-.4.4c-.14.11-.33.16-.43.3s-.38.15-.52.33a.91.91,0,0,1-.42.34c-.18.06-.32.26-.48.4s0,.06-.06.05c-.26,0-.32.28-.51.32a.63.63,0,0,0-.32.2,1.63,1.63,0,0,1-.5.35c-.21.09-.29.38-.55.43s-.25.36-.51.33c0,0-.08.06-.12.09s-.27.42-.56.4a2.41,2.41,0,0,1-.53.46c-.23.11-.34.34-.54.44s-.33.26-.51.33a1.47,1.47,0,0,0-.44.3c-.08.07-.16.22-.23.22-.3,0-.33.31-.59.35s-.28.23-.42.34-.22.27-.44.3-.21.29-.43.32a.46.46,0,0,0-.24.18,2,2,0,0,1-.56.4c-.18.11-.27.3-.48.39a2.34,2.34,0,0,0-.53.46c-.29-.06-.35.27-.58.35s-.39.35-.62.45-.33.36-.54.44a2.2,2.2,0,0,0-.67.53c-.31-.05-.36.4-.66.34a6.31,6.31,0,0,1-.84.69c-.12.12-.3.07-.4.22s-.24.22-.33.35-.32.16-.45.28-.18.28-.39.23a2.73,2.73,0,0,0-.34.34c-.1.15-.28.11-.4.22a2.2,2.2,0,0,1-.3.24s-.11,0-.14.05c-.25.36-.7.46-1,.8-.13.17-.39.12-.51.34a.81.81,0,0,1-.43.31c-.18.07-.31.29-.46.44-.26,0-.36.2-.5.35s-.37.16-.52.33a2,2,0,0,1-.44.29c-.15.1-.22.28-.42.34s-.28.23-.42.34-.3.19-.44.29-.26.31-.5.35-.21.31-.44.3c0,0-.09.05-.12.09l-.34.34c-.09.09-.26,0-.33.17s-.36.19-.5.34-.22.31-.42.35-.31.27-.48.4-.34.11-.45.28a1.17,1.17,0,0,1-.49.35c-.15.08-.25.23-.45.29s-.27.25-.41.38-.28.09-.4.22-.21.29-.42.34a.68.68,0,0,0-.35.3c-.11.18-.34.13-.46.28s-.21.31-.34.33-.35.31-.58.37-.37.41-.61.47-.35.33-.55.42-.43.4-.68.5A2.84,2.84,0,0,0,84,136c-.29-.05-.34.3-.59.34s-.35.43-.61.46-.3.41-.59.34c-.15.15-.28.37-.46.44a1.06,1.06,0,0,0-.49.36c-.13.18-.38.15-.52.33s-.2.3-.43.33-.25.35-.51.31a2.62,2.62,0,0,0-.34.34c-.1.14-.28.12-.4.22s-.25.36-.48.41-.28.24-.43.34-.31.18-.44.29-.22.3-.35.32-.29.24-.45.29a1.41,1.41,0,0,0-.56.41c-.16.17-.44.17-.56.4s-.35.19-.51.34-.24.33-.49.38-.29.23-.4.37-.31.06-.39.22-.31.17-.45.28-.24.35-.48.4-.27.24-.42.35a2,2,0,0,0-.44.29c-.14.18-.38.15-.52.33a.87.87,0,0,1-.42.34c-.18.06-.32.27-.47.41l-.57.37a.49.49,0,0,0-.32.2,2,2,0,0,1-.56.4c-.18.11-.27.3-.48.39a2.34,2.34,0,0,0-.53.46c-.32,0-.39.36-.62.44a1.47,1.47,0,0,0-.55.42.62.62,0,0,1-.27.13c-.17.06-.22.27-.43.32a.7.7,0,0,0-.36.29c-.12.17-.32.15-.46.28a1.42,1.42,0,0,1-.55.42c-.21.07-.3.39-.54.44s-.3.4-.59.34a2.68,2.68,0,0,0-.34.35c-.1.15-.3.09-.39.22-.23.33-.67.41-.9.74-.13.17-.38.15-.5.34s-.33.11-.45.28a.85.85,0,0,1-.49.36c-.16,0-.24.24-.44.3s-.29.34-.47.41a1.79,1.79,0,0,0-.5.36c-.15.13-.25.32-.5.36s-.21.3-.43.31c-.06,0-.12.09-.19.13s-.23.38-.5.35c-.13.13-.26.27-.4.39s-.22.11-.33.18-.19.2-.31.23a.43.43,0,0,0-.25.17c-.21.28-.56.36-.8.62s-.58.34-.78.63c-.31,0-.43.33-.72.42s-.31.43-.62.44a3.79,3.79,0,0,1-.85.68c-.14.11-.31.17-.45.28l1,1.44c.14-.13.21-.34.46-.31.18-.16.33-.39.53-.46s.27-.29.43-.31a.7.7,0,0,0,.44-.3c.12-.15.31-.18.45-.28s.29-.35.55-.43.33-.4.61-.47.31-.33.58-.37.24-.2.34-.33.34-.1.46-.28a.68.68,0,0,1,.35-.3c.21,0,.29-.22.42-.34s.19-.18.34-.17c.22-.3.64-.37.85-.68a.26.26,0,0,1,.28-.11c.22-.3.64-.36.84-.69.09-.15.29-.08.4-.22a.84.84,0,0,1,.34-.33.77.77,0,0,0,.44-.3c.13-.2.38-.19.5-.34s.31-.17.45-.28a3.24,3.24,0,0,1,.61-.47c.24-.12.4-.39.68-.51s.27-.25.4-.39c.26,0,.37-.2.5-.35s.29-.11.4-.22l.4-.4c.29.05.34-.29.59-.34s.33-.37.54-.44.36-.29.56-.41a2.6,2.6,0,0,0,.62-.46c.17-.19.47-.23.61-.46.16,0,.24-.08.33-.17a1.57,1.57,0,0,1,.5-.36c.17-.07.32-.23.5-.34a2,2,0,0,0,.46-.45c.14-.16.4-.14.5-.34s.24-.08.34-.17l.47-.43c.28,0,.31-.37.59-.32.15-.15.28-.36.47-.43a1.92,1.92,0,0,0,.56-.41c.19-.17.48-.21.61-.46s.28-.12.39-.23l.4-.4c.31,0,.39-.37.62-.44s.41-.4.72-.42c.2-.29.55-.39.78-.63s.59-.34.8-.62a.43.43,0,0,1,.25-.17.8.8,0,0,0,.3-.23c.11-.11.31-.07.39-.23s.54-.32.73-.57a1.91,1.91,0,0,0,.73-.57c.06-.05.12-.16.17-.16.23,0,.29-.25.45-.29a.79.79,0,0,0,.44-.3c.12-.15.33-.17.44-.29.3-.34.75-.49,1-.84,0,0,.17,0,.21-.06.16-.23.46-.26.62-.46s.46-.33.68-.51a1.62,1.62,0,0,1,.5-.36c.18-.07.31-.29.46-.44.32,0,.39-.38.62-.44s.42-.36.71-.43.31-.32.54-.43.39-.38.62-.45.29-.4.58-.35a2.34,2.34,0,0,1,.53-.46c.21-.09.31-.28.48-.39a2,2,0,0,0,.56-.4c.06-.08.16-.18.24-.18.27,0,.3-.4.59-.33l.29-.28c.09-.08.16-.19.32-.21s.25-.35.51-.32c0,0,0,0,.06,0a2.52,2.52,0,0,1,.61-.48c.25-.1.39-.4.68-.51s.31-.33.54-.44a2.39,2.39,0,0,0,.53-.46c.29,0,.37-.27.56-.4s.09-.09.12-.08c.26,0,.29-.31.51-.33s.31-.2.42-.34.38-.15.52-.33.68-.4.9-.74c.27,0,.36-.3.58-.36s.37-.41.61-.47.28-.26.44-.3a.77.77,0,0,0,.44-.3c.12-.15.3-.19.45-.29s.29-.36.55-.43.34-.41.61-.47.3-.38.58-.35l.46-.46c.23,0,.33-.16.44-.29s.37-.18.51-.33.22-.31.42-.35.28-.24.42-.34a1.92,1.92,0,0,0,.44-.29c.14-.18.38-.15.52-.33a1,1,0,0,1,.49-.37c.21-.07.3-.38.54-.44s.3-.3.48-.39a1.77,1.77,0,0,0,.56-.4.61.61,0,0,1,.32-.2c.19,0,.25-.34.51-.32,0,0,0,0,.06-.05a1.9,1.9,0,0,1,.48-.4c.22-.08.31-.28.48-.39s.14-.06.2-.1.2-.17.31-.24a3.68,3.68,0,0,0,.33-.18c.15-.12.27-.26.4-.39.27,0,.33-.23.5-.35a.62.62,0,0,1,.27-.14c.2,0,.24-.36.51-.32,0,0,0,0,.06,0a2.54,2.54,0,0,1,.61-.48c.25-.1.38-.43.68-.49.28-.36.74-.49,1-.86.06-.08.16,0,.22-.06s.23-.26.43-.33.31-.27.48-.4.33-.13.45-.28a1,1,0,0,1,.43-.31c.18-.07.31-.29.46-.44.31.06.36-.4.66-.34.22-.18.37-.43.67-.53s.32-.33.54-.44.39-.38.62-.45.29-.4.58-.35l.53-.48c.27,0,.3-.39.59-.32.15-.15.28-.37.46-.44a1,1,0,0,0,.49-.36c.13-.19.38-.15.52-.33a1.07,1.07,0,0,1,.49-.36c.17-.07.31-.24.51-.33s.31-.33.54-.44a2.52,2.52,0,0,0,.53-.46c.29,0,.37-.27.56-.4s.09-.09.12-.09c.26,0,.29-.3.51-.33s.33-.25.48-.39.34-.1.46-.28a.7.7,0,0,1,.36-.29c.21-.05.26-.29.43-.32a.58.58,0,0,0,.33-.19,2.54,2.54,0,0,0,.34-.35c.1-.15.31-.08.39-.22s.3-.19.44-.29.3-.34.48-.4a.9.9,0,0,0,.42-.34c.14-.18.38-.15.52-.33a1.94,1.94,0,0,1,.44-.29c.15-.1.22-.3.42-.34s.27-.24.42-.34a2.09,2.09,0,0,0,.44-.29c.16-.19.45-.16.57-.39s.45-.25.62-.45a3,3,0,0,1,.44-.29c.13-.1.22-.24.35-.34s.3-.19.44-.29a2.59,2.59,0,0,0,.55-.41c.16-.19.42-.21.56-.39s.37-.18.51-.33.24-.37.5-.35a2.33,2.33,0,0,1,.53-.46c.21-.09.31-.28.48-.39a2,2,0,0,0,.56-.4c.06-.08.15-.18.24-.19s.27-.3.43-.32.33-.24.5-.36l.45-.29c.15-.1.22-.3.42-.34s.27-.24.42-.34a2.65,2.65,0,0,0,.44-.29c.12-.12.27-.14.39-.23s.25-.31.41-.38a.86.86,0,0,0,.44-.3c.12-.2.37-.19.5-.34s.31-.18.45-.28.3-.33.48-.4.31-.29.48-.4.14-.06.2-.1.2-.17.31-.24.23-.1.33-.18.27-.26.41-.39c.27,0,.33-.24.5-.35a.7.7,0,0,1,.27-.14c.2,0,.25-.36.51-.32,0,0,0,0,.06-.05s.29-.35.47-.41a.86.86,0,0,0,.42-.34c.14-.18.38-.15.52-.33a2.05,2.05,0,0,1,.44-.29c.15-.11.23-.31.42-.35s.31-.28.48-.39a.68.68,0,0,1,.2-.09c.21-.05.25-.36.51-.33,0,0,.08-.06.12-.09s.25-.33.41-.37a.74.74,0,0,0,.38-.26,1.53,1.53,0,0,1,.45-.29c.2-.1.31-.33.54-.44s.39-.38.62-.45.29-.4.58-.35a2.35,2.35,0,0,1,.53-.46c.21-.09.31-.28.48-.39a2,2,0,0,0,.56-.4c.06-.08.16-.18.24-.18.27,0,.3-.4.59-.33l.29-.28c.09-.08.16-.19.32-.21s.25-.35.51-.32c0,0,0,0,.06,0a2.86,2.86,0,0,1,.54-.45,2.48,2.48,0,0,0,.53-.46c.29,0,.37-.27.56-.4s.09-.09.12-.09c.26,0,.29-.3.51-.33s.31-.27.49-.38.14-.06.2-.1.2-.17.31-.24.23-.1.33-.18.27-.26.4-.39c.27,0,.33-.24.5-.35a.67.67,0,0,1,.27-.14c.2,0,.25-.36.51-.32,0,0,0,0,.06-.05s.29-.35.47-.41a.85.85,0,0,0,.42-.34c.14-.18.38-.15.52-.33s.32-.17.43-.3c.26-.31.67-.41.91-.73a.36.36,0,0,1,.2-.09c.21,0,.25-.36.51-.33,0,0,.08-.06.12-.09s.27-.41.56-.4c.18-.16.33-.39.54-.45s.29-.41.58-.35a2.32,2.32,0,0,1,.53-.46c.21-.09.31-.28.48-.39a2.08,2.08,0,0,0,.56-.4.47.47,0,0,1,.32-.21c.2,0,.24-.36.51-.32,0,0,0,0,.06-.05s.24-.33.4-.38a1,1,0,0,0,.49-.36c.12-.17.32-.15.46-.27a5.46,5.46,0,0,0,.84-.69c.31,0,.39-.37.62-.44s.41-.4.72-.42c.22-.34.65-.44.9-.74a.53.53,0,0,1,.32-.2c.19,0,.25-.34.51-.32,0,0,0,0,.06-.05s.29-.35.48-.41a.88.88,0,0,0,.42-.34c.14-.18.4-.14.52-.33s.37-.17.51-.34.18-.27.36-.29.3-.21.42-.34.31-.09.39-.22.34-.22.51-.34.3-.34.56-.41.28-.31.51-.33c.2-.29.55-.39.78-.63s.59-.34.8-.62a.43.43,0,0,1,.25-.17c.11,0,.2-.16.31-.23s.23-.11.33-.18.25-.35.48-.4.29-.22.42-.35.4-.14.5-.34.24-.08.33-.17.22-.23.34-.34a.54.54,0,0,1,.2-.09c.2-.06.25-.36.51-.33,0,0,.08-.06.12-.1s.26-.33.41-.36a.7.7,0,0,0,.43-.33c.13-.16.37-.12.45-.28s.36-.19.51-.33.25-.33.49-.38.25-.35.51-.31a2.5,2.5,0,0,1,.4-.39,1.37,1.37,0,0,0,.5-.35c.11-.17.3-.19.44-.29a6.17,6.17,0,0,1,.78-.64c.31-.16.5-.51.85-.68s.35-.33.52-.5l.46-.46c.17-.17.33-.35.52-.51s.25-.4.41-.56a5.14,5.14,0,0,0,.45-.79,1.39,1.39,0,0,0,.25-.95c0-.06.06-.13.09-.2A.77.77,0,0,0,193.76,55.26Z" fill="#fff"/><rect x="46.95" y="156.13" width="1.12" height="1.12" transform="matrix(0.81, -0.59, 0.59, 0.81, -82.81, 57.56)" fill="#fff"/><rect x="48.52" y="156.38" width="1.12" height="1.12" transform="translate(-82.66 58.53) rotate(-35.87)" fill="#fff"/><rect x="48.77" y="154.81" width="1.12" height="1.12" transform="translate(-81.69 58.38) rotate(-35.87)" fill="#fff"/><rect x="48.26" y="157.95" width="1.12" height="1.12" transform="translate(-83.62 58.68) rotate(-35.87)" fill="#fff"/><rect x="49.83" y="158.2" width="1.12" height="1.12" transform="translate(-83.47 59.64) rotate(-35.87)" fill="#fff"/><rect x="50.08" y="156.63" width="1.12" height="1.12" transform="translate(-82.51 59.49) rotate(-35.87)" fill="#fff"/><rect x="49.58" y="159.77" width="1.12" height="1.12" transform="translate(-84.44 59.79) rotate(-35.87)" fill="#fff"/><rect x="51.15" y="160.02" width="1.12" height="1.12" transform="translate(-84.29 60.76) rotate(-35.87)" fill="#fff"/><rect x="51.4" y="158.45" width="1.12" height="1.12" transform="translate(-83.32 60.61) rotate(-35.87)" fill="#fff"/><rect x="50.9" y="161.59" width="1.12" height="1.12" transform="translate(-85.26 60.91) rotate(-35.87)" fill="#fff"/><rect x="52.47" y="161.84" width="1.12" height="1.12" transform="translate(-85.11 61.88) rotate(-35.87)" fill="#fff"/><rect x="52.72" y="160.28" width="1.12" height="1.12" transform="translate(-84.14 61.73) rotate(-35.87)" fill="#fff"/><rect x="52.22" y="163.41" width="1.12" height="1.12" transform="translate(-86.08 62.03) rotate(-35.87)" fill="#fff"/><rect x="54.04" y="162.1" width="1.12" height="1.12" transform="translate(-84.96 62.85) rotate(-35.87)" fill="#fff"/></svg>