<svg id="Layer_1" data-name="Layer 1" xmlns="http://www.w3.org/2000/svg" viewBox="0 0 200 200"><title>Circuits</title><path d="M95.06,168.61c0-.39-.09-.55,0-.67,1.37-3.29,1.33-3.23-1.82-5.48Q70.1,145.94,47,129.35c-7.22-5.2-14.48-10.35-21.52-15.79-4.87-3.76-9-8.26-10-14.72-.86-5.26.68-10.12,2.69-14.84,3.3-7.74,6.79-15.4,10.15-23.11a84.79,84.79,0,0,0,5.81-20.26c1.37-8.32,2.71-16.65,4.15-25,.78-4.52,5.26-8.22,10.18-8.71a14.37,14.37,0,0,1,8.92,2c3.4,2,6.83,4,10.37,5.67,7.31,3.53,7.77,7.27,7.27,14.42-.62,8.8-1.12,17.63-1,26.44.05,4.72,1.44,9.43,2.28,14.14q3.16,17.58,6.39,35.14a99.68,99.68,0,0,0,2.68,12.45c2,6.06,6.83,9.85,11.78,13.43q30,21.68,60,43.37a76.83,76.83,0,0,1,6.49,5,9.82,9.82,0,0,1,3.14,10.3c-1.07,4.07-4.16,6.27-8,7.34-5.79,1.6-11.28.06-16.72-1.84-1.74-.61-3.19-1.73-5.43-1.45-1.37.18-3.09-1.65-4.52-2.76-2-1.54-3.76-3.4-5.82-4.85-7.82-5.53-15.71-10.95-23.57-16.41-.44-.3-.86-.63-1.3-.93C98.09,166.15,98.09,166.15,95.06,168.61ZM71.64,28.11h.07a24.48,24.48,0,0,1,0-2.74A6.09,6.09,0,0,0,68.54,19c-4.73-2.73-9.5-5.44-14.41-7.82-5.47-2.65-11.47.27-12.57,6.07-1.29,6.79-2.33,13.62-3.35,20.46a106.08,106.08,0,0,1-7.83,27.48c-3.44,7.77-7,15.52-10.15,23.39-1.61,4-2.69,8.42-.58,12.39a29.26,29.26,0,0,0,7.11,9c7.47,6,15.33,11.54,23.09,17.19S65.44,138.39,73.23,144c3.47,2.49,6.68,5.52,11.4,5.36a2.2,2.2,0,0,1,1.2.49c2.83,2,5.75,3.93,8.41,6.15s5.73,3.33,8.27,5.64c3.22,2.93,7.06,5.17,10.62,7.73q14.19,10.21,28.35,20.45A19.24,19.24,0,0,0,158,193.23c4.41-1.08,6.77-5.31,5.06-9a10.64,10.64,0,0,0-3.26-4c-12.77-9.29-25.65-18.44-38.45-27.69-10-7.25-20.09-14.5-30-21.94-3.52-2.64-6.83-5.79-8.33-10.07a85.64,85.64,0,0,1-3.13-12.07c-2.23-11.58-4.39-23.17-6.36-34.79-1.3-7.71-2.78-15.46-3.13-23.24C70.14,43,71.19,35.54,71.64,28.11Zm28.54,134.07c.84,2.61,31.21,23.72,34.25,23.82C128.87,180.89,101.74,162,100.18,162.18Zm-1.19,0,1.35-1.6a9.79,9.79,0,0,1-2.12-.86c-4.24-3-8.42-6.13-12.68-9.11a8.24,8.24,0,0,0-2.61-.72l-.24.75C88.09,154.49,93.3,158.67,99,162.15Z" fill="#fff"/></svg>