<svg id="Layer_1" data-name="Layer 1" xmlns="http://www.w3.org/2000/svg" viewBox="0 0 200 200"><title>Circuits</title><path d="M190.68,68.77c-3.62-2.64-7.48-5-10.9-7.83-5.11-4.28-10.54-4.28-16.24-1.87-5.38,2.27-10.7,4.72-16,7.28-6.43,3.14-12.89,6.18-19.88,7.89-12.56,3.07-25.08,6.35-37.69,9.16A46.2,46.2,0,0,1,77.84,84c-5.11-.25-10.19-1.08-15.28-1.7a7.55,7.55,0,0,0-8,3.67c-2.12,3.4-2.76,6.88-.74,10.49s4.84,5.44,9,4.84c3-.44,6-1,9-1.72,12.37-2.93,24.71-6,37.08-8.89,4.58-1.08,9.08-2.75,14-2.06,10.57,1.51,16.75,10.89,13.36,21.34-2.09,6.46-6.61,11.12-11.79,15.14-4.92,3.82-10.08,7.35-15.13,11q-11.84,8.55-23.69,17.08c-6.55,4.69-13.25,9.17-19.66,14a22.93,22.93,0,0,1-19.13,4.23c-8-1.57-13.27-6.77-16.21-14.07C23.88,140.86,34,126.29,50.31,123.5c4.73-.81,9.54-1.12,14.31-1.69q15.66-1.88,31.32-3.8a15.65,15.65,0,0,0,9.84-4.65,8.42,8.42,0,0,0,1.66-9.71c-1.71-3.38-5.11-5.42-8.36-4.83-8.43,1.53-16.83,3.2-25.26,4.69-5.47,1-10.92,2.36-16.58,1.35-6-1.08-10.73-4.8-11.37-9.71a29.9,29.9,0,0,1,0-8.88c1.38-7.83,5.45-14.53,9.75-21a8.75,8.75,0,0,1,3.21-2.74C61.81,61,64,62,65.12,65.1A59.2,59.2,0,0,0,68,72.32a7.94,7.94,0,0,0,9.34,3.84c3.32-.89,5.52-4,5.41-7.89-.07-2.53-.37-5-.65-7.56C81.65,56.37,81,52,83,47.86c1-2.23,2.08-4.47,3.16-6.69.76-1.56,1.8-2.82,3.77-2.33s2.48,2.06,2.47,3.91c0,2.79,0,5.58,0,8.37h.35c0,.78,0,1.56,0,2.34.21,7.46,3.55,13,10.11,16.58,4,2.17,8.37,2.23,12.7,1,3.82-1.07,7.59-2.29,11.37-3.47,5.76-1.81,11.64-3.33,17.24-5.56,7.3-2.91,10.22-10.42,7.43-17.75-2-5.35-6.28-8.29-11.55-9.51-12.21-2.82-24.44-5.59-36.76-7.85-6.2-1.14-12.52-.42-18,3.21-3,2-5.85,4.32-8.73,6.54C69.41,42.11,62.42,47.72,55.19,53A45.31,45.31,0,0,0,40.81,70.11C38.33,75.25,36,80.46,33.7,85.69s-4.83,10.23-7.13,15.41C21.23,113.16,15.49,125,10.38,137.19c-3.88,9.25-2.52,18.15,4.55,25.48,5.63,5.83,11.67,11.28,17.81,16.58,9.92,8.56,23.4,7.83,33.9.41,3.71-2.62,7.33-5.37,11-8,4.88-3.55,9.79-7.06,14.67-10.61,6.56-4.77,13.1-9.57,19.66-14.34,4.72-3.44,9.47-6.84,14.2-10.27q8.19-6,16.36-11.93c4.57-3.32,9.15-6.62,13.71-9.94q12.21-8.88,24.39-17.79c3.71-2.72,7.56-5.32,11-8.35C198.36,82.5,197.85,74,190.68,68.77Zm.66,16.61a36.61,36.61,0,0,1-5.44,4.69c-12.18,8.87-24.41,17.66-36.61,26.5q-15.14,11-30.26,22-16.93,12.32-33.85,24.65c-7.46,5.42-14.82,11-22.44,16.14-9,6.13-21.78,4.73-29.7-2.8-4.89-4.66-9.88-9.2-14.82-13.8-4.08-3.8-7-8.36-7.39-14a22.46,22.46,0,0,1,.53-7.82h-.08l.33-.73a11.39,11.39,0,0,1,.67-1.49l1.7-3.8a3,3,0,0,1,.41-1.08q3-6.64,6-13.26l1.71-3.75L32.39,93.67l.11.2q1.93-4.26,3.9-8.5c2.6-5.59,5.09-11.24,7.9-16.72A34,34,0,0,1,47,64.41l-.05,0c.17-.23.39-.49.63-.76l.1-.14c.58-.67,1.33-1.44,2.18-2.26h0c1-1,2.09-2,3.17-2.94,2.81-2.47,5.45-4.6,5.45-4.6l-.55.34.54-.45v.11c1.23-1.05,2.48-2.08,3.75-3.08,7.36-5.76,14.86-11.36,22.25-17.09,6-4.62,12.79-5.44,19.8-4.12C115.56,31.5,126.77,34,138,36.58a23.81,23.81,0,0,1,7.1,3.06c6.51,4.05,7.83,15.77-.92,19.72-4.89,2.21-10.13,3.66-15.26,5.3-4.45,1.43-9,2.58-13.46,4-8.68,2.71-15.45-1.32-19.14-8.76-1-2.11-1.1-4.78-1.29-7.22-.27-3.56-.26-7.13-.36-10.7-.09-3-1.21-4.5-4.14-5.38a4.54,4.54,0,0,0-5.63,2.33c-2.79,4.77-5.54,9.65-5.58,15.38,0,3.1.62,6.19.8,9.3a34.86,34.86,0,0,1-.08,7.1,4.19,4.19,0,0,1-3.63,3.37C74.12,74.46,72,74,70.69,72a34.77,34.77,0,0,1-2.43-5.06c-.5-1.13-.79-2.35-1.33-3.45C64.86,59.22,60,58,56.58,61.21a37.61,37.61,0,0,0-5.91,7.61A50.91,50.91,0,0,0,43.74,85a23.17,23.17,0,0,0,.18,11.57c1.44,5,4.83,8,9.6,9.65a26,26,0,0,0,12.9.88c9.34-1.61,18.64-3.42,28-5.15,1.28-.24,2.54-.58,3.82-.79a6.94,6.94,0,0,1,7.66,4c.93,2.26-.32,6.19-3,7.6a26.25,26.25,0,0,1-8.52,3c-13.65,1.78-27.34,3.19-41,4.83-7.38.88-14.21,3.24-19.62,8.59A23.78,23.78,0,0,0,26.36,145a27.92,27.92,0,0,0,1.77,12.82c4.62,11,13.9,17.66,26.57,16.37,5.49-.56,10-3,14.27-6.17,5.06-3.75,10.19-7.39,15.31-11.06l25.49-18.27c4.75-3.4,9.55-6.74,14.22-10.24,5.72-4.28,10.91-9.12,13.73-15.87,3-7.1,2.36-14.07-2.67-20S123.3,85,115.92,86.73c-17,3.94-33.88,8.12-50.82,12.15-6.42,1.53-9.73-1.95-10.07-7-.3-4.59,3.7-7.76,8.22-7.21,6.75.83,13.55,1.84,20.32,1.84,4.64,0,9.31-1.47,13.9-2.54,10.8-2.52,21.65-4.89,32.31-7.91,5.95-1.69,11.6-4.47,17.31-6.94,5.54-2.4,11-5.1,16.49-7.52a24.9,24.9,0,0,1,6.14-1.78c3-.46,5.62.75,8.06,2.64,4,3.09,8.29,5.82,12.32,8.88A9.34,9.34,0,0,1,191.34,85.38Z" fill="#fff"/></svg>