<svg id="Layer_1" data-name="Layer 1" xmlns="http://www.w3.org/2000/svg" viewBox="0 0 200 200"><title>Circuits</title><path d="M196.1,36.15a62.74,62.74,0,0,0-4.88-5.77h0a19.27,19.27,0,0,0-1.35-2.45c-3.22-4.28-3.35-4.28-7.61-1.18Q165.4,39,148.54,51.16c-10.86,7.85-21.68,15.75-32.6,23.51-6.49,4.62-11.54,3.91-16.78-2-.38-.43-.77-.84-1.16-1.25-.9-3.14-2.54-6.27-2.56-9.42,0-5.75,4-8.78,9-10.88Q134.76,38.36,165,25.4c6-2.56,7.37-7.08,4.43-12.73-2.5-3.81-6.28-4.8-12.15-3.19-23.34,6.4-46.7,12.69-70,19.23C56.15,37.43,35.51,57,26.81,88.36c-5.53,19.93-10.43,40-15.55,60.07a13.89,13.89,0,0,0,.08,3.2l-3.93,11.5c-1.07,4-2.1,8-3.07,12A9.6,9.6,0,0,0,8.71,186c3.46,2,7.15,1.45,10.69-1.65,1.86-1.63,3.62-3.37,5.47-5,6.66-5.85,12.31-13,20.26-16.4a7.82,7.82,0,0,1,2.52.08,23.08,23.08,0,0,1,5,6.52c3.11,6.91,8.65,10.17,15.78,11,6,.72,12.39-4.09,13.49-10,2.73-14.65,5.63-29.27,8-44a27.45,27.45,0,0,1,11.72-19c23.19-16.76,46.2-33.77,69.28-50.68q11.73-8.6,23.47-17.19C195.6,38.89,197.26,37.88,196.1,36.15Zm-168.37,66,.55.06a22.67,22.67,0,0,1-.3,4.42c-3.77,14.22-7.63,28.42-11.47,42.62A2.58,2.58,0,0,1,15.12,151ZM187.92,39Q143,72,98.05,105c-2.67,2-4.72,4.79-7.06,7.21h0l-.46.5h0l0,.05-.27.3h0c-3,3.38-3.58,7.72-4.37,11.92-2.75,14.74-5.43,29.51-8.13,44.26a8.71,8.71,0,0,1-10.82,6.66c-4.65-1.1-8.42-3.47-10.17-8.25a16.42,16.42,0,0,0-1.24-2.56c-3.84-6.61-9.79-8.32-16.12-4C35,164,31.1,167.69,27.1,171.2c-3.64,3.2-7,6.68-10.71,9.84a10.54,10.54,0,0,1-4.61,1.89c-1.73-1-1.94-1.38-1.94-1.38-2-2-1.42-4.81-.62-7.87.63-2.4,1.2-4.8,2-7.13l3.92-12.22s2.82.29,4-4.16c.07-.39.15-.77.25-1.15,3.53-13.11,7-26.24,10.72-39.28,1.13-3.92.72-7.65.41-11.52a23.78,23.78,0,0,1,.29-7.57c4-15.92,11.81-29.69,24.36-40.32A84.3,84.3,0,0,1,88.9,32.7c23.34-6,46.54-12.63,69.78-19.07,2.9-.8,5.41-.82,7.51,1.61.29,4.58.26,4.78-4.06,6.62-19.75,8.41-39.5,16.84-59.31,25.1-10.63,4.43-14.81,14-10,24a17.9,17.9,0,0,0,2.61,3.25c2.15,5.26,9.77,9.09,15.66,7.43a26.57,26.57,0,0,0,8.12-3.89q31.95-22.88,63.73-46c.83-.6,1.68-1.19,2.67-1.89l2.93,3.23,1.37-1.36-1.37,1.36L191,36.74C189.86,37.57,188.9,38.32,187.92,39Z" fill="#fff"/><rect x="3.7" y="155.07" width="1.5" height="1.5" transform="translate(-145.52 113.31) rotate(-72.54)" fill="#fff"/><rect x="5.58" y="154.09" width="1.5" height="1.5" transform="translate(-143.27 114.42) rotate(-72.54)" fill="#fff"/><rect x="4.6" y="152.21" width="1.5" height="1.5" transform="translate(-142.17 112.17) rotate(-72.54)" fill="#fff"/><rect x="6.56" y="155.96" width="1.5" height="1.5" transform="translate(-144.38 116.66) rotate(-72.54)" fill="#fff"/><rect x="8.43" y="154.98" width="1.5" height="1.5" transform="translate(-142.13 117.77) rotate(-72.54)" fill="#fff"/><rect x="9.86" y="155.43" width="1.5" height="1.5" transform="translate(-141.56 119.44) rotate(-72.54)" fill="#fff"/><rect x="12.72" y="156.33" width="1.5" height="1.5" transform="translate(-140.42 122.8) rotate(-72.54)" fill="#fff"/><rect x="11.74" y="154.45" width="1.5" height="1.5" transform="translate(47.14 3.4) rotate(17.46)" fill="#fff"/><rect x="10.84" y="157.31" width="1.5" height="1.5" transform="matrix(0.95, 0.3, -0.3, 0.95, 47.95, 3.8)" fill="#fff"/><rect x="7.45" y="153.11" width="1.5" height="1.5" transform="translate(-141.03 115.52) rotate(-72.54)" fill="#fff"/><rect x="9.41" y="156.86" width="1.5" height="1.5" transform="translate(-143.24 120.02) rotate(-72.54)" fill="#fff"/><rect x="11.29" y="155.88" width="1.5" height="1.5" transform="translate(-140.99 121.12) rotate(-72.54)" fill="#fff"/><rect x="10.31" y="154.01" width="1.5" height="1.5" transform="translate(-139.88 118.87) rotate(-72.54)" fill="#fff"/><rect x="12.27" y="157.76" width="1.5" height="1.5" transform="translate(-142.1 123.37) rotate(-72.54)" fill="#fff"/><rect x="14.14" y="156.78" width="1.5" height="1.5" transform="translate(-139.85 124.47) rotate(-72.54)" fill="#fff"/><rect x="13.17" y="154.9" width="1.5" height="1.5" transform="translate(-138.74 122.23) rotate(-72.54)" fill="#fff"/><rect x="15.12" y="158.66" width="1.5" height="1.5" transform="translate(-140.95 126.72) rotate(-72.54)" fill="#fff"/><rect x="17" y="157.68" width="1.5" height="1.5" transform="translate(-138.71 127.83) rotate(-72.54)" fill="#fff"/><rect x="16.02" y="155.8" width="1.5" height="1.5" transform="translate(-137.6 125.58) rotate(-72.54)" fill="#fff"/><rect x="17.98" y="159.56" width="1.5" height="1.5" transform="translate(-139.81 130.08) rotate(-72.54)" fill="#fff"/><rect x="18.88" y="156.7" width="1.5" height="1.5" transform="translate(-136.46 128.93) rotate(-72.54)" fill="#fff"/></svg>