<svg id="Layer_1" data-name="Layer 1" xmlns="http://www.w3.org/2000/svg" viewBox="0 0 200 200"><title>Circuits</title><path d="M186.88,120.8c-1.64-5.7-3.27-11.4-5-17.07-2.07-6.7-5.64-9.14-12.66-8.94q-13.4.38-26.81.68c-10,.22-20,.32-30,.61-7.3.21-14,2.23-19.17,7.7-1.68,1.76-3.25,3.63-4.79,5.52a9.59,9.59,0,0,1-15.71-1.46c-1.52-2.59-3-5.19-4.51-7.81-1.91-3.4-4-6.73-5.58-10.28a9.39,9.39,0,0,1,1.28-10.32A9.5,9.5,0,0,1,73.51,76c5.2.88,10.42,1.7,15.63,2.56s10.27,1.68,15.48.55a27.87,27.87,0,0,0,19.45-14.55c2.36-4.37,0-8.35-4.86-8.62-2.68-.15-5.36-.26-8-.38-5.76-.25-11.59,0-17.27-.83-11.73-1.67-23.42-3.69-35.06-5.93C44.62,46.08,30.39,44.68,16,47.23a6.61,6.61,0,0,0-4,2.49c-1,1.59.52,3,1.69,4.13,3.92,3.9,7.68,8,11.77,11.68C36.05,75.15,43,87.1,48.37,100.2a153.9,153.9,0,0,0,15.14,28.05c6.28,9.27,14.09,17.49,19,27.71,1.09,2.28,3.05,2.51,5.41,1.86,14-3.91,28-7.73,42.07-11.57L145,142.13c.31,1,.34,1.72.74,2.14a8.28,8.28,0,0,0,2,1.2c.27-.64.91-1.39.75-1.9-.63-2,.37-2.56,2-3,6.52-1.73,13-3.56,19.52-5.33a43.54,43.54,0,0,0,14.35-7.07C187.33,126,187.9,124.34,186.88,120.8ZM167.55,132c-5.95,2.13-12.18,3.48-18.27,5.23-1.51.43-2.42.26-3-1.4-.19-.55-1.26-.79-1.93-1.17-.24.66-.82,1.44-.65,2,.63,1.83-.36,2.23-1.79,2.62q-26.09,7.13-52.16,14.35c-2,.56-3.7.74-5.16-1.27-7.68-10.59-15.47-21.09-23.12-31.7a23.44,23.44,0,0,1-2.19-3.82h0l-4.48-9.34.06-.05c-5.12-10.2-9.51-20.89-16-30.09-6.89-9.78-16.2-17.85-24.75-27a25.42,25.42,0,0,1,3.17-.88C30.6,47.53,43.8,48.48,57,51c12.59,2.39,25.24,4.62,37.94,6.32,7,.93,14.1.63,21.17.88.89,0,1.79,0,2.68.07,3.44.29,4.69,2.36,3,5.34-4.4,7.81-11,12.95-20,13.24-6.73.22-13.52-1.25-20.28-2-2.66-.31-5.29-.87-7.94-1.25a11.88,11.88,0,0,0-12.11,5.09c-2.86,4-2.95,8.38-.84,12.7,1.71,3.5,3.75,6.84,5.63,10.25l4.94,8.24,0,.09c.15.22.31.44.47.65a11.82,11.82,0,0,0,17.8,1.28,60.66,60.66,0,0,0,4.33-4.95c4.65-5.53,10.73-8,17.8-8.22q24.12-.62,48.25-1.06c4.37-.09,8.76-.12,13.13,0a6,6,0,0,1,5.66,4.35c1.88,6,3.47,12.13,5.18,18.2l-.64.18c.16,2.21-.54,4.15-2.51,5.19C176.32,127.85,172.09,130.36,167.55,132Zm14.12-5.11,2.92-4.5C185.21,124.43,184.75,125.21,181.68,126.88Z" fill="#fff"/></svg>