<svg id="Layer_1" data-name="Layer 1" xmlns="http://www.w3.org/2000/svg" viewBox="0 0 200 200"><title>Circuits</title><path d="M193.6,20.82c-4.28-1.56-8.43-.3-12.65.2-3.64.43-6.64,1.35-6.58,6l-.85-.36c.2-1.3.41-2.6.59-3.9.44-3.12-.69-5.73-3.09-7-2.6-1.38-4.9-.69-7,1.1-3.06,2.57-6.2,5.06-9.21,7.69-5.7,5-11.52,9.83-16.94,15.09s-8,10.55-2.1,17.89c3.89,4.85,5.32,10.46,2.19,16.29s-8.41,8.76-15,8.87c-3.9.06-7.81-.34-11.71-.57a47.38,47.38,0,0,0-17.45,1.71,35.44,35.44,0,0,1-14,1.69,100.53,100.53,0,0,0-17.1-.32c-9.82.82-19.58,1.46-29.4.12-5.58-.76-9.77,1.24-13,6-4.83,7.21-8.71,14.71-9.8,23.46C9.37,124,8.06,133.19,6.89,142.37c-.19,1.51.57,3.54-.18,4.48s-2.83.82-4.33,1.18c-.05,0-.07.16-.18.44a6.31,6.31,0,0,0,1.81.22c2.67-.48,3,1.21,3.14,3.19.74,7.75,1.26,15.54,2.39,23.24.86,5.86,2.85,11.52,6.85,16.09.89,1,3.05,1.94,4.13,1.55,1.95-.72,1.94-2.84,1.2-4.72-1.16-3-2.88-5.8-3.41-8.86-1.37-7.93-2.5-15.93-3.23-24a103.16,103.16,0,0,1,2.32-33.87c1.37-5.65,2.36-11.4,4-17s4.44-10.18,11.15-10.23c4.53,0,9.07.09,13.58.38,11.26.71,22.51,1.77,33.78,2.25,4.52.19,9.37,2.21,13.68-1.2.45-.36,1.43-.14,2.15-.06,12,1.34,24,1.35,35.74-1.66,8.28-2.12,16.52-4.35,24.76-6.62,0,0,13.11-4.62,20.61-14.75,5.34-7.72,10.89-15.3,13.14-24.72,1.81-7.61,4-15.13,6.1-22.68C196.72,22.75,195.76,21.6,193.6,20.82ZM15.32,177.14c.51,3.33,2.28,6.47,3.45,9.7.38,1,.7,2.12,1,3.18l-.86.54c-1-1.18-2.31-2.21-2.83-3.56-1.68-4.39-3.67-8.8-4.43-13.38-1.33-8-1.83-16.11-2.7-24.44,2.64-.22,3.28.48,3.46,2.53C13.23,160.21,14,168.71,15.32,177.14ZM193.6,25.64c-1.05,3.76-1.91,7.58-3,11.31-2.32,7.62-3.43,15.68-8,22.52C180,63.34,177.43,67.24,175,71.2c0,0-8.87,11.12-19.32,13.82-5.54,1.39-11.08,2.79-16.54,4.45a98.92,98.92,0,0,1-40.16,4,31.75,31.75,0,0,0-7,.19C90,93.9,88,94.88,86,94.89c-3.43,0-6.86-.46-10.29-.69-13.51-.91-27-1.9-40.54-2.67-8.06-.46-13,2.55-15.33,10.4a291.8,291.8,0,0,0-6.5,28.67c-1,5.24-.81,10.69-1.19,16,0,.36-.35.69-.77,1.47l-.69-2L10,147.5a3.36,3.36,0,0,1-.75-2.36q.46-5.52,1-11c.47-4.59.88-9.2,1.52-13.77,1.31-9.38,4-18.18,9.39-26.23,3.47-5.2,7.52-6.72,13.57-6.29A216.33,216.33,0,0,0,59,87.74c6.79-.29,13.49-1.34,20.35-.11a23.39,23.39,0,0,0,10.23-.44,74.52,74.52,0,0,1,28.64-2.3c5.17.54,10.25.21,15-2.67,5.35-3.24,8.91-9.25,8.5-15.4a20.83,20.83,0,0,0-4.43-11.23c-1.8-2.43-3.74-5-2.11-8.16a22.6,22.6,0,0,1,3.9-5.52C141.9,39,145,36.42,148,33.79c5.7-5,11.46-9.84,17.2-14.76,1.44-1.24,2.94-2.34,4.88-1s2.11,3.3,1.52,5.36a9.63,9.63,0,0,0,.9,7.11c1,2.08,1.29,4.5,2.34,6.54a10.57,10.57,0,0,0,3.52,3.78c.55.36,2.27-.36,3-1.07,1.45-1.47.78-3.21-.1-4.8-.13-.24-.3-.46-.43-.7a45.35,45.35,0,0,1-3.3-6.24c-.4-1.12,0-3.68.47-3.78,4.67-1,9.33-2.69,14.22-1.27C193.57,23.35,194,24.2,193.6,25.64Z" fill="#fff"/></svg>