<svg id="Layer_1" data-name="Layer 1" xmlns="http://www.w3.org/2000/svg" viewBox="0 0 200 200"><title>Circuits</title><path d="M71.18,34.61c1.14.9,2.12,1.7,3.14,2.47A183.77,183.77,0,0,1,90.94,51.93q7.17,6.91,14.31,13.84,9,8.74,17.93,17.52c4.75,4.69,9.52,9.37,14.13,14.19,2.93,3.06,5.6,6.36,8.37,9.56.36.41.7.85,1,1.28l2.33,2.88c1.36,1.72,2.76,3.42,4,5.21,3,4.26,6.09,8.51,9,12.85,4.66,6.88,9.24,13.81,13.82,20.74,1.81,2.73,3.54,5.51,5.31,8.27q.26.4.49.82a2.47,2.47,0,0,1-.26,3.3c-.9,1.07-1.87,2.08-2.82,3.11l-5.47,5.88h0l-.09.09-.54.58-1.26,1.35-.37.38-2,2.11c-.13.16-.27.33-.41.47l-1.63,1.69-.14.15h0q-6.71,7-13.44,14a6.66,6.66,0,0,1-9.37.19c-7.45-6.78-14.69-13.78-21.89-20.83-1.08-1.06-2.18-2.11-3.27-3.17l-.12-.14-6.82-6.68h0L101,150.92l-4.37-4.28c-.19-.19-.36-.4-.55-.63l-1.64,1.64.27-.22c.25.23.46.41.66.6q12.74,12.45,25.47,24.9c7.17,7,14.4,14,21.79,20.77a8.9,8.9,0,0,0,7.66,2.22,7.69,7.69,0,0,0,4.52-2.52c4.09-4.28,8.22-8.52,12.29-12.81s8.38-8.92,12.55-13.39c1.15-1.23,2.28-2.46,3.37-3.74a4.18,4.18,0,0,0,.52-5c-.13-.25-.27-.49-.43-.72-5-7.74-10-15.49-15.12-23.2-2.81-4.27-5.73-8.47-8.59-12.71,0,0,0,.06,0,0l-1.13-1.55c-.49-.67-.94-1.37-1.45-2-2.81-3.64-5.55-7.33-8.46-10.88-3.06-3.74-6.13-7.5-9.49-11-6.78-7-13.7-13.88-20.67-20.7Q103.76,61.56,89.15,47.6c-3-2.88-6-5.8-9.21-8.41-8.14-6.58-16.42-13-24.64-19.47l-2.86-2.19C48.85,14.79,45.28,12,41.69,9.28,40.16,8.12,38.6,7,37,6A12.25,12.25,0,0,0,29,4a34.64,34.64,0,0,0-4.57.92,7.43,7.43,0,0,0-3,1.47,14.94,14.94,0,0,0-3.59,4,15,15,0,0,0-1.79,5.42A12.77,12.77,0,0,0,18.5,26c.39.51.73,1,1.08,1.58a32.33,32.33,0,0,0,4,5.67c1.17,1.15,2.35,2.28,3.53,3.42L48.71,57.48c.43.42.89.8,1.34,1.2,1.41,1.24,2.84,2.46,4.22,3.73a6.56,6.56,0,0,1,1.79,2.8,3.6,3.6,0,0,1-1.59,4.54,18.87,18.87,0,0,1-5,1.89q-4.2,1-8.41,1.86c-1.79.38-3.59.8-5.41,1a3.07,3.07,0,0,0-2.71,1.65,9.48,9.48,0,0,0-.69,1.64,89.45,89.45,0,0,0-2.33,10.63c-.23,1.5-.64,3-.72,4.49A18.86,18.86,0,0,0,31,102c2.72,5.85,7.58,9.1,13.48,11.08a3.12,3.12,0,0,0,.59.12,27.4,27.4,0,0,0,5.61.08c4.18-.31,7.61-2.27,10.83-4.68A17.46,17.46,0,0,0,66.15,103c3.11-5.54,6.19-11.09,9.38-16.59a32.28,32.28,0,0,1,3.38-4.64,8.56,8.56,0,0,1,12.51-.53q8.19,7.83,16.35,15.7,7.17,6.91,14.29,13.86,15.89,15.49,31.77,31a13.29,13.29,0,0,1,4.33,8.7c.21,2.68,0,5.25-1.68,7.54-3.26,4.5-7.72,5.86-13,4.87a12,12,0,0,1-7.08-4.44c-4.39-5.39-8.71-10.84-13-16.3-6.88-8.72-13.71-17.49-20.6-26.2a20.42,20.42,0,0,0-3.14-3.27,14.78,14.78,0,0,0-9.45-3.2,12.43,12.43,0,0,0-7,2,16.8,16.8,0,0,0-5.47,6.39,10.68,10.68,0,0,0-1,8.09,14.48,14.48,0,0,0,3.89,7.15c3.77,3.64,7.39,7.42,11.07,11.15.21.21.4.44.55.61l1.43-1.43a.92.92,0,0,1-.46-.32c-2-2-4-4-6-6-1.83-1.85-3.6-3.75-5.47-5.55a12.65,12.65,0,0,1-3.35-6.88,8.47,8.47,0,0,1,1-5.88,14.46,14.46,0,0,1,4.91-5.77,10.49,10.49,0,0,1,7.07-1.67,14.86,14.86,0,0,1,5.16,1.42,12.75,12.75,0,0,1,4.3,3.58q8,10.13,15.94,20.26c6.09,7.71,12.16,15.46,18.35,23.09a13.65,13.65,0,0,0,9,5.19c6.35.78,11.32-1.35,14.78-7.3a8.57,8.57,0,0,0,1-3.05c.75-5.34-.53-10.05-4.5-13.89-3.45-3.33-6.87-6.7-10.3-10.05l-21.29-20.77c-5.07-4.94-10.12-9.9-15.21-14.81s-10.46-10-15.71-15a10.94,10.94,0,0,0-5.88-3,9.65,9.65,0,0,0-4.14.3,11.57,11.57,0,0,0-6.1,4,56.25,56.25,0,0,0-5.08,8q-3.5,6.21-7,12.45A17.42,17.42,0,0,1,57.42,109a17.55,17.55,0,0,1-4.95,2.06,21.34,21.34,0,0,1-7.39.17,3,3,0,0,1-.58-.13,22.72,22.72,0,0,1-8.62-5.25,17.77,17.77,0,0,1-4.61-9.29c-.72-3.9.37-7.44,1.9-10.91a18.1,18.1,0,0,1,3.19-5A15.37,15.37,0,0,1,42,76.95c3.37-1.38,6.89-2.3,10.36-3.36a20.59,20.59,0,0,0,4.53-1.85,5.07,5.07,0,0,0,2.54-5.15,9.24,9.24,0,0,0-2.92-6.25c-4.77-4.62-9.5-9.27-14.27-13.88Q32.49,37,22.65,27.58c-.61-.58-1.18-1.19-1.79-1.77A9.72,9.72,0,0,1,17.74,19c-.15-4.34,1.12-8.21,4.72-11a5.1,5.1,0,0,1,1.21-.76C26.89,6,30.18,5.34,33.61,6.4a13.82,13.82,0,0,1,4.18,2.3Q43.43,13,49,17.28q7.73,6,15.42,12c1.22,1,2.28,1.88,3.64,2.92ZM46,73.58C44,74.26,42,75,40.13,75.76a15.26,15.26,0,0,0-7.58,7,29.72,29.72,0,0,1-1.5,2.62c.18-.91.32-1.83.54-2.73.38-1.59.8-3.17,1.21-4.75a4.23,4.23,0,0,1,.31-.9,3,3,0,0,1,2.26-1.88c3.22-.54,6.41-1.23,9.61-1.89,1.56-.32,3.11-.7,4.66-1a2.18,2.18,0,0,1,.46,0l0,.11C48.73,72.73,47.32,73.1,46,73.58ZM21.6,29.23c.8.74,1.61,1.48,2.39,2.24L49.6,56.19c1.87,1.8,3.7,3.65,5.59,5.43a7.61,7.61,0,0,1,2.4,4.7c.24,1.84-.21,3.06-1.82,3.92a7,7,0,0,1-3,1l2-1A4.16,4.16,0,0,0,56.64,65a7.69,7.69,0,0,0-1.69-2.73c-1.13-1.07-2.3-2.1-3.44-3.16S49.13,57,48,55.86Q37.72,46,27.49,36.19a39.56,39.56,0,0,1-4.91-5.08c-.41-.56-.78-1.16-1.17-1.74Z" fill="#fff"/><path d="M91.18,150.91l0,0Z" fill="#fff"/><rect x="91.34" y="148.82" width="1.16" height="1.16" transform="translate(52.9 320.42) rotate(-135.54)" fill="#fff"/><rect x="91.33" y="147.18" width="1.16" height="1.16" transform="translate(54.02 317.6) rotate(-135.54)" fill="#fff"/><rect x="89.69" y="147.2" width="1.16" height="1.16" transform="translate(51.19 316.48) rotate(-135.54)" fill="#fff"/><rect x="92.97" y="147.17" width="1.16" height="1.16" transform="translate(56.84 318.72) rotate(-135.54)" fill="#fff"/><rect x="92.95" y="145.52" width="1.16" height="1.16" transform="translate(57.97 315.9) rotate(-135.54)" fill="#fff"/><rect x="91.31" y="145.54" width="1.16" height="1.16" transform="translate(55.14 314.77) rotate(-135.54)" fill="#fff"/><rect x="94.6" y="145.51" width="1.16" height="1.16" transform="translate(60.79 317.02) rotate(-135.54)" fill="#fff"/><rect x="94.58" y="143.87" width="1.16" height="1.16" transform="translate(61.92 314.2) rotate(-135.54)" fill="#fff"/><rect x="92.94" y="143.88" width="1.16" height="1.16" transform="translate(59.09 313.07) rotate(-135.54)" fill="#fff"/><rect x="96.22" y="143.85" width="1.16" height="1.16" transform="translate(64.74 315.32) rotate(-135.54)" fill="#fff"/><rect x="96.21" y="142.21" width="1.16" height="1.16" transform="translate(65.87 312.49) rotate(-135.54)" fill="#fff"/><rect x="94.57" y="142.22" width="1.16" height="1.16" transform="translate(63.04 311.37) rotate(-135.54)" fill="#fff"/><rect x="97.85" y="142.19" width="1.16" height="1.16" transform="translate(68.69 313.62) rotate(-135.54)" fill="#fff"/><rect x="96.19" y="140.57" width="1.16" height="1.16" transform="translate(66.99 309.67) rotate(-135.54)" fill="#fff"/></svg>