<svg id="Layer_1" data-name="Layer 1" xmlns="http://www.w3.org/2000/svg" viewBox="0 0 200 200"><title>Circuits</title><path d="M194.25,187.42a10.77,10.77,0,0,0,2.9-6.23,11.46,11.46,0,0,0-2.89-8.81c-1.13-1.39-2.2-2.81-3.3-4.22l-3.47-4.44-3.29-4.22-5.13-6.57-3.29-4.23-5.17-6.61-3.26-4.18-3.47-4.44-3.29-4.22-5.13-6.57-3.29-4.23L147,111.81l-3.26-4.18L138.57,101l-3.29-4.23-3.4-4.35c-1.12-1.44-2.24-2.88-3.37-4.31-1.54-2-3.09-3.9-4.63-5.85-.45-.57-.87-1.16-1.3-1.73l-2.09,1.58c.81,1,1.57,1.85,2.32,2.74.33.4.62.82.94,1.22l4,5,3.4,4.35,3.33,4.27,3.36,4.31,3.4,4.35,5.06,6.49,3.36,4.31,3.4,4.35,3.36,4.31,3.4,4.35,3.33,4.27,3.43,4.4,3.33,4.27,3.36,4.31,3.4,4.35,3.36,4.31,3.4,4.35,3.36,4.31,3.4,4.35c1,1.29,2,2.56,3,3.89a8.57,8.57,0,0,1-.73,10.91,9,9,0,0,1-4.49,2.51c-4.66,1.15-9.33,2.31-14,3.43-2.57.62-5.13,1.31-7.73,1.74a25.52,25.52,0,0,1-13-1.36,26.29,26.29,0,0,1-9.09-5.57,28.48,28.48,0,0,1-7.24-11.12c-2-5.37-4-10.71-6.09-16.06-1-2.62-1.94-5.27-3.1-7.82a29.49,29.49,0,0,0-2.77-4.6,27.75,27.75,0,0,0-10.68-8.72c-5-2.49-9.87-5.06-14.8-7.6l-16.56-8.52c-4.46-2.3-9-4.49-13.34-6.93a17.16,17.16,0,0,1-4.87-26c.9-1.09,2-2,3-3q2.54-2.52,5.11-5c1-.95,2-1.87,2.95-2.82,1.69-1.66,3.37-3.33,5.06-5q1.5-1.47,3-2.9a8.54,8.54,0,0,0,2.89-8.39A8.32,8.32,0,0,0,82,56.26L70.54,50.43,56,43a22.07,22.07,0,0,0-5-2.19,12.75,12.75,0,0,0-10.1,1.66c-.76.49-1.47,1-2.18,1.59a13.25,13.25,0,0,1-8.79,2.78A13.56,13.56,0,0,1,21,43.2a16.07,16.07,0,0,1-2.93-3.82c-1.18-2-2.39-3.95-3.59-5.92l-3.84-6.29c-1.2-2-2.36-4-3.62-5.9a10.13,10.13,0,0,1-1.87-7.5A9,9,0,0,1,7.56,9a8.83,8.83,0,0,1,8.61-2.75,16.47,16.47,0,0,1,3.92,1.59c5.37,2.7,10.72,5.46,16.08,8.19l13.44,6.86L65.51,31,79.08,38c2.62,1.35,5.27,2.66,7.85,4.09a22.23,22.23,0,0,1,5.44,4.24q1.7,1.81,3.29,3.74c1.16,1.41,2.25,2.87,3.37,4.3l3.36,4.31,3.4,4.35,3.36,4.3,3.43,4.4q1.65,2.11,3.29,4.23c.89,1.16,1.78,2.33,2.73,3.58l2-1.48c-.21-.31-.38-.56-.56-.8L116.75,73l-5.2-6.66-3.21-4.14-3.5-4.48-3.25-4.18c-1.18-1.51-2.34-3-3.55-4.52-1-1.21-2-2.42-3-3.58A27.63,27.63,0,0,0,92.43,43a31.45,31.45,0,0,0-6.23-4c-4.24-2.13-8.47-4.31-12.7-6.47L55.45,23.32l-17.22-8.8C32.14,11.41,26.05,8.34,20,5.23a12,12,0,0,0-5.72-1.44,11.27,11.27,0,0,0-8.66,4,11.31,11.31,0,0,0-2.8,8.13,13.74,13.74,0,0,0,2.56,6.92c1.2,1.91,2.37,3.83,3.54,5.76,1.3,2.13,2.57,4.27,3.86,6.4,1.2,2,2.42,3.93,3.6,5.91a17.09,17.09,0,0,0,4,4.72A16.06,16.06,0,0,0,39.9,46a28.57,28.57,0,0,1,2.55-1.83,10.23,10.23,0,0,1,10-.38c4.11,2,8.16,4.12,12.24,6.2L80.19,57.9a8.16,8.16,0,0,1,3.31,2.56A6.21,6.21,0,0,1,83,68c-.75.81-1.57,1.55-2.36,2.32-1.68,1.65-3.35,3.3-5,4.94-1,1-2,1.89-3,2.86C71,79.76,69.38,81.39,67.73,83c-1.42,1.41-2.91,2.76-4.27,4.22A18.31,18.31,0,0,0,58.51,98a19.07,19.07,0,0,0,5.54,16.11,17.07,17.07,0,0,0,4.24,3.22c4.22,2.23,8.47,4.4,12.72,6.58l20.28,10.43c4,2,7.94,4.16,12,6.14a26.31,26.31,0,0,1,10.14,8.42,24,24,0,0,1,2.84,5.2q3.73,9.65,7.39,19.33c1.29,3.39,2.48,6.83,4.57,9.86a30.31,30.31,0,0,0,4.73,5.44,28.91,28.91,0,0,0,8.56,5.33,28.56,28.56,0,0,0,17.46,1.42c6.54-1.53,13-3.2,19.56-4.8A11.25,11.25,0,0,0,194.25,187.42Z" fill="#fff"/><rect x="122.7" y="75.98" width="1.1" height="1.1" transform="translate(106.45 -67.57) rotate(51.51)" fill="#fff"/><rect x="122.52" y="77.53" width="1.1" height="1.1" transform="translate(107.6 -66.85) rotate(51.51)" fill="#fff"/><rect x="124.07" y="77.71" width="1.1" height="1.1" transform="translate(108.32 -68) rotate(51.51)" fill="#fff"/><rect x="120.97" y="77.35" width="1.1" height="1.1" transform="matrix(0.62, 0.78, -0.78, 0.62, 106.88, -65.7)" fill="#fff"/><rect x="120.8" y="78.9" width="1.1" height="1.1" transform="translate(108.02 -64.98) rotate(51.51)" fill="#fff"/><rect x="122.35" y="79.08" width="1.1" height="1.1" transform="translate(108.75 -66.12) rotate(51.51)" fill="#fff"/><rect x="119.24" y="78.73" width="1.1" height="1.1" transform="translate(107.3 -63.83) rotate(51.51)" fill="#fff"/><rect x="119.07" y="80.28" width="1.1" height="1.1" transform="translate(108.45 -63.11) rotate(51.51)" fill="#fff"/><rect x="120.62" y="80.45" width="1.1" height="1.1" transform="translate(109.17 -64.25) rotate(51.51)" fill="#fff"/><rect x="117.52" y="80.1" width="1.1" height="1.1" transform="translate(107.72 -61.96) rotate(51.51)" fill="#fff"/><rect x="117.34" y="81.65" width="1.1" height="1.1" transform="translate(108.87 -61.24) rotate(51.51)" fill="#fff"/><rect x="118.89" y="81.83" width="1.1" height="1.1" transform="translate(109.59 -62.38) rotate(51.51)" fill="#fff"/><rect x="115.79" y="81.47" width="1.1" height="1.1" transform="translate(108.14 -60.09) rotate(51.51)" fill="#fff"/><rect x="117.16" y="83.2" width="1.1" height="1.1" transform="translate(110.02 -60.51) rotate(51.51)" fill="#fff"/></svg>