<svg id="Layer_1" data-name="Layer 1" xmlns="http://www.w3.org/2000/svg" viewBox="0 0 200 200"><title>Circuits</title><path d="M164.87,59.92l.7,1.07,1.13-.86L165.91,59l1-.81.8.94c1.49-1.16,2.94-2.34,4.45-3.44a9,9,0,0,0,2.61-3c1.75-3.12,3.59-6.19,5.35-9.3.83-1.46.75-1.91-.54-3a15.15,15.15,0,0,0-5.54-3.12c-1.38-.41-2.73-.91-4.06-1.44-2.44-1-4.88-2-7.28-3a9.39,9.39,0,0,1-2.5-1.53,2.45,2.45,0,0,1,.72-4.22,14.6,14.6,0,0,1,4.23-1c4.79-.33,9.58-.6,14.38-.72a17,17,0,0,1,8,1.91,10.79,10.79,0,0,1,6,12.78c-1.82,7.69-3.72,15.36-5.64,23-2.08,8.26-4.22,16.51-6.34,24.76-.05.2-.09.39-.14.62.55.22,1.1.4,1.61.65a9.81,9.81,0,0,1,1.59.93,3.07,3.07,0,0,1,1.17,3.8q-6.76,20.28-13.54,40.56c-.9,2.69-1.75,5.39-2.7,8.06a27.83,27.83,0,0,0-1.64,13.56c.77,5.32-1.33,9.46-5.06,13a20,20,0,0,1-10.17,5.32,11.64,11.64,0,0,1-5.13-.16l-44.2-11.59q-4.91-1.29-9.83-2.56a.83.83,0,0,0-.68.09,5,5,0,0,1-5.46,1.56q-3.85-1-7.69-2Q69.33,156.88,59,154c-1.66-.46-3.28-1.06-4.91-1.63a9.55,9.55,0,0,1-5-4.08c-.51-.82-1.07-1.6-1.62-2.4a5.86,5.86,0,0,0-3.33-2.4c-3.7-1-7.39-2.07-11.11-3-7.24-1.85-14.5-3.62-21.73-5.49A11.57,11.57,0,0,1,8,133.54a3.75,3.75,0,0,1-1.86-3.82A4,4,0,0,1,9,126.45c1.63-.56,3.32-.95,5-1.36q4.84-1.21,9.7-2.36a.69.69,0,0,0,.63-.73c.2-2,.31-4,.7-6a20.46,20.46,0,0,1,11.32-14.83c3-1.52,6.09-2.77,9.16-4.1a72.26,72.26,0,0,0,11-5.59A1,1,0,0,0,57,90.3c-1-4.52-1.94-9-2.9-13.56S52.2,68,51.29,63.59a9.89,9.89,0,0,1-.06-4.1,5.26,5.26,0,0,1,5.51-4.41c2,.07,4.09.33,6.13.49a2.89,2.89,0,0,0,.85,0Q74.91,53,86.09,50.47a3,3,0,0,1,1.39,0c7.51,2.05,15,4.14,22.5,6.2a16.41,16.41,0,0,1,10.54,9c1.2,2.38,2.29,4.82,3.46,7.22a1.48,1.48,0,0,0,.64.68,63.33,63.33,0,0,0,11.11,4,33.92,33.92,0,0,0,3.88.63,4.77,4.77,0,0,0,3.39-.84c3-2.12,6.14-4.18,9.13-6.37,4-2.93,7.93-6,11.89-9,.13-.1.24-.21.41-.35l-.74-1,1.18-.78Zm3.46,2.53-.76-1.21-1.14.89,1,1.07-1.25.76-.53-.6c-2.13,1.62-4.2,3.26-6.33,4.82-4.72,3.45-9.49,6.82-14.19,10.29a9.28,9.28,0,0,1-7.51,1.62,46.82,46.82,0,0,1-7.87-2.21c-1.36-.5-2.71-1-4.15-1.59.1.19.16.29.22.39a11.71,11.71,0,0,0,4.39,4,16.42,16.42,0,0,0,9.31,1.73A15.68,15.68,0,0,0,148.27,79c4.11-3.3,8.31-6.49,12.46-9.74,2-1.54,3.92-3.09,5.9-4.65l.44.43,1-.75-.63-1.13.91-.76.93,1,1-.8-.34-.59c1.9-1.51,3.78-3,5.65-4.49a3.16,3.16,0,0,0,.72-.74c2.19-3.5,4.4-7,6.51-10.53A9.83,9.83,0,0,0,184,43.12a4.23,4.23,0,0,0-2.8-4.79A11.55,11.55,0,0,0,180,38c.66.63,1.21,1.1,1.69,1.63a3.35,3.35,0,0,1,.58,4.23c-.15.27-.27.55-.43.82q-3.13,5.38-6.27,10.75a2.43,2.43,0,0,1-.56.64c-.81.66-1.64,1.29-2.47,1.94L169,60.79l.47.7ZM9.47,130.11a4.45,4.45,0,0,0,2.65,1.51c8,2,15.93,4,23.89,6,3.2.82,6.37,1.74,9.54,2.69a8.61,8.61,0,0,1,4.56,3.31c.71,1,1.4,2,2.05,3a6,6,0,0,0,3.12,2.49c1.55.54,3.09,1.11,4.68,1.54q14.08,3.84,28.18,7.6a4.27,4.27,0,0,0,1.15.12,1,1,0,0,0,.91-.71c.63-1.58,1.18-1.85,2.84-1.41q27.52,7.22,55,14.45a9.41,9.41,0,0,0,4.93,0,17.49,17.49,0,0,0,8.75-5.57,10.26,10.26,0,0,0,2.7-8.56A31.25,31.25,0,0,1,166,142c3.44-10.09,6.79-20.21,10.17-30.32,2-6.08,4-12.16,6.07-18.24.18-.53.08-.81-.43-1-.82-.27-1.62-.6-2.45-.81-1.69-.44-2.12-1.14-1.7-2.82Q183,68.15,188.22,47.43c.72-2.86,1.43-5.74,2-8.63a7.06,7.06,0,0,0-3.69-8A12.79,12.79,0,0,0,180.45,29c-2.52-.08-5,0-7.56.11-2.76.12-5.52.34-8.28.51l0,.22,2.2.87c2.57,1,5.13,2.1,7.73,3.06a12.29,12.29,0,0,0,5,.79,7.88,7.88,0,0,1,8,6.9A10.31,10.31,0,0,1,185.91,48c-2.24,3.67-4.52,7.31-6.8,10.94a4.54,4.54,0,0,1-1,1.08c-1.87,1.51-3.76,3-5.64,4.48-.14.11-.26.24-.41.37l.74,1-1,.8-.88-1-1.07.83.8,1.11-1.06.78-.76-.92-.56.42c-5.36,4.2-10.71,8.42-16.09,12.6a32.39,32.39,0,0,1-4.73,3.31,20.45,20.45,0,0,1-14.85,1.58,15.84,15.84,0,0,1-11.18-9.55c-1.25-2.9-2.63-5.75-4-8.58a13.35,13.35,0,0,0-8.93-7.33C101.33,58,94.28,56,87.21,54.08a2.58,2.58,0,0,0-1.2,0l-21.95,5a3.9,3.9,0,0,1-1.15.07c-2-.16-4-.37-5.95-.51a1.87,1.87,0,0,0-2.31,1.95,12.08,12.08,0,0,0,.24,3.11c1.51,7.24,3.07,14.47,4.62,21.71.39,1.83.76,3.66,1.18,5.48a2.2,2.2,0,0,1-.84,2.45c-.52.4-1,.82-1.57,1.19a75.28,75.28,0,0,1-12.13,6.11c-2.92,1.25-5.87,2.47-8.68,4-5.79,3.07-8.82,8-9.42,14.53-.15,1.63-.29,3.27-.46,4.9a1.79,1.79,0,0,1-1.52,1.77l-1,.25c-4.71,1.16-9.42,2.3-14.13,3.48A10.65,10.65,0,0,0,9.47,130.11ZM167.54,61.22l1.08-.83-.83-1.06-1.06.84ZM172,64.77l-.84-1-1.06.83.81,1Zm-3.29,2.51,1.07-.83-.82-1.05-1,.84Zm-3.34-4.37,1.07-.84L165.57,61l-1,.84ZM170,64.53l-.82-1.07-1.07.83.83,1Z" fill="#fff"/><path d="M164.2,56.83l1.08-.83.83,1.08-1.08.83Z" fill="#fff"/><path d="M162,58.51l1.08-.8.82,1.07-1.07.83Z" fill="#fff"/><path d="M164.87,59.92l-.93-1.11L165,58l.81,1-1,.92Z" fill="#fff"/></svg>