<svg id="Layer_1" data-name="Layer 1" xmlns="http://www.w3.org/2000/svg" viewBox="0 0 200 200"><title>Circuits</title><path d="M197.45,178.65a9.4,9.4,0,0,0-1.43-1.88c-1.79-1.91-3.65-3.74-5.41-5.67-4.3-4.68-8.54-9.42-12.85-14.1-5.16-5.61-10.38-11.17-15.56-16.76-3.94-4.26-7.85-8.54-11.79-12.8q-9.34-10.09-18.7-20.16-5.91-6.38-11.81-12.79c-5.44-5.87-10.95-11.67-16.3-17.61a147.84,147.84,0,0,0-15.52-15L70.8,47.58,55,34.54q-5.08-4.2-10.16-8.39-4.82-4-9.66-7.9c-1.37-1.12-2.79-2.19-4.1-3.39S29.33,13.6,28,14.64c.35,1.52.63,2.94,1,4.33,1.8,6.44,3.65,12.87,5.45,19.32a34.33,34.33,0,0,1,1.19,5,18.73,18.73,0,0,1-4.12,14.3c-2.64,3.34-5.4,6.57-8.13,9.84C18.49,73.39,13.57,79.33,8.56,85.2a24.51,24.51,0,0,0-5.4,9.08,21.23,21.23,0,0,0,.41,13c1.78,5.13,3.88,10.14,5.89,15.18,4.2,10.51,8.45,21,12.66,31.52a32,32,0,0,0,3.12,6.11c.84,1.24,1.57,2.55,2.38,3.81a13,13,0,0,0,1.19,1.55,48.33,48.33,0,0,0,12,10.06,57.15,57.15,0,0,0,7.38,3.71c3.52,1.39,7.31,1.6,11,1.67,7.06.14,14.13,0,21.19.06,1.5,0,3,0,4.57,0l.09-1.89c-.7,0-1.32.07-1.93.07-8.09,0-16.19.15-24.28,0-5-.1-10-.9-14.45-3.47a53.8,53.8,0,0,1-14.67-11.81c-.9-1.06-1.49-2.37-2.29-3.52-2.66-3.85-4.2-8.22-5.84-12.55-1-2.66-2.23-5.25-3.29-7.89q-5.23-13.1-10.41-26.23c-.81-2-1.63-4.09-2.4-6.15A19.62,19.62,0,0,1,6.61,90.58a25.65,25.65,0,0,1,3-3.87q7.58-9.12,15.18-18.21c2.52-3,5.05-6,7.57-9a22.09,22.09,0,0,0,4.94-10.26A23.3,23.3,0,0,0,36.22,38C35,34,33.77,29.95,32.61,25.9c-.62-2.16-1.13-4.35-1.69-6.52a4.4,4.4,0,0,1-.18-1c0-.7.34-.94,1-.64a4.88,4.88,0,0,1,1,.7L50.4,33q9.4,7.78,18.8,15.56c4.76,3.93,9.58,7.78,14.29,11.77,6.49,5.51,12.95,11,18.6,17.45,6,6.78,12.26,13.25,18.39,19.87,3.53,3.81,7,7.67,10.52,11.48,4.86,5.25,9.75,10.48,14.61,15.73q8.48,9.16,16.93,18.36,4.71,5.1,9.45,10.18l14.76,15.9h0l7.06,7.45.22.23.1.11h0a12.5,12.5,0,0,1,1.71,2.2c-.71.6-1.57.33-2.38.45a2.58,2.58,0,0,1-.77,0l-2.11-.07a2.71,2.71,0,0,1-.94,0l-10-.31h0c-3.05.29-6.12.28-9.19.26l-22.74-.08-31.15-.15c-7.25,0-14.5,0-21.75-.06-1.9,0-3.81-.07-5.84-.11L88.92,181c1.17,0,2.26.09,3.34.1l36.91.11c8.75,0,17.5.12,26.25.13q19.93,0,39.86,0a3.57,3.57,0,0,0,1.22-.25A1.63,1.63,0,0,0,197.45,178.65Z" fill="#fff"/><rect x="87.56" y="184.76" width="1.31" height="1.31" transform="translate(173.4 372.24) rotate(-179.07)" fill="#fff"/><rect x="86.27" y="183.43" width="1.31" height="1.31" transform="translate(170.84 369.55) rotate(-179.07)" fill="#fff"/><rect x="84.94" y="184.72" width="1.31" height="1.31" transform="translate(168.16 372.11) rotate(-179.07)" fill="#fff"/><rect x="87.6" y="182.14" width="1.31" height="1.31" transform="translate(173.53 367) rotate(-179.07)" fill="#fff"/><rect x="86.31" y="180.81" width="1.31" height="1.31" transform="translate(170.97 364.32) rotate(-179.07)" fill="#fff"/><rect x="84.98" y="182.1" width="1.31" height="1.31" transform="translate(168.29 366.87) rotate(-179.07)" fill="#fff"/><rect x="87.65" y="179.52" width="1.31" height="1.31" transform="translate(173.65 361.76) rotate(-179.07)" fill="#fff"/><rect x="86.36" y="178.19" width="1.31" height="1.31" transform="translate(171.1 359.08) rotate(-179.07)" fill="#fff"/><rect x="85.03" y="179.48" width="1.31" height="1.31" transform="matrix(-1, -0.02, 0.02, -1, 168.42, 361.63)" fill="#fff"/><rect x="87.69" y="176.9" width="1.31" height="1.31" transform="translate(173.78 356.53) rotate(-179.07)" fill="#fff"/><rect x="86.4" y="175.57" width="1.31" height="1.31" transform="translate(171.23 353.84) rotate(-179.07)" fill="#fff"/><rect x="85.07" y="176.86" width="1.31" height="1.31" transform="translate(168.54 356.4) rotate(-179.07)" fill="#fff"/><rect x="87.73" y="174.28" width="1.31" height="1.31" transform="matrix(-1, -0.02, 0.02, -1, 173.91, 351.29)" fill="#fff"/><rect x="85.11" y="174.24" width="1.31" height="1.31" transform="translate(168.67 351.16) rotate(-179.07)" fill="#fff"/></svg>