<svg id="Layer_1" data-name="Layer 1" xmlns="http://www.w3.org/2000/svg" viewBox="0 0 200 200"><title>Circuits</title><rect x="7.6" y="50.53" width="1.12" height="1.12" transform="translate(-40.44 33.35) rotate(-60.88)" fill="#fff"/><rect x="9.12" y="50.1" width="1.12" height="1.12" transform="translate(-39.28 34.46) rotate(-60.88)" fill="#fff"/><rect x="8.69" y="48.57" width="1.12" height="1.12" transform="translate(-38.17 33.3) rotate(-60.88)" fill="#fff"/><rect x="9.56" y="51.62" width="1.12" height="1.12" transform="translate(-40.39 35.63) rotate(-60.88)" fill="#fff"/><rect x="11.08" y="51.19" width="1.12" height="1.12" transform="translate(-39.23 36.73) rotate(-60.88)" fill="#fff"/><rect x="10.65" y="49.66" width="1.12" height="1.12" transform="translate(-38.12 35.57) rotate(-60.88)" fill="#fff"/><rect x="11.51" y="52.71" width="1.12" height="1.12" transform="translate(-40.34 37.9) rotate(-60.88)" fill="#fff"/><rect x="13.04" y="52.28" width="1.12" height="1.12" transform="translate(-39.18 39) rotate(-60.88)" fill="#fff"/><rect x="12.6" y="50.75" width="1.12" height="1.12" transform="translate(-38.07 37.84) rotate(-60.88)" fill="#fff"/><rect x="13.47" y="53.8" width="1.12" height="1.12" transform="translate(-40.29 40.17) rotate(-60.88)" fill="#fff"/><rect x="15" y="53.37" width="1.12" height="1.12" transform="translate(-39.13 41.28) rotate(-60.88)" fill="#fff"/><rect x="14.56" y="51.84" width="1.12" height="1.12" transform="translate(-38.02 40.11) rotate(-60.88)" fill="#fff"/><rect x="15.43" y="54.89" width="1.12" height="1.12" transform="translate(-40.23 42.44) rotate(-60.88)" fill="#fff"/><rect x="16.52" y="52.93" width="1.12" height="1.12" transform="translate(-37.96 42.38) rotate(-60.88)" fill="#fff"/><path d="M195.32,160c-1.36-2.57-2.89-5-4.34-7.57l-18.15-31.64-6.46-11.24q-8.71-15.23-17.44-30.45c-2.61-4.54-4-9.27-3.07-14.56a19.54,19.54,0,0,0,.06-5,10.76,10.76,0,0,0-6.4-9.39c-2.88-1.4-5.78-1.29-8.77-.92-5,.62-9-1-11.88-5.16-1.52-2.18-3.29-4.18-4.85-6.33a9.67,9.67,0,0,0-8.75-4.33,21.77,21.77,0,0,1-11.92-3.06c-10.48-6-20.9-12-31.38-18C56.61,9.31,51,6.69,44.85,5.76,37.45,4.66,33,6.94,29.53,13.6c-6.21,11.94-12.28,24-18.61,35.84l1.86,1,6.75-13.08L24.36,28h0l.37-.73.33-.64h0c1.76-3.43,3.47-6.88,5.35-10.24a25.58,25.58,0,0,1,4.21-6.11C36,9,38.24,8.38,40.09,7.46l.4.93c-6,.82-8.09,5.65-10.43,10.15q-8.37,16.11-16.7,32.25l.89.49c6.07-11.83,12.17-23.64,18.13-35.52C34.91,10.72,39,8.36,44.3,9c4.14.46,8.53,1.26,12.18,3.14,10,5.13,19.65,10.83,29.36,16.46,6.59,3.82,13.07,7.58,21.14,7.2,1.51-.07,3.42,1.27,4.58,2.49,2.32,2.47,4.25,5.31,6.35,8,3.17,4.05,7.22,6,12.44,5.19a29.54,29.54,0,0,1,3.72-.35,9,9,0,0,1,9.66,8.14,18.28,18.28,0,0,1,0,5.21,22.7,22.7,0,0,0,3.16,15.32q9.23,16.12,18.49,32.22h0l.74,1.28.51.88h0l4.55,7.91h0l.88,1.56c7.06,12.33,14.17,24.62,21.15,37,3.67,6.5,1,12.95-6.07,15.26a15.22,15.22,0,0,1-12.57-1c-4.4-2.47-8.87-2.74-13.72-1.89-7.44,1.3-14.93,2.36-22.43,3.3-4.82.6-6.25,2.36-5.11,7.13,1.18,5-.26,7.26-5.27,8.45-7.65,1.82-13.89-1.49-17.07-9.28-2.2-5.38-4.16-10.85-6.22-16.29h0l-4.85-12.87c-1.61-4.52-3.22-9.11-4.94-13.66a19.65,19.65,0,0,0-9-10.36c-10.74-6-21.61-11.75-32.43-17.6-4.73-2.56-7.09-6.22-7-11.89.2-8.47-.23-17-.47-25.44-.11-4.11-3.51-7.11-7-6.12-4.72,1.33-9.41,2.78-14.07,4.31-3.22,1.06-4.15,4.58-2,7.26l9.52,12.15c1.81,2.32,1.62,3.87-.84,5.32s-5.08,2.86-7.69,4.14-4.2.92-5.74-1.57c-3.41-5.51-6.71-11.09-9.86-16.75-.54-1-.16-2.45-.13-3.7.05-2,.6-4.12.19-6-1.09-5-1.66-9.85,1.49-14.4a32,32,0,0,0,2.15-3.62l.62-1.21-.9-.49L9.45,58.34l0,.07-.09.17,0,0c-.1.19-.2.39-.32.57A14.94,14.94,0,0,0,7.12,70.66a35.84,35.84,0,0,1,.79,5.16,17.38,17.38,0,0,1-.37,3.29L6.71,79c-2-6.2-2-12.12.44-17.64h0c.22-1.12,2.48-5.28,4-8l-1.81-1C8.49,54,7.67,55.52,6.82,57.08,2,65.81,1.8,74.46,6,83.11c3.06,6.34,7,12.28,10.7,18.27,2,3.18,4.83,3.84,8.24,2.18A86.88,86.88,0,0,0,33,99.1c3.42-2.14,3.83-5,1.36-8.19-2.88-3.76-5.8-7.49-8.7-11.23-2.33-3-1.94-4.32,1.75-5.49S34.54,72,38.14,71c4-1.16,5.79.15,5.9,4.39.21,8.31.64,16.63.46,24.94-.13,6.4,2.67,10.56,8,13.45,9,4.84,17.87,10,27,14.53C87.09,132,92.74,137,94.81,145.56A64.94,64.94,0,0,0,98,154.5l1.26,3.9c3.79,9.42,7.17,19,11.51,28.2,3,6.26,9.49,8.73,16.21,7.66,7.65-1.23,9.76-4.26,8.24-11.82,0-.16-.07-.32-.1-.49-.42-2.13.28-3.18,2.61-3.48,7.74-1,15.5-2,23.18-3.34A19.13,19.13,0,0,1,174.14,177a16.64,16.64,0,0,0,14.24.79C196.12,175,199.15,167.2,195.32,160Z" fill="#fff"/></svg>