<svg id="Layer_1" data-name="Layer 1" xmlns="http://www.w3.org/2000/svg" viewBox="0 0 200 200"><title>Circuits</title><path d="M16.81,102.51c.2-1.83.35-3.66.62-5.48a36.61,36.61,0,0,1,6.47-15.28c2-2.94,4.14-5.81,6.28-8.66a1.51,1.51,0,0,0,0-2.21c-1.21-1.45-2.41-2.91-3.49-4.45A2.22,2.22,0,0,1,27.09,63a14.82,14.82,0,0,1,3.73-2.27C37,58.28,43.2,56,49.36,53.56c12.79-5.06,25.5-10.33,38.35-15.22,17.36-6.61,34.82-13,52.24-19.39q16.28-6,32.61-11.92a34.2,34.2,0,0,1,4.85-1.32,4.78,4.78,0,0,1,5.78,4.6,3.22,3.22,0,0,1-1.62,3,33.31,33.31,0,0,1-4.88,2.57c-2.56,1-5.2,1.88-7.81,2.8l-1.3.49c.4,1.06.75,2.08,1.18,3.07a4.25,4.25,0,0,1-.43,4.41,29.62,29.62,0,0,1-2.46,3c-4,4.28-8.08,8.52-12.12,12.79A54.49,54.49,0,0,1,135.66,55c-2.11.92-4.18,2-6.26,2.93-6.18,2.91-8.78,11.65-7,17.06.88,2.62,1.84,5.22,2.73,7.84.38,1.11.73,2.23,1,3.37a7.51,7.51,0,0,1-.9,6,27.55,27.55,0,0,1-1.52,2.31c-4.84,6.28-9.66,12.57-14.57,18.8a6.78,6.78,0,0,1-9.92.81C90,105.7,80.87,97.2,71.67,88.73L52.87,71.44c-.46-.43-.95-.83-1.42-1.24-2.14-1.83-3.85-1.47-5.07,1.19-1.07,2.32-2.05,4.69-3,7.06-1.47,3.7-2.85,7.44-4.33,11.14A2.78,2.78,0,0,0,39.85,93c5.48,5.07,11,10.14,16.34,15.33a47,47,0,0,1,5,5.94,14.91,14.91,0,0,1,1.68,3.64c1,2.61.68,4.86-1.68,6.73-3,2.34-5.81,4.82-8.67,7.28a3.17,3.17,0,0,1-4.35.12c-1.61-1.2-3.16-2.5-4.66-3.83s-3.17-3-4.86-4.6A12.58,12.58,0,0,0,37.2,125c-2.16,2.73-4.34,5.44-6.37,8.27a4.85,4.85,0,0,0-.88,2.92c.33,4.85.83,9.69,1.3,14.53A4.78,4.78,0,0,0,33,153.8q10.33,9.5,20.59,19.07A40.34,40.34,0,0,1,57,176.51c1.64,2,2.27,5-.48,7.39-3.52,3-7,6.12-10.56,9.14a15.5,15.5,0,0,1-2.25,1.35H42.24c-1.22-.71-2.4-1.48-3.66-2.1a2.34,2.34,0,0,0-1.7-.21c-1.61.68-3.14,1.53-4.7,2.32H30.66c-2.62-.72-3.72-2.63-4.32-5.13-1.39-5.7-3-11.34-4.36-17-1.43-6.16-3.08-12.32-3.81-18.58-.86-7.31-.83-14.72-1.19-22.08,0-.71-.11-1.41-.17-2.12Q16.81,116,16.81,102.51Zm14,88.5c1.39-.65,2.54-1.16,3.67-1.72,2.63-1.3,5.06-1.29,7.24,1a1.57,1.57,0,0,0,2.43,0c3.27-2.89,6.59-5.72,9.87-8.6,1.16-1,1.26-2,.23-3.14a40.15,40.15,0,0,0-2.94-2.93q-10.42-9.68-20.88-19.32A7,7,0,0,1,28,151.79c-.58-5.33-1.15-10.67-1.48-16a7,7,0,0,1,1.23-4.11c2.22-3.2,4.67-6.24,7.12-9.27a10.74,10.74,0,0,1,2.45-1.92,2.12,2.12,0,0,1,2.59.07c1.2.91,2.41,1.82,3.53,2.82,2,1.79,4,3.64,5.9,5.48a1.09,1.09,0,0,0,1.73,0q4-3.59,8.15-7.12a1.94,1.94,0,0,0,.57-2.46,18.89,18.89,0,0,0-4.55-7c-3.76-3.54-7.54-7-11.28-10.6-2.34-2.22-4.63-4.51-6.93-6.77a5.32,5.32,0,0,1-1.3-6.31c2.51-6.17,5-12.37,7.44-18.56a8.21,8.21,0,0,1,4.14-4.21,4.19,4.19,0,0,1,4.93.51c1.39,1.14,2.8,2.28,4.13,3.5q20.5,18.9,41,37.82c1.48,1.37,3,2.73,4.51,4a3,3,0,0,0,4.56-.4c5.12-6.59,10.17-13.24,15.28-19.84a5.65,5.65,0,0,0,.78-6c-1.21-3.08-2.26-6.23-3.33-9.36-2-5.93.15-16.77,8.12-20.94q3.28-1.72,6.68-3.23c5.28-2.36,10.36-5.08,14.46-9.21C153.8,37.22,159,31.56,164.4,26c1-1.08,1.48-2.16.64-3.57a6.58,6.58,0,0,1-.54-1.54c-.83-2.85-.42-3.9,2.31-5s5.25-2,7.89-3c1.38-.51,2.77-1,4.12-1.55.34-.15.79-.62.78-.93A1.56,1.56,0,0,0,177.55,9c-2,.6-3.92,1.23-5.84,1.95C132.82,25.51,93.62,39.22,55.23,55c-8,3.31-16.18,6.29-24.27,9.43-.37.14-.71.33-1.06.5,1.19,1.61,2.36,3,3.37,4.58a4.54,4.54,0,0,1-.3,5.7c-2.45,3.25-4.83,6.55-7.1,9.93a29.67,29.67,0,0,0-5.35,16.9c0,13.55.07,27.1.26,40.65a61.52,61.52,0,0,0,1.08,12.14C24.38,166.46,27.27,178,30,189.5A7.28,7.28,0,0,0,30.8,191Z" fill="#fff"/></svg>