<svg xmlns="http://www.w3.org/2000/svg" viewBox="0 0 200 200"><title>Circuits</title><g id="Isolation_Mode" data-name="Isolation Mode"><rect x="143.47" y="85.99" width="2.1" height="2.1" transform="translate(-19.89 124.88) rotate(-44.02)" fill="#ed0f4e"/><rect x="146.45" y="86.04" width="2.1" height="2.1" transform="translate(-19.09 126.96) rotate(-44.02)" fill="#ed0f4e"/><rect x="146.5" y="83.07" width="2.1" height="2.1" transform="translate(-17.01 126.16) rotate(-44.02)" fill="#ed0f4e"/><rect x="146.4" y="89.01" width="2.1" height="2.1" transform="translate(-21.17 127.76) rotate(-44.02)" fill="#ed0f4e"/><rect x="149.37" y="89.07" width="2.1" height="2.1" transform="translate(-20.37 129.84) rotate(-44.02)" fill="#ed0f4e"/><rect x="149.42" y="86.09" width="2.1" height="2.1" transform="translate(-18.29 129.04) rotate(-44.02)" fill="#ed0f4e"/><rect x="149.32" y="92.04" width="2.1" height="2.1" transform="translate(-22.45 130.64) rotate(-44.02)" fill="#ed0f4e"/><rect x="152.29" y="92.09" width="2.1" height="2.1" transform="translate(-21.65 132.72) rotate(-44.02)" fill="#ed0f4e"/><rect x="152.34" y="89.12" width="2.1" height="2.1" transform="translate(-19.57 131.92) rotate(-44.02)" fill="#ed0f4e"/><rect x="152.24" y="95.06" width="2.1" height="2.1" transform="translate(-23.73 133.52) rotate(-44.02)" fill="#ed0f4e"/><rect x="155.21" y="95.11" width="2.1" height="2.1" transform="translate(-22.93 135.6) rotate(-44.02)" fill="#ed0f4e"/><rect x="155.26" y="92.14" width="2.1" height="2.1" transform="translate(-20.85 134.8) rotate(-44.02)" fill="#ed0f4e"/><rect x="155.16" y="98.09" width="2.1" height="2.1" transform="translate(-25.01 136.4) rotate(-44.02)" fill="#ed0f4e"/><rect x="158.13" y="98.14" width="2.1" height="2.1" transform="translate(-24.21 138.48) rotate(-44.02)" fill="#ed0f4e"/><rect x="158.19" y="95.16" width="2.1" height="2.1" transform="translate(-22.13 137.68) rotate(-44.02)" fill="#ed0f4e"/><rect x="158.08" y="101.11" width="2.1" height="2.1" transform="translate(-26.29 139.28) rotate(-44.02)" fill="#ed0f4e"/><rect x="161.11" y="98.19" width="2.1" height="2.1" transform="translate(-23.41 140.56) rotate(-44.02)" fill="#ed0f4e"/><path d="M156.92,92.35c2.09-2,4.08-3.86,6.11-5.71q10.44-9.56,20.89-19.09c2.86-2.62,5.76-5.22,7.62-8.71,3.15-5.93,4.73-12.1,3.77-18.92-.81-5.74-2.34-11.1-5.63-16a32.45,32.45,0,0,0-19.92-13.75c-2.9-.72-5.84-1.31-8.76-2-7.45-1.67-14.87-3.41-22.34-5-2.93-.61-6-1-8.84.39a18.26,18.26,0,0,0-9.67,10.16c-2.43,6.23,1.72,12.2,7.61,13.37,2.9.57,5.79,1.18,8.68,1.81a3.2,3.2,0,0,1,2.7,3.73c-.26,2.58-.46,5.18-.85,7.74a63.6,63.6,0,0,1-1.41,6.66,2.37,2.37,0,0,1-1.34,1.31c-1.81.73-3.68,1.33-5.54,1.92-5.74,1.8-10.7.26-14.83-3.86s-8-8.41-12-12.61c-3.17-3.34-6.28-6.72-9.56-9.94a6.85,6.85,0,0,0-9.28-.39,63.74,63.74,0,0,0-5.84,5.3,16.81,16.81,0,0,0-5.07,12.77c.13,3.2.06,6.4.06,9.6,0,7.15.11,14.3-.06,21.45-.1,4-1.16,7.74-4.35,10.43A43.79,43.79,0,0,1,62.46,88c-14.71,8.26-29.22,16.81-42.79,26.88-2.59,1.91-4.3,4.51-3.65,7.83a8.34,8.34,0,0,0,6,6.69c4.09,1.23,8.2,2.43,12.33,3.52,2.77.74,5.59,1.59,8.49.76,1.79-.51,3.51-1.28,5.26-1.93l0,0a20.62,20.62,0,0,0,2.63-2.38c3.2-4,6.33-8,9.46-12.08,3.48-4.49,6.9-9,10.41-13.47a18.1,18.1,0,0,1,7-5.84q9.78-4.09,19.61-8.06a3.31,3.31,0,0,1,2-.1c3.35,1,4.71,3.64,4,7.08-.41,2-1.86,3.12-3.15,4.38-6.22,6-12.31,12.23-18.75,18-9.17,8.27-18.58,16.27-27.93,24.35-4.56,3.94-9.14,7.87-13.82,11.67-3.58,2.9-7.47,2.65-11.29.43-3.34-2-6.58-4.09-9.9-6.1a28.93,28.93,0,0,0-4.32-2.31,4.78,4.78,0,0,0-6.15,2.42,6.9,6.9,0,0,0-.54,4.91C9,162,10.79,169.3,12.57,176.59c.68,2.8,2,5.31,4.67,6.7,7.44,3.94,15,7.78,22.45,11.62a6.47,6.47,0,0,0,4.28.77c2.63-.51,4.5-2.25,6.33-3.94,9.19-8.49,18.32-17.05,27.46-25.58l34.38-32.06,34.2-31.9,6-5.6-2.24-2.38-81.2,75.72-.22-.18c.31-.38.62-.75.92-1.13,3.6-4.6,8.24-8.11,12.48-12.06,7.75-7.21,15.53-14.39,23.24-21.64q16-15,31.91-30.12l12-11.36.06-.06-.76-.81-6.25,5.94-22.15,20.9C109.27,129.71,98.4,140,87.45,150.28c-4.82,4.5-9.91,8.72-14.68,13.26a81.92,81.92,0,0,0-7,7.89,156.37,156.37,0,0,1-19.44,19.33A11.41,11.41,0,0,1,44.57,192c-2.08,1.15-3.72.3-3.91-2-.15-1.75-.06-3.52-.29-5.26-.5-3.79-2.65-5.27-6.44-4.76s-7.61.91-11.43,1.29a5.58,5.58,0,0,1-6.16-3.92c-1-3.1-1.73-6.3-2.51-9.48q-1.59-6.45-3.06-12.94a9.08,9.08,0,0,1-.18-2.6c.12-1.78,1.33-2.52,2.91-1.71s3.1,1.81,4.63,2.75c3,1.87,6,3.92,9.09,5.59,4.36,2.32,9,2.75,13.17-.22s7.76-6.14,11.51-9.38q15.84-13.67,31.56-27.48c4.49-4,8.75-8.19,13.06-12.37q10.23-9.93,20.4-19.95c2-2,2.39-4.2,1.16-6.41a5.24,5.24,0,0,0-6.23-2.6A68.71,68.71,0,0,0,105,83.12C95.67,87,86.31,90.87,76.92,94.71a19.13,19.13,0,0,0-6.66,4.58c-1.65,1.74-3.12,3.64-4.72,5.43a3.14,3.14,0,0,1-1.43.94,25.06,25.06,0,0,1-4.11.71c-3,.23-5.72-1.76-6.2-5.38a8.94,8.94,0,0,1-.15-1.55c.06-1.62.36-3,2.08-3.91,4.33-2.39,8.62-4.89,12.74-7.61,5.08-3.35,7.64-8.22,8.25-14.32.65-6.49,0-12.94.12-19.41,0-3.92.06-7.85-.17-11.75-.3-5,1.7-9,5.16-12.41a52.47,52.47,0,0,1,4-3.55c2.26-1.8,4.19-1.67,6.23.4C93.76,28.57,95.35,30.3,97,32c5.47,5.77,10.78,11.7,16.46,17.27,4.91,4.82,11,6.35,17.6,4.11,8.43-2.86,16.78-5.94,25.14-9a7.75,7.75,0,0,0,5.24-7.08c0-3.22-3.15-7.07-6.34-7.74L128.58,24c-4.85-1-7.05-5.16-5.1-9.7a14.79,14.79,0,0,1,7.39-7.55c2.59-1.27,5.37-.73,8-.15,9.88,2.14,19.72,4.43,29.58,6.62a8.32,8.32,0,0,1,5.38,4.09c2.94,4.85,5.73,9.79,8.49,14.75,2.59,4.64,5,9.35,7.59,14a8.56,8.56,0,0,1,.32,8.12,30.48,30.48,0,0,1-8,10.48c-4.33,3.86-8.43,8-12.9,11.66-3.5,2.88-7.44,5.23-11.16,7.87-1.75,1.24-3.42,2.6-5.19,4ZM26.19,183.88l7.1-.81c.16,0,.32,0,.48,0,3.37-.73,3.53.77,3.74,3.29.1,1.19,0,2.39,0,3.79L26.11,184.2ZM112.42,83.69a2.42,2.42,0,0,1,.71-.14,2.23,2.23,0,0,1,2.15,1.23,1.57,1.57,0,0,1-.38,2.07c-2.78,2.67-5.62,5.29-8.47,8-1.91-5-1.91-5-4.37-7Zm-58.55,23c2.42,2.22,5.31,2.53,8.71,2.1-1.1,1.45-2,2.66-2.91,3.84-3.63,4.67-7.23,9.37-10.93,14-2.42,3-5.73,4.58-9.51,3.88-4.69-.87-9.29-2.28-13.91-3.55a11.43,11.43,0,0,1-4-1.68c-3-2.34-2.79-5.58.29-7.79A310.24,310.24,0,0,1,49.45,99.22L51,98.34C51.24,101.46,51.44,104.46,53.87,106.69Zm87.86-76.62c4,.85,8,1.74,12.09,2.55a5,5,0,0,1,3,1.83c2.15,2.63,1.5,5.56-1.69,6.83-4.08,1.62-8.22,3.08-12.33,4.6-.89.33-1.79.64-2.82,1C140.77,41.24,141.94,35.78,141.73,30.07Zm18.35,54.86c-.5.51-1.05,1-1.58,1.46-1,1-2.1,1.94-3.12,2.94-.54.53-1,.69-1.57-.45l7.55-5.69.12.15C161,83.87,160.57,84.42,160.08,84.93Zm32.18-40.28c-5.26-9.53-10.43-18.87-15.58-28.19C184.63,18.71,193.29,34.18,192.26,44.65Z" fill="#ed0f4e"/></g></svg>