<svg id="Layer_1" data-name="Layer 1" xmlns="http://www.w3.org/2000/svg" viewBox="0 0 200 200"><title>Circuits</title><path d="M196.32,135.63c-.19-.21-.4-.42-.6-.62q-7.43-7.41-14.86-14.82c-.69-.69-1.5-1.26-2.18-2-2.23-2.28-4.41-4.62-6.66-6.88a2.61,2.61,0,0,0-3.68-.15,9.68,9.68,0,0,0-.94.89l-22,22.45c-1.48,1.51-1.87,1.51-3.37,0q-12.9-12.87-25.81-25.73Q101.71,94.41,87.17,80L65.41,58.42Q64,57,62.56,55.53c-.75-.76-.74-.79,0-1.58l.85-.86q4.81-4.9,9.62-9.8a2.67,2.67,0,0,0,.11-3.93c-.28-.33-.59-.63-.9-.94l-9.92-9.8L50.25,16.69a10,10,0,0,0-.83-.75c-1.48-1.16-2.74-1.12-4.06.19-3.29,3.27-6.55,6.56-9.83,9.83C34.44,27,33.83,27,32.77,26c-2.9-2.89-5.84-5.72-8.67-8.67a9.66,9.66,0,0,0-5.3-2.84c-2.48-.49-5-1.07-7.45-1.45a38.3,38.3,0,0,0-5.4-.38,3.21,3.21,0,0,0-3.24,3.64c.35,3,.63,6,1.11,9a8.35,8.35,0,0,0,2.44,4.84c3.24,3.11,6.4,6.3,9.62,9.43a3.57,3.57,0,0,1,.4.44l1.34-1.34a.55.55,0,0,1-.17-.09q-3.6-3.53-7.18-7.09c-.84-.83-1.65-1.69-2.53-2.46a7.07,7.07,0,0,1-2.21-4.82l.28.69a11.56,11.56,0,0,0,2.7,3.94c3.17,3.09,6.25,6.27,9.36,9.42a.42.42,0,0,1,.05.1l.29-.29-.39-.39c-3.21-3.26-6.4-6.54-9.63-9.79A9.11,9.11,0,0,1,6,24.38a23.78,23.78,0,0,1-1.57-8.26c0-1.34.22-1.62,1.57-1.75a10.07,10.07,0,0,1,2.75,0c3.67.68,7.33,1.45,11,2.19a4.61,4.61,0,0,1,2.35,1.36c3.16,3.15,6.34,6.28,9.51,9.42a3.24,3.24,0,0,0,5,0q4.87-4.84,9.72-9.7c1-1,1.24-1.05,2.31,0q5.7,5.6,11.38,11.22L70.57,39.26c.33.32.66.64,1,1,.85.89.85,1.19,0,2.07l-9.88,10L61,53c-1.25,1.34-1.25,2.33,0,3.66s2.6,2.61,3.91,3.91q10.57,10.5,21.14,21c5.31,5.26,10.65,10.5,16,15.77,3.76,3.73,7.48,7.5,11.23,11.24l27.79,27.65c1.69,1.68,3.29,1.74,5.07.15.66-.59,1.25-1.27,1.88-1.91l20.73-21.16.56-.54a1,1,0,0,1,1.59,0l.55.55,22.76,22.79.43.43c1.12,1.14,1.13,1.24,0,2.35q-10,10-20,20.06Q162.16,171.48,149.59,184c-1.94,1.94-2.08,2-4.54.71a32.93,32.93,0,0,1-6.36-4.57,150.12,150.12,0,0,1-16.38-16.67,37.6,37.6,0,0,1-4.83-8.13,60.27,60.27,0,0,1-4.34-11.25c-.1-.36-.21-.71-.34-1.05L113,143l-1.44-2.76a1.95,1.95,0,0,0-3.06-.52l-10.74,10-10-11.09,12.41-11.41.05,0,.61-.61.13-.14.35-.32,0,0c.86-1.09.8-2.17-.29-3.34-1.45-1.56-3-3.06-4.46-4.58Q86.74,108.28,77,98.35,63,84.23,49,70.15a22.72,22.72,0,0,1-4.29-5.35A12.49,12.49,0,0,0,42.41,62c-2-2-4.13-4-6.18-6q-6.76-6.67-13.49-13.37l-2.22-2.23-.27.26.08.06C24.9,45.28,29.45,49.89,34,54.44c2.61,2.59,5.3,5.11,8,7.66a11.75,11.75,0,0,1,2.76,3.7L20,40.93h0l-1.34,1.34a2,2,0,0,1,.28.24c.93.94,1.87,1.88,2.8,2.82Q48.75,72.55,75.81,99.77,87.43,111.48,99,123.26q.36.37.71.75a.81.81,0,0,1,.26.83L86.48,137.21a2,2,0,0,0-.12,2.75l10,11a1.93,1.93,0,0,0,1.37.64h.08a1.94,1.94,0,0,0,1.33-.53l10.75-10,1,1.9a11.58,11.58,0,0,1,.59,1.66,64.07,64.07,0,0,0,4.68,12,36.94,36.94,0,0,0,4.66,7.74,143.06,143.06,0,0,0,18.37,18.46,27.51,27.51,0,0,0,6.63,4.15,3.52,3.52,0,0,0,3.92-.67c.29-.24.56-.5.82-.77l45.69-45.66C197.65,138.5,197.67,137.13,196.32,135.63Z" fill="#fff"/></svg>