<svg id="Layer_1" data-name="Layer 1" xmlns="http://www.w3.org/2000/svg" viewBox="0 0 200 200"><title>Circuits</title><path d="M185.27,188.12c1.51-7.36,2.85-14.77,4.2-22.16,1.06-5.77-1.32-10.07-5.88-13.44-5.46-4-10.89-8.13-16.33-12.19-2.8-2.08-5.52-4.27-8.43-6.19a7.36,7.36,0,0,0-9.4.75,7.7,7.7,0,0,0-1,10c1.54,2.3,3.2,4.53,4.79,6.81,1,1.39,2,2.77,2.85,4.23a4.79,4.79,0,0,1-.59,5.73c-1.32,1.46-3,1.8-5.15,1a38.58,38.58,0,0,1-3.93-1.72q-7.62-4-15.19-8c-7.58-4-15.13-8.14-22.72-12.17-2-1-4.09-1.83-6-3-4.14-2.43-5.24-7-2.46-10.52,3.88-4.92,7.86-9.75,11.9-14.53,2.16-2.56,3.74-2.68,6.54-.9a16.27,16.27,0,0,1,1.73,1.27c3.91,3.28,7.72,6.67,11.74,9.81a16.12,16.12,0,0,0,5.63,2.94c2.58.67,5.3-1.11,6.58-3.63a7,7,0,0,0-1.48-7.7c-5-5-10-10-15.15-14.83-9.46-9-18.86-18.06-27.58-27.8-6.32-7.07-12.76-14-19.18-21-9.5-10.35-19.1-20.6-28.49-31C47.5,14.56,42.54,9.61,35.92,6.66c-.73-.33-1.4-.79-2.11-1.18a16.83,16.83,0,0,0-20,2.89C9.11,13.13,9.1,20,13.87,23.76,16.82,26.08,20,28.12,23,30.37c3.92,2.95,7.94,5.81,11.61,9A48.25,48.25,0,0,1,41.32,47c4.4,6,10.32,9.06,17.5,10.4a26.26,26.26,0,0,1,16,9.55c5.31,6.64,10.31,13.52,15.64,20.15a15,15,0,0,1-5.17,23.15c-6.82,3.15-13.56,6.51-20.2,10A19.72,19.72,0,0,0,55,132.25a10.62,10.62,0,0,0,4.93,12.47c5.87,3,11.89,5.81,17.86,8.65C83.16,155.95,88.6,158.46,94,161a7.24,7.24,0,0,1,1.07.65l5.17,2.49a29.59,29.59,0,0,1,2.91,1l.46.21,1.13-2.51-3.14-1.47,2-.29,1.63.75.7-1.55-3.36-1.56-9.31-2-22-10.14h0c-3.16-1.44-6.28-3-9.37-4.55-4.26-2.17-5.47-6.17-3.41-10.45a18.6,18.6,0,0,1,8.6-8.91q10.15-5.06,20.28-10.15a19,19,0,0,0,8.06-8.25,18,18,0,0,0-2.3-18.64c-5.24-7-10.74-13.87-16-20.87A26.91,26.91,0,0,0,60.64,54.41,32.1,32.1,0,0,1,42.17,42.78a41.37,41.37,0,0,0-5-5.64c-3.89-3.27-8-6.3-12.07-9.33-3.09-2.29-6.31-4.39-9.42-6.65a6.07,6.07,0,0,1-1.88-7.88c2.93-6,11.45-8.77,17.34-5.55,3.46,1.89,6.9,3.82,10.26,5.87a17.45,17.45,0,0,1,3.7,3Q64.72,37.86,84.22,59.13c8.3,9,16.5,18.14,25,27,6.58,6.82,13.57,13.24,20.38,19.84q5,4.86,10,9.75a8.91,8.91,0,0,1,1.19,1.45c1.3,2,1.22,3.52-.21,4.82s-3.14,1.35-4.89.07c-1.08-.79-2.15-1.61-3.18-2.47q-6-5-12-10c-3.24-2.71-6.86-2.71-9.88.22-1.39,1.35-2.61,2.87-3.88,4.35h0l-7.66,9.4a30.09,30.09,0,0,0-2.34,3.49A9.22,9.22,0,0,0,100.52,140c7.95,4.28,16,8.36,24,12.55,1.82,1,3.6,2,5.41,3,5.84,3.11,11.65,6.28,17.57,9.25a10.69,10.69,0,0,0,5.12,1.23c6-.34,9.1-6.44,5.93-11.59-2.2-3.58-4.77-6.92-7.1-10.42a7.64,7.64,0,0,1-1.35-3.13,4.24,4.24,0,0,1,2.39-4.45,4.64,4.64,0,0,1,5.08.4c5.6,4.15,11.23,8.27,16.7,12.59a84.26,84.26,0,0,1,6.08,6c.64.62,1.46,1,2.12,1.64a6.55,6.55,0,0,1,2.34,6.68c-1.16,5.69-2.08,11.44-3.12,17.15a25,25,0,0,1-.87,3.64c-1,2.8-3.75,5-6.56,4.46a2.27,2.27,0,0,0-1.07,0c-4.5,1.45-8.11-1-11.87-2.7q-13.76-6.33-27.49-12.7c-5.26-2.46-10.47-5-15.72-7.52-2.65-1.25-5.31-2.49-8-3.75l-.69,1.53,58.77,27a12.25,12.25,0,0,0,3.82,0,5,5,0,0,1,2.12-.11,7.27,7.27,0,0,0,7.56-4c6-25.32,4.56-27.81,4.56-27.81,2.38.29-.69,20.66-2.76,26.4s-4.14,6.24-4.14,6.24h0a8.3,8.3,0,0,1-6.76,1.72h0a14.5,14.5,0,0,1-2.13-.19,53,53,0,0,1-9-3.67L109,164.84l-1.12,2.49q4.22,2,8.41,3.95c5.41,2.58,10.76,5.27,16.19,7.8Q146.2,185.47,160,191.7a92.53,92.53,0,0,0,11.18,4.51C177,198,184.1,193.78,185.27,188.12Z" fill="#fff"/><rect x="104.8" y="169.61" width="1.56" height="1.56" transform="translate(130.63 369.26) rotate(-155.4)" fill="#fff"/><rect x="104.03" y="167.53" width="1.56" height="1.56" transform="translate(130.02 364.98) rotate(-155.4)" fill="#fff"/><rect x="101.95" y="168.3" width="1.56" height="1.56" transform="translate(125.74 365.59) rotate(-155.4)" fill="#fff"/><rect x="106.1" y="166.76" width="1.56" height="1.56" transform="translate(134.3 364.37) rotate(-155.4)" fill="#fff"/><rect x="105.33" y="164.69" width="1.56" height="1.56" transform="translate(133.69 360.09) rotate(-155.4)" fill="#fff"/><rect x="103.25" y="165.46" width="1.56" height="1.56" transform="translate(129.41 360.7) rotate(-155.4)" fill="#fff"/><rect x="107.4" y="163.92" width="1.56" height="1.56" transform="translate(137.97 359.48) rotate(-155.4)" fill="#fff"/><rect x="106.63" y="161.84" width="1.56" height="1.56" transform="translate(137.37 355.2) rotate(-155.4)" fill="#fff"/><rect x="104.56" y="162.61" width="1.56" height="1.56" transform="translate(133.08 355.81) rotate(-155.4)" fill="#fff"/><rect x="108.7" y="161.07" width="1.56" height="1.56" transform="translate(141.65 354.6) rotate(-155.4)" fill="#fff"/><rect x="107.93" y="159" width="1.56" height="1.56" transform="translate(141.04 350.31) rotate(-155.4)" fill="#fff"/><rect x="105.86" y="159.77" width="1.56" height="1.56" transform="translate(136.76 350.92) rotate(-155.4)" fill="#fff"/><rect x="110.01" y="158.23" width="1.56" height="1.56" transform="translate(145.32 349.71) rotate(-155.4)" fill="#fff"/><rect x="107.16" y="156.92" width="1.56" height="1.56" transform="translate(140.43 346.03) rotate(-155.4)" fill="#fff"/></svg>