<svg id="Layer_1" data-name="Layer 1" xmlns="http://www.w3.org/2000/svg" viewBox="0 0 200 200"><title>Circuits</title><path d="M104.21,145.05l-.76.47c-.32,0-.42-.58-.84-.37l.74-1Z" fill="#fff"/><path d="M190.83,154.44c-1.35-2.68-2.68-5.36-4.1-8-2-3.74-4.06-7.46-6.11-11.18-.79-1.44-1.59-2.88-2.46-4.27a8.4,8.4,0,0,0-.72-1l0,0-.05,0a6.75,6.75,0,0,0-1.79-1.48,11,11,0,0,0-8-1.34,12.79,12.79,0,0,0-6,2.94,9.64,9.64,0,0,0-3,9.2,17.93,17.93,0,0,0,2.26,5.58c.53,1,1.06,1.9,1.54,2.88a3.09,3.09,0,0,1,.1,2.84c-.2.41-.33.84-.51,1.25l-5.21,12.06c-.39.9-.75,1.82-1.18,2.7a2.46,2.46,0,0,1-3.55,1.16,3.52,3.52,0,0,1-1.75-2.26c-1.85-5.93-3.71-11.85-5.54-17.78-1.18-3.83-2.33-7.67-3.48-11.51q-1.37-4.57-2.72-9.15c-.89-3-1.75-6-2.63-9s-1.83-6.15-2.74-9.23q-1-3.4-2-6.8c-.91-3.13-1.81-6.27-2.74-9.4-.58-2-1.15-3.93-1.83-5.85a20.93,20.93,0,0,0-6.37-9.28,14.89,14.89,0,0,0-11.8-3.66c-.47.06-.95.14-1.42.23-2.82.53-5.65,1-8.44,1.62-3.78.86-7.53,1.84-11.28,2.79-3,.77-6.06,1.57-9.09,2.36-1.18.31-2.38.59-3.52,1a11.79,11.79,0,0,0-5.84,4.35A13,13,0,0,1,64,90.59c-2.31,1.13-4.55,1.2-6.61-.56-1.54-1.31-3.11-2.59-4.56-4-3.33-3.21-6.59-6.48-9.88-9.74-.17-.17-.32-.36-.47-.54a25.84,25.84,0,0,1-4.36-7.55c-1.51-4.05-3-8.12-4.29-12.24-1.36-4.27-2.54-8.6-3.78-12.9a15.54,15.54,0,0,1-.82-4.53c0-2.9.9-4.65,4.08-5.69a3.5,3.5,0,0,1,2.78.24,9,9,0,0,1,1.89,1.31c2.61,2.38,5.17,4.82,7.78,7.21C51.31,46.72,57,51.66,62.88,56.5A13.38,13.38,0,0,0,67.55,59a19.39,19.39,0,0,0,6,.82,17.08,17.08,0,0,0,9-2.42A9.58,9.58,0,0,0,87,52.24a19,19,0,0,0,.8-2.74,9,9,0,0,0-2.71-8.71c-1.84-1.69-3.66-3.4-5.5-5.09-8.74-8-17.51-16-26.52-23.69a31.67,31.67,0,0,0-8.8-5.2A38.54,38.54,0,0,0,34,4.3a26.07,26.07,0,0,0-7.63.1,22.64,22.64,0,0,0-12,6.13,17.37,17.37,0,0,0-4.74,7.81c-.26.94-.5,1.9-.7,2.86a14.65,14.65,0,0,0,.79,9.58c1.46,3,3,6.06,4.43,9.08A46.3,46.3,0,0,1,17.17,47a9.34,9.34,0,0,1-.83,7.68A20.73,20.73,0,0,1,14,57.82a28.07,28.07,0,0,0-2.21,2.72,7,7,0,0,0,0,8.28,16,16,0,0,0,2.51,3L20.85,78c11.93,11.25,24.08,22.27,36.28,33.23q20.62,18.51,41.23,37c.2.18.38.36.6.58l-.41.49c.47-.25.72.15,1,.41l.69-.62.71.55.59-.6-.59-.68.51-.71c-.13-.34-.67-.47-.53-.95l.57-.31.67.5.62-.56.71.5.7-.61.5.75.84-.83-.87-.71-.45.78-.78-.57-.67.57c-.2-.23-.62-.26-.53-.72l-.63.33-.63-.55c-9.42-8.56-18.81-17.17-28.28-25.67-3.1-2.79-6.41-5.34-9.63-8q-2.9-2.38-5.83-4.7c-2.47-2-5-3.92-7.44-5.88-1.5-1.18-3-2.36-4.51-3.55Q42,94.9,38.71,92.25c-.58-.47-1.1-1-1.65-1.5C33,87,29,83.31,24.94,79.55c-3.46-3.23-6.87-6.51-10.29-9.77a9.43,9.43,0,0,1-2-2.69,5.11,5.11,0,0,1,.28-5.3,19.15,19.15,0,0,1,1.69-2.21,29.27,29.27,0,0,0,3.09-4,10.86,10.86,0,0,0,1.11-8.75A43.23,43.23,0,0,0,15.57,39c-1.38-2.81-2.73-5.63-4.15-8.43-1.57-3.12-1.51-6.34-.77-9.63a19.52,19.52,0,0,1,1.49-4.61,17.77,17.77,0,0,1,5-6A20.6,20.6,0,0,1,27.17,6,27.76,27.76,0,0,1,32,5.84a35.3,35.3,0,0,1,9.22,1.7,31.61,31.61,0,0,1,11.28,6.23q3.71,3.22,7.39,6.48l1.21,1.07q11.65,10.33,23,20.94a6.9,6.9,0,0,1,2.13,5.55,10.49,10.49,0,0,1-1.78,5.62A9.61,9.61,0,0,1,81,56.35a15.44,15.44,0,0,1-6.8,1.74,16.76,16.76,0,0,1-8.42-1.64,6.8,6.8,0,0,1-1.4-.91C59.08,51,53.77,46.49,48.55,41.89c-3.21-2.83-6.29-5.8-9.42-8.72a8.15,8.15,0,0,0-3.25-1.94,5.55,5.55,0,0,0-3.81.25c-.34.14-.67.32-1,.49a6.24,6.24,0,0,0-3.49,5.26A14.42,14.42,0,0,0,28.25,43c1,3.55,1.92,7.12,3,10.64,1.53,4.8,3.12,9.59,4.85,14.32a28.45,28.45,0,0,0,5,8.76c.5.59,1,1.19,1.54,1.72q5.26,5.11,10.55,10.19c1,1,2.08,1.83,3.14,2.71A7.08,7.08,0,0,0,63.8,92.5a12.93,12.93,0,0,0,6-4.83,11.06,11.06,0,0,1,5.11-4.16,34.29,34.29,0,0,1,3.35-1C82.51,81.4,86.77,80.26,91,79.2q5.76-1.43,11.55-2.68c2.2-.48,4.44-.82,6.67-1.15a11.39,11.39,0,0,1,4.64.48,15.56,15.56,0,0,1,7.37,5,19.77,19.77,0,0,1,4.1,7.49c1.14,3.56,2.16,7.16,3.22,10.75q1.92,6.49,3.81,13c.86,3,1.71,5.92,2.59,8.87q2.87,9.65,5.76,19.3,2.7,9,5.46,17.89c.82,2.66,1.66,5.32,2.51,8a5,5,0,0,0,3.49,3.51,4.08,4.08,0,0,0,4.71-1.91,13.94,13.94,0,0,0,.66-1.36q2.73-6.28,5.45-12.56c.43-1,.82-2,1.23-3a3.76,3.76,0,0,0,0-2.8,21.81,21.81,0,0,0-1.18-2.52,36.72,36.72,0,0,1-2.4-4.84,8.58,8.58,0,0,1,1.25-8.5,5.57,5.57,0,0,1,1.34-1.23,11.31,11.31,0,0,1,6.6-2.27,8.28,8.28,0,0,1,5.9,2.19,11.34,11.34,0,0,1,1.73,2.37c1,1.67,1.87,3.39,2.8,5.09,1.89,3.47,3.8,6.93,5.66,10.42,1.11,2.08,2.16,4.2,3.22,6.31a7.2,7.2,0,0,1,.51,1.42,2.38,2.38,0,0,1-.67,2.54c-1.67,1.52-3.3,3.08-5,4.59-2.94,2.65-5.91,5.27-8.86,7.91a3.37,3.37,0,0,0-1.15,1.77,3,3,0,0,0,.61,2.48,14.84,14.84,0,0,0,1.3,1.51,4.1,4.1,0,0,1,1.14,2.4,2.11,2.11,0,0,1-.85,1.95c-.7.6-1.41,1.19-2.09,1.81a49,49,0,0,1-6.36,5,17.89,17.89,0,0,1-9.54,2.93,18.33,18.33,0,0,1-6-.82,9.15,9.15,0,0,1-3-1.59C145,185.47,140.87,182,137,178.17c-2.68-2.62-5.43-5.17-8.2-7.69q-10.16-9.21-20.38-18.36c-1.5-1.35-3-2.73-4.51-4.14l.52-.62-1-.27-.49.51.48.58-.54.65-.58-.44.54-.77-.58-.58-.64.64.59.62-.53.72.45.56-.52.63-.64-.43-.65.58-.73-.53-.62.57c-.36-.22-.71-.42-.57-.92l-1,1.14.94.43.58-.53.66.55-.49.68.36.74c.26-.21.54-.41.79-.64s.61-.64.92-1l.37.31,20,18.21q12.32,11.23,24.64,22.44a14.86,14.86,0,0,0,5.33,3.1,19.81,19.81,0,0,0,5.07.93A15.93,15.93,0,0,0,169,191.23c3-2.9,5.91-6,8.85-9a3.09,3.09,0,0,0,.94-2.14,5.5,5.5,0,0,0-1.55-4.05,13,13,0,0,1-1.08-1.17c-.74-1-.69-1.48.22-2.34s1.62-1.45,2.44-2.18c2.27-2,4.55-4,6.8-6,1.65-1.5,3.26-3.05,4.87-4.59a3.37,3.37,0,0,0,1-2.66A6.31,6.31,0,0,0,190.83,154.44ZM100.22,149l-.63-.53.59-.71.67.57ZM51,103.25a3.55,3.55,0,0,1,.5.27c.74.56,1.48,1.13,2.2,1.72,3.51,2.84,7,5.7,10.53,8.52,4.25,3.41,8.36,7,12.38,10.66l23.82,21.68a5.75,5.75,0,0,1,.54.65l-.75.82L50.9,103.37Zm49.36,48.45-.64-.53.6-.71.68.53Zm3-2.9a3,3,0,0,1,.35.25q15.64,14.2,31.27,28.42c2.67,2.43,5.28,4.94,8,7.36,1.57,1.43,3.24,2.75,4.85,4.14a13.5,13.5,0,0,0,7.59,3.18,19.41,19.41,0,0,0,8-.66,20.8,20.8,0,0,0,5.29-2.4,12.82,12.82,0,0,1-3.71,3.15,13.55,13.55,0,0,1-6.16,2c-4.34.2-8.31-.76-11.63-3.79Q125,170.24,102.88,150.08c-.15-.14-.29-.29-.49-.49Z" fill="#fff"/></svg>