<svg id="Layer_1" data-name="Layer 1" xmlns="http://www.w3.org/2000/svg" viewBox="0 0 200 200"><title>Circuits</title><path d="M194.37,45.59c-1.59-2.41-3.75-4-6.76-4.1-2.78-.06-5.33.92-7.86,1.93A8.29,8.29,0,0,0,174.66,49c-3.68,11.75-7.5,23.46-11.13,35.23a40.89,40.89,0,0,1-9.68,16,16,16,0,0,1-4,3c-2.42,1.31-4.76.39-6-2a7.54,7.54,0,0,1-.61-5.72,19.33,19.33,0,0,0,.89-5.7c-.32-6.62-1-13.22-1.34-19.84a19.53,19.53,0,0,1,5.53-15.23c9.36-9.85,18.48-19.91,27.73-29.86a14.63,14.63,0,0,0,3.92-10.21A6.71,6.71,0,0,0,175,7.81a16.32,16.32,0,0,0-5.2-.63,100.2,100.2,0,0,0-22.6,3.88,9.89,9.89,0,0,0-5,3,42,42,0,0,0-8.23,14c-1,3.07-2,6.18-2.86,9.31q-7.55,27.12-15,54.26a23.69,23.69,0,0,1-4.46,8.58A9.49,9.49,0,0,1,105.5,104c-4.43.67-8.83,1.57-13.24,2.35-6.81,1.21-13.62,2.45-20.45,3.57-2.21.36-4.37.75-5.83,2.59-2.56,3.24-2.92,7.22,2.4,8.67l.31.08c3.38.72,6.76,1.41,10.13,2.17,2.44.55,4.88,1.13,7.29,1.79a3.79,3.79,0,0,1,2.79,2.87,9.59,9.59,0,0,1-9.23,9.41c-7.47,0-14.95,0-22.42,0-3.31,0-6.65-.2-9.93.12a12.5,12.5,0,0,0-9.18,5c-2.28,3.05-4.73,6-7.22,8.87-8,9.34-16.11,18.63-24.15,28a5.91,5.91,0,0,0,.42,8.69,21.7,21.7,0,0,0,6.9,4.27,3.88,3.88,0,0,0,2.52.21,32.67,32.67,0,0,0,5.6-2.46c4.61-2.65,9-5.63,13.72-8.17,12.64-6.87,25.36-13.58,38.05-20.36h0l3.74-2h0c.44-.26.87-.52,1.31-.76q28.11-15.28,56.24-30.52c13.72-7.39,27.52-14.64,41.26-22a83.28,83.28,0,0,0,9.66-5.63c4-2.92,6.8-6.79,7.26-12,1.19-13.68,1.29-27.39,1.45-41.11A3.93,3.93,0,0,0,194.37,45.59Zm-118.88,112,39.09-21c5.31-2.85,10.66-5.63,15.91-8.58,2.11-1.18,4-2.73,6-4.1,4.77-3.25,10.07-5.35,15.46-7.28,1-.36,2-.8,3.08-1.09-3.74,2-7.49,4-11.23,6Q122.57,133,101.31,144.45c-8.27,4.48-16,8.72-24.24,13.21l-1.1.55c-4.56,2.44-12.24,6.63-16.81,9.05a1.34,1.34,0,0,1-.29.08l-.14-.23c3.06-1.79,6.11-3.6,9.18-5.36,1.49-.86,6.89-3.84,8.42-4.63Zm-2.7,1c-2.29,1.26-4.58,2.42-6.78,3.73-4.93,2.95-9.76,6.06-14.74,8.93-6.14,3.53-12.41,6.82-18.57,10.32-4.23,2.4-8.36,5-12.54,7.46-.7.41-1.46.72-2.17,1.1a3.94,3.94,0,0,1-4.46-.13c-1.64-1.15-3.45-2.09-5-3.38A3.8,3.8,0,0,1,8.29,181c7.26-8.41,14.58-16.78,21.82-25.22,3.44-4,6.77-8.14,10.09-12.26a10.55,10.55,0,0,1,8-3.84c4.18-.23,8.38,0,12.58,0,6.35,0,12.69,0,19,0A11.62,11.62,0,0,0,91,128.13a5.65,5.65,0,0,0-4.19-4.81c-3.06-.83-6.17-1.49-9.26-2.2-2.85-.65-5.73-1.2-8.57-1.9-3.19-.78-3.43-2.54-1.46-5.25a4.81,4.81,0,0,1,3.28-1.75c7.62-1.3,15.23-2.64,22.84-4,4.31-.76,8.61-1.57,12.93-2.3a8.66,8.66,0,0,0,4.37-2.22,22.91,22.91,0,0,0,6.94-11.18c4.6-16.55,9.08-33.14,13.71-49.69,1.52-5.43,3.17-10.84,5.06-16.15a36.31,36.31,0,0,1,6.46-10.64,8.28,8.28,0,0,1,4.21-2.86,98.6,98.6,0,0,1,22.9-4,12.55,12.55,0,0,1,3.66.38,4.88,4.88,0,0,1,4,5.37,12.53,12.53,0,0,1-3.25,8.28c-9.34,10.06-18.58,20.21-28,30.18a21,21,0,0,0-5.92,16.1c.28,6.23.83,12.46,1.33,18.68a15.81,15.81,0,0,1-.68,6.36,8.93,8.93,0,0,0,.37,7c2,4.07,5.67,5.37,9.66,3.25,2.85-1.51,4.85-3.94,6.82-6.39a46.64,46.64,0,0,0,8.19-16.13c3.24-10.74,6.77-21.4,10.08-32.12A6.93,6.93,0,0,1,181.36,45a40.85,40.85,0,0,1,5.83-1.42c2.38-.3,4.05,1.15,5.38,3a2.11,2.11,0,0,1,.3,1.2c-.17,13.75-.26,27.5-1.49,41.21a13.7,13.7,0,0,1-4,8.1c-2.46,2.69-5.6,4.37-8.79,6-8.13,4.08-16.24,8.19-24.42,12.15-2.82,1.36-5.84,2.29-8.77,3.44a49.55,49.55,0,0,0-11.14,6.24,105,105,0,0,1-12.47,7.35q-18,9.69-36,19.32c-3.35,1.8-6.69,3.65-10,5.47a5.32,5.32,0,0,1-.54.22Z" fill="#fff"/><rect x="62.35" y="160.11" width="1.22" height="1.22" transform="translate(-71.88 52.96) rotate(-29.98)" fill="#fff"/><rect x="64.01" y="160.56" width="1.22" height="1.22" transform="translate(-71.88 53.85) rotate(-29.98)" fill="#fff"/><rect x="64.46" y="158.89" width="1.22" height="1.22" transform="translate(-70.99 53.85) rotate(-29.98)" fill="#fff"/><rect x="63.57" y="162.22" width="1.22" height="1.22" transform="translate(-72.78 53.85) rotate(-29.98)" fill="#fff"/><rect x="65.23" y="162.67" width="1.22" height="1.22" transform="translate(-72.78 54.74) rotate(-29.98)" fill="#fff"/><rect x="65.68" y="161" width="1.22" height="1.22" transform="translate(-71.88 54.75) rotate(-29.98)" fill="#fff"/><rect x="64.79" y="164.34" width="1.22" height="1.22" transform="translate(-73.67 54.74) rotate(-29.98)" fill="#fff"/><rect x="66.45" y="164.78" width="1.22" height="1.22" transform="translate(-73.67 55.64) rotate(-29.98)" fill="#fff"/><rect x="66.9" y="163.12" width="1.22" height="1.22" transform="translate(-72.78 55.64) rotate(-29.98)" fill="#fff"/><rect x="66.01" y="166.45" width="1.22" height="1.22" transform="translate(-74.56 55.64) rotate(-29.98)" fill="#fff"/><rect x="67.67" y="166.9" width="1.22" height="1.22" transform="translate(-74.56 56.53) rotate(-29.98)" fill="#fff"/><rect x="68.12" y="165.23" width="1.22" height="1.22" transform="translate(-73.67 56.53) rotate(-29.98)" fill="#fff"/><rect x="67.23" y="168.56" width="1.22" height="1.22" transform="translate(-75.46 56.53) rotate(-29.98)" fill="#fff"/><rect x="69.34" y="167.35" width="1.22" height="1.22" transform="translate(-74.56 57.42) rotate(-29.98)" fill="#fff"/></svg>