<svg id="Layer_1" data-name="Layer 1" xmlns="http://www.w3.org/2000/svg" viewBox="0 0 200 200"><title>Circuits</title><path d="M69.6,113.82c3.17.72,6.77,1.65,8.72,5.44a37.7,37.7,0,0,0,1.94,3.45,2.59,2.59,0,0,0,3.44,1.16,47.15,47.15,0,0,0,5.61-2.76c1.51-.88,1.54-1.61.07-2.52a84.67,84.67,0,0,0-8.12-4.6c-4.81-2.29-9.71-4.38-14.6-6.49a3.15,3.15,0,0,1-1.43-4.91,12.33,12.33,0,0,1,2.4-2.08C81.77,90.32,96.1,80.36,110,69.87A445.25,445.25,0,0,0,160.51,25c5.87-6,11.61-12.15,17.41-18.23.38-.4.75-.82,1.16-1.19,1.43-1.31,3-1.65,4.32-1a3.94,3.94,0,0,1,2.18,4.48c-.37,2.23-.83,4.44-1.22,6.66Q181.17,33.87,178,51.95a10,10,0,0,1-3,5.81c-5.12,4.7-10.31,9.32-15.51,13.93a12.39,12.39,0,0,1-5.72,2.71c-2.5.55-5,1.21-7.46,1.81a4.36,4.36,0,0,0-3.42,3.26c-.49,1.72-1,3.44-1.52,5.15-.36,1.14-.73,2.28-1.19,3.37a5,5,0,0,1-4.44,3.34l-9.56.71c-1.06.08-2.13.15-3.18.3a8.37,8.37,0,0,0-5.59,3.27c-3.39,4.31-4.52,8.94-2.49,14.24a35.18,35.18,0,0,1,1.64,6.39,5.18,5.18,0,0,1-1.42,4.23c-1.65,2-3.21,4.1-4.81,6.14a4.14,4.14,0,0,0-.74,4.2c.43,1.2.78,2.43,1.15,3.66a7.65,7.65,0,0,1-.63,6.06L96.28,166.19c-.14.26-.3.52-.44.78-1,1.89-.84,2.72.74,4.15l14.19,12.93c1.73,1.58,3.44,3.19,5.2,4.74a3.41,3.41,0,0,1,1.15,4,4.12,4.12,0,0,1-3.84,2.89c-2.16-.15-4.31-.5-6.46-.84q-20-3.15-40-6.33l-44.58-7.07c-1.18-.19-2.35-.42-3.54-.55-1.76-.19-3.28-.83-4-2.51s-.07-3.42,1-4.79c5.63-7.4,11.33-14.74,17-22.1l1.24-1.63c2.43-3.16,4.26-3.73,8.13-2.58a165.22,165.22,0,0,1,25.58,9.64c3.9,1.9,7.19.6,10.57-1a3.16,3.16,0,0,0,1.34-1.49,73.63,73.63,0,0,0,3.38-8c1.06-3.31-.16-6.48-1.4-9.53a4.18,4.18,0,0,0-1.42-1.43c-5.81-4.48-11.64-8.93-17.44-13.42-2.63-2-2.47-4.51.38-6.27A12.53,12.53,0,0,1,69.6,113.82Zm-2.24-9.33,1.57.73c5.69,2.63,11.4,5.2,17,7.92a32.89,32.89,0,0,1,5.42,3.37c2.68,2,2.63,5.08-.19,6.86a35.74,35.74,0,0,1-6.77,3.28c-2.8,1-5.11,0-6.7-2.47a22.48,22.48,0,0,1-1.5-2.68,7.8,7.8,0,0,0-11.08-3.64c-1.52.82-1.62,1.23-.26,2.28,5.74,4.43,11.49,8.85,17.21,13.31a6.76,6.76,0,0,1,2,2.23c2.09,4.49,2.8,9.14.87,13.88a55.53,55.53,0,0,1-2.88,6.12,5.81,5.81,0,0,1-2.33,2.44,37.74,37.74,0,0,1-7.3,2.62,7.88,7.88,0,0,1-4.33-.56c-4.28-1.68-8.42-3.74-12.73-5.35-4.83-1.81-9.77-3.32-14.67-4.91a3.46,3.46,0,0,0-4.23,1.17q-9.32,12.28-18.68,24.54c-1,1.32-.78,1.9.82,2.29.25.06.5.12.75.16l40.29,6.38L98,190.53c4.8.76,9.6,1.55,14.41,2.24.6.08,1.27-.41,1.91-.64-.26-.54-.49-1.09-.78-1.6-.12-.21-.37-.34-.56-.52-6-5.5-12.07-10.95-18-16.51-3-2.83-3.27-4.8-1.33-8.43q6.83-12.81,13.74-25.58a5.2,5.2,0,0,0,.56-4.17c-.38-1.27-.77-2.53-1.17-3.79a6.45,6.45,0,0,1,.91-6.08,75.43,75.43,0,0,1,4.81-6.3,4.57,4.57,0,0,0,.91-5.06c-.58-1.69-1.11-3.4-1.71-5.09-3-8.44,3.23-19.69,13.23-19.81,2.85,0,5.71-.28,8.56-.45,3.17-.19,3.8-.69,4.71-3.68.68-2.24,1.3-4.5,2-6.74a6.41,6.41,0,0,1,4.67-4.65q3.46-.91,6.93-1.77c2.07-.51,4.19-.93,5.85-2.41q7.72-6.91,15.41-13.86a7.35,7.35,0,0,0,2.17-4.39Q177.73,36.61,180.3,22c.77-4.37,1.6-8.72,2.35-13.09a4.31,4.31,0,0,0-.31-1.49,12,12,0,0,0-1.53.57c-.29.15-.48.48-.71.73q-6.33,6.7-12.66,13.39a481.39,481.39,0,0,1-67,58.64c-10.23,7.4-20.55,14.68-30.82,22C68.9,103.25,68.25,103.79,67.36,104.5Z" fill="#fff"/></svg>