<svg id="Layer_1" data-name="Layer 1" xmlns="http://www.w3.org/2000/svg" viewBox="0 0 200 200"><title>Circuits</title><path d="M46.31,80.5l-1.58-3,.28-.21c.26.16.63.25.75.48,1.18,2.22,2.42,1.42,3.91.27,9.63-7.43,19.3-14.8,29-22.21C92,45.54,105.4,35.34,118.68,25c5-3.86,9.95-7.43,16.22-8.86a33.92,33.92,0,0,1,24.34,3.44c5.84,3.14,9.85,8.29,13.75,13.49,4.73,6.3,9.66,12.44,14.23,18.86,5,7.09,6.65,15.09,5.54,23.72A30.9,30.9,0,0,1,182.8,95c-4.47,4.1-9.44,7.67-14.26,11.38q-16.13,12.43-32.34,24.76-15.37,11.77-30.74,23.55c-8.86,6.8-17.6,13.78-26.59,20.41-11.65,8.6-24.1,9.07-36.84,2.6-5.1-2.59-8.8-6.84-12.19-11.42-5.24-7.1-10.88-13.91-16-21.1-4.84-6.8-6.46-14.54-5.48-22.88a30.79,30.79,0,0,1,8.13-18A86.18,86.18,0,0,1,26.23,96C32.84,90.76,39.55,85.69,46.31,80.5Zm12.91,98.84c2.81-.55,5.66-.95,8.41-1.68,5.78-1.55,10.21-5.41,14.81-9q15.15-11.7,30.32-23.37c9.38-7.19,18.83-14.3,28.22-21.5,11.66-8.94,23.27-18,35-26.87,3.91-3,7.61-6.14,10.1-10.46a31,31,0,0,0-2.25-34.56C178.51,45,173.36,38,167.84,31.3c-2.6-3.16-5.55-6.43-9.06-8.36-10.4-5.71-21-4.74-30.76,1.6-6.81,4.42-13,9.74-19.52,14.67Q95.82,48.86,83.18,58.54,65.65,72,48.15,85.46C43.76,88.84,39.28,92.11,35,95.58c-6.21,5-13.32,9-17.92,15.85a31.4,31.4,0,0,0-5.55,18.11c0,5.89,2.32,11,5.83,15.65,5.42,7.11,10.91,14.17,16.35,21.26C40.11,174.83,48.56,179.06,59.22,179.34Zm-10-97.17.23.53a3.28,3.28,0,0,0,1.29-.18c.78-.5,1.47-1.15,2.21-1.71L78.42,61.38q13.66-10.45,27.31-20.92c5-3.82,9.87-7.73,14.86-11.53,4.77-3.64,9.5-7.38,15.47-9,1.87-.49,3.77-.91,6.06-1.47-5.69-.49-12.16,1.6-17.83,5.9C113.12,32.89,102,41.51,90.9,50Q71.55,64.85,52.18,79.61C51.15,80.4,50.23,81.31,49.26,82.17ZM13.61,115.49c1.44-2.14,2.79-4.34,4.33-6.4,3.46-4.6,8.36-7.61,12.79-11.11,5.75-4.55,11.64-8.92,17.43-13.41.37-.28.45-.93.67-1.41l-.57-.31c-.56.36-1.14.67-1.66,1.07-5.09,3.9-10.24,7.73-15.24,11.74s-11,7.49-14.77,13.1C15.18,110.82,13.86,112.91,13.61,115.49Z" fill="#fff"/></svg>