<svg id="Layer_1" data-name="Layer 1" xmlns="http://www.w3.org/2000/svg" viewBox="0 0 200 200"><title>Circuits</title><path d="M100.86,60.71c.43-.51.84-1,1.22-1.43A7.86,7.86,0,0,1,110,56.5a19,19,0,0,1,8,3.72,59.12,59.12,0,0,1,8.86,8.26A154.18,154.18,0,0,1,139,84.07a80.72,80.72,0,0,1,5.9,9.3c1.85,3.62,3.66,7.27,5.4,11,1.35,2.86,2.59,5.78,3.81,8.7a34.39,34.39,0,0,1,1.3,4,4.08,4.08,0,0,1-1.12,4.11l-1.15,1.22a3.92,3.92,0,0,0-1.07,4,44.18,44.18,0,0,0,1.6,4.76q3.45,8.33,7.39,16.45A128,128,0,0,0,167.9,160,55.09,55.09,0,0,0,179,172.6c2.86,2.43,5.61,5,8.39,7.51a11,11,0,0,1,1.48,1.66,5.73,5.73,0,0,1,.73,1.49,2,2,0,0,1-.35,2,13.77,13.77,0,0,1-1.94,1.87,2.8,2.8,0,0,1-2.81.31,8.06,8.06,0,0,1-2.81-1.79c-1.91-1.82-3.82-3.63-5.63-5.54a15.38,15.38,0,0,0-4.55-3.33,177.46,177.46,0,0,1-15.72-8.65c-5.25-3.18-10.55-6.31-15.84-9.43a43.12,43.12,0,0,1-5.87-4.4q-11.27-9.54-22.49-19.15c-7-6-14-12-21-18q-7.32-6.25-14.68-12.44a4.48,4.48,0,0,1-1.74-3.92,5.36,5.36,0,0,1,.34-1.55,1.1,1.1,0,0,0-.38-1.4c-1.26-1.06-2.51-2.14-3.77-3.21q-7-6-14-12c-5.21-4.43-10.45-8.82-15.64-13.28-2.2-1.89-4.35-3.84-6.43-5.86a45.54,45.54,0,0,1-7-9.39l-5.07-8.41-.21-.34a1.46,1.46,0,0,0-1.69-.74c-1.07.23-2.13.45-3.21.65a17.57,17.57,0,0,1-2,.25,3.82,3.82,0,0,1-3.3-1.43,5.6,5.6,0,0,1-.86-6.53,8.69,8.69,0,0,1,4-4.11c.8-.42,1.61-.82,2.45-1.17a44.87,44.87,0,0,1,16.4-3.69c3.12-.07,6.23.07,9.33.3,2,.15,4,.39,6,.67a13.9,13.9,0,0,1,2.53.69,5.71,5.71,0,0,1,3.36,3c.36.74.69,1.5,1,2.26A2.37,2.37,0,0,0,57.45,37a14.53,14.53,0,0,0,1.45.45c3.16.74,6.32,1.5,9.49,2.19a30.11,30.11,0,0,0,6.2.5,38.34,38.34,0,0,1,4.46.27,12.94,12.94,0,0,1,7.27,3.72,67.62,67.62,0,0,1,6.29,7.11c2.05,2.55,4.1,5.1,6.17,7.64A6.92,6.92,0,0,0,100.86,60.71Zm85.21,123c-.56-.58-1.07-1.15-1.64-1.66-2.71-2.43-5.41-4.88-8.18-7.26a57.6,57.6,0,0,1-7.53-7.69,84.22,84.22,0,0,1-8.72-14c-3.21-6.19-6.07-12.55-8.78-19a40.82,40.82,0,0,1-2.32-6.87,7.61,7.61,0,0,1,2-7.49c.24-.25.47-.52.73-.74a1.52,1.52,0,0,0,.48-1.8c-.15-.45-.29-.91-.49-1.35-2.13-4.76-4.23-9.53-6.43-14.26a89.61,89.61,0,0,0-7.16-12.81,170.34,170.34,0,0,0-13.35-17.51,59.11,59.11,0,0,0-8.82-8.31A20.93,20.93,0,0,0,111,60c-2.78-1.06-4.77-.5-6.54,1.69a10.68,10.68,0,0,1-1.91,1.79,2.9,2.9,0,0,1-3.24.22,6.86,6.86,0,0,1-1.55-1.1,26,26,0,0,1-2.24-2.38c-2.37-2.91-4.67-5.87-7.06-8.77-1.35-1.64-2.77-3.23-4.23-4.78a9.62,9.62,0,0,0-6.86-3.13q-1.83-.06-3.67-.07a30.9,30.9,0,0,1-6.73-.72c-1.92-.43-3.85-.83-5.76-1.32-1.7-.44-3.39-.92-5-1.5a5.62,5.62,0,0,1-3.38-3.3c-.24-.56-.5-1.12-.74-1.68a3.17,3.17,0,0,0-2.29-1.92,13.2,13.2,0,0,0-2.19-.39c-3.42-.23-6.85-.44-10.28-.6a39.44,39.44,0,0,0-15.69,2.29,44,44,0,0,0-5.21,2.22,8.05,8.05,0,0,0-1.53,1c-1.58,1.36-1.71,2.57-.73,4,.48.73.49.77,1.34.58l.31-.07c1.33-.25,2.66-.56,4-.74a4.83,4.83,0,0,1,4.87,2.08c.35.5.72,1,1,1.51,1.28,2.09,2.54,4.19,3.81,6.28A74.17,74.17,0,0,0,34,58.21a47.82,47.82,0,0,0,7,7Q52.07,74.64,63.16,84q6,5.1,11.92,10.26a18.09,18.09,0,0,1,2.07,2.21A3.64,3.64,0,0,1,77.8,100c-.08.28-.17.56-.26.84-.22.71-.21.73.37,1.21s1.3,1,1.92,1.56L107,126.79q13.78,11.77,27.56,23.54a68.23,68.23,0,0,0,10.35,7.45c4.75,2.73,9.46,5.54,14.15,8.36,3.65,2.2,7.33,4.33,11.14,6.23,1.36.67,2.73,1.32,4,2.08a18.74,18.74,0,0,1,3.12,2.21c1.38,1.25,2.61,2.66,3.91,4,1.08,1.1,2.17,2.2,3.29,3.26C185.23,184.53,185.37,184.48,186.07,183.67Z" fill="#fff"/></svg>