<svg id="Layer_1" data-name="Layer 1" xmlns="http://www.w3.org/2000/svg" viewBox="0 0 200 200"><title>Circuits</title><path d="M95.13,168.43c1-3.68,1-3.74-2.43-6.23-7.84-5.64-15.86-11-23.56-16.88-5.43-4.12-10.47-8.76-15.65-13.21a9.22,9.22,0,0,0-4.73-2.38c-1.56-.26-3.14-1.71-4.25-3a8.81,8.81,0,0,0-4.7-3.11c-2.37-.68-4.56-2.37-6.53-4-4.28-3.5-8.57-7-12.49-10.92-5.46-5.41-6.52-12.13-4.07-19.21s5.21-13.75,8-20.55c4.27-10.44,8.7-20.81,13-31.25.36-.89-.06-2.12-.22-3.18-.23-1.54-.86-3.08-.76-4.59C37,26.15,37.9,22.39,38,18.62,38.12,7.73,49,4.84,55.52,8.07c5.35,2.65,10.58,5.56,15.71,8.6,3,1.75,4.15,4.78,4,8.17-.38,9.34-1.05,18.66-1.19,28-.06,4,.8,8,1.48,11.92,2.24,12.95,4.59,25.87,6.91,38.8.59,3.29,1.29,6.56,1.84,9.86a5.72,5.72,0,0,0,2.77,3.91,25.6,25.6,0,0,1,5.72,4.74c1.32,1.67,1.76,4,2.66,6a5.77,5.77,0,0,0,1.45,2.33c7.63,5.58,15.32,11.06,23,16.6,14.24,10.3,28.53,20.53,42.68,31,6,4.41,6.21,12.17.61,16.58a12.89,12.89,0,0,1-10.35,2.64c-3.94-.69-7.77-2-11.67-2.89-1.24-.3-2.68-.06-3.77-.59a46.08,46.08,0,0,1-6.16-3.78c-1-.69-1.6-1.91-2.59-2.6-9.46-6.63-19-13.14-28.43-19.83-1.86-1.32-3.09-1.76-4.24.56C95.87,168.26,95.48,168.29,95.13,168.43Zm6.23-8.67a7.68,7.68,0,0,0,1.4,2.24c2.34,1.79,4.83,3.38,7.23,5.1,9.4,6.76,18.85,13.45,28.15,20.34,5,3.73,10.13,6.71,16.74,6.37,5.21-.27,9.28-3.43,8.51-7.87a10,10,0,0,0-3.61-5.73c-12.89-9.52-26-18.79-39-28.15q-13-9.38-26.06-18.8a5.88,5.88,0,0,1-2.86-4.92c0-2.39-1.23-4-2.93-5.4a40.3,40.3,0,0,0-4.31-3,6.63,6.63,0,0,1-3.45-4.58c-.48-2.62-1-5.23-1.51-7.85-2-10.85-4-21.7-5.95-32.57-1.12-6.22-2.87-12.44-3-18.69-.25-10.23.48-20.49,1-30.74.14-2.94-.76-5.09-3.23-6.49C63.75,16.38,59,13.7,54.12,11.19a8.47,8.47,0,0,0-12.52,6.46q-.81,5.52-1.29,11.09c-.12,1.39-.28,3.18.44,4.15,1.68,2.25,1.11,4.26.21,6.4-3.9,9.31-7.88,18.58-11.73,27.91-3,7.37-6,14.77-8.89,22.23-2.73,7.14-1.25,13.47,4.44,18.58,3.6,3.23,7.43,6.21,11.22,9.23,1.41,1.12,2.91,2.75,4.49,2.9,3.14.3,4.86,2.05,6.58,4.27a8.16,8.16,0,0,0,2.73,2c1.5.77,3.35,1,4.62,2C61.34,134,68,139.76,74.95,145.29c2.55,2,5.19,4.12,8.91,3.85,1-.08,2.22.83,3.18,1.51,3.9,2.73,7.72,5.58,11.63,8.29A9.26,9.26,0,0,0,101.36,159.76Zm33.17,26.38c-.14-.24-.22-.56-.42-.7q-16-11.53-32.13-23c-.44-.32-1.18-.22-1.78-.31l-.35.86C111.15,171,122.16,179.52,134.53,186.14Zm-51.6-36.33-.3.64a3.82,3.82,0,0,0,.66.85c4.78,3.42,9.57,6.84,14.39,10.21.39.27,1,.15,1.58.21-.26-.63-.34-1.52-.81-1.87q-6.38-4.69-12.89-9.19A9.72,9.72,0,0,0,82.93,149.81Z" fill="#fff"/></svg>