<svg xmlns="http://www.w3.org/2000/svg" viewBox="0 0 200 200"><title>Circuits</title><g id="Isolation_Mode" data-name="Isolation Mode"><rect x="132.8" y="183.11" width="1.76" height="1.76" fill="#ed0f4e"/><rect x="132.8" y="186.64" width="1.76" height="1.76" fill="#ed0f4e"/><rect x="132.8" y="190.26" width="1.76" height="1.76" fill="#ed0f4e"/><rect x="131.04" y="184.88" width="1.76" height="1.76" fill="#ed0f4e"/><rect x="134.57" y="184.88" width="1.76" height="1.76" fill="#ed0f4e"/><rect x="132.8" y="193.78" width="1.76" height="1.76" fill="#ed0f4e"/><rect x="131.04" y="192.02" width="1.76" height="1.76" fill="#ed0f4e"/><rect x="134.57" y="192.02" width="1.76" height="1.76" fill="#ed0f4e"/><rect x="131.04" y="195.55" width="1.76" height="1.76" fill="#ed0f4e"/><rect x="134.57" y="195.55" width="1.76" height="1.76" fill="#ed0f4e"/><path d="M36.82,104.77h0Z" fill="#ed0f4e"/><path d="M188.23,178.56c0-4.86-1.69-9.2-4-13.37-1.2-2.13-2.43-4.26-3.46-6.48a26.4,26.4,0,0,0-10.17-11.82c-5.72-3.5-11.54-6.84-17.15-10.51a54.52,54.52,0,0,1-6.94-6,4.52,4.52,0,0,1-1.28-2.39,20.09,20.09,0,0,0-4.18-8.79q-18.59-24.5-37.23-48.93c-1.46-1.9-3-3.76-4.46-5.63L99,64.12s0,0,0,0c-.41-.58-.81-1.17-1.25-1.74q-15.5-20.52-31-41C59.62,11.83,50.19,6.2,38.29,4.94c-3.33-.35-6.72-.57-9.95.74l.05,0a13.12,13.12,0,0,0-1.76.5A19.27,19.27,0,0,0,15.72,18.35,38.19,38.19,0,0,0,15,39.59q6.49,27.57,13.28,55.07a19.77,19.77,0,0,0,2.52,5.7,9.22,9.22,0,0,0,6,4.4c0-.05,0,0,0,0l.67.17a7.35,7.35,0,0,0,1.27.44,12.79,12.79,0,0,0,9.86-2.47q12.89-9.72,25.73-19.49c2.27-1.74,3.8-1.59,5.49.79l20.07,28.17c.31.43.57.9,1,1.54-.76.07-1.26.15-1.76.16l-29.21.79c-9.94.28-19.88.5-29.82.88-4.44.17-7.57,2.57-9.48,6.54A18.45,18.45,0,0,0,29.36,133c1.31,9.7,2.64,19.39,3.88,29.09.65,5.15,1.28,10.27,4.29,14.74l8.94,9.45a24.22,24.22,0,0,0,15.58,5.91c12,.13,24,.16,36,.2H131v-.62c0-.47-.06-.91-.1-1.49h1.91c.11-.63-.11-1.23,0-1.85-10.12,0-20.11,0-30.23,0l-.1-.56c1-.49,2-.93,3-1.5a22.13,22.13,0,0,1,13.48-3c3.35.26,6.74.09,10.12,0a30,30,0,0,0,3.52-.44c.06-.6-.09-1.22,0-1.93a10.45,10.45,0,0,0-1.09-.1c-6.24,0-12.48,0-18.73,0a6.71,6.71,0,0,0-2.64.58c-4.23,1.93-8.42,4-12.64,5.9A6.23,6.23,0,0,1,95,188c-10.69,0-21.39-.11-32.09-.12a22.31,22.31,0,0,1-12.52-4l-1.65-1c-2.06-2.12-4.25-4.13-6.16-6.38-3.57-4.22-4.41-9.4-5-14.7-1.18-9.75-2.57-19.47-3.87-29.2-.47-3.47-.41-6.85,1.66-9.89l.31-.58c2.13-2.08,4.83-2.21,7.58-2.28q28-.7,55.94-1.47c.36,0,.72,0,1.08,0,4.59-.39,6.36-3.94,3.72-7.68q-10.47-14.82-21-29.55C80.22,77.38,75.59,77,72,79.75,63.5,86.3,54.9,92.68,46.42,99.22c-4.62,3.57-12,2.77-13.9-5.14Q25.65,65.81,19,37.5a32.74,32.74,0,0,1,.49-16.73C21.05,15.28,24.22,10.89,30,9.64a28.42,28.42,0,0,1,10.2-.07,34.83,34.83,0,0,1,22.85,14q37.2,49.05,74.39,98.11a61.13,61.13,0,0,1,3.44,5.63l.47,1.11c.62,1.24.44,2.89,1.25,4a27.9,27.9,0,0,0,8.1,7.43c5.5,3.37,11,6.74,16.57,10a24.82,24.82,0,0,1,10.51,12.81,18.32,18.32,0,0,0,1.59,3c2.5,3.89,4.38,8,4.56,12.7a4,4,0,0,1-2.08,3.92,46.62,46.62,0,0,1-13.11,5.5,3.25,3.25,0,0,1-2.23-.41c-2.94-1.85-5.81-3.84-8.73-5.73a4,4,0,0,0-2-.7c-6.87-.06-13.73-.05-20.6-.05a2.24,2.24,0,0,0-.48.09c.05.63-.07,1.3,0,1.93a30.53,30.53,0,0,0,3.68.44c5.33.05,10.66,0,16,.07a6.29,6.29,0,0,1,3,.91,33.09,33.09,0,0,1,5.57,4.09c-9.51,0-18.85,0-28.36,0,.11.62-.11,1.22,0,1.85h1.77l.08,1.66h0v.44h31c6.74-.85,12.75-3.82,18.4-7.71a5.06,5.06,0,0,0,2.24-4.34l0,.05A12.39,12.39,0,0,0,188.23,178.56Z" fill="#ed0f4e"/></g></svg>