<svg id="Layer_1" data-name="Layer 1" xmlns="http://www.w3.org/2000/svg" viewBox="0 0 200 200"><title>Circuits</title><path d="M115.92,195.11c0-.65-.11-1.31-.12-2,0-1.93-.26-2.19-2.19-2.19H83c-11.62,0-23.24-.11-34.85.06a13.06,13.06,0,0,1-12.55-8.54c-2.08-5.15.89-12.52,6-15.08a15.74,15.74,0,0,1,7.25-1.66c10.26.05,20.52,0,30.78.06,2.54,0,4.77-.58,6.33-2.75a7.45,7.45,0,0,0-3.35-11.1c-5.7-2.28-11.24-5-16.85-7.5-2.87-1.29-4.17-3.73-4.86-6.63q-1.87-7.88-3.78-15.74c-1.44-5.93-2.92-11.85-4.35-17.79-1-4.33-2-8.68-3.07-13s-2.42-8.69-3.15-13.12-.87-8.87-1.17-13.32a45.72,45.72,0,0,1,.06-5.43,4.48,4.48,0,0,0-2-4.13c-5.45-4-10.92-8-16.31-12-3.26-2.46-6.92-4.47-9.33-7.93a12.13,12.13,0,0,1,5-18.12,25.06,25.06,0,0,1,8.87-1.9,72.81,72.81,0,0,1,12,.22c4.93.5,9.8,1.5,14.7,2.23,3.32.49,6.66.87,10,1.33,2.26.31,4.25,1.22,5.08,3.46a7.48,7.48,0,0,1,.31,3.93,2.69,2.69,0,0,0,1.25,3.06Q82,34.59,88.88,39.64c1.94,1.42,3.94,2.77,5.84,4.23a5.18,5.18,0,0,0,5.91.59c4.38-2.21,8.71-4.55,13.15-6.63a10.62,10.62,0,0,1,13.82,4l11.8,19.72a15.87,15.87,0,0,0,9.05,7.24q9.44,3,18.8,6.3c4.52,1.58,8.39,7.08,8.39,11.89,0,5.58-.13,11.16-.32,16.74-.22,6.42-.53,12.84-.87,19.26-.22,4.3-2.4,8.14-6.9,9.11s-7.74,4-11.23,6.69c-5.07,3.85-10,7.93-15.24,11.49-2.85,1.93-6.26,3.05-9.48,4.39-2.19.91-3.85,2.18-4.16,4.65s.46,4.64,2.85,5.77a7.77,7.77,0,0,0,3.2.61c7.59.05,15.19,0,22.78.06A12.72,12.72,0,0,1,169,180.52c-.9,5.69-6.13,10.37-11.65,10.4-12.67.07-25.35,0-38,0-2.72,0-2.72,0-2.78,2.79,0,.45-.07.91-.11,1.36Zm0-11.46a13.88,13.88,0,0,0,3.07.79c6.14.07,12.27,0,18.41,0a9.29,9.29,0,0,0,2.4-.15,25.27,25.27,0,0,1,9.72-.5c1.79.21,3.57.57,5.35.63a6.51,6.51,0,0,0,6.42-3.64c1.44-2.83.83-5.6-.78-8.11-1.38-2.14-3.6-2.85-6.1-2.94-7.72-.28-15.46.52-23.19-.47-2.92-.38-6.55-3.54-7.2-6.65-1.18-5.6,1.58-9.93,7-11.69a28.42,28.42,0,0,0,7.38-3.29c4.94-3.4,9.64-7.16,14.42-10.81,4.52-3.45,8.66-7.47,14.6-8.59a3.84,3.84,0,0,0,2.86-3.39,49.12,49.12,0,0,0,.63-5.38q.52-11.14.91-22.28c.12-3.37.21-6.74.08-10.11s-1.52-6.23-4.51-7.62c-3.92-1.83-8.11-3.09-12.2-4.52-3.07-1.08-6.24-1.9-9.26-3.1-5-2-8.32-5.87-11-10.44q-5.11-8.83-10.38-17.56A7,7,0,0,0,115.69,41c-4.25,2.13-8.46,4.33-12.69,6.5-3.54,1.82-7,2-10.31-.52-2.49-1.85-5-3.64-7.52-5.48-4.38-3.23-8.8-6.43-13.11-9.76a5,5,0,0,1-1.82-6.16,1.67,1.67,0,0,0-.9-2.26A8,8,0,0,0,67,22.62c-5-.72-10-1.39-15-2.11C48.47,20,45,19.27,41.44,19a51.46,51.46,0,0,0-14.1.58c-3.58.68-6.72,3.06-7.54,6.1a9.16,9.16,0,0,0,3.55,10.25c7.47,5.58,15,11,22.52,16.59a8.11,8.11,0,0,1,3.27,7.89,37.76,37.76,0,0,0,0,8.28c.62,5,1.56,9.88,2.49,14.79.54,2.85,1.29,5.66,2,8.48,1,4.22,2.15,8.43,3.18,12.66,1.09,4.48,2.09,9,3.17,13.47,1.45,6,2.88,12.08,4.43,18.09.46,1.78.56,3.88,2.7,4.76.83.34,1.66.71,2.48,1.09,5.23,2.41,10.52,4.71,15.68,7.25a10.58,10.58,0,0,1,2.59,17.23c-2.57,2.5-5.79,3.21-9.12,3.25-10.36.12-20.72.05-31.09,0a8.25,8.25,0,0,0-5,1.3A9.11,9.11,0,0,0,39,181a8.74,8.74,0,0,0,8.5,6.18c5.58,0,11.17,0,16.75,0a10.27,10.27,0,0,0,2.64-.45c4-1.12,7.93-2.38,12.2-2.33,11.32.13,22.63,0,34,.07C114.3,184.51,115.49,184.55,115.9,183.66Zm45.59-12.58-.52.38a14.53,14.53,0,0,0,.57,1.41c1.27,2.41,1.83,5,.74,7.52-2,4.64-5.78,5.56-10.54,4.68a36.23,36.23,0,0,0-10-.38c-2.84.26-5.68.52-8.53.58-4.82.09-9.65,0-14.48,0-.77,0-2-.33-2,1s1.21.83,2,1h.15c12.52,0,25,0,37.55,0a10.43,10.43,0,0,0,3.63-.73,8.73,8.73,0,0,0,3.33-13.64A24.49,24.49,0,0,0,161.49,171.08ZM71.11,186.3l.06.78a15.29,15.29,0,0,0,1.55.15H113a8,8,0,0,0,1.94-.14,1.19,1.19,0,0,0,.65-.84c0-.22-.3-.62-.56-.76a2.68,2.68,0,0,0-1.17-.21c-12.22,0-24.43-.05-36.65,0A39.76,39.76,0,0,0,71.11,186.3Z" fill="#fff"/></svg>