<svg id="Layer_1" data-name="Layer 1" xmlns="http://www.w3.org/2000/svg" viewBox="0 0 200 200"><title>Circuits</title><path d="M199,192.75a35.34,35.34,0,0,0-.53-4,5.68,5.68,0,0,0-2.06-3.21q-6.65-5.57-13.27-11.18l-48.27-40.74a12.55,12.55,0,0,0-3.87-2.49,22.65,22.65,0,0,0-7.79-1.05,21.93,21.93,0,0,0-17.6,8.23c-2.48,3-5,6-7.54,9a17.69,17.69,0,0,1-3.76,3.28,5.71,5.71,0,0,1-6.54.09A36.5,36.5,0,0,1,79.92,144a14,14,0,0,1-3.24-6.42,33.4,33.4,0,0,1-.6-3.52,12.36,12.36,0,0,1,2-8.6c1.35-2,2.74-3.89,4.07-5.87a6.14,6.14,0,0,0,1.4-4.13c-.51-4.37-1-8.76-1.64-13.11a43.26,43.26,0,0,0-5.21-15.54c-6.64-11.35-13.23-22.74-20-34-9-15-18-30-27.07-44.91A17.53,17.53,0,0,0,28.15,5.7a4,4,0,0,0-5.94-.51A10.43,10.43,0,0,0,19.15,9.7c-2,5.52-4.12,11-6.12,16.58-1.89,5.25-3.77,10.5-5.53,15.79S4.23,52.56,2.56,57.79A31.71,31.71,0,0,0,1.44,72.53q4.78,30.61,11.81,60.79A65.84,65.84,0,0,0,18.09,148,30.06,30.06,0,0,0,22,154.62a42.27,42.27,0,0,0,11.14,9,26,26,0,0,0,7.77,3.24c14.41,2.81,28.81,5.64,43.23,8.39,15.72,3,31.45,5.88,47.18,8.82l.53.1.38-2-5.32-1a12.87,12.87,0,0,1,5.49.1l.08-.44a1.19,1.19,0,0,1-.26,0,11.14,11.14,0,0,0-4.48-.15,14.7,14.7,0,0,1-5-.21q-29-5.48-58-10.91c-7.85-1.49-15.68-3.07-23.51-4.64a24.85,24.85,0,0,1-7.18-3,43.83,43.83,0,0,1-9.69-7.58,25,25,0,0,1-4.07-6.37c-2.59-5-4-10.39-5.23-15.84Q8.19,102.34,3.43,72.2a29.68,29.68,0,0,1,1-13.81C6.34,52.58,8.08,46.73,10,40.94c1.82-5.47,3.81-10.88,5.77-16.31,1.73-4.79,3.53-9.56,5.31-14.34A8.16,8.16,0,0,1,23.25,7a3.89,3.89,0,0,1,1.23-.71,1.6,1.6,0,0,1,2,.54,27,27,0,0,1,1.68,2.34c10,16.63,20.1,33.25,30.06,49.92,5.76,9.64,11.36,19.37,17,29.08A39.34,39.34,0,0,1,79.82,102c.69,4.43,1.16,8.9,1.73,13.35a3.56,3.56,0,0,1-.62,2.32c-.6,1-1.27,2-1.93,2.92-.79,1.15-1.61,2.29-2.41,3.43A14.06,14.06,0,0,0,74,133.06c.2,3.64.8,7.23,2.95,10.29a31.67,31.67,0,0,0,10.91,9.7,6.13,6.13,0,0,0,3.66.56,10,10,0,0,0,6.34-3.25c2.12-2.25,4.1-4.62,6.14-6.95,1.76-2,3.39-4.15,5.29-6a18.92,18.92,0,0,1,13.13-5.24,23.41,23.41,0,0,1,6.84.61,8.66,8.66,0,0,1,3.42,1.75q15.82,13.32,31.65,26.62Q179.67,174.07,195,187a4.4,4.4,0,0,1,1.62,2.67,19.84,19.84,0,0,1,.34,3.1c0,1-.21,1.1-1.17,1-2.44-.35-4.88-.7-7.33-1a10.44,10.44,0,0,1-4.28-1.31,15,15,0,0,0-5.33-1.89q-21.34-4-42.67-8l-.82-.15-.07.38.61.11c14.88,2.79,29.75,5.56,44.62,8.4a21,21,0,0,1,3.73,1.47l-.1.33-49-9.41-.38,2,.61.11c3,.55,6,1.09,9,1.67,11.46,2.2,22.9,4.47,34.38,6.59,5.73,1.06,11.52,1.84,17.29,2.72,1.53.23,2.24-.24,2.72-1.73A3.53,3.53,0,0,0,199,192.75Z" fill="#fff"/><rect x="133.22" y="186.97" width="0.99" height="0.99" transform="translate(232.05 395.67) rotate(-169.78)" fill="#fff"/><rect x="132.42" y="185.81" width="0.99" height="0.99" transform="translate(230.66 393.24) rotate(-169.78)" fill="#fff"/><rect x="131.26" y="186.61" width="0.99" height="0.99" transform="translate(228.23 394.63) rotate(-169.78)" fill="#fff"/><rect x="133.57" y="185.01" width="0.99" height="0.99" transform="translate(233.09 391.86) rotate(-169.78)" fill="#fff"/><rect x="132.77" y="183.86" width="0.99" height="0.99" transform="translate(231.71 389.43) rotate(-169.78)" fill="#fff"/><rect x="131.62" y="184.66" width="0.99" height="0.99" transform="translate(229.28 390.81) rotate(-169.78)" fill="#fff"/><rect x="133.92" y="183.06" width="0.99" height="0.99" transform="translate(234.14 388.05) rotate(-169.78)" fill="#fff"/><rect x="133.12" y="181.91" width="0.99" height="0.99" transform="translate(232.75 385.62) rotate(-169.78)" fill="#fff"/><rect x="131.97" y="182.71" width="0.99" height="0.99" transform="translate(230.32 387) rotate(-169.78)" fill="#fff"/><rect x="134.27" y="181.1" width="0.99" height="0.99" transform="translate(235.18 384.23) rotate(-169.78)" fill="#fff"/><rect x="133.47" y="179.95" width="0.99" height="0.99" transform="translate(233.8 381.8) rotate(-169.78)" fill="#fff"/><rect x="132.32" y="180.75" width="0.99" height="0.99" transform="translate(231.37 383.19) rotate(-169.78)" fill="#fff"/><rect x="134.63" y="179.15" width="0.99" height="0.99" transform="translate(236.23 380.42) rotate(-169.78)" fill="#fff"/><rect x="132.67" y="178.8" width="0.99" height="0.99" transform="translate(232.41 379.37) rotate(-169.78)" fill="#fff"/></svg>