<svg id="Layer_1" data-name="Layer 1" xmlns="http://www.w3.org/2000/svg" viewBox="0 0 200 200"><title>Circuits</title><path d="M43.14,167.79c-4.35-1-4.34-1-5.83,2.82-2.63,6.68-5.29,13.34-7.9,20-.65,1.66-1.35,3.18-3.53,3S23.32,191.9,23,190.2c-1.19-7.53-2.57-15-3.53-22.59-.83-6.5,1.1-12.76,2.55-19s3.1-12.18,4.5-18.3a13.58,13.58,0,0,0,.15-5.31c-1.15-6.31,1.85-10.78,6-14.95a17.4,17.4,0,0,0,3.82-5.33c2.9-7,5.25-14.16,8.34-21A58.21,58.21,0,0,1,52,72.22c6.14-8,12.61-15.69,18.94-23.52Q83.29,33.44,95.66,18.17c2.33-2.86,5.19-3.54,8.77-2.29,3.24,1.14,4.05.87,6.19-1.93,1.21-1.59,2.4-3.21,3.75-4.67,2.24-2.44,5.05-3.41,8.25-2.27,9.4,3.37,18.79,6.77,28.13,10.31,5.18,2,6.7,8.28,2.82,11.44-2.62,2.14-5.65,1.93-8.62.65s-5.68-2.54-8.52-3.82c-3.47-1.56-4.7-1.34-6.67,1.83-6.34,10.24-14.88,18.53-23.51,26.75A44.08,44.08,0,0,0,102,58.65c-2.46,3.11-3.1,6.48-.87,10.06,2.1,3.38,3.93,7,7.74,8.89A15.66,15.66,0,0,0,119.63,79c9.13-2,18.25-4,27.39-6a16.83,16.83,0,0,1,5.06-.41c4.66.46,7.35,3,8.35,7.58.25,1.16.38,2.34.62,3.51.7,3.4,2.38,5.16,5.87,5.28,4.8.16,9.62-.07,14.43-.16,1.7,0,3.4-.18,5.1-.16a7.06,7.06,0,0,1,7.29,6.87q.31,6,.27,12a11.42,11.42,0,0,1-7.36,10c-8.55,2.84-17.12,3-26.05,1.44-10.5-1.83-19.59-6.67-28.67-11.62a33.5,33.5,0,0,0-24-3.44c-3.33.72-6.71,1.18-10.09,1.65A12.3,12.3,0,0,0,89,111.26c-3.23,4.78-6.65,9.43-9.72,14.3-3.62,5.74-8.51,10.15-13.82,14.2-1.34,1-2.62,1.89-2.49,4,.06.94-1.14,2.22-2.09,2.9-2,1.46-4.25,2.65-6.42,3.91a3.36,3.36,0,0,1-1.47.49c-5.45.24-8.38,4-11.07,8a14.24,14.24,0,0,0-1.1,2.42C39.22,165.34,39.22,165.34,43.14,167.79ZM33,163.67l.42.13a17.11,17.11,0,0,0,1.85-3.09,21.66,21.66,0,0,1,8.19-11.07c4.62-3.17,9.44-6.06,14.28-8.89,7.31-4.28,13.72-9.48,18.49-16.58,3.42-5.1,7-10.12,10.36-15.23a14.87,14.87,0,0,1,10.54-6.67c5.33-.85,10.66-1.78,16-2.46A26.45,26.45,0,0,1,128.34,102c4.39,2.14,8.77,4.28,13.11,6.52,13.55,7,27.55,10.63,42.77,6.24a8.43,8.43,0,0,0,6.5-8.84c-.11-2.72-.08-5.45,0-8.18.05-4.25-1.48-5.83-5.72-5.7-5.4.16-10.79.43-16.19.52-3.68.06-7.31-.66-9.32-4.06-1.16-2-1.55-4.43-2-6.73-.85-4.34-3.25-6.27-7.65-5.85a13.11,13.11,0,0,0-1.53.26q-11.95,2.61-23.9,5.23c-4.06.9-8.11,1.79-12.31.91-6.82-1.43-10.7-6.2-13.81-11.9C94.83,64.2,97.06,58.55,101,54.71c9.91-9.64,20-19.11,27.36-31a4.68,4.68,0,0,1,5.16-2.29A71.88,71.88,0,0,1,141,23.93c2.48.93,4.88,2.12,7.41,2.89a2.83,2.83,0,0,0,3.69-1.69c.66-1.65-.05-2.88-1.38-3.83a6.66,6.66,0,0,0-1.51-.91q-13.85-5.12-27.72-10.18a3.81,3.81,0,0,0-4.43,1.17c-1.5,1.73-2.92,3.53-4.35,5.32-2.48,3.08-5.19,4-8.35,2.82-3.88-1.45-4.36-1.32-7,1.83-.52.63-1.1,1.2-1.61,1.83Q85.08,36.47,74.37,49.77C68.85,56.62,63.26,63.4,57.79,70.29,55,73.75,51.92,77.1,50,81c-3.09,6.18-5.4,12.76-7.94,19.21-2,5.18-4.09,10.25-8.55,14-3.16,2.67-4.09,6.32-3.48,10.47a16.59,16.59,0,0,1-.12,6c-1.5,6.63-3.42,13.17-4.86,19.81-1.08,5-2.71,9.79-.78,15.17,1.53,4.25,1.68,9,2.47,13.51a13.25,13.25,0,0,0,.65,1.82,7.77,7.77,0,0,0,.72-1.07c1.73-4.57,3.5-9.12,5.13-13.73A6.51,6.51,0,0,0,33,163.67Zm26-22.09c-9.84,1.69-24.16,15.48-23.29,23L37,162.13c1.41-2.67,2.35-5.79,4.34-7.9,3-3.21,6-7.08,11.33-6.65a2.35,2.35,0,0,0,1.23-.46c1.45-.87,2.84-1.86,4.33-2.66C59.49,143.78,59.66,142.91,59,141.58ZM35.73,165.46l-.89-.39c-.34.7-.73,1.37-1,2.09-1.7,4.42-3.33,8.87-5.08,13.27-.28.71-1.07,1.22-1.63,1.82a7.57,7.57,0,0,1-1.08-2c-.67-3.86-1.22-7.74-1.84-11.61-.16-1-.44-2-.66-3l-1,.21,3.83,21.9.54.16Z" fill="#fff"/></svg>