<svg id="Layer_1" data-name="Layer 1" xmlns="http://www.w3.org/2000/svg" viewBox="0 0 200 200"><title>Circuits</title><path d="M131.31,141.91a8.31,8.31,0,0,0-2.68-.83c-7.53.4-15,1-22.57,1.32-2.57.1-5.17-.68-7.77-1C85,139.93,75.88,143,69.26,154c-1.58,2.62-3.16,5.24-4.61,7.93a18,18,0,0,0-2.29,8.54c-.09,9-6.81,17.51-15.4,20.28-8.17,2.63-15.53,1.3-22.33-3.85-5.14-3.89-6.58-9.31-6.7-15.39-.21-10.77,2.33-21,5.91-31a124.89,124.89,0,0,1,12.11-24.1c5.88-9.44,11.62-19,17.7-28.29A102.56,102.56,0,0,1,73.43,66Q99.36,44,125.46,22.3c4.29-3.59,8.68-7.05,13.08-10.51,1.27-1,2.79-1.72,4.2-.22,1.14,1.21.61,4.51-.32,5.77a75.59,75.59,0,0,0-4.78,7.53c-2.44,4.33-4.53,8.88-7.17,13.09a76.39,76.39,0,0,1-6.75,8.51c-1.89,2.23-4.59,2.66-7.24,2.28-7-1-9.86.07-11.73,7.85C103,64,99.31,70,95.13,76c-6.5,9.41-12.59,19.11-18.86,28.68-1.52,2.31-3.17,4.55-4.57,6.93a10.93,10.93,0,0,1-8.79,5.63c-6.42.63-10.32,4.59-13.4,9.76-4.54,7.62-8.37,15.57-10.19,24.29a15.4,15.4,0,0,0,.41,7.47c1.15,3.63,6.12,4.66,9.08,2.37,1.69-1.3,1.66-3.2,1.59-4.84a28.26,28.26,0,0,1,6.44-19.12,43.56,43.56,0,0,1,10.93-9.39c6.17-4,10.76-9.55,14.82-15.62C88.69,103.09,95,94.1,101.17,85c3.48-5.08,7-10.14,10.37-15.3,2.67-4.09,6.39-6.62,11.15-7,7.12-.61,11.37-4.66,14.6-10.57A92.42,92.42,0,0,0,144,37a10.16,10.16,0,0,1,12.11-6.57c4.07.9,7.41,4.86,7.87,9.61,1.1,11.33,2.1,22.66,3.16,34q1.47,15.71,3,31.42c.3,3.12-.28,5.73-3.08,7.65a4,4,0,0,0-1.24,2.71,10,10,0,0,0,2.86,8.19,22.5,22.5,0,0,1,6.11,12.66c.55,3.43-2,5.95-5.05,4.51-4.77-2.24-9.72-2-14.67-1.77-7.11.31-14.2.88-21.29,1.43A7.86,7.86,0,0,0,131.31,141.91Zm7.06-125.49-.31-.39a14.62,14.62,0,0,0-1.71,1.08c-6.93,5.79-13.83,11.61-20.77,17.39Q99,48.28,82.47,62c-8.79,7.26-17.26,14.89-23.84,24.25-5.15,7.32-9.82,15-14.5,22.6-6.32,10.29-13.18,20.28-17.26,31.82-3.37,9.53-5.94,19.17-6,29.33,0,3.77.09,7.66,2.37,10.88,4.66,6.58,11.25,8.77,19.06,7.85a19.24,19.24,0,0,0,17-16.8c.44-3.22.71-6.62,2-9.52a95.9,95.9,0,0,1,6.91-12c4.07-6.47,9.93-10.71,17.47-11.72,7.72-1,15.55-1.25,23.34-1.76,6.29-.41,12.58-.74,18.88-1.09,1.63-.09,3.16-.27,3-2.78.13,2.87,2,2.41,3.61,2.31,10.29-.64,20.57-1.32,30.85-1.94,2.71-.16,3.12-.73,1.83-3.09-2.15-4-4-8-4.33-12.58-.22-3.09,0-5.88,2.95-7.88a3.88,3.88,0,0,0,1.43-3c-.72-9.05-1.62-18.09-2.49-27.13-.66-6.92-1.38-13.84-2-20.76-.59-6.15-1.06-12.31-1.7-18.45-.31-3-1.51-5.52-4.47-6.74-2.79-1.15-5.51-1-7.74,1.24a7.47,7.47,0,0,0-2.15,3.33c-1.46,6.53-5.08,12-8.32,17.69-3,5.23-7.39,8.69-13.52,9.33-5.34.56-9,2.94-12.06,7.58-8.23,12.69-17.11,25-25.43,37.62a77.91,77.91,0,0,1-21.78,22.45c-8.2,5.51-12.64,13.49-12.23,23.75.17,4.31-2.39,7.7-6.06,8.41a9.43,9.43,0,0,1-10.46-5.5c-1.46-3.57-1-7.14-.07-10.67,2.34-9.1,6.51-17.37,11.43-25.33a20.23,20.23,0,0,1,14.95-9.75,8.65,8.65,0,0,0,5.23-2.81c3.61-4.9,6.75-10.14,10.1-15.24,4.94-7.51,9.64-15.2,14.94-22.45,4.18-5.72,7.52-11.57,8.76-18.65.77-4.36,4.72-9.67,10.06-9.51a41.59,41.59,0,0,1,5.11.21,5.24,5.24,0,0,0,4.89-1.89,51.18,51.18,0,0,0,9.29-13.41C133.72,25.66,136.07,21,138.37,16.41Zm31.55,111.16-.54.21c.29.68.59,1.37.87,2.05,1.78,4.27.53,6.39-4.08,6.69-10.36.68-20.73,1.31-31.09,2-1.05.07-2.09.3-3.14.45l.05.67a9.79,9.79,0,0,0,1.77.21c5.17-.32,10.34-.77,15.51-1,7-.31,14-1.71,20.74,1.74,1.88,1,4.34-.52,4.05-2.34C173.48,134.41,172.83,130.51,169.92,127.57Zm-68,12.95c2.72,1.48,27.11.16,28.37-1.75Z" fill="#fff"/></svg>