<svg id="Layer_1" data-name="Layer 1" xmlns="http://www.w3.org/2000/svg" viewBox="0 0 200 200"><title>Circuits</title><path d="M44.62,90.38l-.46-.44.47-.78.88.5-.51.86.85.54.57-.81.9.51.51-.83L47,89.36l.48-.88-.84-.53-.6.83-.84-.5.53-.85.6.29L49.79,82Q56.6,70.93,63.42,59.85a52.92,52.92,0,0,1,17.2-17.42C90.87,36,101.21,29.66,111.51,23.3q3.13-1.93,6.3-3.8a32.71,32.71,0,0,1,13.28-4.34,36.12,36.12,0,0,1,14.59,1.65,79.22,79.22,0,0,1,17.17,7.07,132.38,132.38,0,0,1,11.68,8,18.45,18.45,0,0,1,5.84,7.56q2.89,6.62,5.7,13.27a7.27,7.27,0,0,1,.34,4.83,6.09,6.09,0,0,1-4.63,4.37c-3.6,1-7.25,1.75-10.88,2.6-6,1.41-12.08,2.76-18.11,4.21a21.64,21.64,0,0,1-23.74-10,17,17,0,0,1-2.1-9.64c.25-4.34.65-8.68,1-13,.12-1.61.27-3.23.28-4.85a2.88,2.88,0,0,0-1.56-2.9,2.92,2.92,0,0,0-3.44.54,17,17,0,0,0-2.13,2.46c-1.26,1.71-2.45,3.47-3.67,5.21a26.94,26.94,0,0,0-3.93,9.84c-.66,3-.5,6-.59,9-.06,2,.08,4.06,0,6.08a9.92,9.92,0,0,1-6.4,9.05c-5,1.72-10.9-1.25-12.18-6.19-.33-1.29-.36-2.65-.58-4a21.57,21.57,0,0,0-.81-4.06C92.05,54.08,90,52.78,87.37,54a13.92,13.92,0,0,0-3.19,2.4c-3.35,3.09-5.77,6.9-8.14,10.74-1.22,2-2.48,3.94-3.5,6-2.56,5.21-2,10.26,1.12,15.09a25.26,25.26,0,0,0,6.19,6.52A12.22,12.22,0,0,0,89.11,97c5.55-.74,11.08-1.65,16.62-2.48l14.52-2.17c4.86-.74,9.72-1.5,14.59-2.23q5.84-.88,11.68-1.71a33.11,33.11,0,0,1,5.26-.57c6,.13,11.51,1.87,16,6.07a23,23,0,0,1,3.09,3.63q4.08,5.85,8,11.82a10.85,10.85,0,0,1,1.87,4.51,10.73,10.73,0,0,1-1.73,7.21,13.58,13.58,0,0,1-4.91,4.76q-28.25,16.21-56.49,32.45c-11.92,6.85-23.83,13.73-35.79,20.52a52.69,52.69,0,0,1-14.72,5.61,24.34,24.34,0,0,1-17-2.56,31.8,31.8,0,0,1-10.85-9.11,23.33,23.33,0,0,1-3.49-8.16c-.5-1.85-1-3.69-1.65-5.5a4.91,4.91,0,0,0-5-3.67c-2.46,0-4.91,0-7.37.07-5.33.21-8.68-4.72-8.41-8.85a22.9,22.9,0,0,1,3-10c2.85-5,5.87-9.86,8.87-14.76q9.57-15.63,19.19-31.22C44.48,90.64,44.53,90.55,44.62,90.38Zm3.32,2c-.21.33-.4.62-.58.92Q36.76,111,26.17,128.7c-2.4,4-4.77,8-7.17,12.06a5.79,5.79,0,0,0-1,3.44c.16,2.07,1.23,3.25,3.47,3.85q7.19,1.93,14.39,3.8a7.34,7.34,0,0,1,3.38,1.93,10,10,0,0,1,2.54,3.92c.75,2.24,1.41,4.52,2,6.81a20.82,20.82,0,0,0,11.31,13.88,18,18,0,0,0,8.76,2.05,24.23,24.23,0,0,0,7-1.44,160.94,160.94,0,0,0,28.51-13.09q35.09-20.13,70.16-40.32a37.23,37.23,0,0,0,5.23-3.32,9.34,9.34,0,0,0,3.52-6.81,7.3,7.3,0,0,0-1.44-4.54c-2.73-4.11-5.47-8.21-8.28-12.27a18.38,18.38,0,0,0-10.68-7.39,20.83,20.83,0,0,0-8-.82c-2.05.26-4.09.6-6.14.9l-9.65,1.46-9.5,1.43-9.65,1.46-9.43,1.43-9.42,1.45a49.14,49.14,0,0,1-10.17,1,11.72,11.72,0,0,1-4.48-1A24,24,0,0,1,70.61,88a16.44,16.44,0,0,1-2.16-9.17A15.14,15.14,0,0,1,69.92,73c1.36-2.68,2.88-5.27,4.44-7.84a47.82,47.82,0,0,1,8.12-10.57,17.09,17.09,0,0,1,3.27-2.57c4.06-2.21,8-.46,9.45,3.38a23.7,23.7,0,0,1,.94,4.42,22.19,22.19,0,0,0,.69,4.32,7,7,0,0,0,10.62,3,8,8,0,0,0,3-6.3c.08-2.63-.06-5.28,0-7.91a51.32,51.32,0,0,1,.62-7.09,26.7,26.7,0,0,1,4-10.24c1.46-2.19,3-4.36,4.55-6.45a11.81,11.81,0,0,1,2.8-2.74,5.26,5.26,0,0,1,8.26,4.17,36.17,36.17,0,0,1-.14,4.54c-.13,2.15-.34,4.29-.48,6.43-.21,3.1-.45,6.21-.56,9.31a12.35,12.35,0,0,0,1.3,5.71c3.49,7.39,12.66,11.7,20.86,9.81l13.47-3.11c5.23-1.21,10.45-2.41,15.67-3.66,2.1-.5,3.22-1.67,3.34-3.58a6,6,0,0,0-.41-2.59c-1.76-4.24-3.61-8.44-5.43-12.65a17.52,17.52,0,0,0-5.53-7.21c-3.18-2.38-6.4-4.73-9.76-6.83-5.25-3.28-11.06-5.35-16.91-7.29a34.85,34.85,0,0,0-15.52-1.8,28.13,28.13,0,0,0-11.13,3.7q-16.68,10.1-33.27,20.34a31.14,31.14,0,0,0-9.41,8.95c-2.55,3.71-5,7.46-7.53,11.22a15.58,15.58,0,0,1-3.49,3.77,15.9,15.9,0,0,0-4.14,4.19q-6,9.83-11.95,19.64a.6.6,0,0,0,0,.2l.53.43-.46.85.87.58L50,92.4l-.89-.48-.54.78Zm34.87,82.89-.68.27c-4,1.52-7.93,3.12-11.94,4.53a18.74,18.74,0,0,1-13,.09,21.79,21.79,0,0,1-13.47-13.1,40.52,40.52,0,0,1-1.15-4,25.52,25.52,0,0,0-2.31-6.61,7.57,7.57,0,0,0-4.53-3.79l-4.24-1.1c-3.58-1-7.17-1.86-10.72-2.89a4.52,4.52,0,0,1-3.56-5.19,7.85,7.85,0,0,1,1.06-3.11q11.4-19.29,22.9-38.53c2-3.32,4-6.6,6-9.91.77.47.72-.26,1-.58l-.91-.53c-.33.5-.64.92-.92,1.37q-11.13,18.09-22.24,36.19c-2.11,3.45-4.2,6.91-6.11,10.47a17.53,17.53,0,0,0-2.26,8.55,5.87,5.87,0,0,0,6,5.67c2.4-.09,4.81-.11,7.22-.12a8.77,8.77,0,0,1,2,.23,7.44,7.44,0,0,1,5.51,5.24c.66,1.87,1.17,3.8,1.69,5.72a19.8,19.8,0,0,0,3.34,7.56,29.79,29.79,0,0,0,11.64,8.9,20.91,20.91,0,0,0,10.77,1.84,39.5,39.5,0,0,0,9-2.27A48.11,48.11,0,0,0,82.81,175.27Zm-34-86C52.63,83,56.41,76.91,60.1,70.72a20.21,20.21,0,0,1,5-5.62,15,15,0,0,0,3-3c3.57-5,6.64-10.32,10.5-15.11,0,0-.1,0-.13,0s-.25.17-.37.27A47.4,47.4,0,0,0,66.46,59.73C61.53,67.6,56.7,75.52,51.83,83.43l-4,6.48.92.54.52-.83ZM49.69,91l-.85-.51c-.66.86-.65.9.38,1.29Z" fill="#fff"/></svg>