<svg id="Layer_1" data-name="Layer 1" xmlns="http://www.w3.org/2000/svg" viewBox="0 0 200 200"><title>Circuits</title><path d="M30.85,146.82c1.36-1.23,1.28-2.12.3-3.3-5.51-6.66-10.94-13.4-16.42-20.09-.72-.89-1.95-1.58-2.22-2.57a10.88,10.88,0,0,1-.43-5.27A76.84,76.84,0,0,1,26.27,86.93c6-7.8,11.74-15.85,17.54-23.82,2.81-3.86,6.51-4.07,9.23-.13a17.62,17.62,0,0,1,2.68,6.26c.42,2,1.23,3.3,3,3.92,5.67,2,11.32,4.06,17.08,5.73,8,2.33,16.36,2.88,24.69,2.84A90.56,90.56,0,0,0,113,80.88a123,123,0,0,0,16.47-3.19c10-2.9,19.18-7.94,28.19-13.16,8.41-4.87,16.8-9.78,25.22-14.64a8.69,8.69,0,0,1,3.33-1.4,4.85,4.85,0,0,1,3.21,1,2.15,2.15,0,0,1-.15,3.27c-2.34,2.33-4.78,4.57-7.25,6.77-8.58,7.63-17.29,15.13-25.75,22.9C153,85.45,149.7,88.2,145,88.6c-8.08.69-16.17,1.34-24.25,2-1.48.12-3,.31-4.45.3-1.81,0-2.26.88-1.93,2.46a15.46,15.46,0,0,0,4.45,8.47c4.08,3.8,4.65,7.79,1.48,12.5a35,35,0,0,1-5.63,6.35C106,128.54,97.32,136.51,88.26,144c-5.36,4.42-10.3,5-16.52.6-6.37-4.56-12.64-9.27-19-13.86a8.61,8.61,0,0,0-2.91-1.36c-2.31-.57-4.67,1.56-3.84,3.75,1.68,4.39,3.34,9.15,8.94,10,5.35.8,9.32,3.63,12.73,7.6,2.78,3.23,2.64,6.28-.53,9.18-1.74,1.59-3.43,3.24-5.13,4.89a8.16,8.16,0,0,1-8.83,1.89,16.07,16.07,0,0,1-7.47-5c-3.89-4.76-7.82-9.48-11.71-14.24C33.2,146.35,32.47,145.26,30.85,146.82ZM35,143.27a11.61,11.61,0,0,0-1.11-2.13c-3.15-3.87-6.49-7.6-9.49-11.58-3.26-4.32-7.49-8-9.2-13.38,0,0-.24,0-.42,0-.82,1.44-.35,2.64.62,3.84,5.18,6.39,10.3,12.84,15.52,19.2A53.53,53.53,0,0,0,35,143.25a6.69,6.69,0,0,0,.71,1.65c4.06,5.06,8,10.19,12.3,15.07a21.09,21.09,0,0,0,5.57,3.93,4.62,4.62,0,0,0,4.8-.23,13.35,13.35,0,0,1-2.53-.56c-1.43-.67-3.08-1.19-4.13-2.27-4.33-4.45-8.46-9.09-12.7-13.63C37.77,145.83,36.36,144.58,35,143.27Zm1.73-1.51c.19.8.11,2,.67,2.64q7.58,8.44,15.37,16.7c1.94,2.06,6.2,2.36,8.37.58a32.26,32.26,0,0,0,4.9-4.81,3.48,3.48,0,0,0,.3-3.23c-2.57-3.53-5.54-6.78-10.2-7.38a13.1,13.1,0,0,1-10.78-7.86c-.47-1-1.12-1.86-1.59-2.83a6.07,6.07,0,0,1,.68-6.86,5.3,5.3,0,0,1,6.17-1.91,31.16,31.16,0,0,1,6.82,3.82c5.06,3.61,10,7.42,15,11.12,3.16,2.35,6.61,4.09,10.5,2.17a33.46,33.46,0,0,0,6.95-4.78q9.94-8.62,19.64-17.52c3-2.77,6.24-5.5,8.55-8.82,2.86-4.11,2-6.58-.9-8.89-3.27-2.63-4.79-6.26-5.4-10.35-.48-3.25.83-5,4.12-5.37,1.28-.13,2.56-.17,3.84-.27,7.2-.56,14.4-1.1,21.59-1.71,4.25-.36,8.18-1.11,11.62-4.3,10.1-9.36,20.51-18.39,30.79-27.57.86-.77,1.6-1.67,2.39-2.5a22.37,22.37,0,0,0-5.39,2.35C169.81,60.4,158.92,66.67,148,72.87c-14.94,8.47-31.26,11.39-48.18,11.6a93.7,93.7,0,0,1-28.82-4c-4.58-1.41-9-3.17-13.51-4.92a6.37,6.37,0,0,1-4.27-5.18,15.28,15.28,0,0,0-2.45-5.67c-1.71-2.53-3.06-2.35-4.83.08-5.34,7.32-10.62,14.67-16.1,21.89s-10.41,14.46-13,23.21c-1.21,4.07-1.09,7.7,1.58,11.1,2,2.5,3.85,5.06,5.85,7.52,3.28,4,6.59,8.06,10,12C34.85,141.2,36,141.4,36.74,141.76Z" fill="#fff"/></svg>