<svg id="Layer_1" data-name="Layer 1" xmlns="http://www.w3.org/2000/svg" viewBox="0 0 200 200"><title>Circuits</title><path d="M128,126.39a11.2,11.2,0,0,1-7-2.23c-2.72-1.78-5.31-3.75-7.94-5.67a14.27,14.27,0,0,0-9.54-2.74c-6.15.34-12.3.72-18.45,1.08l-24.85,1.46c-1.78.1-3.57.25-5.35.27-2.52,0-3.92-1.25-4.11-3.67-.28-3.5-.52-7-.78-10.5-.33-4.46-.67-8.91-1-13.37-.06-.82-.46-1-1.19-1q-9.61.44-19.23.84a56.18,56.18,0,0,1-5.73.06,2.48,2.48,0,0,1-2.42-2.59Q19.86,80,19.32,71.62q-.74-11.27-1.47-22.55c-.14-2.07-.34-4.13-.42-6.21a5.49,5.49,0,0,0-2.65-4.61c-1.73-1.14-3.52-2.19-5.2-3.38a7.68,7.68,0,0,1-3.32-6.15C5.9,22.81,5.47,16.89,5,11c-.2-2.68,1.2-4.44,3.9-4.61C14.46,6,20,5.68,25.54,5.34L49.63,3.86c6.56-.4,13.13-.77,19.69-1.21a12.94,12.94,0,0,1,9.61,3.57q23,20.07,46,40.23,34.15,29.9,68.3,59.8a4.43,4.43,0,0,1,1.79,3c.21,2.83-2.82,5.3-5.8,4.75-5.17-1-10.34-2-15.53-2.8a29.58,29.58,0,0,0-5.73-.11,3.31,3.31,0,0,0-1.66.85c-3.12,2.44-6.21,4.91-9.3,7.38-1.14.9-1.24,1.23-.7,2.61,1.08,2.76,2.18,5.51,3.27,8.27,1.2,3,2.33,6.07,3.63,9a14.22,14.22,0,0,0,2.28,3.59,75.81,75.81,0,0,0,9,8.57c4,3.32,8,6.71,11.91,10.22a13,13,0,0,1,4.64,9.79c.08,7,.34,14,.52,21.06a6.36,6.36,0,0,1-.05,1.34c-.3,1.6-1,3-2.7,3.38a4.81,4.81,0,0,1-5.16-1.69c-2.73-3.54-5.44-7.09-8.15-10.64q-21.9-28.63-43.78-57.28C130.72,126.33,129.49,126.41,128,126.39Zm58.82,65.11a5.37,5.37,0,0,0,.32-.83,43.9,43.9,0,0,0,1-6.51c.09-4.59,0-9.19-.25-13.78-.14-2.93-1.93-5.08-4-6.92-4-3.53-8.07-7.07-12.22-10.46a84.2,84.2,0,0,1-8.92-8.65,10.87,10.87,0,0,1-2-3.1c-2.56-6.28-5-12.6-7.51-18.93a4.33,4.33,0,0,1,1.4-4.89c3.42-2.73,6.82-5.48,10.29-8.14a5.05,5.05,0,0,1,2.67-1.11,43.62,43.62,0,0,1,7.35.25c3.72.51,7.4,1.34,11.1,2,1.28.24,2.57.5,3.87.62A2,2,0,0,0,192,110c.38-.81-.39-1.19-.87-1.61l-56-49.09-47-41.14c-3.75-3.28-7.47-6.59-11.27-9.81a9.69,9.69,0,0,0-6.66-2.75c-3.22.13-6.44.37-9.65.57L33.94,7.8,9.47,9.3C8,9.4,7.91,9.44,8,11q.58,8.84,1.2,17.67a4.68,4.68,0,0,0,1.91,3.69c1.08.78,2.22,1.48,3.35,2.2,2.38,1.5,4.81,3,5.56,6a15.9,15.9,0,0,1,.41,2.73c.41,5.73.82,11.46,1.18,17.19.48,7.45.91,14.91,1.37,22.36.11,1.74.25,3.48.37,5.22,1.23,0,2.37,0,3.51,0,7.11-.28,14.22-.6,21.34-.88,2.33-.09,3.53,1.06,3.7,3.41q.86,11.6,1.73,23.2c.14,1.84.33,2,2.22,1.85q12.19-.73,24.38-1.42c7.3-.42,14.59-.83,21.89-1.29,3-.18,5.91-.15,8.64,1.09a35.7,35.7,0,0,1,4.93,2.87c1.91,1.27,3.71,2.7,5.58,4a12.22,12.22,0,0,0,8.09,2.64,5.22,5.22,0,0,1,4.72,2.39c3.62,4.87,7.42,9.59,11,14.48a58.09,58.09,0,0,0,11.51,12.33,10.84,10.84,0,0,1,2,2.07q13.69,17.85,27.36,35.73C186.17,190.81,186.47,191.09,186.85,191.5Zm1.72-.23c-1.26,1.55-2.38,1.67-3.23.56q-14-18.33-28-36.64a24.25,24.25,0,0,0-2.15-2.19l-.17.16c.14.2.26.4.41.59l30.19,39.46c.19.25.37.6.63.7a3.79,3.79,0,0,0,1.77.37c.26,0,.48-.8.57-1.27A9.94,9.94,0,0,0,188.57,191.27Z" fill="#fff"/></svg>