<svg id="Layer_1" data-name="Layer 1" xmlns="http://www.w3.org/2000/svg" viewBox="0 0 200 200"><title>Circuits</title><path d="M179.45,148.88a12.65,12.65,0,0,1,3.8-13.55c1.21-1.13,2.61-2.06,3.77-3.23a33.13,33.13,0,0,0,4.52-5.12c4.61-7.2,6.12-15,3.26-23.21-1.61-4.65-4.85-8.18-8.61-11.15-7.52-5.94-15.09-11.84-22.82-17.51-11.68-8.58-23.75-16.53-37.4-21.72-6.06-2.31-12.15-4.57-18.26-6.74-5.36-1.9-10.78-3.61-16.15-5.47a195.06,195.06,0,0,0-23-6.23C59.54,33,50.47,31.14,41.46,29a46.61,46.61,0,0,1-9.34-3.24c-4.39-2.09-7.79-5.56-11-9.16-1.63-1.84-3-3.87-4.58-5.78-2.12-2.61-4.41-3-6.9-.74a21.12,21.12,0,0,0-4.4,5c-2.28,4-2,7.09.9,10,2,2.05,4,4.13,6,6.26a84.57,84.57,0,0,1,7.3,8.29c3.82,5.48,4.57,12,5.14,18.43.41,4.59-1.08,9-2.21,13.37C20.12,80.25,17.68,89,15.57,97.75c-1.56,6.49-2,13-.21,19.64,1.3,4.78,3.36,9.14,7.72,11.54,6,3.3,12.15,3,18.08-.77,8.25-5.3,16.5-10.62,24.94-15.61,4.23-2.5,9-3.69,13.95-2.15a40.78,40.78,0,0,1,7.07,2.8c4.16,2.22,8.05,5,10,9.43a38.75,38.75,0,0,1,3.22,10.54c1.58,12,2.76,24.1,4.11,36.15,1,8.83,4.67,15.85,13.14,19.73,4.84,2.22,9.72,3.16,14.92,1.31,3.56-1.27,7.17-2.37,10.76-3.56,1.38-.46,1.86-.61,2.26-.08L144.5,184c-.16.2-.31.45-.52.52-2,.71-4.1,1.39-6.15,2.07s-4.28,1.39-6.4,2.11a14.76,14.76,0,0,1-9.86-.15,43.12,43.12,0,0,1-5.12-2.25,16.65,16.65,0,0,1-8-9.34,12.62,12.62,0,0,1-1.83-6l1.83,6c.32.49.66,1,1,1.49a21.53,21.53,0,0,0,12,9.45c3.3,1.1,6.56.43,9.76-.49,4-1.13,7.87-2.39,11.8-3.59.2-.06.41-.22.6-.2a3.76,3.76,0,0,1,.8.23l-.39-1c-.86.29-1.66.58-2.47.83-3.69,1.13-7.41,2.2-11.09,3.36-6.33,2-11.69.06-16.5-4-4.24-3.6-6-8.46-7.08-13.75-1.46-6.92-1.84-14-2.72-20.93-.8-6.35-1.48-12.73-2.69-19-.88-4.58-2.56-9-6.14-12.36-5.37-5.07-11.49-8.67-19-9.07a19.52,19.52,0,0,0-11.2,2.93c-8.41,5.13-16.77,10.34-25,15.73a15.29,15.29,0,0,1-16.38.57c-3.35-2-5.23-5.35-6.28-9.13a37.27,37.27,0,0,1-.65-17c1.72-9.47,4.59-18.63,7-27.91,1.22-4.68,2.9-9.36,2.62-14.22-.55-9.75-2.55-19-10.22-26.09C14,30.75,12,28.48,9.82,26.3c-.71-.73-1.4-1.48-2.07-2.24C5.31,21.28,5,19,7,15.87a24.92,24.92,0,0,1,4.29-4.63c1.18-1.07,2.26-.89,3.36.31.83.9,1.52,1.93,2.26,2.91A47.88,47.88,0,0,0,29.67,26.57a27.1,27.1,0,0,0,7.05,3.15c6,1.6,12.14,2.87,18.23,4.24,2.57.58,5.15,1.08,7.72,1.66,5.3,1.2,10.65,2.25,15.88,3.7,6.5,1.81,12.93,3.86,19.33,6q11.29,3.76,22.46,7.86A140.56,140.56,0,0,1,146.82,66.1,383.05,383.05,0,0,1,178.59,89c3,2.38,6.07,4.78,8.92,7.37a20,20,0,0,1,6.66,18c-.8,6.42-3.38,12.12-8.54,16.44a33.62,33.62,0,0,0-6.22,6.12c-3,4.33-3.06,9.18-1.35,14.13a82.38,82.38,0,0,1,2.86,9.75c.85,4-.75,7.2-4,9.6-2.78,2-6.12,2.67-9.26,3.82q-9.86,3.61-19.71,7.26l-1,.36.33.86a1.11,1.11,0,0,1,.45-.48c6.6-2.46,13.22-4.88,19.82-7.34,3-1.11,6-2.15,8.85-3.5a10,10,0,0,0,5.25-6.57c-.78,3-2,5.68-5,7.2-8.06,4.09-16.58,7-25.07,10-1.16.41-2.32.83-3.5,1.18a1.12,1.12,0,0,1-.62-.08l.8,2.05,5.19-1.8c8.05-2.82,16.12-5.61,23.75-9.49a12,12,0,0,0,5.9-14.67C181.79,155.79,180.44,152.39,179.45,148.88Z" fill="#fff"/><rect x="148.23" y="187.76" width="1.02" height="1.02" transform="translate(353.54 313.25) rotate(159.7)" fill="#fff"/><rect x="146.92" y="187.16" width="1.02" height="1.02" transform="translate(350.8 312.54) rotate(159.7)" fill="#fff"/><rect x="146.32" y="188.47" width="1.02" height="1.02" transform="translate(350.09 315.28) rotate(159.7)" fill="#fff"/><rect x="147.52" y="185.85" width="1.02" height="1.02" transform="translate(351.51 309.8) rotate(159.7)" fill="#fff"/><rect x="146.21" y="185.25" width="1.02" height="1.02" transform="translate(348.77 309.09) rotate(159.7)" fill="#fff"/><rect x="145.61" y="186.56" width="1.02" height="1.02" transform="translate(348.06 311.83) rotate(159.7)" fill="#fff"/><rect x="146.81" y="183.95" width="1.02" height="1.02" transform="translate(349.48 306.35) rotate(159.7)" fill="#fff"/><rect x="145.51" y="183.35" width="1.02" height="1.02" transform="translate(346.74 305.64) rotate(159.7)" fill="#fff"/><rect x="144.91" y="184.65" width="1.02" height="1.02" transform="translate(346.03 308.38) rotate(159.7)" fill="#fff"/><rect x="146.11" y="182.04" width="1.02" height="1.02" transform="translate(347.46 302.9) rotate(159.7)" fill="#fff"/><rect x="144.8" y="181.44" width="1.02" height="1.02" transform="translate(344.72 302.19) rotate(159.7)" fill="#fff"/><rect x="144.2" y="182.74" width="1.02" height="1.02" transform="translate(344 304.93) rotate(159.7)" fill="#fff"/><rect x="145.4" y="180.13" width="1.02" height="1.02" transform="translate(345.43 299.45) rotate(159.7)" fill="#fff"/><rect x="143.5" y="180.84" width="1.02" height="1.02" transform="translate(341.98 301.48) rotate(159.7)" fill="#fff"/></svg>