<svg id="Layer_1" data-name="Layer 1" xmlns="http://www.w3.org/2000/svg" viewBox="0 0 200 200"><title>Circuits</title><path d="M114,141.92l-.22.68-.56-.22.18-.57Z" fill="#fff"/><path d="M156.95,17.24a14.78,14.78,0,0,0-5.06-4.86,4,4,0,0,0-6,2.08c-.41,1-.69,2-1,3-1.77,4.9-3.48,9.81-5.33,14.68-1.13,3-2.35,5.94-3.74,8.8A50.72,50.72,0,0,1,129,50.81a10,10,0,0,1-6.62,3.76c-1.94.24-3.88.48-5.81.81a15.16,15.16,0,0,0-3.49.89,9.7,9.7,0,0,0-4,3.45c-1.35,1.9-2.71,3.78-4,5.68q-15.43,22-30.84,43.92a53.37,53.37,0,0,1-12,12.54c-4,2.94-7.82,6.08-11.7,9.16a22,22,0,0,0-4.84,4.9,22.46,22.46,0,0,0-3.59,10.94c-.2,2.52-.52,5-.83,7.53a4.77,4.77,0,0,1-2.09,3.53,10.72,10.72,0,0,1-1.21.76c-2.73,1.35-4.51,1.47-7-.49l-.34-.28a7.75,7.75,0,0,1-2.69-3.8,19.34,19.34,0,0,1,.5-11.46c1.3-3.5,2.72-7,4.26-10.38a72.58,72.58,0,0,1,9.67-15.73,16.24,16.24,0,0,1,9-5.55c2.06-.52,4.16-.85,6.22-1.36a6.21,6.21,0,0,0,3.9-2.55c1.34-2,2.86-3.86,4.19-5.84q9.74-14.5,19.43-29c1.74-2.6,3.54-5.17,5.26-7.78,2.05-3.12,4.82-5.59,7.41-8.22,5.39-5.47,10.84-10.89,15.79-16.78a28,28,0,0,0,4.28-6.16c2.29-4.94,4.62-9.86,7-14.77a4.58,4.58,0,0,0-.31-4.46,1.63,1.63,0,0,0-1.38-1,4,4,0,0,0-2.77.83Q108,23.81,95.65,33.68C84.3,42.76,73.05,52,62.07,61.48a84,84,0,0,0-14.4,16C39.81,89,32.48,100.86,25.29,112.78c-3,4.94-6,9.88-8.77,14.92a43,43,0,0,0-3.49,8,201.6,201.6,0,0,0-4.88,19.62,73.28,73.28,0,0,0-1.3,13.59c-.06,4,1.65,7.34,3.68,10.58a14.49,14.49,0,0,0,4,3.88,15.41,15.41,0,0,0,1.58,1.09A23.45,23.45,0,0,0,30,188.24a24.6,24.6,0,0,0,10.14-2.8,15.62,15.62,0,0,0,4.81-3.49,28.17,28.17,0,0,0,3.47-4.64l.11-.17h0c.19-.33.39-.65.56-1,2.42-4.57,4.78-9.16,7.22-13.72a48.35,48.35,0,0,1,7-10.49c2.56-2.74,5.17-5.43,7.79-8.11a12.87,12.87,0,0,1,4.11-3.07,34,34,0,0,1,5.23-1.65,22.52,22.52,0,0,1,4.13-.48q14.16-.64,28.33-1.22c.13,0,.26.15.4.23,0-.51.43-.42.76-.42l-.14.72-.61-.33c0,.31,0,.63,0,1l2-.16-.08-1.37.66-.19a12.72,12.72,0,0,1,3.51-1c1,0,2.07-.14,3.11-.22a3.36,3.36,0,0,0-.51-.06l-2.62.11a5.72,5.72,0,0,0-2.48.58,14,14,0,0,1-1.66.62l-.25-2.12c0,.45-.29.51-.66.36l.11-.66.54.32c0-.35.26-.34.52-.35,4.36-.19,8.73-.37,13.09-.57q18.17-.85,36.34-1.69l2.29,0c.44.06.88.15,1.31.23a.89.89,0,0,1,.7.76,17,17,0,0,0,.7,2.41,3.94,3.94,0,0,0,1.91,2,21.6,21.6,0,0,0-2.38.32,10.11,10.11,0,0,1-7.11-1.13,28,28,0,0,0-8.87-2.62,30.94,30.94,0,0,0-5.41,0c-8.28.42-16.57.89-24.85,1.34-.25,0-.5.07-.74.11a3.9,3.9,0,0,0,.48,0l24.31-1.26a37.7,37.7,0,0,1,5.25-.15,27.2,27.2,0,0,1,9,2.38c.88.41,1.79.76,2.69,1.11a7.72,7.72,0,0,0,4.52.46,26.62,26.62,0,0,1,2.93-.4,51.54,51.54,0,0,0,13.19-3.21c2.27-.87,4.46-2,6.63-3.05a3.09,3.09,0,0,0,1.36-4.06c-.88-1.45-1.78-2.9-2.79-4.26-1.6-2.16-3.4-4.17-4.93-6.37q-5.09-7.32-10-14.77a59.13,59.13,0,0,1-7-13.59,34.38,34.38,0,0,1-1.86-8.61c-.65-9.48-1.27-19-1.94-28.45a192.58,192.58,0,0,0-2.41-21.73A31.69,31.69,0,0,0,156.95,17.24Zm15.91,83.41h0ZM133.48,45.44l-.06.07,0-.08ZM119.33,16.16l-.11.18,0,0Zm-4.49,3.67,0,0h0Zm-7.25,5.8-.05.06h0Zm5.53,111.58c-1.3.08-2.59.17-3.88.23-7.73.31-15.45.58-23.18.93a35.47,35.47,0,0,0-5.93.62,24.79,24.79,0,0,0-5.58,1.92A14,14,0,0,0,71,143.63c-2.63,2.61-5.19,5.3-7.73,8A47.77,47.77,0,0,0,56,162.52q-2,3.93-4.06,7.86l-.42.77c.47-2.83.88-5.52,1.4-8.18a6.45,6.45,0,0,1,1-2.24c4.16-6.29,8.53-12.44,13.26-18.32a17.63,17.63,0,0,1,5-4.1,11.52,11.52,0,0,1,4.39-1.81c2-.24,4-.42,6.06-.52q15-.73,30.07-1.4h.3l.2,1.67h0C113.13,136.55,113.13,136.85,113.12,137.21Zm-38.2-1.35h0Zm38.83-.61-.59.07-.06-.66.6,0Zm.56-.1.12.76-.6,0-.07-.53Zm-1.16,1.09.5-.4.15.11,0,.54C113.45,136.7,113.25,136.57,113.14,136.24Zm2,1.29c-.08.14-.26.23-.48.4l0,.41-.59.06,0-.53.59-.11,0-.61-.54.06-.18-.63.64-.08.1.58.5.05C115.08,137.27,115.17,137.44,115.11,137.54Zm-.14-1.72.06.63-.51,0-.07-.55Zm-.63-1.27-.63.13,0-.29.63,0Zm52.05-3.86-51,2.34-.45,0-.15-.7-.62.35.09.53-.14.06-.43,0-.1-.61-.63.08-.06-.61.56-.09.06-.55.59-.05V132l.66.16c0-.27,0-.54,0-.88l-2,.15.1,1.71-5.49.21c-10.08.39-20.17.73-30.23,1.62a12.2,12.2,0,0,0-4.91,1.63,19.15,19.15,0,0,0-5.83,4.5c-1.29,1.6-2.6,3.18-3.79,4.84-3.37,4.7-6.69,9.44-10,14.17A11.92,11.92,0,0,0,51,165a14.77,14.77,0,0,0-.24,1.85,18.23,18.23,0,0,1-2.82,8.41c-.73,1.2-1.53,2.37-2.31,3.54a17.06,17.06,0,0,1-8,6.21,22.05,22.05,0,0,1-17.48,0,22.56,22.56,0,0,1-7.33-5,18.58,18.58,0,0,1-2.8-4.37,16.33,16.33,0,0,1-1.75-8.54,76,76,0,0,1,2.37-16.71q1.65-6.81,3.46-13.58a38.38,38.38,0,0,1,3.79-8.76c2.58-4.6,5.3-9.12,8-13.64,7.3-12.09,14.72-24.11,22.67-35.78A84.25,84.25,0,0,1,63.11,62.49C75.33,51.88,87.9,41.7,100.55,31.61c6.83-5.45,13.63-10.94,20.46-16.39a5.65,5.65,0,0,1,1.41-.67.63.63,0,0,1,.85.37,2.68,2.68,0,0,1,.31,2.47c-2.63,5.61-5.19,11.25-8,16.79a25.25,25.25,0,0,1-3.49,4.63c-5,6-10.57,11.44-16,17-2.28,2.32-4.72,4.49-6.56,7.22-2.39,3.56-4.82,7.09-7.18,10.66-6.77,10.23-13.4,20.56-20.6,30.5-.48.67-1,1.29-1.46,2a4.68,4.68,0,0,1-3.12,2.06c-1.88.46-3.79.8-5.68,1.23a17.65,17.65,0,0,0-10.29,6.17,72.85,72.85,0,0,0-9.35,15c-1.74,3.74-3.31,7.56-4.77,11.41a20.69,20.69,0,0,0-.57,12.48,8,8,0,0,0,1.22,2.44,11.11,11.11,0,0,0,3.59,3.26,6.12,6.12,0,0,0,5.6.48A17,17,0,0,0,40.05,159a5.84,5.84,0,0,0,2.62-4.27c.33-2.54.64-5.08.84-7.64a21.26,21.26,0,0,1,3.3-10.3,20.12,20.12,0,0,1,4.48-4.56C55.16,129.17,59,126,63,123.09A55.63,55.63,0,0,0,75.51,110Q91.21,87.52,107,65.13c1.07-1.53,2.17-3,3.25-4.56a8.65,8.65,0,0,1,3.33-2.95,8.83,8.83,0,0,1,2.36-.68c2.2-.34,4.42-.61,6.63-.91a11.54,11.54,0,0,0,7.5-4.29,59.48,59.48,0,0,0,6.79-9.84A76.48,76.48,0,0,0,141.09,32c1.59-4.36,3.16-8.72,4.74-13.08.48-1.33.89-2.68,1.44-4A2.56,2.56,0,0,1,151,13.56a9.89,9.89,0,0,1,3,2.36,25,25,0,0,1,5,8.4,49.85,49.85,0,0,1,2.28,10.49c1,6.84,1.4,13.75,1.88,20.64.58,8.35,1.12,16.71,1.71,25.06a33.46,33.46,0,0,0,1.82,8.23A60.25,60.25,0,0,0,174,102.93c3.35,5.06,6.73,10.11,10.2,15.09,1.63,2.34,3.52,4.49,5.23,6.76.74,1,1.3,2.08,2,3.07a1.82,1.82,0,0,1-.76,2.52,48.53,48.53,0,0,1-8.31,3.6,47.26,47.26,0,0,1-9.06,2.16c-1.2.12-1.64-.11-2.1-1.25a8,8,0,0,1-.46-1.75,2.68,2.68,0,0,0-2.3-2.33A8.09,8.09,0,0,0,166.39,130.68Zm8.7,6.36h0Zm10.43-3.14.1,0,0,0Zm3.41-1.39.11-.05,0,.07Z" fill="#fff"/></svg>