<svg xmlns="http://www.w3.org/2000/svg" viewBox="0 0 200 200"><title>Circuits</title><g id="Isolation_Mode" data-name="Isolation Mode"><path d="M32.23,115.76l.31-.65c-1-.59-2-1.17-3-1.79q-5.57-3.41-11.12-6.84-4.26-2.64-8.49-5.31a5.42,5.42,0,0,1-2.1-1.85,2.79,2.79,0,0,1-.06-2.21c.7-2.51,1.48-5,2.26-7.49,1.49-4.8,2.9-9.62,4.55-14.36a57.65,57.65,0,0,1,3.57-8.08,49.22,49.22,0,0,1,4-6c1.76-2.41,3.65-4.73,5.43-7.12a11.06,11.06,0,0,0,2.2-4,14,14,0,0,0,.41-2.65c.08-2.28,0-4.56.12-6.84s.18-4.43.43-6.63a6.16,6.16,0,0,1,2.77-4.48c3-2.06,5.88-4.18,8.84-6.24A59.72,59.72,0,0,0,52.41,15c2.31-2.52,4.75-4.93,7.16-7.36a14.08,14.08,0,0,1,2.08-1.78c1.85-1.25,3.75-1,5.7-.16,2.23,1,3.87,2.79,5.61,4.41,1.49,1.39,3,2.81,4.39,4.24,2,2,4,4.05,6.05,6.07s4,4.13,6.1,6.18c2.54,2.55,5.09,5.1,7.66,7.62,1.58,1.54,3.17,3.06,4.82,4.52,2.33,2.07,4.69,4.12,7.1,6.1,2,1.66,4.12,3.27,6.24,4.81,3.25,2.35,6.52,4.67,9.85,6.9,1.68,1.12,3.51,2,5.29,3,3.85,2.13,7.84,4,11.27,6.84,2.42,2,4.76,4.06,7,6.26,2.64,2.63,5.15,5.4,7.62,8.19s4.88,5.57,7.17,8.48a30.55,30.55,0,0,1,2.65,4.5c1.38,2.55,2.65,5.16,4,7.71a24.82,24.82,0,0,0,2.48,3.88,50.54,50.54,0,0,0,3.91,4.11c3.35,3.28,6.82,6.44,10.09,9.8a12.68,12.68,0,0,1,3.4,6.34c.42,2,1,4,1.31,6,.47,3.2.85,6.42,1,9.64a4.84,4.84,0,0,1-2.31,4.62c-2.31,1.47-4.85,2.43-7.26,3.66-2,1-4,2.18-6,3.32a31.47,31.47,0,0,0-6.18,4.65,52.07,52.07,0,0,0-3.92,4.21,69.48,69.48,0,0,0-4.61,6.19,21.4,21.4,0,0,0-2.23,4.8c-.79,2.34-1.38,4.75-2,7.15-.9,3.47-1.76,6.95-2.64,10.43-.11.43-.27.85-.41,1.28a3.14,3.14,0,0,1-2.61,2.06c-3.42.72-6.85,1.42-10.29,2s-6.69,1-10,1.56a13.16,13.16,0,0,1-9.44-2c-2.7-1.75-5.45-3.42-8.07-5.29-3.07-2.17-6.08-4.44-9-6.82a12.61,12.61,0,0,1-2.41-3.24,39.36,39.36,0,0,1-3.62-9.05q-.7-2.31-1.38-4.64a15.06,15.06,0,0,0-2.71-5.07c-1.91-2.47-3.81-5-5.81-7.38-1.57-1.91-3.27-3.73-4.93-5.57-1.34-1.5-2.68-3-4.07-4.44A21.37,21.37,0,0,0,76,140c-3.53-2.07-7-4.2-10.58-6.26-2.64-1.53-5.32-3-8-4.5-3.88-2.18-7.78-4.32-11.66-6.52-3.52-2-7-4-10.52-6.06a1.8,1.8,0,0,0-1.85,0c-.18-.2-.53-.43-.51-.6C33,115.06,32.56,115.59,32.23,115.76Zm1.15-2c.11.21.23.42.33.64a3.07,3.07,0,0,0,.17.42.58.58,0,0,0,.28-.09,3.81,3.81,0,0,0-.07-.47c0-.17,0-.47,0-.49a9.2,9.2,0,0,1,1.07-.21.74.74,0,0,0,.34-.14s0-.28-.07-.29a1.53,1.53,0,0,0-.42,0c-.5,0-.93.53-1.49.28l.28-.79c-.76-.47-1.51-.92-2.25-1.39-2.59-1.62-5.22-3.18-7.76-4.87a13.89,13.89,0,0,0-6.4-2.17c2,1.33,4.12,2.62,6.2,3.89,2.72,1.67,5.45,3.34,8.19,5A11.83,11.83,0,0,0,33.38,113.74Zm2.74-.94c-.5.42-.43.66.12,1,1.67.94,3.29,2,4.95,2.93q4.64,2.69,9.3,5.34a17.12,17.12,0,0,1,4.08,2.78,16.44,16.44,0,0,0,2.59,2.49c1.83,1.23,3.78,2.27,5.68,3.37q5.93,3.45,11.85,6.87a29.55,29.55,0,0,1,7.91,6.3c1.73,2,3.63,3.92,5.41,5.92,1.51,1.69,3,3.41,4.43,5.17s2.87,3.71,4.27,5.59a16.76,16.76,0,0,1,2.68,5c.7,2.25,1.3,4.54,2.07,6.77a61.22,61.22,0,0,0,2.33,5.84,11.53,11.53,0,0,0,2.09,3.28,64.89,64.89,0,0,0,9.65,7.49c2.83,1.94,5.74,3.75,8.67,5.54a8.62,8.62,0,0,0,4.73,1.46c1.34,0,2.68-.12,4-.28,2.63-.34,5.26-.7,7.87-1.14,2.46-.42,4.9-1,7.34-1.46,1.35-.27,2.71-.55,4.06-.84a1.89,1.89,0,0,0,1.5-1.46c.84-3.24,1.66-6.48,2.52-9.71.78-3,1.53-5.91,2.43-8.81a23.69,23.69,0,0,1,4.29-8c1.65-2,3.31-4.07,5.08-6a37,37,0,0,1,4.05-3.77,37.93,37.93,0,0,1,4.2-2.92c1.9-1.16,3.85-2.24,5.82-3.27,2.24-1.15,4.55-2.18,6.81-3.32a3.31,3.31,0,0,0,2-2.79,20.26,20.26,0,0,0,0-2.7c-.18-2.1-.32-4.2-.66-6.27-.39-2.37-1-4.69-1.46-7A11.34,11.34,0,0,0,186,120.6c-2.38-2.56-4.95-5-7.45-7.42-2.19-2.15-4.44-4.26-6.58-6.47a22.48,22.48,0,0,1-3.55-5.56c-1.24-2.4-2.43-4.83-3.69-7.21a25.93,25.93,0,0,0-2-3.4c-1.21-1.63-2.54-3.17-3.85-4.72-1.86-2.22-3.68-4.47-5.65-6.59-2.47-2.64-5-5.18-7.62-7.73a43,43,0,0,0-8-6.42c-2.75-1.66-5.62-3.12-8.42-4.71a72.34,72.34,0,0,1-6.52-3.89c-5-3.6-10-7.24-14.83-11.08-3.41-2.69-6.59-5.68-9.8-8.62-2.22-2-4.31-4.2-6.45-6.32q-3.55-3.53-7.08-7.07C82,21,79.58,18.53,77.17,16.12q-2.74-2.73-5.54-5.41A20.37,20.37,0,0,0,67,7.05c-1.81-.91-3.4-1.07-4.93.17a19.49,19.49,0,0,0-1.87,1.63c-2.55,2.63-5,5.34-7.63,7.91a68.45,68.45,0,0,1-5.29,4.63c-1.59,1.27-3.32,2.36-5,3.54-2,1.41-4,2.79-6,4.23a26.25,26.25,0,0,0-3,2.51C32.08,32.84,32,34.46,31.91,36c-.17,3.63-.26,7.28-.33,10.92a10.12,10.12,0,0,1-1.43,5.85C28,55.89,25.59,58.92,23.28,62a38.18,38.18,0,0,0-4.66,7.26c-.87,1.93-1.71,3.89-2.44,5.88-1,2.69-1.93,5.41-2.82,8.15-.67,2.07-1.22,4.17-1.83,6.26-.82,2.74-1.65,5.48-2.47,8.23a1.27,1.27,0,0,0,.52,1.5c.56.4,1.14.77,1.72,1.13,2.63,1.66,5.11,3.61,8.38,3.92,1.92.19,3.45,1.32,5,2.33,2.15,1.37,4.33,2.71,6.5,4,.94.58,1.9,1.15,2.76,1.67l.62-.49c.09.23.16.46.26.68a2.65,2.65,0,0,0,.33.46l.32-.65Zm19.57,13.84.16-.22a30.09,30.09,0,0,0-3.46-3c-2.42-1.51-5-2.78-7.47-4.21-2.92-1.71-5.81-3.48-8.71-5.22-.38-.23-.75-.35-1,.16s-.37.69.18,1c3,1.71,6,3.46,9.06,5.17,3.21,1.83,6.43,3.63,9.65,5.43C54.63,126.09,55.16,126.36,55.69,126.64Zm-21.95-11-.53-1.21-.25.07.26,1.36Z" fill="#ed0f4e" stroke="#ed0f4e" stroke-miterlimit="10"/></g></svg>