<svg id="Layer_1" data-name="Layer 1" xmlns="http://www.w3.org/2000/svg" viewBox="0 0 200 200"><title>Circuits</title><path d="M130.94,67.17c-.13.13.17-.06,0,0Z" fill="#fff"/><path d="M175.07,6.24c-4.94,1.83-9.88,3.63-14.83,5.44q-12.16,4.46-24.32,8.92c-5.13,1.9-10.25,3.84-15.37,5.76l-5.84,2.16.49,1.58,36.17-13.33-.08.24-36,13.38.45,1.45c1.29-.54,2.56-1.08,3.85-1.57,6.36-2.41,12.68-5,19.12-7.16,6.59-2.25,12.7-5.49,19-8.43,2-.94,4.06-1.75,6.13-2.51,3.75-1.37,7.46-2.88,11.24-4.17a11.2,11.2,0,0,1,9.74.72,45.15,45.15,0,0,1,4,2.62,6.63,6.63,0,0,1,2.64,6.25c-.45,3-2.35,4.5-5.17,5.17q-8.51,2-17,4.26a9,9,0,0,0-6.72,6.36c-.22.73-.46,1.47-.73,2.18A8.33,8.33,0,0,1,154,40.9a80.11,80.11,0,0,1-8.11-.4c-6.43-.74-10.21,3.08-11.89,7.9-.51,1.46-1.05,2.91-1.5,4.39-1.79,5.86-8.35,6.35-12,3.68-2.1-1.52-4.08-3.21-6.15-4.78a12.94,12.94,0,0,0-10.74-2.51,14.68,14.68,0,0,0-7,3.74c-.73.66-1.46,1.33-2.23,1.93a25.08,25.08,0,0,0-3.14,4,33.14,33.14,0,0,0-2.09,3.9A28.4,28.4,0,0,0,88,66.68,11.14,11.14,0,0,0,87.67,72a25.76,25.76,0,0,0,.58,2.88c.9,2.43,1.92,4.81,2.89,7.21L95.66,89c2.49,3.66,5,7.34,7.5,11a4,4,0,0,1,.81,3.5c-1.1,4.7-2,9.46-3.08,14.16-.55,2.31-1.17,2.56-3.47,2.3l-6.33-.71,1.63-2.59c2.51-4,3.68-8.32,2.64-13a14.88,14.88,0,0,0-1.07-3.06c-1.62-3.47-3.29-6.92-5-10.38l-1.68-3.64c-2.15-4.9-5.23-9.54-6.77-15-.86-1.73,1.19-3.63,1.19-3.63.35-1.05,2-1.25,3.13-1.79,2-.93,2.75-2.87,2.44-5.27-.09-.73-.23-1.47-.28-2.21a15.78,15.78,0,0,0-.46-2.46,14.83,14.83,0,0,1-.31-2A13.63,13.63,0,0,1,87,49.06c.77-2.55,2.51-4.25,4.5-6,.82-.71,1.44-1.58,2.19-2.36,2.08-2.16,5.08-2.94,7.81-3.93,3.37-1.22,6.78-2.35,10.33-3.58l-.44-1.41L98.61,36.58S83.51,44,85.83,54.15a34.31,34.31,0,0,1,1,6.58,5.45,5.45,0,0,1-.37,2.68c-.32.59-1.05.78-1.63,1a14.82,14.82,0,0,0-1.85.93,9.89,9.89,0,0,0-2.65,1.82A12.52,12.52,0,0,1,85,63.86s2.83.08.46-9.67,7.71-15.2,13-17.93l12.83-4.73-.5-1.59c-2,.78-3.86,1.52-5.75,2.24-3,1.14-6.14,2.07-9.05,3.43A30.41,30.41,0,0,0,84,45.71c-1.87,4.55-.58,8.27-.52,11.59,0,.5.42,4.39.46,4.89.1,1.38-2.72.36-4,.86l-.44.34c-2,2.39-.79,5.77-.71,6.35s.31,1.17.5,1.76a50.4,50.4,0,0,0,2.42,6.28c3.7,7.82,7.53,15.57,11.21,23.39a12.72,12.72,0,0,1,1,8.4A22.35,22.35,0,0,1,91.87,115a9.57,9.57,0,0,1-3,4c-4.78-.49-9-1.07-14-1.69-.74-.2-1.68-.19-2.61-.35a38.36,38.36,0,0,0-4.6-.57c-4-.18-7.17-2.24-10.1-4.7-1.72-1.44-3.25-3.11-4.92-4.62-2-1.84-4.32-1.53-5.74.69-.95,1.48-.67,3.25.76,4.78,2.94,3.12,5.91,6.21,8.8,9.38a21.86,21.86,0,0,1,5.78,10.59c.66,3.41-.16,6.72-1,10-1.42,5.83-4.41,10.91-8,15.65C48,165.21,41,169.54,32.08,170.49c-3.35.35-6.72.52-10.07.91-2.92.34-5.84.81-8.73,1.37a5.64,5.64,0,0,0-4.2,3.53c-1.21,2.92-2.3,5.89-2.21,9.15C7,190,9,193.2,13.71,194.28a9.54,9.54,0,0,0,6.73-1.06c2.29-1.22,4.54-2.53,6.78-3.85a98.34,98.34,0,0,0,14.36-10.31c2-1.71,3.87-3.51,5.78-5.29h0s4.55-4.9,11.42-13.32l2.65-3.36s0,.08,0,.12q2.53-3.16,5.35-6.82h0c2.69-4.08,6-7.75,9-11.66,2.83-3.76,5.76-7.45,8.65-11.16,1.77-2.27,3.55-4.52,5.36-6.83.61,0,1,0,1.31.09,2.09.26,4.18.57,6.27.79a4.42,4.42,0,0,0,5.25-3.41,19.3,19.3,0,0,0,.94-5.1,22.67,22.67,0,0,1,1.54-7.35c1-2.56,1.08-4.4-.42-6.28a56.77,56.77,0,0,1-4.6-6.41c-2.77-4.68-6.17-9.14-8.65-14a18.51,18.51,0,0,1,0-17.25,32,32,0,0,1,2.92-4.38,8.53,8.53,0,0,1,2.56-2.57c.8-.63,1.47-1.16,2.13-1.71,4.21-3.48,9.32-3.48,13.71-.64a66.65,66.65,0,0,1,6.71,5.1,8.57,8.57,0,0,0,5.83,2c3.73,0,6.54-1.52,8.09-5,1-2.24,1.88-4.53,2.74-6.83A8.44,8.44,0,0,1,144.84,42c3,.18,6,.3,9.06.4a9.82,9.82,0,0,0,7-2.48A9.17,9.17,0,0,0,163.49,35c1.07-4,3.78-6.08,7.64-7q8.12-1.92,16.23-3.93a7.46,7.46,0,0,0,5.62-5.8,7.43,7.43,0,0,0-2.56-7.48,33.81,33.81,0,0,0-6.13-4A11.41,11.41,0,0,0,175.07,6.24Zm-95,61.3a1.67,1.67,0,0,0-.12.24A1.72,1.72,0,0,1,80.1,67.54Zm5,56.7c-5.44,7-10.92,13.92-16.35,20.9C63.18,152.28,57.83,159.6,52,166.55A122.06,122.06,0,0,1,41.16,177.4c-5.79,5.4-12.55,9.42-19.36,13.39-2.46,1.44-4.88,2.42-7.75,2a6.28,6.28,0,0,1-5.35-4.73,17.19,17.19,0,0,1,1.78-11.23,5.23,5.23,0,0,1,3.92-2.9c3.12-.49,6.25-.86,9.39-1.22,4-.46,8-.59,11.93-1.35A29.46,29.46,0,0,0,52.86,161a48.06,48.06,0,0,0,9.35-15.87c1-3,1.22-6.31,1.79-9.48.09-.48.13-1,.19-1.46h0c-.77-6.09-4.1-10.74-8.15-15.08-2.49-2.67-4.65-5.63-6.94-8.48a1.51,1.51,0,0,1,0-2.27,1.67,1.67,0,0,1,2.31.1c.16.13.35.24.51.38,1.38,1.19,2.81,2.34,4.13,3.6a20.49,20.49,0,0,0,12.38,5.7c6.35.67,12.68,1.5,19.38,2.3C86.84,121.83,86,123.06,85.09,124.24Z" fill="#fff"/><rect x="115.43" y="34.68" width="1.38" height="1.38" transform="matrix(-0.95, 0.3, -0.3, -0.95, 237.52, 34.44)" fill="#fff"/><rect x="113.7" y="33.77" width="1.38" height="1.38" transform="translate(233.86 33.18) rotate(162.62)" fill="#fff"/><rect x="112.79" y="35.51" width="1.38" height="1.38" transform="translate(232.6 36.84) rotate(162.62)" fill="#fff"/><rect x="114.61" y="32.04" width="1.38" height="1.38" transform="translate(235.11 29.52) rotate(162.62)" fill="#fff"/><rect x="112.87" y="31.13" width="1.38" height="1.38" transform="translate(231.45 28.27) rotate(162.62)" fill="#fff"/><rect x="111.97" y="32.87" width="1.38" height="1.38" transform="translate(230.2 31.93) rotate(162.62)" fill="#fff"/><rect x="113.78" y="29.4" width="1.38" height="1.38" transform="translate(232.71 24.61) rotate(162.62)" fill="#fff"/><rect x="112.05" y="28.49" width="1.38" height="1.38" transform="translate(229.05 23.36) rotate(162.62)" fill="#fff"/><rect x="111.14" y="30.22" width="1.38" height="1.38" transform="translate(227.79 27.01) rotate(162.62)" fill="#fff"/><rect x="112.95" y="26.76" width="1.38" height="1.38" transform="translate(230.3 19.7) rotate(162.62)" fill="#fff"/><rect x="111.22" y="25.85" width="1.38" height="1.38" transform="translate(226.64 18.44) rotate(162.62)" fill="#fff"/><rect x="110.31" y="27.58" width="1.38" height="1.38" transform="translate(225.39 22.1) rotate(162.62)" fill="#fff"/><rect x="112.13" y="24.12" width="1.38" height="1.38" transform="matrix(-0.95, 0.3, -0.3, -0.95, 227.9, 14.78)" fill="#fff"/><rect x="109.49" y="24.94" width="1.38" height="1.38" transform="translate(222.98 17.19) rotate(162.62)" fill="#fff"/></svg>