<svg id="Layer_1" data-name="Layer 1" xmlns="http://www.w3.org/2000/svg" viewBox="0 0 200 200"><title>Circuits</title><rect x="132.8" y="183.11" width="1.76" height="1.76" fill="#fff"/><rect x="132.8" y="186.64" width="1.76" height="1.76" fill="#fff"/><rect x="132.8" y="190.26" width="1.76" height="1.76" fill="#fff"/><rect x="131.04" y="184.88" width="1.76" height="1.76" fill="#fff"/><rect x="134.57" y="184.88" width="1.76" height="1.76" fill="#fff"/><rect x="132.8" y="193.78" width="1.76" height="1.76" fill="#fff"/><rect x="131.04" y="192.02" width="1.76" height="1.76" fill="#fff"/><rect x="134.57" y="192.02" width="1.76" height="1.76" fill="#fff"/><rect x="131.04" y="195.55" width="1.76" height="1.76" fill="#fff"/><rect x="134.57" y="195.55" width="1.76" height="1.76" fill="#fff"/><path d="M36.82,104.77h0S36.83,104.78,36.82,104.77Z" fill="#fff"/><path d="M188.23,178.56c0-4.86-1.69-9.21-4-13.37-1.2-2.14-2.43-4.26-3.46-6.48a26.43,26.43,0,0,0-10.17-11.82c-5.72-3.5-11.54-6.84-17.15-10.51a53.89,53.89,0,0,1-6.94-6,4.5,4.5,0,0,1-1.28-2.39,19.91,19.91,0,0,0-4.18-8.79Q122.45,94.73,103.8,70.29c-1.45-1.9-3-3.76-4.46-5.64L99,64.12s0,0,.05,0c-.42-.58-.82-1.17-1.25-1.74q-15.51-20.52-31-41C59.62,11.83,50.19,6.2,38.29,4.94c-3.33-.35-6.72-.58-10,.74l0,0a13.78,13.78,0,0,0-1.75.5A19.28,19.28,0,0,0,15.72,18.35,38.17,38.17,0,0,0,15,39.59q6.5,27.57,13.28,55.07a19.57,19.57,0,0,0,2.52,5.7,9.21,9.21,0,0,0,6,4.4c0-.05,0,0,0,0l.67.18a7.16,7.16,0,0,0,1.28.43,12.75,12.75,0,0,0,9.86-2.47q12.89-9.72,25.73-19.5c2.27-1.73,3.8-1.59,5.49.79l20.07,28.17c.31.44.58.91,1,1.55-.76.07-1.26.14-1.76.16l-29.21.79c-9.94.28-19.88.49-29.82.88-4.44.17-7.57,2.57-9.48,6.54A18.35,18.35,0,0,0,29.36,133c1.3,9.7,2.64,19.39,3.87,29.09.66,5.15,1.28,10.27,4.3,14.73l8.94,9.45A24.18,24.18,0,0,0,62,192.16c12,.12,24,.16,36,.2H131v-.62l-.1-1.49h1.91c.11-.63-.11-1.22,0-1.85-10.12,0-20.11,0-30.23,0l-.11-.55c1-.5,2-.94,3-1.51a22.12,22.12,0,0,1,13.47-3c3.36.26,6.75.09,10.12,0a31.8,31.8,0,0,0,3.53-.44c.06-.6-.1-1.22,0-1.93a9.87,9.87,0,0,0-1.08-.1c-6.24,0-12.49,0-18.73.05a6.7,6.7,0,0,0-2.64.58c-4.23,1.93-8.42,4-12.64,5.9A6.18,6.18,0,0,1,95,188c-10.7,0-21.39-.1-32.09-.11a22.32,22.32,0,0,1-12.52-4l-1.65-1c-2.06-2.12-4.25-4.14-6.16-6.39-3.57-4.21-4.42-9.4-5.05-14.7-1.18-9.75-2.56-19.47-3.87-29.2-.47-3.47-.4-6.84,1.66-9.88l.31-.59c2.13-2.08,4.83-2.2,7.58-2.27q28-.71,55.95-1.47c.36,0,.72,0,1.07-.05,4.59-.39,6.36-3.95,3.72-7.69q-10.46-14.81-21-29.54C80.22,77.38,75.59,77,72,79.75,63.5,86.3,54.9,92.68,46.42,99.22c-4.62,3.57-12,2.77-13.9-5.14Q25.65,65.81,19,37.5a32.69,32.69,0,0,1,.49-16.73C21.05,15.28,24.22,10.89,30,9.64a28.36,28.36,0,0,1,10.2-.07,34.8,34.8,0,0,1,22.86,14q37.2,49.05,74.39,98.11a63.14,63.14,0,0,1,3.44,5.63l.47,1.11c.63,1.24.44,2.9,1.25,4a28.06,28.06,0,0,0,8.1,7.43c5.5,3.36,11,6.73,16.57,10,5.1,3,8.36,7.42,10.52,12.81a17.71,17.71,0,0,0,1.59,3c2.5,3.89,4.38,8,4.56,12.7a4,4,0,0,1-2.09,3.92,46.68,46.68,0,0,1-13.11,5.5,3.23,3.23,0,0,1-2.22-.41c-2.95-1.85-5.81-3.84-8.74-5.73a4,4,0,0,0-2-.7c-6.87-.06-13.74,0-20.6-.05a2.12,2.12,0,0,0-.47.09c0,.62-.07,1.29,0,1.93a32.38,32.38,0,0,0,3.69.44c5.33,0,10.65,0,16,.06a6.36,6.36,0,0,1,3,.91,33.89,33.89,0,0,1,5.57,4.09c-9.51,0-18.86,0-28.37,0,.11.63-.11,1.22,0,1.85h1.78l.07,1.66h0v.45h31c6.74-.85,12.76-3.83,18.41-7.71a5.07,5.07,0,0,0,2.23-4.34l0,0A12.21,12.21,0,0,0,188.23,178.56Z" fill="#fff"/></svg>