<svg id="Layer_1" data-name="Layer 1" xmlns="http://www.w3.org/2000/svg" viewBox="0 0 200 200"><title>Circuits</title><path d="M193.41,31.51a65.31,65.31,0,0,0-7-19.9c-1.27-2.28-3.61-3.4-5.48-2.72s-2.77,2.8-2.07,5.65c.19.79.55,1.54.82,2.31,1.83,5.27,3.92,10.46,5.4,15.83,1.6,5.8,1.74,11.74-1,17.34-1.9,3.82-4.64,6.79-9.16,7.46-3.87.57-6.37-1.53-6.1-5.37.39-5.47,1-10.92,1.49-16.39a23,23,0,0,0,0-5.85c-1-5.72-6.49-8-11.21-4.7-20.83,14.35-41.22,29.29-60.91,45.18h0l-1,.81-.75.6-.19.16L77.48,87.18c-3.7,3-7.4,6-11,9.11-1.65,1.43-3,3.18-2.13,5.6s3.08,2.69,5.21,3c.32,0,.77-.11,1,.06.64.56,1.8,1.34,1.7,1.82-1.09,5.3.19,11.07-3.16,16l-10.12,8.78c-1.08-.54-2.53-.67-3.29-1.48-2.48-2.62-4.62-5.55-7.08-8.19-2.78-3-6.83-3-9.92-.33a17,17,0,0,0-5.58,9.35c-.88,3.93-1.63,7.9-2.83,11.74a18.11,18.11,0,0,1-3.42,6.66c-3.95,4.38-8.28,8.43-12.5,12.55a7.81,7.81,0,0,0-2.18,8.59c2.08,5.79,4.44,11.49,7,17.09,1.27,2.82,4.07,3.52,6.92,2.23A20.5,20.5,0,0,0,29,188c4.08-2.76,8.12-5.59,12.22-8.33,2.23-1.49,3.31-1.12,4.33,1.38.52,1.29.89,2.65,1.33,4,.85,2.56,1.55,5.2,2.61,7.68s2.86,3.19,5.45,2.61a47.9,47.9,0,0,0,4.73-1.38Q74.25,189,88.83,184c15.23-5.18,30.53-10.17,45.66-15.63A79.89,79.89,0,0,0,155.69,157a60.92,60.92,0,0,0,19.12-24A140.92,140.92,0,0,0,182,114.19c2-7.08,3-14.44,4.46-21.68.7-3.55,1.57-7.07,2-10.65.77-5.81-2-9.41-7.66-10.55a4.49,4.49,0,0,1-2.18-1c-.39-.38-.62-1.64-.4-1.8,2.63-2,5.26-5.19,8.1-5.42,5.92-.48,6.9-3.12,7.49-7.28A74.42,74.42,0,0,0,193.41,31.51Zm-2.66,23.8c-.28,3.4-1,3.94-4.46,4.08a6,6,0,0,0-3,.76,74.24,74.24,0,0,0-7.2,5.56,4.47,4.47,0,0,0-.46,6.43,11,11,0,0,0,4.65,2.41c3.88,1.08,5.81,3.5,5,7.37-2.44,11.4-4.93,22.8-7.66,34.13l-2.19,6.54c-.5,1.49-.87,2.78-1.35,4-6.26,16.11-17.11,27.95-32.87,35.17-3,1.39-6.14,2.64-9.24,3.89v0l-1,.37-1.35.55a5,5,0,0,1-1.16.39l-5.95,2.22a47.17,47.17,0,0,1-5.45,1.94c-4.7,1.47-9.36,3.07-14,4.63q-23.73,7.91-47.44,15.85c-1.76.59-2.85.29-3.43-1.52-1.05-3.28-2.06-6.57-3.22-9.81-1.83-5.11-5.3-6.28-9.82-3.3-4.18,2.76-8.26,5.68-12.41,8.47-3.21,2.15-4.28,1.81-5.7-1.67-1.73-4.26-3.46-8.52-5.16-12.79-1.28-3.21-.84-5.14,1.64-7.55,3.36-3.26,6.68-6.55,10.08-9.77a20.93,20.93,0,0,0,6.53-11.87,61.5,61.5,0,0,1,2.21-9.58A23.9,23.9,0,0,1,40.15,125c2.4-2.92,4.46-2.72,6.93.12,2.1,2.42,4,5,6.11,7.42a5.93,5.93,0,0,0,6.37,2.16,1.87,1.87,0,0,0,.88-.72l11-9.06a.7.7,0,0,0,.22-.18,11.47,11.47,0,0,0,2.05-4.12c.86-4.6,1.43-9.24,1.91-12.54.16-4.6-2-6.78-5-6.65a12.09,12.09,0,0,1-2.72-.5,9.77,9.77,0,0,1,1.58-2.75c3.29-2.85,6.69-5.56,10.09-8.28L99,74h0c9.91-7.71,19.72-15.55,29.79-23,10.41-7.75,21.07-15.14,31.72-22.55,1.16-.81,3.63-1.43,4.36-.81A7.07,7.07,0,0,1,167,32.45c0,3.17-.72,6.35-1,9.54-.32,3.75-.7,7.52-.65,11.28.06,4.44,3,7.54,7.43,7.61a14.11,14.11,0,0,0,7-1.64c8.23-4.79,10.14-12.67,9.45-21.45-.62-7.88-3.42-15.19-6.46-22.41a22.39,22.39,0,0,1-.71-2.37l.66-.3a20.75,20.75,0,0,1,1.27,1.87c5,9.41,7.08,19.57,7.22,30.14C191.33,48.25,191,51.79,190.75,55.31Z" fill="#fff"/></svg>