<svg id="Layer_1" data-name="Layer 1" xmlns="http://www.w3.org/2000/svg" viewBox="0 0 200 200"><title>Circuits</title><path d="M191.73,22.76c-1-.05-1-1.12-1.61-1.54a3.74,3.74,0,0,1-.66-.23c-2.7-1.6-5.3-3.36-8.12-4.77a6,6,0,0,0-1.47-.73,37.62,37.62,0,0,0-7.11-1c-3.92.07-7.65.64-10.81,3.25-1,.84-2.18,1.52-3.27,2.27-.3.21-.8.36-.88.64-.49,1.61-2,1.77-3.21,2.11a6.49,6.49,0,0,1-5.12-.83,8.39,8.39,0,0,1-2.23-2.18c-1.2-1.58-2.27-3.26-3.2-4.61a5.27,5.27,0,0,0-4.3-.91L123.89,25.12c-5.35,3.68-10.65,7.43-16.06,11s-10.2,7.64-15.95,10.46L64,65.77,62.17,67l-.16-.2,1.65,2.4,1.26-.87L94.25,48.18C100,45.3,105,41.1,110.39,37.64c0,0,.14,0,.21,0s.06.1.05.15,0,.16-.07.2L64.16,69.95l.51.73q22.59-15.55,45.18-31.11c.87-.6,2-.93,2.48-2,.41-.91,1.51-1.13,2.1-2a11.26,11.26,0,0,1,3.17-2.81q10.45-7.26,21-14.42a27,27,0,0,1,3.2-1.62,5.07,5.07,0,0,1,2.49,1.88c.57.86,1.24,1.67,1.74,2.56,1.57,2.79,4.2,3.73,7.12,4a4.89,4.89,0,0,0,2.77-.58A29.68,29.68,0,0,0,161,21a24.62,24.62,0,0,1,2-1.83,14.68,14.68,0,0,1,5.4-2.13,26.94,26.94,0,0,1,7.08-.25,11.58,11.58,0,0,1,6.11,1.88c1.91,1.21,3.91,2.25,5.87,3.36a6.56,6.56,0,0,1,3.19,3.12,13.68,13.68,0,0,1,0,4.06A7,7,0,0,1,187.48,34q-7,4.8-14,9.66a5.32,5.32,0,0,1-3.09,1.15c-1,0-2.17.54-3-.5-3.14-.61-6-2.08-9-3s-5.75-2.18-8.68-3.11a36.39,36.39,0,0,0-4.42-1.41,6.41,6.41,0,0,0-4.07.47,8,8,0,0,0-2.74,1.54,9.53,9.53,0,0,0-2.16,3c-.66,2-1.6,5.8-.27,8.47.59,1.19.86,2.49,2.2,3.17.4.21.6.81.94,1.3l9.27,4.13,1.25,1.82a12.44,12.44,0,0,1,.07,3.68A6.85,6.85,0,0,1,147.39,68a8.94,8.94,0,0,1-.91.63q-32.55,22.38-65.11,44.74A6.38,6.38,0,0,0,78.63,117a15.62,15.62,0,0,0-.16,3.52,25.56,25.56,0,0,0,2.8,4,46.54,46.54,0,0,1,4.37,5.65,5,5,0,0,0,1.17.85,8.1,8.1,0,0,1,.29,1.42,8.73,8.73,0,0,1-.27,1.56l-2.4,1.13a18.54,18.54,0,0,1-2.89-2.23c-1.19-1.33-4.34-1.62-5.68-.53a10.32,10.32,0,0,0-2.11,2.51,4.78,4.78,0,0,0-.39,3.11c0,.33.14.66.27,1.3a58.21,58.21,0,0,0,4.64,6.6c1.87,2.06,3.12,4.58,5,6.53s3,4.05,4.6,6c.47.59,1.13,1,1.62,1.62a21,21,0,0,1,1.23,1.75c.61,2.94-.76,5-2.27,6.94a7.65,7.65,0,0,1-2.13,2c-1.14.67-2.2,1.49-3.29,2.24a5.15,5.15,0,0,1-2.28,1.08c-.73.09-1.16.92-2.1,1s-1.61,1-2.65,1.24a18.79,18.79,0,0,0-3.59,1.83c-.49.24-1,.35-1.55.55s-.82.78-1.55.68c-.33,0-.73.41-1.11.6-3.28,1.64-6.58,3.28-10.31,3.59a20.25,20.25,0,0,1-5.88-.11,31.32,31.32,0,0,1-7.27-1.94c-.84-.4-1.46-1-2.25-1.44a36.5,36.5,0,0,1-6.13-4.44,31,31,0,0,1-2.93-3.39c-.55-.63-1.22-1.16-1.75-1.8s-.93-1.54-1.54-2.15-.49-1.62-1-2.32-1.39-1.43-1.43-2.19c-.08-1.48-1.38-2.23-1.64-3.64-.22-1.19-1.38-2.22-2.15-3.3-1-1.41-1.4-3.13-2.51-4.5a17.5,17.5,0,0,1-3-4.39c-.79-2-2.25-3.53-3.23-5.37a36.87,36.87,0,0,1-2.8-7.34c-.42-1.5-.47-3.1-.78-4.64s.22-3.19-.39-4.73c.58-3.18.53-6.44,1.7-9.56.71-1.9,1.32-3.84,2.08-5.74a34,34,0,0,1,4.72-7.42,13.33,13.33,0,0,1,1.45-1l37.2-25.58c1.57-1.08,3.34-2,4-4.15l.85.89-1.36-2c-.31.31-.78.56-.87.9-.56,2.06-2.24,3-3.83,4.11q-12.5,8.57-25,17.17c-1.84,1.27-4,2-5.77,3.39S22.83,99.45,21,100.7a21.84,21.84,0,0,0-4.45,5.15c-1,1.56-1.9,3.16-2.75,4.79a18.79,18.79,0,0,0-1.18,2.89,50.71,50.71,0,0,0-2.23,10.7,36.82,36.82,0,0,0,.44,8,54.53,54.53,0,0,0,1.41,6,16.24,16.24,0,0,0,1.24,2.67c.06.14,0,.36-.07.62,1.32,1.39,1.72,3.45,2.91,5.06s2.33,3.35,3.46,5c.06.1-.1.34-.15.52.86,1.33,1.75,2.64,2.72,4a7,7,0,0,1-2.72-3.95c-1.24-1.9-2.54-3.66-3.7-5.51-1-1.61-1.89-3.3-2.8-5,0-.06.13-.22.21-.33-1.45-1.72-1.84-3.92-2.42-6a34.28,34.28,0,0,1-1.27-10.79,41,41,0,0,1,1.11-7.75,33.87,33.87,0,0,1,4.41-10.28,44.63,44.63,0,0,1,4-5.23c2.09-2.42,4.73-4.12,7.22-6C37,87.08,48.48,79.86,59.51,72.07c.59-.42,1.2-.83,1.84-1.27l.54.54-2-2.87a14.31,14.31,0,0,1-2,1.48L35.47,85.38c-2.31,1.59-4.65,3.13-6.92,4.78a58.8,58.8,0,0,0-6.78,5.07c-1.4,1.36-2.93,2.6-4.26,4.08a34.12,34.12,0,0,0-6.27,9.11,43.81,43.81,0,0,0-3.38,10.22c-.23,1.34-.25,2.71-.46,4.06a28.13,28.13,0,0,0,0,7.74,47.26,47.26,0,0,0,2.21,8.94,44.44,44.44,0,0,0,4,8.52c3,5.16,7,9.73,9.76,15.08a35.58,35.58,0,0,0,2.48,3.66c.84,1.22,1.63,2.47,2.52,3.64s2,2.09,2.73,3.27a23.73,23.73,0,0,0,5.72,5.86,39.4,39.4,0,0,0,6.13,3.71A38.33,38.33,0,0,0,48.75,185a21.78,21.78,0,0,0,9.72.67,29,29,0,0,0,8.77-2.93c1.14-.55,2.51-.71,3.41-1.74,1.13.1,1.74-1,2.67-1.22a26.71,26.71,0,0,0,4-1.78c1.09-.51,2.32-.75,3.21-1.65,1.12.24,1.61-.94,2.48-1.12a6.5,6.5,0,0,0,2.64-1.34,13.34,13.34,0,0,0,2.78-2.33c.61-.78,1.68-1.33,2.24-2.21,1.42-2.24,2.88-4.5,2.33-7.49-2.23-2.73-4-5.9-6.43-8.66-3-3.37-5.42-7.21-8.11-10.83-.29-.39-.73-.65-1-1A19.42,19.42,0,0,1,76,139.26a11.88,11.88,0,0,1-.65-1.67c.15-1.55.59-3.11,2.34-3.8a6.48,6.48,0,0,1,4.85,2.72l2.75.57L88,135.84c1.28-2.67,1.28-2.67,1.18-4.49-1.59-1.81-2.64-4.12-4.53-5.92-1.57-1.49-2.58-3.57-3.81-5.41a2.48,2.48,0,0,1-.2-.79c-.43-1.79.43-2.91,1.85-3.88Q114.77,93.19,147.05,71a12.23,12.23,0,0,0,4.38-5.22,5.39,5.39,0,0,0,.49-1.62,23.25,23.25,0,0,0,0-2.46.46.46,0,0,1-.14-.22c-.07-.26-.08-.54-.15-.8a5.66,5.66,0,0,0-3.33-4.23c-2-.85-4-1.64-6-2.41a7.39,7.39,0,0,1-4.47-4.53c-.84-2.39-1-4.9.63-7.17a9,9,0,0,0,.66-1.39l2.74-1.88c1.28-.08,2.46-.46,3.65,0a23.34,23.34,0,0,1,2.63.83c3.42,1.67,7.14,2.46,10.66,3.83,2.41.94,4.86,1.82,7.32,2.6,3.15,1,6.25,1,9.15-1.15,3.93-2.87,8-5.54,12-8.31a13.39,13.39,0,0,0,3.1-2.61,11.09,11.09,0,0,0,2.24-4.15,15.17,15.17,0,0,0-.06-5.39C192.33,24.16,191.45,23.71,191.73,22.76ZM21,157c-1.06-1.36-2.12-2.73-3.2-4.09-.07-.09-.25-.11-.43-.18l-.21-1.55,1.18.63C18.63,153.8,20.41,155.1,21,157Z" fill="#fff"/><rect x="64.91" y="71.95" width="0.89" height="0.89" transform="translate(160.53 93.77) rotate(144.73)" fill="#fff"/><rect x="63.67" y="71.74" width="0.89" height="0.89" transform="translate(158.14 94.11) rotate(144.73)" fill="#fff"/><rect x="63.46" y="72.98" width="0.89" height="0.89" transform="translate(158.47 96.49) rotate(144.73)" fill="#fff"/><rect x="63.88" y="70.49" width="0.89" height="0.89" transform="translate(157.81 91.72) rotate(144.73)" fill="#fff"/><rect x="62.64" y="70.28" width="0.89" height="0.89" transform="translate(155.43 92.05) rotate(144.73)" fill="#fff"/><rect x="62.42" y="71.53" width="0.89" height="0.89" transform="matrix(-0.82, 0.58, -0.58, -0.82, 155.76, 94.44)" fill="#fff"/><rect x="62.85" y="69.04" width="0.89" height="0.89" transform="translate(155.1 89.67) rotate(144.73)" fill="#fff"/><rect x="61.61" y="68.82" width="0.89" height="0.89" transform="translate(152.71 90) rotate(144.73)" fill="#fff"/><rect x="61.39" y="70.07" width="0.89" height="0.89" transform="translate(153.04 92.38) rotate(144.73)" fill="#fff"/><rect x="61.82" y="67.58" width="0.89" height="0.89" transform="translate(152.38 87.61) rotate(144.73)" fill="#fff"/><rect x="60.57" y="67.36" width="0.89" height="0.89" transform="translate(150 87.94) rotate(144.73)" fill="#fff"/><rect x="60.36" y="68.61" width="0.89" height="0.89" transform="translate(150.33 90.33) rotate(144.73)" fill="#fff"/><rect x="60.79" y="66.12" width="0.89" height="0.89" transform="translate(149.66 85.56) rotate(144.73)" fill="#fff"/><rect x="59.33" y="67.15" width="0.89" height="0.89" transform="translate(147.61 88.27) rotate(144.73)" fill="#fff"/></svg>