<svg id="Layer_1" data-name="Layer 1" xmlns="http://www.w3.org/2000/svg" viewBox="0 0 200 200"><title>Circuits</title><path d="M197.15,37.78c-.08-.82,0-1.66,0-2.49a4.17,4.17,0,0,0-.49-.89,13.38,13.38,0,0,0-5.2-5c-5.66-3.24-11.85-4.44-18.19-4.87-3.48-.23-7-.51-10.53.38a14.56,14.56,0,0,0-2.79.51,19.26,19.26,0,0,1-2.87.9c-2.17.6-4.11,1.81-6.18,2.54a69.57,69.57,0,0,0-9,4.25c-2.81,1.46-5.51,3.19-8.24,4.84-1.7,1-3.33,2.15-5,3.27a1.32,1.32,0,0,1-.72.22h-8.46a11.21,11.21,0,0,0-5.3,1.32l-12.44,6.67c-3,1.61-6.11,3-9,4.76-2.37,1.44-4.9,2.61-7.36,3.91s-4.78,2.52-7.15,3.82c-2.64,1.45-5.4,2.68-8,4.26-2.24,1.36-4.66,2.41-7,3.68-3.38,1.86-6.84,3.6-10.19,5.52-1.13.65-2.52.89-3.55,1.64-3,2.17-6.49,3.31-9.55,5.32-2,1.35-4.41,2.19-6.54,3.5-2.88,1.78-6,3.15-9,4.74-4.71,2.5-9.42,5-14.11,7.54-2.49,1.34-5,2.55-6.75,4.92a1.7,1.7,0,0,0-.22.39,7.74,7.74,0,0,0-.49,3.19,1.43,1.43,0,0,0,.13.52,10.5,10.5,0,0,0,3.14,4.14,1.35,1.35,0,0,0,.71.28c1.06.1,2.4.27,3.74.28a13.3,13.3,0,0,0,3.82-.37c1.54-.43,3.3-.1,5-.1.9,1,2.2,1.36,3,2.64,1.68,2.66,4.06,4.81,6.15,7.17C32,125.07,36,128.52,39.4,132.58c1,1.16,2.39,1.94,3.45,3a101.72,101.72,0,0,0,12.06,10.61c2.51,1.89,4.8,4.09,7.17,6.16,3.16,2.75,6.13,5.72,9.17,8.61.69.65,1.35,1.33,2,2l2.68-2.3a200.5,200.5,0,0,0-24.2-21.6l.42-.45c1.46,1,3,2,4.38,3.15,3.73,3,7.34,6.07,10.9,9.24,3.08,2.74,5.87,5.74,8.88,8.53.15.14.29.29.43.44l1.62-1.4c-2-2-4-4.08-6.1-6.08-2.54-2.45-5.07-4.93-7.75-7.22a106.34,106.34,0,0,0-13.75-10.2c-2.86-1.74-5.49-3.85-8.51-5.34A5.41,5.41,0,0,1,41,128.7c-1.83-1.81-3.8-3.52-5.44-5.5-2.11-2.53-4.53-4.76-6.71-7.2-1.82-2-3.39-4.31-5.32-6.27a3.91,3.91,0,0,0-2.66-1.41c-.21-.17-.43-.47-.65-.48-2.41,0-4.82-.05-7.24,0a9.26,9.26,0,0,0-1.54.47,7.82,7.82,0,0,1-4.48-1.06l-.2-.55a.1.1,0,0,0,0-.06c0-.49.05-1,.08-1.61a1.3,1.3,0,0,1,.58-1,31,31,0,0,1,4.23-2.63c4.6-2.11,8.88-4.83,13.45-7,2.24-1.06,4.4-2.27,6.54-3.52,2.7-1.58,5.54-2.87,8.28-4.37,2.51-1.37,5-2.71,7.55-4.06s5-2.71,7.55-4.05S60,75.78,62.4,74.48s5-2.7,7.55-4.05,5-2.71,7.55-4.05,4.92-2.58,7.37-3.88,5-2.7,7.55-4.05L100,54.38c1.22-.66,2.44-1.35,3.67-2s2.48-1.24,3.71-1.89q3.9-2,7.78-4.12c.49-.26.93-.61,1.35-.89l5.71-.74,1-.09c.14.08.27.22.41.22.75,0,1.5,0,2.25,0,3.77,0,4.27-.06,7.12-2.08a86.42,86.42,0,0,1,8-4.88c3.63-2,7.38-3.85,11.12-5.67a53.09,53.09,0,0,1,9.57-3.42c3.68-1,7.37-.91,11.08-.93,1.51.81,3.2.22,4.74.62s3,.51,4.35.95A32.85,32.85,0,0,1,186.21,31c2.25,1.09,4.71,1.93,6.31,4.06.36.48.75.92,1.13,1.38-.18,1.09.08,2.16-.42,3.32-.67,1.56-1.22,3-2.89,3.77-.5.23-.83.8-1.25,1.21-5.28,5.12-10.44,10.37-15.9,15.29-2.75,2.48-5.21,5.27-8.07,7.59-2.09,1.7-3.81,3.91-6.4,5a41,41,0,0,1-4.5,1.76c-1.51.43-3-.34-4.45-.66-2.35-.51-4.66-1.19-7-1.8a13.91,13.91,0,0,0-1.79-.48c-2.86-.35-6.36,1.7-7.91,4.31a15.68,15.68,0,0,0-1.87,6.71c0,2.12-.83,4.09-1.1,6.17a5.12,5.12,0,0,1-.4,1.58c-.42.86-.67,2-1.09,2.9a21.87,21.87,0,0,1-2.32,3.48l-.59.81c-6.59,3.72-13.82,5.17-21.31,6.13a3.79,3.79,0,0,0-2.18,2.38c-1.48,3.31-3.42,6.39-5.07,9.62A73.91,73.91,0,0,1,93.67,122c-1.32,2-2.21,4.27-3.44,6.33a23.73,23.73,0,0,0-2,5.68c-.92,3.13-.46,6.35-.46,9.52a12.11,12.11,0,0,0,.83,2.88c.8,3,1.76,5.94,2.55,8.92.74,2.77,1.6,5.52,2.29,8.31.25,1,.06,1.93.25,2.62-1.17,3.27-3.7,3.16-6.49,2.91l-4.56-5.85-1.79,1.54a10.26,10.26,0,0,1,.85.8c1,1.11,1.74,2.46,2.77,3.54a28.5,28.5,0,0,0,3.17,2.5h-3.2c-1.33-1.83-2.62-3.61-3.9-5.39-.17-.24-.33-.5-.49-.75L77.22,168c2,2.33,3.29,5.25,5.78,7.14a13.92,13.92,0,0,0,2.31.55,9.21,9.21,0,0,0,4.76-1.11,24.71,24.71,0,0,0,4.28-2.9,14.22,14.22,0,0,0,2.16-2.5,4.15,4.15,0,0,0,.72-1.44,8.86,8.86,0,0,0,.47-2.78,14.19,14.19,0,0,0-.83-2.88c-.53-1.77-1-3.56-1.54-5.34-.83-3-1.75-5.94-2.53-8.93-.69-2.65-1.74-5.25-1.56-8.1.07-1.12.35-2.21.44-3.29a16.94,16.94,0,0,1,1.88-6.23c1.5-3,3-6.08,4.67-9,2.67-4.77,5.17-9.63,7.71-14.38a32.83,32.83,0,0,0,3.44-.42c2.5-.35,4.91-1,7.36-1.54a39.61,39.61,0,0,0,9.5-3.56l1.49-1.3c.25,0,.59-.58.72-.7A11.06,11.06,0,0,0,131.22,96a12.37,12.37,0,0,1,1.33-2.68c.74-.94.6-2.08,1-3.09a19.21,19.21,0,0,0,1.15-5.54,45,45,0,0,1,1.26-7.22l1.69-1.26,1.31-.73a1.41,1.41,0,0,1,.5-.17c2.13-.28,4.35.7,6.62,1.24A32.76,32.76,0,0,0,154,77.9a13.93,13.93,0,0,0,5.83-1.6,24.8,24.8,0,0,0,5.59-3.94c2-1.77,3.9-3.72,6-5.48,3.25-2.77,6.06-6,9.3-8.83,4.65-4.06,9-8.52,13.41-12.81A8.85,8.85,0,0,0,197.15,37.78Z" fill="#fff"/><rect x="71.21" y="169.73" width="2.18" height="2.18" transform="matrix(-0.64, -0.77, 0.77, -0.64, -13.03, 335.51)" fill="#fff"/><rect x="71.49" y="166.65" width="2.18" height="2.18" transform="translate(-10.19 330.7) rotate(-129.67)" fill="#fff"/><rect x="68.42" y="166.37" width="2.18" height="2.18" transform="translate(-15.01 327.87) rotate(-129.67)" fill="#fff"/><rect x="74.57" y="166.94" width="2.18" height="2.18" transform="translate(-5.38 333.53) rotate(-129.67)" fill="#fff"/><rect x="74.85" y="163.87" width="2.18" height="2.18" transform="matrix(-0.64, -0.77, 0.77, -0.64, -2.55, 328.72)" fill="#fff"/><rect x="71.78" y="163.58" width="2.18" height="2.18" transform="translate(-7.36 325.89) rotate(-129.67)" fill="#fff"/><rect x="77.92" y="164.16" width="2.18" height="2.18" transform="translate(2.26 331.56) rotate(-129.67)" fill="#fff"/><rect x="78.21" y="161.09" width="2.18" height="2.18" transform="translate(5.1 326.75) rotate(-129.67)" fill="#fff"/><rect x="75.14" y="160.8" width="2.18" height="2.18" transform="translate(0.28 323.91) rotate(-129.67)" fill="#fff"/><rect x="81.28" y="161.37" width="2.18" height="2.18" transform="translate(9.91 329.58) rotate(-129.67)" fill="#fff"/><rect x="81.57" y="158.3" width="2.18" height="2.18" transform="translate(12.74 324.77) rotate(-129.67)" fill="#fff"/><rect x="78.5" y="158.01" width="2.18" height="2.18" transform="translate(7.93 321.93) rotate(-129.67)" fill="#fff"/><rect x="84.64" y="158.59" width="2.18" height="2.18" transform="translate(17.55 327.6) rotate(-129.67)" fill="#fff"/><rect x="81.85" y="155.23" width="2.18" height="2.18" transform="translate(15.57 319.96) rotate(-129.67)" fill="#fff"/></svg>