<svg id="Layer_1" data-name="Layer 1" xmlns="http://www.w3.org/2000/svg" viewBox="0 0 200 200"><title>Circuits</title><path d="M78.93,142.54h0v0Z" fill="#fff"/><path d="M79.68,142.94h0Z" fill="#fff"/><path d="M189,180.73c-.24-2.4-.49-4.81-.75-7.21l-.87-9.93,0-.06c-.12-1.65-.27-3.3-.41-5-.23-2.6-.49-5.2-.71-7.8q-.4-4.6-.77-9.21c-.22-2.72-.42-5.44-.63-8.16s-.43-5.41-.65-8.12c-.17-2.06-.32-4.11-.5-6.17-.19-2.21-.42-4.42-.6-6.63-.21-2.6-.38-5.21-.6-7.82s-.47-5.25-.7-7.87c-.21-2.32-.42-4.63-.64-6.95-.15-1.6-.32-3.21-.48-4.81-.23-2.17-.44-4.33-.69-6.49-.17-1.5-.37-3-.57-4.49-.31-2.4-.44-4.83-1.5-7.08-.61-1.3-1.13-2.63-2.46-3.42a8.32,8.32,0,0,0-5-1.62c-.92.07-1.84.15-2.75.3a14.7,14.7,0,0,0-6.68,2.58c-2.4,1.84-4.74,3.77-7.06,5.71s-4.42,3.75-6.56,5.7a53.56,53.56,0,0,0-4.16,4.21A10.24,10.24,0,0,0,141,84.74c-.48,2-.88,4-1.21,6a15.64,15.64,0,0,0-.08,6,25.43,25.43,0,0,0,3.33,8.18,16.52,16.52,0,0,0,2.81,3.19c2.3,2.13,4.55,4.32,6.81,6.5a18.58,18.58,0,0,1,3.75,5.08,35.94,35.94,0,0,1,2.12,5.42,16.59,16.59,0,0,1,.64,4,36.65,36.65,0,0,1-.15,4.31,11.48,11.48,0,0,1-1,4.46,20,20,0,0,1-3.22,4.77,4,4,0,0,1-5.07,1c-1.28-.54-2.51-1.19-3.76-1.79q-7.35-3.57-14.69-7.15-6.5-3.18-13-6.41l-12.56-6.22-12.8-6.35q-6.35-3.15-12.7-6.31c-3.67-1.83-7.38-3.58-11-5.55-3.37-1.84-6.61-3.9-9.9-5.88-1.33-.8-2.65-1.64-4-2.47s-2.53-1.58-3.76-2.42c-.8-.55-.75-.93.05-1.36,1.36-.73,2.7-1.49,4.05-2.22a16.27,16.27,0,0,1,5.52-2.17,10.57,10.57,0,0,1,7,1.25c4,2.39,7.9,4.89,11.82,7.38,3.54,2.24,7.06,4.51,10.57,6.79s7.13,4.63,10.69,6.95c2.1,1.37,4.19,2.76,6.32,4.08a12.08,12.08,0,0,0,6.33,2.18c2.15,0,4-2.44,3.72-4.52a9.41,9.41,0,0,0-1.09-3c-1.06-2-2.16-4-3.26-6.06s-2.06-3.73-3.1-5.59-1.95-3.45-2.91-5.19-1.83-3.28-2.68-5c-.75-1.48-1.44-3-2.09-4.5a16.41,16.41,0,0,1-1.19-3.34,7.53,7.53,0,0,1,1.19-5.66c1.13-1.71,2.33-3.38,3.45-5.1.76-1.16,1.47-2.36,2.11-3.59a9.76,9.76,0,0,0,.79-5.21,9,9,0,0,0-2.71-6.42c-1.43-1.32-2.83-2.67-4.21-4A7.68,7.68,0,0,1,100.5,47c-1.08-2.08-2.09-4.19-3-6.34-1-2.4-1.92-4.86-2.87-7.29-.47-1.22-1-2.42-1.4-3.66-.51-1.44-1-2.88-1.41-4.36a39.81,39.81,0,0,1-1.1-5.28,28.06,28.06,0,0,0-1.06-6.23,12.38,12.38,0,0,0-4.62-6,9.42,9.42,0,0,0-3.77-1.18A3.25,3.25,0,0,0,78,7.8a37.59,37.59,0,0,0-2.75,3.53c-2.52,3.65-5,7.33-7.49,11l-4,5.95-8.86,13c-2,2.88-3.93,5.76-5.86,8.65-2.31,3.46-4.58,7-6.89,10.42-2.12,3.19-4.27,6.37-6.4,9.56-2.28,3.41-4.54,6.84-6.82,10.25-1.27,1.91-2.54,3.84-2.84,6.17-.35,2.77-.56,5.55-.82,8.33-.18,1.92-.26,3.85-.55,5.76A2.85,2.85,0,0,1,23,102.91c-1.06.41-2.07.95-3.13,1.37-1.86.76-3.73,1.48-5.61,2.21a14.64,14.64,0,0,0-2.3.88c-1.32.8-1.55,2.18-1.61,3.6a1.94,1.94,0,0,0,.92,1.86,25,25,0,0,0,2.36,1.38c5.7,2.78,11.43,5.53,17.12,8.32,3.65,1.79,7.26,3.65,10.89,5.47l12.71,6.33L69,141.64l6.36,3.18h0l1.56.76,0,0,1.34.65a.5.5,0,0,1,.19.09l.65.32c.23,0,.44.21.64.31l.35.17.3.14h0q6.06,3,12.1,5.93l14.87,7.32L120,166.69,135,174l14.58,7.09,20.91,10.13a16.81,16.81,0,0,0,5.79,1.78c1,.1,2.07.3,3.1.33,2.13.06,4.27.05,6.41,0a2.13,2.13,0,0,0,1.13-.31,5.59,5.59,0,0,0,2.73-4.89C189.59,185.71,189.29,183.22,189,180.73Zm-4.51,10.44a42,42,0,0,1-9.69-.8,19.26,19.26,0,0,1-4.21-1.68q-7-3.35-14-6.79c-2.19-1.08-4.38-2.18-6.52-3.37-1.56-.86-3-1.92-4.57-2.8-2.64-1.48-5.27-3-8-4.3a90.77,90.77,0,0,1-8.49-4.8c-1.81-1.13-3.78-2-5.68-3-3.78-1.91-7.57-3.82-11.37-5.69-5.06-2.5-10.14-5-15.21-7.46l-12.63-6.22c-1.07-.53-2.15-1-3.27-1.56l0,0-.89-.46-.33.71.74.53c1.58.75,3.17,1.47,4.73,2.24l22.73,11.22q6.25,3.09,12.5,6.19c2.54,1.27,5.09,2.53,7.61,3.86,1.17.62,2.22,1.44,3.38,2.09,1.87,1,3.77,2,5.67,3s3.56,1.82,5.34,2.72l-.1.19L80.75,144.85l-3.29-1.61h0l-.22-.11h0L46.4,127.75l.06-.13c.85.31,1.71.6,2.54.94,2.63,1.07,5.29,2.06,7.86,3.25,3.59,1.66,7.11,3.47,10.66,5.22l10.41,5.15a8.65,8.65,0,0,0,1,.35l.36-.69-1.82-1h0c-2-1-4.08-2-6.11-2.95-4.76-2.32-9.49-4.7-14.28-6.95-2.65-1.24-5.41-2.25-8.12-3.35-2.23-.9-4.48-1.77-6.7-2.69-2.4-1-4.8-2-7.16-3.06C32,120.48,29,119,25.92,117.51c-3.58-1.72-7.18-3.42-10.76-5.14-.65-.31-1.27-.71-1.9-1.06-.37-.21-.68-.38-.53-.94s.31-1.06.93-1.28c1.72-.61,3.45-1.21,5.16-1.84q1.71-.63,3.38-1.35a16.93,16.93,0,0,0,2.49-1.22A5,5,0,0,0,27,100.93c.28-2.31.43-4.64.67-7,.27-2.58.46-5.18.9-7.73A11,11,0,0,1,30,82.95c.68-1.23,1.51-2.38,2.29-3.56q4.07-6.15,8.16-12.29c1.67-2.5,3.36-5,5-7.48q5.51-8.21,11-16.43,4.07-6.06,8.18-12.1C66,29,67.47,27,68.87,24.94c2.47-3.64,4.92-7.29,7.41-10.92,1-1.45,2.06-2.85,3.14-4.25A1.73,1.73,0,0,1,81.15,9c2.8.34,4.45,2.11,5.69,4.38s1.3,4.59,1.5,7a19.15,19.15,0,0,0,.72,3.95c.82,2.69,1.74,5.36,2.69,8,1,2.88,2.09,5.77,3.28,8.59a80.87,80.87,0,0,0,3.48,7.3,12.64,12.64,0,0,0,2.39,2.64c1.22,1.21,2.49,2.36,3.73,3.55a7.54,7.54,0,0,1,2,5.11,8.85,8.85,0,0,1-1.7,5.84c-1.28,1.93-2.56,3.85-3.88,5.75a10.75,10.75,0,0,0-2,7.64,12.87,12.87,0,0,0,1.11,3.49c1,2.33,2.14,4.61,3.26,6.89.66,1.34,1.41,2.64,2.13,3.94q1.92,3.47,3.85,6.93c1.31,2.37,2.65,4.72,3.93,7.11.69,1.27,1.32,2.58,1.92,3.89a1.94,1.94,0,0,1-.5,2.29,1.3,1.3,0,0,1-.74.23,7.75,7.75,0,0,1-4.74-1.58q-6.28-4.09-12.59-8.15c-3.55-2.3-7.08-4.63-10.65-6.9-5-3.17-10-6.27-15-9.47a15.45,15.45,0,0,0-7.74-2.62A11.27,11.27,0,0,0,57.58,86c-2.54,1.29-5,2.63-7.52,4a2.69,2.69,0,0,0-.2,4.66c1.91,1.32,3.85,2.6,5.84,3.81,4.44,2.69,8.81,5.51,13.39,7.93,7,3.69,14.16,7.09,21.24,10.61,2.72,1.35,5.43,2.73,8.15,4.09l12.78,6.35q6.39,3.17,12.78,6.31,7.38,3.62,14.76,7.22c3.27,1.59,6.54,3.17,9.81,4.75a6.79,6.79,0,0,0,5.38.3,5.34,5.34,0,0,0,1.84-1.22,17.1,17.1,0,0,0,5.05-8.06,30.77,30.77,0,0,0,.63-5.6,25,25,0,0,0-.1-4.12,24.28,24.28,0,0,0-1.55-5.57,20.69,20.69,0,0,0-3.92-6.76c-1.74-2-3.68-3.77-5.57-5.61-1.48-1.45-3.1-2.76-4.47-4.3a14,14,0,0,1-2.13-3.5c-.63-1.38-1-2.87-1.53-4.32A9.68,9.68,0,0,1,142,92.7c.18-1.68.54-3.35.78-5a13.22,13.22,0,0,1,4.6-8.16c2.07-1.83,4.16-3.63,6.24-5.43s4.33-3.82,6.58-5.63a24.72,24.72,0,0,1,4.26-2.81,19.29,19.29,0,0,1,3.8-1.12,12.1,12.1,0,0,1,1.54-.25,6,6,0,0,1,4.85,1.7,5.8,5.8,0,0,1,1,1.64,16.83,16.83,0,0,1,1.43,6q.54,4.13,1,8.28c.25,2.22.44,4.45.65,6.67q.42,4.41.82,8.82c.16,1.74.29,3.49.45,5.23s.3,3.2.44,4.79.29,3.48.44,5.22.28,3.51.42,5.26c.2,2.58.39,5.16.61,7.74.19,2.24.41,4.47.6,6.71.14,1.68.26,3.36.39,5s.28,3.42.41,5.12c.21,2.65.4,5.31.62,8,.19,2.23.42,4.46.61,6.69.17,2,.32,4,.48,6h0l.15,1.72.07.73h0l.34,4v0c.25,2.58.54,5.16.81,7.75.28,2.76.57,5.52.83,8.28.08.88.11,1.77.15,2.66A2.79,2.79,0,0,1,184.54,191.17Z" fill="#fff"/><rect x="79.72" y="138.37" width="0.9" height="0.9" transform="translate(67.99 -21.03) rotate(25.65)" fill="#fff"/><rect x="80.15" y="139.57" width="0.9" height="0.9" transform="translate(68.55 -21.09) rotate(25.65)" fill="#fff"/><rect x="81.34" y="139.15" width="0.9" height="0.9" transform="translate(68.49 -21.65) rotate(25.65)" fill="#fff"/><rect x="78.95" y="139.99" width="0.9" height="0.9" transform="translate(68.62 -20.53) rotate(25.65)" fill="#fff"/><rect x="79.37" y="141.19" width="0.9" height="0.9" transform="translate(69.18 -20.59) rotate(25.65)" fill="#fff"/><rect x="80.57" y="140.77" width="0.9" height="0.9" transform="translate(69.11 -21.15) rotate(25.65)" fill="#fff"/><rect x="78.17" y="141.61" width="0.9" height="0.9" transform="translate(69.24 -20.03) rotate(25.65)" fill="#fff"/><rect x="78.59" y="142.81" width="0.9" height="0.9" transform="translate(69.8 -20.1) rotate(25.65)" fill="#fff"/><rect x="79.79" y="142.39" width="0.9" height="0.9" transform="translate(69.74 -20.66) rotate(25.65)" fill="#fff"/><rect x="77.39" y="143.23" width="0.9" height="0.9" transform="translate(69.87 -19.54) rotate(25.65)" fill="#fff"/><rect x="77.81" y="144.43" width="0.9" height="0.9" transform="translate(70.43 -19.6) rotate(25.65)" fill="#fff"/><rect x="79.01" y="144.01" width="0.9" height="0.9" transform="translate(70.36 -20.16) rotate(25.65)" fill="#fff"/><rect x="76.61" y="144.85" width="0.9" height="0.9" transform="translate(70.49 -19.04) rotate(25.65)" fill="#fff"/><rect x="77.03" y="146.05" width="0.9" height="0.9" transform="translate(71.05 -19.1) rotate(25.65)" fill="#fff"/><rect x="78.23" y="145.63" width="0.9" height="0.9" transform="translate(70.99 -19.66) rotate(25.65)" fill="#fff"/><rect x="75.84" y="146.47" width="0.9" height="0.9" transform="translate(71.12 -18.54) rotate(25.65)" fill="#fff"/><rect x="76.26" y="147.67" width="0.9" height="0.9" transform="translate(71.68 -18.61) rotate(25.65)" fill="#fff"/><rect x="77.46" y="147.25" width="0.9" height="0.9" transform="translate(71.61 -19.17) rotate(25.65)" fill="#fff"/></svg>