<svg id="Layer_1" data-name="Layer 1" xmlns="http://www.w3.org/2000/svg" viewBox="0 0 200 200"><title>Circuits</title><path d="M33.22,114.69,33,113.33l.25-.07.54,1.21Z" fill="#fff" stroke="#fff" stroke-miterlimit="10"/><path d="M34.09,113.09c0,.16.07.31.07.47s-.27.11-.28.09a3.73,3.73,0,0,1-.17-.42c-.1-.22-.22-.43-.33-.64a11.71,11.71,0,0,1-1.55-.66c-2.74-1.64-5.47-3.31-8.19-5-2.08-1.27-4.15-2.56-6.2-3.89a13.91,13.91,0,0,1,6.4,2.16c2.54,1.69,5.17,3.26,7.76,4.88l2.25,1.39-.28.79c.56.25,1-.24,1.49-.28a1.56,1.56,0,0,1,.41,0,.34.34,0,0,1,.07.29.64.64,0,0,1-.34.14,10.22,10.22,0,0,0-1.07.21C34.08,112.62,34.09,112.92,34.09,113.09Z" fill="#fff" stroke="#fff" stroke-miterlimit="10"/><path d="M55.69,125.48c-.53-.28-1.07-.55-1.59-.84-3.22-1.81-6.45-3.61-9.66-5.43-3-1.72-6-3.47-9.06-5.17-.55-.31-.35-.64-.17-1s.62-.39,1-.16c2.9,1.74,5.78,3.52,8.71,5.22,2.47,1.44,5,2.7,7.47,4.22a29.32,29.32,0,0,1,3.46,3Z" fill="#fff" stroke="#fff" stroke-miterlimit="10"/><path d="M192.43,140.11c-.19-3.22-.58-6.45-1-9.64-.29-2-.9-4-1.31-6a12.69,12.69,0,0,0-3.4-6.34c-3.27-3.35-6.73-6.52-10.09-9.79a50,50,0,0,1-3.91-4.11,25.45,25.45,0,0,1-2.49-3.88c-1.39-2.55-2.67-5.16-4-7.71a30.45,30.45,0,0,0-2.65-4.49c-2.29-2.91-4.71-5.72-7.16-8.49s-5-5.56-7.63-8.19c-2.21-2.2-4.56-4.29-7-6.26-3.43-2.8-7.42-4.71-11.27-6.84-1.78-1-3.61-1.9-5.29-3-3.33-2.23-6.6-4.55-9.84-6.9q-3.19-2.31-6.24-4.81c-2.41-2-4.77-4-7.11-6.1-1.65-1.46-3.24-3-4.82-4.52C94.59,30.5,92,27.95,89.5,25.4c-2-2-4.07-4.12-6.1-6.18s-4-4.06-6-6.07c-1.44-1.43-2.9-2.85-4.39-4.24-1.74-1.63-3.38-3.39-5.62-4.41-1.95-.89-3.85-1.1-5.69.16a14.29,14.29,0,0,0-2.09,1.78c-2.41,2.43-4.85,4.84-7.16,7.36a59.52,59.52,0,0,1-10.07,8.35c-3,2.07-5.88,4.18-8.84,6.24a6.18,6.18,0,0,0-2.78,4.48c-.25,2.2-.34,4.42-.42,6.63s0,4.56-.12,6.84A13.89,13.89,0,0,1,29.77,49a11,11,0,0,1-2.2,3.95c-1.78,2.39-3.67,4.71-5.43,7.12a50.49,50.49,0,0,0-4,6,58,58,0,0,0-3.57,8.08c-1.65,4.74-3.06,9.56-4.55,14.36-.78,2.49-1.56,5-2.26,7.5a2.76,2.76,0,0,0,.06,2.2A5.49,5.49,0,0,0,9.92,100q4.24,2.66,8.49,5.3,5.55,3.44,11.12,6.85c1,.61,2,1.2,3,1.79l-.3.64c.33-.17.8-.7.66.29,0,.17.33.4.51.6a1.81,1.81,0,0,1,1.85,0q5.23,3.09,10.52,6.07c3.87,2.19,7.77,4.34,11.65,6.51,2.67,1.49,5.34,3,8,4.5,3.54,2.06,7,4.18,10.58,6.26a21.22,21.22,0,0,1,4.55,3.7c1.39,1.45,2.74,2.94,4.08,4.43,1.66,1.85,3.35,3.67,4.93,5.58,2,2.41,3.89,4.9,5.81,7.37A15.12,15.12,0,0,1,98.07,165q.67,2.32,1.38,4.64a39.36,39.36,0,0,0,3.62,9,12.39,12.39,0,0,0,2.41,3.24c2.9,2.39,5.91,4.65,9,6.83,2.62,1.86,5.38,3.53,8.08,5.28a13.15,13.15,0,0,0,9.44,2c3.35-.51,6.7-1,10-1.55s6.87-1.3,10.29-2a3.14,3.14,0,0,0,2.61-2.07c.14-.43.3-.84.41-1.28.88-3.48,1.74-7,2.64-10.43.62-2.4,1.21-4.81,2-7.15a21.79,21.79,0,0,1,2.23-4.8,69.44,69.44,0,0,1,4.61-6.19,51.51,51.51,0,0,1,3.92-4.21,30.93,30.93,0,0,1,6.18-4.65c2-1.14,3.94-2.28,6-3.32,2.41-1.23,5-2.19,7.26-3.66A4.84,4.84,0,0,0,192.43,140.11Zm-1.49,1a3.3,3.3,0,0,1-2,2.79c-2.25,1.14-4.56,2.17-6.8,3.32-2,1-3.92,2.11-5.82,3.27a37.74,37.74,0,0,0-4.2,2.91,38.15,38.15,0,0,0-4,3.77c-1.77,1.93-3.43,4-5.08,6a23.77,23.77,0,0,0-4.28,7.95c-.9,2.91-1.65,5.87-2.43,8.81-.86,3.23-1.68,6.47-2.52,9.71a1.87,1.87,0,0,1-1.5,1.46c-1.35.29-2.7.57-4.06.85-2.44.49-4.88,1-7.34,1.46-2.61.45-5.24.8-7.87,1.14-1.33.17-2.67.25-4,.29a8.64,8.64,0,0,1-4.73-1.46c-2.93-1.79-5.84-3.6-8.67-5.54a65.23,65.23,0,0,1-9.64-7.49,11.44,11.44,0,0,1-2.09-3.28,61.39,61.39,0,0,1-2.33-5.84c-.77-2.23-1.37-4.51-2.07-6.77a16.84,16.84,0,0,0-2.68-5c-1.4-1.88-2.8-3.77-4.27-5.59s-2.92-3.48-4.43-5.17c-1.78-2-3.67-3.89-5.41-5.92a29.36,29.36,0,0,0-7.91-6.29q-5.94-3.41-11.85-6.87c-1.9-1.11-3.85-2.14-5.68-3.37a17,17,0,0,1-2.6-2.5,16.91,16.91,0,0,0-4.08-2.78q-4.66-2.65-9.29-5.34c-1.66-1-3.28-2-5-2.93-.54-.31-.62-.54-.11-1l-.63-.44-.32.66a3.54,3.54,0,0,1-.34-.46c-.1-.22-.17-.46-.25-.68l-.62.49c-.86-.52-1.82-1.09-2.76-1.67-2.17-1.34-4.34-2.68-6.5-4.05-1.57-1-3.1-2.14-5-2.32-3.27-.31-5.75-2.27-8.38-3.92-.58-.37-1.17-.73-1.72-1.13a1.28,1.28,0,0,1-.52-1.5c.82-2.74,1.65-5.48,2.47-8.23.62-2.08,1.16-4.19,1.83-6.26.89-2.73,1.81-5.46,2.81-8.15.74-2,1.58-3.94,2.45-5.88a38,38,0,0,1,4.66-7.26c2.31-3.06,4.67-6.09,6.87-9.22a10.18,10.18,0,0,0,1.43-5.85c.07-3.64.17-7.28.33-10.92.07-1.53.17-3.15,1.34-4.32A25.79,25.79,0,0,1,36.3,28c2-1.44,4-2.83,6-4.24,1.67-1.17,3.4-2.27,5-3.54A66.07,66.07,0,0,0,52.6,15.6c2.6-2.57,5.08-5.28,7.63-7.9A20.71,20.71,0,0,1,62.1,6.07C63.63,4.83,65.22,5,67,5.9a19.89,19.89,0,0,1,4.6,3.66q2.8,2.68,5.54,5.41c2.42,2.41,4.8,4.85,7.21,7.27s4.72,4.72,7.09,7.07c2.14,2.12,4.23,4.28,6.45,6.32,3.21,2.94,6.39,5.93,9.8,8.63,4.83,3.83,9.82,7.48,14.83,11.08a72.21,72.21,0,0,0,6.52,3.89c2.8,1.59,5.67,3,8.42,4.71a43.34,43.34,0,0,1,8,6.42c2.57,2.55,5.15,5.09,7.61,7.73,2,2.11,3.79,4.37,5.65,6.58,1.31,1.55,2.64,3.1,3.85,4.73a25.71,25.71,0,0,1,2,3.39c1.26,2.39,2.44,4.81,3.68,7.21a22.6,22.6,0,0,0,3.55,5.56c2.14,2.21,4.39,4.31,6.58,6.47,2.5,2.46,5.07,4.85,7.45,7.42a11.3,11.3,0,0,1,2.84,5.6c.46,2.35,1.07,4.68,1.46,7,.34,2.07.48,4.18.66,6.27A19,19,0,0,1,190.94,141.07Z" fill="#fff" stroke="#fff" stroke-miterlimit="10"/></svg>