<svg id="Layer_1" data-name="Layer 1" xmlns="http://www.w3.org/2000/svg" viewBox="0 0 200 200"><title>Circuits</title><path d="M118.8,166.4c2.19-4.27,2.28-3.09-1.16-5.86-16.71-13.5-33.54-26.86-50.3-40.3Q43.42,101.06,19.56,81.81c-1.74-1.4-3.59-2.68-5.19-4.22-4.06-3.9-4.32-9.19-.47-13.3,4.38-4.66,3.77-9.14.75-14.59-2.44-4.41-5.27-8.77-6.77-13.51C4,23.82,11.23,12.33,24,10.1c11.34-2,21.36,1.08,30.16,8.39Q67.9,29.91,81.72,41.28c4.84,4,6.54,8.77,4.83,14.09-1.3,4-6.83,7.62-12,8.09-7.14.65-12.79-2.31-18.05-6.71-6.32-5.29-12.76-10.43-19.2-15.58C35.78,40,34.18,38.58,32,40S29.53,43.63,30.3,46c2.59,7.83,5.16,15.68,7.86,23.48,2.59,7.5,8.41,12.36,14.35,17.09,2.07,1.66,4.17,3.29,6.22,5,2.86,2.33,5.84,2.58,7.83-.46,4.88-7.46,12.59-9.63,20.32-11.94,6.12-1.82,12.26-3.57,18.39-5.34,8.81-2.54,17,1.64,20.3,10.24q9.22,24.33,18.51,48.63,5.61,14.68,11.33,29.32a24.89,24.89,0,0,0,2.8,5.17c1.9,2.69,4.63,2.75,7,.36,4.45-4.55,5.33-13.72,1.8-19.46q-3.1-5-6.39-10c-3.31-5-2.48-10.9,2.06-14.16,5.74-4.11,12.51-3.67,16,1.4,5.22,7.55,10.57,15.06,15.09,23,3.29,5.79,1.35,11.88-2.38,17-4.78,6.5-10.14,12.56-15.09,18.94-6,7.72-17.65,10-26.9,2-8.09-7.06-16.8-13.4-25-20.3C122,163.88,120.54,164.38,118.8,166.4ZM30.31,12.53c-2.36.4-4.73.77-7.09,1.21C12.82,15.65,7.13,27.54,11.66,37.25c2,4.34,4.57,8.44,6.84,12.67,2.48,4.64,2.88,9.33,0,14-.68,1.08-1.63,2-2.39,3-2.28,3.13-1.83,6.41,1.19,8.84,11.76,9.48,23.45,19,35.31,28.4,5.51,4.34,11.28,8.35,17.06,12.33,4.65,3.2,9.79,5.75,14.21,9.22,14.61,11.49,29,23.27,43.46,34.94,8.2,6.62,16.55,13.06,24.55,19.92a16.78,16.78,0,0,0,24.58-2.17c3.81-4.74,7.72-9.41,11.52-14.16,4.44-5.55,5.62-12.68.53-18.06a8.7,8.7,0,0,1-.8-1.32c-3.63-5.63-7.2-11.31-10.93-16.87a8.13,8.13,0,0,0-11.4-2.18c-3.61,2.38-4.46,6.41-2,10.38,1.33,2.2,2.89,4.26,4.33,6.39,5,7.32,6.54,15.1,2.79,23.4-1.58,3.5-4.22,6.24-8.34,6.4-4.37.17-6.89-2.61-8.47-6.35-1.24-2.93-2.4-5.89-3.55-8.86-5.64-14.49-11.31-29-16.88-43.5-3.48-9.07-6.84-18.18-10.17-27.3-3.09-8.45-9.25-11.64-17.88-9.15-7.1,2.05-14.23,4-21.33,6.1-5.29,1.53-9.88,3.91-13.43,8.5C65.6,98,61.1,98.09,55,92.91q-3.13-2.68-6.36-5.24c-4.82-3.81-9.73-7.83-12-13.54-3.75-9.31-6.73-18.93-9.79-28.5a7.05,7.05,0,0,1,3-8.35c3.07-1.87,5.61-1.71,8.77.82,6.37,5.1,12.73,10.2,19,15.45,4.87,4.1,10,7.13,16.73,6.67,7.73-.54,11.88-7.49,7.89-13.56a18.62,18.62,0,0,0-3.79-3.81C70.09,35.87,61.6,29,53.27,22,46.61,16.35,39.19,12.86,30.31,12.53ZM73.8,119.74l-.59.87,49.47,39.68.91-.61a8.09,8.09,0,0,0-1.31-2.44c-2.06-1.81-4.28-3.42-6.42-5.14C104.58,143.06,93.34,133.94,82,125A93,93,0,0,0,73.8,119.74Zm97,64.89c-.62-.19-.86-.35-1.07-.31-.76.14-1.5.33-2.25.53-5,1.32-9.71.82-13.89-2.47s-8.07-6.4-12.09-9.62c-5-4-9.88-8-14.87-11.88a8,8,0,0,0-2.29-.85l-1,1.46a11.93,11.93,0,0,1,2.29,1.14q13.75,11,27.44,22a13.17,13.17,0,0,0,10.54,3.13A12,12,0,0,0,170.82,184.63Z" fill="#fff"/></svg>