<svg id="Layer_1" data-name="Layer 1" xmlns="http://www.w3.org/2000/svg" viewBox="0 0 200 200"><title>Circuits</title><path d="M180.61,5a14.35,14.35,0,0,0-13.94,4.06q-47.35,47.55-94.77,95-20,20.06-40,40.15a4.87,4.87,0,0,1-3.31,1.39,18,18,0,0,1-2.8-.08c-3.73-.36-7.46-.78-11.2-1.11a6.3,6.3,0,0,0-6.7,4.07,11.28,11.28,0,0,0-.82,5.22c.2,3.34,1.87,6,3.94,8.45,4,4.8,8.95,7.47,15.35,6.77a13.83,13.83,0,0,0,8.15-3.25q17.27-16,34.44-32.07,5.68-5.29,11.37-10.58c2.86-2.64,6.22-2.31,8.17.78a3.81,3.81,0,0,1-.67,5.31L61.76,153.68Q50.47,164.33,39.17,175a8.36,8.36,0,0,0-2.9,7.1c.73,7.74,6.93,14.29,16.21,13.18a7.62,7.62,0,0,0,5.16-3c1.82-2.27,3.67-4.52,5.59-6.71a34.65,34.65,0,0,1,4.26-4.33A17.49,17.49,0,0,1,76,178a20.57,20.57,0,0,0,10.2-4.62,22.25,22.25,0,0,1,9.32-4.79,30.56,30.56,0,0,0,14.61-8.18c4-3.91,7.83-8.08,11.77-12.1a12.21,12.21,0,0,0,2.87-4.66,32.48,32.48,0,0,0,1.45-8.77c.43-7.52,1-15,1.46-22.56.51-7.87,1-15.75,1.53-23.62A8.86,8.86,0,0,1,132,82.89c2.45-2.4,5-4.74,7.47-7.07a2.83,2.83,0,0,1,1.33-.68c2.13-.4,4.27-.71,6.4-1.1a3,3,0,0,0,1.33-.64c1.08-.92,2.14-1.87,3.2-2.81l-1.06-1.06c-1,.89-2.09,1.78-3.14,2.65a1.52,1.52,0,0,1-.66.34c-1.49.27-3,.5-4.77.79l6.32-6L146.15,65l-13.71,13-2.33,2.2a12.92,12.92,0,0,0-4.17,8.89c-.54,8.81-1.13,17.62-1.69,26.43-.43,6.78-.81,13.56-1.28,20.33a40.43,40.43,0,0,1-.84,5.45,10.2,10.2,0,0,1-2.9,5.16c-3.85,3.88-7.51,8-11.45,11.74a27.53,27.53,0,0,1-13,7.26,25.48,25.48,0,0,0-10.53,5.39,17.33,17.33,0,0,1-8.89,4,20.29,20.29,0,0,0-10.49,4.39,40.31,40.31,0,0,0-4.47,4.81c-1.59,1.83-3.23,3.64-4.64,5.6-1.62,2.25-3.79,2.76-6.31,2.48-6-.67-9.17-5-9.95-9.95a5.48,5.48,0,0,1,2-5q7.51-7,15-14.1l33.75-31.81a6.85,6.85,0,0,0,1.48-8.41c-2.67-5.34-8.89-6.42-13.32-2.29q-17.48,16.25-34.94,32.53c-3.38,3.15-6.8,6.27-10.14,9.47a12.14,12.14,0,0,1-7.8,3.23c-5.08.4-8.87-2-12-5.73-1.35-1.63-2.72-3.29-3-5.45a12.68,12.68,0,0,1,.2-4.29c.5-2.16,1.8-3,4-2.76,2.8.26,5.59.59,8.39.86,2.4.23,4.8.68,7.23.12a7.58,7.58,0,0,0,3.79-2l64.81-65q35-35.14,70.08-70.3a11.29,11.29,0,0,1,11.11-3.12,12.72,12.72,0,0,1,9.74,12.07,7.06,7.06,0,0,1-2.32,5.52Q168.72,43.53,150,61.37l-.36.36L151.88,64l29.22-27.8.23.11c-.14,1.36-.25,2.73-.45,4.09,0,.3-.39.57-.64.81q-12.7,12-25.4,24.09a8.36,8.36,0,0,0-.77.89l1.07,1.07c.12-.14.23-.29.36-.41q13.19-12.53,26.4-25a2.06,2.06,0,0,0,.57-1.15q.33-2.55.52-5.11a2.9,2.9,0,0,1,1-2.1c2-1.85,4-3.77,6-5.66a9.2,9.2,0,0,0,2.94-6.05A15.84,15.84,0,0,0,180.61,5Z" fill="#fff"/><rect x="155.28" y="68.53" width="1.61" height="1.61" transform="translate(315.89 9.07) rotate(135.39)" fill="#fff"/><rect x="153" y="68.51" width="1.61" height="1.61" transform="translate(311.98 10.64) rotate(135.39)" fill="#fff"/><rect x="152.98" y="70.79" width="1.61" height="1.61" transform="translate(313.55 14.56) rotate(135.39)" fill="#fff"/><rect x="153.01" y="66.23" width="1.61" height="1.61" transform="translate(310.4 6.73) rotate(135.39)" fill="#fff"/><rect x="150.73" y="66.22" width="1.61" height="1.61" transform="translate(306.49 8.3) rotate(135.39)" fill="#fff"/><rect x="150.72" y="68.5" width="1.61" height="1.61" transform="translate(308.06 12.22) rotate(135.39)" fill="#fff"/><rect x="150.75" y="63.94" width="1.61" height="1.61" transform="translate(304.91 4.39) rotate(135.39)" fill="#fff"/><rect x="148.47" y="63.92" width="1.61" height="1.61" transform="translate(301 5.97) rotate(135.39)" fill="#fff"/><rect x="148.46" y="66.2" width="1.61" height="1.61" transform="translate(302.58 9.88) rotate(135.39)" fill="#fff"/><rect x="148.49" y="61.64" width="1.61" height="1.61" transform="translate(299.43 2.05) rotate(135.39)" fill="#fff"/><rect x="146.21" y="61.63" width="1.61" height="1.61" transform="translate(295.51 3.63) rotate(135.39)" fill="#fff"/><rect x="146.19" y="63.91" width="1.61" height="1.61" transform="translate(297.09 7.54) rotate(135.39)" fill="#fff"/><rect x="146.22" y="59.35" width="1.61" height="1.61" transform="translate(293.94 -0.29) rotate(135.39)" fill="#fff"/><rect x="143.93" y="61.61" width="1.61" height="1.61" transform="translate(291.6 5.2) rotate(135.39)" fill="#fff"/></svg>