<svg id="Layer_1" data-name="Layer 1" xmlns="http://www.w3.org/2000/svg" viewBox="0 0 200 200"><title>Circuits</title><path d="M198,102.75a12.56,12.56,0,0,0-1.41-2.22c-1.51-1.81-3.09-3.56-4.63-5.35Q179.77,81,167.56,66.82a35.57,35.57,0,0,0-3.68-3.93c-6.68-5.7-17.39-5.06-23.3,1-1.34,1.37-2.64,2.78-3.93,4.21-3.67,4.08-8.43,5.51-13.69,5.47a19.39,19.39,0,0,1-9.09-2.36,18.41,18.41,0,0,1-8.41-9.64,55.52,55.52,0,0,1-2.79-11c-.83-4.59-1.51-9.21-2.27-13.82q-1-6.32-2.1-12.64a7.76,7.76,0,0,0-1.85-4.21,3.19,3.19,0,0,0-2.75-1.19,9.89,9.89,0,0,0-2.55.55c-3.19,1.28-6.35,2.62-9.51,4-6.21,2.66-12.35,5.47-18.61,8-10,4-20.22,7.51-30.44,11a37.36,37.36,0,0,0-6,2.35,33.14,33.14,0,0,0-9.17,7.63c-2.93,3.42-4.36,7.59-5.55,11.83a48.87,48.87,0,0,0-1.22,9.85,21.86,21.86,0,0,0,3.12,12.83,46.26,46.26,0,0,0,4.75,7,4.6,4.6,0,0,1,1,3.58,2.45,2.45,0,0,1-2.43,2.33,8.78,8.78,0,0,1-3.58-.87,34.92,34.92,0,0,0-3.94-1.42A6.23,6.23,0,0,0,3,99.49c-1.66,2-1.83,4.29-1.32,6.79s3.46,5,6.08,5c3,0,5.92-.06,8.87-.25,3.19-.2,6.37-.58,9.55-.87,2.86-.27,5.73-.5,8.6-.79,4.17-.43,8.34-.92,12.52-1.33s8.55-.78,12.83-1.16l-.18-2.07c-.43.08-.86.17-1.29.21-3.62.37-7.24.7-10.86,1.07-4.21.43-8.42.91-12.64,1.34-3.9.4-7.8.74-11.69,1.12a126.4,126.4,0,0,1-15.08.83c-.58,0-1.15-.1-1.73-.16,1.69-.16,3.38,0,5-.18q6.63-.58,13.23-1.36c3.25-.39,6.49-.9,9.72-1.41,2.17-.34,4.31-.91,6.49-1.13,4.41-.44,8.84-.69,13.27-1,1.84-.14,3.66-.3,5.43-.45l0-.49c-4.06.32-8,.65-12,.92A104.41,104.41,0,0,0,36,105.47c-4.52.83-9.08,1.39-13.63,2-2.53.35-5.07.66-7.62.85-2.35.18-4.71.27-7.07.22s-3.37-1-4.1-3.18a4.74,4.74,0,0,1,5.38-6.28,25.64,25.64,0,0,1,3.39,1.14A31.57,31.57,0,0,0,16,101.4a4.41,4.41,0,0,0,5.45-3.87,6.16,6.16,0,0,0-1.43-5A45.74,45.74,0,0,1,15,85a19.1,19.1,0,0,1-2.57-10.21c.1-2.43.37-4.86.66-7.28a31.88,31.88,0,0,1,4.1-11.92c1.61-2.84,4.06-4.91,6.55-6.93a19.41,19.41,0,0,1,5.69-3.51c7.92-2.77,15.86-5.48,23.76-8.29,8.4-3,16.64-6.36,24.77-10,4.54-2.06,9.16-4,13.76-5.89,2.44-1,3.74-.31,4.46,2.27,0,.12.08.23.1.34.49,2.83,1,5.66,1.47,8.5,1,6,1.88,12.08,3,18.09A83.47,83.47,0,0,0,103,60c2.11,6.89,6.3,11.93,13.38,14.23a22.48,22.48,0,0,0,14.13.09,19,19,0,0,0,8.37-5.8A46.37,46.37,0,0,1,143.21,64a14.2,14.2,0,0,1,8.87-3.15,14.52,14.52,0,0,1,12,4.82c1,1.07,1.89,2.17,2.82,3.26q8.17,9.51,16.34,19c3.87,4.48,7.78,8.92,11.62,13.42a14.35,14.35,0,0,1,1.69,2.74,2.2,2.2,0,0,1,0,2q-2.76,6.32-5.44,12.66a1.82,1.82,0,0,1-1.36,1.21,23.79,23.79,0,0,1-2.71.43c-2.43.2-4.86.34-7.29.54-4.58.37-9.16.77-13.73,1.15-2.27.19-4.54.36-6.81.58-3.54.34-7.07.73-10.61,1.08s-7.16.67-10.73,1.06c-3.73.41-7.45.88-11.18,1.34-4.48.56-9,1.11-13.42,1.72a6.58,6.58,0,0,0-2.25.74c-2.41,1.34-2.85,3.73-1,5.82a11.2,11.2,0,0,0,2.55,2.14c2.11,1.3,4.3,2.46,6.44,3.69,2.34,1.35,4.57,2.83,5.91,5.29a16.38,16.38,0,0,1,1.93,7.84,50.53,50.53,0,0,1-2.54,15.31,22.6,22.6,0,0,1-5.48,9,5.38,5.38,0,0,1-6.6,1,16.08,16.08,0,0,1-2.64-1.85c-1.06-.91-2-2-3-2.89-3.84-3.38-7.66-6.78-11.57-10.08-6-5.1-12.15-10.14-18.26-15.18a9.45,9.45,0,0,0-2.47-1.44,12.55,12.55,0,0,0-10.88.43c-3.09,1.6-6.17,3.21-9.29,4.72a24.76,24.76,0,0,1-5,2,28.49,28.49,0,0,1-12-.12,20.18,20.18,0,0,1-12.65-8.45,12.3,12.3,0,0,1-2.17-4.38,3.81,3.81,0,0,1,.85-3.8,5.38,5.38,0,0,1,3-1.61c3.66-.63,7.31-1.29,11-1.92l15.45-2.68c4-.7,8-1.44,12-2.14l15.34-2.68c4.4-.78,8.81-1.57,13.21-2.36,5-.9,10.07-1.77,15.1-2.68q8.43-1.52,16.85-3.08c6.17-1.13,12.34-2.24,18.5-3.4,7.46-1.41,14.91-2.83,22.35-4.32,4.65-.93,8.17-4.94,6.24-10.35-.66-1.84-1.41-3.65-2.18-5.45a14.94,14.94,0,0,0-5.5-6.51,7.06,7.06,0,0,0-6.41-1c-5.42,1.8-10.79,3.73-16.17,5.65a85.87,85.87,0,0,1-20.54,5.07c-6.08.59-12.19,1-18.28,1.48-3.83.3-7.65.56-11.48.85l-14.22,1.12c-2.23.18-4.46.4-6.69.58-2.65.21-5.18.38-8,.59a2,2,0,0,1,0,.53l1.4-.09c5.34-.44,10.67-.9,16-1.33q9.08-.73,18.17-1.43c6.7-.51,13.39-1,20.09-1.49a79,79,0,0,0,11.6-1.77,151.83,151.83,0,0,0,16.87-5.4c3.76-1.35,7.52-2.69,11.32-3.88a6.48,6.48,0,0,1,5.55.61,13.24,13.24,0,0,1,5,5.19c1.15,2.36,2.05,4.85,3,7.28a5.44,5.44,0,0,1,.21,1,1.81,1.81,0,0,1-.33-.65c-1.16-3.07-3.28-5-6.9-4.84-2.16.09-4.31.21-6.46.37-5.54.42-11.08.87-16.61,1.3l-11,.85L117,100.26c-3.55.27-7.1.51-10.64.79-5.42.44-10.83.91-16.25,1.35-3.47.28-6.93.52-10.4.8q-6.75.55-13.5,1.15c-1.14.1-2.28.24-3.48.37l.13,1.86L67,106.2c4.14-.36,8.28-.73,12.42-1.07,3.43-.28,6.85-.52,10.28-.8,5.46-.44,10.91-.92,16.37-1.36,3.59-.29,7.18-.51,10.76-.79,5.5-.44,11-.9,16.49-1.35q6.15-.49,12.31-1c6.14-.46,12.27-.94,18.42-1.35a5.19,5.19,0,0,1,3.89.87c1.61,1.36,2.57,3.15,2,5.2a5.65,5.65,0,0,1-4.35,4.34q-7.76,1.52-15.52,3c-4.24.82-8.47,1.64-12.71,2.43-5.61,1-11.22,2.06-16.84,3.08-3.57.65-7.14,1.32-10.72,2l-17.44,3.1c-3.61.64-7.22,1.31-10.84,1.94-4.4.77-8.81,1.5-13.21,2.27-3.81.67-7.62,1.39-11.43,2.05-5.78,1-11.56,2-17.34,3-4.68.82-9.34,1.69-14,2.51a6.59,6.59,0,0,0-4.43,2.81,6,6,0,0,0-.3,6.18,22,22,0,0,0,14.09,12.45,30.3,30.3,0,0,0,10,1,28.54,28.54,0,0,0,3.23-.18,22.59,22.59,0,0,0,7-2.5c3.25-1.63,6.46-3.34,9.74-4.9a9.91,9.91,0,0,1,11.12,1.39c10.89,8.84,21.74,17.75,32,27.36a17.17,17.17,0,0,0,3.69,2.63,7.13,7.13,0,0,0,8.4-1.34,24.49,24.49,0,0,0,6.19-10.27,60,60,0,0,0,2.26-10.77,28.18,28.18,0,0,0-.1-8.36,14,14,0,0,0-5.68-9.39c-1.25-.86-2.56-1.62-3.87-2.4-2-1.16-4-2.24-5.89-3.45a6.63,6.63,0,0,1-1.77-1.75,1.51,1.51,0,0,1,.5-2.37,5.9,5.9,0,0,1,2.11-.77c2.57-.39,5.14-.71,7.72-1,6.11-.73,12.22-1.47,18.33-2.15,4.73-.53,9.46-1,14.19-1.45,5.29-.5,10.58-1,15.88-1.43,5.5-.45,11-.83,16.5-1.26,1.15-.09,2.31-.24,3.45-.44a4,4,0,0,0,3.2-2.71c1.62-4,3.29-8,5.09-11.9A4.85,4.85,0,0,0,198,102.75Z" fill="#fff"/><rect x="62.17" y="109.04" width="0.94" height="0.94" transform="matrix(-1, 0.08, -0.08, -1, 133.32, 214.02)" fill="#fff"/><rect x="61.16" y="108.18" width="0.94" height="0.94" transform="translate(131.23 212.36) rotate(175.7)" fill="#fff"/><rect x="60.29" y="109.19" width="0.94" height="0.94" transform="translate(129.58 214.44) rotate(175.7)" fill="#fff"/><rect x="62.03" y="107.17" width="0.94" height="0.94" transform="translate(132.89 210.28) rotate(175.7)" fill="#fff"/><rect x="61.02" y="106.3" width="0.94" height="0.94" transform="matrix(-1, 0.08, -0.08, -1, 130.81, 208.62)" fill="#fff"/><rect x="60.15" y="107.31" width="0.94" height="0.94" transform="matrix(-1, 0.08, -0.08, -1, 129.15, 210.7)" fill="#fff"/><rect x="61.88" y="105.29" width="0.94" height="0.94" transform="translate(132.47 206.54) rotate(175.7)" fill="#fff"/><rect x="60.87" y="104.42" width="0.94" height="0.94" transform="translate(130.39 204.88) rotate(175.7)" fill="#fff"/><rect x="60.01" y="105.43" width="0.94" height="0.94" transform="translate(128.73 206.96) rotate(175.7)" fill="#fff"/><rect x="61.74" y="103.41" width="0.94" height="0.94" transform="translate(132.05 202.8) rotate(175.7)" fill="#fff"/><rect x="60.73" y="102.54" width="0.94" height="0.94" transform="translate(129.96 201.14) rotate(175.7)" fill="#fff"/><rect x="59.86" y="103.55" width="0.94" height="0.94" transform="matrix(-1, 0.08, -0.08, -1, 128.31, 203.22)" fill="#fff"/><rect x="61.6" y="101.53" width="0.94" height="0.94" transform="translate(131.62 199.05) rotate(175.7)" fill="#fff"/><rect x="59.72" y="101.67" width="0.94" height="0.94" transform="matrix(-1, 0.08, -0.08, -1, 127.88, 199.48)" fill="#fff"/></svg>