<svg id="Layer_1" data-name="Layer 1" xmlns="http://www.w3.org/2000/svg" viewBox="0 0 200 200"><title>Circuits</title><path d="M108.09,122.4s.08.09.08.13c0,.44-.18,1,0,1.28s.85.35,1.3.5q6.86,2.28,13.73,4.56c3.59,1.18,7.2,2.33,10.79,3.52,4.78,1.58,9.56,3.19,14.34,4.78,3.6,1.19,7.2,2.36,10.8,3.56,2.31.77,4.64,1.51,6.91,2.41a4.42,4.42,0,0,1,2.49,5.45,53.9,53.9,0,0,1-3.28,8.76,12.71,12.71,0,0,0-1.14,5.66,19.17,19.17,0,0,0,3.51,10,42.54,42.54,0,0,0,6.12,7.15c2.3,2.25,4.56,4.54,6.83,6.81a4,4,0,0,1-.18,6c-1.22,1.12-2.6,1.92-4.3,1.52a21.43,21.43,0,0,1-3.15-1.23L155.43,186c-4.71-2-9.4-3.94-14.11-5.9-3.35-1.39-6.71-2.75-10.06-4.13q-7.43-3.06-14.85-6.12c-5.84-2.42-11.67-4.88-17.51-7.3-5.41-2.24-10.83-4.43-16.24-6.67-4.63-1.91-9.26-3.86-13.89-5.78l-18.55-7.69-19.47-8.1c-3-1.24-6-2.51-9-3.68a5.31,5.31,0,0,1-3.66-5.18,6,6,0,0,1,3.67-5.75c4.64-1.82,9.25-3.74,13.87-5.63q7.71-3.16,15.4-6.34c5.46-2.25,10.93-4.49,16.38-6.77,4.58-1.91,9.15-3.87,13.72-5.81,1.76-.75,3.56-1.45,5.27-2.31A2.91,2.91,0,0,0,88,90.07c-.09-2.25-.3-4.49-.49-6.73-.08-.91-.27-1.81-.31-2.72-.1-1.91-.66-2.21-2.69-2.64a5.13,5.13,0,0,0-1.19,0A4.83,4.83,0,0,1,80,76.56c-2.48-2.13-5-4.23-7.49-6.34l-6.33-5.38c-.72-.62-1.45-1.23-2.16-1.86a7.67,7.67,0,0,1-2.38-7.39A27.88,27.88,0,0,1,62.55,52a4,4,0,0,0-1.44-4.08c-3-2.39-6.09-4.73-9.09-7.14q-4.2-3.37-8.3-6.87c-2.09-1.78-4.12-3.63-6.17-5.44a10.37,10.37,0,0,1-3.09-4.93,22.25,22.25,0,0,1-1.41-5.7,8.34,8.34,0,0,1,1.1-4.13,15.43,15.43,0,0,1,3.61-5,12.41,12.41,0,0,1,3.24-2,21.46,21.46,0,0,1,11.21-1.1,19.59,19.59,0,0,1,6.21,1.56A15.8,15.8,0,0,1,63.73,11a9.58,9.58,0,0,1,1.73,4.32A29,29,0,0,1,65.8,24a16.23,16.23,0,0,0,1.37,7.59c1.08,2.64,2.09,5.32,3.12,8,1.53,4,3.07,7.92,4.59,11.89C75.49,53,76,54.71,77.65,55.6a5.1,5.1,0,0,0,2.1.67c2.46.13,4.93.14,7.4.18,1.32,0,2.64,0,4,0A4.54,4.54,0,0,1,94,57.68c3.63,3.1,7.25,6.22,10.91,9.28,3.93,3.29,7.89,6.53,11.85,9.77,3.44,2.82,4.62,6.41,3.33,10.64a8.62,8.62,0,0,1-5,5.66c-4.43,1.85-8.84,3.75-13.27,5.59-4,1.64-8,3.17-11.9,4.86-4.5,1.93-9,4-13.41,6a2.08,2.08,0,0,0-1.3,2.7,1.32,1.32,0,0,0,.69.75c3,1.09,5.92,2.18,8.91,3.19,4.4,1.49,8.81,2.93,13.22,4.39,1.72.57,3.44,1.1,5.15,1.69.61.21,1,.15,1-.55,0-.09.1-.18.16-.27l.06,0,1.12.43-.22,1.25c-1.29-.17-1.29-.17-1.44,1l1.19.16-.36,1.26c1.06.47,1.21.39,1.39-.77l-1.05-.47.26-1.19.58.21c.36.13.64.17.77-.33s.1-.76-.46-.84a3.12,3.12,0,0,1-.66-.26c.07-.11.18-.22.2-.34.11-.78.52-.8,1.1-.47a.84.84,0,0,0,.31,0l0,0a4.35,4.35,0,0,0,0,1.23c0,.11.62,0,.95.07Zm-3.6,8.41V132l1,.19.19-1.22-1.25-.12.57-1.2c1.26.24,1.06.23,1.25-1-.69-.08-1.14-.33-.84-1.16,0-.1-.24-.34-.42-.46a3.15,3.15,0,0,0-.63-.27l.27-1.09-1.17-.23c-.37,1.21-.24,1.36.93,1.29a1.94,1.94,0,0,0-.15.45c-.06.85-.48.95-1.16.6-.06,0-.15,0-.23,0-.35,1-.35,1,.64,1.46l.22.07-.38,1.09c-1.25-.23-1.25-.23-1.35.93l1.11.27.22-1.23Zm-1.36-5-2.55-.84-10.43-3.46c-2.95-1-5.9-1.94-8.84-2.95-2.33-.8-4.68-1.56-6.95-2.51a4.19,4.19,0,0,1-2-1.81,5.39,5.39,0,0,1,2.14-7.54,49.19,49.19,0,0,1,5.66-2.77c2.1-1,4.23-1.84,6.36-2.72,5.1-2.11,10.21-4.18,15.31-6.29,3.62-1.5,7.2-3.07,10.82-4.57a7.28,7.28,0,0,0,3.19-2.11,6.08,6.08,0,0,0,1.11-5.53C116.52,81,115.26,80,114,78.92c-3.74-3.1-7.5-6.17-11.22-9.29C99.35,66.74,96,63.8,92.54,60.91c-.45-.38-1-.89-1.5-.91-3.56-.14-7.13-.33-10.69-.19a8.78,8.78,0,0,1-8-5.42c-1.54-3.83-3-7.7-4.48-11.55-1.36-3.53-2.64-7.09-4.06-10.59a19.16,19.16,0,0,1-1.39-8.36,24.92,24.92,0,0,0-.22-7.24c-.29-1.19-.42-2.58-1.13-3.46A11.1,11.1,0,0,0,54.6,9.47a21.88,21.88,0,0,0-9.79-.3,14,14,0,0,0-3.89,1.44c-1.81,1.09-2.79,3-3.77,4.79a4.82,4.82,0,0,0-.47,3.81q.66,2.17,1.43,4.31a3.72,3.72,0,0,0,.76,1.39c1.44,1.43,2.9,2.85,4.44,4.17,2.44,2.1,4.92,4.15,7.42,6.18,2.95,2.39,6,4.71,8.9,7.11,1.8,1.46,3.87,2.65,5.16,4.65A6.48,6.48,0,0,1,66,52.45c-.34,1.24-.78,2.45-1,3.71a4,4,0,0,0,1,3.92q1.13,1.05,2.3,2.06,3.12,2.68,6.26,5.34c2.26,1.91,4.54,3.79,6.78,5.72a4.87,4.87,0,0,0,3.27,1.37c3,.09,5.69,1.75,6,5.25.11,1.23.28,2.45.36,3.68a69,69,0,0,1,.4,7.37A5.7,5.7,0,0,1,87.89,96c-4.63,2.08-9.33,4-14,6q-9.49,4-19,8c-4.73,2-9.5,3.83-14.24,5.76-3.46,1.41-6.9,2.84-10.35,4.27C27.85,121,25.42,122,23,123a2,2,0,0,0-1.24,1.34c-.38,1.43-.2,2.53,1.34,3.15,2.6,1.05,5.19,2.14,7.79,3.21q9.43,3.92,18.85,7.84c5,2.06,10,4.07,14.94,6.14,5.88,2.44,11.75,4.91,17.64,7.35q8,3.32,16.05,6.6c3.57,1.47,7.15,2.92,10.72,4.4L120.93,168l10.63,4.39,11.86,4.93,8.8,3.64,10.25,4.27,10.82,4.52c1.09.45,2.18.9,3.29,1.31a1.31,1.31,0,0,0,1.67-.8c.1-.29-.23-.78-.44-1.13a4.2,4.2,0,0,0-.68-.76q-3.94-4-7.88-7.91a33,33,0,0,1-6.07-8.26,22.15,22.15,0,0,1-2.32-7.25,16.45,16.45,0,0,1,1.05-8.37c.71-1.81,1.55-3.57,2.26-5.38.44-1.12.74-2.3,1.08-3.46.26-.88-.19-1.43-1.51-1.87-4.63-1.55-9.25-3.11-13.88-4.64-4.21-1.39-8.43-2.74-12.65-4.12q-8-2.63-16-5.29c-3.37-1.12-6.72-2.27-10.09-3.39-1.34-.45-2.7-.84-4.08-1.27-.41,1.63-.81,3.16-1.19,4.71-.09.38-.2.68-.67.56l-3.51-.94Zm3.84.46c-1.18-.37-1.31-.28-1.22.91l1,.21Zm-.64-1.52,1,.25.22-1.16C106.49,123.5,106.39,123.57,106.33,124.75Z" fill="#fff"/><path d="M108.55,116.62l1.12.22c-.44,1.78-.85,3.47-1.27,5.15,0,.15-.2.27-.31.41h0l.13-1-1.11-.28,0,0,.23-1.25-1.06-.23-.44,1.11-1-.26-.4,1-.06,0c.27-1.2.53-2.4.81-3.6.11-.46.3-.9.36-1.36.11-.76.46-.67.93-.33l-.85.47.11.26,1.09.28.19-.73-.57-.3,2,.51-.28,1.1-1.26-.53-.41,1.21-1.19-.37a4,4,0,0,0,0,1.23c.06.15.71.27.74.22a6,6,0,0,0,.37-1.11l1.29.36c-.28,1-.51,1.34.84,1.38l.31-1.16-1.18-.19.44-1,1.05-.07c.23-.43.2-.78-.48-.81C108.68,116.82,108.62,116.69,108.55,116.62Z" fill="#fff"/><path d="M105.06,129.65l-1.3-.33a4.24,4.24,0,0,1,.23-.91c.38-.76.79.14,1.24-.09Z" fill="#fff"/></svg>