<svg id="Layer_1" data-name="Layer 1" xmlns="http://www.w3.org/2000/svg" viewBox="0 0 200 200"><title>Circuits</title><path d="M30.47,52.48c3.86-3.86,7.52-8,11.63-11.54,9.34-8.1,18.78-16.1,28.46-23.78,2.65-2.1,6.22-3.24,9.53-4.3C91.54,9.18,99.28,12.3,104.75,23c6.92,13.55,10.47,28.23,13.55,43,.94,4.49-1.58,7.87-5.73,8.78s-7.65-1-9.16-5.3C101.25,63.37,99,57.25,97.15,51c-1.67-5.49-5.49-8-10.83-8.6-10.53-1.12-20.27.83-28.21,8.36C51,57.49,44,64.21,37.28,71.3a19.34,19.34,0,0,0-4.14,8.61c-1.87,8,3.1,13.63,11.27,13.22,7.54-.38,15.1-.71,22.6-1.5a125.35,125.35,0,0,1,33,1.22c23.77,3.78,47.6,7.21,71.38,11,9.64,1.53,17.69,5.7,20.86,15.78a28.74,28.74,0,0,1,1.23,9.59q-.85,21.26-2.19,42.51c-.65,10.57-6.61,16.78-17.17,16.89A313.41,313.41,0,0,1,141,187.22c-4.75-.45-9.53-2.57-13.87-4.77-5.54-2.81-10.6-6.57-16-9.74-4.68-2.76-6.6-6.61-6-12,1-8.92,1.75-17.88,2.49-26.82.67-8-1.71-10.65-9.76-11q-36.28-1.69-72.56-3.33c-9.49-.44-15.65-5.24-17.7-14.54-3.24-14.71.48-27.84,10.1-39.3C21.66,61,25.86,56.52,29.95,52Zm7.46-5.79C31,54.5,23.11,62.48,16.33,71.33c-7.79,10.17-9.4,22.11-6.21,34.46,1.61,6.25,5.74,10.46,12.44,11.35,3.21.43,6.48.48,9.72.63,22,1,43.94,2,65.91,3,9.1.44,12.17,3.86,11.49,12.88-.66,8.82-1.35,17.65-2.47,26.42-.67,5.29,1.29,8.73,5.64,11.31,5.14,3.05,10,6.64,15.37,9.2,4.73,2.25,9.89,4.29,15,4.83,9.81,1,19.74,1.16,29.63,1.22,10.18.06,15.73-5.24,16.37-15.38q1.35-21.43,2.22-42.88a24.85,24.85,0,0,0-1.23-8.41c-3-9.48-10.81-12.83-19.68-14.23-23.13-3.64-46.31-7-69.43-10.69a132.08,132.08,0,0,0-35.35-1.31c-7.24.78-14.53,1.15-21.81,1.41-9.27.33-15-6.32-13-15.41a22.79,22.79,0,0,1,4.73-10C41.84,63,48.54,56.79,55.08,50.47c8.83-8.53,19.49-11.6,31.53-10.16,6.16.74,10.65,3.63,12.57,10q2.77,9.13,6.2,18.06A7.77,7.77,0,0,0,109,72.46c4.28,1.8,8.17-2,7-7-1.82-8.11-3.62-16.27-6.19-24.16a110.84,110.84,0,0,0-8.29-19.28C97.2,14.14,91,11.82,82.4,14.44c-4.29,1.31-8.78,3-12.26,5.7C59.37,28.51,49.06,37.44,37.93,46.68Z" fill="#fff"/></svg>