<svg id="Layer_1" data-name="Layer 1" xmlns="http://www.w3.org/2000/svg" viewBox="0 0 200 200"><title>Circuits</title><path d="M98.16,165.31,96,167.73l-.51-.3,1.45-2.86a27,27,0,0,0-2.11-1.84c-8.66-6.2-17.46-12.22-25.95-18.64-5.5-4.16-10.55-8.92-15.83-13.36-.71-.6-1.67-1.39-2.46-1.33-2.4.17-3.92-1.07-5.21-2.73a13.17,13.17,0,0,0-5.16-3.85,49.47,49.47,0,0,1-11.5-8c-10.17-9.17-12.17-27.3-6.57-39.14C26.77,65.83,31.25,55.9,35.83,46a3.08,3.08,0,0,0-.13-3.53,6.26,6.26,0,0,1-.7-4.12Q36.72,27,38.78,15.69c1-5.73,6.73-8.54,12-6.14C58,12.79,65.2,16,72.38,19.2a5.2,5.2,0,0,1,3.22,5.38c-.44,9.09-1.22,18.19-1.1,27.28.08,5.8,1.43,11.59,2.37,17.36,1.25,7.65,2.62,15.28,4,22.91,1.33,7.24,2.69,14.47,4.2,21.68.21,1,1.29,1.94,2.15,2.69,2.15,1.88,4.61,3.46,6.54,5.54a8.23,8.23,0,0,1,1.91,4.71A4.59,4.59,0,0,0,98,130.37q25.42,18.3,50.88,36.57c4.55,3.27,9.13,6.53,13.6,9.91,3.68,2.78,5.93,6.4,4.93,11.21s-4.56,7.17-9.06,8.24c-5.36,1.27-10.38-.35-15.41-2-1.36-.43-2.91-.29-4.24-.78-1.68-.62-4.08-1.25-4.66-2.54-1.39-3.1-4.37-3.78-6.65-5.42-8.39-6-16.93-11.86-25.41-17.76C100.72,167,99.46,166.18,98.16,165.31Zm3.62-6.11a6.91,6.91,0,0,0,1.29,2c3,2.26,6.15,4.39,9.22,6.6,9.46,6.8,19,13.51,28.34,20.47,5.5,4.1,11.26,6,18.06,4.2,2.75-.75,4.63-2.32,5.16-5.13a7.08,7.08,0,0,0-3.05-7.39q-11.41-8.32-22.9-16.54l-42.56-30.6a7.17,7.17,0,0,1-3.07-5.33,8.74,8.74,0,0,0-2.06-4.33,17.07,17.07,0,0,0-4.29-3.32,8.44,8.44,0,0,1-4.45-6.37C79.34,101,76.9,88.5,74.57,76c-.53-2.84-1-5.68-1.62-8.51a83,83,0,0,1-1.81-24.3c.54-6,.72-12,.9-18,0-1-.52-2.51-1.24-2.85q-10.94-5.09-22-9.81a4.85,4.85,0,0,0-6.59,3.69c-1.34,7.62-2.55,15.27-3.76,22.91a2.21,2.21,0,0,0,.49,1.6c1.7,1.89,1.47,3.93.53,6-2.8,6.06-5.76,12.05-8.49,18.15-3,6.77-7.08,13.15-8.1,20.71a33.22,33.22,0,0,0,4.56,22.25c3,5,8,7.78,12.36,11.19a2.51,2.51,0,0,0,1.45.52,6,6,0,0,1,5.13,2.79c1.42,1.88,2.68,4.09,5.73,3.71.7-.09,1.59.77,2.28,1.33,6.71,5.53,13.29,11.22,20.12,16.6,3,2.33,5.94,5.1,10.31,4.51a2.81,2.81,0,0,1,1.63.72c4.32,3.06,8.6,6.17,12.94,9.19A8.93,8.93,0,0,0,101.78,159.21Zm-1.28,2.36-.11,1c11.45,7.91,22.38,16.59,34.69,23.25a9.91,9.91,0,0,0-2.23-2.11q-10.1-7.31-20.22-14.6c-3.31-2.39-6.61-4.78-10-7.09A5.76,5.76,0,0,0,100.5,161.57ZM83.28,149.08l-.51.8L99.69,162c0-1.14.2-2,0-2.13C94.09,156.45,89.56,151.33,83.28,149.08Z" fill="#fff"/></svg>