<svg id="Layer_1" data-name="Layer 1" xmlns="http://www.w3.org/2000/svg" viewBox="0 0 200 200"><title>Circuits</title><rect x="80.24" y="127.63" width="1.1" height="1.1" transform="translate(172.3 7.43) rotate(69.38)" fill="#fff"/><rect x="79.6" y="129.04" width="1.1" height="1.1" transform="translate(173.21 8.94) rotate(69.38)" fill="#fff"/><rect x="81.01" y="129.68" width="1.1" height="1.1" transform="translate(174.73 8.03) rotate(69.38)" fill="#fff"/><rect x="78.18" y="128.4" width="1.1" height="1.1" transform="translate(171.69 9.85) rotate(69.38)" fill="#fff"/><rect x="77.54" y="129.82" width="1.1" height="1.1" transform="translate(172.6 11.37) rotate(69.38)" fill="#fff"/><rect x="78.95" y="130.46" width="1.1" height="1.1" transform="translate(174.12 10.46) rotate(69.38)" fill="#fff"/><rect x="76.12" y="129.17" width="1.1" height="1.1" transform="translate(171.09 12.28) rotate(69.38)" fill="#fff"/><rect x="75.48" y="130.59" width="1.1" height="1.1" transform="translate(171.99 13.8) rotate(69.38)" fill="#fff"/><rect x="76.9" y="131.23" width="1.1" height="1.1" transform="translate(173.51 12.89) rotate(69.38)" fill="#fff"/><rect x="74.06" y="129.95" width="1.1" height="1.1" transform="translate(170.48 14.71) rotate(69.38)" fill="#fff"/><rect x="73.42" y="131.36" width="1.1" height="1.1" transform="translate(171.39 16.23) rotate(69.38)" fill="#fff"/><rect x="74.84" y="132.01" width="1.1" height="1.1" transform="translate(172.9 15.32) rotate(69.38)" fill="#fff"/><rect x="72.01" y="130.72" width="1.1" height="1.1" transform="translate(169.87 17.14) rotate(69.38)" fill="#fff"/><rect x="72.78" y="132.78" width="1.1" height="1.1" transform="translate(172.3 17.74) rotate(69.38)" fill="#fff"/><path d="M193.87,150.42c-2.48-4-4.88-8-7.45-11.88a24.55,24.55,0,0,1-4-9.93,24.36,24.36,0,0,0-6.87-13.51,9.17,9.17,0,0,1-.74-.83c-1.25-1.66-2.58-3.27-3.69-5a4.26,4.26,0,0,1,.06-4.73c1.51-2.55,2.87-5.19,4.4-7.73Q183.91,83,192.38,69.17c1.23-2,1.19-3.74-1.15-5.08-10.82-6.18-21.56-12.48-32.37-18.66C151.5,41.23,144,37.22,136.68,33a10.42,10.42,0,0,0-10.57-.2c-3.3,1.68-6.49,3.58-9.83,5.15s-7.12,2.79-11,1.41A39.36,39.36,0,0,1,99.94,37a10.66,10.66,0,0,1-4.65-4.25,82.23,82.23,0,0,1-4-7.62A42.62,42.62,0,0,0,80.51,9.89c-3.64-3.38-7.69-6.1-12.71-7a26.18,26.18,0,0,0-11.27.82,235.54,235.54,0,0,0-26.88,8.89,7.79,7.79,0,0,0-4,3C24.14,18,22.53,18.49,20,17.53a4.41,4.41,0,0,0-4.37.31,22.21,22.21,0,0,0-3.27,2.56A25.06,25.06,0,0,0,5.39,41c.47,4.91,2.5,9.36,4.6,13.76A26.34,26.34,0,0,0,15.58,63,50.7,50.7,0,0,0,32.49,73.41a30.44,30.44,0,0,1,3.63,1.71c4.09,2.17,8.1,4.51,12.26,6.52A33.82,33.82,0,0,1,61.18,92.42a38.78,38.78,0,0,1,4.67,8.95c2.46,6.48,4.57,13.1,6.82,19.67,1,2.82,1.93,5.64,2.91,8.51l.74-.28a2.53,2.53,0,0,1-.3-.68c-1.21-3.54-2.51-7.06-3.59-10.65A158.1,158.1,0,0,0,64.7,97,32.64,32.64,0,0,0,53.21,83.78c-2.91-2-6.2-3.45-9.31-5.18C42,77.53,40,76.41,38.11,75.32c6.65,2.34,13.13,5.07,18.58,9.68,5.65,4.79,9.26,11,11.69,17.92,3,8.63,5.88,17.34,8.81,26l1.81-.69c-.95-2.8-1.83-5.39-2.7-8-2-6.05-4-12.14-6.13-18.16-2.43-6.8-6-13-11.38-17.85a45.57,45.57,0,0,0-14.6-8.68C40,74,35.78,72.71,31.69,71,25.19,68.27,19,64.84,14.83,59c-4.49-6.37-7.74-13.44-7.63-21.5A23,23,0,0,1,12.9,22.61a21,21,0,0,1,3.84-3.16c1.09-.79,2.27-.2,3.32.21a5.47,5.47,0,0,0,5.38-.82,4.8,4.8,0,0,0,1.38-1.52,7.49,7.49,0,0,1,4.23-3.19c3.21-1.19,6.39-2.48,9.66-3.51,6-1.88,11.92-3.75,18-5.34a18.93,18.93,0,0,1,16.88,3.1,53.05,53.05,0,0,1,4.94,4.24,38.42,38.42,0,0,1,8.8,12.84,82.25,82.25,0,0,0,4.44,8.48c1.92,3.37,5.29,4.91,8.61,6.48,5.91,2.78,11.38,1.16,16.73-1.63,2.67-1.39,5.27-2.9,7.95-4.28a8.7,8.7,0,0,1,8.85.23Q162.52,50,189.22,65.16c.32.18.65.36,1,.56,1.23.75,1.33,1.1.57,2.34-1.15,1.85-2.38,3.65-3.49,5.52q-9,15.09-17.95,30.21a5.77,5.77,0,0,0-.1,6.1,65.38,65.38,0,0,0,3.85,5.4,8.08,8.08,0,0,0,.74.83A22.72,22.72,0,0,1,180.43,129,26.58,26.58,0,0,0,185,139.9c2.48,3.79,4.83,7.68,7.23,11.53a5,5,0,0,1-1.68,6.55c-7.18,3.76-14.4,7.42-21.54,11.24a8.65,8.65,0,0,1-10.51-1.78,4.22,4.22,0,0,1-1.25-3.26c.33-4.06.7-8.11.94-12.18.21-3.51.38-7,.34-10.53,0-3.11-1.22-5.66-4.36-7-2.19-.9-4-.18-4.68,2.09-.84,2.69-1.6,5.41-2.47,8.1-1.37,4.22-2.74,8.45-4.27,12.61a37.49,37.49,0,0,1-2.46,4.66c-.92,1.71-1.86,3.41-2.76,5.13a10.59,10.59,0,0,0-.53,8.74,32,32,0,0,0,4.13,8.9,15.74,15.74,0,0,0,4.65,4.31c1.31.78,2.56,1.67,3.87,2.45A2.76,2.76,0,0,1,151,194c0,1.3-.34,1.64-1.56,1.19-2.29-.86-4.61-1.69-6.82-2.75q-6.83-3.26-13.54-6.76c-7.13-3.73-13.34-8.81-19.84-13.49a51.87,51.87,0,0,1-13.68-15.13c-4.61-7.43-9.1-14.93-13.61-22.43-.62-1-1.07-2.16-1.65-3.37l-2,.75,6.85,12.54-.08.07c-.43-.63-.9-1.24-1.29-1.89q-2.94-4.85-5.85-9.73a1.84,1.84,0,0,1-.33-.73l-.7.27a1.35,1.35,0,0,1,.31.46c2.11,4.88,5.29,9.11,8.38,13.38,1.54,2.13,3.28,4.13,4.78,6.29,2,2.81,3.71,5.75,5.64,8.58a42.82,42.82,0,0,0,9.54,10.54c2.75,2,5.39,4.22,8.2,6.18,4.05,2.84,8.06,5.8,12.35,8.23,5.47,3.09,11.19,5.76,16.85,8.51a57,57,0,0,0,6.32,2.49,2.73,2.73,0,0,0,3.42-1.34,5.19,5.19,0,0,0-1.21-5.35,36.68,36.68,0,0,0-3.94-2.58,15.15,15.15,0,0,1-6.42-6.91,73.48,73.48,0,0,1-2.64-7,6.34,6.34,0,0,1,.25-4.88c.84-1.75,1.72-3.48,2.63-5.2a52.23,52.23,0,0,0,3-5.64c1.67-4.45,3.13-9,4.62-13.51.8-2.41,1.46-4.87,2.21-7.3.44-1.45,1-1.62,2.34-1.08,2.3.93,3,2.87,3,5,0,3.46-.13,6.93-.33,10.39-.24,4.25-.69,8.48-.87,12.73a5.7,5.7,0,0,0,.93,3.1,10.3,10.3,0,0,0,12.64,3.64c1.48-.67,2.94-1.37,4.37-2.12,6-3.13,11.95-6.31,17.95-9.43A6.94,6.94,0,0,0,193.87,150.42Z" fill="#fff"/></svg>