<svg id="Layer_1" data-name="Layer 1" xmlns="http://www.w3.org/2000/svg" viewBox="0 0 200 200"><title>Circuits</title><path d="M22.55,158.4l-4,1c-.07-.38-.16-.63-.12-.66,3.66-2,3.7-2,2.06-6-2-4.93-3.13-10-1-15.1,1.82-4.46,5.26-7.65,9-10.62a116.36,116.36,0,0,0,11.11-9.65,13.45,13.45,0,0,0,3.23-6.59c1.56-8.26,2.47-16.64,4.13-24.88a20.31,20.31,0,0,1,9-13c7.62-5,15.38-9.89,23.1-14.79q25.72-16.35,51.45-32.68Q141.72,18.19,153.1,11a15.7,15.7,0,0,1,20.62,3.11c5.59,6.45,5.89,15.32.32,21.29-4.41,4.72-9.22,9.08-13.9,13.54q-16.82,16-33.69,32c-4.46,4.23-9,8.4-13.44,12.63-3.3,3.13-4.07,7.27-3.59,11.43,1.13,9.82,2.78,19.58,4,29.4,1.36,11.19,2.33,22.43,3.72,33.62.94,7.57-2.19,13.26-7.6,18a21.8,21.8,0,0,1-12.93,5.61c-3.81.3-6.72-1.78-9.78-3.29-7.24-3.57-14.33-7.43-21.45-11.23a5.45,5.45,0,0,0-5.69.16c-5.46,3-10.9,6.13-16.51,8.88a14.29,14.29,0,0,1-6.5,1.21c-2.42-.07-4-1.76-4.86-4.12C28.79,175,25.7,166.82,22.55,158.4Zm5-1.85a53.77,53.77,0,0,1,2.94,5.18c1.64,3.79,3,7.72,4.7,11.46a4.3,4.3,0,0,0,3,2.22,120.51,120.51,0,0,0,13.36,0,19.52,19.52,0,0,0,6.42-1.66c2.77-1.2,5.29-2.12,8.29-.49,7.38,4,14.86,7.8,22.3,11.7,3.61,1.89,7.18,4,11.47,2.2a28.43,28.43,0,0,0,5.4-2.73c5.72-4.08,9-9.31,7.9-16.75-.92-6.16-1.45-12.38-2.14-18.57-.75-6.76-1.43-13.54-2.26-20.29-1-8.11-2.33-16.18-3.16-24.31-.52-5,.72-9.77,4.59-13.46,7.64-7.3,15.26-14.63,22.93-21.9,11.15-10.56,22.36-21,33.5-31.6,3.1-2.93,6.49-5.62,7.27-10.28.94-5.6-1.53-9.68-5.64-12.86A11.39,11.39,0,0,0,155.56,14c-3.64,2.43-7.37,4.72-11.07,7-6.87,4.32-13.77,8.59-20.62,12.93Q102.28,47.6,80.74,61.34C73.14,66.18,65.56,71,58,76a16.07,16.07,0,0,0-7.38,11c-1.07,6.29-2.54,12.55-3.08,18.89-.77,9.06-4.9,15.72-12.32,20.7a78.93,78.93,0,0,0-8,6.38c-3.54,3.1-5.61,7-5.09,11.82a30.3,30.3,0,0,0,1.61,6.08c1.34,4.08,1.38,4.06,5.37,3.77,0,0,.11.11.33.35Zm2.22,7-.69.3a2.86,2.86,0,0,0,0,.93c2.08,5.7,4.13,11.41,6.31,17.08.77,2,2.65,2.27,4.3,1.49,4-1.88,7.83-4,12.27-6.35a8.66,8.66,0,0,0-1.72-.55c-3.79,0-7.59-.1-11.37.08-2.53.12-4.2-.78-5.09-3.1-.75-2-1.38-4-2.16-5.93C31.1,166.2,30.4,164.91,29.77,163.6Z" fill="#fff"/></svg>