<svg id="Layer_1" data-name="Layer 1" xmlns="http://www.w3.org/2000/svg" viewBox="0 0 200 200"><title>Circuits</title><path d="M58.07,57l1.08-2.57c.56.29.76,0,1-.5,3-7.47,6-14.93,9-22.42a39.76,39.76,0,0,0,1.17-4.22l-.2-.07L59,54.26l-2.32-1c.06-.2.1-.38.17-.54C62.51,39,68.18,25.2,73.77,11.39a7.05,7.05,0,0,1,5.85-4.52A7.45,7.45,0,0,1,88.39,15a8.55,8.55,0,0,1-.66,2.42c-1.92,4.69-3.89,9.37-5.84,14a32.84,32.84,0,0,0-2.5,12.44A44.38,44.38,0,0,1,79,50.54a7.3,7.3,0,0,1-5,6.16c-3.11,1.06-6.24,2.11-9.35,3.16-.71.24-1.42.46-2.11.74a4.16,4.16,0,0,0-2.28,5.87,3.89,3.89,0,0,0,4.2,1.86,16.53,16.53,0,0,0,2.74-.62c4.64-1.49,9.29-3,13.91-4.55A36.73,36.73,0,0,1,102,62.53c3.69.9,7.37,1.89,11.1,2.54a19.88,19.88,0,0,0,14.23-2.95c2.64-1.63,5.21-3.38,7.91-4.9A23.59,23.59,0,0,1,147,53.78c3.95,0,7.89.22,11.84.38,2.74.12,5.49.17,8.21.51a16.48,16.48,0,0,1,14.65,17.7A15.26,15.26,0,0,1,179,79.84c-3.35,5.13-6.8,10.21-10,15.44A120.17,120.17,0,0,0,158.4,118c-1.06,3-.77,3.76,1.76,5.64,1.06.79,2.17,1.52,3.18,2.37,2.8,2.34,3.61,5.24,2.67,8.8-1.23,4.67-3.69,8.69-6.22,12.7A135.09,135.09,0,0,1,139.34,172c-1.09,1.06-2.16,2.13-3.19,3.24a17.31,17.31,0,0,1-7.14,4.61c-7.24,2.51-14.48,5-21.73,7.51-5.3,1.8-10.62,3.54-15.95,5.28a13.79,13.79,0,0,1-2.46.53A3.64,3.64,0,0,1,85,191.33c-.93-1.59-1.74-3.26-2.57-4.92a9.21,9.21,0,0,0-5.29-4.94,14.83,14.83,0,0,0-3.79-.82c-2.93-.19-5.87-.24-8.8-.28-7.85-.11-15.68-.54-23.49-1.36A30.57,30.57,0,0,1,28,174.67a19,19,0,0,1-9.09-13.17A37.4,37.4,0,0,1,20.58,142c3.28-9.5,7.22-18.74,11.06-28Q42.34,88.06,53,62.16c.12-.29.25-.57.4-.92l2.34,1-1,2.35c-8.8,21.33-17.65,42.64-26.38,64-2.22,5.42-4.2,10.95-6.08,16.5a30.59,30.59,0,0,0-.36,18.2,15.36,15.36,0,0,0,6.6,8.73,27.19,27.19,0,0,0,12.52,4.44c9.29,1,18.62,1.36,28,1.47a31.5,31.5,0,0,1,7.46.67,12,12,0,0,1,8.12,6.5c.71,1.39,1.36,2.81,2.1,4.19s1.2,1.73,2.84,1.23c3.49-1.07,7-2.21,10.42-3.38,9.28-3.15,18.55-6.34,27.83-9.49a16.47,16.47,0,0,0,6.77-4.38c4.42-4.67,9.06-9.14,13.29-14A94.84,94.84,0,0,0,162,138.55a29,29,0,0,0,1.82-5.75,4.06,4.06,0,0,0-1.21-3.91,27.29,27.29,0,0,0-2.53-2.14c-.83-.66-1.7-1.26-2.53-1.92a5.43,5.43,0,0,1-1.89-6.51c1.09-3.05,2.23-6.09,3.47-9.09A141.18,141.18,0,0,1,173.86,83c1-1.49,2-3,3-4.5,5.37-7.59.8-19.29-8.88-21.06a42.6,42.6,0,0,0-5.66-.56q-7.47-.35-14.94-.56a18.33,18.33,0,0,0-9,2.18,98.3,98.3,0,0,0-8.87,5.24,23.83,23.83,0,0,1-19.37,3.43c-3.55-.84-7.09-1.75-10.66-2.52a32.85,32.85,0,0,0-17.65.95c-4.67,1.56-9.36,3.07-14,4.61a11.23,11.23,0,0,1-5.54.6,6.32,6.32,0,0,1-5.07-7.45c0-.14.06-.28.1-.46l-1.44-.62,1-2.62-2.57-1.1,1.1-2.65,2.63,1.05L57,59.65l2.58,1a5.73,5.73,0,0,0,.37-.88,2.21,2.21,0,0,1,1.67-1.62l2.32-.8c3-1,6-2,9-3a5.14,5.14,0,0,0,3.59-4.61,45.68,45.68,0,0,0,.29-5.68,35.81,35.81,0,0,1,2.87-14c1.92-4.56,3.79-9.14,5.72-13.7,1-2.37.22-4.28-1.37-6.06-1.78-2-6.36-.81-7.32.84a6.61,6.61,0,0,0-.35.71c-.83,1.94-1.62,3.91-2.5,5.83a34.48,34.48,0,0,0-2.57,8.67,31.35,31.35,0,0,1-1.47,5.78c-1.69,4.52-3.56,9-5.36,13.46l-3.75,9.31,1,.52-1.09,2.6Z" fill="#fff"/></svg>