<svg id="Layer_1" data-name="Layer 1" xmlns="http://www.w3.org/2000/svg" viewBox="0 0 200 200"><title>Circuits</title><path d="M105.53,146.17l-.75.38-.3-.83a3.07,3.07,0,0,0-.6.05l-7.61,2.15c-.9.26-1,.38-1.06,1.33,0,.21,0,.43-.05.63a1.9,1.9,0,0,1-.93,1.37A71.5,71.5,0,0,1,87.14,155c-1.56.76-3.09,1.55-4.67,2.25-2.22,1-4.47,1.88-6.71,2.83s-4.36,1.85-6.51,2.82a4.41,4.41,0,0,0-1.38,1q-4.6,5-9.15,10C54.79,178.26,50.9,182.65,47,187a16.47,16.47,0,0,1-3.16,3,3.16,3.16,0,0,1-3.73.06,69.67,69.67,0,0,1-8.25-6,3.6,3.6,0,0,1-.53-4.86c1.06-1.52,2.21-3,3.34-4.43a95.77,95.77,0,0,0,6.13-8.48,34,34,0,0,0,3.36-7.25c1.23-3.8,2.34-7.65,3.46-11.48a101.06,101.06,0,0,1,3.75-11A67.14,67.14,0,0,1,55,128.94a38.5,38.5,0,0,1,4.06-5.7,124.66,124.66,0,0,1,10.82-10.68,2.2,2.2,0,0,1,3.17-.06l.6.51c1.13-.57,2.28-1.11,3.4-1.71,2.63-1.39,5.25-2.79,7.86-4.22,3.54-1.95,7-3.94,10.57-5.9,4.11-2.29,8.21-4.6,12.34-6.84,3.07-1.66,6.2-3.21,9.28-4.84a5.62,5.62,0,0,1,3.37-.45,11,11,0,0,0,1.45.12A2,2,0,0,0,124,87.36c.23-2.72.42-5.45.62-8.17,0-.15,0-.3,0-.46A6.14,6.14,0,0,0,123,74.25c-2.55-2.93-5.06-5.9-7.56-8.87-2-2.35-4-4.68-5.83-7.11a15.65,15.65,0,0,1-3-7.8,37.13,37.13,0,0,1-.22-7.63,47.52,47.52,0,0,1,.76-4.94,3.84,3.84,0,0,1,2.37-2.61,30.8,30.8,0,0,1,4.11-1.71c3.29-1.06,6.62-2,9.92-3a45.77,45.77,0,0,0,8-2.94,39.16,39.16,0,0,0,3.63-2.26q4-2.73,8-5.53c3.68-2.58,7.34-5.18,11-7.78,2.8-2,5.57-4,8.41-5.93a4.18,4.18,0,0,1,6.32,1.84,6.11,6.11,0,0,1,.74,2.7,4.09,4.09,0,0,1-.27,1.41c-1.34,3.19-2.72,6.35-4.06,9.54-1.69,4-3.35,8.06-5,12.1a17.36,17.36,0,0,1-.75,1.76,2,2,0,0,0,.14,2.24c.68,1,1.45,1.94,2.22,2.87,1,1.19,2,2.33,3,3.52a4,4,0,0,1,.9,2.06c.46,3.64,1,7.27,1.42,10.91s.86,7.3,1.24,11c.31,2.93.54,5.86.81,8.8s.55,5.92.78,8.89c.16,2.09.31,4.18.36,6.27a7.84,7.84,0,0,1-1.81,5c-1,1.31-2.14,2.56-3.21,3.84-.51.6-1,1.21-1.5,1.83a7,7,0,0,0-1.47,3.57,3.26,3.26,0,0,0,.39,2,5.28,5.28,0,0,1-1.6,7.15c-5,3.77-10.14,7.43-15.36,10.92-4,2.65-7.88,5.36-11.9,7.92-2.94,1.87-6,3.6-9,5.24a22,22,0,0,1-4.2,1.46c-4.48,1.32-9,2.58-13.46,3.9a3.91,3.91,0,0,1-1.47-.06l0,0-.22-.58.59-.29c-.07-.12-.17-.36-.22-.35-.57.1-.56-.45-.82-.69.2,0,.56,0,.58-.08.17-.53.65-.48,1-.6.72-.23,1.46-.41,2.19-.61,4.52-1.29,9-2.64,13.57-3.85a32.52,32.52,0,0,0,9.08-3.9c3.28-2.08,6.55-4.18,9.76-6.36,4.72-3.21,9.4-6.47,14.07-9.75,1.79-1.25,3.53-2.58,5.26-3.92a3.54,3.54,0,0,0,.94-4.48,5.36,5.36,0,0,1-.68-3.77,7.87,7.87,0,0,1,1.28-3.19c.68-.93,1.4-1.83,2.14-2.72.95-1.15,2-2.25,2.88-3.41a6.78,6.78,0,0,0,1.65-4.71c-.14-2.58-.33-5.15-.55-7.72-.33-4-.7-8-1.06-12-.19-2.15-.38-4.3-.61-6.44q-.48-4.39-1-8.77c-.42-3.37-.86-6.74-1.33-10.1a3.27,3.27,0,0,0-.6-1.5c-.88-1.12-1.85-2.17-2.77-3.26s-1.67-1.93-2.4-3a4,4,0,0,1-.4-4.14c1.28-3,2.47-6,3.74-9q3-7,6-14A2.62,2.62,0,0,0,168,9.79a12,12,0,0,0-.49-1.27,2.66,2.66,0,0,0-3.34-1.43,4.66,4.66,0,0,0-1,.51q-3.91,2.75-7.81,5.52c-3.09,2.2-6.18,4.41-9.28,6.59s-6.4,4.4-9.58,6.64a29.43,29.43,0,0,1-8.36,4.36c-3.51,1.06-7,2.09-10.52,3.22-2.31.74-4.58,1.59-6.85,2.45a3.68,3.68,0,0,0-2.46,3.09,39.25,39.25,0,0,0-.17,10.71,15.73,15.73,0,0,0,3.28,8c1.2,1.57,2.49,3.06,3.77,4.56,3,3.56,6.09,7.09,9.11,10.66a6.16,6.16,0,0,1,1.65,3,14.13,14.13,0,0,1,.19,2.81c-.16,2.82-.39,5.63-.62,8.44a3,3,0,0,1-.34,1.11,3.68,3.68,0,0,1-3.69,2c-.58,0-1.15-.17-1.72-.16a4.2,4.2,0,0,0-1.68.23c-1.81.84-3.61,1.73-5.37,2.69-6.66,3.64-13.28,7.33-19.94,11-5.86,3.2-11.75,6.34-17.6,9.55-1.18.65-2.17.84-3.14-.32-.32-.38-.73-.43-1.18.06s-.75.71-1.13,1.06c-2.83,2.58-5.64,5.17-8.22,8a39.51,39.51,0,0,0-4.6,6,62,62,0,0,0-4.36,9A106.2,106.2,0,0,0,49.12,148c-1.13,3.84-2.23,7.68-3.46,11.49a35.76,35.76,0,0,1-5.13,10.11c-2.14,2.95-4.4,5.81-6.61,8.71-.44.58-.91,1.15-1.29,1.76a2.22,2.22,0,0,0,.44,3.06,77,77,0,0,0,7.53,5.42c1.24.77,1.51.78,2.7-.05a4.59,4.59,0,0,0,.68-.6c1.67-1.77,3.35-3.52,5-5.31,1.9-2.09,3.76-4.21,5.63-6.33,2.23-2.53,4.42-5.09,6.67-7.59,1.77-2,3.61-3.85,5.4-5.8a6.33,6.33,0,0,1,2.2-1.58c2.91-1.23,5.84-2.39,8.74-3.64,2.37-1,4.7-2.11,7-3.22,1.11-.53,1.29-1.08,1-2.31a9.26,9.26,0,0,1-.22-1.07c-.27-2,.38-3,2.28-3.54l.44-.12c1.55-.41,3.11-.81,4.66-1.24L103,143.27c.28-.08.55-.19.85-.29l-.23-.92.71-.2a1.66,1.66,0,0,0,0,.17c.07.22.1.48.46.4s.23-.29.21-.49a2.27,2.27,0,0,1,0-.26l.67-.12c0,.27.26.6-.17.67s-.26.47-.43.67l-.4.23a1.6,1.6,0,0,0-.25-.46.49.49,0,0,0-.4,0,.31.31,0,0,0-.12.28.47.47,0,0,0,.29.27,1.7,1.7,0,0,0,.52-.1c-.08.3-.13.62.32.6s.46.26.52.55c-.5,0-.64.29-.56.74l0,0-.51.32c0,.65.92.29.93.9Zm-1.09-1.44a4.68,4.68,0,0,0-1,.06c-3.07.84-6.13,1.71-9.2,2.55-2.07.57-4.15,1.1-6.23,1.67a1.36,1.36,0,0,0-1.13,1.83,7.57,7.57,0,0,0,.28,1.15,3.29,3.29,0,0,1-.07,2.05c-.05.18-.12.36-.23.68,2.29-1.05,4.39-2.12,6.45-3.29a2.55,2.55,0,0,0,1.6-2.49,1.25,1.25,0,0,1,1.12-1.32c1.42-.32,2.8-.77,4.2-1.17l4-1.13c.06-.28.1-.44.14-.62a1.6,1.6,0,0,0,.4-.32.52.52,0,0,0,0-.41.31.31,0,0,0-.29-.1.46.46,0,0,0-.23.31A2,2,0,0,0,104.44,144.73Zm2.12-.06.64-.15,14.94-4.31a14.14,14.14,0,0,0,4.29-1.95L106.32,144Z" fill="#fff" stroke="#fff" stroke-miterlimit="10"/></svg>