<svg id="Layer_1" data-name="Layer 1" xmlns="http://www.w3.org/2000/svg" viewBox="0 0 200 200"><title>Circuits</title><path d="M196.07,151.46c-6-12.18-13.73-23.31-21.34-34.51l-7.49-11.09c-5.91-8.91-12-17.72-17.87-26.63-1.86-2.8-4-5.62-5-8.76A41.25,41.25,0,0,1,143,59.36c-.24-8.81-5.89-14-14.1-12.56-7,1.26-12.26-.5-16.21-6.36a10.27,10.27,0,0,0-1.07-1.32c-2.86-3-5.5-6.59-10.36-5.89-5.33.77-10.09-.73-14.67-3.16A174.6,174.6,0,0,0,39.95,12.81c-5.52-1.14-12.58.63-14.78,4.85-2.53,4.84-4.38,10-6.49,15.09l-1.89,3.62c-2.71,6.24-5.39,12.5-8.11,18.73a14.94,14.94,0,0,1-1.42,3.27l-2.5,6.17,0-.09c-.23.54-.49,1.08-.74,1.61C1.4,71.4,1.79,76.84,3.07,82.43c1.17,5.16,4.2,9.26,7,13.47a97.52,97.52,0,0,0,8.45,11.35,7.22,7.22,0,0,0,11.37-.59A8,8,0,0,0,27.77,95c-2-1.28-4-2.58-6.08-3.66s-2.77-2.69-2-4.45c.6-1.33,2.15-2.93,3.47-3.11a107.57,107.57,0,0,1,13.37-.87,6.41,6.41,0,0,1,6.56,5.3A138.39,138.39,0,0,1,45,103.13c.4,5.93,2.71,10.31,8.3,12.81,6.47,2.9,12.89,5.91,19.28,9,3.42,1.63,6.37,2.72,10.26.18s5.53-1.43,7.37,2.75c3.95,9,8,18,11.94,26.91l4.52,9.45h0c2.48,5.29,5,10.55,7.38,15.89,3,6.87,7.93,11,15.67,11,6.27,0,14.86-4.46,11.06-12.68-.93-2,0-3.19,2.25-3.46a36,36,0,0,0,4.72-.93c5.5-1.43,11-3,16.48-4.38,6.88-1.76,13.84-1.69,20.92-1.34C194.64,168.76,199,157.27,196.07,151.46ZM40.94,15.89l-13.15,2A12.87,12.87,0,0,1,40.94,15.89ZM5.8,68.81c-1.39,6,1.08,11.47,2.49,17.06l.88,3.4C5.18,86,3,73.76,5.8,68.81Zm186.69,93.44c-2.89,4.25-7.37,3.95-11.81,3.69a30.65,30.65,0,0,0-7.6.1c-10.6,2.08-21.17,4.36-31.71,6.71a4,4,0,0,0-3.25,4.66,17,17,0,0,0,.78,3.28c.84,2.51.18,4.32-2.05,5.84-5.56,3.8-14.15,2.86-17.7-2.84s-6.23-12-9.21-18.13c-.22-.44-.41-.91-.61-1.36h0l0-.1-4.36-9.59c-3.94-8.67-8.06-17.18-11.71-25.89-3.33-7.92-6.09-8.59-12.64-5.24a6.74,6.74,0,0,1-5.07.16c-7-3-14-6.25-20.9-9.54-4.33-2.06-6.88-5.27-7-10.42a84.45,84.45,0,0,0-1.61-14.1c-1.12-5.53-4.15-9.26-10.81-9.05-3.68.12-7.35.62-11,.84-4.41.26-6.14,1.47-7.07,5.18-.72,2.87.65,5.12,4.19,7.24A43.5,43.5,0,0,1,27.51,98c2.31,2,2.25,5,.24,7.64a4.53,4.53,0,0,1-6.61.47,40.12,40.12,0,0,1-6.64-8.24,80.61,80.61,0,0,1-4.35-8.62h0l-1.3-4.92c-.74-3.62-1.74-7.2-2.22-10.85-.6-4.57,2-8.34,3.71-12.32C16.05,48,21.65,34.73,27.41,21.56c.55-1.26,1.89-3,3-3.07,5.81-.58,11.83-1.7,17.47-.79,12.24,2,23.46,7.33,34.45,12.94,6.23,3.17,12.45,5.86,19.72,4.94a5.47,5.47,0,0,1,3.9,1.3,69.71,69.71,0,0,1,7.31,7.81c2.79,3.53,6.11,5.58,10.7,5.12,1.61-.16,3.2-.47,4.81-.65,7.73-.87,12.07,2.66,11.55,10.42-.54,8,2.62,14.4,7,20.67,6.17,8.86,12,17.93,18.09,26.87l6.69,9.47c6.52,10.45,13,21,19.63,31.38C194.71,152.65,195.8,157.38,192.48,162.25Z" fill="#fff"/></svg>