<svg id="Layer_1" data-name="Layer 1" xmlns="http://www.w3.org/2000/svg" viewBox="0 0 200 200"><title>Circuits</title><path d="M185.77,144q-.22,5.72-.45,11.43a2.43,2.43,0,0,1-.14.78,12,12,0,0,1-4.48,5.82,9,9,0,0,1-8.78.75,9.51,9.51,0,0,1-3.65-2.67,5.74,5.74,0,0,1-1-6.54,17.62,17.62,0,0,1,1.71-3c1.46-2.07,3-4.1,4.51-6.11a44.69,44.69,0,0,0,3.67-5.28,5,5,0,0,0,.28-4.13,3.27,3.27,0,0,0-.58-1,1.64,1.64,0,0,0-1.59-.64,13.61,13.61,0,0,0-3.25,1,38.26,38.26,0,0,1-6,2c-6.78,1.48-12.94.27-18.3-4.31-1.28-1.1-2.48-2.29-3.75-3.41-.68-.61-1.39-1.2-2.13-1.74a4.09,4.09,0,0,0-5.21.13,4.83,4.83,0,0,0-1.95,3.34c-.12,1-.2,2-.31,3s-.17,1.73-.32,2.58a3.77,3.77,0,0,1-.48,1.2,1.71,1.71,0,0,1-1.51.84,3.13,3.13,0,0,1-1.86-.52,31.42,31.42,0,0,1-2.56-1.88q-8.35-6.89-16.66-13.82Q96.54,109.71,82,97.62c-3.9-3.24-7.82-6.44-11.74-9.67a2.1,2.1,0,0,1-.27-.23,4.15,4.15,0,0,0-3.9-1.21,2.55,2.55,0,0,0-1.4.71c-.67.59-1.35,1.17-2,1.77a5.22,5.22,0,0,1-4.45,1.22,11.25,11.25,0,0,1-3.8-1.54,33,33,0,0,1-6.5-4.93c-2.16-2-4.27-4-6.55-5.92a47.44,47.44,0,0,0-7.82-5.21c-3.49-1.86-7-3.66-10.39-5.74a37.85,37.85,0,0,1-4.68-3.4,2.05,2.05,0,0,1-.79-1.63c0-1.11,0-2.22.06-3.33,0-.75,0-1.49,0-2.24a1.16,1.16,0,0,0-.81-1.1,5.18,5.18,0,0,0-1.6-.39c-1.47,0-2.94.06-4.41.1a12.43,12.43,0,0,1-1.45,0,2.46,2.46,0,0,1-2.26-3,20.23,20.23,0,0,1,.61-2.15c.45-1.2,1-2.37,1.45-3.55A7.24,7.24,0,0,1,11,43.66a5,5,0,0,1,5.66-.81A13.1,13.1,0,0,1,22,47.11a27.33,27.33,0,0,1,3.7,6.61c.21.51.39,1,.56,1.57a5.12,5.12,0,0,0,3,3.16c2.19,1,4.37,1.93,6.57,2.86Q47.93,66.43,60,71.52c8.54,3.6,17.07,7.22,25.61,10.8,8.28,3.47,16.57,6.89,24.85,10.36a1.83,1.83,0,0,0,2-.25l2.21-1.75A5.68,5.68,0,0,1,117,89.49a2.55,2.55,0,0,1,2.51.51,20,20,0,0,1,1.79,1.88c.54.67,1,1.45,1.47,2.15a5.61,5.61,0,0,0,1,1.15c2.17,1.73,4.35,3.45,6.56,5.13a28.89,28.89,0,0,0,6.25,3.31c6.32,2.72,12.65,5.4,19,8.09,5.57,2.38,11.15,4.74,16.71,7.14,2.55,1.1,5,2.38,7.44,3.72a11.94,11.94,0,0,1,5.66,7,11.22,11.22,0,0,1,.61,3.63q0,5.43,0,10.86Zm-54.18-8.7c.06-.4.1-.64.12-.87.07-.79.09-1.59.19-2.38.15-1.12.31-2.25.57-3.35a5.7,5.7,0,0,1,2-3.1,8.75,8.75,0,0,1,3-1.68,6.32,6.32,0,0,1,6,.87c.61.47,1.24.92,1.82,1.43,1.3,1.15,2.57,2.34,3.85,3.52a18.16,18.16,0,0,0,4.74,3.15A17.24,17.24,0,0,0,165.09,134a35.65,35.65,0,0,0,5.81-2,15.74,15.74,0,0,1,4.37-1.22,3.45,3.45,0,0,1,2.76.82,6.47,6.47,0,0,1,1.19,1.34,8.18,8.18,0,0,1,1.11,5.07,5.44,5.44,0,0,1-.69,2.26,38,38,0,0,1-3.71,5.44,72.61,72.61,0,0,0-5.23,7.11,14.72,14.72,0,0,0-1.12,2.18,3.09,3.09,0,0,0,.42,3.09c2,2.81,4.84,3.36,8,2.48a6.91,6.91,0,0,0,3.88-3.41,5.24,5.24,0,0,0,.89-3.22,11.07,11.07,0,0,1,0-1.23c.18-5.38.39-10.76.53-16.14a31.16,31.16,0,0,0-.17-4.77,8.49,8.49,0,0,0-4.23-6.57c-1.25-.73-2.53-1.42-3.82-2.07-3.75-1.9-7.65-3.46-11.52-5.1q-6.4-2.7-12.78-5.45c-5.72-2.46-11.43-4.93-17.15-7.39a26.06,26.06,0,0,1-5.56-3.22q-3.14-2.39-6.19-4.89a9.75,9.75,0,0,1-1.49-1.66c-.51-.67-.95-1.4-1.43-2.09a7.58,7.58,0,0,0-.67-.85c-.48-.52-.65-.54-1.24-.17-.28.18-.55.4-.82.59-1,.72-2,1.49-3.1,2.13a3.75,3.75,0,0,1-3.49.14c-1.29-.54-2.59-1.05-3.88-1.59L73.25,80q-10.51-4.41-21-8.84-12-5.07-23.9-10.2a8.25,8.25,0,0,1-4.67-5.15,25,25,0,0,0-3.27-6.51,10.92,10.92,0,0,0-4.51-3.86,5.81,5.81,0,0,0-1.6-.4,2,2,0,0,0-2,1,8.16,8.16,0,0,0-.67,1.28c-.42,1-.82,2-1.22,3-.19.49-.37,1-.53,1.5a1.43,1.43,0,0,0,0,.44c1.63,0,3.19-.11,4.76-.11a7.37,7.37,0,0,1,3.44.72,3.68,3.68,0,0,1,2.19,2.79,15.74,15.74,0,0,1,.2,2.3c0,1-.09,2-.17,3A1.09,1.09,0,0,0,20.79,62c.56.38,1.06.83,1.62,1.22a76.49,76.49,0,0,0,9.49,5.55A58.31,58.31,0,0,1,44.63,77.1c2,1.8,4,3.65,6,5.48a26.15,26.15,0,0,0,5,3.71,26.72,26.72,0,0,0,2.59,1.27,2.38,2.38,0,0,0,2.68-.5c.46-.43.94-.83,1.38-1.28a6,6,0,0,1,4.72-2,7.23,7.23,0,0,1,4.41,1.59l5.41,4.48L109,116.62l19.43,16.14C129.42,133.59,130.44,134.39,131.59,135.32Z" fill="#fff"/></svg>