<svg id="Layer_1" data-name="Layer 1" xmlns="http://www.w3.org/2000/svg" viewBox="0 0 200 200"><title>Circuits</title><path d="M100.36,151.81c.22.27.36.37.38.49a3.64,3.64,0,0,1,0,.68,2.57,2.57,0,0,1-.57-.36,2.08,2.08,0,0,0-.77-.68v-1.29c-2.46-1-4.95-1.91-7.43-2.9L58.44,134.35c-1.77-.71-3.57-1.34-5.34-2a5.55,5.55,0,0,1-3.45-4.25,4.23,4.23,0,0,1,2.54-4.64C59.45,120,66.75,116.52,74,113a22.92,22.92,0,0,0,3.87-2.89c1.62-1.29,2.19-1.35,3.9-.25,2.73,1.75,3.21,1.6,4.06-1.45,2.72-9.76,5.4-19.53,8.13-29.28.7-2.5,1.51-5,2.27-7.44a4.37,4.37,0,0,0-.37-4.08c-1.18-1.64-2.37-1.92-4.48-1.44-8.57,2-17.14,3.94-25.74,5.77-3.63.77-7.19-.15-10.63-1.32a25.35,25.35,0,0,1-10.23-6.34q-15.16-15.58-30.5-31c-4.78-4.81-5-10.44-3.35-16.48a8.62,8.62,0,0,1,1.82-3c1.65-2,5.93-1.92,7.52.13,3.48,4.49,6.93,9,10.26,13.6a26.17,26.17,0,0,1,2.74,5.14,49.21,49.21,0,0,0,7.59,12.4A182,182,0,0,0,53.41,58.81a11.07,11.07,0,0,0,7.19,3.36c2.44.18,4.9.43,7.19-.6a19,19,0,0,0,3.88-2.42,20.1,20.1,0,0,0,2.4-2.58,13.49,13.49,0,0,1,14.42-4.31C98.79,55,109,58,119.29,60.86c4.62,1.29,7.34,7.16,5,11.45a148.1,148.1,0,0,1-8.61,13.11c-2.45,3.53-4.86,7.1-7.18,10.72-6.12,9.55-1.05,23.32,10.19,26.65,18.3,5.43,36.65,10.68,55,16,4.2,1.22,8.43,2.35,12.65,3.52a5.24,5.24,0,0,1,3.94,5.87,63.53,63.53,0,0,1-3.41,13.9,6.3,6.3,0,0,1-3.81,3.55c-3.59,1.6-7.16,3.27-10.85,4.61-6.77,2.47-13.58,4.89-20.46,7-6.39,2-11.92-.09-16.59-4.58a76.23,76.23,0,0,1-6-6.68A27.08,27.08,0,0,0,117,157.56c-4.92-1.77-9.73-3.84-14.6-5.72A6.67,6.67,0,0,0,100.36,151.81Zm2.52-3s0,.06.15.12c5.27,2.86,10.48,5.87,16.17,7.85a23.73,23.73,0,0,1,10.11,7.14c2.22,2.54,4.41,5.11,6.79,7.48,4.19,4.19,9.26,6.15,15.08,4.35,7.12-2.21,14.14-4.74,21.14-7.29,3.46-1.26,6.79-2.87,10.17-4.36a5.2,5.2,0,0,0,3.27-3.8c.2-.95.63-1.84.84-2.79.72-3.24,1.49-6.47,2-9.75a3.38,3.38,0,0,0-2.7-3.89c-5.46-1.53-10.94-3-16.39-4.58-17.2-5-34.43-9.9-51.58-15.07-6.74-2-11-6.89-12.91-13.61a18.29,18.29,0,0,1,2.32-15.74c2.79-4.14,5.64-8.23,8.4-12.39,2.4-3.61,4.72-7.27,7-10.94,2.2-3.48-.59-8.22-4-9.16-10.2-2.82-20.36-5.76-30.56-8.54a12,12,0,0,0-13,3.8l-1.78,2a12.56,12.56,0,0,1-7,4,22,22,0,0,1-6.9,0,11.35,11.35,0,0,1-6.87-3.28A166.18,166.18,0,0,1,39.6,46a52.73,52.73,0,0,1-7.65-12.36,41,41,0,0,0-4-7.05c-2.79-3.93-5.83-7.7-8.77-11.52a2.27,2.27,0,0,0-.82-.68Q14.94,12.89,13,16a7,7,0,0,0-.77,1.65,19.06,19.06,0,0,0-.49,7.84c.38,2.83,2,5,4,6.95,10,10.17,20.11,20.3,30.07,30.55a24,24,0,0,0,9.7,6c3.49,1.19,7.05,2,10.75,1.12q12.63-2.84,25.25-5.75a5,5,0,0,1,4.72,1.2c2,1.76,2.23,4,1.53,6.34-.84,2.88-1.81,5.72-2.62,8.61-2.74,9.75-5.5,19.5-8.09,29.29a3.27,3.27,0,0,1-5.22,1.92c-.64-.47-1.35-.85-2.07-1.29-.8.7-1.47,1.34-2.21,1.91a20.38,20.38,0,0,1-2.78,1.94c-3,1.61-6.23,3-9.18,4.74-3.82,2.28-7.47,4.85-11.2,7.3a1.48,1.48,0,0,0-.27.25,1.39,1.39,0,0,0,.32,2.42,13.61,13.61,0,0,0,2,.92l34.88,13.93c3.11,1.25,6.21,2.53,9.12,3.72l1.16-.69-.23-1.2c.52.24.78.33,1,.47s.6.42.89.63l-.77.42ZM60,121.94l-.13-.17c-2.47,1.1-5,2.17-7.4,3.32a2.53,2.53,0,0,0-1,1.15c-.8,1.62.36,3.92,2.32,4.67,2.35.89,4.72,1.72,7,2.65q17.38,6.93,34.75,13.89c1.49.6,3,1.15,4.58,1.75l.35-1.08c-1.22-.52-2.36-1-3.52-1.5L56.29,130.31A12.25,12.25,0,0,1,54,129.18a1.52,1.52,0,0,1-.44-2.32,4.13,4.13,0,0,1,1-1C56.39,124.52,58.21,123.23,60,121.94Zm41.37,27.78,6,2.3.11-.25c-1.16-.63-2.34-1.23-3.47-1.91A2.26,2.26,0,0,0,101.38,149.72Z" fill="#fff"/></svg>