<svg id="Layer_1" data-name="Layer 1" xmlns="http://www.w3.org/2000/svg" viewBox="0 0 200 200"><title>Circuits</title><path d="M185.93,77.13a7.75,7.75,0,0,0-1.31-4.18,12.11,12.11,0,0,0-4.93-4.32,56.48,56.48,0,0,0-10.54-3.56,79.22,79.22,0,0,1-11.51-3.53,19.45,19.45,0,0,1-10.09-8.94c-.94-1.82-1.9-3.62-2.79-5.46-1.81-3.75-3.52-7.54-5.38-11.26a24.74,24.74,0,0,0-4.9-6.78A9,9,0,0,0,126,26.67a18.35,18.35,0,0,0-5,2.17c-3.41,1.95-6.75,4-10.09,6.09a6.65,6.65,0,0,1-7.11-.14A139.68,139.68,0,0,1,83,20.2a3.85,3.85,0,0,1-1.4-3.35,12.14,12.14,0,0,1,.13-1.26,5.67,5.67,0,0,0-4.5-6.29c-5.8-1-11.61-1.91-17.43-2.69-4.48-.6-9-1-13.48-1.38a35.51,35.51,0,0,0-9-.07A21,21,0,0,0,28,8.57c-7.78,5.74-6.81,14.22-1.55,19.78a21.33,21.33,0,0,0,3.23,2.73c4.44,3.13,8.95,6.17,13.4,9.29,2.83,2,5.62,4,8.41,6.07a4.25,4.25,0,0,1,1.84,3.49c0,1.74.06,3.48,0,5.22a62,62,0,0,0-.06,6.49,84,84,0,0,0,1.42,8.62c.41,2,.83,4,1.24,6h0l.41,1.92q2.81,13.5,5.63,27c1.33,6.4,2.6,12.81,3.93,19.21.67,3.22,1.33,6.45,2.12,9.64a6.66,6.66,0,0,0,3,4.27,18.31,18.31,0,0,0,2.68,1.41c3.72,1.45,7.47,2.82,11.19,4.27a56.75,56.75,0,0,1,6.73,2.88c2.89,1.59,4.87,4,5,7.49.2,4.62-2.44,7.75-7,8.1-3.56.28-7.15.38-10.72.44-9,.14-18.08.19-27.12.32a61.17,61.17,0,0,0-7.11.43,34.53,34.53,0,0,0-11.61,3.32,69.24,69.24,0,0,0-13.61,8.92c-1.38,1.2-2.75,2.42-4,3.73a5.66,5.66,0,0,0-1.45,4.9,6.39,6.39,0,0,0,6.39,5.85c1,0,2,0,3,0,13.7,0,27.41,0,41.11,0q33.1-.08,66.19-.23h.16v-2.42H60.24c.82-.06,2.3-.19,3.77-.25,3.25-.13,6.49-.3,9.74-.31,16.22,0,32.45,0,48.67,0,2.81,0,5.63-.09,8.5-.16V185.7c-1.53.12-3,.28-4.47.28q-25,0-49.95-.08a191.26,191.26,0,0,0-21.09,1,250.49,250.49,0,0,1-30.75,1c-1.41,0-2.83-.06-4.24,0A3.52,3.52,0,0,1,17,185.59c-.64-1.45-.89-3,.37-4.29s2.87-2.7,4.36-4a65.14,65.14,0,0,1,12.4-8.06A29.07,29.07,0,0,1,45.79,166c5.68-.38,11.38-.37,17.08-.48,8.4-.16,16.81-.27,25.21-.45a24.48,24.48,0,0,0,3.91-.53c4.31-.8,7.12-5.21,7.28-9,.22-5.06-2.2-8.6-6.4-11-3.13-1.8-6.61-2.8-10-4-3-1.1-5.89-2.35-8.85-3.49-2.45-.94-3.54-2.85-4-5.29-.76-4-1.49-8-2.33-12-1.62-7.68-3.36-15.34-5-23-2.1-10.06-4-20.15-6.18-30.2a45,45,0,0,1-.61-12.08,44.67,44.67,0,0,0-.09-4.87,6.5,6.5,0,0,0-2.78-5.1c-3.5-2.54-7-5.08-10.59-7.52-4.3-2.93-8.68-5.73-12.72-9a13,13,0,0,1-4.33-6,9.08,9.08,0,0,1,2-9.43c2.2-2.55,5.15-3.69,8.31-4.47a26.21,26.21,0,0,1,8.78-.38c5.11.47,10.23.87,15.31,1.53,5.57.72,11.12,1.68,16.67,2.57a3.23,3.23,0,0,1,2.69,3.81,17.66,17.66,0,0,0,0,3.15,4.44,4.44,0,0,0,1.66,3A135.46,135.46,0,0,0,102.6,37c3,1.69,6.33,2.1,9.54.13,2.93-1.8,5.85-3.6,8.8-5.35a46.32,46.32,0,0,1,4.1-2.19,6.9,6.9,0,0,1,7.66,1.3,22.41,22.41,0,0,1,4.52,6.28c1.87,3.74,3.56,7.57,5.41,11.32,1.17,2.38,2.4,4.75,3.76,7,2.66,4.42,6.75,7.13,11.48,8.81,4,1.4,8,2.44,12.09,3.57a51.26,51.26,0,0,1,8.7,3.05A9.77,9.77,0,0,1,182,73.55a6.23,6.23,0,0,1,1.48,4c.16,11.94,0,23.88-.59,35.81-.43,8.56-1,17.11-1.54,25.66-.18,2.84-.44,5.68-.67,8.52a5,5,0,0,1-.19,1c-.4,1.41-.94,1.78-2.4,1.63-5.59-.59-11.18-1.22-16.78-1.8-5.41-.57-10.82-1.23-16.27-.88a48.28,48.28,0,0,0-5.46.64,7.7,7.7,0,0,0-5.95,7.25,9.73,9.73,0,0,0,9.7,10.32c3.44,0,6.88-.06,10.31,0,2.3.06,4.59.34,6.89.54a48.11,48.11,0,0,1,8.91,1.39A8.85,8.85,0,0,1,175,180a6.06,6.06,0,0,1-2.52,2.68,17.58,17.58,0,0,1-8.59,2.18c-8.69.12-17.37.21-26.06.31h-2.18v1.3l.34,0c2.92,0,5.84,0,8.76,0q10.2-.17,20.4-.41a17.91,17.91,0,0,0,7.19-1.85,8.06,8.06,0,0,0,4.62-6.41,10.06,10.06,0,0,0-7.39-11.36c-1.13-.3-2.28-.53-3.42-.8,2.74.22,5.48.42,7.58,2.55a13.29,13.29,0,0,1,3.81,5.84,8.79,8.79,0,0,1-.8,6.43c-1.58,3.09-3.74,5.64-7.3,6.47a21.27,21.27,0,0,1-4.61.52c-9.73.09-19.45.12-29.18.17v2.53q13.82-.07,27.64-.14c1.6,0,3.2-.14,4.79-.25,7-.49,12.13-7.63,12.23-13.16.1-5.36-2.81-9.11-7.07-11.85a13.58,13.58,0,0,0-7.56-1.71c-5.86,0-11.72.17-17.59.23a45.42,45.42,0,0,1-5.93-.18,7.21,7.21,0,0,1-6-8.29,5.05,5.05,0,0,1,4.42-4.3,64.15,64.15,0,0,1,7.81-.55c7,.07,13.93,1.14,20.88,1.84,3,.31,6.08.65,9.13,1a3.7,3.7,0,0,0,3.77-2,5.23,5.23,0,0,0,.69-1.68,36.42,36.42,0,0,0,.46-3.77c.47-6.48,1-13,1.35-19.44.37-6.32.66-12.65.92-19Q186.23,92,185.93,77.13Z" fill="#fff"/><rect x="134.29" y="193.42" width="1.57" height="1.57" transform="translate(276.33 383.96) rotate(178.15)" fill="#fff"/><rect x="132.67" y="191.9" width="1.57" height="1.57" transform="matrix(-1, 0.03, -0.03, -1, 273.04, 380.97)" fill="#fff"/><rect x="131.15" y="193.52" width="1.57" height="1.57" transform="translate(270.06 384.26) rotate(178.15)" fill="#fff"/><rect x="134.18" y="190.28" width="1.57" height="1.57" transform="translate(276.02 377.69) rotate(178.15)" fill="#fff"/><rect x="132.57" y="188.76" width="1.57" height="1.57" transform="translate(272.74 374.7) rotate(178.15)" fill="#fff"/><rect x="131.05" y="190.38" width="1.57" height="1.57" transform="translate(269.75 377.99) rotate(178.15)" fill="#fff"/><rect x="134.08" y="187.14" width="1.57" height="1.57" transform="translate(275.72 371.42) rotate(178.15)" fill="#fff"/><rect x="132.46" y="185.63" width="1.57" height="1.57" transform="translate(272.43 368.43) rotate(178.15)" fill="#fff"/><rect x="130.95" y="187.25" width="1.57" height="1.57" transform="matrix(-1, 0.03, -0.03, -1, 269.45, 371.72)" fill="#fff"/><rect x="133.98" y="184.01" width="1.57" height="1.57" transform="translate(275.42 365.15) rotate(178.15)" fill="#fff"/><rect x="132.36" y="182.49" width="1.57" height="1.57" transform="translate(272.13 362.16) rotate(178.15)" fill="#fff"/><rect x="130.85" y="184.11" width="1.57" height="1.57" transform="translate(269.15 365.45) rotate(178.15)" fill="#fff"/><rect x="133.88" y="180.87" width="1.57" height="1.57" transform="translate(275.11 358.88) rotate(178.15)" fill="#fff"/><rect x="130.74" y="180.97" width="1.57" height="1.57" transform="translate(268.84 359.18) rotate(178.15)" fill="#fff"/></svg>