<svg id="Layer_1" data-name="Layer 1" xmlns="http://www.w3.org/2000/svg" viewBox="0 0 200 200"><title>Circuits</title><path d="M97.72,152.52c-1.57-1.19-5.72-.32-6.94,1.73a3.12,3.12,0,0,1-1.24,1.15c-5.8,2.82-11.6,5.64-17.45,8.37a15.7,15.7,0,0,1-8.16,1.8,4.45,4.45,0,0,0-3.12,1.19c-5.68,5.64-11.19,11.46-16.87,17.1-2.92,2.9-5.59,6.12-9.62,7.73-4.72,1.89-9.08,1-12.47-2.88-.93-1.06-1.86-2.13-2.7-3.25q-3-4.06.71-7.49a94.28,94.28,0,0,1,7.3-6.54c5.19-3.86,7.24-9.48,9.52-15.16a240,240,0,0,1,10.77-24.11C51.87,123.91,59.25,118,66,111.74a3.92,3.92,0,0,1,4.46-1c2.37.94,4.12-.79,6-1.69,7.25-3.54,14.44-7.22,21.66-10.83a51,51,0,0,1,18.6-4.79,35.32,35.32,0,0,0,5.89-.93,3.71,3.71,0,0,0,2.82-3.6c.19-2.89.5-5.78-1.62-8.26a3,3,0,0,1-.64-2.28c.47-2.1-.7-3.24-2-4.56a131.53,131.53,0,0,1-9-9.8,18.56,18.56,0,0,1-3.92-11.15c-.12-4-.39-8-.24-11.94.18-4.76,2.14-6.88,6.81-8.07,5.95-1.51,12-2.81,17.82-4.59a34.85,34.85,0,0,0,8.13-4c8.38-5.23,16.62-10.66,25-15.94,3.47-2.2,6.15-2.15,8.36-.1s2.66,5.84,1,9.08A73.59,73.59,0,0,0,168.47,35c-1.1,4.87-.79,9.72-.13,14.6,1.76,13,3.64,26,5.11,39.06.89,7.92.13,15.8-3.64,23a35.83,35.83,0,0,1-11.42,12.87c-9.14,6.36-18.54,12.3-28.79,16.77-4.48,2-8.81,4.3-13.41,5.91-4,1.41-8.3,2.06-12.47,3a28.7,28.7,0,0,0-3.24.72A19.69,19.69,0,0,0,97.72,152.52Zm-2.06-9.66a3.17,3.17,0,0,1,.55.32.71.71,0,0,1,.23.38c.21,2.54,1.69,2.43,3.6,1.89s3.62-.72,5.44-1.06c9.41-1.8,18.87-3.69,27.37-8.22,8.06-4.29,15.8-9.25,23.47-14.22a30.59,30.59,0,0,0,12.15-15.71,34,34,0,0,0,1.71-15.55q-2.06-18.69-4.72-37.3c-1.16-8.09-1.78-16.08,1.12-23.91q2.58-7,5.63-13.78c.83-1.85,1-3.45-.38-4.92s-2.8-.66-4.17.22c-7.23,4.64-14.54,9.17-21.69,13.94-5.61,3.74-11.36,7-18.09,8.21-4.15.77-8.26,1.82-12.36,2.85-3.37.84-4.31,2.05-4.3,5.51,0,3.7,0,7.42.34,11.1.28,3.26.91,6.54,3.16,9.11,3.31,3.77,6.73,7.45,10.15,11.12,1.1,1.18,2,2.31,1.74,4.11a5.06,5.06,0,0,0,.71,3c2.37,3.87,2.14,11.14-.67,13.83-2.61,2.49-6,2.76-9.35,3-5.76.35-11.37,1.27-16.58,3.86-8.31,4.13-16.58,8.31-24.87,12.49-1.89,1-3.75,1.71-6,.94a2.56,2.56,0,0,0-2.16.54c-6.51,6.24-13.8,11.94-18,20.09a230.55,230.55,0,0,0-10.4,23.81C37.26,163.93,35,169,30.48,172.86c-2.64,2.29-5.14,4.73-7.79,7-1.47,1.27-2.1,2.47-.5,4.06a10.41,10.41,0,0,1,1.07,1.42c4.18,5.91,9.5,4.36,13.17,1.13,2.27-2,4.4-4.15,6.52-6.32q7.55-7.7,15-15.48a7.24,7.24,0,0,1,6.69-2.56,8.82,8.82,0,0,0,4.52-.77c4.68-2,9.29-4.26,13.87-6.52A2.22,2.22,0,0,0,84,153c-.28-2.75.17-3.69,2.8-4.44,2.42-.69,4.88-1.24,7.34-1.78,1.51-.33,2.25-1,1.71-2.64A9.35,9.35,0,0,1,95.66,142.86Zm20.81,3.64-.2-1-18,3.82.24,1.07C104.51,149.19,110.6,148.36,116.46,146.51Zm-19.55,4.17-.27-1.21c-2.91.77-5.84,1.5-8.71,2.4-.28.09-.3,1.31-.24,2,0,.32.64.9.77.85a6.93,6.93,0,0,0,1.5-1,9.67,9.67,0,0,1,2.19-1.76A41.69,41.69,0,0,1,96.91,150.68Z" fill="#fff"/></svg>