<svg id="Layer_1" data-name="Layer 1" xmlns="http://www.w3.org/2000/svg" viewBox="0 0 200 200"><title>Circuits</title><polygon points="102.15 154.93 105.22 161.38 108.98 165.2 108.82 163.76 103.35 152.07 102.15 152.51 102.15 154.93" fill="#fff"/><path d="M197.07,150.62c-1.58-2.45-3.21-4.87-4.83-7.29q-8.69-13-17.4-26l-.37-.55-7.18-10.64c-5.93-8.88-12-17.65-17.91-26.58A49.2,49.2,0,0,1,143.74,69c-1-3-.95-6.45-1-9.72-.22-8.6-5.81-14-14.18-12.41-7.55,1.48-12.65-1.27-16.76-7.1a6.84,6.84,0,0,0-.48-.71c-2.9-3.16-5.75-6.57-10.68-5.8a19.25,19.25,0,0,1-11-1.68c-9.15-4.06-18-8.81-27.43-12.19-9-3.25-18.54-5.23-27.89-7.56-3.15-.78-6.4,0-7.91,3.07-3,6-5.46,12.24-8.15,18.38l-1.66,3.43a4.34,4.34,0,0,0-.46.77l-.81,1.86-.39.8v.09c-2.1,4.82-4.18,9.64-6.33,14.43L4.95,63.27a13.54,13.54,0,0,1-1.12,2.67c-2.67,5.42-2.28,10.95-.94,16.63C4,87.32,6.64,91.18,9.37,95c2.95,4.16,5.85,8.36,9,12.41a5,5,0,0,0,6.46,1.43,64.66,64.66,0,0,0,8.88-5.63c3.23-2.4,3.28-5.51.56-8.53-1.46-1.62-2.81-3.35-4.21-5l.45-.71c3.17,0,6.34-.06,9.51,0,2.74.06,4.05,1.51,4.15,4.31.12,3.32.57,6.63.73,10,.28,5.8,2.66,10.13,8.14,12.59q9.83,4.42,19.55,9.1c3.4,1.64,6.64,2.87,10,0a5.34,5.34,0,0,1,1.87-.65c2-.63,3.6-.61,4.61,1.79,1.84,4.35,4,8.56,5.95,12.86,2.42,5.32,4.79,10.66,7.18,16l.91,0c.12-.95.59-2,.29-2.81-1.07-2.83-2.43-5.55-3.64-8.32-2.68-6.15-5.39-12.28-8-18.47-1-2.39-4.33-4.37-7-3.62-1.54.44-2.92,1.48-4.47,1.79s-3.67.71-5.11.1c-7-3-13.79-6.24-20.65-9.44-4.47-2.08-7.17-5.28-7.25-10.55a110.78,110.78,0,0,0-1.16-11.85c-.41-3.28-2.1-4.89-5.44-5.06s-6.45-.18-9.68-.07c-2.92.1-4.2,2.52-2.61,5a22.47,22.47,0,0,0,3.52,4c2.55,2.45,2.45,4.42-.52,6.37-2,1.31-4,2.58-6,3.87-2.54,1.64-4.93,1.23-6.64-1.21-2.32-3.31-4.63-6.63-6.87-10C10.11,92,9,89.28,10.81,86c1.23-2.2.25-4-1.69-5.64-1.46-1.26-3-3.18-3.2-5A14.51,14.51,0,0,1,7,68.18q9.87-23.4,20.18-46.61a7.12,7.12,0,0,1,4.38-3.29,81.07,81.07,0,0,1,11-1.55,12,12,0,0,1,3.92.24A147.35,147.35,0,0,1,82.35,30.77c6.08,3.23,12.32,5.67,19.49,4.82,1.42-.17,3.33.85,4.48,1.91,2.55,2.34,4.69,5.12,7.12,7.59,2.85,2.89,5.93,5.41,10.44,4.71,1.6-.25,3.2-.5,4.81-.67,7.67-.81,12,2.82,11.44,10.54s2.49,14.09,6.66,20.21C153,89,159.13,98.26,165.36,107.42l5.35,8.07q8.14,12,16.26,24c2.67,4,5.4,7.87,7.91,11.92,2.13,3.43,1,5.08-3,5.66a41.17,41.17,0,0,0-9.16,2.56c-5.54,2.19-10.78,5.25-16.45,7-8.16,2.46-16.63,3.9-24.88,6.1a6.18,6.18,0,0,0-3.48,3.61c-.45,1.3.37,3.1.8,4.63a4.47,4.47,0,0,1-1.83,5.43c-5.67,4.13-14.36,3.23-18.11-2.75-3.59-5.71-6.19-12-9.19-18.12-.89-1.81-1.33-4-4.39-4.07,1.32,3,2.46,5.69,3.69,8.33s2.65,5.23,3.78,7.92c2,4.8,4.45,9.21,9.29,11.74a16.1,16.1,0,0,0,16.65-1.32c2.77-2,2.93-5.11,2.21-8.28-.92-4-.7-4.45,3.17-5.39,4.6-1.12,9.27-2,13.86-3.17,5-1.31,10.16-2.48,14.94-4.44,6.95-2.85,13.29-7,21-8C198.4,158.28,199.62,154.58,197.07,150.62ZM7.92,80.8c2.53,1.64,2.77,3.52,1.52,6a16.39,16.39,0,0,0-.75,3A23.35,23.35,0,0,1,4.5,77.13C5.66,78.4,6.58,79.93,7.92,80.8ZM27.28,18.2c.83-4.66,6-5.91,13.55-2.44Z" fill="#fff"/></svg>