<svg id="Layer_1" data-name="Layer 1" xmlns="http://www.w3.org/2000/svg" viewBox="0 0 200 200"><title>Circuits</title><rect x="99.87" y="151.15" width="1.01" height="1.01" transform="matrix(0.84, 0.55, -0.55, 0.84, 99.9, -30.21)" fill="#fff"/><rect x="100.15" y="152.55" width="1.01" height="1.01" transform="translate(100.72 -30.13) rotate(33.35)" fill="#fff"/><rect x="101.56" y="152.26" width="1.01" height="1.01" transform="translate(100.79 -30.95) rotate(33.35)" fill="#fff"/><rect x="98.75" y="152.84" width="1.01" height="1.01" transform="translate(100.65 -29.32) rotate(33.35)" fill="#fff"/><rect x="99.04" y="154.24" width="1.01" height="1.01" transform="translate(101.47 -29.24) rotate(33.35)" fill="#fff"/><rect x="100.44" y="153.95" width="1.01" height="1.01" transform="translate(101.54 -30.06) rotate(33.35)" fill="#fff"/><rect x="97.64" y="154.53" width="1.01" height="1.01" transform="translate(101.4 -28.43) rotate(33.35)" fill="#fff"/><rect x="97.93" y="155.93" width="1.01" height="1.01" transform="translate(102.21 -28.35) rotate(33.35)" fill="#fff"/><rect x="99.33" y="155.64" width="1.01" height="1.01" transform="translate(102.29 -29.17) rotate(33.35)" fill="#fff"/><rect x="96.53" y="156.22" width="1.01" height="1.01" transform="translate(102.14 -27.54) rotate(33.35)" fill="#fff"/><rect x="96.82" y="157.62" width="1.01" height="1.01" transform="translate(102.96 -27.46) rotate(33.35)" fill="#fff"/><rect x="98.22" y="157.33" width="1.01" height="1.01" transform="translate(103.03 -28.28) rotate(33.35)" fill="#fff"/><rect x="95.42" y="157.91" width="1.01" height="1.01" transform="translate(102.89 -26.65) rotate(33.35)" fill="#fff"/><rect x="95.71" y="159.31" width="1.01" height="1.01" transform="translate(103.71 -26.58) rotate(33.35)" fill="#fff"/><rect x="97.11" y="159.02" width="1.01" height="1.01" transform="translate(103.78 -27.39) rotate(33.35)" fill="#fff"/><rect x="94.3" y="159.6" width="1.01" height="1.01" transform="translate(103.63 -25.76) rotate(33.35)" fill="#fff"/><rect x="94.59" y="161" width="1.01" height="1.01" transform="translate(104.45 -25.69) rotate(33.35)" fill="#fff"/><rect x="95.99" y="160.71" width="1.01" height="1.01" transform="translate(104.52 -26.5) rotate(33.35)" fill="#fff"/><path d="M98,154.33a18.44,18.44,0,0,0-2.19-1.46c-3.12-1.86-6.23-3.72-9.36-5.56-2.38-1.4-4.78-2.76-7.17-4.14-2.59-1.5-5.2-3-7.74-4.54-4.4-2.71-8.77-5.49-13.15-8.24a1.63,1.63,0,0,1-.83-2.14c.18-.59.48-1.15.68-1.73a16.17,16.17,0,0,0,.86-2.81,9.21,9.21,0,0,0-.8-4.63,14,14,0,0,0-5.16-6.83A43.17,43.17,0,0,0,48,109.15,74.76,74.76,0,0,1,39.24,104c-3.2-2.16-6.39-4.34-9.59-6.51a46.47,46.47,0,0,1-6.21-5c-1.83-1.76-3.77-3.42-5.63-5.16-1.62-1.52-3.23-3.06-4.8-4.63-1.4-1.41-2.74-2.86-4.08-4.32s-2.5-2.75-3.68-4.19a1.86,1.86,0,0,1,.31-2.85,28.91,28.91,0,0,1,2.51-1.57,32,32,0,0,0,3.59-2.25,15.84,15.84,0,0,0,4-5.44c.88-1.78,1.6-3.7,1.17-5.67-1-4.48-2.13-8.93-3.35-13.35-.54-2-.83-3.82.55-5.57,1.71-2.18,3.33-4.43,5.12-6.54a40.83,40.83,0,0,1,6.43-6.66c1.33-1,2.65-2,4.05-2.88,1.74-1.09,3.58-2,5.35-3.09,3.34-2,6-4.77,8.7-7.52,1.33-1.36,2.77-2.62,4.18-3.91a.58.58,0,0,1,.56,0,15.89,15.89,0,0,0,6.32,3.34,21.72,21.72,0,0,0,9.71.25,14.15,14.15,0,0,1,6.17-.17c1.89.49,3.79,1,5.62,1.67a19,19,0,0,1,7.33,4.87A29,29,0,0,1,88,23.75c1.38,2.65,2.57,5.41,3.78,8.15.87,2,1.68,4,2.5,6l1.83,4v0c.82,1.84,1.69,3.65,2.52,5.48.56,1.23.5,1.71-.4,2.24-.51.3-1.1.46-1.63.71s-.82.41-1.23.62h0a3.46,3.46,0,0,0-1,.53h0c-1,.71-2.43,2.31-2.82,5.79h0a8,8,0,0,0-.13,1c-.06.93-.1,1.88-.14,2.83h0l.1,3.58a4.59,4.59,0,0,1,0,.86,11.59,11.59,0,0,0,.09,1.48c.16,2.29.27,4.58.49,6.86.28,2.86.67,5.7,1,8.55A27.93,27.93,0,0,0,95,90.37c1.14,2.68,2.63,5.22,4,7.78a14.35,14.35,0,0,0,1.78,2.46c1.19,1.38,2.43,2.72,3.71,4a38.85,38.85,0,0,0,3.57,3.33,44.11,44.11,0,0,0,4.51,3.08c2.54,1.53,5.09,3.07,7.73,4.43,3.4,1.75,6.9,3.31,10.34,5a4,4,0,0,0,4.21-.22,4.47,4.47,0,0,1,.78-.43l7-2.67h0l0,0,.77-.3a6.41,6.41,0,0,1,4.22.56c1.55.85,3.09,1.73,4.66,2.55,3.22,1.67,6.51,3.22,9.69,5,3.45,1.9,6.86,3.89,10.2,6a18.14,18.14,0,0,1,5,4.81c1,1.43,2,2.89,2.95,4.38,1.1,1.74,2.17,3.5,3.21,5.27,1.19,2,2.34,4.07,3.51,6.1.79,1.38,1.58,2.75,2.36,4.14,1.19,2.12,2.4,4.23,3.54,6.37s2.19,4.27,3.3,6.4c.29.56.3,1-.33,1.35s-1.08.78-1.63,1.17l-4.52,3.16c-1.82,1.27-3.63,2.54-5.46,3.8-2,1.38-4,2.77-6,4.1a20.66,20.66,0,0,1-4,2.32,5.7,5.7,0,0,1-6.24-1.27c-2.67-2.65-5.19-5.46-7.75-8.23-2.2-2.39-4.35-4.82-6.56-7.2a6.4,6.4,0,0,0-1.71-1.39,3.35,3.35,0,0,0-4.23,1.74c-1.2,2.22-2.44,4.42-3.76,6.56-.64,1-1.14,2.24-2.31,2.91a4.66,4.66,0,0,1-4.15.68,35.31,35.31,0,0,1-6.17-3.47c-2.86-1.8-5.71-3.62-8.61-5.36-3.35-2-6.77-3.88-10.11-5.9-3.83-2.31-7.6-4.72-11.4-7.07-.13-.08-.59-.19-.65-.27l-1.67,2.53.39.1a1.55,1.55,0,0,1,.81.33c1.49,1,3,2,4.55,2.93q6.82,4.29,13.65,8.57c5.28,3.3,10.47,6.76,16,9.59,1.51.77,3,1.54,4.83,1,1-.33,2-.68,3-1a3.55,3.55,0,0,0,2.2-1.53q1.82-3.05,3.51-6.18c.67-1.24,1.21-2.56,1.87-3.81a1,1,0,0,1,1.65-.26c1.54,1.57,3.07,3.15,4.57,4.76s2.86,3.22,4.32,4.81c1.69,1.84,3.4,3.67,5.15,5.45a11.71,11.71,0,0,0,2.63,2.26c3.68,2,7,1.09,10-1,1.47-1.06,3-2.08,4.46-3.11l5.89-4.06,4.15-2.9c1.7-1.2,3.43-2.36,5.08-3.64a2.3,2.3,0,0,0,.74-1.53,3.79,3.79,0,0,0-.49-1.77q-1.38-2.8-2.87-5.54c-1.15-2.13-2.36-4.24-3.54-6.35-.75-1.34-1.51-2.67-2.27-4-1.15-2-2.29-4.05-3.45-6.07-.81-1.41-1.63-2.83-2.48-4.22-1-1.69-2.07-3.37-3.15-5a23.41,23.41,0,0,0-5.8-6.28c-2.15-1.55-4.42-3-6.71-4.31s-4.89-2.69-7.35-4c-1.66-.88-3.36-1.68-5-2.53-1.92-1-3.82-2-5.75-2.92a18.18,18.18,0,0,0-3.51-1.51c-1.76-.43-3.39.45-5,1-.68.22-1.34.54-2,.82-1.75.74-3.49,1.51-5.26,2.2a2.48,2.48,0,0,1-1.53.15,25.51,25.51,0,0,1-2.84-1.26c-2.32-1.09-4.69-2.11-7-3.31-2.73-1.43-5.41-3-8-4.56a44.11,44.11,0,0,1-5.32-3.64,54.53,54.53,0,0,1-4.49-4.45,22.09,22.09,0,0,1-4.23-5.4C99.16,94.1,97.9,92,96.91,89.81a29.36,29.36,0,0,1-2.31-9.26c-.41-4.09-.75-8.19-1.09-12.29h0l-.37-4.15a7.75,7.75,0,0,1-.07-.82v-.07h0c0-1,.08-1.94.13-2.92a28.73,28.73,0,0,1,.36-3c.15-.84.83-3.82,3-4.85h0a25.2,25.2,0,0,0,3.07-1.48A2.5,2.5,0,0,0,100.79,48c-.59-1.38-1.2-2.75-1.81-4.12l-.12-.28h0l-.3-.69-.07-.16-.39-.86h0l-.67-1.51v0c-.19-.47-.4-.93-.62-1.39s-.54-1.15-.78-1.74c-1.22-2.95-2.36-5.93-3.64-8.86-.94-2.15-2-4.26-3.09-6.34-.72-1.38-1.61-2.68-2.38-4a17,17,0,0,0-5.1-5.29,22.87,22.87,0,0,0-7.18-3.41c-1.49-.43-3-.81-4.52-1.09-2.38-.44-4.71.12-7,.47A17.3,17.3,0,0,1,50.75,6.29a4.09,4.09,0,0,0-4.89,0A48.09,48.09,0,0,0,41.73,10a50.32,50.32,0,0,1-4.22,4.09c-2.28,1.7-4.78,3.09-7.16,4.67a70.57,70.57,0,0,0-6.82,4.74,49.7,49.7,0,0,0-5.59,5.85c-2,2.3-3.77,4.72-5.54,7.17A5.88,5.88,0,0,0,11,41.28c.24,1.12.55,2.22.85,3.32.84,3.12,1.74,6.22,2.5,9.35a14.8,14.8,0,0,1,.47,3.9,10.7,10.7,0,0,1-2.18,5.46,11.74,11.74,0,0,1-3.81,3.8c-1.51.9-3.08,1.73-4.49,2.76-2,1.47-1.93,3.3-.69,5.24a47.07,47.07,0,0,0,3.61,4.4,88,88,0,0,0,8.36,8.54c1.31,1.2,2.6,2.44,3.93,3.62,2.2,2,4.31,4,6.68,5.77,4.11,3,8.44,5.72,12.6,8.66,3.6,2.55,7.57,4.4,11.38,6.55a12.09,12.09,0,0,1,4.15,3.55,23.69,23.69,0,0,1,2.17,4,6,6,0,0,1,.32,4.37c-.33,1-.81,1.92-1.09,2.92-.6,2.2,0,3.42,1.54,4.45,2.18,1.46,4.43,2.82,6.66,4.22L77,144.38l9.27,5.83q4.47,2.82,8.93,5.66c.34.22.87.47.92.77,0,.11.23.15.27.23Zm-7.81-4.1,7.17,4.46-.11.16-7.13-4.51Zm46.12,28.54c-2.89-1.54-5.77-3.1-8.58-4.77-3.26-1.93-6.46-4-9.67-6s-6.24-4-9.38-6c-2.68-1.7-5.38-3.35-8.07-5a.89.89,0,0,1-.17-.21l.08-.11c.54.32,1.09.63,1.62,1,3.08,1.92,6.12,3.88,9.23,5.76s6.43,3.77,9.64,5.65c2.4,1.4,4.82,2.76,7.19,4.21,2,1.22,3.87,2.61,5.88,3.79,1.38.82,2.88,1.42,4.32,2.23A8.45,8.45,0,0,1,136.32,178.77Z" fill="#fff"/></svg>