<svg id="Layer_1" data-name="Layer 1" xmlns="http://www.w3.org/2000/svg" viewBox="0 0 200 200"><title>Circuits</title><rect x="170.41" y="46.57" width="1.27" height="1.27" transform="translate(339.12 -9.66) rotate(145.88)" fill="#fff"/><rect x="168.65" y="46.23" width="1.27" height="1.27" transform="translate(335.72 -9.3) rotate(145.88)" fill="#fff"/><rect x="168.31" y="47.99" width="1.27" height="1.27" transform="translate(336.09 -5.89) rotate(145.88)" fill="#fff"/><rect x="168.99" y="44.47" width="1.27" height="1.27" transform="translate(335.35 -12.7) rotate(145.88)" fill="#fff"/><rect x="167.23" y="44.13" width="1.27" height="1.27" transform="translate(331.95 -12.33) rotate(145.88)" fill="#fff"/><rect x="166.89" y="45.89" width="1.27" height="1.27" transform="translate(332.32 -8.93) rotate(145.88)" fill="#fff"/><rect x="167.57" y="42.37" width="1.27" height="1.27" transform="translate(331.58 -15.74) rotate(145.88)" fill="#fff"/><rect x="165.81" y="42.03" width="1.27" height="1.27" transform="translate(328.17 -15.37) rotate(145.88)" fill="#fff"/><rect x="165.47" y="43.79" width="1.27" height="1.27" transform="translate(328.54 -11.96) rotate(145.88)" fill="#fff"/><rect x="166.15" y="40.28" width="1.27" height="1.27" transform="translate(327.81 -18.77) rotate(145.88)" fill="#fff"/><rect x="164.39" y="39.94" width="1.27" height="1.27" transform="translate(324.4 -18.4) rotate(145.88)" fill="#fff"/><rect x="164.05" y="41.7" width="1.27" height="1.27" transform="translate(324.77 -15) rotate(145.88)" fill="#fff"/><rect x="164.73" y="38.18" width="1.27" height="1.27" transform="translate(324.03 -21.81) rotate(145.88)" fill="#fff"/><rect x="162.63" y="39.6" width="1.27" height="1.27" transform="translate(321 -18.03) rotate(145.88)" fill="#fff"/><path d="M194.28,22.3c-.61-2.92-1-3.68-2.59-5.41-1.18-1.4-3.41-1.67-4.54-1.72-6.31-.06-12.63.26-18.94.22a7.52,7.52,0,0,0-7.33,4.43c-1.24,2.62-3.17,3.28-5.67,3.37l-8.8.3c-3.41.12-6.81.28-10.22.38l-.44,0-10,.38h0c-7.28.26-14.47.55-21.64.71a25.43,25.43,0,0,0-16.37,6.23C82,36,76.11,40.69,70.31,45.42c-4.92,4-9.88,8-14.74,12-4.58,3.85-4.54,9.91,0,13.77,1.3,1.1,2.71,2.07,4.08,3.08,2.91,2.12,5.88,4.16,8.72,6.36S71.46,84.55,70,87.6c-.41.85-.89,1.67-1.36,2.49-6.71,11.55-13.25,23.2-20.22,34.59-3.67,6-5.43,12.15-4.66,19.16A10.33,10.33,0,0,1,40,152.95a32.63,32.63,0,0,1-3.62,2.74q-2.54,1.67-5.14,3.26c-2.29,1.28-9.39,5.9-12.35,7.84l-.24.14c-3.37,2.28-6.86,4.4-10.2,6.71a6,6,0,0,0-2.32,7.26,6,6,0,0,0,6,3.93,6.29,6.29,0,0,0,4.37-2.37c2-2.14,4-4.33,6-6.43a80.43,80.43,0,0,1,38-22.27c3.57-.94,7.12-2,10.65-3.06a6.07,6.07,0,0,0,2.3-10.58c-.42-.38-.9-.69-1.35-1-2.24-1.75-4.51-3.46-6.69-5.28a7.75,7.75,0,0,1-2.53-8.93,12.74,12.74,0,0,1,1-2.34C70.53,110.86,77.17,99.16,84,87.58l.24.16c.28-.42,6.93-10.32,4.73-16a5.89,5.89,0,0,0-4.43-3.61,4.22,4.22,0,0,1-2.86-1.71,2.3,2.3,0,0,1,0-1.88,3.8,3.8,0,0,1,2.47-2.2,46.62,46.62,0,0,1,11.46-2.14c7.4-.35,10.7.51,11,2.89a7.11,7.11,0,0,1-1.25,5l-2.82,3.19a21.09,21.09,0,0,0-4.7,9.09l-.5,2.14a2,2,0,0,0,.68,2,2,2,0,0,0,2,.28l15-6.12a38.71,38.71,0,0,0,6.06-3.5l6.79-4.78,0,0q17.8-11.63,35.62-23.23h0l1.1-.72c.44-.3.87-.72,1.34-1l-1.81-2.68c-2.07,1.34-4,2.42-4.21,2.57-4.17,2.69-8.34,5.38-12.47,8.11-10.1,6.68-20.54,12.86-30,20.44-1.74,1.39-3.55,2.68-5.38,4l-12.7,5.21.5-2.14a19.08,19.08,0,0,1,4.25-8.23l2.84-3.22a9,9,0,0,0,1.71-6.57c-.63-4.57-6.67-4.92-13.1-4.61a48.69,48.69,0,0,0-12,2.23,5.79,5.79,0,0,0-3.74,3.39,4.25,4.25,0,0,0,.11,3.52C80.6,68.61,82,69.52,84.07,70a4,4,0,0,1,3,2.38c1.52,3.94-2.75,11.59-4.52,14.2l0,0,0,0c-4,7-8,14-12,20.94-.45.78-.89,1.56-1.33,2.34h0l0,.08c-.27.48-.55.95-.83,1.42L63,120.67a31.57,31.57,0,0,0-1.38,2.91c-1.92,4.8-.86,8.62,3.17,11.86q3.43,2.77,7,5.39a4.83,4.83,0,0,1,2.12,4.93c-.32,2-1.77,3-3.66,3.49-3.47.94-6.94,1.9-10.38,3s-6.87,2.15-10.21,3.46c-13,5.1-23.56,13.54-32.74,23.88a23.72,23.72,0,0,1-2.54,2.67,4.19,4.19,0,0,1-6.68-2c-.82-2.41-.18-4.13,2.3-5.76,3.87-2.55,7.79-5,11.68-7.57l.22-.14h0l6.23-4v0c1.3-.85,2.61-1.68,3.91-2.51l.6-.38h0c2.51-1.6,5-3.2,7.37-4.93a12.77,12.77,0,0,0,5.39-11c0-1.42,0-2.84-.13-4.26a18,18,0,0,1,2.51-10.61c2.5-4.25,5-8.53,7.44-12.79h0l.26-.44,1.16-2,0-.06,5.42-9.23q4.16-7.21,8.31-14.41c3.32-5.77,2.82-8.09-2.49-11.94C64.15,75.56,60.3,72.95,56.7,70c-4-3.24-3.93-8.2,0-11.45Q73.55,44.79,90.46,31.14a20.66,20.66,0,0,1,12.36-4.44c7.28-.35,14.57-.57,21.85-.79l.7,0,13.42-.49c5.92-.2,11.85-.39,17.77-.67a5.76,5.76,0,0,0,5.34-3.57,6.57,6.57,0,0,1,6.82-4.1c5.95.36,11.91.53,17.86.9,2.65.17,4,1.39,4.58,3.53.51,1.94-.18,3.46-2.4,5-2.91,2-5.84,3.88-8.81,5.73a3,3,0,0,1-2.07.45,2.9,2.9,0,0,0-3,1c-1.7,1.65-3.43,3.27-5.25,4.78a13.08,13.08,0,0,1-2.36,2.11l1.94,2.86,1.73-1.13c.38-.26.77-.51,1.16-.76l.1-.06,1.89-1.24h0c3-2,6-3.89,8.92-5.88,1.87-1.25,3.72-2.53,5.57-3.8C194.13,26.67,194.42,23.51,194.28,22.3Zm-24.57,18-.24-.25c2.06-1.93,4.13-3.86,6.18-5.81.79-.76,1.54-1.12,2.51.17Z" fill="#fff"/></svg>