<svg id="Layer_1" data-name="Layer 1" xmlns="http://www.w3.org/2000/svg" viewBox="0 0 200 200"><title>Circuits</title><path d="M133.07,86.83Z" fill="#fff"/><path d="M197.16,63.65c-.2-8.17-4.87-14.13-10.59-19.19-12.21-10.8-24.77-21.19-36.95-32a18.27,18.27,0,0,0-13.11-4.77q-29,.34-58,.6c-11.6.1-23.2.11-34.8.15-7.63,0-15.26,0-22.89.08C9,8.66,3.14,15,3.82,26.71a41.17,41.17,0,0,0,1,7.11c2,8.34,4.14,16.63,6.07,25h0l3.32,13a8.42,8.42,0,0,1,.73,2.6c0,.27.09.54.14.81l1,4a370.27,370.27,0,0,1,13.4,73.37,202.34,202.34,0,0,0,3.24,22.56c1.85,9.35,10.79,17.2,19.12,17.13a12.06,12.06,0,0,0,2.29-.27,16.57,16.57,0,0,0,8.6-5.46H62.7A37.11,37.11,0,0,0,71.49,165c.35-4.89.29-9.81.31-14.72,0-9,.11-18,0-27,0-2.31-.85-4.6-1.31-6.9h0c-1.39-3-2.43-6.21-4.25-8.92C56.54,93,46.57,78.71,36.92,64.18a16.74,16.74,0,0,1-2.72-8.07c-.2-4.3,2.32-7.5,6.29-9.26,3.74-1.66,6.85-.29,9.71,2.28Q76.41,72.7,102.68,96.22c3.5,3.14,4.38,6.81,2.59,11.67-6.76,18.41-13.51,36.82-20.39,55.19-3.71,9.9-1.88,14.46,7.79,18.39.28.11.53.31,1.72,1a55.55,55.55,0,0,0,13.79,2.57l.68,0h0l.23,0,.86-.06h0l2.6-.23,0,.09c9.2-3.69,11.2-9.59,11.45-10.46,4.19-29.21,6.25-58.26,9.05-87.49a10.15,10.15,0,0,0-.81-2.54h.05l-.17-.25a8.88,8.88,0,0,0-1.54-2.22h0a54.24,54.24,0,0,0-4.6-6.18c-9.41-10.35-19-20.52-28.5-30.8-3.87-4.2-4.08-7.6-.94-11.39s8.39-5,12.61-2.14C128.05,44,146.83,56.86,165.69,69.59c4,2.7,5.55,6.81,7,11.06h0a31.81,31.81,0,0,1-3.83,15.29c-8.28,16.4-16.34,32.91-24.68,49.27-5.15,10.11-4.49,15,4.22,23a22,22,0,0,0,11.63.67l.57-.19a17.08,17.08,0,0,0,5-2.5c8-6.32,16.05-12.69,23.91-19.24,1.68-1.4,2.67-3.62,4-5.46l0,.06c.47-1.12,1.28-2.22,1.36-3.37.65-9,1.32-18.1,1.67-27.16.39-9.91.48-19.84.65-29.76C197.15,75.35,197.3,69.5,197.16,63.65Zm-4.55,7.6c-.85,10.81-.49,21.71-.79,32.57-.27,9.91-.69,19.82-1.11,29.73a13.19,13.19,0,0,1-5,10.36c-7.61,6-15.1,12.22-22.79,18.15a13.38,13.38,0,0,1-6,2.44,9.55,9.55,0,0,1-9.63-4c-2.41-3.35-2-6.9-.29-10.37,4.5-9,9.12-17.84,13.6-26.81,4.57-9.15,9-18.36,13.53-27.54A26.93,26.93,0,0,0,177,79.73a19.9,19.9,0,0,0-8.78-14.22Q139.9,46.36,111.63,27.18a13.18,13.18,0,0,0-10.77-1.86c-8.42,1.92-16.07,13.3-7,22.71,9.69,10.1,19.16,20.41,28.58,30.77A48.52,48.52,0,0,1,127,85.24h0a6.24,6.24,0,0,1,1,2.51c0,.5-.07,1-.1,1.5v0h0c-.58,8.65-1,17.3-1.89,25.93-1.68,17.13-3.6,34.24-5.49,51.35a22.29,22.29,0,0,1-1.32,5.77c-2.35,5.88-6.85,9.4-14.14,7.7a124,124,0,0,1-12.28-3.65c-4.56-1.57-5.91-4.82-4.2-9.43q10.35-28,20.7-56c3.17-8.58,1.7-13.69-5.1-19.74Q79,68.79,54,46.19c-6.31-5.69-12.7-6.46-18.58-1.94C29.21,49,27.21,57.32,31.26,64.1S39.81,77.21,44.2,83.69c5.74,8.47,11.65,16.83,17.32,25.34,1.95,2.92,3.42,6.14,5.11,9.23h0c.14,14.2.43,28.4.35,42.59,0,9-2.44,17.33-9.28,23.84-3.65,3.47-6.58,4-11,1.5-6.58-3.74-9.23-9.7-10.08-17-2.17-18.66-4.18-37.36-7.18-55.89C27.63,102.1,24,91.21,21.3,80.17Q15,54.66,8.82,29.11a19.66,19.66,0,0,1-.31-5.91c.41-5.69,3.59-9.21,9.3-9.51,8.75-.46,17.53-.53,26.3-.59,17.56-.13,35.11-.1,52.67-.22q19.59-.13,39.17-.46a14.81,14.81,0,0,1,10.8,3.87c10.78,9.58,21.84,18.83,32.79,28.21.87.75,1.71,1.54,2.59,2.28C189.76,53.16,193.41,61,192.6,71.25Z" fill="#fff"/><rect x="3.74" y="65.66" width="1.5" height="1.5" transform="translate(-58.4 88.2) rotate(-105.24)" fill="#fff"/><rect x="4.79" y="63.82" width="1.5" height="1.5" transform="translate(-55.3 86.89) rotate(-105.24)" fill="#fff"/><rect x="6.24" y="63.43" width="1.5" height="1.5" transform="matrix(-0.26, -0.96, 0.96, -0.26, -53.1, 87.79)" fill="#fff"/><rect x="9.13" y="62.64" width="1.5" height="1.5" transform="translate(-48.69 89.58) rotate(-105.24)" fill="#fff"/><rect x="7.29" y="61.59" width="1.5" height="1.5" transform="translate(-16.11 4.31) rotate(-15.24)" fill="#fff"/><rect x="8.08" y="64.48" width="1.5" height="1.5" transform="translate(-16.84 4.61) rotate(-15.24)" fill="#fff"/><rect x="12.01" y="61.85" width="1.5" height="1.5" transform="translate(-44.28 91.38) rotate(-105.24)" fill="#fff"/><rect x="14.9" y="61.07" width="1.5" height="1.5" transform="translate(-39.87 93.17) rotate(-105.24)" fill="#fff"/><rect x="13.07" y="60.02" width="1.5" height="1.5" transform="translate(-15.49 5.77) rotate(-15.24)" fill="#fff"/><rect x="13.85" y="62.9" width="1.5" height="1.5" transform="translate(-16.22 6.08) rotate(-15.24)" fill="#fff"/><rect x="2.96" y="62.77" width="1.5" height="1.5" transform="translate(-56.61 83.79) rotate(-105.24)" fill="#fff"/><rect x="6.63" y="64.87" width="1.5" height="1.5" transform="translate(-53.99 89.99) rotate(-105.24)" fill="#fff"/><rect x="7.68" y="63.03" width="1.5" height="1.5" transform="translate(-50.89 88.69) rotate(-105.24)" fill="#fff"/><rect x="5.84" y="61.98" width="1.5" height="1.5" transform="translate(-52.2 85.59) rotate(-105.24)" fill="#fff"/><rect x="9.52" y="64.08" width="1.5" height="1.5" transform="matrix(-0.26, -0.96, 0.96, -0.26, -49.58, 91.79)" fill="#fff"/><rect x="10.57" y="62.25" width="1.5" height="1.5" transform="matrix(-0.26, -0.96, 0.96, -0.26, -46.48, 90.48)" fill="#fff"/><rect x="8.73" y="61.2" width="1.5" height="1.5" transform="translate(-47.79 87.38) rotate(-105.24)" fill="#fff"/><rect x="12.41" y="63.3" width="1.5" height="1.5" transform="translate(-45.18 93.58) rotate(-105.24)" fill="#fff"/><rect x="13.46" y="61.46" width="1.5" height="1.5" transform="translate(-42.08 92.27) rotate(-105.24)" fill="#fff"/><rect x="11.62" y="60.41" width="1.5" height="1.5" transform="translate(-43.38 89.17) rotate(-105.24)" fill="#fff"/><rect x="15.3" y="62.51" width="1.5" height="1.5" transform="matrix(-0.26, -0.96, 0.96, -0.26, -40.77, 95.37)" fill="#fff"/><rect x="14.51" y="59.62" width="1.5" height="1.5" transform="translate(-38.98 90.96) rotate(-105.24)" fill="#fff"/></svg>