<svg id="Layer_1" data-name="Layer 1" xmlns="http://www.w3.org/2000/svg" viewBox="0 0 200 200"><title>Circuits</title><path d="M89,154l1.42-2.54c-2.62-1.94-5.18-3.88-7.78-5.77C67,134.32,51.3,123,35.72,111.5a97.66,97.66,0,0,1-8.91-7.7c-5.77-5.44-6.37-12-3.57-19,2.92-7.29,6.18-14.44,9.33-21.64a77.71,77.71,0,0,0,5.29-18.58c1-6.24,2.11-12.47,3-18.73,1.27-8.71,9.74-10.75,15.62-7.78,4.06,2.06,8.08,4.22,12,6.52a7.73,7.73,0,0,1,4,7.42c-.26,5.76-.36,11.53-.89,17.26a60,60,0,0,0,1,16.16c1.62,9.06,3.32,18.1,5,27.15,1,5.53,1.94,11.09,3.11,16.59.91,4.25,3.68,7.47,7,9.95,10.88,8.09,21.92,16,32.9,23.94l38.91,28.2c2,1.42,4.51,2.41,5,5.06a7.4,7.4,0,0,1-.48,4.78,114.11,114.11,0,0,1-7.38,10.55c-2.57,3.34-5.74,3.68-9.23,1.15q-24-17.44-48-34.93c-1.76-1.28-3.6-2.47-5.36-3.75C91.53,152.23,91.55,152.21,89,154Zm5.13-6.61a11,11,0,0,0,1.56,1.74q11.91,8.65,23.88,17.23c3.15,2.27,6.76,4.08,8.14,8.14a2.6,2.6,0,0,0,1,1.1q10.38,7.56,20.79,15.07a3.52,3.52,0,0,0,5-.9c2.07-2.84,4.15-5.67,6.12-8.58,2.19-3.24,1.85-4.53-1.33-6.79q-10.34-7.33-20.62-14.75-18.56-13.4-37.08-26.85C95.76,128.64,90,124.43,84.36,120a18.36,18.36,0,0,1-6.6-10.55c-1-4.68-1.75-9.42-2.63-14.13-1.65-8.88-3.38-17.74-4.94-26.63-1.06-6-2.1-12.06-1.57-18.27.52-6,.65-12,1-17.93a5.73,5.73,0,0,0-3.3-5.86c-4-2.12-8-4.44-12.1-6.43-3.74-1.82-8.76.29-9.77,4.29a136.21,136.21,0,0,0-2.55,14.09c-1.49,10.51-4,20.7-8.55,30.35-2.71,5.71-5.18,11.53-7.52,17.4C23.67,91.6,24,96.85,28.22,101a122,122,0,0,0,11.86,10c8.68,6.55,17.43,13,26.32,19.27,4.35,3.05,8,7.42,13.8,8a2.19,2.19,0,0,1,.89.51c3.58,2.57,7.14,5.18,10.75,7.71A10.53,10.53,0,0,0,94.1,147.43Zm31.11,25.67.52-.64c-2.48-3.76-6.8-5.43-10.17-8.16-3.54-2.87-7.44-5.28-11.15-7.94-3.55-2.54-6.89-5.4-10.77-7.42l-.52.77Zm-32.87-24,.65-1L79.47,138.5l-.6.86Z" fill="#fff"/></svg>