<svg id="Layer_1" data-name="Layer 1" xmlns="http://www.w3.org/2000/svg" viewBox="0 0 200 200"><title>Circuits</title><path d="M173.44,185.41c3.13-6.36,1-13.76-5.16-18.63q-21.66-17.13-43.35-34.23c-6.44-5.09-13.63-7-21.7-5.32-3.62.78-7.17,2-10.81,2.64a47.55,47.55,0,0,1-9.49,1c-3.31-.06-5.54-2.1-6.32-5.37a23,23,0,0,1-.7-5.39,56.38,56.38,0,0,1,6.29-25.41c4.26-8.4,17-9.59,23.3-2.46,7.84,8.89,15.52,17.92,23.64,26.55,6.71,7.13,15.19,10.31,25,8.1,9.37-2.12,12.41-12.31,6.19-19.65-3.27-3.85-7.6-6-12.08-8-5.74-2.52-11.52-5-16.08-9.47a115.72,115.72,0,0,1-8.77-9.7q-14-17.15-29.6-32.91C86.5,39.73,79.31,32.22,72,24.86c-4.47-4.47-9-8.89-13.79-13A29.34,29.34,0,0,0,44.8,5.26c-9.72-2-22,6.21-19.28,19.07.77,3.62,1.93,7.16,3,10.72,1.41,4.89,3.14,9.71,4.26,14.67,2,8.74.83,17.52-.32,26.27-.84,6.34-2.05,12.68-2.23,19-.32,11.2,2,22.12,4.4,33,.11.49.23,1,.35,1.43.55,1.83,1.83,5,4.53,6.8,6.57,1.74,7.57,3,7,9a11.28,11.28,0,0,0,5.11,6.19c.54.31,1.09.61,1.66.9l.07,0q1,.49,2,.95c17.12,7.67,34.28,15.26,51.42,22.88l13.6,6.08,1.33-3.13c-.43-.15-1.06-.37-1.68-.65l-20.71-9.27a16.16,16.16,0,0,0-2.41-1c-12.69-3.33-24.09-9.78-36.07-14.83a80.44,80.44,0,0,1-8.41-4.1,6.75,6.75,0,0,1-3.7-6.86c.24-3.26-1.36-5.87-4.5-6.7-5.13-1.35-7-4.74-8-9.64-2.09-10.59-4.27-21.15-4-32A114.53,114.53,0,0,1,34,80.06c1.29-8.43,2.35-16.86,1.67-25.42-.49-6.17-2.59-11.92-4.35-17.77-1.16-3.83-2.36-7.65-3.43-11.5C24.32,12.7,36.68,4.47,46.59,7.84c6.26,2.13,11.28,6,15.84,10.55,8.41,8.35,16.66,16.87,25,25.31C99.09,55.55,110.58,67.6,121,80.58c2.55,3.17,5.3,6.18,8.06,9.18,4.38,4.77,10,7.71,15.79,10.28,4.6,2,9.21,4,12.91,7.57s4.59,7.86,2.51,12.31c-1.32,2.82-3.76,4.19-6.59,4.91-5.64,1.43-11,.25-16.07-2.27-4.76-2.35-8.11-6.31-11.53-10.19-6.2-7-12.38-14.1-18.59-21.12-4.54-5.14-13.27-7.14-19.68-4.64a13.48,13.48,0,0,0-7.4,6.78c-4.2,8.67-6.88,17.78-6.61,27.53.26,9.46,4.86,13.35,14.24,12,3.22-.48,6.37-1.48,9.55-2.24q2.55-.6,5.11-1.18c8-1.79,15,0,21.4,5.2,12.21,9.9,24.67,19.48,37,29.23,2.84,2.25,5.94,4.31,8.3,7,5.67,6.46,3.89,15.36-3.73,19.34-7,3.69-14.24,3.64-21.37.07l-17.54-8.78-1.39-.71L124,184.14a3.18,3.18,0,0,1,1.46.37q8.93,4.07,17.94,8a27.12,27.12,0,0,0,17.49,1.86C166.27,193.08,170.91,190.56,173.44,185.41Z" fill="#fff"/><rect x="121.38" y="186.51" width="1.4" height="1.4" transform="translate(162.97 406.93) rotate(-157.43)" fill="#fff"/><rect x="120.63" y="184.68" width="1.4" height="1.4" transform="translate(162.22 403.13) rotate(-157.43)" fill="#fff"/><rect x="118.8" y="185.44" width="1.4" height="1.4" transform="translate(158.42 403.88) rotate(-157.43)" fill="#fff"/><rect x="122.45" y="183.93" width="1.4" height="1.4" transform="translate(166.02 402.38) rotate(-157.43)" fill="#fff"/><rect x="121.7" y="182.11" width="1.4" height="1.4" transform="translate(165.27 398.58) rotate(-157.43)" fill="#fff"/><rect x="119.87" y="182.86" width="1.4" height="1.4" transform="translate(161.47 399.33) rotate(-157.43)" fill="#fff"/><rect x="123.52" y="181.35" width="1.4" height="1.4" transform="translate(169.07 397.83) rotate(-157.43)" fill="#fff"/><rect x="122.77" y="179.53" width="1.4" height="1.4" transform="translate(168.32 394.04) rotate(-157.43)" fill="#fff"/><rect x="120.94" y="180.28" width="1.4" height="1.4" transform="translate(164.52 394.78) rotate(-157.43)" fill="#fff"/><rect x="124.59" y="178.77" width="1.4" height="1.4" transform="translate(172.12 393.29) rotate(-157.43)" fill="#fff"/><rect x="123.84" y="176.95" width="1.4" height="1.4" transform="translate(171.37 389.49) rotate(-157.43)" fill="#fff"/><rect x="122.02" y="177.7" width="1.4" height="1.4" transform="translate(167.57 390.24) rotate(-157.43)" fill="#fff"/><rect x="125.67" y="176.2" width="1.4" height="1.4" transform="translate(175.17 388.74) rotate(-157.43)" fill="#fff"/><rect x="123.09" y="175.13" width="1.4" height="1.4" transform="translate(170.62 385.69) rotate(-157.43)" fill="#fff"/></svg>