<svg id="Layer_1" data-name="Layer 1" xmlns="http://www.w3.org/2000/svg" viewBox="0 0 200 200"><title>Circuits</title><path d="M138.75,157.09c-3.07-1.14-6.33-1.94-9.19-3.47-13.32-7.08-26.41-14.62-39.85-21.47-7.4-3.78-11.54-9.83-14.94-16.93-3-6.32-6.3-12.55-9.85-18.59a10.68,10.68,0,0,0-5.15-3.9c-6.6-2.59-13.31-4.9-20-7.18C34.38,83.74,31,80,28.75,75s-5-9.74-7.36-14.68A10.73,10.73,0,0,0,15.54,55c-1.84-.8-3.72-1.52-5.52-2.4a4.7,4.7,0,0,1-2.69-5.93A4.66,4.66,0,0,1,12.84,44c2.63.55,5.27,1.16,7.85,1.9,4.15,1.2,6.8,4.27,9.31,7.59,3.53,4.67,7.28,9.18,10.85,13.81,1.86,2.41,4.5,3.41,7.18,4.38q6.85,2.47,13.71,4.91c5,1.79,7.44.52,9.18-4.77a120.5,120.5,0,0,1,4-11.56,30,30,0,0,1,4.92-7.4c1.78-2,4.43-2.61,7.18-2.61,15.81,0,31.63,0,47.44,0,5.53,0,11.08-.23,16.59.1,8.48.51,17.66,8.3,20,16.37,3.25,11.41,6.57,22.8,9.87,34.2q5.23,18.1,10.47,36.19a28.92,28.92,0,0,1,.84,4.08c.5,3.68-1.08,6.5-4.7,7.44-3.87,1-7.86,1.54-11.81,2.19q-17.11,2.81-34.23,5.54c-.83.13-1.69.17-2.53.25Zm-41.5-26.82a8.84,8.84,0,0,1,2,.55c3.23,1.77,6.42,3.62,9.65,5.4,3.5,1.93,7.1,3.68,10.51,5.75,3,1.8,5.72,3.95,8.56,5.94l-3.22-2.17a30.88,30.88,0,0,0-2.85-1.82c-.27-.14-.87.12-1.18.38a1,1,0,0,0,.15,1q3.08,1.7,6.24,3.25c.14.07.55-.42.83-.65,1.42,1,2.92,2,4.26,3.16a10.39,10.39,0,0,0,8.61,2.42c2.13-.3,4.27-.56,6.4-.91q19.37-3.17,38.74-6.38c2.29-.38,3.36-1.58,3.32-3.95a12.72,12.72,0,0,0-.43-3.19q-3.39-12.15-6.87-24.27-6.84-23.66-13.74-47.3c-2.1-7.22-10.46-14.06-18-14.25-9.23-.23-18.46-.08-27.7-.08-11.73,0-23.46,0-35.19,0a8.35,8.35,0,0,0-7.4,4,21.8,21.8,0,0,0-2.19,4.3c-1.65,4.4-3,8.93-4.79,13.26-2.25,5.39-6.17,6.92-11.64,4.95-3.48-1.26-6.9-2.74-10.46-3.72a28.24,28.24,0,0,1-16.63-12c-2.13-3.2-4.86-6-7-9.22-3.55-5.43-9-6.84-14.86-7.7-.63-.09-1.38.61-2.07,1,.37.67.58,1.63,1.15,2a42.82,42.82,0,0,0,4.41,2c3.26,1.47,6.38,3.05,8,6.55,2.65,5.56,5.6,11,8.12,16.61a13.69,13.69,0,0,0,8.36,7.46q10.1,3.68,20.26,7.18a12.66,12.66,0,0,1,7.66,6.53c4.19,8.32,8.66,16.51,13,24.75a12.5,12.5,0,0,0,8.41,6.65c2.59.65,5.07,1.74,7.59,2.63l-4.83-1.24-.33.72c1.93,1.11,3.84,2.27,5.79,3.33,6.49,3.54,13,7.08,19.52,10.55a7.29,7.29,0,0,0,2.41.34l.35-1.12Z" fill="#fff"/></svg>