<svg xmlns="http://www.w3.org/2000/svg" viewBox="0 0 200 200"><title>Circuits</title><g id="Layer_1" data-name="Layer 1"><path d="M128,126.39a11.19,11.19,0,0,1-7-2.23c-2.72-1.78-5.32-3.75-7.94-5.67a14.27,14.27,0,0,0-9.54-2.75q-9.23.53-18.44,1.08l-24.86,1.46c-1.78.1-3.56.25-5.35.27-2.52,0-3.92-1.25-4.11-3.68-.28-3.5-.53-7-.78-10.5-.33-4.45-.67-8.91-1-13.37-.06-.82-.47-1-1.19-1q-9.61.43-19.23.84a54.8,54.8,0,0,1-5.73.06,2.48,2.48,0,0,1-2.42-2.59Q19.86,80,19.32,71.62L17.85,49.08c-.14-2.07-.34-4.14-.42-6.21a5.49,5.49,0,0,0-2.65-4.61c-1.73-1.13-3.52-2.18-5.2-3.38a7.65,7.65,0,0,1-3.32-6.15C5.9,22.81,5.47,16.89,5,11c-.2-2.68,1.2-4.44,3.9-4.62C14.46,6,20,5.68,25.54,5.34L49.63,3.86c6.56-.4,13.12-.76,19.68-1.21a13,13,0,0,1,9.61,3.57q23,20.07,46,40.23,34.14,29.91,68.3,59.8a4.43,4.43,0,0,1,1.79,3c.21,2.83-2.82,5.3-5.8,4.75-5.17-1-10.34-2-15.53-2.8a28.83,28.83,0,0,0-5.73-.11,3.31,3.31,0,0,0-1.66.85c-3.12,2.43-6.2,4.91-9.3,7.37-1.14.91-1.24,1.23-.71,2.61,1.08,2.76,2.18,5.51,3.28,8.26,1.19,3,2.32,6.08,3.63,9a14.53,14.53,0,0,0,2.28,3.6,76.77,76.77,0,0,0,9,8.57c4,3.32,8,6.71,11.92,10.22a13,13,0,0,1,4.64,9.79c.08,7,.34,14,.51,21.06a5.44,5.44,0,0,1-.05,1.34c-.3,1.6-1,3-2.7,3.38a4.8,4.8,0,0,1-5.15-1.69q-4.1-5.31-8.15-10.64-21.9-28.63-43.78-57.28C130.72,126.33,129.49,126.41,128,126.39Zm58.82,65.11a5.71,5.71,0,0,0,.32-.83,43,43,0,0,0,1.05-6.51c.09-4.59,0-9.19-.25-13.78-.14-2.93-1.93-5.08-4-6.92-4-3.53-8.07-7.07-12.22-10.46a83.79,83.79,0,0,1-8.91-8.66,10.74,10.74,0,0,1-2.05-3.09c-2.56-6.29-5-12.61-7.51-18.93a4.32,4.32,0,0,1,1.4-4.89c3.42-2.73,6.81-5.48,10.29-8.14a5,5,0,0,1,2.67-1.11,42.81,42.81,0,0,1,7.34.25c3.73.51,7.4,1.34,11.1,2,1.29.24,2.58.5,3.87.63A2,2,0,0,0,192,110c.38-.81-.39-1.19-.87-1.62L135.06,59.28l-47-41.14c-3.75-3.28-7.47-6.59-11.27-9.81a9.71,9.71,0,0,0-6.66-2.75c-3.22.13-6.44.38-9.66.58L33.94,7.8,9.47,9.3C8,9.4,7.91,9.44,8,11q.59,8.84,1.2,17.67a4.66,4.66,0,0,0,1.91,3.69c1.08.78,2.21,1.48,3.34,2.2,2.39,1.5,4.81,3,5.57,6a16.82,16.82,0,0,1,.41,2.73c.41,5.73.82,11.46,1.18,17.19.48,7.45.91,14.91,1.37,22.36.11,1.74.25,3.48.38,5.22,1.22,0,2.36,0,3.5,0,7.11-.28,14.23-.6,21.34-.87,2.33-.09,3.53,1.06,3.7,3.4q.87,11.61,1.73,23.2c.14,1.84.33,2,2.22,1.85l24.38-1.42c7.3-.42,14.59-.83,21.89-1.29,3-.18,5.91-.15,8.64,1.1a35.23,35.23,0,0,1,4.94,2.86c1.9,1.28,3.71,2.7,5.57,4a12.24,12.24,0,0,0,8.1,2.64,5.22,5.22,0,0,1,4.71,2.39c3.62,4.86,7.42,9.59,11,14.48a58.34,58.34,0,0,0,11.51,12.33,11,11,0,0,1,2,2.07q13.69,17.85,27.36,35.73C186.17,190.81,186.47,191.09,186.85,191.5Zm1.72-.23c-1.26,1.55-2.38,1.67-3.23.56q-14-18.33-28.05-36.64a23.38,23.38,0,0,0-2.15-2.19l-.18.16c.14.19.27.4.41.59l30.2,39.46c.19.26.36.61.63.71a3.74,3.74,0,0,0,1.77.37c.26,0,.48-.8.58-1.27A10.84,10.84,0,0,0,188.57,191.27Z" fill="#ed0f4e"/></g></svg>