<svg xmlns="http://www.w3.org/2000/svg" viewBox="0 0 200 200"><title>Circuits</title><g id="Isolation_Mode" data-name="Isolation Mode"><path d="M98.9,136.86l0,0,0,0Z"/><path d="M102.25,140.09l0,0,0,0Z"/><path d="M103.41,141.13l0,0,0,0Z"/><path d="M98,136.05l0,0,0,0Z"/><path d="M104.51,142.23l0,0h0Z"/><path d="M96.88,135l0,0,0,0Z"/><path d="M95.67,131.68l.16.12-.17-.14Z"/><path d="M95.72,133.92l0,0,0,0Z"/><path d="M98,136l0,.05,0,0Z"/><path d="M96.82,135l0,0,0,0Z"/><path d="M98.83,136.86l0,0s0,0,0,0Z"/><rect x="92.84" y="132.07" width="2.1" height="2.1" transform="translate(-67.72 112.64) rotate(-47.58)" fill="#ed0f4e"/><rect x="95.81" y="131.94" width="2.1" height="2.1" transform="translate(-66.65 114.78) rotate(-47.58)" fill="#ed0f4e"/><rect x="95.95" y="134.91" width="2.1" height="2.1" transform="translate(-68.8 115.85) rotate(-47.58)" fill="#ed0f4e"/><rect x="98.92" y="134.77" width="2.1" height="2.1" transform="translate(-67.73 118) rotate(-47.58)" fill="#ed0f4e"/><rect x="99.05" y="137.74" width="2.1" height="2.1" transform="translate(-69.88 119.06) rotate(-47.58)" fill="#ed0f4e"/><rect x="102.02" y="137.61" width="2.1" height="2.1" transform="translate(-68.82 121.21) rotate(-47.58)" fill="#ed0f4e"/><rect x="102.16" y="140.58" width="2.1" height="2.1" transform="translate(-70.97 122.28) rotate(-47.58)" fill="#ed0f4e"/><rect x="105.13" y="140.45" width="2.1" height="2.1" transform="translate(-69.9 124.43) rotate(-47.58)" fill="#ed0f4e"/><path d="M193.82,17A27.52,27.52,0,0,0,183.26,6.55c-7.68-4.39-15.55-4.73-23.16.11-2,1.29-3.48,3.47-5.2,5.25l-8.37,10.36-.61.72c-2.89,3.38-6.91,3.77-10.44,1-2.57-2-5.08-4.06-7.69-6-3.56-2.66-7.52-4.14-12-3.53Q104,16.09,92.15,17.85A34.07,34.07,0,0,0,86,19.39a10.63,10.63,0,0,0-7.11,7.43C77.48,32.13,76.27,37.5,75,42.93l-2.89,12,0-.06C70.87,60.2,69.69,65.07,68.71,70a13.71,13.71,0,0,0,1.81,10.27A9.39,9.39,0,0,0,78.08,85c3.19.23,5.8-1.17,8.36-2.77,17.27-10.83,34.63-21.52,51.77-32.55,6.69-4.31,15.4-1.33,18.94,2.72a7.67,7.67,0,0,1-1.45,11.82c-1.33.89-2.68,1.74-4,2.6l-31.24,20L104.2,97.15h0c-8.18,5.16-16.33,10.36-24.5,15.53a20.59,20.59,0,0,0-7,7.07q-9.27,16-18.68,31.94c-1.31,2.23-2.57,4.49-4.08,6.58-3.12,4.35-8.2,4.89-11.39,1.35-2.14-2.38-2.35-6.22-.49-9.42.61-1,1.28-2,2.12-3.39h0l4-6.41c.68-1,1.34-2.11,2-3.18l.23-.37h0l.55-.92a71.34,71.34,0,0,0,4.37-8c1.54-3.59,1.59-7.26-1-10.54a11.28,11.28,0,0,0-17.28-1c-7.08,7.09-14.08,14.26-21.09,21.42a24.33,24.33,0,0,0-6.44,11.65c-2.25,9.71-.51,18.3,7.14,25.29,5.06,4.63,10.06,9.36,14.89,14.24,7.8,7.86,19.49,7.06,26.69-.5q23-24.11,45.84-48.35v-.14l-1.92-1.68a24,24,0,0,1-3.41,4.47L93,144.61h0l-1.46,1.5-5.32,5.48v0l-14,14.78-.29-.22c1.48-2,2.81-4.15,4.47-6,5.31-5.9,10.73-11.7,16.12-17.54,1.29-1.4,2.67-2.73,3.91-4.17a5.91,5.91,0,0,0,.64-.93l-.89-.78a2.74,2.74,0,0,0,.29.33l-1.25,1.33Q86.89,147.19,78.52,156a31.59,31.59,0,0,0-2.75,3.35,208,208,0,0,1-23.2,27.76c-7.22,7.19-17,7.67-24.18.38-5.07-5.15-10.45-10-15.63-15a21,21,0,0,1-3.22-3.93c-5.34-8.64-4-21.39,3.16-28.94C19.75,132.2,27,125,34.23,117.76a11.7,11.7,0,0,1,4.5-2.59,8.84,8.84,0,0,1,9.51,2.45c2.58,2.6,2.85,5.74,1.71,9.06a23.13,23.13,0,0,1-1.71,3.8c-1,1.84-2.16,3.64-3.3,5.5h0l-7.23,11.5h0c-1.36,2.07-2.52,4.11-2.64,6.59a8.7,8.7,0,0,0,4.67,8.61,7.86,7.86,0,0,0,9.35-1.14,17.1,17.1,0,0,0,3.48-4.1q10.83-18.23,21.49-36.57a19.25,19.25,0,0,1,6.52-6.69Q94.13,105.59,107.67,97h0l4.6-2.93,4.1-2.6.05,0,2.67-1.7h0l0,0,2.15-1.37h0q7.92-5,15.83-10.1c6.78-4.35,13.58-8.65,20.28-13.11,3-2,4.06-5.09,3.46-8.68a10.91,10.91,0,0,0-5.59-7.79c-5.49-3.24-11.21-4.38-17-.89-7.6,4.59-15.09,9.35-22.6,14.07-6.69,4.2-13.33,8.48-20,12.66-4.2,2.62-8.33,5.41-12.74,7.61-5.91,3-11.28.07-12.23-6.47a24.76,24.76,0,0,1,.4-8.27c.66-3.19,1.4-6.37,2.16-9.54L76,46.44v0c1.37-5.91,2.77-11.31,3.85-16.77S84,21.26,89.3,20.16c.91-.19,1.82-.4,2.73-.54l23.62-3.37a14.47,14.47,0,0,1,11,3.09c2.64,2,5.2,4.07,7.81,6.1,3.3,2.55,9.22,3.61,13-1.56l9.69-12h0l.55-.68a15.33,15.33,0,0,1,8.69-5.55,20.06,20.06,0,0,1,16.48,2.66c7.59,5,12.58,11.51,11.7,21.16a24.39,24.39,0,0,1-6.91,14.91C176.51,56,166,68.32,154,79.1,148.52,84,143.1,89.06,137.59,94a3.31,3.31,0,0,1-2.45.89c-2.7-.68-4.09.58-5.35,2.74-2.47,4.23-4.65,8.78-7.83,12.42-7.06,8.09-14.68,15.69-22,23.5a2.57,2.57,0,0,1-.41.36l.7.72a4.23,4.23,0,0,1,.46-.53c5.72-6,11.27-12.1,17.16-17.89,4.8-4.7,8.23-10.29,11.62-16l1.64-2.8c.78-1.35,1.82-2.07,3.46-1.58a3.54,3.54,0,0,0,3.66-1c3.14-2.92,6.33-5.78,9.51-8.65a3.18,3.18,0,0,1,1-.65l-47.45,50.2,1.59,1.61.91-1c3.82-4,7.65-8,11.45-12q33.87-35.78,67.71-71.6c3.36-3.56,6.91-7.07,9.59-11.12C197.67,33.83,198.53,25.46,193.82,17Z" fill="#ed0f4e"/></g></svg>