<svg id="Layer_1" data-name="Layer 1" xmlns="http://www.w3.org/2000/svg" viewBox="0 0 200 200"><title>Circuits</title><rect x="124.3" y="159.12" width="0.99" height="0.99" transform="translate(-75.82 188.06) rotate(-60.05)" fill="#fff"/><rect x="123.93" y="157.77" width="0.99" height="0.99" transform="translate(-74.82 187.05) rotate(-60.05)" fill="#fff"/><rect x="122.57" y="158.13" width="0.99" height="0.99" transform="translate(-75.82 186.06) rotate(-60.05)" fill="#fff"/><rect x="125.29" y="157.4" width="0.99" height="0.99" transform="translate(-73.82 188.05) rotate(-60.05)" fill="#fff"/><rect x="124.92" y="156.04" width="0.99" height="0.99" transform="translate(-72.83 187.05) rotate(-60.05)" fill="#fff"/><rect x="123.56" y="156.41" width="0.99" height="0.99" transform="translate(-73.83 186.06) rotate(-60.05)" fill="#fff"/><rect x="125.92" y="154.32" width="0.99" height="0.99" transform="translate(-70.84 187.05) rotate(-60.05)" fill="#fff"/><rect x="127.27" y="153.95" width="0.99" height="0.99" transform="translate(-69.84 188.04) rotate(-60.05)" fill="#fff"/><rect x="126.91" y="152.59" width="0.99" height="0.99" transform="translate(-68.85 187.05) rotate(-60.05)" fill="#fff"/><rect x="128.27" y="152.23" width="0.99" height="0.99" transform="translate(-67.85 188.04) rotate(-60.05)" fill="#fff"/><rect x="126.54" y="151.24" width="0.99" height="0.99" transform="translate(-67.85 186.06) rotate(-60.05)" fill="#fff"/><path d="M189.2,184.43q-.56-4.39-1.42-8.74c-1.46-7.47-3-14.93-4.45-22.4l-.81-4.21c-.09-.57-.17-1.14-.24-1.71h-.09L162.59,45A7.62,7.62,0,0,0,156,38.81L154,38.55v0c-3.52-.44-7.05-.86-10.58-1.24-4.18-.44-8.36-.84-12.55-1.17a12.35,12.35,0,0,0-5.56.52,101.37,101.37,0,0,0-21.07,11.48,12.5,12.5,0,0,0-5,6.38c-.59,1.84-1.19,3.68-1.64,5.55-.52,2.18-.88,4.4-1.33,6.6a8.48,8.48,0,0,1-.48,1.45,1.73,1.73,0,0,1-2,1.22,28.41,28.41,0,0,1-3.87-.95c-4.06-1.36-8.06-3-12.16-4.17a58,58,0,0,0-21.28-2.63c-4,.33-7.11-.91-9.34-4.43-4.21-6.65-8-13.47-10.51-21A75.33,75.33,0,0,0,31.1,23.24,21.35,21.35,0,0,0,18.4,12.55c-2.71-.84-5.43-1.67-8.16-2.47A12.68,12.68,0,0,0,7.6,9.53a2.37,2.37,0,0,0-2.46,1.72A2.31,2.31,0,0,0,5.86,14,6.91,6.91,0,0,0,7,14.85C8.92,15.9,10.79,17,12.7,18a15.21,15.21,0,0,1,7.7,8.82c.59,1.78,1.33,3.51,1.92,5.29Q27.2,46.9,32,61.73a12.34,12.34,0,0,1,.47,3.34c.08,2.51.8,3.54,3.2,4.28a6.82,6.82,0,0,1,2.72,1.53,26.63,26.63,0,0,0,6.38,4.5,73.29,73.29,0,0,0,11.89,4.16c4.17,1.21,8.38,2.31,12.56,3.52a24.39,24.39,0,0,1,4.23,1.55A21.58,21.58,0,0,1,83.34,95c2.55,5.42,4.89,10.95,7.19,16.49,3.28,7.9,6.35,15.89,9.66,23.77A25.74,25.74,0,0,0,109.93,147c4.51,3,9.09,5.8,13.64,8.69.14.09.27.2.42.31l.4-.67v0l.86.5.5-.86-.85-.49.11-.18-4.22-2.53.11-.24,4.6,1.88-.11.2.86.5.5-.86-.86-.5-.19.33c-.84-.41-1.63-.83-2.46-1.15a37.24,37.24,0,0,1-4-1.37c-1.93-1-3.74-2.24-5.6-3.38a27.46,27.46,0,0,1-8.94-8,30.19,30.19,0,0,1-2.84-5c-3.91-9.45-7.69-19-11.59-28.41-1.64-4-3.33-7.92-5.24-11.76A23.76,23.76,0,0,0,74.07,82.79a27.83,27.83,0,0,0-4.48-1.61c-4.15-1.2-8.33-2.3-12.48-3.5a69.73,69.73,0,0,1-11.64-4.08,23.17,23.17,0,0,1-5.79-4.16,8.44,8.44,0,0,0-3.52-2c-1.56-.47-1.75-.67-1.7-2.26a13.18,13.18,0,0,0-.76-4.59c-2.94-8.93-5.83-17.88-8.79-26.8-1-3-2.11-6-3.28-9a16,16,0,0,0-7.27-8.08c-2.07-1.19-4.17-2.31-6.25-3.47a3,3,0,0,1-.84-.56c-.19-.22-.4-.62-.32-.83a1.05,1.05,0,0,1,.79-.45,3.24,3.24,0,0,1,1.17.19c2.5.75,5,1.59,7.51,2.26A20.59,20.59,0,0,1,30,25.18a77.42,77.42,0,0,1,4.58,11A91.5,91.5,0,0,0,45.73,58.45l.2.28c2.25,3.47,5.46,4.92,9.55,4.78,2.94-.1,5.9-.11,8.84.07A54.59,54.59,0,0,1,76.95,66c4.23,1.29,8.37,2.88,12.56,4.31a20.44,20.44,0,0,0,3,.85c3,.52,4.7-.61,5.42-3.53.39-1.54.6-3.13,1-4.67.61-2.54,1.22-5.08,2-7.58a10.13,10.13,0,0,1,4.35-5.62c3-2,6-4,9.1-5.71s6.72-3.32,10.07-5a11.22,11.22,0,0,1,6.05-1q6.24.49,12.47,1.15c3.53.37,7.06.79,10.58,1.23l0-.07,2.26.28a5.83,5.83,0,0,1,5,4.7l19.55,102.15h0c.1.94.24,1.88.43,2.82,1.65,8.47,3.39,16.92,5,25.39.58,3,1,6,1.49,9a4.3,4.3,0,0,1,0,1.27c-.37,2.58-2.24,3.45-4.5,2.11s-4.41-2.69-6.63-4c-7.17-4.25-14.39-8.44-21.52-12.77a74.08,74.08,0,0,1-6.39-4.66c-3.62-2.77-7.69-4.81-11.61-7.1-2.62-1.53-5.27-3-7.9-4.53-.17-.1-.33-.21-.53-.35l-.26.44,3.75,2.14c4.28,2.45,8.58,4.86,12.82,7.38,1.74,1,3.34,2.32,5,3.49l-.14.15-21.89-12.38-.29.5.19-.34-.86-.5-.5.86.86.49-.37.63.26.13c7.08,4,14.21,8,21.24,12.07,11.27,6.59,22.47,13.29,33.72,19.9a6.89,6.89,0,0,0,2.63.85,3.86,3.86,0,0,0,4.47-2.83A8.23,8.23,0,0,0,189.2,184.43Z" fill="#fff"/></svg>