<svg id="Layer_1" data-name="Layer 1" xmlns="http://www.w3.org/2000/svg" viewBox="0 0 200 200"><title>Circuits</title><path d="M146.51,73.78c-.21.15-.28.23-.33.22-3.39-.8-3.48-.85-5.25,2.4-4.43,8.09-8.78,16.23-13.15,24.35q-8.21,15.25-16.41,30.5c-9.19,17-18.71,33.86-27.49,51.08-5.3,10.39-16.38,6.55-20.75.23-2.27-3.29-2.95-7-3.41-10.86-.6-4.92-.89-9.88-1.75-14.75-1-5.83.85-10.57,4.43-15,7.52-9.25,15-18.54,22.47-27.81,1.88-2.32,3.34-4.66,1.51-7.72a7.8,7.8,0,0,0-8-3.87,8.54,8.54,0,0,0-2.5,1Q64,110.27,52.06,117.05a73.3,73.3,0,0,0-7.7,4.53c-5,3.75-6,11.8-2.33,16.91,1.62,2.26,3.24,4.53,4.67,6.9a19.22,19.22,0,0,1,2.83,12.49c-.47,4-.44,8.08-1.1,12-1.74,10.39-12.61,14.82-22,11.76-7.93-2.59-11.85-10.47-11.59-18.61.32-10.26.34-20.52.5-30.78q.32-20,.65-39.94c.09-5.39,0-10.79.24-16.17C17.08,60,28.13,46,44.61,43.27c10.87-1.8,21.65-4.07,32.47-6.17,5.57-1.08,9.17.22,11.18,4.17a8.38,8.38,0,0,1-5.92,12.33c-3.6.71-7.24,1.27-10.83,2a9.93,9.93,0,0,0-7.28,5.53c-1.77,3.66-5,5.28-8.71,6.1a52.26,52.26,0,0,1-6.21,1.15c-4.11.39-7.71,5.15-7.1,9.45.4,2.82.41,5.72,1,8.49,1.32,6,6.82,8.55,12.15,5.59C64.33,87,73.14,81.77,82,76.7s17.91-10.15,26.83-15.28A8.93,8.93,0,0,0,111.68,59a3.54,3.54,0,0,0-1.81-5.33c-1.33-.52-2.73-.87-4-1.51a5.36,5.36,0,0,1-2-8.21,121.13,121.13,0,0,1,9.75-11.77A17,17,0,0,1,121,28.05c10.26-2.77,20.62-5.19,31-7.69q13.44-3.25,26.91-6.39a7.66,7.66,0,0,1,8.73,4.45,8,8,0,0,1-2,9.81c-4.16,3.21-8.49,6.21-12.64,9.43-5.74,4.46-11.67,8.74-16.93,13.71-3,2.86-5,6.89-7.27,10.5-1.47,2.34-2.51,5-4,7.32-1.07,1.74-1.09,2.87,1,3.65C146.09,73,146.27,73.46,146.51,73.78Zm-9.58-5c.83-.89,2-1.66,2.49-2.75,1.75-4.28,3.34-8.62,4.81-13,1.14-3.38,1.92-6.91,6.39-7.4.5-.05,1-.62,1.39-1,4.07-4.3,8.11-8.63,12.2-12.91,2-2,2.4-4.36,1.12-6.54-1.72-2.91-3.12-3.45-6.31-2.68-11.67,2.83-23.36,5.55-35,8.45-2.8.7-5.75,1.33-7.79,3.72-2.57,3-5.11,6.06-7.69,9.06-3.3,3.83-3,4.84,1.85,6.27,3.76,1.1,5.86,3.9,5.57,7.7a7.69,7.69,0,0,1-4.17,6.28Q99.73,70.84,87.67,77.78c-10.08,5.81-20.11,11.7-30.23,17.43a12,12,0,0,1-17.16-5.65,22.72,22.72,0,0,1-1.21-6.82c-.22-2.88-.63-5.89-.06-8.66,1.22-5.85,5.62-9.07,12.76-9.81,4.61-.48,8.27-2,10.47-6.5a9.37,9.37,0,0,1,7.22-5.17c4.21-.7,8.4-1.61,12.54-2.68,3.12-.81,4.28-3.06,3.49-6a5.2,5.2,0,0,0-6-3.52q-3.55.63-7.1,1.3L49.63,46c-5.22,1-10.56,1.82-15.1,4.75-9.39,6.06-14.08,15-14.68,26-.41,7.48-.3,15-.41,22.47q-.26,18.18-.49,36.36c-.11,9.17.1,18.36-.38,27.5-.42,7.89,3.5,14.58,12.3,15.83,6.67.95,13-3.21,14.07-9.89.5-3.16.45-6.41.88-9.59a18.65,18.65,0,0,0-4.69-15.83,21.34,21.34,0,0,1-3-4.51c-4.21-8.19-1.62-17.34,5.48-21.55,10.36-6.14,21-11.78,31.57-17.6a9.49,9.49,0,0,1,9.44.07c5.17,2.65,8.47,9.79,3.9,15.35-7.78,9.45-15.37,19-23.12,28.51-3,3.73-4.79,7.65-3.86,12.64.77,4.12,1.13,8.32,1.5,12.51.41,4.55,1.12,9,4.12,12.64,4.07,5,10.43,4.46,13.4-1.11,3.49-6.54,7.12-13,10.58-19.57,3.77-7.16,7.61-14.3,11.06-21.62,2.84-6,4.84-12.43,7.77-18.39,4.19-8.54,8.89-16.84,13.38-25.24,4.38-8.19,8.79-16.36,13.13-24.57A7.47,7.47,0,0,0,136.93,68.74Zm2.56.79.87.07c1.26-2.28,2.56-4.53,3.78-6.83,2.81-5.31,5.43-10.86,10-14.84,5.87-5.12,12.18-9.73,18.33-14.51,3.67-2.85,7.47-5.53,11.11-8.42,1.76-1.4,1.56-3.41.65-5.16a4.25,4.25,0,0,0-4.94-2.27c-1.25.25-2.48.59-3.71.9L163.7,21.41c.71.93,1.15,1.5,1.57,2.08,2.19,3.07,2.23,6,0,8.41-4,4.28-8,8.55-12.06,12.74a7.13,7.13,0,0,1-3.14,2,5.4,5.4,0,0,0-4.37,4.58,52.07,52.07,0,0,1-6.17,16.57C139.27,68.23,139.49,68.95,139.49,69.53Zm-31.72,58.61.74.36c.36-.55.77-1.07,1.08-1.65q7.38-13.64,14.73-27.29c4.8-8.9,9.61-17.8,14.35-26.73a6.51,6.51,0,0,0,.23-2.37c-.55.41-1.33.7-1.63,1.26-3.65,6.71-7.23,13.46-10.84,20.19-4.22,7.85-8.53,15.65-12.66,23.55C111.61,119.61,109.76,123.91,107.77,128.15Z" fill="#fff"/></svg>