<svg id="Layer_1" data-name="Layer 1" xmlns="http://www.w3.org/2000/svg" viewBox="0 0 200 200"><title>Circuits</title><path d="M192.62,39.71A17.74,17.74,0,0,0,189,36.94c-13.37-7.84-26.79-15.61-40.14-23.48-3.93-2.32-7.94-4.23-12.54-4.74-16.55-1.84-30,3.38-39.43,17.5-2.27,3.39-4.26,7-6.34,10.49Q69.64,72,48.75,107.29c-1.23,2.08-2.53,4.13-4,6.48l3.74,2.4-.06-.19L65.87,86.55a8.48,8.48,0,0,1-1.13,5c-4.66,7.74-9.22,15.54-13.93,23.25a5.72,5.72,0,0,0-.81,2.37l1.74,1.12c2-4.48,4.73-8.19,7-12.17,2.54-4.44,5.17-8.83,7.82-13.2a9.36,9.36,0,0,0,1.55-4.53C68.33,83,70.21,78.24,73,73.6c9-14.76,17.67-29.75,26.58-44.58A33,33,0,0,1,117.1,14.41c.39-.14.76-.34,1.39-.63l.82-.43c1.81-.27,3.45-.47,5.07-.75a35.23,35.23,0,0,1,14.94.63,19.79,19.79,0,0,1,4.91,2.06c11.44,6.61,22.83,13.29,34.24,19.94,2.8,1.63,5.64,3.18,8.4,4.87a15.73,15.73,0,0,1,3.19,2.51,6.89,6.89,0,0,1,1.52,7.78c-.18.46-.38.92-.57,1.38a26.16,26.16,0,0,1-2.43,4.09c-.13.17-.26.33-.39.51l-.15.23-.13.18h0c-.48.71-.93,1.45-1.45,2.27-1-.48-2-.84-2.83-1.35q-11.17-6.48-22.31-13-16.78-9.8-33.53-19.64a11.29,11.29,0,0,0-8.14-1.2,20,20,0,0,0-14.2,9.85Q86.17,66.26,66.83,98.78,41.25,141.88,15.7,185l-.13.22c-.72,1.13-1.21,2.67-2.87,2.56a6,6,0,0,1-4.57-2.93,2.05,2.05,0,0,1,.21-2.38c4.28-7.07,8.57-14.12,12.83-21.21,2.94-4.9,5.86-9.81,8.71-14.75A7.47,7.47,0,0,1,33,143.32a18,18,0,0,0,8.52-8.38c1.82-3.65,4.12-7.06,6.26-10.55.3-.48.63-.94,1-1.41l-2-1.28a13,13,0,0,0-.77,1.23c-2.74,4.61-5.54,9.18-8.23,13.82a6.41,6.41,0,0,1-3.69,3c.42-.85.66-1.44,1-2q4.71-7.89,9.43-15.78a9.57,9.57,0,0,0,.73-1.28L42,118.61a15,15,0,0,0-1.23,2q-11.21,18.92-22.41,37.84c-4.4,7.39-8.9,14.72-13.35,22.08a5.78,5.78,0,0,0,.43,7.12,10.75,10.75,0,0,0,5.43,3.65,6,6,0,0,0,6.64-2.08,14.52,14.52,0,0,0,1.4-2.13q19.84-33.42,39.66-66.84,24.91-42,49.78-84a17.78,17.78,0,0,1,8.53-7.75c3.44-1.43,6.78-1.61,10.23.49,9.25,5.62,18.61,11,28,16.51q13.46,7.86,27,15.62a14.3,14.3,0,0,0,3.51,1.47A3.56,3.56,0,0,0,189.76,61c.67-1.08,1.29-2.18,1.92-3.29l2.15-3.6h0a16.27,16.27,0,0,0,1.4-2.71C196.91,47,195.9,43,192.62,39.71Z" fill="#fff"/><rect x="52.81" y="119.39" width="1.87" height="1.87" transform="translate(184.64 135.61) rotate(120.73)" fill="#fff"/><rect x="50.24" y="120.04" width="1.87" height="1.87" transform="translate(181.32 138.8) rotate(120.73)" fill="#fff"/><rect x="50.89" y="122.61" width="1.87" height="1.87" transform="translate(184.52 142.12) rotate(120.73)" fill="#fff"/><rect x="49.58" y="117.48" width="1.87" height="1.87" transform="translate(178.13 135.48) rotate(120.73)" fill="#fff"/><rect x="47.02" y="118.13" width="1.87" height="1.87" transform="matrix(-0.51, 0.86, -0.86, -0.51, 174.81, 138.68)" fill="#fff"/><rect x="47.67" y="120.7" width="1.87" height="1.87" transform="translate(178 142) rotate(120.73)" fill="#fff"/><rect x="46.36" y="115.56" width="1.87" height="1.87" transform="translate(171.61 135.36) rotate(120.73)" fill="#fff"/><rect x="43.79" y="116.21" width="1.87" height="1.87" transform="translate(168.29 138.55) rotate(120.73)" fill="#fff"/><rect x="44.45" y="118.78" width="1.87" height="1.87" transform="translate(171.49 141.87) rotate(120.73)" fill="#fff"/><rect x="43.14" y="113.64" width="1.87" height="1.87" transform="translate(165.09 135.23) rotate(120.73)" fill="#fff"/><rect x="40.57" y="114.3" width="1.87" height="1.87" transform="translate(161.77 138.43) rotate(120.73)" fill="#fff"/><rect x="41.22" y="116.87" width="1.87" height="1.87" transform="translate(164.97 141.75) rotate(120.73)" fill="#fff"/><rect x="39.92" y="111.73" width="1.87" height="1.87" transform="translate(158.58 135.11) rotate(120.73)" fill="#fff"/><rect x="38" y="114.95" width="1.87" height="1.87" transform="translate(158.45 141.63) rotate(120.73)" fill="#fff"/></svg>