<svg id="Layer_1" data-name="Layer 1" xmlns="http://www.w3.org/2000/svg" viewBox="0 0 200 200"><title>Circuits</title><rect x="50.75" y="98.52" width="2.16" height="2.16" transform="translate(-58.92 81.14) rotate(-53.05)" fill="#fff"/><rect x="53.77" y="98.09" width="2.16" height="2.16" transform="translate(-57.37 83.39) rotate(-53.05)" fill="#fff"/><rect x="53.35" y="95.07" width="2.16" height="2.16" transform="translate(-55.13 81.84) rotate(-53.05)" fill="#fff"/><rect x="54.2" y="101.12" width="2.16" height="2.16" transform="translate(-59.62 84.94) rotate(-53.05)" fill="#fff"/><rect x="57.23" y="100.69" width="2.16" height="2.16" transform="translate(-58.07 87.18) rotate(-53.05)" fill="#fff"/><rect x="56.8" y="97.66" width="2.16" height="2.16" transform="matrix(0.6, -0.8, 0.8, 0.6, -55.82, 85.63)" fill="#fff"/><rect x="57.65" y="103.72" width="2.16" height="2.16" transform="translate(-60.32 88.73) rotate(-53.05)" fill="#fff"/><rect x="60.68" y="103.29" width="2.16" height="2.16" transform="translate(-58.77 90.98) rotate(-53.05)" fill="#fff"/><rect x="60.25" y="100.26" width="2.16" height="2.16" transform="translate(-56.52 89.43) rotate(-53.05)" fill="#fff"/><rect x="61.11" y="106.31" width="2.16" height="2.16" transform="translate(-61.02 92.53) rotate(-53.05)" fill="#fff"/><rect x="64.13" y="105.89" width="2.16" height="2.16" transform="translate(-59.47 94.77) rotate(-53.05)" fill="#fff"/><rect x="63.71" y="102.86" width="2.16" height="2.16" transform="translate(-57.22 93.23) rotate(-53.05)" fill="#fff"/><rect x="64.56" y="108.91" width="2.16" height="2.16" transform="translate(-61.72 96.32) rotate(-53.05)" fill="#fff"/><rect x="67.16" y="105.46" width="2.16" height="2.16" transform="matrix(0.6, -0.8, 0.8, 0.6, -57.92, 97.02)" fill="#fff"/><path d="M193.49,38.42a23.72,23.72,0,0,0-7.61-8.59,23.54,23.54,0,0,0-12-4.64c-5.08-.31-10.18-.35-15.27-.48l-23.65-.62a8,8,0,0,1-1,0,35.52,35.52,0,0,0-11,.09c-4.77.77-9,2.54-12.07,6.48L95.07,50.85Q77.62,73.33,60.16,95.79h0l-.37.47-1.17,1.51-.08.09,0,.06,3.14,2.36L72.84,85.71h0c5.06-6.61,10.23-13.1,12.39-15.39A12.07,12.07,0,0,1,83,75.56c-3.63,4.79-7.3,9.57-11,14.34V90c-3.64,5.15-6.48,8.92-8.64,11.65l1.86,1.4c.09-.15.19-.29.29-.42l.65-.85,0,0h0c6-8,12.13-15.86,18.13-23.84a26.78,26.78,0,0,0,2.76-4.92c1.14-2.46,2.18-5,3.11-7.52A26.92,26.92,0,0,1,94.53,58q9.72-12.43,19.38-24.91c3-3.85,7.24-5.08,11.77-5.24s9,.21,13.54.34c7.89.21,15.77.4,23.66.63,3.69.11,7.4.14,11.07.48a16.74,16.74,0,0,1,5.65,1.54c5.4,2.63,9.86,6.23,11.44,12.44a12.23,12.23,0,0,1-.55,8A144,144,0,0,1,177.4,76.09c-5.37,7.92-20.23,11.34-28.23.54a33.29,33.29,0,0,1-4.92-10.16,66.94,66.94,0,0,1-2.44-13.55,19.42,19.42,0,0,0-5.27-11.42c-.61-.67-1.25-1.31-1.91-1.93a9,9,0,0,0-11.32-1.18c-3,1.85-5.09,4.63-7.24,7.33-4.13,5.22-8.2,10.49-12.36,15.69a7.46,7.46,0,0,0-1.27,7.42,48.38,48.38,0,0,0,2.24,5.74,5.9,5.9,0,0,1-.93,6.64c-2.07,2.66-4.13,5.32-6.22,8l-23,29.25c-1.37,1.74-2.74,3.5-4.15,5.2a13,13,0,0,1-6,3.7c-5.12,1.8-10.22,3.64-15.39,5.28a21.58,21.58,0,0,0-11.08,7.75c-7.35,9.69-15,19.18-22.48,28.75a23.94,23.94,0,0,1-1.73,2.08,2.64,2.64,0,0,1-4.11.16c-1.25-1.09-1.39-2.05-.18-3.66,3.16-4.21,6.39-8.36,9.62-12.51q9.91-12.75,19.85-25.49c3.53-4.54,7-9.11,10.61-13.62a7.85,7.85,0,0,1,2.25-1.83c1.82-1,3.65-2.08,5.54-3h0a17.46,17.46,0,0,0,4-3.32l-1.86-1.4c-.4.44-.72.79-1,1a2.58,2.58,0,0,1-.56.56l-.06.06h0a8.82,8.82,0,0,1-2.89,1.09c.4-.55.76-1.1,1.13-1.63h0l0,0a14.57,14.57,0,0,1,1.1-1.43l.65-.85-3.18-2.39-4.31,5.51h0Q41.15,120.21,32,131.94q-10.75,13.82-21.53,27.6c-1.62,2.07-3.3,4.11-4.76,6.29a6.19,6.19,0,0,0,1.36,8.77c3.08,2.43,6.44,2.32,9.09-.33a26.87,26.87,0,0,0,2.09-2.42Q30.15,156.71,42,141.56a11.77,11.77,0,0,1,5.65-4.2c3.2-1,6.35-2.26,9.52-3.38,3.56-1.26,7.15-2.45,10.68-3.79a13.13,13.13,0,0,0,5.85-4.38c2.7-3.52,5.51-7,8.25-10.44q12.5-15.89,25-31.78c2.63-3.32,2.88-6.85,1.37-10.65-.64-1.6-1.24-3.23-1.95-4.8a4,4,0,0,1,.72-4.54c4.14-5.21,8.15-10.53,12.35-15.69A43.56,43.56,0,0,1,125.3,42a4.7,4.7,0,0,1,6-.06c3.14,2.65,5.67,5.75,6.34,10,.55,3.48.83,7,1.53,10.47,1.22,6,3.09,11.75,6.91,16.7,10.69,13.86,28.66,8.48,34.89-1A166.46,166.46,0,0,0,194,53.18,16.52,16.52,0,0,0,193.49,38.42Z" fill="#fff"/></svg>