<svg id="Layer_1" data-name="Layer 1" xmlns="http://www.w3.org/2000/svg" viewBox="0 0 200 200"><title>Circuits</title><path d="M180,49.14l2.49.76-.69,2.5,2.06.83c-.75,2.14-1.48,4.25-2.23,6.35-1.69,4.72-3.38,9.45-5.11,14.16A21.59,21.59,0,0,1,167,84.93c-4.77,2.88-9.7,5.51-14.59,8.19s-10,5.37-15,8.06l-36.52,19.69c-2.17,1.17-3.45.9-5-1a9.77,9.77,0,0,1-.65-.91A14.71,14.71,0,0,0,89,113.23c-4.32-1.92-8.53-4.16-13-5.72-5.8-2-11.41-.78-16.57,2.37a26.71,26.71,0,0,0-5.14,3.88c-4.23,4.29-5.21,9.54-4.16,15.36.9,4.95,3.7,8.72,7,12.27,1.92,2.06,3.66,4.28,5.42,6.48,2.26,2.83,2,5.23-.75,7.6s-5.47,4.57-8.21,6.85q-10,8.26-19.92,16.51c-2,1.65-3.91,3.37-5.89,5-3.07,2.57-5.77,2.35-8.22-.82-4.39-5.68-8.68-11.42-13-17.14a9.65,9.65,0,0,1-1.73-5.84c-.1-3.94-.23-7.87-.32-11.81A3.77,3.77,0,0,1,7,144.37c5.52-2.25,11-4.47,16.57-6.71,4.65-1.89,9.29-3.81,13.94-5.69a2.29,2.29,0,0,0,1.63-2.56c-.15-2.57-.09-5.16-.22-7.73a3.85,3.85,0,0,0-.76-1.89c-4.19-5.88-8.42-11.73-12.62-17.6-.65-.91-1.22-1.89-1.85-2.82C22,96.84,22.5,94.67,25.07,93s4.85-3.22,7.37-4.66a124,124,0,0,1,11.14-6c4.9-2.17,10.27-2.51,15.53-3.24a129.66,129.66,0,0,1,37,.67c5.89.87,11.76,1.87,17.67,2.6a43.72,43.72,0,0,0,15.67-.61A37.25,37.25,0,0,0,143.36,75c.49-.37,1-.75,1.46-1.1,2.19-1.52,3.06-1.31,4.56.87s2.92,4.12,4.44,6.13a1.78,1.78,0,0,0,2.8.34c1.17-.86,2.46-1.55,3.65-2.38A12.1,12.1,0,0,0,165,72.61c1.08-3.19,2.58-6.24,3.84-9.37.91-2.27.69-2.61-1.56-3.26a25.35,25.35,0,0,1-3.71-1.29c-2.11-1-2.95-2.49-2.31-4.7,1.41-4.86,2.91-9.69,4.6-14.46,2.53-7.16,5.25-14.26,7.9-21.38,1.16-3.11,2.42-4,5.76-3.69,4.43.42,8.85,1,13.27,1.58a2.84,2.84,0,0,1,2.5,3.91c-.91,3.15-2,6.26-3.06,9.36-1.81,5.23-3.66,10.44-5.5,15.66a6.11,6.11,0,0,1-.27.57l-2.36-.6-.79,2.36,2.43.94L185,50.68,182.48,50l.73-2.54-2.35-.86,8.91-25.47c-.68-.16-1.11-.3-1.56-.36-3-.46-5.94-.88-8.9-1.37-.77-.13-1.26,0-1.48.79A36.31,36.31,0,0,1,172,32.08c-1.36,1.89-2,4.33-2.79,6.58-1.73,5-3.39,9.94-5,14.93-.64,2-.42,2.3,1.56,3,1,.36,2.07.59,3.11.89,2.52.74,3.75,2.59,3.08,5.13a51.91,51.91,0,0,1-2.18,5.78c-.77,1.92-1.75,3.76-2.34,5.73-1.08,3.59-3.7,5.78-6.59,7.77-1,.72-2.15,1.35-3.24,2-2.15,1.26-3.75,1.18-5.42-.66s-3.06-3.89-4.56-5.87c-.28-.37-.49-.79-.82-1.35l-4.48,3.15a35.2,35.2,0,0,1-16,6.18,53.27,53.27,0,0,1-11.91,0c-6.8-.72-13.55-1.89-20.33-2.86A122.26,122.26,0,0,0,65.92,81.3c-5.18.46-10.34,1.27-15.48,2.05-4.81.74-9.1,2.9-13.21,5.39C33.78,90.84,30.39,93,27,95.21c-1.84,1.17-1.88,1.28-.66,3q7.1,10.05,14.26,20.06a5.53,5.53,0,0,1,1.19,3.48c0,2.81.06,5.63.18,8.44a3.48,3.48,0,0,1-2.08,3.66Q35.07,136,30.18,138q-10.69,4.35-21.42,8.61a1.89,1.89,0,0,0-1.39,2.11c.16,3.65.21,7.31.27,11a8.8,8.8,0,0,0,1.87,5.47c4.21,5.4,8.32,10.87,12.48,16.31,1.17,1.54,2,1.73,3.52.48,3.71-3,7.33-6.14,11-9.19q11.68-9.71,23.38-19.4c1.74-1.45,1.79-2.09.33-3.84-2.7-3.24-5.51-6.39-8.16-9.68-6.36-7.88-8-21.38,1.54-29.35,8.66-7.25,18.21-8.82,28.56-3.81,2.7,1.31,5.35,2.73,8.08,4a18.44,18.44,0,0,1,7.61,7.1c.59.9,1.08,1,2,.49q19.41-10.54,38.85-21c4.41-2.38,8.88-4.65,13.23-7.14a82.23,82.23,0,0,0,6.95-4.75c2.13-1.53,4.15-3.21,6.29-4.72,4.18-3,6.2-7.28,7.81-11.91C175.29,62.23,177.62,55.75,180,49.14Zm12.85-30.28-14-1.64a1.87,1.87,0,0,0-2.19,1.32L173.7,26.8a2.66,2.66,0,0,0,.86-1.23c.79-2.16,1.56-4.32,2.34-6.48a1.46,1.46,0,0,1,1.8-1.14c3.56.57,7.13,1.11,10.7,1.65a1.54,1.54,0,0,1,1.44,1.88,7.67,7.67,0,0,1-.45,1.77q-2.41,7-4.84,14L183,44.43l.51.28a7.14,7.14,0,0,0,.7-1.19q2.94-8.28,5.84-16.58C191,24.34,191.84,21.72,192.81,18.86ZM162.07,84.43c5.3-2.71,9.83-6.19,11.93-12q3.44-9.59,6.84-19.2c.1-.29-.09-.68-.15-1-.25.28-.62.52-.73.84-2.17,6-4.28,12.1-6.45,18.14-1.78,5-4.64,9.07-9.38,11.67A16,16,0,0,0,162.07,84.43Z" fill="#fff"/></svg>