<svg id="Layer_1" data-name="Layer 1" xmlns="http://www.w3.org/2000/svg" viewBox="0 0 200 200"><title>Circuits</title><path d="M149.85,67,146,65.69c-1.92,3.45-3.9,6.95-5.82,10.48Q132,91.29,123.83,106.44c-6.11,11.35-12.17,22.72-18.3,34.06-4.88,9-9.78,18.06-14.79,27-2.41,4.31-4.73,8.75-7.75,12.62C74.57,191,63.54,196.39,49.6,194.48c-8.9-1.22-16-5.79-21.38-12.87-6.54-8.54-8.22-18.38-8-28.87.38-14.84.36-29.68.59-44.52.21-13.52.13-27.07.9-40.56.81-14.12,9.93-26.55,24.57-30.14,6.62-1.63,13.37-2.74,20.07-4.05,5.29-1,10.6-1.94,15.88-3C86,29.67,90,31,91.81,34c1.59,2.59,2.29,7.28-.58,10a11.8,11.8,0,0,1-4.95,2.8c-3.75,1-7.7,1.31-11.42,2.39-1.87.55-4.14,1.8-5,3.4-3.08,5.84-8.15,7.76-14.17,8.51-5.67.71-9.49,3.95-8.57,10.52.3,2.16.47,4.33.68,6.5a8.05,8.05,0,0,0,12,6.45c6-3.25,11.93-6.73,17.87-10.13q16.49-9.44,33-18.9c4.46-2.57,8.81-5.32,13.31-7.79,5.33-2.92,8.4-7.47,10.43-13a109.6,109.6,0,0,1,4.36-10.07c2.56-5.3,7.16-8.22,12.56-9.83,7.25-2.16,14.56-4.12,21.88-6,5.8-1.49,11.34-1.42,15.56,3.83a11.44,11.44,0,0,1,.55,12.86c-1.94,3.29-6.6,5.32-10.67,4.64-1.92-.32-3.84-.68-5.75-1-4-.76-6.66.25-8.8,3.78-2.64,4.35-5.14,8.79-7.6,13.25-2.75,5-5.36,10.07-8.08,15.08-1.54,2.83-1.59,2.79.81,4.79A6.27,6.27,0,0,1,149.85,67ZM140,61.46a21.47,21.47,0,0,0,2.22-2.12c1.21-1.51,2.29-3.14,3.45-4.7,2.68-3.59,5.59-7,8-10.78s4.24-7.74,6.46-11.55c3.13-5.37,8-8.5,13.94-6.46a24.3,24.3,0,0,0,4.89.78c3.9.48,7.32-1.51,8.17-4.84.93-3.64-.43-8.28-4.34-9.2a16.79,16.79,0,0,0-7.43-.47c-8.3,2-16.5,4.43-24.73,6.72a12.38,12.38,0,0,0-7.32,5.35A61.41,61.41,0,0,0,138,35.25c-2.4,6.55-5.89,12.09-12.07,15.65q-12.21,7-24.4,14.06Q81.72,76.35,61.89,87.72c-6.52,3.75-15.69.12-17.26-7.17-.8-3.7-.8-7.58-1-11.38-.18-3,1.15-5.43,3.08-7.7,2.58-3,6.12-3.63,9.66-4.14C60.27,56.77,64,56,65.91,52a10.62,10.62,0,0,1,7.17-6c4.36-1.07,8.77-1.89,13.14-2.9a4.18,4.18,0,0,0,3.38-4.77c-.39-2.68-2.59-4.76-5-4.56a54,54,0,0,0-5.56.86c-9,1.7-17.95,3.55-27,5.12C45,41,38.53,43.39,33.58,48.76,27.65,55.18,25.11,63,24.88,71.61c-.28,10.78-.31,21.57-.45,32.36q-.32,25.42-.64,50.84c-.08,6.7.82,13.19,3.86,19.26,8.06,16.09,27.29,22.56,43.41,12.38,6.78-4.28,11.23-10.5,15-17.37,3.18-5.86,6.42-11.68,9.46-17.61,4-7.78,7.93-15.6,11.67-23.51,4-8.51,7.42-17.33,11.75-25.68,6.55-12.64,13.68-25,20.49-37.47A10.82,10.82,0,0,0,140,61.46ZM110.47,121.1l.91.53c.4-.6.85-1.17,1.19-1.81q5.06-9.27,10.09-18.57,9.4-17.38,18.75-34.78a15.57,15.57,0,0,0,.92-3.19,11.48,11.48,0,0,0-2.46,2.36c-7,12.72-14,25.46-20.81,38.27C116.05,109.57,113.33,115.37,110.47,121.1Zm37.22-66.3-.86-.57c-1.41,2.2-2.85,4.38-4.2,6.62-.18.3.07.87.13,1.31.43-.18,1.08-.24,1.26-.56C145.3,59.37,146.48,57.08,147.69,54.81Z" fill="#fff"/></svg>