<svg id="Layer_1" data-name="Layer 1" xmlns="http://www.w3.org/2000/svg" viewBox="0 0 200 200"><title>Circuits</title><path d="M119.16,166.12c1.25-3.7,1.24-3.69-2.09-6.34Q95.6,142.66,74.16,125.51q-29-23.29-57.89-46.67c-5.09-4.1-5.63-9.41-1.44-14.38,3.72-4.42,4-8.5,1-13.49a127.44,127.44,0,0,1-6.5-12c-3.79-8.45-1.22-19.19,6.23-24.59,5.2-3.76,11.2-4.77,17.38-4.44,9.18.49,16.88,4.43,23.81,10.42C65.23,27.65,74,34.52,82.64,41.63,87.83,45.91,89.43,51.8,86.4,57A12.9,12.9,0,0,1,81,61.86c-8.68,4-16.34,1.55-23.36-4.27-6.61-5.48-13.3-10.87-20-16.29-1.35-1.1-2.81-2.36-4.6-1.19A4.48,4.48,0,0,0,31,45.48C33,51.72,35.16,57.9,36.83,64.21,39.37,73.77,45.28,80.72,53,86.43c2.28,1.68,4.41,3.54,6.6,5.34,2.69,2.21,5.51,2.08,7.58-.8,4.18-5.8,9.84-9,16.67-10.8,7.91-2,15.7-4.51,23.59-6.61,6.75-1.8,15.62,2.33,18.35,10C130.53,97,136,110,141.13,123.28c3.46,9,6.78,18,10.21,27,1.22,3.21,2.48,6.4,3.92,9.52a3.24,3.24,0,0,0,2.22,1.62c.53.06,1.48-1,1.75-1.75,1.49-4.11,2.75-8.31,4.25-12.41.9-2.47.21-4.46-1.06-6.56a39.54,39.54,0,0,1-3.28-6.65c-1.33-3.6-.14-6.68,2.42-9.41,4.31-4.58,13.74-5.64,18.24,1.63,3.93,6.34,8.12,12.53,12.29,18.72a16.58,16.58,0,0,1-.82,19.92c-5.16,6.44-10.37,12.85-15.43,19.38s-17.11,9.54-25.79,2c-8.11-7-16.71-13.51-25.12-20.19C121.92,163.72,121.89,163.76,119.16,166.12ZM72.89,60.76a55.85,55.85,0,0,0,6.8-2.06A7.64,7.64,0,0,0,82.84,47a20,20,0,0,0-3.57-3.69C71.06,36.52,62.66,29.94,54.62,23c-7.49-6.52-15.85-10.11-25.87-9.59-13.64.7-21.12,12-16,24.62,1.84,4.5,4.51,8.68,7,12.9,2.11,3.58,2.33,11.42-2,15.3-3.22,2.89-2.88,7.33.56,10.09,10.78,8.66,21.54,17.36,32.4,25.91,5.86,4.61,11.82,9.11,17.94,13.38,4.49,3.13,9.62,5.38,13.91,8.75,15,11.8,29.81,23.92,44.7,35.9q12.83,10.32,25.69,20.6c6.57,5.24,15.79,5.11,21.52-1A190.79,190.79,0,0,0,189,162.07c3.29-4.46,3.85-9.49.49-14.43-1.35-2-2.59-4.05-3.91-6.07-3.15-4.82-6.22-9.7-9.51-14.43-2.19-3.17-6.36-3.68-10.18-1.57-3.47,1.92-4.58,4.92-3,8.75a26.19,26.19,0,0,0,2.7,5c1.71,2.49,2.51,5.06,1.52,8-1.67,5-3.24,10-5.08,14.88a5.32,5.32,0,0,1-2.64,2.57c-3.1,1.41-6-.11-7.5-3.84q-5.07-12.7-10-25.46c-6.4-16.61-13-33.16-19-49.91a13.09,13.09,0,0,0-16.42-8.35c-7.51,2.5-15.15,4.63-22.81,6.62a22.26,22.26,0,0,0-13,8.58c-3.9,5.3-9.09,5.6-14,1.37-3-2.57-6.14-5-9.18-7.51-3.92-3.27-8-6.66-9.84-11.44-3.69-9.53-6.89-19.27-10-29-1.08-3.33.6-6.56,3.55-8.43,2.61-1.65,5.42-1.4,8.31.91Q49,46,58.59,53.88C62.76,57.28,67,60.54,72.89,60.76Zm1.21,58.82-.47.7c1.07.95,2.11,1.94,3.23,2.83q19.06,15.26,38.15,30.5c2.28,1.82,4.56,3.63,6.91,5.35.47.34,1.28.22,1.94.31-.3-.61-.6-1.21-.91-1.82,0-.07-.13-.11-.2-.16C109.34,146.45,96,135.55,82.49,124.8,79.93,122.77,76.91,121.31,74.11,119.59Zm50.65,39.9-.56.7a11.49,11.49,0,0,0,1.61,2.05q14,11.3,28.06,22.52c5,4,13.13,3.62,16.61-.7a1.71,1.71,0,0,0-.48-.1,3.42,3.42,0,0,0-.75.16c-6.36,2-12.1,1-17.32-3.27-8.13-6.7-16.36-13.27-24.57-19.86A18.87,18.87,0,0,0,124.76,159.48Z" fill="#fff"/></svg>