<svg id="Layer_1" data-name="Layer 1" xmlns="http://www.w3.org/2000/svg" viewBox="0 0 200 200"><title>Circuits</title><rect x="143.47" y="85.99" width="2.1" height="2.1" transform="translate(-19.89 124.88) rotate(-44.02)" fill="#fff"/><rect x="146.45" y="86.04" width="2.1" height="2.1" transform="translate(-19.09 126.96) rotate(-44.02)" fill="#fff"/><rect x="146.5" y="83.07" width="2.1" height="2.1" transform="translate(-17.01 126.16) rotate(-44.02)" fill="#fff"/><rect x="146.4" y="89.01" width="2.1" height="2.1" transform="translate(-21.17 127.76) rotate(-44.02)" fill="#fff"/><rect x="149.37" y="89.07" width="2.1" height="2.1" transform="translate(-20.37 129.84) rotate(-44.02)" fill="#fff"/><rect x="149.42" y="86.09" width="2.1" height="2.1" transform="translate(-18.29 129.04) rotate(-44.02)" fill="#fff"/><rect x="149.32" y="92.04" width="2.1" height="2.1" transform="translate(-22.45 130.64) rotate(-44.02)" fill="#fff"/><rect x="152.29" y="92.09" width="2.1" height="2.1" transform="translate(-21.65 132.72) rotate(-44.02)" fill="#fff"/><rect x="152.34" y="89.12" width="2.1" height="2.1" transform="translate(-19.57 131.92) rotate(-44.02)" fill="#fff"/><rect x="152.24" y="95.06" width="2.1" height="2.1" transform="translate(-23.73 133.52) rotate(-44.02)" fill="#fff"/><rect x="155.21" y="95.11" width="2.1" height="2.1" transform="translate(-22.93 135.6) rotate(-44.02)" fill="#fff"/><rect x="155.26" y="92.14" width="2.1" height="2.1" transform="translate(-20.85 134.8) rotate(-44.02)" fill="#fff"/><rect x="155.16" y="98.09" width="2.1" height="2.1" transform="translate(-25.01 136.4) rotate(-44.02)" fill="#fff"/><rect x="158.13" y="98.14" width="2.1" height="2.1" transform="translate(-24.21 138.48) rotate(-44.02)" fill="#fff"/><rect x="158.19" y="95.16" width="2.1" height="2.1" transform="translate(-22.13 137.68) rotate(-44.02)" fill="#fff"/><rect x="158.08" y="101.11" width="2.1" height="2.1" transform="translate(-26.29 139.28) rotate(-44.02)" fill="#fff"/><rect x="161.11" y="98.19" width="2.1" height="2.1" transform="translate(-23.41 140.56) rotate(-44.02)" fill="#fff"/><path d="M154.33,89.58l-.23-.24A1.38,1.38,0,0,0,154.33,89.58Z" fill="#fff"/><path d="M195.31,39.92c-.81-5.75-2.34-11.1-5.63-16a32.5,32.5,0,0,0-19.92-13.75c-2.91-.72-5.84-1.31-8.77-2-7.44-1.67-14.87-3.41-22.33-5-2.93-.61-6-.95-8.85.38a18.27,18.27,0,0,0-9.67,10.16c-2.43,6.24,1.72,12.2,7.61,13.37,2.9.58,5.79,1.18,8.68,1.81a3.21,3.21,0,0,1,2.7,3.74c-.26,2.58-.46,5.17-.85,7.73a64,64,0,0,1-1.41,6.66,2.4,2.4,0,0,1-1.34,1.32c-1.81.72-3.68,1.32-5.54,1.91-5.74,1.81-10.7.27-14.83-3.85s-8-8.41-12-12.62c-3.16-3.33-6.28-6.72-9.56-9.94a6.86,6.86,0,0,0-9.28-.39,63.25,63.25,0,0,0-5.85,5.3,16.82,16.82,0,0,0-5.07,12.77c.13,3.19.06,6.4.06,9.6,0,7.15.11,14.3-.07,21.45-.1,3.95-1.15,7.74-4.34,10.43A43.87,43.87,0,0,1,62.46,88c-14.71,8.26-29.23,16.81-42.8,26.88-2.58,1.92-4.3,4.51-3.64,7.83a8.34,8.34,0,0,0,6,6.69c4.09,1.24,8.19,2.43,12.32,3.52,2.77.73,5.6,1.59,8.49.76,1.79-.51,3.51-1.28,5.26-1.93l0,0a21.58,21.58,0,0,0,2.63-2.38c3.2-4,6.33-8,9.46-12.09,3.48-4.49,6.89-9,10.41-13.47a18.05,18.05,0,0,1,7-5.84q9.78-4.1,19.61-8.05l.13,0,4.72-2h0l.78-.31,1.69-.72,0,0,7.87-3.15a2.3,2.3,0,0,1,2.86,1.09,1.58,1.58,0,0,1-.38,2.07c-2.78,2.67-5.62,5.29-8.47,8v0l-4.29,4.4a22.41,22.41,0,0,1-2,2.09c-6.22,6-12.31,12.23-18.75,18-9.17,8.27-18.58,16.27-27.93,24.35-4.56,3.95-9.14,7.88-13.82,11.68-3.58,2.9-7.47,2.65-11.29.42-3.35-2-6.59-4.08-9.91-6.09a28.66,28.66,0,0,0-4.31-2.32,4.79,4.79,0,0,0-6.16,2.42,7,7,0,0,0-.54,4.91C9,162,10.79,169.3,12.57,176.59c.68,2.8,2,5.3,4.67,6.69,7.45,3.95,15,7.78,22.46,11.63a6.48,6.48,0,0,0,4.28.76c2.63-.5,4.5-2.24,6.33-3.93,9.19-8.49,18.31-17,27.46-25.58l34.37-32.06,34.2-31.9,6-5.6-2.24-2.38-81.2,75.72-.22-.18c.3-.37.62-.74.91-1.12,3.6-4.6,8.25-8.12,12.48-12.06,7.75-7.21,15.53-14.4,23.25-21.65q16-15,31.91-30.12l12-11.36.06-.06-.77-.81q-3.13,3-6.25,5.94l-22.15,20.91C109.27,129.71,98.4,140,87.45,150.28c-4.82,4.5-9.9,8.72-14.68,13.26a82.45,82.45,0,0,0-7,7.89,155.26,155.26,0,0,1-19.44,19.33A10.49,10.49,0,0,1,44.57,192c-2.08,1.15-3.72.3-3.91-2-.14-1.75-.05-3.53-.28-5.26-.5-3.79-2.65-5.27-6.44-4.77s-7.61.91-11.43,1.3a5.59,5.59,0,0,1-6.16-3.92c-1-3.1-1.73-6.3-2.52-9.48q-1.59-6.45-3.06-12.94a9.08,9.08,0,0,1-.18-2.61c.12-1.78,1.33-2.52,2.91-1.71s3.1,1.81,4.63,2.76c3,1.87,6,3.92,9.09,5.59,4.36,2.32,9,2.75,13.17-.22,4-2.86,7.76-6.15,11.51-9.38C62.46,140.2,73,131.07,83.46,121.83c4.49-4,8.75-8.2,13.05-12.37,6.83-6.62,13.61-13.3,20.4-20,2-2,2.39-4.2,1.17-6.41a5.26,5.26,0,0,0-6.23-2.6A71,71,0,0,0,105,83.12C95.67,87,86.31,90.87,76.92,94.71a19.07,19.07,0,0,0-6.66,4.59c-1.65,1.74-3.12,3.64-4.72,5.43a3.07,3.07,0,0,1-1.44.94,25.63,25.63,0,0,1-4.11.71c-3,.23-5.72-1.76-6.2-5.38a9.39,9.39,0,0,1-.15-1.55c.06-1.63.35-3,2.08-3.92,4.33-2.38,8.62-4.89,12.74-7.61,5.08-3.35,7.64-8.22,8.25-14.32.65-6.48,0-12.94.11-19.41.06-3.92.07-7.84-.16-11.75-.3-5,1.7-9,5.16-12.41a53.08,53.08,0,0,1,4.05-3.55c2.26-1.8,4.19-1.67,6.22.4C93.76,28.57,95.35,30.3,97,32c5.47,5.77,10.79,11.71,16.46,17.27,4.91,4.82,11,6.35,17.6,4.11,8.43-2.85,16.78-5.94,25.14-9a7.76,7.76,0,0,0,5.24-7.08c0-3.22-3.15-7.07-6.34-7.74L128.58,24c-4.85-1-7.05-5.16-5.1-9.69a14.81,14.81,0,0,1,7.39-7.55c2.59-1.27,5.37-.73,8-.16,9.87,2.14,19.71,4.43,29.57,6.62a8.35,8.35,0,0,1,5.39,4.09c2.94,4.85,5.73,9.79,8.49,14.75,2.59,4.64,5,9.36,7.59,14a8.56,8.56,0,0,1,.32,8.12,30.58,30.58,0,0,1-8,10.48c-4.33,3.85-8.42,8-12.89,11.66-3.51,2.88-7.45,5.23-11.16,7.86-1.75,1.24-3.43,2.6-5.19,4l1.12,1.19a3.2,3.2,0,0,1-.29-.47l7.55-5.68.13.14c-.47.53-.91,1.09-1.4,1.59s-1.05,1-1.57,1.46c-1,1-2.1,1.94-3.13,2.95-.37.36-.69.54-1,.25l2.59,2.76c2.09-2,4.08-3.85,6.11-5.71q10.44-9.55,20.89-19.09c2.86-2.62,5.75-5.21,7.61-8.71C194.69,52.91,196.27,46.74,195.31,39.92Zm-169.12,144,7.1-.81c.16,0,.32,0,.48,0,3.38-.73,3.53.78,3.75,3.3.1,1.18,0,2.38,0,3.78L26.11,184.2Zm27.68-77.19c2.42,2.22,5.31,2.53,8.71,2.1-1.1,1.45-2,2.65-2.91,3.84-3.63,4.67-7.23,9.36-10.93,14-2.42,3-5.73,4.58-9.51,3.88-4.7-.87-9.3-2.28-13.91-3.56a11.37,11.37,0,0,1-4-1.67c-3-2.34-2.79-5.58.3-7.79A310.05,310.05,0,0,1,49.45,99.22L51,98.34C51.24,101.46,51.44,104.46,53.87,106.69Zm87.85-76.62c4,.85,8,1.74,12.1,2.56a5,5,0,0,1,3,1.83c2.15,2.63,1.49,5.56-1.69,6.82-4.08,1.62-8.22,3.08-12.34,4.61-.89.33-1.79.63-2.81,1C140.77,41.24,141.94,35.78,141.73,30.07Zm50.54,14.59L176.68,16.46C184.63,18.71,193.29,34.18,192.26,44.65Z" fill="#fff"/></svg>