<svg id="Layer_1" data-name="Layer 1" xmlns="http://www.w3.org/2000/svg" viewBox="0 0 200 200"><title>Circuits</title><path d="M116.44,187.48a15.64,15.64,0,0,0-.62-10.62,11,11,0,0,0-2.93-4.34,4.64,4.64,0,0,0-6-.67,32,32,0,0,0-2.72,2.22c-1.24,1-2.42,2.1-4.39,1.89a15.44,15.44,0,0,1-1.14-2.13c-1.24-3.47-2.41-7-3.62-10.46q-2.63-7.6-5.28-15.2l-4.95-14.26-5-14.49c-1.27-3.64-2.57-7.27-3.81-10.93-.58-1.71-.47-3.37,1.05-4.59,2.69-2.15,5.37-4.32,8.18-6.31,1.78-1.27,3.51-.8,4.79,1a5.78,5.78,0,0,1,.84,1.8c.7,2.59,1.3,5.21,2,7.8a27.18,27.18,0,0,0,1.7,5.25c4.52,8.8,17.56,11.16,24,1.75,1.61-2.36,3.19-4.75,4.9-7,1.55-2.08,3-4.36,5-6a18,18,0,0,1,13.17-3.92c7.35.55,12.34,4.52,15.54,10.85a54.15,54.15,0,0,1,2.79,8.06c1.63,5.11,3.16,10.26,4.83,15.36a88.34,88.34,0,0,0,3.43,9.44,34.83,34.83,0,0,0,9.18,12.18c1.32,1.12,2.91,1.84,4.66,1.12s2.33-2.53,2.53-4.34a4.16,4.16,0,0,0-.08-1q-1.34-9.86-2.67-19.72c-.42-3.16-1-6.32-1.17-9.5a23.23,23.23,0,0,0-3.2-10.23c-4.45-8-9-15.94-13.43-23.93-2.16-3.88-4.34-7.77-6.32-11.74a9.36,9.36,0,0,1-.77-7.11,16.3,16.3,0,0,1,5.32-7.51,3.26,3.26,0,0,1,3.77-.39c2.05,1,2.87,2.58,2.07,4.74a22.55,22.55,0,0,1-2.12,3.68,6.36,6.36,0,0,0,2.59,9.22,9.56,9.56,0,0,0,6.65.59,10.53,10.53,0,0,0,8-8.78,16,16,0,0,0-1-9.61C180,54.74,174.8,50,168.2,50.13c-5.78.12-11.57.22-17.35.34-3.18.07-6.37.17-9.55.27l-2.44,0c-4.52.12-9,.27-13.57.37a5.85,5.85,0,0,1-1.21-.14l.37,4a6,6,0,0,1,1.23-.21c6.45-.15,12.91-.31,19.36-.4a29.65,29.65,0,0,0,9.91-1.41,17.2,17.2,0,0,1,5-.61c2.76-.13,5.53-.11,8.29-.21,4.88-.18,10.23,3.63,12.18,8.69a13.32,13.32,0,0,1,.1,10.28,8.39,8.39,0,0,1-9.66,5c-3.74-.82-5-4.15-2.88-7.33a17.32,17.32,0,0,0,2.16-4.21,4.87,4.87,0,0,0-2-5.78c-2-1.45-4.36-2.18-6.56-.57-4.47,3.28-7.41,7.51-7.28,13.34a5.27,5.27,0,0,0,.4,1.4c1.35,4.19,3.67,7.9,5.77,11.71,4.05,7.35,8.06,14.72,12.12,22.07.65,1.17,1.43,2.27,2.16,3.39a21.85,21.85,0,0,1,3.76,10.53c.19,2.76.52,5.51.9,8.25.65,4.65,1.4,9.29,2.07,13.95.35,2.41.63,4.83.9,7.25.17,1.52,0,1.89-1.58,3.7a16.47,16.47,0,0,1-3-1.89,38.84,38.84,0,0,1-9.9-15.83c-1.45-4.55-2.82-9.13-4.26-13.69L162.56,119c-1.17-3.58-1.77-7.36-3.56-10.73-3.76-7.1-9.38-11.52-17.64-12.06a25.67,25.67,0,0,0-10.09,1.72,13.79,13.79,0,0,0-7.15,5.64c-2.35,3.48-4.94,6.81-7.23,10.33-3.77,5.8-11.37,7.24-17.61,2.31a10,10,0,0,1-3.61-5.61c-.87-3.59-1.89-7.14-2.9-10.68a8.5,8.5,0,0,0-1.12-2.5C89.5,94.31,87.09,93.79,84,96c-2.89,2-5.64,4.24-8.4,6.44a5.21,5.21,0,0,0-1.67,6.51c1.33,3.53,2.51,7.11,3.75,10.68q2.65,7.6,5.29,15.2c2,5.78,4.07,11.55,6.06,17.33.68,2,1.16,4,1.85,6,1.94,5.54,3.93,11.06,5.92,16.58a9.15,9.15,0,0,0,.66,1.36c1.13,2,2.77,2.64,4.87,1.63a24.68,24.68,0,0,0,3.55-2.36c.54-.39,1-.95,1.51-1.33,1.85-1.3,3.19-1.19,4.61.54a11.42,11.42,0,0,1,1.94,3.21c1.92,5.21,1.41,10.11-2.32,14.08-2.39,2.54-5.5,3.28-8.74,3.16A17.82,17.82,0,0,1,86.36,183c-3.05-8.34-6.44-16.56-9.62-24.86-1.62-4.22-3-8.53-4.63-12.75s-3.46-8.36-5.12-12.56c-2.93-7.4-5.8-14.83-8.68-22.25-2.49-6.41-4.93-12.84-7.43-19.24C47.46,82.64,44,73.94,40.57,65.2,36.4,54.5,32.29,43.77,28.12,33.07c-3.38-8.67-6.81-17.32-10.21-26a19.54,19.54,0,0,1-.51-2c.87.24,1.51.23,1.87.54C23,8.82,26.65,11.89,28.7,16.6c6.74,15.54,13.68,31,20.55,46.47a14.44,14.44,0,0,0,.67,1.35c1,1.65,1.36,1.84,3.25,1.51a59.66,59.66,0,0,0,10.77-2.55c3.9-1.48,7.89-2.71,11.84-4.06a86.34,86.34,0,0,1,8.35-2.77,44.84,44.84,0,0,1,8.23-.95c7-.27,13.91-.39,20.86-.56,2.38-.06,4.75-.09,7.06-.13l-.34-3.68L47.17,53c-.52-1-1-1.83-1.34-2.66q-2.57-5.74-5.11-11.49c-3.18-7.21-6.4-14.41-9.52-21.65A32.44,32.44,0,0,0,23.64,6a15.39,15.39,0,0,0-4.23-2.66c-2.3-1-4.07.33-3.91,2.82A5.84,5.84,0,0,0,16,7.85q6.77,17.34,13.54,34.67,5.49,14.05,11,28.11,7.49,19.21,15,38.42c.48,1.22,1,2.42,1.62,3.88l1.6,4.45q5.33,13.71,10.68,27.41,4.38,11.25,8.76,22.5c2.09,5.39,4.38,10.72,6.21,16.2A19.76,19.76,0,0,0,102.66,197C109.29,197.11,114,194.7,116.44,187.48ZM49.06,55c5.19-.16,10.39-.54,15.57-.36,7.8.26,15.55-.79,23.33-.5a13,13,0,0,0,1.73-.16l.11.39c-.4.08-.79.19-1.2.22-5,.46-9.56,2.46-14.25,4-2.3.76-4.66,1.35-7,2.05a14.66,14.66,0,0,0-1.59.68,45.12,45.12,0,0,1-12.06,3.43,2.43,2.43,0,0,1-2.82-1.57l-3.5-7.73A7.32,7.32,0,0,1,49.06,55Z" fill="#fff"/><rect x="119.68" y="47.49" width="1.38" height="1.38" transform="translate(-3.81 10.89) rotate(-5.1)" fill="#fff"/><rect x="121.18" y="48.75" width="1.38" height="1.38" transform="translate(-3.91 11.03) rotate(-5.1)" fill="#fff"/><rect x="122.43" y="47.25" width="1.38" height="1.38" transform="translate(-3.77 11.14) rotate(-5.1)" fill="#fff"/><rect x="119.92" y="50.25" width="1.38" height="1.38" transform="translate(-4.05 10.92) rotate(-5.1)" fill="#fff"/><rect x="121.42" y="51.5" width="1.38" height="1.38" transform="translate(-4.16 11.06) rotate(-5.1)" fill="#fff"/><rect x="122.68" y="50" width="1.38" height="1.38" transform="translate(-4.02 11.17) rotate(-5.1)" fill="#fff"/><rect x="120.17" y="53" width="1.38" height="1.38" transform="translate(-4.29 10.96) rotate(-5.1)" fill="#fff"/><rect x="121.67" y="54.25" width="1.38" height="1.38" transform="translate(-4.4 11.1) rotate(-5.1)" fill="#fff"/><rect x="122.92" y="52.75" width="1.38" height="1.38" transform="translate(-4.26 11.2) rotate(-5.1)" fill="#fff"/><rect x="120.41" y="55.75" width="1.38" height="1.38" transform="translate(-4.54 10.99) rotate(-5.1)" fill="#fff"/><rect x="121.91" y="57.01" width="1.38" height="1.38" transform="translate(-4.64 11.13) rotate(-5.1)" fill="#fff"/><rect x="123.17" y="55.51" width="1.38" height="1.38" transform="translate(-4.51 11.23) rotate(-5.1)" fill="#fff"/><rect x="120.66" y="58.51" width="1.38" height="1.38" transform="translate(-4.78 11.02) rotate(-5.1)" fill="#fff"/><rect x="123.41" y="58.26" width="1.38" height="1.38" transform="matrix(1, -0.09, 0.09, 1, -4.75, 11.27)" fill="#fff"/></svg>