<svg id="Layer_1" data-name="Layer 1" xmlns="http://www.w3.org/2000/svg" viewBox="0 0 200 200"><title>Circuits</title><rect x="155.99" y="15.13" width="1.58" height="1.58" transform="translate(43.76 125.74) rotate(-49.97)" fill="#fff"/><rect x="158.22" y="14.93" width="1.58" height="1.58" transform="translate(44.71 127.38) rotate(-49.97)" fill="#fff"/><rect x="158.03" y="12.7" width="1.58" height="1.58" transform="translate(46.35 126.43) rotate(-49.97)" fill="#fff"/><rect x="158.42" y="17.16" width="1.58" height="1.58" transform="translate(43.07 128.32) rotate(-49.97)" fill="#fff"/><rect x="160.65" y="16.97" width="1.58" height="1.58" transform="translate(44.01 129.96) rotate(-49.97)" fill="#fff"/><rect x="160.45" y="14.74" width="1.58" height="1.58" transform="translate(45.65 129.02) rotate(-49.97)" fill="#fff"/><rect x="160.84" y="19.2" width="1.58" height="1.58" transform="matrix(0.64, -0.77, 0.77, 0.64, 42.38, 130.9)" fill="#fff"/><rect x="163.07" y="19" width="1.58" height="1.58" transform="translate(43.32 132.54) rotate(-49.97)" fill="#fff"/><rect x="162.88" y="16.77" width="1.58" height="1.58" transform="translate(44.96 131.6) rotate(-49.97)" fill="#fff"/><rect x="163.27" y="21.23" width="1.58" height="1.58" transform="translate(41.68 133.49) rotate(-49.97)" fill="#fff"/><rect x="165.49" y="21.04" width="1.58" height="1.58" transform="translate(42.63 135.12) rotate(-49.97)" fill="#fff"/><rect x="165.3" y="18.81" width="1.58" height="1.58" transform="translate(44.26 134.18) rotate(-49.97)" fill="#fff"/><rect x="165.69" y="23.27" width="1.58" height="1.58" transform="translate(40.99 136.07) rotate(-49.97)" fill="#fff"/><rect x="167.72" y="20.84" width="1.58" height="1.58" transform="translate(43.57 136.76) rotate(-49.97)" fill="#fff"/><path d="M160.55,20a4.13,4.13,0,0,1-.71,1.12q-7.43,8.15-14.91,16.26L119.4,65.22Q108.1,77.55,96.8,89.89q-16.86,18.38-33.74,36.75-13.74,15-27.44,30c-5.48,6-11,11.92-16.41,18-2.56,2.87-5.08,5.63-9.21,6.05-.51.05-1,.25-1.52.34a6.33,6.33,0,0,0-5.31,4.6c-1.6,4.84.72,8.45,5,9.18a9.18,9.18,0,0,0,6.74-1.51c2.75-1.82,4.74-4.37,6.92-6.76,6.51-7.15,13.1-14.23,19.65-21.35q14.36-15.63,28.7-31.28l23.09-25.2L115.88,84,134,64.23q7.42-8.08,14.83-16.17c3.1-3.4,6.2-6.79,9.24-10.24a20.51,20.51,0,0,1,10-6.46c7.91-2.26,15.77-4.69,23.61-7.15a7.93,7.93,0,0,0,3.08-2c4.81-4.83,1.82-12.55-1.57-15.16a10.14,10.14,0,0,0-8.89-1.63c-4.31,1-8.56,2.29-12.83,3.5a2.77,2.77,0,0,0-1.13.82c-2.17,2.31-4.31,4.64-6.49,7l3.69,3h0c1.8-2,3.54-4,5.46-5.84a7,7,0,0,1,2.71-1.14c3.23-1,6.47-2,9.73-3a9.48,9.48,0,0,1,2.84-.35A3.06,3.06,0,0,1,191.59,12a24.44,24.44,0,0,1,1.15,4.48,3.35,3.35,0,0,1-2.67,3.64c-6,1.79-11.93,3.59-17.9,5.36-2.49.74-5,1.36-7.5,2.1a32.1,32.1,0,0,0-3,1.17,9.64,9.64,0,0,0-3.59,2.68c-4,4.55-8.17,9-12.28,13.47Q138.38,53,130.93,61q-9.3,10.1-18.59,20.21Q102.48,92,92.65,102.73,82.27,114,71.88,125.34,56.61,142,41.34,158.67c-7.55,8.2-15.19,16.33-22.78,24.5-1.47,1.58-2.85,3.25-4.41,4.74a14.46,14.46,0,0,1-3.31,2.3,2.33,2.33,0,0,1-3.4-1.2c-.65-1.33-.35-2.41,1.14-3.18a15.63,15.63,0,0,1,3.36-1.22,17.12,17.12,0,0,0,8.93-5.22c7.93-8.83,16-17.5,24.07-26.25l23.44-25.53L102.94,90Q121,70.35,139,50.7q11.37-12.35,22.8-24.65c.62-.68,1.26-1.34,1.83-2.06a4.11,4.11,0,0,0,.5-.85L160.63,20h-.06" fill="#fff"/></svg>