<svg id="Layer_1" data-name="Layer 1" xmlns="http://www.w3.org/2000/svg" viewBox="0 0 200 200"><title>Circuits</title><path d="M194.32,12.92a4.39,4.39,0,0,0-1.18-3.33,5,5,0,0,0-3.93-1.17h0c-4.81.14-15.8.37-26.43.6l-12,.26c-2.81.06-5,2.37-6.2,3.61-1.4,1.47-5.47,5.61-9.4,9.6-4.62,4.7-9,9.14-9.77,10a1.17,1.17,0,0,1-.9.49h0a1.64,1.64,0,0,1-1.12-.59l-1-1.16c-.49-.55-1-1.13-1.68-1.85A5.15,5.15,0,0,0,117,27.65a4.67,4.67,0,0,0-3.33,1.46c-.29.3-93.48,92.76-106.51,105.47-1.84,1.79-2.49,3.77-1.78,5.43.77,1.82,3,2.8,6,2.71,8.48-.26,43-.35,46.65-.28A43,43,0,0,0,89.28,130a44.72,44.72,0,0,0,13.17-29.54c.26-6.18,3.78-11.2,8-11.42,2.44-.13,4.08-1.1,4.61-2.7.06-.07.5-.44,2.67-.41H118c19.86,0,39.21-.13,46.49-.16l3.37,0c2.07,0,2.5,1.83,2.5,3.36v35.72c0,2.53-1.91,5.5-3.68,7.2-4.85,4.65-17.73,17.61-28.08,28-4.28,4.31-8.1,8.15-10.66,10.72a9,9,0,0,1-5.82,2c-2.16,0-29,.07-52.82.1v3c23.8,0,50.7-.07,52.87-.1,2.35,0,5.84-.81,7.9-2.87,2.57-2.57,6.39-6.41,10.67-10.72,10.34-10.4,23.2-23.35,28-28,2.12-2,4.6-5.71,4.6-9.37V89.07c0-3.86-2.16-6.36-5.5-6.36l-3.39,0c-7.28,0-26.62.13-46.48.16h-.18c-1.29,0-4.71,0-5.53,2.42-.12.36-.9.64-1.95.69-5.85.32-10.51,6.46-10.85,14.29-.94,22-19.51,39.56-41.34,39.14-3.69-.07-38.29,0-46.79.29-1.9,0-3-.42-3.17-.89s.13-1.15,1.12-2.11C19.63,126.62,113.9,33.2,115.83,31.2a1.56,1.56,0,0,1,1.15-.56,2.19,2.19,0,0,1,1.49.77c.65.7,1.16,1.27,1.64,1.81l1.07,1.19A4.6,4.6,0,0,0,124.51,36h0a4.14,4.14,0,0,0,3.11-1.47c.74-.81,5.29-5.44,9.69-9.91,3.94-4,8-8.15,9.43-9.64.88-.92,2.53-2.65,4.09-2.68l12-.26c10.63-.23,21.63-.46,26.45-.6,1.25,0,1.64.21,1.75.32a1.79,1.79,0,0,1,.27,1.18c0,46.71.42,146.54.57,172.61,0,1.38-.14,2.09-.52,2.47a3.77,3.77,0,0,1-2.41.59c-9.32,0-156.94-.57-160.88-.85-3-.22-3.72-.53-4.55-2.11s-.67-2.67,1.57-6.28c1.8-2.89,4.26-3.48,7.39-3.48l32.74,0v-3l-32.74,0c-3.41,0-7.26.58-9.94,4.9-2,3.23-3.41,6-1.68,9.26,1.63,3.1,3.83,3.47,7,3.7,4,.28,151.76.86,161.09.86a6.11,6.11,0,0,0,4.54-1.48c1.24-1.24,1.4-2.95,1.39-4.6C194.74,159.45,194.32,59.62,194.32,12.92Z" fill="#fff"/><rect x="67.9" y="178.66" width="1.33" height="1.33" transform="translate(136.59 358.86) rotate(-179.83)" fill="#fff"/><rect x="66.57" y="177.33" width="1.33" height="1.33" transform="translate(133.94 356.19) rotate(-179.83)" fill="#fff"/><rect x="65.24" y="178.65" width="1.33" height="1.33" transform="translate(131.27 358.84) rotate(-179.83)" fill="#fff"/><rect x="67.91" y="176" width="1.33" height="1.33" transform="translate(136.62 353.53) rotate(-179.83)" fill="#fff"/><rect x="66.58" y="174.66" width="1.33" height="1.33" transform="translate(133.97 350.86) rotate(-179.83)" fill="#fff"/><rect x="65.25" y="175.99" width="1.33" height="1.33" transform="translate(131.29 353.51) rotate(-179.83)" fill="#fff"/><rect x="67.92" y="173.33" width="1.33" height="1.33" transform="translate(136.64 348.21) rotate(-179.83)" fill="#fff"/><rect x="66.59" y="172" width="1.33" height="1.33" transform="translate(133.99 345.53) rotate(-179.83)" fill="#fff"/><rect x="65.25" y="173.33" width="1.33" height="1.33" transform="translate(131.32 348.18) rotate(-179.83)" fill="#fff"/><rect x="67.93" y="170.67" width="1.33" height="1.33" transform="translate(136.67 342.88) rotate(-179.83)" fill="#fff"/><rect x="66.6" y="169.34" width="1.33" height="1.33" transform="translate(134.02 340.2) rotate(-179.83)" fill="#fff"/><rect x="65.26" y="170.66" width="1.33" height="1.33" transform="translate(131.34 342.86) rotate(-179.83)" fill="#fff"/><rect x="67.93" y="168.01" width="1.33" height="1.33" transform="translate(136.69 337.55) rotate(-179.83)" fill="#fff"/><rect x="65.27" y="168" width="1.33" height="1.33" transform="translate(131.36 337.53) rotate(-179.83)" fill="#fff"/></svg>