<svg id="Layer_1" data-name="Layer 1" xmlns="http://www.w3.org/2000/svg" viewBox="0 0 200 200"><title>Circuits</title><path d="M195.43,153.75a8.8,8.8,0,0,1,.1-1.3c.27-1.12,1-2.09,1.29-3.24a5.23,5.23,0,0,0-1.31-2.63,16,16,0,0,1-1.3-1.76c-2.49-3.58-4.92-7.2-7.44-10.76-1.16-1.64-2.35-3.28-3.49-4.93-3-4.41-6.06-8.85-9.14-13.23-.87-1.24-1.66-2.51-2.59-3.71l-.31-.41c-.39-.53-.73-1.09-1.08-1.64-.87-1.35-1.88-2.6-2.79-3.91-3-4.41-6.06-8.84-9.14-13.23-.83-1.18-1.63-2.38-2.46-3.55-1.59-2.23-3.12-4.51-4.72-6.73-3.35-4.64-6.41-9.49-9.83-14.08-.63-.85-1.2-1.73-1.81-2.59-3.18-4.47-6.16-9.07-9.41-13.48-2.65-3.6-5-7.37-7.68-11-2.21-3-4.31-6.1-6.47-9.14-2-2.85-3.93-5.77-6-8.56C108.39,22,107.06,20,105.67,18s-2.82-4-4.24-5.95S98.36,7.89,96.9,5.75A4.9,4.9,0,0,0,96,4.59a4.09,4.09,0,0,0-3.57-.77c-1.21.28-2.41.64-3.64.87-1.74.32-3.4,1-5.16,1.31-2.34.45-4.57,1.34-6.93,1.8S72,9.15,69.55,9.7c-7,1.57-13.81,3.78-20.7,5.64-8.68,2.35-17.33,4.91-26,7.42a12.5,12.5,0,0,0-1.23.48c-1.19.47-.87,2.59-.63,3.47.47,1.71,1,3.42,1.44,5.13.94,3.53,1.77,7.08,2.37,10.68.48,2.89,1.6,6.55.13,9.3a12.54,12.54,0,0,1-1.11,1.64C19.35,59.36,14,64.6,10.39,71.16A2.6,2.6,0,0,0,10,72c-.13,1.12-.75,2.09-.91,3.2-.08.6-.36,1.17-.41,1.79a13.25,13.25,0,0,1-.45,1.9c-.7,3-.8,6-1.24,9-.17,1.16-.22,2.34-.48,3.5A21,21,0,0,0,6,94.51c-.12,1.83-.45,3.63-.74,5.42-.37,2.32-.76,4.66-1.36,6.94-.27,1-.47,2.06-.63,3.11A8.68,8.68,0,0,0,5,116.45c1.55,2.23,3,4.52,4.7,6.66A17,17,0,0,0,12.72,126a6.53,6.53,0,0,0,2,.85,18.17,18.17,0,0,0,3.48.71,8.69,8.69,0,0,0,5.1-.86c1.83-.89,3.66-1.77,5.48-2.69,2.08-1,4.09-2.21,6.26-3.09.71-.29,1.46-.49,2.16-.8a8.13,8.13,0,0,1,4.92-.5A49.61,49.61,0,0,1,48.3,122c.93.37,1.87.74,2.81,1.08a17.14,17.14,0,0,0,7.34,1,8.81,8.81,0,0,0,4-1.37c.79-.51,1.57-1,2.36-1.52a5.57,5.57,0,0,1,2.36-.93,36.16,36.16,0,0,1,3.93-.17c1.75,0,3.5-.06,5.25-.05s3.36,0,5-.12,3.19-.08,4.77-.06c2.32,0,4.64-.09,7,0,3,.17,6,.09,8.93.15a18.6,18.6,0,0,1,3.52.11,10.38,10.38,0,0,1,3.16,1.26c1.55.91,3.16,1.72,4.71,2.62,3.62,2.12,7.12,4.4,10.71,6.57.46.28.9.58,1.34.88s1.09.73,1.62,1.11a6.39,6.39,0,0,1,1.26.88l.31.46a12.14,12.14,0,0,1,1.75,3.11c.77,2.65,1.56,5.3,2.28,8a20.23,20.23,0,0,1,.39,2.5l-1,1.28a5.5,5.5,0,0,1,.33,1.61,4,4,0,0,0,.37,1.47c.55,2.28,1.17,4.54,1.77,6.8A100.12,100.12,0,0,0,138,169.92a12.14,12.14,0,0,0,1,2.14,7.45,7.45,0,0,0,1.2,1.36c1.61,1.49,3.37,2.79,5.06,4.18l2.77,2.28a19.15,19.15,0,0,0,2.55,2.09c1.06.87,2.1,1.74,3.17,2.6.48.39,1,.75,1.46,1.12.29.21,1.23.72,1.38,1.07l.36-.48a5.23,5.23,0,0,1-1.29-.9c-.79-.63-1.52-1.34-2.34-1.93-2.06-1.49-4-3.25-5.92-4.87a16.74,16.74,0,0,0-2.15-1.76,7,7,0,0,1-1.16-.93c-1.22-1.1-2.6-2-3.73-3.23a9.19,9.19,0,0,1-1.45-2.26,35.17,35.17,0,0,1-2.3-6.56c-.28-1.06-.68-2.09-.89-3.16-.47-2.39-1.31-4.68-1.82-7.05-.32-1.53-.8-3-1.17-4.63l.55-.84a2.45,2.45,0,0,1,.31.54c.22,1.09.55,2.25.83,3.33a3.79,3.79,0,0,0,.2.51c.45,1.07.44,2.27.82,3.36s.71,2.31,1.05,3.48l1.06,3.66c.35,1.22.63,2.47,1.08,3.65a16.61,16.61,0,0,0,1.93,4,14.52,14.52,0,0,0,2.61,2.9,41.57,41.57,0,0,1,3.25,2.68c1.11,1.08,2.35,2,3.47,3.08a34.87,34.87,0,0,0,3.64,2.87c.78.57,1.45,1.25,2.21,1.8s1.23.9,1.83,1.39l1.18-1.57a4.18,4.18,0,0,1-.72-.48c-2.24-1.74-4.39-3.54-6.58-5.35q-1.37-1.13-2.74-2.29c-1.72-1.45-3.43-2.9-5.16-4.33a9,9,0,0,1-2-2.74,16.23,16.23,0,0,1-1.39-3.41c-1-3.5-2-7-3-10.49-.37-1.32-.63-2.67-1-4s-.88-2.68-1.14-4c-.69-3.61-2-7-2.89-10.59a8.86,8.86,0,0,0-3-4.35c-2-1.3-4.07-2.56-6-4-1.46-1.07-3.16-1.86-4.7-2.82-2-1.24-4-2.4-6-3.57A22.17,22.17,0,0,0,106,118.5a18.08,18.08,0,0,0-3.48-.29c-3.05,0-6.1,0-9.16,0-1.59,0-3.18-.08-4.77,0-1,0-2.11-.05-3.17,0-4.23.18-8.54.09-12.74.19-1.35,0-2.7,0-4,0a8.75,8.75,0,0,0-4.44,1.15c-.68.45-1.41.83-2.09,1.28-2.94,2-6.73,1.73-10,.71-.86-.27-1.69-.6-2.52-.93-2.66-1.07-5.24-2.11-8-3a4.06,4.06,0,0,0-1.57-.09,14.08,14.08,0,0,0-5.4,1.52c-2.54,1.05-4.89,2.46-7.36,3.64-1.72.83-3.43,1.7-5.16,2.5a8.91,8.91,0,0,1-5.4.29,8.28,8.28,0,0,1-2.69-.93c-2.09-1.2-3.3-3.11-4.68-5l-.62-.85a27.6,27.6,0,0,1-3.22-5,8,8,0,0,1-.18-5c.31-1.4.76-2.78,1-4.17.18-1,.42-2,.55-3,.17-1.32.37-2.65.6-4,.28-1.55.49-3.12.67-4.69s.32-3.39.57-5.07c.28-1.89.42-3.78.68-5.67a45.56,45.56,0,0,1,.91-4.73,26.77,26.77,0,0,1,1-3.93C13.09,69.3,16,66,18.74,62.55c1-1.31,1.94-2.68,3.1-3.91A24.13,24.13,0,0,0,25,54.9a13.59,13.59,0,0,1,1-1.58,4.79,4.79,0,0,0,.32-.4,2.92,2.92,0,0,0,.24-.48,8.74,8.74,0,0,0,.83-5c-.33-2-.59-4-1.06-5.88-.37-1.52-.65-3.08-1-4.63-.65-3.17-1.46-6.3-2.35-9.41-.22-.77-.31-1.59-.47-2.45l.34-.62c4.43-1.28,8.86-2.63,13.33-3.78l2.46-.63.77-.2c3.71-1,7.36-2.13,11.05-3.17,5.34-1.5,10.66-3.07,16-4.4,2.71-.67,5.34-1.6,8.06-2.15,2.31-.47,4.51-1.33,6.8-1.77,1.75-.34,3.42-1,5.16-1.3s3.51-1,5.28-1.34c1-.22,2.07-.49,2.95.27.92,1.31,1.77,2.6,2.7,3.83,1.86,2.46,3.57,5,5.4,7.51,1.52,2.06,2.84,4.26,4.42,6.27,1.81,2.31,3.36,4.78,5.09,7.13,2.27,3.11,4.43,6.31,6.65,9.47.54.76,1.09,1.52,1.62,2.28q2.59,3.68,5.18,7.37c1.73,2.47,3.44,5,5.17,7.43,5.37,7.67,10.61,15.44,16.1,23,.78,1.08,1.41,2.19,2.27,3.21A25.65,25.65,0,0,1,151.83,87c.64,1.08,1.46,2,2.17,3.08s1.44,2.16,2.18,3.24,1.47,2.14,2.21,3.21l2.15,3.1c.74,1.07,1.4,2.2,2.21,3.21S164.25,105,165,106q3.08,4.38,6.14,8.78c2.06,3,4.06,6,6.16,8.92.88,1.24,1.72,2.5,2.61,3.73L181,129c3.27,4.52,6.36,9.18,9.53,13.77.65.93,1.3,1.87,2,2.78.53.72,1.12,1.39,1.63,2.12a15.32,15.32,0,0,1,.81,1.43c-1.14,1.4-1,3.14-1.47,4.86a13.37,13.37,0,0,1-1.41.61c-1.25.39-2.53.72-3.79,1.11a39.7,39.7,0,0,0-7.06,2.52,26.87,26.87,0,0,0-5.45,4,10.81,10.81,0,0,0-1.32,1.65,13,13,0,0,0-1.62,3.48,60,60,0,0,0-2,6.26,9.48,9.48,0,0,1-.53,1.65c-.41,1-.52,2-.86,3a45.8,45.8,0,0,0-1.53,5.67c-.14.67-.36,1.89-1,2.31l-1,.69c-.84.13-2,.57-2.77.14l-1.55-.85a1.24,1.24,0,0,1-.28-.2l-1.09,1.45c.29.2.58.4.88.59a7,7,0,0,0,2.17,1.14,1.69,1.69,0,0,0,.37,0,6.85,6.85,0,0,0,2.66-.57,17.54,17.54,0,0,0,2.39-1.58c.27,1.43,1.59,2.17,1.74,3.58a4.5,4.5,0,0,1-5.24,5.06,1.76,1.76,0,0,1-1.39-1.34c-.08-.3-.17-.59-.25-.88a6.9,6.9,0,0,0-1.18-2.8l-.11-.12a24.17,24.17,0,0,0-2.75-2.12l-.29.39c.46.07,1.15,1,1.4,1.26a9.9,9.9,0,0,1,1.67,1.68,3.3,3.3,0,0,1,.56,1.39,5.36,5.36,0,0,0,.08.69,2.47,2.47,0,0,0,.2.49,3.37,3.37,0,0,0,1.88,1.9,2.45,2.45,0,0,0,.83.17,4.06,4.06,0,0,0,3.43-1.19,9.71,9.71,0,0,0,1.43-2.1,3.7,3.7,0,0,0-.56-4.27,4.53,4.53,0,0,1-1-1.55,3.11,3.11,0,0,1,.13-1.44c.24-1.2.47-2.41.8-3.57a33.25,33.25,0,0,1,.93-3.32c.49-1.21.75-2.59,1.15-3.84q.68-2.16,1.42-4.29c.34-1,.75-1.92,1.1-2.89a10.09,10.09,0,0,1,.76-2.37,23.9,23.9,0,0,1,3.15-3.48,14.32,14.32,0,0,1,2.9-2,19.1,19.1,0,0,1,3.15-1.31c2.56-.85,5.13-1.63,7.7-2.43.66-.21,1.34-.39,2-.57.08-.14.1-.24.16-.29A2.25,2.25,0,0,0,195.43,153.75Z" fill="#fff"/><rect x="156.04" y="190.95" width="1.22" height="1.22" transform="translate(171.19 438.59) rotate(-144.09)" fill="#fff"/><rect x="155.77" y="189.25" width="1.22" height="1.22" transform="translate(171.7 435.35) rotate(-144.09)" fill="#fff"/><rect x="154.06" y="189.52" width="1.22" height="1.22" transform="translate(168.45 434.84) rotate(-144.09)" fill="#fff"/><rect x="157.47" y="188.97" width="1.22" height="1.22" transform="translate(174.95 435.85) rotate(-144.09)" fill="#fff"/><rect x="157.2" y="187.27" width="1.22" height="1.22" transform="translate(175.45 432.6) rotate(-144.09)" fill="#fff"/><rect x="155.49" y="187.54" width="1.22" height="1.22" transform="translate(172.2 432.1) rotate(-144.09)" fill="#fff"/><rect x="158.91" y="186.99" width="1.22" height="1.22" transform="translate(178.7 433.11) rotate(-144.09)" fill="#fff"/><rect x="158.63" y="185.29" width="1.22" height="1.22" transform="translate(179.21 429.86) rotate(-144.09)" fill="#fff"/><rect x="156.93" y="185.56" width="1.22" height="1.22" transform="translate(175.96 429.36) rotate(-144.09)" fill="#fff"/><rect x="160.34" y="185.02" width="1.22" height="1.22" transform="translate(182.45 430.37) rotate(-144.09)" fill="#fff"/><rect x="160.07" y="183.31" width="1.22" height="1.22" transform="translate(182.96 427.12) rotate(-144.09)" fill="#fff"/><rect x="158.36" y="183.58" width="1.22" height="1.22" transform="translate(179.71 426.62) rotate(-144.09)" fill="#fff"/><rect x="161.77" y="183.04" width="1.22" height="1.22" transform="translate(186.21 427.63) rotate(-144.09)" fill="#fff"/><rect x="159.79" y="181.6" width="1.22" height="1.22" transform="translate(183.47 423.87) rotate(-144.09)" fill="#fff"/></svg>