<svg id="Layer_1" data-name="Layer 1" xmlns="http://www.w3.org/2000/svg" viewBox="0 0 200 200"><title>Circuits</title><path d="M40,41.71c-5.16-2.4-8.07-6.82-10.16-11.94-1.7-4.17-3.27-8.39-5.08-12.5-2.83-6.44-7.9-8.32-14.3-5.46s-8.48,10-4.64,15.36q54.79,76,109.68,151.85a26.49,26.49,0,0,0,8.24,7.27c14.39,8.1,34.64.15,40.58-15.66a42.89,42.89,0,0,0,2.28-18.79c-.39-4.83-1.1-9.64-1.84-14.44-.61-3.94.11-6.87,3.94-9.1,7.16-4.17,14-8.94,21.08-13.18,4.31-2.58,6.42-6.06,6.37-11-.09-9.8-.1-19.6-.13-29.4,0-5.06-2.14-8.91-6.7-11.12C185,61.48,181,62.23,177.13,65c-15.28,11.12-30.64,22.14-46,33.2-5.82,4.2-6.7,7.16-4.08,13.81,5,12.64,10,25.24,14.92,37.92,1.74,4.54,1.77,9.22-.87,13.52-2.16,3.52-4.53,3.59-7,.36-1.25-1.6-2.47-3.23-3.56-4.94a4.76,4.76,0,0,1-.89-2.66c.27-3.37-1.58-5.21-4.05-7.14a60.92,60.92,0,0,1-10-9.3c-4.72-5.82-8.84-12.13-13.29-18.17l-.14-.2L100.28,123c4.64,6.33,9.28,12.65,13.75,19.09a33.08,33.08,0,0,0,10,9.3c1.95,1.21,2.47,2.84,3,5.09a24.85,24.85,0,0,0,4.6,8.67c4.63,6.11,9,4.16,12.42-1.33a28.08,28.08,0,0,0,1.67-3.88c2.07,3.81.46,7.59-3.94,9.63-4.57,2.12-7.83,1.28-10.77-2.79q-15.63-21.66-31.28-43.32l-3.44,2.81c.07.08.15.17.21.25,10.24,14.06,20.73,28,30.46,42.37,6.63,9.81,18.6,6.06,23-1.36a8.91,8.91,0,0,0,.39-8.36q-9.59-24.09-19.07-48.23c-2.09-5.31-1.78-6.46,2.83-9.8Q156.41,85,178.77,68.92c2.74-2,5.7-3.16,8.87-1.43s4.13,4.52,4.1,8q-.11,13.91.12,27.81c.05,3.48-1,6-4.15,7.89-7.48,4.5-14.72,9.39-22.18,13.93-4.24,2.59-5.81,6.22-5.22,11,.55,4.38,1.32,8.73,1.78,13.11.67,6.54.6,13.07-1.64,19.37-5.11,14.35-23.8,21.28-36,13.23a23.29,23.29,0,0,1-5.75-5.73q-27.16-37.41-54.15-74.95Q37,62.88,9.4,24.63c-2-2.79-1.64-5.31,1.05-7.62,3.07-2.63,6.65-3,8.76-.58a15.09,15.09,0,0,1,2.25,4.14c2.11,4.95,3.92,10,6.24,14.88,4.74,9.9,15.45,14,24.84,9.78a18.88,18.88,0,0,0,3.15-1.93c8.18-5.87,16.38-11.71,24.47-17.7a6.89,6.89,0,0,1,5.91-1.25c17.17,3.28,34.34,6.55,51.54,9.68,4.46.81,7.18,3.32,8.25,7.52,1.3,5.11,1,10.18-2.88,14.12s-9,5.11-14.65,3.42c-14.29-4.29-28.6-8.54-43-12.56-8.49-2.38-15.26,1.31-20.81,7.33-6.84,7.43-8.12,16-3.95,25.26a16.35,16.35,0,0,0,3,3.91c2.06,2.27,4.47,4.27,6.28,6.71,6.52,8.79,12.89,17.71,19.23,26.64.05.07.09.16.14.23l3.36-2.66C86.75,105.77,80.91,97.52,75,89.35l.51-.36L93.2,113.5l2.13-1.69c-4.73-6.37-9.44-12.75-13.91-19.3a27.09,27.09,0,0,0-9.8-8.93c-3.26-1.75-6.49-3.94-7.86-7.86-2.36-6.77-1.36-13,3.37-18.3,4.59-5.17,10.06-8.8,17.48-6.66,14.34,4.13,28.63,8.42,43,12.56,7.48,2.16,14.18.53,19.17-5.46s5.22-13,2.28-20c-1.95-4.66-5.66-7.17-10.67-8.09-17-3.11-34-6.26-51-9.62a11.93,11.93,0,0,0-10.14,2.17c-7,5.14-14.08,10.07-21,15.24-4.34,3.24-8.66,6.19-14.18,4.82Z" fill="#fff"/><rect x="105.03" y="103.1" width="3.98" height="3.98" transform="translate(123.38 -44.01) rotate(51.78)" fill="#fff"/><rect x="104.37" y="108.69" width="3.98" height="3.98" transform="translate(127.51 -41.35) rotate(51.78)" fill="#fff"/><rect x="109.95" y="109.35" width="3.98" height="3.98" transform="translate(130.16 -45.49) rotate(51.78)" fill="#fff"/><rect x="98.78" y="108.02" width="3.98" height="3.98" transform="translate(124.86 -37.22) rotate(51.78)" fill="#fff"/><rect x="98.12" y="113.61" width="3.98" height="3.98" transform="translate(129 -34.57) rotate(51.78)" fill="#fff"/><rect x="103.7" y="114.27" width="3.98" height="3.98" transform="translate(131.65 -38.7) rotate(51.78)" fill="#fff"/><rect x="92.53" y="112.94" width="3.98" height="3.98" transform="translate(126.34 -30.43) rotate(51.78)" fill="#fff"/><rect x="91.87" y="118.53" width="3.98" height="3.98" transform="translate(130.48 -27.78) rotate(51.78)" fill="#fff"/><rect x="97.45" y="119.19" width="3.98" height="3.98" transform="translate(133.13 -31.92) rotate(51.78)" fill="#fff"/><rect x="86.28" y="117.86" width="3.98" height="3.98" transform="translate(127.83 -23.64) rotate(51.78)" fill="#fff"/><rect x="91.2" y="124.11" width="3.98" height="3.98" transform="translate(134.61 -25.13) rotate(51.78)" fill="#fff"/></svg>