<svg id="Layer_1" data-name="Layer 1" xmlns="http://www.w3.org/2000/svg" viewBox="0 0 200 200"><title>Circuits</title><path d="M186.82,112.8c2.43-4.76,1.64-7.17-2.1-9.79q-14-9.79-28-19.44Q133,67.26,109.2,51q-31-21.29-62-42.6c-5.89-4-12.11-4.78-18.66-1.74A21.21,21.21,0,0,0,15.85,23.51c-1.15,7.8,2,14.08,8.48,18.6Q39.76,52.86,55.22,63.57q12,8.33,24.05,16.61c2.81,1.92,5,4.36,5.53,7.7a101.16,101.16,0,0,1,.7,11.67c.23,7.43,3.11,12.64,10.16,14.9,1.7.54,3.44.94,5.1,1.59a13.66,13.66,0,0,1,4.06,2.13c3.57,3.13,5.5,6.89,4.49,11.93a11.14,11.14,0,0,0,3,10.27,27.69,27.69,0,0,1,3.88,5.45,5.89,5.89,0,0,1-.08,6.42c-1.24,1.82-2.64,3.25-5.33,3.58-3.35.4-7,1.28-9.75,3.13-4.37,3-4.35,8-3.33,12.65.94,4.26.51,7.71-3.25,10.45-2.37,1.73-3.06,4.42-2.91,7.24.13,2.53,1.92,4.88,3.81,5,2.5.15,5,0,7.52,0v.27c3.7-.31,7.4-.57,11.1-.94,4-.4,5.91-3,5.26-6.88-.26-1.52-.5-3.05-.78-4.57-1-5.32.06-7.57,4.69-10.45q12.41-7.73,24.77-15.53c11-7,21.91-14,32.87-20.95,5.42-3.45,6.29-6,4-12.07-.16-.43-.33-.87-.53-1.29a6.35,6.35,0,0,1,.6-6.2C185.51,114.71,186.3,113.83,186.82,112.8Zm-3.27.25c-2.74,3.75-3.24,7.54-1,11.7,1.73,3.2.92,5.57-2.55,7.79-6.1,3.89-12.23,7.72-18.34,11.59Q141.29,157,120.93,170c-5,3.21-6.6,7.83-5,13.67a20.68,20.68,0,0,1,.64,3.18c.31,2.59-.58,4-3.1,4.21-4.91.46-9.84.83-14.77.89-1.39,0-3.46-.8-4-1.88a4.45,4.45,0,0,1,1.28-5.7c5.31-3.66,5.58-8.56,4.4-14.18a14.26,14.26,0,0,1,.14-5.71,6.25,6.25,0,0,1,5.08-4.85c2.33-.57,4.64-1.2,7-1.76,7.62-1.8,8.94-8.26,5.55-14.49a27.48,27.48,0,0,0-3.81-5,9.17,9.17,0,0,1-2.36-7.9c1.2-8.46-2.72-14.63-10.85-17.37-1.61-.54-3.26-1-4.86-1.58-5.25-1.92-7.71-5.39-7.89-11-.12-3.7,0-7.42-.4-11.09-.56-5.11-3.28-9-7.54-11.92Q61.71,64.8,43.08,51.94q-8.41-5.79-16.76-11.68c-11.21-7.86-9.79-20.93-1-28.33a5.29,5.29,0,0,1,.41-.43C30,7.49,38,7.64,38,7.64l0,.09a2.24,2.24,0,0,1,.44.09c2.53.89,5.26,1.58,7.45,3C54.68,16.64,63.26,22.73,72,28.63a7.83,7.83,0,0,1,.7.53L88.08,39.71c20.5,14,40.89,28.21,61.33,42.31q16.24,11.2,32.55,22.31C186.15,107.19,186.55,108.94,183.55,113Z" fill="#fff"/></svg>