<svg id="Layer_1" data-name="Layer 1" xmlns="http://www.w3.org/2000/svg" viewBox="0 0 200 200"><title>Circuits</title><path d="M95.1,167.81l2-3.45c-2.41-1.84-4.85-3.72-7.3-5.59-3.39-2.57-6.73-5.22-10.23-7.64-1.06-.73-2.6-.76-3.9-1.15a10.77,10.77,0,0,1-3.14-1.12C59,139.2,45.41,129.56,32,119.69c-5.36-4-10.77-8-14.44-13.77a16.69,16.69,0,0,1-1.78-15.27c3.12-8.28,6.69-16.4,10.31-24.49,5-11.12,7.64-22.81,9.3-34.8.64-4.66,1.67-9.26,2.3-13.92,1.09-8,9.25-11.86,16.16-9.17,5.86,2.28,11.25,5.83,16.75,9,3.41,2,4.33,5.28,4.14,9-.43,8.27-1.31,16.55-1.21,24.82.08,6.1,1.26,12.21,2.25,18.26,1.39,8.53,3,17,4.6,25.53,1.22,6.64,2.52,13.27,3.67,19.92a3.86,3.86,0,0,0,3.72,3.56,13.89,13.89,0,0,1,3.63,1.21c3.4,1.54,4.85,3.86,4.22,7.43a4.31,4.31,0,0,0,2.08,5c10.52,7.38,20.89,15,31.31,22.51,10.75,7.76,21.54,15.47,32.24,23.3,2.71,2,4.94,4.48,5.38,8.1a10.13,10.13,0,0,1-7.23,11c-4.82,1.54-9.58,1.11-14.36-.31-8.59-2.55-15.45-8-22.49-13.18-4.72-3.46-9.35-7-14-10.56-2.79-2.1-5.71-4.06-8.35-6.35-1.59-1.38-2.5-.89-3.45.47a8,8,0,0,0-.67,1.62Zm6.37-8.3a11.19,11.19,0,0,0,1.65,2.1c3.41,2.66,6.86,5.25,10.33,7.83,9.36,7,18.81,13.8,28.05,20.91a19.1,19.1,0,0,0,14.24,4c3.41-.35,6.39-2.53,7.13-5.2a7.7,7.7,0,0,0-3.05-8c-9.9-7.16-19.86-14.25-29.78-21.39-11.65-8.39-23.25-16.84-34.94-25.18-2.69-1.92-3.68-4.22-3-7.44.5-2.52-.38-3.91-2.75-4.78a18.87,18.87,0,0,0-3.3-.86c-2.48-.42-4.28-1.6-4.81-4.18-1.21-6-2.42-11.93-3.54-17.91-2-10.54-3.86-21.09-5.78-31.64-1.14-6.29-2.2-12.56-1.78-19,.51-7.81.71-15.64,1.09-23.47a5.44,5.44,0,0,0-3-5.44c-4.79-2.64-9.51-5.42-14.4-7.85s-11.52.2-12.38,5Q39.21,29,37.29,41.19A109.66,109.66,0,0,1,29,68.12C25.54,76,22.11,84,19,92a12.73,12.73,0,0,0,1,11c2.86,5.11,7.22,8.71,11.81,12.06q20,14.64,40.21,29.12c1.45,1,2.89,2.15,5,1.43.55-.19,1.39.36,2.07.64,1.63.67,3.24,1.37,4.86,2.06a11.17,11.17,0,0,1,2.22,1c4.29,3.11,8.53,6.3,12.84,9.38A8.55,8.55,0,0,0,101.47,159.51Zm36.27,30.23.59-.85L101.1,161.33l-.7,1C112.85,171.43,124.91,181.1,137.74,189.74ZM84.56,149.06l-.61.93C89,153.81,94,157.74,99.3,161.24l.57-.81Z" fill="#fff"/></svg>