<svg id="Layer_1" data-name="Layer 1" xmlns="http://www.w3.org/2000/svg" viewBox="0 0 200 200"><title>Circuits</title><path d="M126.88,149.78l-.39-2.76c-9.65.24-19.25.49-28.85.71s-19,.5-28.49.52c-5.83,0-11.37-1.73-16.77-3.83-8-3.12-15.94-6.62-24.12-9.33-5-1.67-10.44-2.22-15.69-3.19-2.49-.46-3.86-1.54-3.61-3.8.63-5.79,1.24-11.61,2.41-17.3.49-2.38,2.23-4.59,3.69-6.67,5-7.23,10.19-14.37,15.31-21.54a17.09,17.09,0,0,1,7.8-6c8.67-3.47,17.32-7,26-10.48C67.08,65,70,63.82,73,62.67c3.86-1.5,6.16-4.75,8.68-7.75,3.91-4.67,7.8-9.36,11.73-14,1.43-1.69,2.61-1.87,4.31-.34,3.63,3.26,7.22,6.57,10.65,10C114,56.29,119.54,62,124.92,67.9Q138,82.19,150.78,96.73c6.41,7.24,12.59,14.68,19.05,21.88,7.46,8.3,15.14,16.4,22.63,24.68a4.4,4.4,0,0,1,.95,3.2c-.23,1.53-1.75,1.42-3,1.38-9.78-.29-19.55-.69-29.33-.84-10.48-.15-21,0-31.43-.11C127.35,146.89,127.5,148.37,126.88,149.78Zm62.25-5,.2-.5c-3.82-4.11-7.72-8.15-11.45-12.34q-13.05-14.65-26-29.42c-7.68-8.76-15.06-17.8-23-26.3-10.19-10.88-20.82-21.35-31.27-32-1.75-1.78-1.91-1.77-3.42.06-3.63,4.39-7.23,8.8-10.88,13.17-2.61,3.12-5.16,6.24-9.16,7.81-10.53,4.15-21,8.41-31.51,12.67-3.69,1.5-7.44,2.81-9.92,6.37-5.27,7.57-10.74,15-16.1,22.5a15.89,15.89,0,0,0-3.32,7.76c-.38,4-.8,8-1.42,11.93-.29,1.89.27,2.51,2.11,2.76,4.22.56,8.61.75,12.57,2.14,9.44,3.29,18.65,7.24,28,10.82,4.68,1.79,9.5,3.22,14.57,3.22,7.73,0,15.47-.17,23.2-.35a12.72,12.72,0,0,0,6.73-1.72,6,6,0,0,1,2.85-.81c4.88-.18,9.76-.22,14.64-.38,2.55-.09,4.95.08,7.15,1.63.7.49,1.82.39,2.81.57l.27-3.12c.61,3,.61,3,3.71,3,4.54-.08,9.09-.24,13.63-.17,13.07.2,26.14.49,39.21.74C185.26,144.78,187.19,144.75,189.13,144.75Zm-90.32-.84.17.33h22.68l.09-.82a10,10,0,0,0-2.39-.61c-5.78,0-11.56,0-17.33.13A12.49,12.49,0,0,0,98.8,143.91Z" fill="#fff"/></svg>