<svg id="Layer_1" data-name="Layer 1" xmlns="http://www.w3.org/2000/svg" viewBox="0 0 200 200"><title>Circuits</title><path d="M170.75,105.5l-.59-.71a3.79,3.79,0,0,0-4-1.37c-1.77.45-2.78-.52-3.73-1.72a1.57,1.57,0,0,1-.19-1.88c1-1.82.51-3.25-.87-4.74q-24-25.86-47.89-51.8Q104,33,94.49,22.61c-1.73-1.88-3.5-1.81-5.12.19-.57.7-1,1.47-1.62,2.15Q71.33,44.4,54.91,63.84c-4.23,5-8.33,10.17-12.4,15.33A25.66,25.66,0,0,0,40,83.58c-.56,1.11-.82,2.37-1.44,3.44-1.83,3.2-3.71,6.37-5.68,9.48-4.12,6.53-8.39,13-12.44,19.55-2.22,3.61-4,7.4-4,11.87a6,6,0,0,1-3.35,5.58,9.76,9.76,0,0,0-5.55,7.8,2.28,2.28,0,0,1-1.63,2,1.43,1.43,0,0,0-.63.88c-.33,1.09-.54,2.22-.89,3.3-.24.76-.72,1.44-1,2.19a2.27,2.27,0,0,0,2.25,3.15c.57,0,.76.23.87.76a21.61,21.61,0,0,0,.75,2.58c1.5,4.28,4.29,7.14,8.85,8.07.47.1.93.26,1.4.33a1.27,1.27,0,0,1,1.24,1.55,2.31,2.31,0,0,0,2.66,2.46c2-.16,4.07-.36,6.1-.55a3.93,3.93,0,0,0,.56-.12,9.52,9.52,0,0,0,4.74-3.14c.84-.92,1.63-1.88,2.57-3,.68.69,1.32,1.29,1.92,1.94,1.13,1.22,2.16,2.55,3.37,3.69A6,6,0,0,0,45.94,169a15.22,15.22,0,0,0,6.64-3.1,1.19,1.19,0,0,1,1.48-.06c1.43.86,2.82,1.81,4.32,2.52s3.27,1.26,4.9,1.89a3.27,3.27,0,0,1,1.14.57c1,1,1.93,2.16,3,3.12a3.57,3.57,0,0,0,1.93.9A5.8,5.8,0,0,1,72.51,176c.71.55,1.39,1.14,2.08,1.71a4,4,0,0,0,4.67.49,12.07,12.07,0,0,0,2.83-2c1.83-1.8,3.52-3.73,5.29-5.58a2.45,2.45,0,0,1,1-.7c5.56-1.62,11.14-3.21,16.71-4.82a2.18,2.18,0,0,1,2.15.47c.52.43,1,.91,1.5,1.35a39,39,0,0,0,4,3.42c5.34,3.48,11.32,4.43,17.56,4.17a8.72,8.72,0,0,0,8.12-5.18c1.12-2.3,3.29-3.31,5.62-4a19.68,19.68,0,0,0,2.61-.91,15.15,15.15,0,0,1,13.89.2c1.62.82,3.1,1.93,4.67,2.86,2,1.17,3.55.87,5-.91.63-.77,1.19-1.6,1.8-2.38a7.86,7.86,0,0,1,4.63-3.25,7.66,7.66,0,0,0,4.4-2.8c.6-.67,1.24-1.3,1.86-1.95a44.56,44.56,0,0,1,11.71-9.11,4.45,4.45,0,0,0,1.45-1.23,2.28,2.28,0,0,0-.41-3.44,5.2,5.2,0,0,1-1-.93c-1.64-2.33-3.31-4.64-4.84-7-1.06-1.67-1-1.73.28-3.2.14-.17.29-.34.42-.53a2.58,2.58,0,0,0-.07-3.58c-.25-.33-.52-.65-.8-1L176.82,112l-2.19-2.39-2.75,2.4,4.5,5c-.82.15-1.54.27-2.11-.32-1.17-1.19-2.34-2.41-3.52-3.65l-1.37,1.2a26.3,26.3,0,0,1,2.82,2.66,4.68,4.68,0,0,0,4.59,1.73,1.79,1.79,0,0,1,1.81.73c2.55,2.89,5.14,5.73,7.71,8.6.3.33.58.68.91,1.06-.42.49-.8,1-1.2,1.4a3.1,3.1,0,0,0-.49,3.72,43.2,43.2,0,0,0,6.52,10,2.9,2.9,0,0,1-.34.28,60,60,0,0,0-13.27,11.18,5.83,5.83,0,0,1-2.91,1.87,12.29,12.29,0,0,0-6.64,4.83l-1.64,2.19c-1-.64-1.87-1.25-2.79-1.83-6.31-4-12.84-4.59-19.66-1.35-1,.49-2.2.67-3.27,1.07a10.56,10.56,0,0,0-6.23,5.14,5.72,5.72,0,0,1-5.69,3.44c-.73,0-1.45,0-2.2.07h-.56c-1.7-.27-3.21-.49-4.71-.77a18.76,18.76,0,0,1-10.66-5.71,20.77,20.77,0,0,0-1.76-1.64,5.86,5.86,0,0,0-5.74-1.28c-5.75,1.66-11.51,3.29-17.25,5a4.44,4.44,0,0,0-1.76,1.25c-1.15,1.21-2.19,2.52-3.32,3.74A28.17,28.17,0,0,1,79.1,174c-1.64,1.37-1.7,1.36-3.28,0a10.3,10.3,0,0,0-5.68-2.81,1.61,1.61,0,0,1-.85-.52c-.91-.95-1.73-2-2.71-2.86a7.18,7.18,0,0,0-2.16-1.16c-1.45-.57-3-.93-4.38-1.59A38.52,38.52,0,0,1,56,162.67a4.49,4.49,0,0,0-5.53.18,11.81,11.81,0,0,1-4.75,2.43,2.85,2.85,0,0,1-2.81-.81c-.83-.89-1.59-1.84-2.42-2.73A21.22,21.22,0,0,0,38,159.23c-2-1.53-3.94-1.28-5.61.59-.89,1-1.74,2.06-2.66,3a4.43,4.43,0,0,1-4,1.55,16.33,16.33,0,0,0-3.21.19c-.47-2.26-2.13-3.32-4.21-3.6-4.8-.65-7.11-3.66-8-8.09-.32-1.56-.79-2.92-2.49-3.41.4-1.19.77-2.3,1.15-3.41a.5.5,0,0,1,.15-.24c1.56-1.13,2-2.83,2.32-4.59a5.38,5.38,0,0,1,2.94-4.14c4.23-2.24,6-5.84,6-10.5a11.57,11.57,0,0,1,1.48-5.12c2.61-5.49,6.06-10.48,9.35-15.57,3.11-4.82,6.29-9.6,9.25-14.52,1.33-2.2,2.08-4.73,3.29-7a30.58,30.58,0,0,1,3.31-5Q55.5,68.9,64.22,58.57,77.76,42.42,91.36,26.33a.9.9,0,0,1,1.48,0q8.55,9.26,17.12,18.51Q134.15,71,158.35,97.21a1.37,1.37,0,0,1,.34,1.73,4.48,4.48,0,0,0,.45,4.32,11.41,11.41,0,0,0,1.71,2.06c1.59,1.53,3.23,3,4.89,4.59l1.12-1L165,107.56a2.28,2.28,0,0,1,3,.31" fill="#fff"/><rect x="172.88" y="103.12" width="1.87" height="1.87" transform="translate(137.28 -95.2) rotate(48.7)" fill="#fff"/><rect x="172.71" y="105.75" width="1.87" height="1.87" transform="translate(139.2 -94.18) rotate(48.7)" fill="#fff"/><rect x="175.35" y="105.92" width="1.87" height="1.87" transform="translate(140.23 -96.1) rotate(48.7)" fill="#fff"/><rect x="170.07" y="105.58" width="1.87" height="1.87" transform="translate(138.18 -92.26) rotate(48.7)" fill="#fff"/><rect x="169.9" y="108.22" width="1.87" height="1.87" transform="translate(140.1 -91.23) rotate(48.7)" fill="#fff"/><rect x="172.54" y="108.39" width="1.87" height="1.87" transform="translate(141.12 -93.15) rotate(48.7)" fill="#fff"/><rect x="167.26" y="108.05" width="1.87" height="1.87" transform="translate(139.07 -89.31) rotate(48.7)" fill="#fff"/><rect x="167.09" y="110.69" width="1.87" height="1.87" transform="translate(141 -88.28) rotate(48.7)" fill="#fff"/><rect x="169.73" y="110.86" width="1.87" height="1.87" transform="translate(142.02 -90.21) rotate(48.7)" fill="#fff"/><rect x="164.45" y="110.52" width="1.87" height="1.87" transform="translate(139.97 -86.36) rotate(48.7)" fill="#fff"/><rect x="164.28" y="113.16" width="1.87" height="1.87" transform="translate(141.9 -85.33) rotate(48.7)" fill="#fff"/><rect x="166.92" y="113.33" width="1.87" height="1.87" transform="translate(142.92 -87.26) rotate(48.7)" fill="#fff"/><rect x="161.64" y="112.99" width="1.87" height="1.87" transform="translate(140.87 -83.41) rotate(48.7)" fill="#fff"/><rect x="164.11" y="115.79" width="1.87" height="1.87" transform="translate(143.82 -84.31) rotate(48.7)" fill="#fff"/></svg>