<svg id="Layer_1" data-name="Layer 1" xmlns="http://www.w3.org/2000/svg" viewBox="0 0 200 200"><title>Circuits</title><path d="M73.26,27.73l3.33,1.57L75.28,31.9c1,.55,2,1.09,3,1.61,5,2.64,10,5.29,15,7.9q8.07,4.23,16.17,8.4,11.49,5.91,23,11.79c6.55,3.36,13.12,6.66,19.63,10.1,5.21,2.75,10.34,5.63,15.49,8.49,5.49,3,11,6.1,16.41,9.23,2.61,1.51,5.15,3.17,7.65,4.85,2.21,1.48,2.64,3.27,1.42,5.66s-2.39,4.59-3.65,6.86a1.77,1.77,0,0,0,0,2c.66,1.15,1.25,2.35,1.81,3.55a3.63,3.63,0,0,1-.21,3.54,56.53,56.53,0,0,1-11.34,14.49c-2.18,2-4.49,3.78-6.78,5.61-11.95,9.54-23.84,19.15-35.9,28.54-5.53,4.3-11.41,8.16-17.14,12.21-1.17.83-1.19.83-.28,2s1.73,2,2.58,3a5.26,5.26,0,0,1,1.55,3.36,4,4,0,0,1-2.47,3.94,25.27,25.27,0,0,1-3.34,1c-3.91,1.08-7.83,2.12-11.74,3.22a4,4,0,0,1-4.6-1.38c-.41-.52-.84-1-1.23-1.57a3.27,3.27,0,0,1-.22-3.64c2.23-4.29,4.48-8.57,6.74-12.85l7.85-14.9c1.43-2.72,2.85-5.44,4.3-8.15.84-1.57.8-2.22-.29-3.62-1.52-2-3-3.9-4.55-5.87a15,15,0,0,1-2.66-8.26c-.07-.91-.06-1.83-.06-2.75a10.73,10.73,0,0,0-1.49-5.43c-.94-1.65-2.59-2.41-4.14-3.29-4.19-2.37-8.41-4.68-12.57-7.1a10.51,10.51,0,0,1-5.66-10c.06-1.76,0-3.53.11-5.29a3.51,3.51,0,0,0-.88-2.59c-1.32-1.52-2.65-3-4-4.54q-4.29-4.78-8.61-9.54A34.37,34.37,0,0,0,65,75.56q-6.19-3.43-12.41-6.82l-17-9.31c-2.63-1.44-5.26-2.89-7.87-4.37a18.17,18.17,0,0,1-2.37-1.64,2.54,2.54,0,0,1-.69-1.07,11,11,0,0,1,0-6.93c1.43-5.38,2.77-10.79,4.14-16.19a7.09,7.09,0,0,0,.09-.89c-.32.16-.51.24-.69.35-1,.61-2,1.22-3,1.84a4.83,4.83,0,0,1-4.24.33,4.88,4.88,0,0,1-2.25-1.73c-1.54-2.14-3.77-3.18-6-4.22Q10.8,24,8.93,23.09A5,5,0,0,1,6.74,16.9a18.28,18.28,0,0,1,4.59-5.5A18.44,18.44,0,0,1,25.09,6.57,18.31,18.31,0,0,1,32.76,9c6,3.26,12,6.46,18,9.69l12.82,6.93,2,1.07,1.32-2.43L70,25.91l-1.55,3.32-3.3-1.77-1.44,2.68-.59-.3L49.29,22.38c-6.19-3.34-12.4-6.64-18.55-10A14.28,14.28,0,0,0,20.59,10.8a4.12,4.12,0,0,0-.44.14c1.38.35,2.67.85,4,1.26A97.52,97.52,0,0,1,42.87,20c5.4,3.06,10.92,5.91,16.42,8.78A18.46,18.46,0,0,0,63.92,31a11.66,11.66,0,0,1,2.74,1.39L65,35.59l-3.21-1.7.81-1.61L59,30.34c-5.3-2.83-10.58-5.67-15.89-8.48-2.55-1.35-5.08-2.75-7.71-4a124.23,124.23,0,0,0-14.84-5.26A4.47,4.47,0,0,0,19,12.48a7.58,7.58,0,0,0-5.46,2.22c-1,1.14-2.07,2.31-3,3.55-.44.59-.15,1.19.52,1.51,1.7.81,3.38,1.64,5.1,2.41A11,11,0,0,1,21.2,26a3.26,3.26,0,0,0,.61.65,1.38,1.38,0,0,0,2,.14c1-.62,2-1.2,3-1.84a4.3,4.3,0,0,1,5.12.94,4.46,4.46,0,0,1,.82,3.89c-.71,2.92-1.48,5.82-2.21,8.73q-1.22,4.84-2.41,9.68a2.78,2.78,0,0,0,1.19,3.18,9.92,9.92,0,0,0,.86.56l15.25,8.36c6.71,3.67,13.42,7.36,20.15,11A43.8,43.8,0,0,1,78.12,81c3.66,4.23,7.46,8.32,11.2,12.48a7.71,7.71,0,0,1,2.17,6.07c-.15,1.68-.05,3.39-.1,5.08a6.46,6.46,0,0,0,3.27,6.09c2.9,1.75,5.89,3.36,8.84,5,2.07,1.18,4.17,2.31,6.21,3.54a11.39,11.39,0,0,1,5.28,8.39,47.79,47.79,0,0,1,.29,4.86A12,12,0,0,0,118,140c1.48,1.71,2.81,3.56,4.18,5.37a5.79,5.79,0,0,1,.44,6.58c-.8,1.55-1.62,3.08-2.43,4.62l-7.88,15c-2.74,5.21-5.47,10.43-8.24,15.63-.39.73-.54,1.24.15,1.89a.91.91,0,0,0,1,.32c2.45-.69,4.91-1.35,7.36-2l6-1.64c1.16-.32,1.21-.48.43-1.43-.42-.51-.89-1-1.3-1.51a37.72,37.72,0,0,1-2.49-3.27c-1.23-2-.92-3.54.86-5,.79-.66,1.63-1.26,2.48-1.85,3.74-2.61,7.59-5.08,11.23-7.83,6.22-4.7,12.33-9.53,18.44-14.37q13.49-10.7,26.9-21.52a49.52,49.52,0,0,0,12-14.55,1,1,0,0,0,0-1.13c-.64-1.22-1.28-2.44-1.88-3.67a4.13,4.13,0,0,1,.21-4.07c1.28-2.3,2.47-4.66,3.74-7,.36-.66.22-1-.38-1.37-3.9-2.35-7.75-4.8-11.71-7.06Q167.31,84.47,157.28,79c-6.28-3.41-12.62-6.73-19-10-5.8-3-11.64-5.93-17.47-8.88q-9.86-5-19.72-10c-1.37-.69-2.75-1.37-4.18-1.94-4.39-1.74-8.83-3.35-13.2-5.16-2.83-1.17-5.57-2.57-8.34-3.9-1-.5-2-1.08-3.08-1.63L71.48,39l-3.19-1.7,1.63-3.2-3.27-1.71.54-.95,1.27-2.23,3.15,1.67L70,34.06c1.08.86,2.6,1,3.36,2.3,3.1,1.57,6.19,3.17,9.32,4.68a36.89,36.89,0,0,0,3.7,1.34l0,0-13-7,1.43-2.81L71.57,30.9l1.72-3.18Z" fill="#fff"/><path d="M73.29,27.72l-3.17-1.78,1.65-3.14,3.12,1.62,1.73-3.22,3.23,1.69-1.71,3.24L75,24.5l-1.77,3.23Z" fill="#fff"/><path d="M73.34,19.46,71.63,22.7,68.41,21l1.71-3.25Z" fill="#fff"/></svg>