<svg id="Layer_1" data-name="Layer 1" xmlns="http://www.w3.org/2000/svg" viewBox="0 0 200 200"><title>Circuits</title><path d="M198.86,153c-3.76-6.17-7.82-12.15-11.83-18.15q-20.33-30.4-40.72-60.75a19.87,19.87,0,0,1-2.94-15.26,167.52,167.52,0,0,0,2.32-18.71c.36-5.77-2.25-9.75-6.84-10.92a21.44,21.44,0,0,0-7.91-.48c-7.09.93-14.17,2-21.16,3.45-8.93,1.87-17.23,1.09-25.46-3.22-11.47-6-23.22-11.49-34.94-17-3.47-1.63-7.25-2.6-10.89-3.87l-.25.72c-6.58-.52-11.69,4-14.13,9.65C19.06,30.08,14,41.74,8.93,53.37L4.34,65.31a15.15,15.15,0,0,0-.73,5.6,5.42,5.42,0,0,1,0,.92,15.44,15.44,0,0,0,.5,3.33A6.39,6.39,0,0,0,4.89,77a11,11,0,0,0,.9,1.14C7.22,79.79,9.7,82.51,7.71,86c-3.06,5.3.44,9.16,3.24,11l.17.11L41,110.64l-.11.12L45,112.59c14,6.35,28,12.6,41.9,19.07a16.55,16.55,0,0,1,8.3,8.32q9.48,20.79,19.18,41.47c2.74,5.8,7.13,9.82,13.94,9.64a34.65,34.65,0,0,0,9.62-1.91q21.6-7,43.09-14.39a82.67,82.67,0,0,0,14.12-6C200.51,165.76,202.1,158.31,198.86,153Zm-8.2,15.34c-9.15,3.52-18.51,6.5-27.8,9.65s-18.86,6-28.14,9.46c-7.72,2.86-15.12-.77-18.41-8C110.08,165.76,104,152,97.69,138.34a18,18,0,0,0-9-8.84c-13.48-6.28-27-12.42-40.53-18.61L43,108.52h0L12.43,94.7s-5-2.89-2.38-7.38c3.51-6.09-1.92-10.3-2.89-11.8a3.67,3.67,0,0,1-.47-1.06A8.88,8.88,0,0,1,6.47,71l.09-.16.38-1.42c.07-.19.13-.38.22-.57l6.31-15.39.07.17c2-4.76,4.11-9.48,6.18-14.22q4.17-9.54,8.37-19.07A12.38,12.38,0,0,1,40.5,12.68c4.94-.29,9.87,2.91,15,5.33,10.75,5.08,21.33,10.5,32.1,15.54,6.31,3,13,3.23,19.86,1.86,6-1.19,12-2.13,18-3.13.31-.05.64-.09,1-.12l7.56-.9v.09c6.1-.66,9.59,4.12,8.93,9.15-.9,6.8-1.89,13.58-2.84,20.37-.83,5.94,1.31,11.07,4.5,15.84,9.16,13.68,18.43,27.3,27.59,41,7.89,11.79,15.66,23.67,23.55,35.46C199.69,159.14,197,165.86,190.65,168.32Z" fill="#fff"/></svg>