<svg id="Layer_1" data-name="Layer 1" xmlns="http://www.w3.org/2000/svg" viewBox="0 0 200 200"><title>Circuits</title><path d="M32.73,80.23l2.35,1,1.06-2.43,1.76.69,3-7.44C46.7,58,52.49,44,58.16,29.92c1.52-3.78,4.38-5.39,8.12-5.68a9,9,0,0,1,9.12,12.12c-2.12,5.64-4.52,11.18-6.9,16.72A41.66,41.66,0,0,0,65,70a48,48,0,0,1-.31,6.43c-.54,4.29-2.79,7.29-7,8.67S49.06,88,44.77,89.46a5,5,0,0,0-2.9,7.4c1,1.71,3,2.56,5.5,2s5.14-1.44,7.69-2.25c4.32-1.38,8.63-2.82,12.94-4.22a43.41,43.41,0,0,1,23.86-.61c4.48,1.06,8.93,2.28,13.45,3.12a24.36,24.36,0,0,0,17.8-3.48c3-1.89,6-3.9,9.11-5.68a31.09,31.09,0,0,1,18-4.43c5.59.4,11.2.47,16.8.67,4.5.16,8.82.92,12.77,3.29,7.46,4.48,13,16.73,6.49,27-1.43,2.26-2.91,4.5-4.53,6.63a126,126,0,0,0-14.17,23.77A10.05,10.05,0,0,1,158,149c-10.69.2-20.25-2.91-28.14-10.36a13.68,13.68,0,0,1-2.33-3,6.11,6.11,0,0,1,.63-7.53,16.85,16.85,0,0,1,6.7-4.61c2.72-1.19,5.67-1.38,8.54-1.88a53.85,53.85,0,0,0,13-3.75,13.74,13.74,0,0,0,2.57-1.5,6.67,6.67,0,0,0,2.33-8.37,5.79,5.79,0,0,0-4.07-3.56,36.8,36.8,0,0,0-6.67-1.25c-5-.35-10-.76-15-.62A137.45,137.45,0,0,0,76.1,117.41l-6.48,3.32c-2.48,1.28-4.21.83-5.72-1.53-.7-1.1-1.33-2.25-2-3.34-2-3-5.06-2.19-7-.88a3.45,3.45,0,0,0-1.42,3.2,69.57,69.57,0,0,0,.83,7.22c2,11.27,4.1,22.52,6.14,33.79a18.51,18.51,0,0,1-.14,7.79C59,172.2,55,175.52,49.23,175.71c-4.91.15-9.84.11-14.74-.13-7-.34-12.73-3.38-17.55-8.55-6.1-6.55-7.14-14.08-5.27-22.4,1-4.61,3.09-8.86,4.87-13.2q9-21.83,18-43.64c.1-.25.18-.52.3-.84l-1.73-.78,1-2.39,2.45.92,1-2.4-2.39-1L34.07,83.7l-2.4-1,1.09-2.5Zm7.14,3.13c.3-.65.59-1.29.9-1.94.09-.19.26-.53.31-.51.88.24.78-.56.94-.94,5.38-13.34,10.7-26.71,16.11-40,1.62-4,2.78-8.23,5.59-11.84a4,4,0,0,0-2.41,2.44q-10,24.42-20,48.82l-.55,1.32-2.19-.86-1,2.34,2.27,1.2L39,85.77l-2.47-1-1,2.42,2.19,1-6,14.63c2.88-2.05,3-2.58,3.2-4.53.46-4.43,2.69-8.26,4-12.51l2.43,1L40.92,88c1.75-1.33,3.78-1.79,5.71-2.45Q51.88,83.72,57.15,82a6,6,0,0,0,4.32-5.24,59.75,59.75,0,0,0,.41-7.25A43.72,43.72,0,0,1,65.18,53c2.4-5.74,4.81-11.47,7.15-17.23a6.39,6.39,0,0,0-1.85-7.43A3.48,3.48,0,0,0,66,27.9a7.75,7.75,0,0,0-2.2,2.1,20,20,0,0,0-1.93,3.71Q54.08,53,46.35,72.4l-3.63,9,.69.5-1,2.31Zm0,5.83-.13-.33c-.27.13-.68.19-.78.4a28.36,28.36,0,0,0-3,9.38,5.37,5.37,0,0,1-2.32,4.08,5.79,5.79,0,0,0-1.55,1.46A38,38,0,0,0,29,109.54c-2.73,6.3-5.31,12.66-7.91,19-1.92,4.69-3.88,9.37-5.62,14.12a25.45,25.45,0,0,0-1.4,11.68c.51,4.62,2.89,8.2,6.06,11.48a21.54,21.54,0,0,0,13.73,6.61,96,96,0,0,0,15.77.15,7.87,7.87,0,0,0,7.72-7,21.33,21.33,0,0,0-.07-6.4c-1.32-7.72-2.89-15.41-4.28-23.12-.95-5.26-1.83-10.54-2.59-15.84-.41-2.84,0-5.58,2.38-7.6A7.74,7.74,0,0,1,64.35,114c.75,1,1.34,2.17,2,3.26.77,1.24.79,1.25,2.11.56A181.78,181.78,0,0,1,89.89,108a142.4,142.4,0,0,1,45.45-8.6,137.93,137.93,0,0,1,14.55.58,37.68,37.68,0,0,1,8.15,1.45,9.68,9.68,0,0,1,6.4,12.64c-1.14,3.26-3.66,5.2-6.67,6.55a57.32,57.32,0,0,1-14.49,4.14c-2.48.4-5,.58-7.35,1.64a13.51,13.51,0,0,0-5.52,3.86,3,3,0,0,0-.28,3.57,12.28,12.28,0,0,0,2.09,2.72c7.4,6.82,16.27,9.62,26.19,9.27a6.7,6.7,0,0,0,6.2-4.19,132.65,132.65,0,0,1,11.46-20.18c2.46-3.48,5-6.93,7.35-10.47,6-8.85.88-19.78-5.74-23.39A21.66,21.66,0,0,0,168,85.13c-5.66-.23-11.33-.44-17-.69a29.9,29.9,0,0,0-10.34,1c-5.54,1.71-10.26,4.89-15,8a29.63,29.63,0,0,1-14.86,4.92c-3.66.22-7.17-.59-10.7-1.39-4.79-1.08-9.56-2.25-14.4-3.06A32.85,32.85,0,0,0,70.3,95c-6.35,2-12.65,4.11-19,6.11a22.82,22.82,0,0,1-4.64,1,7.57,7.57,0,0,1-8.43-5.93A7.77,7.77,0,0,1,39.91,89.19Z" fill="#fff"/></svg>