<svg id="Layer_1" data-name="Layer 1" xmlns="http://www.w3.org/2000/svg" viewBox="0 0 200 200"><title>Circuits</title><path d="M195.37,179.73q-2.3-7.28-4.58-14.57a30.73,30.73,0,0,1-1.5-13.84,93.68,93.68,0,0,1,2.09-9.78,22.92,22.92,0,0,0,.71-7.95c-.17-1.85-.37-3.91-1.68-5.46a11.57,11.57,0,0,0-1.74-1.94,15.27,15.27,0,0,0-7.51-4.34c-6-1.55-12-3-18-4.52l-26-6.58c-4.89-1.24-8.41-4.4-11.28-8.34a9.67,9.67,0,0,1-2.3-5.73q0-15.46,0-30.93A3.56,3.56,0,0,1,126.11,62c2.85,0,6.11,0,9.38,0a31.4,31.4,0,0,0,5-.39,9.76,9.76,0,0,0,6.92-4.47l-.25-.13.07,0,.18.14a8,8,0,0,0,2.57-6c0-5.63-1.64-10.86-3.52-16.08a17.44,17.44,0,0,0-7.81-9.45A137.34,137.34,0,0,0,104.94,10.9c-.26-.07-.53-.13-.8-.18h0c-1.87-.94-6.42-1.28-6.42-1.28h0A37.36,37.36,0,0,0,84.77,10,42,42,0,0,0,65.2,20.71C60.52,25.14,56,29.77,51,33.8c-.7.56-1.37,1.13-2.05,1.69L44.35,44h0c-4.88,10.27-11.81,25-17.49,29-.36.21-.17,0-.36.21-3.18,3-7.16,4.66-10.89,6.34S9.4,84.25,6.39,86.73c-1.65,1.36-2.13,3.55-2.29,6a8,8,0,0,1,.33,1.19c.54,3.73,2.89,5.62,6.37,6.52a13.52,13.52,0,0,0,6.92-.38c6.71-1.74,13.45-3.38,20.11-5.31,6.25-1.81,12.44-3.88,18.6-6a24.1,24.1,0,0,0,7.91-4.27l1.17-.83A20.86,20.86,0,0,0,71,76.1c1.46-3.28,2.78-6.63,4.32-9.87A9.3,9.3,0,0,1,81.13,61a3.06,3.06,0,0,0,.76-.49l.06,0,0,0a17.1,17.1,0,0,1,6.64,2.1,77.65,77.65,0,0,1,14.37,10c3.42,3,5.34,7,1.47,12.1-2.94,3.86-5.64,7.9-8.43,11.86a9.11,9.11,0,0,0-2,4.23,13,13,0,0,0,4.4,11.72q3.63,3.28,7.34,6.49,14,12.07,27.94,24.1c4.89,4.2,9.83,8.32,14.78,12.46.56.47.87,1.08,1.5,1.46a13.87,13.87,0,0,0,1.35,1.67c5,7.39,10,14.8,15.19,22.12a60.31,60.31,0,0,0,5.61,6.73,10,10,0,0,0,7.61,3.28c2.09,0,4.18-.09,6.26-.16.12,0,.24-.14.35-.22l1-.23C193.86,190.39,197.29,185.81,195.37,179.73ZM36.93,62.66,47.11,43.35c2.83-7.22,6.52-8.91,6.52-8.91L48,46.39C45.28,57.33,34.63,71.44,34.63,71.44c-5.62,10.08-21,12-21,12C32.32,75.76,36.93,62.66,36.93,62.66ZM188.58,186.6c-2.56.35-5.15.51-7.73.65a8.16,8.16,0,0,1-6.73-2.79,60.26,60.26,0,0,1-4.69-5.86c-4.89-7-9.68-14-14.54-21-.76-1.09-1.65-2.09-2.48-3.13-1.3-1.17-2.57-2.38-3.9-3.51-5.48-4.68-11-9.3-16.45-14q-12.28-10.58-24.5-21.23c-2.27-2-4.49-4-6.8-5.93-1.62-1.34-2.29-3.24-3.26-5l0,0a9.3,9.3,0,0,1,2.22-7.16c2.84-3.72,5.36-7.68,8.15-11.43a11.5,11.5,0,0,0-1.67-15.63A70.45,70.45,0,0,0,88,58.26a11.17,11.17,0,0,0-6.74-1.13l-1,.32a10.69,10.69,0,0,0-5.94,3.64,21.19,21.19,0,0,0-4,6.62c-.71,1.78-1.42,3.57-2.11,5.36A19,19,0,0,1,57,84.47c-4.83,1.84-9.71,3.61-14.68,5C33.87,92,25.38,94.15,16.9,96.33a15.6,15.6,0,0,1-5,.39c-4-.29-4.8-4.14-3.36-6.66a6,6,0,0,1,3.92-2.88c3.8-1,7.62-1.89,11.38-3a46.81,46.81,0,0,0,5.79-2.35,7.25,7.25,0,0,0,1.49-1.22L31,80.44a.16.16,0,0,1,.13.16c1.3-1.26,3.16-2.86,4.31-4.25A80.13,80.13,0,0,0,49.31,51.54c.58-1.66,1.25-3.29,1.9-4.89h0l0-.06c.33-.81.66-1.61,1-2.4l.13,0c.35-.74.73-1.52,1.08-2.25l.31-.62c.64-1.3,1.14-2.3,1.14-2.3,5.55-8.9,12.41-16.8,21.9-22A31.32,31.32,0,0,1,97.2,13.15l5.72,1.11a130.65,130.65,0,0,1,33.6,14.4,14.76,14.76,0,0,1,6.57,7.9,68.4,68.4,0,0,1,3.11,11.59c.46,2.5-.55,5.25-1.91,7.37a10.51,10.51,0,0,1-7.81,2.62c-3.49-.09-7,.15-10.49.26a5.25,5.25,0,0,0-3.8,1.64l-.53.54a6.74,6.74,0,0,0-1.91,5c0,10.38-.07,20.77,0,31.15a10.81,10.81,0,0,0,1.2,4.8c3.13,5.87,7.61,10.33,14.1,12.44,2.14.7,4.3,1.38,6.48,1.91,11.67,2.87,23.36,5.69,35,8.54a39.85,39.85,0,0,1,3.86,1.08,13.6,13.6,0,0,1,7.05,4.94c1.41,3.5,1.14,7,.11,10.53a47.44,47.44,0,0,0-2.15,16.31,40.51,40.51,0,0,0,2,9.54c1.67,5.34,3.34,10.67,5,15.82A4.05,4.05,0,0,1,188.58,186.6Z" fill="#fff"/><rect x="40.85" y="37.74" width="1.53" height="1.53" transform="translate(-7.6 66.65) rotate(-72.54)" fill="#fff"/><rect x="42.77" y="36.75" width="1.53" height="1.53" transform="translate(-5.31 67.78) rotate(-72.54)" fill="#fff"/><rect x="41.77" y="34.83" width="1.53" height="1.53" transform="translate(-4.18 65.49) rotate(-72.54)" fill="#fff"/><rect x="43.76" y="38.66" width="1.53" height="1.53" transform="translate(-6.44 70.07) rotate(-72.54)" fill="#fff"/><rect x="45.68" y="37.66" width="1.53" height="1.53" transform="translate(-4.15 71.2) rotate(-72.54)" fill="#fff"/><rect x="47.13" y="38.12" width="1.53" height="1.53" transform="translate(-3.56 72.91) rotate(-72.54)" fill="#fff"/><rect x="50.05" y="39.04" width="1.53" height="1.53" transform="translate(-2.4 76.33) rotate(-72.54)" fill="#fff"/><rect x="49.05" y="37.12" width="1.53" height="1.53" transform="translate(13.66 -13.2) rotate(17.46)" fill="#fff"/><rect x="48.13" y="40.03" width="1.53" height="1.53" transform="translate(14.49 -12.79) rotate(17.46)" fill="#fff"/><rect x="44.68" y="35.75" width="1.53" height="1.53" transform="translate(-3.02 68.91) rotate(-72.54)" fill="#fff"/><rect x="46.68" y="39.58" width="1.53" height="1.53" transform="translate(-5.27 73.49) rotate(-72.54)" fill="#fff"/><rect x="48.59" y="38.58" width="1.53" height="1.53" transform="translate(-2.98 74.62) rotate(-72.54)" fill="#fff"/><rect x="47.59" y="36.66" width="1.53" height="1.53" transform="translate(-1.85 72.33) rotate(-72.54)" fill="#fff"/><rect x="49.59" y="40.49" width="1.53" height="1.53" transform="translate(-4.11 76.91) rotate(-72.54)" fill="#fff"/><rect x="51.5" y="39.49" width="1.53" height="1.53" transform="translate(-1.82 78.04) rotate(-72.54)" fill="#fff"/><rect x="50.5" y="37.58" width="1.53" height="1.53" transform="translate(-0.69 75.75) rotate(-72.54)" fill="#fff"/><rect x="52.5" y="41.41" width="1.53" height="1.53" transform="translate(-2.94 80.33) rotate(-72.54)" fill="#fff"/><rect x="54.41" y="40.41" width="1.53" height="1.53" transform="translate(-0.65 81.46) rotate(-72.54)" fill="#fff"/><rect x="53.42" y="38.5" width="1.53" height="1.53" transform="translate(0.48 79.16) rotate(-72.54)" fill="#fff"/><rect x="55.41" y="42.32" width="1.53" height="1.53" transform="translate(-1.78 83.75) rotate(-72.54)" fill="#fff"/><rect x="56.33" y="39.41" width="1.53" height="1.53" transform="translate(1.64 82.58) rotate(-72.54)" fill="#fff"/></svg>