<svg id="Layer_1" data-name="Layer 1" xmlns="http://www.w3.org/2000/svg" viewBox="0 0 200 200"><title>Circuits</title><path d="M183.62,176.61l-.62-.36q-33.21-19.09-66.41-38.19c-4.88-2.81-9.71-5.7-14.57-8.56a5.49,5.49,0,0,1-2.55-3.73A10.52,10.52,0,0,0,92.54,118c-1.16-.43-2.34-.82-3.51-1.23a3.31,3.31,0,0,1-2.22-2.29c-4.3-13.47-8.43-27-13-40.35a156.6,156.6,0,0,1-8.35-41c-.37-5.77-1-11.52-1.62-17.27-.21-2-.71-3.92-2.93-4.69C53.25,8.52,45.63,5.84,38,3.28A8.62,8.62,0,0,0,27.87,7.46a11,11,0,0,0-1.23,3.48c-.44,3.32-.67,6.67-1,10-.57,5.8-1,11.61-1.76,17.39-.27,2.12,0,3.74,1.71,5.1a1.89,1.89,0,0,1,.5,1.66c-.83,2.48-1.82,4.92-2.75,7.38l-.55-.13a4.19,4.19,0,0,1,.06,1.43c-.66,2-1.41,4-2.13,6-3,8.42-6.27,16.76-8.4,25.48-1.93,7.89-2.13,15.66,1.58,23.17,1.87,3.78,3.78,7.54,7.22,10.17a94,94,0,0,0,18.3,10.88,41,41,0,0,0,7.5,2.41c2.79.66,5.66,1,8.56,1.47-1.69,3-1.37,4.15,1.49,5.75.93.52,1.85,1.05,2.78,1.57l49.14,27.09c.37.21.74.43,1.13.67l-1.67,3.42.52.29,1.83-3.38,1.4.74,22.84,12.71c.8.44,1.11.62,1.07,1l1.31-2.59a3.11,3.11,0,0,1-1-.2q-5.2-2.84-10.37-5.74l-13.27-7.42a1.61,1.61,0,0,1-.74-.74c8.69,4.26,17.06,9.11,25.59,13.65l0,.15.61-1.2h0a1.26,1.26,0,0,1-.81-.06q-12.33-6.68-24.64-13.4c-.06,0-.1-.12-.18-.24l1.1-2.54-.45-.22-1.41,2.51-1.63-.8c-6.64-3.15-13.33-6.21-19.91-9.47-4-2-7.86-4.28-11.77-6.44q-8.6-4.75-17.19-9.53a5.48,5.48,0,0,1-.94-.94c-.37.13-2.78-.64-3.2-1.45a2.14,2.14,0,0,1,.47-2.5c.84-1,.19-2.4-1.33-2.77s-3-.49-4.48-.79a5.89,5.89,0,0,1-1.36-.7l-.11.44a39.69,39.69,0,0,1-13.87-4.65c-3.41-2-6.71-4.18-10.13-6.15a21.51,21.51,0,0,1-7.33-6.57,31.2,31.2,0,0,1-4.64-26.07,227.77,227.77,0,0,1,7.67-23.69C23.92,57.5,26,52,28,46.41c.79-2.15.57-3.31-1.16-4.81A2.31,2.31,0,0,1,26,39.1c.33-1.56.44-3.17.75-4.73a6.6,6.6,0,0,1,.76-1.57L27,32.73c.5-6.63,1-13.2,1.52-19.77a1.2,1.2,0,0,1,.58-.84A4.54,4.54,0,0,1,29,10.71C30,5.86,34,4.24,38.29,5.68,45.36,8.08,52.4,10.57,59.48,13a2.59,2.59,0,0,1,2,2.27c.21,1.77.31,3.55.49,5.33.21,2,.47,4,.68,6,.69,6.76,1.3,13.53,2,20.28.92,8.43,3.36,16.5,5.94,24.53Q77,91.32,83.4,111.23c.45,1.4,1,2.77,1.43,4.18a4.68,4.68,0,0,0,2.9,3.14c1.33.54,2.7,1,4.05,1.47a8.16,8.16,0,0,1,5.54,6.26,7.24,7.24,0,0,0,3.62,5.18c5.6,3.23,11.12,6.58,16.72,9.8,7.2,4.15,14.47,8.19,21.67,12.33q21.25,12.23,42.46,24.53c.21.12.42.23.63.36,2.43,1.5,4.64,3.27,4.37,6.47-.31,3.65-2,6.63-5.49,8.12a22.53,22.53,0,0,1-16.85.36,71.84,71.84,0,0,1-15.3-7.34c-2.52-1.62-5.14-3.08-7.69-4.65a1.65,1.65,0,0,1-.48-.62l-.73,1.37c.94,0,2.87,1.07,5.21,3l-5.33-2.73-1.1,2.06c.35.14.66.28,1,.43,2.22,1.09,4.39,2.3,6.65,3.31,6.15,2.76,12.17,5.85,18.67,7.8a24.33,24.33,0,0,0,16.67-.82c4.38-1.8,6.56-5.42,7-10C189.42,181.12,186.86,178.59,183.62,176.61Zm-76.81-12.84,4.43,2.13-.23.42L106.7,164Z" fill="#fff"/><rect x="139.63" y="175.51" width="1.11" height="1.11" transform="translate(93.9 -44.18) rotate(26.66)" fill="#fff"/><rect x="140.13" y="177.01" width="1.11" height="1.11" transform="translate(94.63 -44.25) rotate(26.66)" fill="#fff"/><rect x="141.62" y="176.51" width="1.11" height="1.11" transform="translate(94.57 -44.97) rotate(26.66)" fill="#fff"/><rect x="138.63" y="177.51" width="1.11" height="1.11" transform="translate(94.69 -43.52) rotate(26.66)" fill="#fff"/><rect x="139.13" y="179" width="1.11" height="1.11" transform="translate(95.42 -43.59) rotate(26.66)" fill="#fff"/><rect x="140.63" y="178.51" width="1.11" height="1.11" transform="translate(95.35 -44.31) rotate(26.66)" fill="#fff"/><rect x="137.63" y="179.5" width="1.11" height="1.11" transform="translate(95.48 -42.86) rotate(26.66)" fill="#fff"/><rect x="138.13" y="180.99" width="1.11" height="1.11" transform="translate(96.2 -42.93) rotate(26.66)" fill="#fff"/><rect x="139.63" y="180.5" width="1.11" height="1.11" transform="translate(96.14 -43.65) rotate(26.66)" fill="#fff"/><rect x="136.63" y="181.49" width="1.11" height="1.11" transform="translate(96.27 -42.2) rotate(26.66)" fill="#fff"/><rect x="137.13" y="182.98" width="1.11" height="1.11" transform="translate(96.99 -42.27) rotate(26.66)" fill="#fff"/><rect x="138.63" y="182.49" width="1.11" height="1.11" transform="translate(96.93 -42.99) rotate(26.66)" fill="#fff"/><rect x="135.63" y="183.48" width="1.11" height="1.11" transform="translate(97.05 -41.54) rotate(26.66)" fill="#fff"/><rect x="136.13" y="184.98" width="1.11" height="1.11" transform="translate(97.78 -41.61) rotate(26.66)" fill="#fff"/><rect x="137.63" y="184.48" width="1.11" height="1.11" transform="translate(97.71 -42.33) rotate(26.66)" fill="#fff"/><rect x="134.63" y="185.47" width="1.11" height="1.11" transform="translate(97.84 -40.88) rotate(26.66)" fill="#fff"/><rect x="135.13" y="186.97" width="1.11" height="1.11" transform="translate(98.56 -40.95) rotate(26.66)" fill="#fff"/><rect x="136.63" y="186.47" width="1.11" height="1.11" transform="translate(98.5 -41.67) rotate(26.66)" fill="#fff"/></svg>