<svg id="Layer_1" data-name="Layer 1" xmlns="http://www.w3.org/2000/svg" viewBox="0 0 200 200"><title>Circuits</title><polygon points="161.74 91.92 161.74 91.92 161.73 91.91 161.74 91.92" fill="#fff"/><path d="M146.85,63.88h.08l0-.06Z" fill="#fff"/><path d="M84.17,36.75h.09v-.09Z" fill="#fff"/><path d="M191.73,178h0c-.1-.33-.2-.67-.29-1a32.92,32.92,0,0,1-.89-13.22,42.25,42.25,0,0,0-1.88-19.16l-.8-2.24c-1.45-7-4-13.77-4.58-21.35-.86-10.59-4.9-20.73-7.3-31.19-.62-1.44-1.27-2.83-1.8-3.91-.38-.63-.65-1.43-1-2.07h0L159.1,60.53A14.45,14.45,0,0,0,156,55.85v0l-.72-.64-.17-.16h0c-4.23-3.72-9-7.52-13.11-11.9-4.88-5.16-10.7-6.27-16.85-5.9l-2.92-.53c-11.5-1.76-23.71-1.17-34.84-6.42L84.76,29h0c-1.31-.8-2.61-1.59-3.89-2.43C67,17.39,53.1,8.26,37.45,2.26A6.47,6.47,0,0,0,30.81,3c-4,2.65-8.34,4.7-12.41,7.23-2.48,1.54-5.21,2.82-7.27,4.71a10,10,0,0,0-2.35,3.12l.07,0a9.65,9.65,0,0,0-.79,2.46c0,.11,0,.23-.05.37v.11a10.83,10.83,0,0,0,.62,4.83h0c2.41,6.63,4.76,13.22,7.49,19.64.67,1.56,2.34,2.7,3.94,3.87h0a7.34,7.34,0,0,1,5.54,4.13c.07.13.12.26.18.4a11.7,11.7,0,0,1,1,4.27c1,4.69,2.17,9.35,2.1,14-.1,6.8-1.68,13.65-3.19,20.34-1,4.64-3.26,9-4.59,13.61A29.67,29.67,0,0,0,21.23,123h0s0,.09.09.24.3.49.4.78a7.2,7.2,0,0,0,2.23,2.34c4.07,1.64,7.92,3.43,11.91,4.94,5,1.89,9.86,3.73,12.67,9a62.6,62.6,0,0,0,6.07,8.71l4.61,6.67h0c6.57,15,20.65,20.1,34.7,25.22l0-.06c1.72.63,1.51,1.27,3.23,1.89,6.8,2.4,13.92,4.84,21,7.47l7.57,1.5v0l1.64.34.22,0h0c1.94.41,3.85.82,5.75,1.13a34,34,0,0,0,5.73.59c7.33-.05,14.81.62,22-.57,8.78-1.45,17.37-3.9,26.39-3.74h0a6.23,6.23,0,0,0,4.07-4.25c0-.11.07-.22.1-.34h0A16.12,16.12,0,0,0,191.73,178Zm-97.86-.15h4.29l13.81,5,3,2.93ZM33.15,71.54,30.46,56.38a30.83,30.83,0,0,0-1.85-5.13A7.09,7.09,0,0,0,24.85,48c-2.16-1.66-4.37-3.28-5.52-5.47a86.43,86.43,0,0,1-6.68-17.71,12.85,12.85,0,0,0-.4-1.24,5.74,5.74,0,0,1,2.3-5.86c5.3-3.3,10.6-6.62,16-9.78h0s3.92-4.17,7.8-.87h0c8.59,4.37,17.18,8.75,25.55,13.52,6.35,3.62,12.39,7.74,17.66,11.12h0l.18.11.88.56,0,0c1.29.72,2.78,1.4,3.65,1.79v.06c3.46,1.2,7.11,3.11,11,3.66,9.5,1.37,19.11,1.95,28.63,3.18,4,.52,8.51-.25,11.71,3.49a52.35,52.35,0,0,0,5.94,5.63c3.61,3.08,7.32,6,11,9.06a2.6,2.6,0,0,1,.27.33h0a6,6,0,0,1,.4.69c2.11,4.4,4,8.93,6.52,13.1C165,78.86,169.49,83.63,171,90.1h0l0,0v0h0l.61,2,.06.19h0c2.27,7.47,4.59,14.92,6.7,22.43.77,2.74,1.51,5.75,1.13,8.48-.65,4.58.83,8.43,2.21,12.57,2.85,8.49,5.67,17,4.92,26.27-.27,3.3-.72,6.78,0,9.93.51,2.29.47,4.9,1,7.29h0l0,.13c0,.14.06.28.1.42.31,1.48.8,5.47-2.77,5.66h0a97.86,97.86,0,0,0-11.56,1c-5.2.78-10.28,2.57-15.49,3a154.66,154.66,0,0,1-19.57-.06c-4.47-.22-8.9-1.08-13.35-1.67-1.09-.25-.27,0-1.22,0-4.73-2.83-7.2-6.63-12.63-7.91-3.37-.8-6.52-2.49-9.81-3.68-1.91-.69-4-1.85-5.82-1.63-7.9.94-14.23-2.9-20.5-6.52-2.85-1.64-5.14-4.48-7.28-7.1-2.28-2.79-4.22-5.85-6.17-8.73h0l-2.2-3.38h0c-1.64-2.45-3.23-5.14-5.13-7.59-2.7-3.48-5-7.85-8.6-9.94-5.87-3.42-12.54-5.46-18.8-8A4.43,4.43,0,0,1,24.61,121c-.12-4-.72-7.91.19-11.46C27.37,99.42,31.26,89.58,32,79a45.57,45.57,0,0,1,.92-5.14Z" fill="#fff"/><rect x="125.06" y="182.5" width="1.31" height="1.31" transform="translate(37.41 -20.69) rotate(11.04)" fill="#fff"/><rect x="126.09" y="184.04" width="1.31" height="1.31" transform="translate(37.73 -20.86) rotate(11.04)" fill="#fff"/><rect x="127.63" y="183.01" width="1.31" height="1.31" transform="translate(37.56 -21.17) rotate(11.04)" fill="#fff"/><rect x="124.56" y="185.08" width="1.31" height="1.31" transform="translate(37.9 -20.55) rotate(11.04)" fill="#fff"/><rect x="125.59" y="186.61" width="1.31" height="1.31" transform="translate(38.21 -20.72) rotate(11.04)" fill="#fff"/><rect x="127.13" y="185.58" width="1.31" height="1.31" transform="translate(38.04 -21.03) rotate(11.04)" fill="#fff"/><rect x="124.05" y="187.65" width="1.31" height="1.31" transform="translate(38.38 -20.4) rotate(11.04)" fill="#fff"/><rect x="125.09" y="189.18" width="1.31" height="1.31" transform="translate(38.69 -20.57) rotate(11.04)" fill="#fff"/><rect x="126.63" y="188.15" width="1.31" height="1.31" transform="translate(38.52 -20.89) rotate(11.04)" fill="#fff"/><rect x="123.8" y="188.93" width="1.31" height="1.31" transform="translate(38.62 -20.33) rotate(11.04)" fill="#fff"/><rect x="126.38" y="189.43" width="1.31" height="1.31" transform="translate(38.76 -20.81) rotate(11.04)" fill="#fff"/><rect x="125.34" y="187.9" width="1.31" height="1.31" transform="translate(335.19 101.01) rotate(101.04)" fill="#fff"/><rect x="124.84" y="190.47" width="1.31" height="1.31" transform="translate(337.12 104.56) rotate(101.04)" fill="#fff"/><rect x="123.55" y="190.22" width="1.31" height="1.31" transform="translate(38.86 -20.26) rotate(11.04)" fill="#fff"/><rect x="124.59" y="191.75" width="1.31" height="1.31" transform="translate(39.18 -20.43) rotate(11.04)" fill="#fff"/><rect x="126.12" y="190.72" width="1.31" height="1.31" transform="translate(39.01 -20.74) rotate(11.04)" fill="#fff"/><rect x="123.05" y="192.79" width="1.31" height="1.31" transform="translate(39.35 -20.11) rotate(11.04)" fill="#fff"/><rect x="124.09" y="194.33" width="1.31" height="1.31" transform="translate(39.66 -20.28) rotate(11.04)" fill="#fff"/><rect x="125.62" y="193.29" width="1.31" height="1.31" transform="translate(39.49 -20.6) rotate(11.04)" fill="#fff"/><rect x="122.55" y="195.36" width="1.31" height="1.31" transform="translate(39.83 -19.97) rotate(11.04)" fill="#fff"/><rect x="123.58" y="196.9" width="1.31" height="1.31" transform="translate(40.14 -20.14) rotate(11.04)" fill="#fff"/><rect x="125.12" y="195.86" width="1.31" height="1.31" transform="translate(39.97 -20.45) rotate(11.04)" fill="#fff"/></svg>