<svg id="Layer_1" data-name="Layer 1" xmlns="http://www.w3.org/2000/svg" viewBox="0 0 200 200"><title>Circuits</title><path d="M186.58,177.48l-1.74-12.61a6.49,6.49,0,0,1-.31-1.35q-.39-3.25-.77-6.5l-.1-.72h0c-2.72-23-5.34-45.92-8.31-68.84-1.2-9.28-.51-19.13-7-27.17-3.91-4.81-7.43-9.95-11-15-2.91-4.17-6.88-4.34-11.42-4-1.8.12-5-1.22-5.41-2.56-3.39-11-17.38-18.36-30.34-15.26-11.43,2.73-23.61,5.11-29.78-9.63a1.4,1.4,0,0,0-.25-.38c-4.41-5-9.47-4.82-12.75.44Q48.12,44.77,28.88,75.71c-5.3,8.49-10.55,16.86-9.08,27.69.24,1.78-1.87,4.42-3.6,5.79-2,1.59-4.94,1.94-7.17,3.33a7.35,7.35,0,0,0-3.13,4.1c-.19.82,1.62,2.54,2.88,3.17,3.71,1.86,7.59,3.37,11.41,5,16.5,7.16,33,14.25,49.47,21.51l18.58,9c1.94,1,3.89,2,5.87,2.85l.18.08,1.77.86,0,0q30.37,13.73,60.88,27.13c7,3.05,14.22,5.51,17.84,6.9,12.15.18,13.5-1.29,12.6-9.42C187.18,181.59,186.77,179.54,186.58,177.48Zm-3.25,12.8c-4.8-.35-10,.12-14.28-1.67-12.8-5.41-25.09-12-37.8-17.62-12-5.3-24-10.37-36.1-15.47L59.41,139.64l-.23-.2-11.16-5c-4.71-2.2-9.37-4.51-14.14-6.59-7.77-3.38-15.61-6.57-23.39-9.94-.82-.36-1.38-1.32-2.07-2a14.58,14.58,0,0,1,2.06-1.43c2.81-1.32,6.19-2,8.33-4,1.88-1.77,3.54-5.12,3.31-7.57C20.93,90.57,28.18,81.69,34,72.25c10.68-17.44,21.63-34.71,32.46-52,.32-.51.64-1,.94-1.54,4.8-8.33,8.35-8.81,12.34-1.07,5.87,11.4,15.37,10.65,25.48,8.9,8.08-1.4,16.38-3.67,23.58,2.19C132.31,31.58,136,35,137.9,39c2.07,4.3,4.52,6.19,8.73,4.89,3.72-1.15,6.21-.41,8.29,2.73,5.17,7.81,12.27,15,15.13,23.53,3.56,10.68,3.77,22.51,5.19,33.88,2.37,19,4.55,38,6.8,57.06l1,8.19s0,0,0,.05c.89,6.32,1.55,12.68,2.09,19C185.17,189,183.9,190.32,183.32,190.28Z" fill="#fff"/></svg>