<svg id="Layer_1" data-name="Layer 1" xmlns="http://www.w3.org/2000/svg" viewBox="0 0 200 200"><title>Circuits</title><path d="M180.33,56.19l-1.5-2.32-2.31,1.37,1.28,2.18-1.85,1.11q-34.79,20.35-69.57,40.72c-3.64,2.13-7.17,4.44-10.72,6.71a15.06,15.06,0,0,0-2.16,1.83c-8,7.61-15.94,15.33-23.59,23.31A5.12,5.12,0,0,0,68.46,134c-.47,3.2-1,6.39-1.6,9.57a8.67,8.67,0,0,1-2,4.13c-3.77,4.5-7.42,9.11-11.22,13.59a17.11,17.11,0,0,0-3.42,6.84c-.84,3.18-1.57,6.39-2.29,9.6A6.48,6.48,0,0,1,46.51,181a3.19,3.19,0,0,1-3.38,1.14q-4.29-1.34-8.53-2.82c-6.34-2.22-12.66-4.49-19-6.73a17.49,17.49,0,0,0-1.88-.45c-.34-.08-.69-.13-1-.23a2.49,2.49,0,0,1-1.87-2.24,15,15,0,0,1-.09-2.16,19.77,19.77,0,0,0-.92-4.78c-.84-3.93-1.7-7.85-2.5-11.79a22,22,0,0,1,.22-7.18,99.46,99.46,0,0,1,2.15-12.46c.11-.45.26-.89.37-1.34a8.75,8.75,0,0,1,3.18-4.74A189.4,189.4,0,0,1,30,113.2a74.28,74.28,0,0,1,10.81-6,8.21,8.21,0,0,1,1.66-.6,1.88,1.88,0,0,1,1.19.22,5.13,5.13,0,0,1,2,2.43c.3.66.6,1.31.93,2a1.27,1.27,0,0,0,1.83.69c.38-.14.74-.34,1.13-.46a5,5,0,0,1,4.2.55.68.68,0,0,0,.57,0,1.74,1.74,0,0,1,2.42.46,14.21,14.21,0,0,1,1.32,2.3c1.86,3.95,3.69,7.91,5.53,11.87.09.2.21.38.36.67.37-2.11,1.77-3.43,3.13-4.78a3,3,0,0,1,1.74-.79,2.15,2.15,0,0,0,1.12-.5c2.91-2.8,5.79-5.63,8.68-8.44q4.7-4.57,9.42-9.12c.2-.19.42-.36.67-.58l-.9-1.39a3.13,3.13,0,0,1,.69-4.48c3-2.51,6.11-4.9,8.9-7.61,3.39-3.28,7.45-5.52,11.35-8,7.75-4.95,15.55-9.81,23.33-14.71.37-.24.72-.51,1.08-.77a.59.59,0,0,0,.17-.93c-1.67-2.64-3.3-5.31-5-7.94-1.5-2.36-3-4.68-4.57-7-1-1.51-1-2.87.07-4a3,3,0,0,1,.64-.52c5.67-3.39,11.31-6.82,17-10.13,9-5.23,18.06-10.37,27.09-15.55,1-.6,2.05-1.27,3.13-1.79a5.26,5.26,0,0,1,2.06-.53,3.14,3.14,0,0,1,2.74,1.87l7.9,12.73c2.39,3.85,4.79,7.69,7.15,11.56a13.94,13.94,0,0,1,1.13,2.4,2.19,2.19,0,0,1-1.09,3l-6.7,4-1.22-2.18a2.53,2.53,0,0,1,.26-.2c1.91-1.13,3.81-2.28,5.74-3.38A.71.71,0,0,0,190,46.4a3.14,3.14,0,0,0-.17-.35l-5.14-8.49a.89.89,0,0,0-.15-.15l-.13.07c.34.83.63,1.68,1,2.47.57,1.08,1.27,2.09,1.85,3.16a18.87,18.87,0,0,1,1.21,2.61c.25.69,0,1.06-.59,1.44s-1.21.71-1.82,1.07L183,50.06l.68,1L182,52l-.77.45-1.4-2.32,2.35-1.4.38.49,2.25-1.33c.81-.48,1.62-1,2.44-1.43.33-.18.42-.39.26-.71-.34-.7-.67-1.4-1-2.08a10.54,10.54,0,0,0-.81-1.39A18,18,0,0,1,183,35.71a8.57,8.57,0,0,0-1-2.33c-2.53-4.15-5.11-8.28-7.68-12.41-.49-.8-.74-.89-1.58-.42q-4.68,2.66-9.34,5.35-13.16,7.6-26.31,15.23C133.9,43,130.72,45,127.5,46.95c-.51.31-1,.59-1.55.87-.34.19-.44.43-.21.77l.39.61c3,4.74,6.06,9.47,9.07,14.22a7.18,7.18,0,0,1,.84,1.92,2.16,2.16,0,0,1-.14,1.27,4.93,4.93,0,0,1-2.16,2.24L125,74.39q-11.12,7-22.24,14A14.74,14.74,0,0,0,101,89.75Q95.64,94.39,90.27,99c-.71.61-.73.7-.21,1.51a13.16,13.16,0,0,1,1,1.72,2.23,2.23,0,0,1-.76,2.84q-2.78,2.47-5.45,5.07c-4.2,4.1-8.37,8.23-12.56,12.35A4.84,4.84,0,0,1,69,124.3a.44.44,0,0,0-.29.14,19.35,19.35,0,0,0-1.91,2.29,4.24,4.24,0,0,0-.39,1.81,2.38,2.38,0,0,1-1.85,2.28,1.6,1.6,0,0,1-1.91-.78,26,26,0,0,1-1.73-3c-1.82-3.84-3.59-7.71-5.38-11.57-.12-.27-.27-.52-.44-.86a2.47,2.47,0,0,1-2.83-.42,2.23,2.23,0,0,0-2.36-.14,5,5,0,0,1-3,.49,3,3,0,0,1-2.19-1.46c-.52-.91-1-1.88-1.42-2.82-.55-1.1-.58-1.12-1.69-.63a75.75,75.75,0,0,0-10.31,5.75,195.59,195.59,0,0,0-16.07,11.48,8.11,8.11,0,0,0-3,4.58c-1.13,4.44-1.64,9-2.34,13.49-.57,3.69.07,7.23.87,10.77.72,3.2,1.58,6.36,2.28,9.56a20.24,20.24,0,0,1,.21,3.15c0,.2,0,.41,0,.61a.49.49,0,0,0,.52.57,17.8,17.8,0,0,1,4.73,1.36L42,179.13c.47.17,1,.27,1.43.45a1,1,0,0,0,1.33-.45,6,6,0,0,0,.66-1.74,92.52,92.52,0,0,1,2.69-10.93,19.93,19.93,0,0,1,3.75-6.92c4-4.68,7.81-9.46,11.68-14.21a3.16,3.16,0,0,0,.61-1.34c.55-2.79,1-5.59,1.55-8.39.2-1.09.37-2.19.54-3.28a3.43,3.43,0,0,1,.94-1.91c3.23-3.32,6.41-6.69,9.69-9.95,4.73-4.7,9.56-9.29,14.31-14A38,38,0,0,1,98.56,101q10.79-6.44,21.64-12.78C126,84.83,131.92,81.42,137.77,78a11.65,11.65,0,0,0,1.46-1,125.51,125.51,0,0,1,16.28-10.86c1.34-.78,2.69-1.55,4-2.36a3.14,3.14,0,0,0,.93-.85,7,7,0,0,1,2.3-2.05q6-3.54,12-7.1l.55-.33-.2-.55,2.32-1.38,1.39,2.32,2.4-1.41,1.39,2.34-2.33,1.43ZM148.19,71.72l.08.13,28.24-16.6-.6-1-.25.13c-4.2,2.48-8.42,4.94-12.6,7.45a11.53,11.53,0,0,0-1.68,1.5,10.11,10.11,0,0,1-1.42,1.29c-2.67,1.62-5.38,3.18-8.06,4.78C150.64,70.16,149.42,71,148.19,71.72Z" fill="#fff"/></svg>