<svg id="Layer_1" data-name="Layer 1" xmlns="http://www.w3.org/2000/svg" viewBox="0 0 200 200"><title>Circuits</title><path d="M14,129.12l.87,0,0-1.11-.85,0Q14,128.57,14,129.12Z" fill="#fff"/><path d="M5.54,127.64c-.08.37-.15.74-.22,1.11l.64,0,0-1.11Z" fill="#fff"/><path d="M193.11,21.7c-4.86-1.17-9.78-2.07-14.79-.61a1,1,0,0,1-1.29-.81c-.59-3-2-5.15-5-6.23a1.16,1.16,0,0,0-.44-.06,4.5,4.5,0,0,0-1.64.21c-1.68.76-3.29,1.66-4.93,2.51h0c-4,3-8.1,6-12,9.07-5.77,4.57-11.92,8.68-16.59,14.1a1.11,1.11,0,0,0-.16.25l-1.42,3a1.2,1.2,0,0,0-.08.23,16.9,16.9,0,0,0,2,12.24,48.07,48.07,0,0,1,2.73,6.16,10.59,10.59,0,0,1-5.49,13.69,28.23,28.23,0,0,1-16.65,2.44c-7.76-1.33-15.53-1.69-23.27.13A36.88,36.88,0,0,1,77,77.88a63.38,63.38,0,0,0-14.59-1.29c-7.4,0-14.8.07-22.19-.22-5.17-.2-10.31-.93-16.13-1.5a1,1,0,0,0-.51.07c-1.3.58-1.91,2.4-2.7,4.11-1.22,2.64-2.4,5.3-3.84,7.82-3,5.19-5.77,10.42-6.92,16.39-.72,3.73-1.67,7.42-2.54,11.19l0,.09-.57,4c-.43,2.69-.76,5.37-1.28,8h.29l0,1.11,1.11,0,0-1.11,1.11,0,0,1.11h.34c.51-2.87,1.1-5.74,1.73-8.63a1.06,1.06,0,0,1,1.32-.79l1,.27a1.06,1.06,0,0,1,.75.72,23.88,23.88,0,0,1,.79,7.55l.84,0,0,1.11.73,0c.1-1.88.22-3.79.39-5.74a1,1,0,0,0,0-.28c-.69-3.5-1.31-7-2.11-10.56-1.26-5.49.24-10.6,2.43-15.42a90.59,90.59,0,0,1,6.81-11.65c2.14-3.29,5.07-4.84,9.36-4.74,11,.27,22.09-.12,33.13,0a47.53,47.53,0,0,1,9.84,1.06c6.36,1.4,12.67,2,19,.56A54.5,54.5,0,0,1,117.39,81c5.83,1.13,11.35,0,16.67-2.27,9.13-3.93,10.58-11.22,7.65-19.76a45.24,45.24,0,0,0-3-6,11,11,0,0,1,2.66-14c3.86-3,7.51-6.32,11.4-9.29,5-3.78,10.05-7.37,15.12-11a24.39,24.39,0,0,1,2.63-1.52,1,1,0,0,1,.92,0c2.52,1.21,2.73,3.55,2.17,5.75-1,4.09-.18,7.86,1.06,11.68.41,1.25.5,2.61.94,3.85A26.8,26.8,0,0,0,177,41.5a1.05,1.05,0,0,0,1.1.57l2.83-.45a1.05,1.05,0,0,0,.81-.66l.89-2.31a1.05,1.05,0,0,0,0-.63c-1.11-4.61-4.44-8.28-3.5-13.06a1,1,0,0,1,.73-.79c4.47-1.28,8.64-.4,13.1.6a1.05,1.05,0,0,1,.82,1,9.45,9.45,0,0,1-.2,3.22c-1.15,3.22-2.21,6.52-4.77,9a8.65,8.65,0,0,0-1.44,2.36c-3.17,6.39-6.11,12.92-9.54,19.17a45.93,45.93,0,0,1-17,17.45A70.06,70.06,0,0,1,146,83.68c-2.46,1-6.44,1.7-9,2.69,0,.07-1.43.33-1.39.4a10.84,10.84,0,0,0-2.35.44c-11.06,3.37-22.28,1.94-33.48,1.12a10.67,10.67,0,0,1-2.31-.59,6.75,6.75,0,0,0-6,.66,1,1,0,0,0-.39.44l-.38.81-10-1.39c-.35-.07-.72-.13-1.09-.18l-2.52-.33-4.67-.65.23.07q-17-2.19-34-4.57a8.77,8.77,0,0,0-9,3.7,59.22,59.22,0,0,0-7.14,11.92c-.6,1.39-1.39,2.69-2.33,4.46a1,1,0,0,0-.12.36c-.1.83-.23,2.15-.46,3.46a11.17,11.17,0,0,0,2.32,9.3,7.65,7.65,0,0,1,1.67,6.26c-1,7.41-1.79,14.86-2.62,22.08a1.06,1.06,0,0,1-.52.79l-3.82,2.2a1,1,0,0,1-1.57-.94c.12-5.75.13-11.26.39-17l-.72,0,0,1.11-.91,0c-.59,7.55-1.44,15.12-1.23,22.66.17,5.89,1.78,11.76,3,17.59.43,2.09,1.08,3.82-.34,6-1.61,2.43-1.25,4.24.23,8.22a3,3,0,0,1-1.06.33,4.32,4.32,0,0,1-1.08-.3,1.05,1.05,0,0,1-.66-.75,6.16,6.16,0,0,1-.33-2.56c.66-3-.52-5.45-1.65-8-2-4.47-3.52-9-2.55-13.59a1,1,0,0,0,0-.4C6,149,6.67,139,8.39,128.88h-.2l0,1.11-1.11,0,0-1.11-1.11,0,0,1.11-.82,0A79.12,79.12,0,0,0,4,152a11.82,11.82,0,0,1-.17,3.47,1,1,0,0,0,0,.41c.33,1.45.24,3,.61,4.53a.9.9,0,0,1,0,.18l.1,3.08a1.07,1.07,0,0,0,0,.23c.55,2.15.94,3.9,1.44,5.61a41.16,41.16,0,0,0,1.75,5.25,13.12,13.12,0,0,1,1.29,6.88c-.4,4.24,1.85,6.55,6,6.66q5.15.15,10.3,0c2.12-.06,4-.76,5-2.87a1.07,1.07,0,0,0,.07-.6l-.76-4.72a1.06,1.06,0,0,0-.5-.73,19.91,19.91,0,0,1-7.5-8.48c-2.83-5.55-3-11.65-4-17.56a8.3,8.3,0,0,1,.5-3.23,1.05,1.05,0,0,1,.75-.75l3.45-.93a1,1,0,0,0,.55-.35,3.61,3.61,0,0,0,.93-1.44c1.24-9.3,2.42-18.6,3.58-27.67a1.06,1.06,0,0,0-.15-.68c-1.17-1.95-2.09-3.59-3.14-5.14a6.41,6.41,0,0,1-1.26-4.82c1.26-8.39,5.36-15.31,10.82-22a1.05,1.05,0,0,1,.85-.39l4.4.12h0a11.33,11.33,0,0,1,2-.09c6.56.83,13.12,1.66,19.67,2.56s13.16,1.87,19.73,2.85c.28,0,.59.1.89.16L90.87,93,91,93l0,0,1.27.19a1,1,0,0,0,1.08-.55l.55-1.06a1,1,0,0,1,1-.56c3.3.34,7,.59,10.58,1.06h.17a17.05,17.05,0,0,1,3,.05C120.62,93.9,132,90,143.9,89.31a1,1,0,0,0,.29-.06l1.21-.44c3.6-1.29,7-2.27,10.24-3.75a107.82,107.82,0,0,0,9.67-5.4A41.4,41.4,0,0,0,178.09,68c2.8-4,4.78-8.5,7.27-12.7,4.57-7.73,7.58-16.16,11-24.39a15,15,0,0,0,.71-2.27C197.94,24.94,196.73,22.58,193.11,21.7ZM18.19,170.79c.64,1.19,1.23,2.4,1.93,3.55,1.52,2.48,3.15,4.85,5.75,6.41,1.14.68,1.21.87,1.47,2.77a1.06,1.06,0,0,1-.78,1.16c-3.82,1.07-7.08.55-9.92-2.58a1.06,1.06,0,0,1-.28-.72C16.44,177.91,19.76,174.73,18.19,170.79Z" fill="#fff"/><rect x="7.1" y="127.74" width="1.11" height="1.11" transform="translate(-120.85 130.4) rotate(-87.53)" fill="#fff"/></svg>