<svg id="Layer_1" data-name="Layer 1" xmlns="http://www.w3.org/2000/svg" viewBox="0 0 200 200"><title>Circuits</title><path d="M51.44,180.33h0Z" fill="#fff"/><rect x="41.67" y="170.1" width="1.47" height="1.47" transform="translate(-101.13 68.94) rotate(-40.69)" fill="#fff"/><rect x="43.74" y="170.26" width="1.47" height="1.47" transform="translate(-100.73 70.33) rotate(-40.69)" fill="#fff"/><rect x="44.7" y="171.37" width="1.47" height="1.47" transform="translate(-101.22 71.22) rotate(-40.69)" fill="#fff"/><rect x="46.61" y="173.59" width="1.47" height="1.47" transform="translate(-102.21 73.01) rotate(-40.69)" fill="#fff"/><rect x="46.76" y="171.53" width="1.47" height="1.47" transform="translate(147.15 23.94) rotate(49.31)" fill="#fff"/><rect x="44.54" y="173.44" width="1.47" height="1.47" transform="translate(147.83 26.29) rotate(49.31)" fill="#fff"/><rect x="48.52" y="175.82" width="1.47" height="1.47" transform="translate(-103.2 74.79) rotate(-40.69)" fill="#fff"/><rect x="50.43" y="178.04" width="1.47" height="1.47" transform="translate(-104.18 76.57) rotate(-40.69)" fill="#fff"/><rect x="50.59" y="175.97" width="1.47" height="1.47" transform="translate(151.85 22.59) rotate(49.31)" fill="#fff"/><rect x="48.36" y="177.89" width="1.47" height="1.47" transform="translate(152.53 24.94) rotate(49.31)" fill="#fff"/><rect x="43.9" y="168.19" width="1.47" height="1.47" transform="translate(-99.34 69.93) rotate(-40.69)" fill="#fff"/><rect x="43.58" y="172.33" width="1.47" height="1.47" transform="translate(-102.11 70.73) rotate(-40.69)" fill="#fff"/><rect x="45.65" y="172.48" width="1.47" height="1.47" transform="translate(-101.71 72.11) rotate(-40.69)" fill="#fff"/><rect x="45.81" y="170.41" width="1.47" height="1.47" transform="translate(-100.33 71.71) rotate(-40.69)" fill="#fff"/><rect x="45.5" y="174.55" width="1.47" height="1.47" transform="translate(-103.1 72.51) rotate(-40.69)" fill="#fff"/><rect x="47.56" y="174.71" width="1.47" height="1.47" transform="translate(-102.7 73.9) rotate(-40.69)" fill="#fff"/><rect x="47.72" y="172.64" width="1.47" height="1.47" transform="translate(-101.32 73.5) rotate(-40.69)" fill="#fff"/><rect x="47.41" y="176.78" width="1.47" height="1.47" transform="translate(-104.09 74.3) rotate(-40.69)" fill="#fff"/><rect x="49.48" y="176.93" width="1.47" height="1.47" transform="translate(-103.69 75.68) rotate(-40.69)" fill="#fff"/><rect x="49.63" y="174.86" width="1.47" height="1.47" transform="translate(-102.3 75.28) rotate(-40.69)" fill="#fff"/><rect x="49.32" y="179" width="1.47" height="1.47" transform="translate(-105.08 76.08) rotate(-40.69)" fill="#fff"/><rect x="51.55" y="177.09" width="1.47" height="1.47" transform="translate(-103.29 77.07) rotate(-40.69)" fill="#fff"/><path d="M195.58,36.32c0-.44-.13-.87-.21-1.33l-.24-1.49h0c-.87-5.2-1.68-10.3-2.59-15.38a8.6,8.6,0,0,0-3.08-5.3q-5.28-4.25-10.67-8.36a9,9,0,0,0-1.81-1h0a2.53,2.53,0,0,0-.45-.21l-.19-.09v0A4.59,4.59,0,0,0,174.61,3v0a5.09,5.09,0,0,0-1.14,0c-2.34.44-4.68.88-7,1.43a11.61,11.61,0,0,0-5.29,2.89c-2.15,2-4.32,4-6.35,6.16a12.85,12.85,0,0,0-2.52,3.65c-1.14,2.65-2,5.41-3,8.15a20,20,0,0,0-1,7.11c.08,2.65,0,5.3,0,8,0,1.39-.24,1.61-1.59,1.89-.48.1-1,.21-1.44.26a6.14,6.14,0,0,0-4.4,2.63c-.55.74-.94,1.59-1.51,2.3-.37.46-.93,1.07-1.41,1.07-2.67,0-5.33,0-6.91-2.85a6.2,6.2,0,0,0-2.21-2.31c-2.54-1.43-5.19-2.68-7.82-3.95a4,4,0,0,0-1.11-.29h0c-1.2-.52-2.53.67-2.53.67h0a4.24,4.24,0,0,0-1.25,1.6c-.66,1.34-1.24,2.71-2,4a3.49,3.49,0,0,1-5.43,1.28c-.47-.31-.89-.71-1.35-1A3.86,3.86,0,0,0,105,45v0a2.69,2.69,0,0,0-1.68.46h0a4.41,4.41,0,0,0-2.08,2.67c-.42,1.32-.76,2.65-1.21,4a10.88,10.88,0,0,1-4.29,5.84c-1.36.89-2.69,1.81-4,2.73a3.46,3.46,0,0,1-3.83.25,3.54,3.54,0,0,1-2-3.3c0-1,.08-1.95.11-2.92,0-1.49.16-3,.1-4.46a3,3,0,0,0-2.23-2.84h0a2.86,2.86,0,0,0-.42-.06,4.3,4.3,0,0,0-1.71.1v0l-.23.1a2.26,2.26,0,0,0-.35.16h0a3,3,0,0,0-1.74,3.09c.06.72.35,1.42.44,2.14a9.77,9.77,0,0,1,.14,2.56c-.2,1.39-.59,2.75-.9,4.12a6.61,6.61,0,0,1-2.25,3.57,33.57,33.57,0,0,0-3.48,3.39c-2.18,2.55-4.23,5.21-6.35,7.8a10.91,10.91,0,0,0-2.64,6.66,18,18,0,0,1-1.9,7.16c-.32.66-.6,1.34-.92,2.1l-.86,2L60,93.4a15.06,15.06,0,0,1-7.12,7.48c-8.52,4.25-17,8.57-25.49,12.88a7.31,7.31,0,0,1-5.26.69c-1.55-.39-3.11-.73-4.65-1.13a11.13,11.13,0,0,0-6.48,0,9.35,9.35,0,0,0-4.42,3.07h0l0,.06c-.12.15-.24.3-.36.46h0c-.17.24-.36.54-.56.85h0a8.12,8.12,0,0,0-.44.77,4.19,4.19,0,0,0-.2.4v0a9.77,9.77,0,0,0,3,12c3.8,2.78,7.64,5.51,11.43,8.29q15.89,11.62,31.75,23.27a6.5,6.5,0,0,1,2.61,4.07c.62,3.09,0,5.81-2.53,7.89a3.26,3.26,0,0,0-.73.68L52,176.56l2.79-2.36a11.11,11.11,0,0,1-.81,1.37c-.44.55-.9,1.09-1.36,1.63l.69.72a23.79,23.79,0,0,0,2.28-3.24,11.16,11.16,0,0,0,.77-6.13c-.29-3.26-1.42-6-4.23-8-5.07-3.61-10-7.34-15.07-11L9.49,129.42a7.66,7.66,0,0,1-2.79-8.93c.14-.4.3-.79.45-1.16h0l1-1.57c2.46-2.72,5.4-3.3,8.76-2.42,1.49.39,3,.71,4.49,1.1a9.74,9.74,0,0,0,7.14-.92c8.36-4.27,16.71-8.54,25.13-12.71a17.15,17.15,0,0,0,8.07-8.23c.26-.54.5-1.09.79-1.75l1-2.07h0a24.21,24.21,0,0,0,2.83-9.56,9,9,0,0,1,2-5.3c.9-1.08,1.68-2.26,2.6-3.32a92,92,0,0,1,6.55-7.29,11.18,11.18,0,0,0,3.87-6.45,14.25,14.25,0,0,1,.32-1.42,9.54,9.54,0,0,0-.09-6,1.71,1.71,0,0,1,.16-1.82,1.3,1.3,0,0,1,1.34-.35l.06,0,.17.07c.66.31.71,1,.68,1.63-.08,2.24-.25,4.49-.24,6.73a5.44,5.44,0,0,0,3.16,5,5.35,5.35,0,0,0,5.77-.33c1.62-1.09,3.25-2.15,4.81-3.31A13,13,0,0,0,99.64,57c1.66-2,2.36-4.41,3.09-6.82.29-.95.69-1.87,1.08-2.82h0a1,1,0,0,1,1.51-.44L106.91,48c.45.3.88.64,1.35.9a5.28,5.28,0,0,0,6.83-1.19,12.88,12.88,0,0,0,1.48-2.31c.66-1.24,1.25-2.52,1.88-3.81a1,1,0,0,1,1.3-.43c2,.95,3.84,1.89,5.75,2.76a9.37,9.37,0,0,1,4.44,3.76,5.2,5.2,0,0,0,4,2.64c1.07.14,2.14.3,3.21.42a4,4,0,0,0,4-2c.47-.72.89-1.49,1.39-2.19a4.21,4.21,0,0,1,3-1.87,19.53,19.53,0,0,0,2.69-.58,2.72,2.72,0,0,0,2-2.14,8.23,8.23,0,0,0,.2-1.77c0-3,0-6,0-8.93a11.8,11.8,0,0,1,.36-3.13c.89-3,1.8-6,2.93-8.94a13.23,13.23,0,0,1,2.51-4c1.93-2.12,4.06-4.05,6.14-6a10.58,10.58,0,0,1,5-2.7c2.31-.51,4.63-1,6.94-1.44h0l.32-.07a3.08,3.08,0,0,1,1.72.54h0a9.36,9.36,0,0,1,1.39.83q5.1,4,10.15,8a6.62,6.62,0,0,1,2.39,3.68c.33,1.34.55,2.7.78,4.06.67,4,1.33,8,2,12h0l.24,1.38c.11,2.81.31,5.61.31,8.42a9.78,9.78,0,0,1-2.74,7,21.62,21.62,0,0,0-1.39,1.69,16.41,16.41,0,0,1-6.06,5.14c-2.09,1-4.1,2.1-6.22,3a22.84,22.84,0,0,0-9.74,7.56c-2.53,3.37-5.23,6.63-7.91,9.89a19.53,19.53,0,0,0-4,8.17c-.25,1.08-.48,2.17-.74,3.24-1,4.26-1.69,8.61-3.52,12.64L150.5,104l-1.3,2.11a10.45,10.45,0,0,1-3,2.32,10.81,10.81,0,0,0-4.37,4.67,7.9,7.9,0,0,1-1.69,2.55,29.13,29.13,0,0,0-6.36,8,10.28,10.28,0,0,1-4.29,4c-2.14,1.15-4.24,2.4-6.33,3.65a4.14,4.14,0,0,0-1.86,2.37h0s0,.11-.08.3,0,.07,0,.12h0a5.59,5.59,0,0,0,0,1.88h0a4.33,4.33,0,0,0,1.15,2.23,2.11,2.11,0,0,1,.18,2.89c-1.49,2.29-3,4.56-4.51,6.84a7.59,7.59,0,0,1-3.4,2.78c-5.41,2.4-10.87,4.7-15.61,8.39a10,10,0,0,1-3.32,1.63c-4.7,1.36-9.44,2.6-14.15,3.9-1.8.5-3.59,1-5.36,1.62a3.92,3.92,0,0,0-2.41,2.13h0a1,1,0,0,0-.19.43l0,.06h0a4.13,4.13,0,0,0,0,1.35h0a3.51,3.51,0,0,0,2.72,3,22.25,22.25,0,0,0,2.54.53c1.39.24,2.79.43,4.38.68l-7.22,3c-1.8.75-3.61,1.46-5.38,2.28a3.33,3.33,0,0,0-1.75,5c.34.7.81,1.36,1.08,2.09a8,8,0,0,1,.61,2.48,5.48,5.48,0,0,1-2.56,4.86,6,6,0,0,1-1.08.53h0l-.34.09a5.16,5.16,0,0,1-5.53-1.57l-2-2.27a5.87,5.87,0,0,0-6-2.1c-2.2.44-4.41.86-6.59,1.41a25.67,25.67,0,0,1-8.61.71l-.82-.1a.68.68,0,0,1,.43-.34,8.89,8.89,0,0,0,4.47-2.64c.24-.26.53-.46.79-.7l7.23-6.42-.57-.71h0a2.18,2.18,0,0,0-.58.4c-2.93,2.6-5.86,5.21-8.8,7.79a10.67,10.67,0,0,1-1.24.83l-.23-.26c.21-.16.44-.31.64-.49,2.68-2.39,5.36-4.79,8-7.17.59-.52,1.2-1,1.83-1.56l-1.13-1.41c-.47-.21-.63.1-.86.31q-5.53,4.9-11,9.81a3.38,3.38,0,0,0-1.21,2.17,2,2,0,0,0,.89,2l.14.08,0,0h0a2.1,2.1,0,0,0,.83.31,25.44,25.44,0,0,0,7.44-.06c3-.62,6-1.24,9-1.92a4.23,4.23,0,0,1,4.6,1.61,32.55,32.55,0,0,0,2.44,2.72,7.15,7.15,0,0,0,7.39,1.28l0,0c.37-.15,1-.48,1.35-.63v0c.37-.23.55-.33.72-.46a7.77,7.77,0,0,0,2.35-9.27c-.32-.69-.72-1.33-1.07-2-.8-1.56-.59-2.14,1-2.81,2.74-1.16,5.55-2.17,8.21-3.48a12.1,12.1,0,0,1,9.56-1l.16,0a2.42,2.42,0,0,0,3-2.2,2.57,2.57,0,0,0-2.62-2.86,7,7,0,0,0-1.45.13c-3.84.79-7.59.06-11.34-.67a2.42,2.42,0,0,1-1.94-1.35l0,0a.7.7,0,0,1,.22-1.13h0a12.42,12.42,0,0,1,2.08-1c5-1.43,9.92-2.91,14.93-4.15a26.43,26.43,0,0,0,10.13-4.7,24.86,24.86,0,0,1,4.27-2.63c2.91-1.43,5.89-2.73,8.85-4.06a7.61,7.61,0,0,0,3.27-2.59c1.8-2.64,3.59-5.28,5.28-8a3.91,3.91,0,0,0-.19-4.44c-.36-.55-.73-1.1-1.11-1.66h0l-.12-.17a1.21,1.21,0,0,1,.12-1.41h0a15.29,15.29,0,0,1,1.84-1.48q2.82-1.69,5.71-3.25a11.54,11.54,0,0,0,4.71-4.35,30.31,30.31,0,0,1,6.24-7.93,9.23,9.23,0,0,0,1.95-2.86,9.71,9.71,0,0,1,3.81-4.1,20.63,20.63,0,0,0,2.72-1.89,13.22,13.22,0,0,0,1.49-1.74l.62-1.09A65.58,65.58,0,0,0,155,97.83c1-3.49,1.68-7,2.48-10.59a17.72,17.72,0,0,1,3.37-7.47q4.42-5.46,8.78-11a17.75,17.75,0,0,1,6.93-5.6c2.24-1,4.37-2.15,6.59-3.15a18.35,18.35,0,0,0,7.62-5.88c.62-.85,1.32-1.64,2-2.44a11.16,11.16,0,0,0,2.74-6A38.79,38.79,0,0,0,195.58,36.32ZM87.75,174.17c.74-.08,1.49-.2,2.23-.21.21,0,.43.34.64.53-.23.1-.49.32-.7.29-.73-.1-1.46-.3-2.18-.46Z" fill="#fff"/></svg>