<svg id="Layer_1" data-name="Layer 1" xmlns="http://www.w3.org/2000/svg" viewBox="0 0 200 200"><title>Circuits</title><path d="M195.5,18.72A49,49,0,0,0,181.77,4.81c-3-2.09-6.24-2.17-9.55-1.41a53.35,53.35,0,0,0-6.33,2.21c-2.57.94-5.14,1.91-7.7,2.87s-5.13,1.91-7.68,2.91c-2.21.86-4.42,1.75-6.62,2.63h0l-8.12,3.14-.22.07h0L130,19.37l-.42.14-1.64.65-1.09.42h0c-3.41,1.35-6.81,2.73-10.23,4.07-4.17,1.63-8.37,3.19-12.55,4.81a11.87,11.87,0,0,0-2.2,1.16c-2.43,1.6-2.8,4.12-.93,6.37.64.77,1.4,1.42,2,2.19,2,2.48,3.23,5.29,2.51,8.53-1.37,6.17-2.88,12.3-4.31,18.45q-1.64,7-3.24,14.09h0l-2.36,10.2h0l-.12.52-.22.94h0Q93.65,99,92,106c-1.21,5.38-3.75,9.94-8.29,13.2-2.83,2-5.71,4-8.62,5.91q-19.75,13-39.52,26L13.55,165.59c-2.64,1.73-5.28,3.45-7.9,5.22a5.42,5.42,0,0,0-2.51,3,5.63,5.63,0,0,0,6.15,7.38c1.32-.13,2.62-.38,3.94-.57,2.14-.31,2.88.41,2.7,2.61,0,.25-.05.5-.08.74-.32,3-.72,5.94-1,8.92a3.76,3.76,0,0,0,4.62,4.1,19.55,19.55,0,0,0,1.93-.53l23.5-6.81c.85-.25,1.72-.45,2.53-.65a9.13,9.13,0,0,0,1.19,2.42c.75.75,1.51.34,2-.52l-.42-2.78,6.57-1.91,6.71-2L70,182.34l1.62-.47,7.69-2.23,28.06-8.1a22.22,22.22,0,0,0,2.13-.7c2.37-1,3.3-2.74,2.64-5.17-.28-1-.76-2-1.13-3-1.32-3.58-2.78-7.12-3.88-10.76a13.32,13.32,0,0,1-.25-5.16,15.75,15.75,0,0,1,5.41-10.12,66.17,66.17,0,0,1,32.78-16.27,87.65,87.65,0,0,1,18.31-1.49,11.43,11.43,0,0,0,11.84-13.49c-.48-3-1.07-6-1.56-9.07a16.73,16.73,0,0,1,0-2.39,30.85,30.85,0,0,1,3.27-.6c4-.3,8.11-.48,12.16-.8s6.16-3.28,5.18-7.32c-.43-1.78-1.06-3.51-1.41-5.31-.71-3.67-3-5.73-6.37-7-5.73-2.24-11.43-4.55-17.15-6.82h0l-9.13-3.63C151.81,59,143.4,55.63,135,52.21a11.08,11.08,0,0,1-2.94-1.81c-2.23-1.9-2.27-4.41-.15-6.48,3.79-3.69,8.42-4.87,13.53-4.22,6.26.8,12.51,1.72,18.75,2.66,4.27.64,8.54,1.36,12.79,2.12a8.76,8.76,0,0,0,6.9-1.25c2.66-1.85,5.36-3.63,8-5.48a7.79,7.79,0,0,0,3.17-4.63c.6-2.42,1.21-4.84,1.79-7.26A9,9,0,0,0,195.5,18.72ZM44.65,187.5l-23.49,6.81c-.4.12-.79.25-1.2.34-1.88.41-2.61-.22-2.49-2.19.1-1.55.24-3.09.37-4.64h.3c.1.56.23,1.12.3,1.68.39,3.16,2.29,4.44,5.41,3.6,1.45-.39,2.88-.82,4.32-1.24l16.3-4.72a4.3,4.3,0,0,1,2.23-.23Zm63.8-23.58a9.48,9.48,0,0,1,.38,1.09c.6,2.39.2,3.18-2.08,4-2.9,1-5.79,2.07-8.73,3-6.05,1.83-12.13,3.57-18.2,5.35l-2.84.82h0l-1.53.44v0L49.87,186l-.11-.37,2.37-.69,33.8-9.81c4.63-1.35,9.29-2.62,13.89-4.07a12.47,12.47,0,0,0,6.48-4C107.11,166,107.79,164.91,108.45,163.92ZM194.79,24.8c-.59,2.59-1.21,5.18-1.83,7.76A5.69,5.69,0,0,1,190.6,36c-2.52,1.76-5.07,3.47-7.57,5.25a7.12,7.12,0,0,1-5.68,1c-4.42-.78-8.84-1.53-13.28-2.19-5.83-.88-11.67-1.73-17.52-2.47-4.79-.61-9.44-.27-13.6,2.6a12.89,12.89,0,0,0-4.32,4.4c-1.39,2.58-1.06,5.12,1.19,7a26.47,26.47,0,0,0,4.65,2.83c1.44.75,3,1.3,4.63,2l-.08.05,4.07,1.62a9.78,9.78,0,0,1,1.59.51c4.77,2,9.58,3.83,14.38,5.72h0l3.09,1.25c.54.19,1,.47,1.57.68q5.92,2.32,11.83,4.65l10.65,4.24a6.62,6.62,0,0,1,4.47,4.95c.41,1.95.82,3.9,1.27,5.83.65,2.77-.28,4.14-3.09,4.34-3.72.26-7.45.44-11.17.71a46.24,46.24,0,0,0-4.68.55,3.06,3.06,0,0,0-2.51,2.77,6.74,6.74,0,0,0,.22,2.68c.66,2.49,1.59,4.93,2.08,7.45a14.9,14.9,0,0,1,.13,5.41c-.66,3.65-4.69,6.74-8.52,6.85-1.24,0-2.49,0-3.73-.05a75.6,75.6,0,0,0-36.84,9,62.38,62.38,0,0,0-12.57,8.91c-6.16,5.9-8.58,12.9-5.7,21.28.49,1.42.91,2.86,1.27,4.31a7.09,7.09,0,0,1-3.79,8.36,26.23,26.23,0,0,1-4.36,1.8q-23.83,7-47.7,13.88a16.41,16.41,0,0,1-1.8.33L48,182.06l-2,.57.31,2.72a8.23,8.23,0,0,1-.84.37c-7.35,2.14-14.7,4.29-22.06,6.39-2.32.66-3.66-.3-4-2.67-.42-2.62-.85-5.23-1.37-7.83a3.73,3.73,0,0,0-4.48-3.27c-1.15.12-2.29.38-3.45.47a6.56,6.56,0,0,1-2.44-.14,3.3,3.3,0,0,1-2.53-2.5,3.34,3.34,0,0,1,1.6-3.42c.55-.38,1.1-.74,1.66-1.11l34.13-22.42q10.51-6.91,21-13.85L88.07,119.2a10.73,10.73,0,0,0,4.76-7C94.15,106.1,95.64,100,97.06,94l2.5-10.58,0-.09.25-1.11L99.9,82h0c.75-3.27,1.49-6.54,2.25-9.81.62-2.67,1.27-5.33,1.89-8l-.15-.09,3.25-13.84h.08c.19-.81.37-1.62.52-2.43a9.62,9.62,0,0,0-1.12-7.2c-1.14-1.82-2.15-3.72-3.12-5.42a3,3,0,0,1,1.83-2.94,187.2,187.2,0,0,1,18-7.84c2.38-.91,4.76-1.84,7.19-2.79h0l16.38-6.28c4.56-1.77,9.1-3.59,13.65-5.38,2.93-1.16,5.85-2.35,8.8-3.45,3.94-1.48,7.9-2.24,11.65.46A47.47,47.47,0,0,1,193.81,20,6.12,6.12,0,0,1,194.79,24.8Z" fill="#fff"/></svg>