<svg id="Layer_1" data-name="Layer 1" xmlns="http://www.w3.org/2000/svg" viewBox="0 0 200 200"><title>Circuits</title><path d="M98.16,138l0,0,0,0Z" fill="#fff"/><path d="M101.51,141.22l0,0,0,0Z" fill="#fff"/><path d="M102.67,142.26l0,0,0,0Z" fill="#fff"/><path d="M97.24,137.18l0,0,0,0Z" fill="#fff"/><path d="M103.77,143.36l0,0,0,0Z" fill="#fff"/><path d="M96.14,136.08l0,0,0,0Z" fill="#fff"/><path d="M94.93,132.81l.15.12-.17-.14Z" fill="#fff"/><path d="M95,135l0,0,0,0Z" fill="#fff"/><path d="M97.23,137.11l0,0,0,0Z" fill="#fff"/><path d="M96.08,136.08l0,0,0,0Z" fill="#fff"/><path d="M98.09,138l0,0,0,0Z" fill="#fff"/><rect x="92.1" y="133.2" width="2.1" height="2.1" transform="translate(-68.79 112.46) rotate(-47.58)" fill="#fff"/><rect x="95.07" y="133.07" width="2.1" height="2.1" transform="translate(-67.73 114.6) rotate(-47.58)" fill="#fff"/><rect x="95.21" y="136.04" width="2.1" height="2.1" transform="translate(-69.87 115.67) rotate(-47.58)" fill="#fff"/><rect x="98.18" y="135.9" width="2.1" height="2.1" transform="translate(-68.81 117.82) rotate(-47.58)" fill="#fff"/><rect x="98.31" y="138.87" width="2.1" height="2.1" transform="translate(-70.96 118.88) rotate(-47.58)" fill="#fff"/><rect x="101.28" y="138.74" width="2.1" height="2.1" transform="translate(-69.89 121.03) rotate(-47.58)" fill="#fff"/><rect x="101.41" y="141.71" width="2.1" height="2.1" transform="translate(-72.04 122.1) rotate(-47.58)" fill="#fff"/><rect x="104.38" y="141.58" width="2.1" height="2.1" transform="translate(-70.98 124.25) rotate(-47.58)" fill="#fff"/><path d="M193.07,18.15A27.49,27.49,0,0,0,182.52,7.68c-7.68-4.39-15.55-4.74-23.16.11-2,1.29-3.48,3.47-5.2,5.25L145.78,23.4l-.6.72c-2.89,3.38-6.91,3.78-10.44,1-2.57-2-5.08-4.06-7.69-6-3.56-2.65-7.52-4.14-12-3.53Q103.21,17.21,91.41,19a33.53,33.53,0,0,0-6.14,1.54,10.63,10.63,0,0,0-7.11,7.43c-1.42,5.31-2.63,10.68-3.92,16.11L71.35,56l0-.06C70.13,61.33,68.95,66.2,68,71.11a13.68,13.68,0,0,0,1.81,10.28,9.38,9.38,0,0,0,7.55,4.75c3.19.23,5.81-1.17,8.36-2.77C103,72.53,120.33,61.84,137.47,50.81c6.69-4.31,15.4-1.33,18.94,2.72A7.67,7.67,0,0,1,155,65.35c-1.32.9-2.68,1.74-4,2.6l-31.24,20L103.46,98.28h0Q91.21,106,79,113.81a20.46,20.46,0,0,0-7,7.07c-6.18,10.68-12.43,21.31-18.68,31.94-1.31,2.22-2.57,4.49-4.07,6.58-3.12,4.34-8.21,4.89-11.39,1.35-2.14-2.37-2.35-6.22-.49-9.42.61-1,1.28-2.06,2.12-3.39h0l4-6.42c.68-1,1.34-2.11,2-3.18l.23-.37h0l.56-.92a71,71,0,0,0,4.37-8c1.55-3.6,1.59-7.27-1-10.54a11.27,11.27,0,0,0-17.28-.95c-7.08,7.08-14.08,14.25-21.09,21.41a24.31,24.31,0,0,0-6.44,11.65c-2.25,9.71-.51,18.3,7.13,25.29,5.07,4.63,10.06,9.36,14.89,14.24,7.8,7.87,19.49,7.07,26.69-.49q23-24.11,45.83-48.36v-.14l-1.91-1.68A24.56,24.56,0,0,1,94,144l-1.68,1.75v0l-1.46,1.5-5.32,5.48v0l-14,14.78-.29-.23c1.48-2,2.81-4.15,4.47-6,5.31-5.91,10.73-11.71,16.12-17.54,1.3-1.4,2.68-2.73,3.92-4.18a6.4,6.4,0,0,0,.64-.92l-.89-.79a2.62,2.62,0,0,0,.29.34l-1.25,1.33q-8.38,8.82-16.75,17.64A30.76,30.76,0,0,0,75,160.5a208.69,208.69,0,0,1-23.21,27.76c-7.22,7.18-17,7.67-24.17.37-5.07-5.15-10.45-10-15.63-15a21,21,0,0,1-3.22-3.94c-5.34-8.64-4-21.38,3.16-28.93s14.27-14.65,21.53-21.85A11.75,11.75,0,0,1,38,116.3a8.83,8.83,0,0,1,9.51,2.45c2.58,2.6,2.85,5.74,1.71,9.05a22.91,22.91,0,0,1-1.71,3.8c-1,1.84-2.16,3.65-3.3,5.51h0L37,148.61h0c-1.36,2.08-2.52,4.11-2.64,6.59A8.71,8.71,0,0,0,39,163.81a7.85,7.85,0,0,0,9.35-1.14,17.08,17.08,0,0,0,3.48-4.1Q62.66,140.34,73.31,122a19.28,19.28,0,0,1,6.52-6.68q13.56-8.6,27.09-17.22h0l4.6-2.93,4.1-2.61,0,0,2.67-1.7h0l0,0,2.15-1.37h0q7.92-5,15.83-10.1c6.77-4.35,13.58-8.65,20.28-13.11,3-2,4.07-5.09,3.46-8.68a10.91,10.91,0,0,0-5.59-7.79c-5.49-3.23-11.21-4.38-17-.88-7.6,4.59-15.09,9.34-22.6,14.06-6.69,4.2-13.32,8.48-20,12.66-4.2,2.62-8.33,5.41-12.75,7.61-5.91,2.95-11.28.07-12.23-6.47a24.57,24.57,0,0,1,.4-8.27c.65-3.19,1.39-6.37,2.16-9.54l2.78-11.35v0C76.64,41.7,78,36.3,79.11,30.84s4.19-8.45,9.44-9.55c.91-.19,1.82-.4,2.74-.53l23.61-3.38a14.49,14.49,0,0,1,11,3.09c2.65,2,5.21,4.07,7.82,6.1,3.29,2.55,9.21,3.61,13-1.56l9.69-12h0l.54-.68a15.33,15.33,0,0,1,8.69-5.55,20.07,20.07,0,0,1,16.49,2.66c7.58,5,12.58,11.51,11.7,21.16a24.44,24.44,0,0,1-6.91,14.91c-11.14,11.63-21.62,23.91-33.64,34.69-5.5,4.93-10.91,10-16.42,14.87a3.29,3.29,0,0,1-2.45.89c-2.7-.67-4.09.58-5.36,2.75-2.47,4.23-4.64,8.78-7.82,12.42-7.06,8.08-14.68,15.68-22.06,23.49a3.27,3.27,0,0,1-.4.37l.7.71a4.7,4.7,0,0,1,.45-.53c5.72-6,11.27-12.1,17.16-17.88,4.8-4.71,8.23-10.29,11.61-16q.83-1.4,1.65-2.8c.78-1.35,1.81-2.06,3.46-1.57a3.56,3.56,0,0,0,3.66-1c3.13-2.92,6.33-5.78,9.51-8.65a3.33,3.33,0,0,1,1-.65l-47.45,50.2,1.58,1.61.92-1c3.81-4,7.64-8,11.44-12q33.87-35.79,67.72-71.6c3.36-3.56,6.91-7.07,9.58-11.12C196.93,35,197.79,26.59,193.07,18.15Z" fill="#fff"/></svg>