<svg id="Layer_1" data-name="Layer 1" xmlns="http://www.w3.org/2000/svg" viewBox="0 0 200 200"><title>Circuits</title><path d="M64.66,167.57q-8,8.08-15.9,16.16a13.89,13.89,0,0,0-1.64,1.92,2.85,2.85,0,0,0,.08,3.6A4.27,4.27,0,0,0,52,191.08c2.23-.64,3.26-1.75,3.22-4.13A5.11,5.11,0,0,1,57,183q5.26-5.14,10.41-10.41a4,4,0,0,0,.72-1.47Zm.13,4.14c-3.25,3.25-6.49,6.51-9.77,9.72A6.51,6.51,0,0,0,52.72,186a4.51,4.51,0,0,1-.56,2,1.5,1.5,0,0,1-2.21.48c-.88-.47-.74-1.24-.23-1.95a9.24,9.24,0,0,1,.88-1.06l15.16-15.37a6.66,6.66,0,0,1,.61-.49l.24.25C66,170.46,65.42,171.1,64.8,171.72Z" fill="#fff"/><path d="M198,47.18c-.31-1.71-2.1-2.06-3.52-2.6l-.22-.08a1.77,1.77,0,0,1-1.15-2.55A24,24,0,0,0,194.35,38a4.87,4.87,0,0,0-.22-2.85c-.75-1.49-1.54-3.37-2.85-4.08-3.08-1.66-5.67-4-8.74-5.62a22.46,22.46,0,0,0-6.17-1.69c-4.42-.81-7,1.72-6.63,6.24.22,2.43-2.16,6.38-4.44,7.07s-4.55,1.16-7,1.77c.84-.74,1.61-1.33,2.28-2a3.41,3.41,0,0,0,.63-4c-.86-1.42-2.18-1.16-3.48-.85a26.54,26.54,0,0,1-4.46,1,11.75,11.75,0,0,0-7.94,3.55c-5.37,5.24-8.35,5.32-14.13.61a15.35,15.35,0,0,0-7.37-3.53,79.2,79.2,0,0,0-11.17-1.09A19.38,19.38,0,0,1,102.15,29a9.51,9.51,0,0,1-4.56-8.28c0-1.84.1-3.67.14-5.51a19.28,19.28,0,0,0,0-2.75c-.4-3.31-3.14-4.65-6-2.92a21.45,21.45,0,0,0-2.89,2.21,8.15,8.15,0,0,1-5.07,2,27.33,27.33,0,0,0-9.92,2.57A5.12,5.12,0,0,0,70.3,21.4a5.37,5.37,0,0,1-.12,1c.45,2.83-2.53,1.72-2.68,1.66h0c-6.7-1.34-9.25-1-12.4,1.31a.1.1,0,0,1-.14,0,17.26,17.26,0,0,0-7.51-5.31,4.58,4.58,0,0,0-5.29,1.11,9.12,9.12,0,0,0-2.39,4.06,5.13,5.13,0,0,1-2.54,3.57c-1,.62-2,1.14-3,1.71-2.16,1.24-2.57,3-1,4.93a8,8,0,0,0,5.62,3.23,2.21,2.21,0,0,1,2,1.52c1.3,2.68,1,5.14-1.17,7.15C36.05,50.81,33.1,55,28.87,57.88a3.58,3.58,0,0,0-1.52,4.41c.11.36.17.73.29,1.25l-3,2.44a.11.11,0,0,0,0,.12c1.58,4.73.09,8.92-3.36,12.32-5,5-10.32,9.61-17.2,11.83l0,0a4.38,4.38,0,0,0-2.4,2l-.07.13c-.34,3.1,1.81,4,4,4.84A10.41,10.41,0,0,1,11.54,103c1.6,3.75,3.35,7.43,4.95,11.17a10.58,10.58,0,0,1,.78,3.07c.47,4.58.82,9.18-1.05,13.57s-.87,7.75,2.29,11.09c3.42,3.63,6.67,7.4,11,10.06a6,6,0,0,1,2.78,3.51,3.25,3.25,0,0,0,2.83,2.37c.64.1,1.27.32,1.91.37a3.1,3.1,0,0,1,2.25,1.29,66.73,66.73,0,0,0,4.34,5.14,3,3,0,0,0,3.32,1.05c2.94-1,5.57-.23,8.11,1.21,2.38,1.35,4.65,1.06,7-.24A9.4,9.4,0,0,0,66.36,161c.33-1,.65-2.07,1-3.28a.12.12,0,0,1,.17-.06c3.51,2.53,3.57,3.37.88,6.11l-.13.13,1.8,1.8c.52-.53,1-1.06,1.54-1.6a4.61,4.61,0,0,0,.66-5.23c-1-1.89-2.25-3.59-4.66-3.91a2.28,2.28,0,0,0-2.48,1.64A35.09,35.09,0,0,0,64,160a7,7,0,0,1-3.35,4.46,4.44,4.44,0,0,1-4.59.1,12.22,12.22,0,0,0-9.48-1.49,2.22,2.22,0,0,1-1.68-.81c-1.41-1.6-2.74-3.27-4-5a4,4,0,0,0-3.17-1.57c-1.88-.13-3.22-.73-3.89-2.81a6.17,6.17,0,0,0-2.61-2.79c-4.49-2.87-8-6.78-11.48-10.69A7.16,7.16,0,0,1,18.5,132a29.38,29.38,0,0,0,1.3-15,8.5,8.5,0,0,0-.46-2.24c-2.29-5.17-4.56-10.36-7-15.46-1-2-2.94-3.06-4.89-4-.81-.4-1.61-.81-2.61-1.33a.72.72,0,0,1,0-1.29c.62-.29,1.11-.52,1.62-.71,7.28-2.67,12.76-7.83,17.89-13.32a12.83,12.83,0,0,0,3.3-9.32c0-1.6.12-3,1.59-4a2.49,2.49,0,0,0,.64-3.15,2,2,0,0,1,.94-2.69c4.24-3,7.43-7.05,11-10.76,3-3.2,3.13-6.69.93-10.52a4,4,0,0,0-3.22-2c-2-.11-3.42-1.22-4.68-2.87a.12.12,0,0,1,0-.17c1.54-1,3-1.78,4.29-2.7a5.69,5.69,0,0,0,2.93-4.42,5.66,5.66,0,0,1,1.29-2.63,2.63,2.63,0,0,1,3.46-.93c2.34,1.11,4.71,2.17,6,4.71A2.11,2.11,0,0,0,56.3,28c2.75-2.9,6-2.44,9.37-1.77,1.17.24,2.35.42,3.53.6h0l.44.07c.72.05,2.08-.14,2.5-2.22a22.07,22.07,0,0,0,.56-3.1,3,3,0,0,1,2.1-3,62.93,62.93,0,0,1,9.06-2.35,12.4,12.4,0,0,0,6.84-2.87,15,15,0,0,1,2-1.55c1.58-1,2.46-.51,2.55,1.32,0,.92,0,1.84-.05,2.76s-.14,1.83-.18,2.75c-.28,6.18,2.14,10.77,7.77,13.67A22.37,22.37,0,0,0,113.1,35a76.59,76.59,0,0,1,10.69,1.17,13.07,13.07,0,0,1,5.9,2.93,32.22,32.22,0,0,0,5.25,3.23,6.84,6.84,0,0,0,7-.32,42.27,42.27,0,0,0,5.62-4.22,8.57,8.57,0,0,1,4.69-2.24c2.18-.27,4.35-.69,6.95-1.11a11.84,11.84,0,0,1-1.4,1.43c-2.08,1.43-4.16,2.83-6.29,4.19a3.19,3.19,0,0,0-1.72,2.62,3.14,3.14,0,0,0,2.49,3.08,2.77,2.77,0,0,0,3-1.06c2.17-3.11,5.42-4.18,8.83-4.78,4.35-.77,6.38-3.9,8.1-7.39a4,4,0,0,0,.07-2.23c-.47-3,1-4.66,4-4,3.12.65,6.34,1.14,8.49,4a4.23,4.23,0,0,0,2.35,1.34c2.2.49,3.4,2,4.29,3.83a4.58,4.58,0,0,1,.3,2.59c-.18,1.12-.73,2.17-1,3.28-.74,2.8,0,4.31,2.66,5.54.87.41,2.11.81,2.38,1.51a8.62,8.62,0,0,1,.18,3.84c0,.41-.9,1-1.41,1a24.78,24.78,0,0,1-3.42-.34c-2.68-.26-3.66.33-4.76,2.68a23.15,23.15,0,0,1-1.69,2.9,13,13,0,0,0-2.42,8.21c.11,1.53,0,3.06,0,4.6a2.4,2.4,0,0,1-2,2.64c-4.66,1-7.32,4.35-9.18,8.31s-4.92,6-8.65,7.33c-2.87,1-5.88,1.66-8.83,2.47a3.08,3.08,0,0,1-3.17-.78c-1.25-1.17-2.61-2.23-4.49-1.78a10.26,10.26,0,0,0-5.85,3.81,2.87,2.87,0,0,0,.46,3.81,12.21,12.21,0,0,0,3.15,2.21c1.35.71,2.86,1.1,4.22,1.79,3.57,1.82,4,5.9.72,8.09-4.4,2.92-9,5.55-13.49,8.32-13.3,8.21-26.56,16.47-39.89,24.62-4.66,2.85-7.88,7-10.88,11.36-1.43,2.08-2.71,4.31-5,5.58a29.67,29.67,0,0,0-8.81,7l1.6,1.6a6.21,6.21,0,0,0,1.52-1.22A22.08,22.08,0,0,1,77,163.7a27.76,27.76,0,0,0,10.36-10.18,15.37,15.37,0,0,1,1.2-1.68,28,28,0,0,1,7.74-7.43q22-13.52,44-27.11c3.09-1.9,6.23-3.73,9.23-5.76a7.53,7.53,0,0,0,2.85-9.3c-1.08-2.32-3.05-3.36-5.22-4.24a32,32,0,0,1-4.15-1.92,1.84,1.84,0,0,1-.66-1.66,4.33,4.33,0,0,1,6.44-1.2,6,6,0,0,0,5.69,1.18c2.65-.75,5.32-1.42,7.95-2.25,4.94-1.56,8.77-4.34,11-9.26,1.45-3.14,3.67-5.81,7.45-6.6,2.4-.5,3.6-2.2,3.84-4.57a13.57,13.57,0,0,0,.06-3,12.84,12.84,0,0,1,2.81-10.25,4.51,4.51,0,0,0,.88-1.71c.36-1.34,1.21-1.53,2.45-1.36a26.3,26.3,0,0,0,4.34.26,2.74,2.74,0,0,0,2.95-2.4A23.83,23.83,0,0,0,198,47.18Z" fill="#fff"/><rect x="76.41" y="173.45" width="1.77" height="1.77" transform="translate(253.72 246.73) rotate(136.22)" fill="#fff"/><rect x="73.91" y="173.4" width="1.77" height="1.77" transform="translate(249.37 248.37) rotate(136.22)" fill="#fff"/><rect x="73.85" y="175.9" width="1.77" height="1.77" transform="translate(251.01 252.72) rotate(136.22)" fill="#fff"/><rect x="73.96" y="170.9" width="1.77" height="1.77" transform="translate(247.73 244.03) rotate(136.22)" fill="#fff"/><rect x="71.46" y="170.84" width="1.77" height="1.77" transform="translate(243.39 245.67) rotate(136.22)" fill="#fff"/><rect x="71.4" y="173.35" width="1.77" height="1.77" transform="translate(245.03 250.01) rotate(136.22)" fill="#fff"/><rect x="71.51" y="168.34" width="1.77" height="1.77" transform="translate(241.75 241.32) rotate(136.22)" fill="#fff"/><rect x="69.01" y="168.29" width="1.77" height="1.77" transform="translate(237.4 242.96) rotate(136.22)" fill="#fff"/><rect x="68.96" y="170.79" width="1.77" height="1.77" transform="translate(239.04 247.31) rotate(136.22)" fill="#fff"/><rect x="69.06" y="165.79" width="1.77" height="1.77" transform="translate(235.77 238.62) rotate(136.22)" fill="#fff"/><rect x="66.56" y="165.73" width="1.77" height="1.77" transform="translate(231.42 240.26) rotate(136.22)" fill="#fff"/><rect x="66.51" y="168.24" width="1.77" height="1.77" transform="translate(233.06 244.6) rotate(136.22)" fill="#fff"/><rect x="66.61" y="163.23" width="1.77" height="1.77" transform="translate(229.78 235.91) rotate(136.22)" fill="#fff"/><rect x="64.06" y="165.68" width="1.77" height="1.77" transform="translate(227.08 241.9) rotate(136.22)" fill="#fff"/></svg>