<svg id="Layer_1" data-name="Layer 1" xmlns="http://www.w3.org/2000/svg" viewBox="0 0 200 200"><title>Circuits</title><path d="M58.54,110.68l.49-.3h0Z" fill="#fff"/><path d="M44.86,138.54c-1.32,2.18-2.53,4-3.56,5.91-3.4,6.33-6.69,12.71-10.11,19-.78,1.44-.47,2.11,1,2.69a39.76,39.76,0,0,1,4.46,2.18,2.11,2.11,0,0,1,1,1.62l-7.44-4.14c-1.82,3.34-3.56,6.49-5.26,9.65-2.47,4.59-4.94,9.17-7.34,13.8-.89,1.71-1.89,3.37-4.05,2.88s-2.41-2.54-2.58-4.37c-.58-6.13-1.28-12.26-1.56-18.4A50.92,50.92,0,0,1,10,157.12c1.06-5.24,2.95-10.32,4.58-15.44,1.49-4.67,3.21-9.26,4.64-13.94a14.49,14.49,0,0,0,.68-5.38c-.59-6.6,2.27-11.53,7.31-15.29a18.85,18.85,0,0,0,5.6-7.49c3-6.21,6-12.38,8.83-18.63,2.7-5.9,7.31-10.25,11.62-14.86Q63.61,54.92,74.11,43.83C82.45,35,90.75,26.08,99.2,17.33c2.26-2.34,5.17-2.79,8.32-1.48,4.12,1.7,4.34,1.59,7.33-1.67.16-.18.33-.34.49-.52,5.88-6.84,8.09-7.29,16.14-3.53,7.29,3.4,14.65,6.67,21.93,10.09a20.47,20.47,0,0,1,4.35,2.8,6.3,6.3,0,0,1,1.54,8c-1.31,2.55-4.6,4.27-7.4,3.34a71,71,0,0,1-8.15-3.72c-1.42-.69-2.78-1.5-4.18-2.25-2.76-1.46-4.38-1.15-6.4,1.3-2.36,2.87-4.43,6-7.07,8.59-5.13,5-10.55,9.71-15.9,14.49-2.53,2.26-5.3,4.27-7.73,6.63s-3.79,5.56-2.52,9.06c3.24,8.95,8.58,15.33,20.25,13.41,8.88-1.46,17.82-2.56,26.75-3.75a19.6,19.6,0,0,1,5.42-.16,9.27,9.27,0,0,1,8.25,9.5c-.15,5.89,2.44,9.06,9,9,5.21,0,10.42.46,15.62.71,5,.24,8.69,3,8.21,8.74-.32,3.85-.37,7.74-.8,11.58-.54,4.81-4.63,8.76-9.36,9.79-14.35,3.13-27.6-.45-40.29-6.74a126.68,126.68,0,0,1-14.1-8.72,30.7,30.7,0,0,0-19.9-5.59c-5.59.42-11.16,1-16.73,1.63a10,10,0,0,0-6.9,4.12c-4.54,5.75-9,11.56-13.83,17.1a41.78,41.78,0,0,1-7.51,6.47,102.36,102.36,0,0,1-9.7,5.92C49.52,144.16,48.11,143.73,44.86,138.54Zm-21.25,24c1-.39,2.57-.49,3-1.23,2.38-4.19,4.45-8.54,6.69-12.82s4.47-8.89,7.07-13.11c2-3.29,5.4-3.78,8.08-1.45a7,7,0,0,1,2,3.39c.48,1.85,1.35,1.93,2.71,1.09,3.15-2,6.32-3.9,9.42-5.94a19,19,0,0,0,4.07-3.23c4.82-5.63,9.58-11.32,14.21-17.12,3.08-3.86,6.34-7.33,11.61-7.84,5.1-.49,10.22-.83,15.33-1.33,8.47-.84,16,1.52,23.11,6.07,8.48,5.43,16.84,11,26.86,13.68,8.39,2.28,16.54,3.12,25,1,4.28-1.08,6.49-3.59,6.84-8,.26-3.23.48-6.46.63-9.7.17-3.69-1.37-5.25-5-5.39-5.85-.23-11.69-.47-17.53-.83s-9.06-3.21-10.08-9.11a24,24,0,0,1-.24-3.06c-.16-3.68-2.41-6.06-6.1-6.27a20.51,20.51,0,0,0-4,.12Q134,83.3,120.9,85.26c-6.21.91-11.93,0-16.95-4.11-3.2-2.64-4.64-6.35-6.42-9.85-2.14-4.21-2.23-8.56.87-12.23a65.23,65.23,0,0,1,8.75-8.25c8.73-7.11,17.08-14.55,23.84-23.65,2.72-3.67,6-4.26,10-2.07,3,1.64,5.93,3.32,8.95,4.88a5.43,5.43,0,0,0,3.11.9c1.22-.25,2.79-1,3.27-2a3.66,3.66,0,0,0-1.07-3.36,38.39,38.39,0,0,0-6.59-3.63c-7.17-3.35-14.37-6.61-21.56-9.91-2.51-1.15-4.73-1-6.63,1.22-1.08,1.26-2.24,2.44-3.36,3.66-3.62,3.93-5.71,4.39-10.69,2.24-1.79-.78-3.28-.7-4.72.8-3.21,3.37-6.57,6.6-9.77,10Q73.79,49.07,55.75,68.34c-3.37,3.62-7,7.21-9.47,11.42a210.33,210.33,0,0,0-10.1,20.32,27.83,27.83,0,0,1-8.6,11.06,10.34,10.34,0,0,0-4.35,8.77,30.08,30.08,0,0,1-.66,7.73c-1,4-2.59,7.94-3.81,11.94-1.31,4.29-2.91,8.56-3.64,13-1.22,7.36-.77,14.79.29,22.17.24,1.67.4,3.36.66,5.61a15.81,15.81,0,0,0,1.4-1.74c2.07-3.82,4.12-7.66,6.17-11.5C24.55,165.41,25.72,163.73,23.61,162.53Zm25.84-24c.06-2.85-.91-4.26-2.93-4.9a4.25,4.25,0,0,0-5.34,1.86c-2.06,3.36-4.07,6.75-5.92,10.23a34.63,34.63,0,0,0-1.78,5,8,8,0,0,0,2.12-2.77c2-3.65,3.86-7.4,6.09-10.91,1.58-2.49,4.15-2.6,6-.7C48.21,136.82,48.59,137.41,49.45,138.51ZM13.52,158.29c-1.58,3.49-.89,17.14,1.24,20.36Zm1,22.65v5.59l.63.2,3.75-7.21C17,179.65,17.19,183.69,14.51,180.94Zm10.25-12.59-.6-.31-3.11,5.89.61.32Z" fill="#fff"/></svg>