<svg id="Layer_1" data-name="Layer 1" xmlns="http://www.w3.org/2000/svg" viewBox="0 0 200 200"><title>Circuits</title><path d="M40.19,39.43l-1.74,1.9-.52,0a9.67,9.67,0,0,1-.16-2.23c0-.27.75-.45,1.28-.74-.36-.39-.78-.89-1.24-1.35-3-3-6.19-5.92-9.09-9.07a10.37,10.37,0,0,1-2.37-4.47,52.26,52.26,0,0,1-1.08-8.23c-.21-2.94.83-4,3.79-4a33.37,33.37,0,0,1,5.28.55c2,.31,3.92.8,5.89,1.14a9.75,9.75,0,0,1,5.68,3c2.64,2.77,5.45,5.37,8.11,8.12,1,1.08,1.85,1,2.85,0,3-3.06,6-6.08,9.05-9.11,1.73-1.73,2.89-1.74,4.66,0q5.19,5,10.36,10.11Q86.49,30.34,92,35.79c2.39,2.35,2.41,3.3.11,5.65-3,3.05-6,6.14-9,9.12-.9.87-.78,1.35,0,2.16q11.73,11.55,23.4,23.16,20,19.86,40,39.71a3.91,3.91,0,0,1,1.16,4c-1.5,5.61-3.16,11.19-4.67,16.8-1.14,4.25-2.3,8.51-3.18,12.82a9.67,9.67,0,0,0,2.55,9.25c5.45,5.76,10.81,11.58,17.2,16.35,3,2.21,6.46,3.08,9.91,4.08,1.75.51,3.51,1,5.28,1.38a4.5,4.5,0,0,1,3.64,3.31,19.3,19.3,0,0,1,.85,5.45c-.11,3.16-2.52,4.72-5.42,3.41a24.33,24.33,0,0,1-6.15-4c-5.67-5.07-11.17-10.32-16.71-15.52-4.12-3.86-8.13-7.83-12.33-11.6-3.26-2.92-3.49-2.81-6.48.24-2.74,2.8-5.47,5.61-8.22,8.39-1.65,1.66-2.74,1.65-4.4,0q-11.5-11.5-23-23c-2-2-2-3.55,0-5.55,7.14-7.15,14.25-14.34,21.43-21.46,1.29-1.28.37-2-.39-2.83-3.07-3.17-6.19-6.3-9.3-9.44q-6.68-6.75-13.36-13.49Q68,67.22,41.11,40.26C40.82,40,40.52,39.72,40.19,39.43ZM47,42.91,41.89,38,65,61.08l-.73-1.44a39.64,39.64,0,0,0,3.31,4.44c9.6,9.76,19.27,19.46,28.9,29.18q10.82,10.92,21.61,21.86a19.15,19.15,0,0,1,1.56,1.72c1.22,1.58,1.16,2.7-.22,4.1q-10.78,10.85-21.59,21.69c-1.35,1.35-1.39,1.75,0,3.11q11.43,11.46,22.86,22.92c.84.85,1.42.87,2.24,0,2.63-2.77,5.32-5.5,8-8.24,3.69-3.8,4.75-3.86,8.84-.45.87.73,1.74,1.47,2.56,2.26,4.86,4.67,9.62,9.44,14.57,14s10,9,15.16,13.34c1.26,1.07,3,2.39,4.67,1.19s1.08-3.3.73-5.08a4.45,4.45,0,0,0-3.9-4,32,32,0,0,1-3.7-.93c-4.29-1.21-8.56-2.38-12.19-5.24-6.55-5.15-12.21-11.18-17.73-17.37a8.3,8.3,0,0,1-2-6.3c.31-6.21,2.4-12,4.11-17.9,1.4-4.84,2.64-9.72,3.95-14.59a2.9,2.9,0,0,0-1.09-3Q124.89,96.65,105,76.86l-23.18-23C80,52,80,51.24,81.84,49.34,85,46.16,88.08,43,91.26,39.82c.91-.9.89-1.54,0-2.33-.69-.6-1.3-1.27-2-1.91a49.91,49.91,0,0,0-4.52-4.36c-1.54-1.17-2.32-2.89-3.84-4.14-4-3.32-7.61-7.17-11.3-10.87-1-1-1.66-1-2.66,0-2.93,3.06-5.94,6-8.95,9-1.77,1.75-3.34,1.73-5.1,0a65.68,65.68,0,0,1-5.1-5.13,17.18,17.18,0,0,0-12.4-6.49c-.9-.08-1.78-.42-2.68-.48A44.6,44.6,0,0,0,28,13a1.34,1.34,0,0,0-1,.89c-.2,4,.24,8,2.83,11.11,3,3.66,6.62,6.89,10,10.27a1.13,1.13,0,0,0,1.08.11,27,27,0,0,0,2.18-1.84c1.16,1.13,1.17,1.66-.08,2.87-.68.66-1,1.14-.07,2C44.43,39.81,45.65,41.41,47,42.91ZM28.39,24.24l-.32.26c3.59,4.29,7.87,7.93,11.72,12l.36-.34Z" fill="#fff"/></svg>