<svg id="Layer_1" data-name="Layer 1" xmlns="http://www.w3.org/2000/svg" viewBox="0 0 200 200"><title>Circuits</title><path d="M195.06,152a15.82,15.82,0,0,0-5.71-7.2c-3.07-2-6.18-4-9.31-6-5.1-3.18-10.24-6.31-15.35-9.49a12.35,12.35,0,0,1-4.11-4,10.19,10.19,0,0,1-1.41-6.48,55.85,55.85,0,0,1,1-6.4c.58-2.67,1.36-5.3,2-8a30.83,30.83,0,0,0,.82-5.07,7.48,7.48,0,0,0-1.71-5.24c-2-2.51-3.93-5.13-5.89-7.7l-10.2-13.38c-2.21-2.9-4.43-5.79-6.62-8.7-2.34-3.11-4.58-6.29-7-9.35-1.9-2.43-4.36-4-7.58-3.86a22.83,22.83,0,0,0-4.36.66c-2.26.56-4.48,1.32-6.74,1.9a9.91,9.91,0,0,1-5.93-.11,8.51,8.51,0,0,1-3.17-2.26c-4.18-4.28-8.38-8.53-12.51-12.86C85.4,32.34,79.51,26.07,73.61,19.82q-2.7-2.86-5.37-5.74a23.77,23.77,0,0,0-5.75-4.75,8,8,0,0,0-3.94-1.24,10.91,10.91,0,0,0-7.23,2.65c-1.57,1.36-2.94,3-4.36,4.47-1.2,1.28-2.25,2.73-3.56,3.89-3.06,2.7-5.48,3.13-8.52,1.6-2.77-1.4-5.48-2.93-8.2-4.42a38.08,38.08,0,0,0-11-4.11A10.31,10.31,0,0,0,4.93,16.24a4.22,4.22,0,0,0-.57.94,13.26,13.26,0,0,0-.39,8c.45,2.29,2.19,3.83,3.94,5.18,2.75,2.12,5.61,4.11,8.5,6,4.67,3.1,9.41,6.1,14.11,9.16A122,122,0,0,1,44.61,56.19c4.09,3.59,8.23,7.13,12.34,10.7,3.86,3.36,7.7,6.74,11.55,10.1,2.84,2.47,5.66,5,8.55,7.38,2.73,2.28,5.55,4.46,8.33,6.68.87.69,1.75,1.38,2.67,2.1l1.32-1.58a8.17,8.17,0,0,1-.94-.62c-4-3.2-8-6.35-11.92-9.64-4.78-4-9.45-8.2-14.17-12.3l-6.77-5.86c-.15-.13-.29-.27-.43-.4,12.09,8.76,23.39,18.5,35.19,27.69l.46-.55a14.89,14.89,0,0,1-1.32-.9c-4.53-3.64-9-7.31-13.58-10.94q-6.13-4.92-12.31-9.78Q57,63.07,50.31,57.93C45.49,54.2,40.7,50.42,35.79,46.8c-2.86-2.11-5.93-3.93-8.9-5.9-5.35-3.56-10.72-7.08-16-10.71A13.72,13.72,0,0,1,6.45,26a3.92,3.92,0,0,1-.6-1.32c-.3-2.15-.64-4.32.27-6.4a5.77,5.77,0,0,1,1-1.62C9.62,14,12.6,13.43,16,14.16a29.27,29.27,0,0,1,7.58,2.76c3.11,1.63,6.17,3.39,9.31,5a18,18,0,0,0,4.28,1.49A7.39,7.39,0,0,0,42.68,22a24.18,24.18,0,0,0,5.54-5.35c1-1.22,2.1-2.41,3.2-3.56a11.84,11.84,0,0,1,4.49-2.7c2.29-.86,4.33-.17,6.31,1,2.49,1.45,4.25,3.7,6.2,5.73,3.4,3.54,6.75,7.13,10.12,10.7,2.58,2.74,5.14,5.51,7.74,8.23,3.56,3.73,7.16,7.43,10.75,11.14,1.93,2,3.85,4,5.83,6A9.21,9.21,0,0,0,111.13,56a73.14,73.14,0,0,0,7.14-1.75,22.15,22.15,0,0,1,5.64-1.1,7.14,7.14,0,0,1,6,2.87c2.49,3.2,4.88,6.47,7.31,9.72,1.81,2.43,3.61,4.87,5.44,7.28q6.1,8,12.24,16c1.62,2.11,3.22,4.24,4.87,6.33a6.54,6.54,0,0,1,1.34,3.87,19.85,19.85,0,0,1-.93,5.67c-.6,2.5-1.36,5-2,7.47a44.39,44.39,0,0,0-1.21,6.08,15,15,0,0,0,.48,4.09,11.06,11.06,0,0,0,4.53,7.2c2.16,1.54,4.44,2.91,6.69,4.32,4.26,2.68,8.54,5.33,12.81,8,2,1.28,4.11,2.54,6.13,3.86a14.85,14.85,0,0,1,5.72,7,16.9,16.9,0,0,1-.26,13.15,37.77,37.77,0,0,1-4.29,7.7c-2.31,3.28-4.65,6.54-7.1,9.71a30.17,30.17,0,0,1-4,4.18c-2.25,2-5,2.38-7.94,2.37-2.44,0-4.63-.95-6.84-1.8-.57-.22-1.11-.52-1.68-.73-3.45-1.29-6.92-2.54-10.36-3.85s-6.63-2.6-9.94-3.89c-3.62-1.41-7.25-2.8-10.86-4.23-2.51-1-5-2-7.5-3.05-2-.82-4.79-4.47-4.26-7.19.42-2.12.76-4.26,1.17-6.39a33.87,33.87,0,0,0,.89-8.65,8.21,8.21,0,0,0-4-6.58c-2.27-1.45-4.67-2.72-7-4q-4.81-2.58-9.68-5c-2.59-1.31-5.22-2.53-7.83-3.81s-5.29-2.58-7.92-3.89c-3-1.47-6-2.91-8.88-4.45s-5.92-3-8.68-4.84a8.79,8.79,0,0,1-3.89-7.81,9.35,9.35,0,0,1,12.27-9.2,20.27,20.27,0,0,1,9,6c2.08,2.36,3.84,5,5.83,7.43a67.49,67.49,0,0,0,5.13,5.78c2,2,4.8,2.54,7.52,3,2.17.38,4.36.68,6.53,1.1a9.66,9.66,0,0,1,5.16,2.94c2.79,2.94,5.49,6,8.15,9s5.35,6.31,8,9.49c4.12,5,8.15,10,12.33,15,3.7,4.37,7.56,8.61,11.35,12.91.7.8,1.46,1.55,2.16,2.35a14,14,0,0,0,7.07,4.16,10.4,10.4,0,0,0,7.54-.56,15,15,0,0,0,7.31-6.81,12,12,0,0,0,1.2-7.61c-.49-2.93-1.14-5.85-3.06-8.19a34.14,34.14,0,0,0-5-5.19c-5.13-4.06-10.41-7.94-15.65-11.88a98.33,98.33,0,0,1-10.55-8.76l.66-.49a3.12,3.12,0,0,1-2.45-1.07c-2.44-2.31-4.84-4.66-7.25-7a1.71,1.71,0,0,1-.64-1.52,1.83,1.83,0,0,0-1-1.95,13.43,13.43,0,0,0-3.29-1.59,19.72,19.72,0,0,1-6.83-3.23c-6-4.26-12.05-8.48-18-12.77-3.26-2.33-6.44-4.78-9.66-7.18L94,92.45l-.41.49.86.62c6,4.42,12.08,8.87,18.15,13.25,4.12,3,8.29,5.85,12.47,8.73a13.72,13.72,0,0,0,2.73,1.37c1.29.51,2.64.89,3.95,1.37a11.38,11.38,0,0,1,1.74.88,1.67,1.67,0,0,1,.9,1.64,2.26,2.26,0,0,0,.85,1.93q4.23,4.1,8.42,8.23l-.06.11-51-36.94L91.4,95.58c1.38,1,2.72,2,4.07,3,3.91,2.83,7.83,5.65,11.74,8.49,3.08,2.23,6.13,4.5,9.21,6.73,2.55,1.85,5.13,3.67,7.68,5.51l9.25,6.71c3.95,2.86,7.91,5.69,11.85,8.56s7.72,5.67,11.55,8.53c4.78,3.58,9.7,7,14.18,11A17.65,17.65,0,0,1,177,164.57a10.41,10.41,0,0,1-.18,5.09,12.55,12.55,0,0,1-5.92,7.23,8.94,8.94,0,0,1-4.75,1.48,11.82,11.82,0,0,1-8.48-3.6c-2.43-2.6-4.88-5.19-7.19-7.9-5.16-6-10.25-12.13-15.35-18.22-2.52-3-4.95-6.11-7.49-9.1-3.58-4.21-7.22-8.37-10.84-12.54a15.65,15.65,0,0,0-9-5.21c-2-.4-4-.7-6.06-.93a10.46,10.46,0,0,1-7-3.59c-1.59-1.86-3.21-3.72-4.64-5.71-2.79-3.87-5.69-7.61-9.71-10.31a16.22,16.22,0,0,0-7.45-3c-6-.61-11.73,4-12.27,9.75-.44,4.7.82,8.66,4.82,11.34a86.48,86.48,0,0,0,7.92,4.42c2.93,1.54,5.9,3,8.86,4.49,2.52,1.26,5.06,2.49,7.6,3.73s5.38,2.57,8.05,3.91,5.48,2.76,8.17,4.22c3.16,1.71,6.31,3.46,9.41,5.29a6.06,6.06,0,0,1,3,5.33,22.42,22.42,0,0,1-.3,4.15c-.51,3.19-1.1,6.36-1.71,9.53-.77,4,1.91,7.83,4.59,9.35a36.84,36.84,0,0,0,4.58,2.06c3.53,1.41,7.09,2.77,10.63,4.15L146.34,184c2,.79,4,1.55,6.07,2.33,4.2,1.61,8.4,3.23,12.61,4.82a15.56,15.56,0,0,0,6,.78,13,13,0,0,0,9.06-3.77,54.77,54.77,0,0,0,5.63-6.8,87.38,87.38,0,0,0,8.14-12.41,21.5,21.5,0,0,0,2.33-6.81A18.58,18.58,0,0,0,195.06,152Z" fill="#fff"/><rect x="87.98" y="97.25" width="1.36" height="1.36" transform="translate(95.71 229.83) rotate(-140.9)" fill="#fff"/><rect x="87.79" y="95.34" width="1.36" height="1.36" transform="translate(96.56 226.32) rotate(-140.9)" fill="#fff"/><rect x="85.88" y="95.54" width="1.36" height="1.36" transform="translate(93.05 225.47) rotate(-140.9)" fill="#fff"/><rect x="89.69" y="95.14" width="1.36" height="1.36" transform="translate(100.08 227.18) rotate(-140.9)" fill="#fff"/><rect x="89.5" y="93.24" width="1.36" height="1.36" transform="translate(100.93 223.67) rotate(-140.9)" fill="#fff"/><rect x="87.59" y="93.43" width="1.36" height="1.36" transform="translate(97.42 222.81) rotate(-140.9)" fill="#fff"/><rect x="91.4" y="93.04" width="1.36" height="1.36" transform="translate(104.44 224.52) rotate(-140.9)" fill="#fff"/><rect x="91.21" y="91.13" width="1.36" height="1.36" transform="translate(105.29 221.01) rotate(-140.9)" fill="#fff"/><rect x="89.3" y="91.33" width="1.36" height="1.36" transform="translate(101.78 220.15) rotate(-140.9)" fill="#fff"/><rect x="93.11" y="90.94" width="1.36" height="1.36" transform="translate(108.8 221.86) rotate(-140.9)" fill="#fff"/><rect x="92.92" y="89.03" width="1.36" height="1.36" transform="translate(109.65 218.35) rotate(-140.9)" fill="#fff"/><rect x="91.01" y="89.23" width="1.36" height="1.36" transform="translate(106.14 217.5) rotate(-140.9)" fill="#fff"/><rect x="94.82" y="88.83" width="1.36" height="1.36" transform="translate(113.16 219.2) rotate(-140.9)" fill="#fff"/><rect x="92.72" y="87.12" width="1.36" height="1.36" transform="translate(110.51 214.84) rotate(-140.9)" fill="#fff"/></svg>