<svg id="Layer_1" data-name="Layer 1" xmlns="http://www.w3.org/2000/svg" viewBox="0 0 200 200"><title>Circuits</title><path d="M190,21.36a40.69,40.69,0,0,0-5-3.57Q175.47,12,165.84,6.45c-4.2-2.45-8.2-2-11.72,1.31-4.39,4.14-8.73,8.33-13.08,12.51-4.94,4.75-9.77,9.61-14.82,14.23s-9.95,8.91-14,14.27c-3.31,4.36-6.7,8.67-10,13-1.9,2.46-3.33,2.87-6.18,1.86L43.27,45c-1.92-.68-3.83-1.43-5.79-2-5.94-1.65-11.19,2.19-11.3,8.35a19.18,19.18,0,0,0,.76,4.91c1.26,5,2.65,10,3.93,15.06a18.66,18.66,0,0,1-1,13c-2.75,6-5,12.17-7.39,18.31a40.18,40.18,0,0,0-2.41,7.68c-2,11.88-3.74,23.8-5.63,35.69-2,12.26-4,24.51-5.94,36.77-.41,2.62-1.23,5.23-.35,8,1.29,4,4.93,5.53,8.56,3.41a21.62,21.62,0,0,0,2-1.45q7.23-5.45,14.45-10.91a70.36,70.36,0,0,0,6.1-4.85c5.71-5.45,11.32-11,16.93-16.54q22.8-22.5,45.58-45,25-24.67,49.88-49.4a7.63,7.63,0,0,1,3.13-2l-3.45-3.45c-12.27,11.32-23.63,23.4-35.95,35.16A12.16,12.16,0,0,1,119,89.48q13.91-14.06,27.79-28.15c.91-.92,1.72-1.92,2.51-2.86l-1.78-1.78-.65.68c-4.09,4.31-8.27,8.52-12.45,12.75-5.29,5.35-10.51,10.76-15.93,16a22.88,22.88,0,0,0-6.37,10.27,15.63,15.63,0,0,1-4.36,6.95C94.15,116.72,80.6,130.23,67,143.67c-10,9.86-19.92,19.73-30,29.48a88.56,88.56,0,0,1-8,6.41c-4.28,3.27-8.6,6.48-12.9,9.72a10.94,10.94,0,0,1-1.13.82c-1.59.91-2.62.49-2.59-1.32a54.52,54.52,0,0,1,.77-7.45c1.77-11.07,3.63-22.12,5.41-33.18,1.57-9.79,3.4-19.54,4.53-29.38s5-18.55,8.56-27.48c.93-2.32,1.8-4.68,2.88-6.94a17.09,17.09,0,0,0,1-11.42c-1.31-5.87-2.89-11.68-4.3-17.53a15.13,15.13,0,0,1-.58-4.09c.14-3.36,2.49-5,5.72-4C39,48,41.66,49,44.28,49.92L95.36,68.09c3.84,1.37,7.35.11,10.18-3.59,3.22-4.2,6.51-8.34,9.68-12.58C119.64,46,125.3,41.3,130.55,36.21c7.13-6.91,14.39-13.69,21.59-20.53,1.68-1.6,3.33-3.23,5-4.79a4.94,4.94,0,0,1,6.14-.85c7.28,4.28,14.5,8.64,21.73,13a20.47,20.47,0,0,1,2.07,1.66c-2.63,2.67-5,5.19-7.48,7.51a6.79,6.79,0,0,1-3.41,1.62,21.6,21.6,0,0,0-12.73,6.85c-4,4.12-8,8.15-12.15,12.12l1.81,1.81c4.57-4.43,9.2-8.88,13.77-13.4a15.24,15.24,0,0,1,7.8-4.26c-.64.75-1,1.27-1.49,1.73-5.67,5.58-11.36,11.13-17,16.73a9.08,9.08,0,0,0-1,1.25l3.25,3.25a9,9,0,0,1,2.47-3q14.64-14.51,29.3-29C193,25.24,192.92,23.8,190,21.36Z" fill="#fff"/><rect x="145.43" y="53.63" width="1.87" height="1.87" transform="translate(5.32 121.7) rotate(-45.9)" fill="#fff"/><rect x="148.07" y="53.59" width="1.87" height="1.87" transform="translate(6.16 123.59) rotate(-45.9)" fill="#fff"/><rect x="148.03" y="50.95" width="1.87" height="1.87" transform="translate(8.04 122.75) rotate(-45.9)" fill="#fff"/><rect x="148.11" y="56.23" width="1.87" height="1.87" transform="translate(4.27 124.42) rotate(-45.9)" fill="#fff"/><rect x="150.75" y="56.19" width="1.87" height="1.87" transform="translate(5.11 126.3) rotate(-45.9)" fill="#fff"/><rect x="150.71" y="53.55" width="1.87" height="1.87" transform="translate(6.99 125.47) rotate(-45.9)" fill="#fff"/><rect x="150.79" y="58.83" width="1.87" height="1.87" transform="translate(3.22 127.13) rotate(-45.9)" fill="#fff"/><rect x="153.43" y="58.78" width="1.87" height="1.87" transform="translate(4.06 129.01) rotate(-45.9)" fill="#fff"/><rect x="153.39" y="56.15" width="1.87" height="1.87" transform="translate(5.94 128.18) rotate(-45.9)" fill="#fff"/><rect x="153.47" y="61.42" width="1.87" height="1.87" transform="translate(2.17 129.85) rotate(-45.9)" fill="#fff"/><rect x="156.11" y="61.38" width="1.87" height="1.87" transform="translate(3.01 131.73) rotate(-45.9)" fill="#fff"/><rect x="156.06" y="58.74" width="1.87" height="1.87" transform="translate(4.89 130.9) rotate(-45.9)" fill="#fff"/><rect x="156.15" y="64.02" width="1.87" height="1.87" transform="translate(1.12 132.56) rotate(-45.9)" fill="#fff"/><rect x="158.74" y="61.34" width="1.87" height="1.87" transform="translate(3.84 133.61) rotate(-45.9)" fill="#fff"/></svg>