<svg id="Layer_1" data-name="Layer 1" xmlns="http://www.w3.org/2000/svg" viewBox="0 0 200 200"><title>Circuits</title><path d="M109.43,84.81l2,1.86a2.78,2.78,0,0,1-.25.4c-2.72-1.12-3.45,1-4.38,2.71-8.55,16-17.05,31.94-25.65,47.87q-10.54,19.53-21.26,39a34.07,34.07,0,0,1-12.11,12.8,27.61,27.61,0,0,1-34.52-4.2c-6.58-6.8-9-15.1-9-24.27.11-13.88.46-27.75.65-41.63C5,109.86,5,100.41,5.2,91c.18-7.64,2.38-14.63,7.61-20.44a25.12,25.12,0,0,1,14-8.11c9.94-2,19.91-3.75,29.88-5.56a6.48,6.48,0,0,1,6.95,2.68,7.13,7.13,0,0,1,.49,7.89C62.85,69.84,60.44,70.56,58,71c-2.73.52-5.47,1-8.2,1.54A6.83,6.83,0,0,0,45,76.36c-2.13,4.08-5.73,5.39-10,5.94a15.36,15.36,0,0,0-5.49,1.89c-2.19,1.25-3,3.5-2.78,6,.15,1.94.38,3.88.56,5.82.61,6.63,6.87,7.8,10.75,5.48,6.06-3.62,12.17-7.15,18.28-10.68,11.34-6.55,22.64-13.15,34.06-19.56,4.42-2.49,6.94-6.2,8.63-10.8a55.54,55.54,0,0,1,4.11-9.24c2.53-4.28,6.57-6.59,11.45-7.67,7.92-1.75,15.79-3.69,23.67-5.58q19.71-4.73,39.41-9.49c3.83-.92,7.56-1.36,10.86,1.55a10.22,10.22,0,0,1,3.6,9.91c-.65,3.65-3.21,5.66-6.71,6.54C175.25,49,165.12,51.57,155,54.16c-8.52,2.18-17,4.42-25.54,6.64-5.64,1.47-9.34,5.35-12.21,10.11C114.55,75.42,112.09,80.06,109.43,84.81Zm-5.55-2.36a10.1,10.1,0,0,0,1.5-1.37c.74-.94,1.28-2,2-3,3-3.87,6-7.64,8.91-11.57a23.16,23.16,0,0,1,13.09-9c4.42-1.18,8.89-2.18,13.32-3.31q21.06-5.41,42.1-10.92a6.74,6.74,0,0,0,3.12-2c1.85-2.11,1.35-4.5.13-6.72a6.16,6.16,0,0,0-7-3.35c-10.19,2.3-20.35,4.72-30.51,7.13-11.41,2.71-22.78,5.58-34.22,8.14-5.51,1.23-9.73,3.71-11.81,9.19-.85,2.25-2.07,4.37-2.78,6.65-2.1,6.7-7.22,10.54-12.9,13.82Q69.09,87.48,49.29,98.77c-3.47,2-6.93,4-10.44,5.86-5.78,3.13-13.85-.17-14.45-7-.22-2.54-.57-5.08-.8-7.62a8.51,8.51,0,0,1,3.72-8.24,17.74,17.74,0,0,1,6.85-2.49c3.87-.62,6.88-2,8.89-5.62a8.39,8.39,0,0,1,4.43-3.52C51,69,54.64,68.54,58.23,67.75c2.8-.62,4-2.26,3.47-4.8-.45-2.27-2.35-3.35-5-2.86-9.09,1.69-18.17,3.45-27.28,5-12.7,2.21-20.22,12.23-20.89,24C8,98.72,8.15,108.34,8,118c-.18,13-.33,26-.54,39-.12,7.26.06,14.44,4.11,20.87,4.85,7.71,11.6,12.37,20.89,12.54,9.76.18,17.26-4.46,22.54-12.27,4-5.95,7.28-12.43,10.68-18.78s6.79-12.4,9.49-18.89c3.95-9.51,8-18.94,13.07-27.91,4.91-8.61,9.56-17.36,14.27-26.08A27.46,27.46,0,0,0,103.89,82.45Zm-23.72,48,.82.37L105.67,85l-1-.52C96.59,99.87,87.56,114.74,80.17,130.48Zm25.46-47.77.84.55L108.91,79l-.74-.44Z" fill="#fff"/></svg>