<svg id="Layer_1" data-name="Layer 1" xmlns="http://www.w3.org/2000/svg" viewBox="0 0 200 200"><title>Circuits</title><path d="M185.3,129.53a11.94,11.94,0,0,0-5.66-7c-2.43-1.34-4.9-2.62-7.44-3.72-5.56-2.4-11.14-4.76-16.71-7.14l-16.23-6.92L126.2,99.3l-3.35-1.41h0l-8.58-3.61h0l-3.79-1.6-2.51-1-1.07-.45h0q-10.63-4.44-21.27-8.87c-8.54-3.58-17.07-7.2-25.61-10.8q-12.11-5.1-24.21-10.2c-2.2-.93-4.38-1.91-6.57-2.86a5.12,5.12,0,0,1-3-3.16c-.18-.53-.35-1.05-.56-1.57A27.33,27.33,0,0,0,22,47.11a13.1,13.1,0,0,0-5.39-4.27,5,5,0,0,0-5.66.81A7.24,7.24,0,0,0,9.23,46.2c-.49,1.18-1,2.35-1.45,3.55a20.28,20.28,0,0,0-.61,2.15,2.46,2.46,0,0,0,2.26,3,12.41,12.41,0,0,0,1.45,0c1.47,0,2.94-.12,4.41-.1a5.19,5.19,0,0,1,1.6.39,1.16,1.16,0,0,1,.81,1.1c0,.74.05,1.49,0,2.24,0,1.11-.06,2.22-.06,3.33a2.05,2.05,0,0,0,.79,1.63,37.87,37.87,0,0,0,4.68,3.4c3.37,2.09,6.9,3.88,10.39,5.74a47.44,47.44,0,0,1,7.82,5.21c2.28,1.87,4.39,3.92,6.55,5.92a33,33,0,0,0,6.5,4.93,11.25,11.25,0,0,0,3.8,1.54A5.22,5.22,0,0,0,62.68,89c.67-.6,1.34-1.18,2-1.77a2.55,2.55,0,0,1,1.4-.71A4.15,4.15,0,0,1,70,87.72a2.09,2.09,0,0,0,.27.23c3.91,3.22,7.84,6.43,11.74,9.67q14.54,12.07,29.07,24.16,8.32,6.92,16.66,13.82a31.45,31.45,0,0,0,2.56,1.88,3.13,3.13,0,0,0,1.86.52,1.71,1.71,0,0,0,1.51-.84,3.77,3.77,0,0,0,.48-1.2c.15-.85.23-1.72.32-2.58s.19-2,.31-3a4.83,4.83,0,0,1,1.95-3.34,4.09,4.09,0,0,1,5.21-.13c.74.54,1.44,1.13,2.13,1.74,1.26,1.12,2.46,2.32,3.75,3.41,5.35,4.58,11.51,5.79,18.3,4.31a38.26,38.26,0,0,0,6-2,13.61,13.61,0,0,1,3.25-1,1.64,1.64,0,0,1,1.59.64,3.27,3.27,0,0,1,.58,1,5,5,0,0,1-.28,4.13,44.67,44.67,0,0,1-3.67,5.28c-1.53,2-3.06,4-4.51,6.11a17.61,17.61,0,0,0-1.71,3,5.74,5.74,0,0,0,1,6.54,9.51,9.51,0,0,0,3.65,2.67,9,9,0,0,0,8.78-.75,12,12,0,0,0,4.48-5.82,2.44,2.44,0,0,0,.14-.78q.23-5.72.45-11.43h.1q0-5.43,0-10.86A11.22,11.22,0,0,0,185.3,129.53Zm-2,7c-.14,5.38-.35,10.76-.53,16.14a11,11,0,0,0,0,1.23,5.24,5.24,0,0,1-.89,3.22,6.91,6.91,0,0,1-3.88,3.41c-3.13.88-6,.33-8-2.48a3.09,3.09,0,0,1-.42-3.09,14.72,14.72,0,0,1,1.12-2.18,72.62,72.62,0,0,1,5.23-7.11,38,38,0,0,0,3.71-5.44,5.44,5.44,0,0,0,.69-2.26,8.17,8.17,0,0,0-1.11-5.07,6.47,6.47,0,0,0-1.19-1.34,3.45,3.45,0,0,0-2.76-.82A15.74,15.74,0,0,0,170.9,132a35.66,35.66,0,0,1-5.81,2,17.24,17.24,0,0,1-11.18-1.05,18.16,18.16,0,0,1-4.74-3.15c-1.28-1.18-2.55-2.36-3.85-3.52-.58-.51-1.2-1-1.82-1.43a6.32,6.32,0,0,0-6-.87,8.74,8.74,0,0,0-3,1.68,5.7,5.7,0,0,0-2,3.1c-.26,1.1-.42,2.23-.57,3.35-.11.79-.13,1.59-.19,2.38,0,.23-.06.47-.12.87-1.15-.93-2.17-1.73-3.17-2.56L109,116.62,76.79,89.89l-5.41-4.48A7.23,7.23,0,0,0,67,83.82a6,6,0,0,0-4.72,2c-.45.44-.92.85-1.38,1.28a2.38,2.38,0,0,1-2.68.5,26.71,26.71,0,0,1-2.59-1.27,26.15,26.15,0,0,1-5-3.71c-2-1.82-4-3.67-6-5.48a58.31,58.31,0,0,0-12.73-8.37,76.48,76.48,0,0,1-9.49-5.55c-.55-.39-1.06-.84-1.62-1.22a1.09,1.09,0,0,1-.48-1.11c.07-1,.16-2,.17-3a15.75,15.75,0,0,0-.2-2.3,3.68,3.68,0,0,0-2.19-2.79,7.37,7.37,0,0,0-3.44-.72c-1.57,0-3.13.07-4.76.11a1.43,1.43,0,0,1,0-.44c.16-.51.34-1,.53-1.5.4-1,.8-2,1.22-3A8.17,8.17,0,0,1,12.31,46a2,2,0,0,1,2-1,5.81,5.81,0,0,1,1.6.4,10.92,10.92,0,0,1,4.51,3.86,25,25,0,0,1,3.27,6.51,8.25,8.25,0,0,0,4.67,5.15q11.93,5.15,23.9,10.2,10.5,4.45,21,8.84L105.76,93.6l33.11,13.88,11.91,5.13q6.38,2.74,12.78,5.45c3.87,1.63,7.77,3.2,11.52,5.1,1.29.65,2.57,1.34,3.82,2.07a8.49,8.49,0,0,1,4.23,6.57A31.16,31.16,0,0,1,183.3,136.56Z" fill="#fff"/></svg>