<svg xmlns="http://www.w3.org/2000/svg" viewBox="0 0 200 200"><title>Circuits</title><g id="Isolation_Mode" data-name="Isolation Mode"><rect x="99.87" y="151.15" width="1.01" height="1.01" transform="matrix(0.84, 0.55, -0.55, 0.84, 99.9, -30.21)" fill="#ed0f4e"/><rect x="100.15" y="152.55" width="1.01" height="1.01" transform="translate(100.72 -30.13) rotate(33.35)" fill="#ed0f4e"/><rect x="101.56" y="152.26" width="1.01" height="1.01" transform="translate(100.79 -30.95) rotate(33.35)" fill="#ed0f4e"/><rect x="98.75" y="152.84" width="1.01" height="1.01" transform="translate(100.65 -29.32) rotate(33.35)" fill="#ed0f4e"/><rect x="99.04" y="154.24" width="1.01" height="1.01" transform="translate(101.47 -29.24) rotate(33.35)" fill="#ed0f4e"/><rect x="100.44" y="153.95" width="1.01" height="1.01" transform="translate(101.54 -30.06) rotate(33.35)" fill="#ed0f4e"/><rect x="97.64" y="154.53" width="1.01" height="1.01" transform="translate(101.4 -28.43) rotate(33.35)" fill="#ed0f4e"/><rect x="97.93" y="155.93" width="1.01" height="1.01" transform="translate(102.21 -28.35) rotate(33.35)" fill="#ed0f4e"/><rect x="99.33" y="155.64" width="1.01" height="1.01" transform="translate(102.29 -29.17) rotate(33.35)" fill="#ed0f4e"/><rect x="96.53" y="156.22" width="1.01" height="1.01" transform="translate(102.14 -27.54) rotate(33.35)" fill="#ed0f4e"/><rect x="96.82" y="157.62" width="1.01" height="1.01" transform="translate(102.96 -27.46) rotate(33.35)" fill="#ed0f4e"/><rect x="98.22" y="157.33" width="1.01" height="1.01" transform="translate(103.03 -28.28) rotate(33.35)" fill="#ed0f4e"/><rect x="95.42" y="157.91" width="1.01" height="1.01" transform="translate(102.89 -26.65) rotate(33.35)" fill="#ed0f4e"/><rect x="95.71" y="159.31" width="1.01" height="1.01" transform="translate(103.71 -26.58) rotate(33.35)" fill="#ed0f4e"/><rect x="97.11" y="159.02" width="1.01" height="1.01" transform="translate(103.78 -27.39) rotate(33.35)" fill="#ed0f4e"/><rect x="94.3" y="159.6" width="1.01" height="1.01" transform="translate(103.63 -25.76) rotate(33.35)" fill="#ed0f4e"/><rect x="94.59" y="161" width="1.01" height="1.01" transform="translate(104.45 -25.69) rotate(33.35)" fill="#ed0f4e"/><rect x="95.99" y="160.71" width="1.01" height="1.01" transform="translate(104.52 -26.5) rotate(33.35)" fill="#ed0f4e"/><path d="M98,154.33a18.46,18.46,0,0,0-2.19-1.45c-3.12-1.86-6.23-3.73-9.36-5.57-2.38-1.39-4.78-2.75-7.17-4.14-2.58-1.5-5.19-3-7.74-4.53-4.41-2.71-8.77-5.5-13.15-8.24a1.62,1.62,0,0,1-.83-2.14c.17-.6.47-1.15.67-1.74a14.92,14.92,0,0,0,.86-2.81,9.19,9.19,0,0,0-.79-4.63,14,14,0,0,0-5.17-6.82A42,42,0,0,0,48,109.15,74.1,74.1,0,0,1,39.24,104c-3.2-2.16-6.38-4.34-9.58-6.51a46.27,46.27,0,0,1-6.22-4.95c-1.83-1.76-3.77-3.42-5.63-5.15-1.62-1.52-3.23-3.06-4.79-4.64-1.4-1.4-2.75-2.86-4.08-4.32s-2.5-2.75-3.69-4.19a1.86,1.86,0,0,1,.32-2.85,29.34,29.34,0,0,1,2.51-1.57,31.39,31.39,0,0,0,3.59-2.25,15.8,15.8,0,0,0,4-5.43,8.74,8.74,0,0,0,1.17-5.68c-1-4.48-2.14-8.93-3.35-13.35-.54-2-.83-3.82.55-5.57,1.71-2.18,3.33-4.43,5.12-6.55a40.46,40.46,0,0,1,6.43-6.65c1.33-1,2.65-2,4.05-2.88,1.74-1.1,3.58-2,5.35-3.09,3.34-2,6-4.77,8.7-7.52,1.33-1.36,2.77-2.62,4.18-3.91a.59.59,0,0,1,.56,0,15.75,15.75,0,0,0,6.32,3.34,21.66,21.66,0,0,0,9.71.25,14.13,14.13,0,0,1,6.17-.16c1.89.49,3.79,1,5.62,1.67a19,19,0,0,1,7.33,4.86A29.54,29.54,0,0,1,88,23.75c1.37,2.65,2.57,5.41,3.77,8.15.87,2,1.68,4,2.51,6l1.82,4v0c.82,1.83,1.69,3.65,2.52,5.48.57,1.23.5,1.71-.39,2.24-.51.31-1.1.46-1.63.72s-.83.41-1.24.62h0a3.42,3.42,0,0,0-1,.53h0c-1,.71-2.44,2.31-2.83,5.79h0a8.45,8.45,0,0,0-.13,1c-.06.94-.1,1.88-.14,2.83h0l.1,3.58a4.87,4.87,0,0,1,0,.86,12.23,12.23,0,0,0,.08,1.48c.16,2.29.27,4.58.49,6.86.28,2.86.67,5.7,1,8.56A27.86,27.86,0,0,0,95,90.37c1.15,2.68,2.63,5.22,4,7.78a14.26,14.26,0,0,0,1.78,2.46c1.19,1.38,2.43,2.73,3.71,4a38.55,38.55,0,0,0,3.56,3.33,43.36,43.36,0,0,0,4.52,3.08c2.54,1.53,5.08,3.07,7.72,4.42,3.4,1.76,6.9,3.32,10.34,5a4.06,4.06,0,0,0,4.22-.22,4,4,0,0,1,.78-.43c2.34-.89,4.69-1.77,7-2.67h0l.78-.3a6.39,6.39,0,0,1,4.21.56c1.56.86,3.09,1.73,4.66,2.55,3.22,1.67,6.51,3.22,9.69,5,3.45,1.9,6.86,3.89,10.2,6a18.41,18.41,0,0,1,5,4.81c1,1.43,2,2.89,2.95,4.38,1.1,1.73,2.16,3.5,3.21,5.27,1.19,2,2.34,4.07,3.5,6.1.79,1.38,1.58,2.75,2.36,4.14,1.19,2.12,2.4,4.22,3.54,6.36s2.19,4.28,3.3,6.41c.29.56.3,1-.33,1.34s-1.08.79-1.63,1.17l-4.52,3.16c-1.82,1.27-3.63,2.55-5.46,3.8-2,1.38-4,2.77-6,4.1a20.9,20.9,0,0,1-4,2.32,5.7,5.7,0,0,1-6.24-1.28c-2.67-2.65-5.19-5.45-7.75-8.22-2.2-2.39-4.35-4.82-6.56-7.2a6.33,6.33,0,0,0-1.71-1.39,3.35,3.35,0,0,0-4.23,1.74c-1.2,2.21-2.44,4.41-3.76,6.56-.64,1-1.14,2.24-2.31,2.9a4.66,4.66,0,0,1-4.15.68,35.62,35.62,0,0,1-6.17-3.47c-2.86-1.8-5.71-3.62-8.61-5.36-3.34-2-6.77-3.88-10.11-5.89-3.82-2.31-7.59-4.72-11.4-7.07a5.89,5.89,0,0,1-.64-.27l-1.67,2.54.39.09a1.63,1.63,0,0,1,.81.34c1.49,1,3,2,4.55,2.93q6.81,4.29,13.65,8.57c5.28,3.3,10.46,6.75,16,9.59,1.51.77,3,1.54,4.83,1,1-.33,2-.68,3-1a3.47,3.47,0,0,0,2.2-1.53c1.22-2,2.39-4.1,3.52-6.18.67-1.24,1.21-2.56,1.87-3.81a1,1,0,0,1,1.65-.26c1.54,1.57,3.07,3.15,4.57,4.76s2.86,3.22,4.32,4.81c1.69,1.84,3.39,3.67,5.14,5.45a11.52,11.52,0,0,0,2.64,2.26c3.68,2,7,1.09,10-1,1.47-1.05,3-2.08,4.46-3.11l5.89-4.06q2.09-1.44,4.15-2.9c1.7-1.2,3.43-2.36,5.08-3.64a2.27,2.27,0,0,0,.73-1.53,3.72,3.72,0,0,0-.49-1.77q-1.38-2.79-2.86-5.54c-1.16-2.13-2.36-4.24-3.55-6.35-.75-1.34-1.51-2.67-2.27-4-1.15-2-2.29-4.05-3.45-6.07-.81-1.41-1.63-2.82-2.48-4.22-1-1.68-2.07-3.37-3.15-5a23.48,23.48,0,0,0-5.8-6.28c-2.15-1.56-4.42-3-6.71-4.31s-4.89-2.69-7.36-4c-1.66-.88-3.35-1.69-5-2.53-1.92-1-3.82-2-5.75-2.92a18.31,18.31,0,0,0-3.51-1.51c-1.77-.44-3.39.45-5,1-.68.22-1.33.53-2,.81-1.75.74-3.49,1.51-5.26,2.2a2.4,2.4,0,0,1-1.53.15,25.58,25.58,0,0,1-2.84-1.26c-2.33-1.1-4.69-2.12-7-3.31-2.73-1.44-5.41-3-8-4.56a44.22,44.22,0,0,1-5.32-3.64,54,54,0,0,1-4.49-4.46,22,22,0,0,1-4.23-5.4C99.16,94.1,97.9,92,96.91,89.81a29.25,29.25,0,0,1-2.31-9.25c-.41-4.09-.75-8.19-1.09-12.29h0l-.37-4.15a7.35,7.35,0,0,1-.07-.82v-.07h0c0-.95.08-1.94.13-2.91a28.93,28.93,0,0,1,.36-3c.15-.84.83-3.82,3-4.85h0a24.9,24.9,0,0,0,3.08-1.48,2.51,2.51,0,0,0,1.14-2.89c-.6-1.38-1.21-2.75-1.81-4.13l-.13-.27h0l-.3-.69-.07-.17-.4-.85h0l-.67-1.52v0c-.2-.46-.41-.92-.62-1.38s-.53-1.15-.78-1.74c-1.22-3-2.36-5.93-3.64-8.85-.94-2.16-2-4.26-3.09-6.35-.72-1.38-1.61-2.68-2.38-4a16.84,16.84,0,0,0-5.11-5.28,22.78,22.78,0,0,0-7.17-3.42c-1.49-.43-3-.8-4.52-1.08-2.38-.44-4.71.12-7,.47A17.33,17.33,0,0,1,50.75,6.29a4.08,4.08,0,0,0-4.89,0A46.73,46.73,0,0,0,41.73,10a52.38,52.38,0,0,1-4.22,4.09c-2.28,1.7-4.79,3.1-7.16,4.67a70.78,70.78,0,0,0-6.82,4.74,50.62,50.62,0,0,0-5.59,5.84c-2,2.31-3.77,4.73-5.54,7.17A5.91,5.91,0,0,0,11,41.28c.25,1.11.56,2.22.85,3.32.84,3.12,1.74,6.22,2.51,9.35a14.71,14.71,0,0,1,.46,3.9,10.67,10.67,0,0,1-2.17,5.46,11.82,11.82,0,0,1-3.81,3.8c-1.52.9-3.08,1.73-4.5,2.76-2,1.47-1.93,3.3-.68,5.24A45.44,45.44,0,0,0,7.3,79.52a88.67,88.67,0,0,0,8.36,8.54c1.31,1.2,2.6,2.44,3.93,3.62,2.2,1.95,4.31,4,6.68,5.77,4.12,3,8.44,5.72,12.6,8.66,3.59,2.55,7.57,4.41,11.38,6.56a12.12,12.12,0,0,1,4.15,3.54,23.79,23.79,0,0,1,2.17,4,6,6,0,0,1,.32,4.37c-.33,1-.81,1.93-1.09,2.92-.6,2.2,0,3.42,1.55,4.46,2.18,1.46,4.43,2.82,6.66,4.22L77,144.38l9.27,5.83q4.47,2.82,8.93,5.66c.34.22.87.47.91.77,0,.11.24.15.27.23Zm-7.8-4.1,7.16,4.46-.11.16-7.12-4.51Zm46.12,28.54c-2.89-1.54-5.77-3.1-8.58-4.77-3.26-1.93-6.46-4-9.67-6s-6.24-4-9.37-6c-2.68-1.7-5.39-3.35-8.08-5a1.2,1.2,0,0,1-.17-.21l.08-.11c.54.32,1.09.63,1.62,1,3.08,1.92,6.13,3.89,9.23,5.76s6.42,3.77,9.64,5.65c2.4,1.4,4.82,2.76,7.19,4.2,2,1.22,3.87,2.61,5.88,3.8,1.37.81,2.88,1.42,4.32,2.23A8.3,8.3,0,0,1,136.32,178.77Z" fill="#ed0f4e"/></g></svg>