<svg id="Layer_1" data-name="Layer 1" xmlns="http://www.w3.org/2000/svg" viewBox="0 0 200 200"><title>Circuits</title><path d="M140.58,40.12c-2.8-.6-5.12-.22-7.16,2-.89,1-3,1.21-4.53,1.19-5.2,0-8,3.85-6.2,8.78.86,2.31,2.54,3.27,5,2.46,11.06-3.69,22.09-7.48,33.13-11.22,2.44-.83,3.75-2.81,5.08-4.83,1.75-2.66,3.2-5.81,6.6-6.64a43.4,43.4,0,0,1,17-1.08c2.19.34,3.77,3.26,3.39,5.62a4.64,4.64,0,0,1-5,4,15.71,15.71,0,0,1-3.82-1.07c-1.63-.63-3.09-.58-4.26.77-3.41,3.93-7,7.72-10,11.92-1.48,2-3.41,3.56-4.86,5.57s-3.18,4.14-4.85,6.15c-2.52,3-5.14,6-7.65,9-6.87,8.33-13.6,16.78-20.61,25-4.36,5.12-9.82,7.61-16.87,6.34-4.94-.89-9.69.57-12.8,4.64-5.2,6.79-10,13.87-14.89,20.9-10.36,14.94-20.65,29.93-31,44.89-3.34,4.83-7.42,8.72-13.37,10.07a21.71,21.71,0,0,1-12.3-.72c-11.14-4.08-19.21-11.48-22.67-23.08-2-6.55-.91-12.9,3.67-18.19,6.48-7.48,13.2-14.76,19.8-22.14,5.81-6.49,11.57-13,17.4-19.5C54.14,95,59.71,89,65.2,82.93c4.15-4.58,8.2-9.25,12.34-13.83q9.51-10.51,19.11-20.95a9.47,9.47,0,0,1,7.24-2.87,6.73,6.73,0,0,0,6.62-4.07c3.29-7.21,9.68-8.94,16.69-9.27,4.8-.22,9.62,0,14.43.11,2,0,4.15.18,4.66,2.49.28,1.26,0,3.31-.85,4C144.21,39.54,142.24,39.64,140.58,40.12Zm-.63-2a13.56,13.56,0,0,0,3.32-.07,2.7,2.7,0,0,0,1.74-1.6,2.59,2.59,0,0,0-.87-2.22,5.78,5.78,0,0,0-2.95-.73c-4-.1-7.91-.27-11.85-.06a52.42,52.42,0,0,0-9.66,1.41,10.39,10.39,0,0,0-7.31,6.25c-1.53,3.51-4.21,5.64-8.32,5.54a8.93,8.93,0,0,0-6.49,2.53c-1.35,1.28-2.6,2.66-3.85,4Q81.44,66.83,69.18,80.43T44.49,107.8C37,116.17,29.51,124.58,22,133c-1.93,2.16-3.95,4.24-5.92,6.36-7,7.46-10.14,13.62-6,23.85C14.54,174.07,23,181,34.58,183.33c7.43,1.49,13.87-.92,18.38-7.18,6.64-9.22,13.11-18.57,19.57-27.92,8.38-12.14,16.69-24.34,25-36.53,4.64-6.79,10.81-10.4,19.2-8.87a12.43,12.43,0,0,0,11.37-3.69c3.3-3.19,6.09-6.91,9.25-10.25,4.48-4.74,7.37-10.74,12.29-15.17a48.61,48.61,0,0,0,6.29-7.52c3.79-5.17,8.36-9.68,11.74-15.25,2.52-4.17,6.57-7.42,10-11,2.15-2.28,4.62-3.15,7.6-1.48a5.74,5.74,0,0,0,1.93.53c2.33.35,3.76-.57,4.19-2.62.38-1.82-1.06-4.23-3-4.18-5.16.15-10.44.11-15.39,1.33-2.33.57-4.34,3.61-5.9,5.94a14.56,14.56,0,0,1-8.11,6.2c-4.48,1.39-8.87,3.06-13.31,4.56-5.77,1.95-11.54,3.89-17.34,5.74-2.63.84-5.38.09-6.36-1.87-1.58-3.14-1.06-6.45.27-9.47,1.12-2.55,3.75-2.48,6.2-2.64,1.55-.1,3.58-.33,4.47-1.33C134.92,38.35,137.33,38.19,140,38.15Z" fill="#fff"/></svg>