<svg id="Layer_1" data-name="Layer 1" xmlns="http://www.w3.org/2000/svg" viewBox="0 0 200 200"><title>Circuits</title><path d="M105.79,171c-3.77.23-7.54.49-11.31.69-10,.55-20,1.07-29.93,1.63-1.53.09-3-.12-3.15-1.9s1.56-2.06,2.94-2.18c3.7-.32,7.4-.57,11.1-.83,2.54-.18,4.18-1.17,5.06-3.88a17.28,17.28,0,0,1,3.65-5.79c4.56-5.15,9.36-10.1,14-15.21,2.44-2.69,5.21-4.58,8.93-4.81.31,0,.61-.08.92-.12,7.79-1,8.69-6.49,4.16-11.39a15,15,0,0,1-4.34-12.59c.44-4.22-2.88-8.54-7.11-10.13-1.09-.41-2.2-.73-3.32-1.06-7.52-2.2-11-7-10.82-15,0-1.7,0-3.41,0-5.11a11.93,11.93,0,0,0-5.43-9.76Q57.52,57.25,33.92,41c-8.15-5.61-11-13.5-7.22-21.65C31.42,9,42.75,5.6,52.35,12.12c16,10.86,31.83,22,47.75,33C120.34,59.07,140.66,73,160.84,87q9.59,6.68,18.66,14.11c4.49,3.68,6.25,9,6.42,14.65a12,12,0,0,1-1.19,5.12c-1.09,2.38-3.48,3.08-5.88,2-1.76-.78-3.44-1.75-5.22-2.48a2.4,2.4,0,0,0-1.89.17q-19.7,12-39.35,24.13c-4.21,2.59-8.46,5.12-12.66,7.74-3.57,2.23-4.43,4.93-3.18,9.46a19.33,19.33,0,0,1,.74,3.15c.29,2.94-1,4.69-3.9,5.3a27.61,27.61,0,0,1-3.9.5c-1.23.08-2.47,0-3.71,0ZM80.6,169.12l.66.79a27.5,27.5,0,0,0,3.17.19c4.71-.23,9.42-.52,14.12-.81s9.25-.54,13.87-.92c2.12-.17,2.92-1.54,2.6-3.58-.12-.76-.35-1.51-.53-2.26-1.6-6.43-.16-9.61,5.48-13,7.7-4.58,15.32-9.31,23-14,8.64-5.28,17.31-10.51,25.9-15.88,3.08-1.92,5.92-1.74,8.91.09,3.66,2.24,5.52,1.23,5.87-3.14a15,15,0,0,0-.12-3.87c-1.22-6.62-5.56-11.14-10.7-14.89-7-5.11-14.18-9.94-21.3-14.87-13-9-26.16-18-39.12-27.11S86,38.43,73.18,29.14c-7.08-5.13-14.45-9.84-21.53-15-5.38-3.9-11.12-3.43-16.39-.89C27.6,16.95,23.49,29.09,32,36.51c4.18,3.63,8.92,6.65,13.49,9.82,11.81,8.22,23.59,16.5,35.55,24.51,5.85,3.92,8.06,9.15,7.88,16a24.71,24.71,0,0,0,1.34,8.85c1.48,4.1,5.54,5.15,9.3,6.11,5.81,1.49,12.15,7.88,10.46,15.07-.7,3,.71,5.34,2.61,7.58a24.47,24.47,0,0,1,3.79,5.77,7,7,0,0,1-4.44,9.68c-1.83.6-3.85.64-5.63,1.33-2,.79-4.27,1.64-5.74,3.14-5.1,5.18-10.06,10.51-14.74,16.07C83.72,163,82.34,166.2,80.6,169.12Z" fill="#fff"/></svg>