<svg id="Layer_1" data-name="Layer 1" xmlns="http://www.w3.org/2000/svg" viewBox="0 0 200 200"><title>Circuits</title><path d="M103.61,165.86c-3.7-2.63-7.35-5.32-11.12-7.86a11,11,0,0,0-3.2-.89c1.06-1.44-.37-2.27-1.51-3.1q-10.07-7.32-20.19-14.57c-7.7-5.53-15.43-11-23.12-16.58-6.34-4.59-12.76-9.09-18.89-13.95A38.41,38.41,0,0,1,18,100.84c-3.84-5.54-3.08-11.6-.64-17.47,3.72-8.95,8.06-17.67,11.33-26.78,2.39-6.66,3.62-13.76,5.07-20.73,1.19-5.72,1.76-11.56,2.92-17.28,1.37-6.77,10.11-10.07,16.5-6.46,3.82,2.15,7.64,4.31,11.54,6.32,4.05,2.09,5.81,5.33,5.55,9.83-.45,7.72-1.36,15.47-1.12,23.17.2,6.48,1.74,12.92,2.71,19.38.45,3,.94,6,1.4,8.91-1.81.81-2.91.79-3.24-1.22-1.27-7.81-3.08-15.58-3.72-23.44-.53-6.61.29-13.33.52-20,.1-2.81.22-5.62.33-8.43a4.87,4.87,0,0,0-2.63-4.72c-4.71-2.62-9.32-5.45-14.22-7.66-4.62-2.09-10.23.94-11.12,6.65C37.53,31.39,36.07,42,33.34,52.21c-2.12,7.92-6,15.36-9.19,23-2.22,5.38-5.28,10.46-5.6,16.5a13.7,13.7,0,0,0,5.29,11.59c5.62,4.71,11.49,9.13,17.38,13.5s11.72,8.36,17.59,12.51a4,4,0,0,0,1,.24c-1.82-2-3.52-3.56-4.94-5.38-9.93-12.71-6.76-29.31,6-38.34,9.6-6.76,23.62-6.34,33,1.08,16.67,13.21,33.73,25.95,50.62,38.89,8.24,6.31,16.64,12.42,24.66,19,10.44,8.56,11.9,25.54,4.1,36.35-9.15,12.65-27.57,15.69-40.94,4.87-.88-.71-1.89-1.27-2.85-1.89q-4.36-3.1-8.72-6.2Zm24.08,12.36-.24.35c1.46,1.06,2.88,2.19,4.38,3.17,3.23,2.11,6.29,4.7,9.81,6.1,9.74,3.88,18.62,1.73,26.32-5.21,7-6.32,9.11-18.38,5.3-26.94-2.26-5.08-5.89-8.64-10.22-11.91-14-10.58-27.8-21.37-41.69-32.06-9.32-7.17-18.89-14-28-21.51C83.91,82.4,71.63,82,62.46,88.52,50.28,97.13,48.19,113.27,59,124.27c3.32,3.36,7.39,6,11.23,8.81,3.2,2.35,6.14,5.28,10.47,5.56.47,0,.92.5,1.35.81,3.13,2.26,6.3,4.47,9.36,6.81q18.32,14,36.58,28.05c5,3.84,10.38,6.7,17,6.4,2.82-.13,5.2-.88,6.12-3.74s-.33-5.34-2.76-7.11q-16.47-12-33-24c-9.94-7.21-19.95-14.33-29.83-21.63-4.41-3.26-7.94-7.35-9.39-12.81-.64-2.42-.95-4.93-1.4-7.4-1-5.54-2.06-11.08-3-16.63-.17-.93-.42-2,1.13-2.24,1.3-.17,1.73.46,1.93,1.63C75.88,93,77.16,99.19,78,105.42c.8,5.68,2.66,10.73,7.16,14.46,3.08,2.56,6.31,4.95,9.55,7.3q21.63,15.7,43.3,31.33c4.41,3.2,8.87,6.35,13.14,9.73a8.82,8.82,0,0,1,3.24,9c-.72,3.55-3.31,5.52-6.8,6.25A20.29,20.29,0,0,1,135,181.8C132.51,180.7,130.12,179.42,127.69,178.22Zm-32-28.3-.67.93,15.2,10.88.57-.79Zm-15.5-11.07-.56.92L93.87,150l.64-.89Z" fill="#fff"/></svg>