<svg id="Layer_1" data-name="Layer 1" xmlns="http://www.w3.org/2000/svg" viewBox="0 0 200 200"><title>Circuits</title><rect x="122.35" y="166.21" width="1.56" height="1.56" transform="translate(153.44 372.25) rotate(-151.99)" fill="#fff"/><rect x="121.71" y="164.1" width="1.56" height="1.56" transform="translate(153.22 367.96) rotate(-151.99)" fill="#fff"/><rect x="119.59" y="164.74" width="1.56" height="1.56" transform="translate(148.93 368.19) rotate(-151.99)" fill="#fff"/><rect x="123.82" y="163.45" width="1.56" height="1.56" transform="translate(157.5 367.74) rotate(-151.99)" fill="#fff"/><rect x="123.18" y="161.33" width="1.56" height="1.56" transform="translate(157.28 363.45) rotate(-151.99)" fill="#fff"/><rect x="121.06" y="161.98" width="1.56" height="1.56" transform="translate(152.99 363.68) rotate(-151.99)" fill="#fff"/><rect x="125.29" y="160.69" width="1.56" height="1.56" transform="translate(161.57 363.23) rotate(-151.99)" fill="#fff"/><rect x="124.65" y="158.57" width="1.56" height="1.56" transform="translate(161.34 358.94) rotate(-151.99)" fill="#fff"/><rect x="122.53" y="159.22" width="1.56" height="1.56" transform="translate(157.05 359.17) rotate(-151.99)" fill="#fff"/><rect x="126.76" y="157.92" width="1.56" height="1.56" transform="translate(165.63 358.72) rotate(-151.99)" fill="#fff"/><rect x="126.11" y="155.81" width="1.56" height="1.56" transform="translate(165.4 354.43) rotate(-151.99)" fill="#fff"/><rect x="124" y="156.46" width="1.56" height="1.56" transform="translate(161.12 354.66) rotate(-151.99)" fill="#fff"/><rect x="128.23" y="155.16" width="1.56" height="1.56" transform="translate(169.69 354.21) rotate(-151.99)" fill="#fff"/><rect x="125.47" y="153.69" width="1.56" height="1.56" transform="translate(165.18 350.14) rotate(-151.99)" fill="#fff"/><path d="M193.29,182.56a39.72,39.72,0,0,0-3-5.28c-2.48-3.38-5.14-6.64-7.74-9.93q-6.38-8.08-12.77-16.14c-3.22-4.08-6.41-8.19-9.63-12.27-3-3.85-6.12-7.67-9.16-11.53-3.45-4.37-6.87-8.78-10.32-13.15q-7.69-9.74-15.41-19.46c-2.42-3.07-4.83-6.15-7.24-9.22L105.61,69.89c-2.24-2.84-4.46-5.69-6.7-8.53-2.58-3.26-5.18-6.5-7.76-9.76Q86,45.14,80.94,38.67c-.68-.86-1.33-1.74-2.17-2.84.68,0,1,0,1.4,0l11.8,1L104.89,38c4.31.38,8.61.76,12.92,1.16l18.63,1.74L152,42.38c1.82.17,3.64.38,5.46.54,3.4.29,6.79.55,10.19.85,3.6.32,7.2.69,10.8,1,1.65.14,3.31.27,5,.29a4,4,0,0,0,3.8-2.57,5.28,5.28,0,0,0-.5-5.11c-1.06-1.43-5-2.44-5-2.44-1.23-.31-2.48-.53-3.67-.95-2.07-.73-4.11-1.55-6.14-2.4A8.8,8.8,0,0,1,170,30.42c-1-.76-1-1.13-.33-2.19.51-.76,1.1-1.46,1.67-2.17l2.28-2.84h0a6.52,6.52,0,0,0,.76-7.5,5.55,5.55,0,0,0-2-1.45A36.67,36.67,0,0,0,162.95,12c-2.14-.3-4.3-.44-6.46-.57-2.82-.16-5.64-.32-8.47-.33a92.19,92.19,0,0,0-15.77,1.15c-3.54.6-7,1.46-10,3.67a8.37,8.37,0,0,1-5.62,1.71,15.78,15.78,0,0,1-9.32-3.77c-2-1.66-3.94-3.33-5.95-4.94a39.38,39.38,0,0,0-7.17-4.73,11.7,11.7,0,0,0-8.82-1c-2.11.63-4.24,1.21-6.29,2A120.57,120.57,0,0,0,65,11.74c-3.61,2-7.15,4.07-10.71,6.14a5.27,5.27,0,0,0-2.72,4.39,27.27,27.27,0,0,0,.09,5.7c.65,4.27,1.53,8.5,2.3,12.76a20.65,20.65,0,0,1,.17,2.1v0c.09,1.15.21,2.29.24,3.44,0,.66-.41.95-1.07.92s-1.5,0-2.24-.08c-4.26-.44-8.52-.85-12.78-1.36-4.91-.59-9.82-1.26-14.73-1.9L22.4,43.7a13.79,13.79,0,0,0-9.29,2.08,14.47,14.47,0,0,0-5.43,6.48h0A15.7,15.7,0,0,0,6.14,57.6h0v0a20.16,20.16,0,0,0-.14,3c.09,5,1.92,8.6,7.19,10.06,2.12.59,4.29,1,6.45,1.38,2.56.5,3.81,1.72,4.15,4.29A15.42,15.42,0,0,1,23,83c-1.45,4.64-3.05,9.23-4.54,13.86a22.43,22.43,0,0,0-1.14,6.86A6.55,6.55,0,0,0,19,108.28c.53.59,1.07,1.17,1.65,1.7a96.91,96.91,0,0,0,10.92,8.08c3,2.1,6.07,4.23,9,6.44a25.3,25.3,0,0,1,2.51,2.25,5.66,5.66,0,0,1,1.35,2.54,9.63,9.63,0,0,1-.73,4.1c-.92,2.4-2,4.75-2.93,7.15a28.62,28.62,0,0,0-1.6,4.84c-.47,2.41.61,3.93,2.93,4.57,2.56.71,5.12,1.42,7.71,2a15.73,15.73,0,0,0,5.81.43,5.86,5.86,0,0,0,4.85-3.78,24.46,24.46,0,0,1,2.17-3.91,32.22,32.22,0,0,1,6.85-7.21,19.79,19.79,0,0,1,4.72-3c4.93-1.94,9.61-.83,13.84,2,3.08,2.07,4.94,5.27,6.58,8.49,1.39,2.74,2.46,5.64,3.65,8.47a2.82,2.82,0,0,0,1.84,1.71c3.47,1.14,6.92,2.34,10.4,3.45s7.19,2.21,10.78,3.32l.62-1.17c-3.75-1.17-7.5-2.34-11.24-3.53-3.08-1-6.15-2-9.24-3a3.38,3.38,0,0,1-2.33-2.19c-.68-1.78-1.47-3.53-2.2-5.29-.07-.18-.12-.37-.25-.81,1.57.86,2.95,1.59,4.3,2.35q10.14,5.72,20.28,11.46a9.54,9.54,0,0,0,.93.51l1.36-2.56-6.95-3.9-15.33-8.6c-1.2-.67-2.37-1.38-3.56-2.06a9.07,9.07,0,0,1-2.54-2.87,34.73,34.73,0,0,0-2.83-3.79A17.89,17.89,0,0,0,75,131.19a13.57,13.57,0,0,0-5,2.43,37.84,37.84,0,0,0-10.67,11,13.77,13.77,0,0,0-1.41,2.77,2.91,2.91,0,0,1-3,2.18,23.84,23.84,0,0,1-4.81-.52c-2.31-.51-4.57-1.25-6.85-1.88-1.15-.32-1.35-.47-1-1.64.48-1.71,1.11-3.39,1.75-5,.54-1.39,1.17-2.75,1.79-4.12a21.29,21.29,0,0,0,1.58-6.14,5.52,5.52,0,0,0-1.49-4.71,34.94,34.94,0,0,0-4.58-4.21c-4.51-3.27-9.14-6.37-13.71-9.56a32.34,32.34,0,0,1-6.6-5.72,3.77,3.77,0,0,1-.71-2.43c0-.29,0-.58.06-.87A47,47,0,0,1,23,91.91q1.77-5.12,3.3-10.32a12.24,12.24,0,0,0,.2-6.3,16.7,16.7,0,0,0-1.27-3.16h0c-2.11-2.9-9.75-3.74-9.75-3.74v-.05a15.6,15.6,0,0,1-3.25-1.09,5,5,0,0,1-3-3.78c-.87-5.26,0-10.13,3.89-14.07a10,10,0,0,1,7.22-2.9,28.46,28.46,0,0,1,3.85.32c6,.77,12,1.63,18.07,2.34,3.59.42,7.2.61,10.81.91,2.67.22,4.22-1.39,4.24-4.17,0-3.52-.87-6.91-1.49-10.34-.57-3.14-1-6.31-1.51-9.47a14.39,14.39,0,0,1-.07-2.49,3.92,3.92,0,0,1,2-3.62c3.3-1.85,6.52-3.83,9.86-5.62A122.74,122.74,0,0,1,80.42,7.81c1.63-.62,3.31-1.11,5-1.65a10.11,10.11,0,0,1,8.39,1.06,54.24,54.24,0,0,1,8.37,6.07,60.3,60.3,0,0,0,4.95,4c3.85,2.59,8.09,3.9,12.75,2.89a10.38,10.38,0,0,0,3.84-1.72,19,19,0,0,1,8.06-3.14,84.52,84.52,0,0,1,13.14-1.23,104.61,104.61,0,0,1,21.48,1.49c1.47.26,2.9.72,4.34,1.12a3.6,3.6,0,0,1,1,.5,1.69,1.69,0,0,1,.71,2.37A13.35,13.35,0,0,1,171,21.88c-1,1.26-2.08,2.39-3,3.68a12.7,12.7,0,0,0-1.6,3.19,2.88,2.88,0,0,0,1.11,3.34,28.77,28.77,0,0,0,3.86,2.5A43.15,43.15,0,0,0,180,37.5c1,.27,1.94.47,2.9.72a2.27,2.27,0,0,1,1.77,2.14,2.06,2.06,0,0,1-.16,1.13,2.73,2.73,0,0,1-2.56.73c-7.2-.68-14.41-1.32-21.62-2l-10.31-1-16.27-1.46c-3.31-.3-6.62-.62-9.93-.92l-11.43-1-5.22-.48L93.64,34.16l-10.06-.93c-1.28-.12-2.57-.25-3.85-.31-1.95-.09-3.11.77-3.5,2.35-.17,1.89,3.15,6,3.15,6,3.16,4,6.31,8.06,9.48,12.07,2.53,3.2,5.09,6.37,7.61,9.56,2.37,3,4.71,6,7.07,9q6,7.65,12.06,15.28c2.47,3.14,4.91,6.29,7.39,9.42,3.76,4.76,7.55,9.51,11.31,14.28s7.29,9.3,11,13.93c4.18,5.29,8.39,10.55,12.56,15.83,3.17,4,6.31,8.06,9.48,12.08q6.41,8.13,12.85,16.24c1.68,2.12,3.37,4.23,5,6.39a2.47,2.47,0,0,1,.51,1.59q-.39,3.27-1,6.52c-.34,1.8-.81,3.56-1.23,5.35,0,.08,0,.16-.06.24-.53,1.79-.76,1.88-2.36,1l-23.14-13-18.7-10.51c-3.55-2-7.12-4-10.67-6-.25-.14-.57-.24-.81-.41l-1.36,2.5c.29.16.6.29.88.45q8.18,4.65,16.38,9.27c6.77,3.81,13.56,7.59,20.33,11.4q7.77,4.37,15.51,8.77c.47.27.93.55,1.41.79a2.87,2.87,0,0,0,4.24-1.21,18.71,18.71,0,0,0,1.56-4.31c.75-3.24,1.33-6.51,2-9.77,0-.07.08-.13.22-.36a20.14,20.14,0,0,1,3.46,6.29,6.49,6.49,0,0,1,.19,2.69,15.28,15.28,0,0,1-2.47,6.59,18.59,18.59,0,0,1-1.82,2,1.76,1.76,0,0,1-1.82.54,22.5,22.5,0,0,1-3.79-1.18c-3.14-1.52-6.25-3.1-9.3-4.79-7.87-4.39-15.7-8.86-23.55-13.29q-10.25-5.8-20.51-11.58c-1.07-.6-2.19-1.14-3.21-1.83l-.67,1.23c1.87,1.07,3.76,2.1,5.63,3.16q7.6,4.29,15.19,8.6,11.3,6.37,22.6,12.72c3.84,2.15,7.7,4.28,11.6,6.32a33.35,33.35,0,0,0,4.4,1.74,4.41,4.41,0,0,0,5.26-1.45c.29-.35.59-.7.86-1.07a17.46,17.46,0,0,0,2.91-7.22A6.88,6.88,0,0,0,193.29,182.56Z" fill="#fff"/></svg>