<svg id="Layer_1" data-name="Layer 1" xmlns="http://www.w3.org/2000/svg" viewBox="0 0 200 200"><title>Circuits</title><path d="M79.29,158.54a6.4,6.4,0,0,1-2.89-1.94L86,144c1.06-1.38,2.17-2.73,3.2-4.13,1.42-1.93,2.78-3.91,4.19-5.86a10.44,10.44,0,0,1,1.12-1.33,2.26,2.26,0,0,1,3-.25c1.16.8,2.28,1.66,3.42,2.48.92.66,1.13.66,2-.07q3.77-3.35,7.53-6.71,5.84-5.21,11.68-10.41c.95-.85,1.91-1.7,1.94-3.13,0-1.75,1.17-2.8,2.51-3.65a11.51,11.51,0,0,1,2.13-1,13.49,13.49,0,0,0,5.06-3.44A23.76,23.76,0,0,0,136,104c-.87.84-1.77,1.65-2.6,2.53a2.16,2.16,0,0,1-2.8.52,1.18,1.18,0,0,0-1.64.33,9.79,9.79,0,0,0-1.81,2.34A3.54,3.54,0,0,1,126,111a8,8,0,0,0-2.17,2.82c-.59,1.16-1.4,2.19-2.07,3.31-1.12,1.87-2.9,3.08-4.48,4.49a3.45,3.45,0,0,1-.57.29,16.13,16.13,0,0,1,.73-1.48c1.87-2.92,3.76-5.82,5.62-8.74.59-.92,1.09-1.9,1.67-2.84a24,24,0,0,1,4.8-5.19l.55-.46c.93-.81,1-.81,2,0,.73.68.72.81,0,1.54a1.94,1.94,0,0,0-.27.48c.21,0,.49.05.63-.06.58-.48,1.13-1,1.66-1.54,1.07-1.07,2.14-2.13,3.16-3.25.48-.52.82-1.18,1.28-1.72q1-1.21,2.16-2.34,4.17-4.2,8.36-8.37,1.93-1.93,3.89-3.83c.93-.9,1.91-1.77,2.84-2.67a6.75,6.75,0,0,0,.66-.89l-.18-.17c-1.31,1.32-2.61,2.64-3.93,3.95s-2.64,2.58-4,3.81a4.69,4.69,0,0,1,.92-2.41c.93-1.18,1.75-2.45,2.64-3.66s1.72-2.22,2.56-3.34a.64.64,0,0,1,1.11-.08,1.71,1.71,0,0,0,.15.14c.38.29.9.9,1.11.81.71-.31,1.52-.18,2.17-.77,1.63-1.47,3.36-2.83,5.05-4.23a2.37,2.37,0,0,1,.95-.5l-.31.72.1.07c1.5-1.73,3-3.49,4.51-5.19,3.05-3.39,6.15-6.73,9.22-10.11,2.33-2.57,4.68-5.12,6.94-7.74a8.35,8.35,0,0,0,1.48-9,6.69,6.69,0,0,0-2.38-3.1,9.09,9.09,0,0,0-4.26-1.7,7.89,7.89,0,0,0-4.22.68,8.46,8.46,0,0,0-3.19,2.53c-2.53,3.11-5.14,6.17-7.7,9.25-2,2.38-3.93,4.77-5.9,7.15-.39.48-.85.9-1.21,1.4l-1.36,1.35c-1.84,1.89-3.71,3.76-5.57,5.63l-7.26,7.29-6.66,6.72a5.27,5.27,0,0,1-.84.75c-1.4.9-2.25.76-3.48-.37s-2.77-2.45-4.16-3.67l-2.32-2c-.28.14-.57.43-.8.39a1.67,1.67,0,0,1-.89-.59c-.1-.13,0-.53.12-.72.5-.74,1-1.46,1.58-2.17.31-.4.58-.9,1.24-.55s.66.55.29,1.53c2,1.7,4,3.44,6.08,5.14.72.59,1,.54,1.66-.16q5.57-5.56,11.14-11.12c3.25-3.25,6.5-6.5,9.7-9.79.93-1,1.73-2,2.57-3.08,1.3-1.6,2.57-3.22,3.87-4.81q3.07-3.74,6.16-7.44c.74-.89,1.45-1.83,2.27-2.65a11.29,11.29,0,0,1,13.08-2.38,9.19,9.19,0,0,1,3.68,3.06l1.23,1.5c.32,1.06.71,2.05.93,3.08a10.65,10.65,0,0,1-2.72,9.8c-2.18,2.42-4.31,4.89-6.5,7.31-1.63,1.81-3.33,3.55-5,5.34-.77.83-1.52,1.67-2.27,2.52l-6.17,6.9c-.59.66-1.17,1.34-1.79,2-2.11,2.2-4.24,4.39-6.35,6.59a2.58,2.58,0,0,0-.29.47l.17.19a7.33,7.33,0,0,0,.88-.67q3.88-4,7.74-8a.56.56,0,0,1,.51-.15,4,4,0,0,1-.36.65c-.59.71-1.17,1.44-1.82,2.1-2.81,2.87-5.65,5.7-8.46,8.57-3.29,3.36-6.55,6.74-9.84,10.1-3.55,3.63-7,7.32-10.93,10.6-.42.35-.8.75-1.2,1.12a2,2,0,0,1-1.63.73,1,1,0,0,0-.47.16c-1.72.84-3.43,1.72-5.17,2.53a3.15,3.15,0,0,0-2,2.62,4.7,4.7,0,0,1-.84,2,12,12,0,0,1-1.79,2c-3,2.72-6,5.42-9,8.12l-5.6,5c-.3.27-.68.44-.59,1,0,.17-.21.41-.38.57-.73.73-1.46,1.45-2.23,2.14a6.22,6.22,0,0,1-1.18.81c-.6.33-1.23.6-1.84.9a2.66,2.66,0,0,1-2.82-.32c-1.11-.75-2.19-1.53-3.29-2.3-.93-.66-1-.65-1.71.3-2.62,3.57-5.22,7.15-7.87,10.7-2.26,3-4.57,6-6.87,9-.31.41-1.17,1.79-1.5,2.19Zm79.09-72.32-.16-.2a1.35,1.35,0,0,0-.43.19l-21.35,21.62a27.13,27.13,0,0,0,3.28-2.74c1.84-1.79,3.64-3.62,5.45-5.43L152,92.74c1.64-1.65,3.28-3.3,4.91-5C157.45,87.27,157.91,86.73,158.38,86.21Z" fill="#fff"/><path d="M132.55,14.57a28.29,28.29,0,0,0-5-4.5c-1-.82-2.12-1.54-3-2.46a3,3,0,0,0-1.73-.94,3.18,3.18,0,0,0-2.71.61c-.78.63-1.69,1.07-2.43,1.79a36.76,36.76,0,0,1-3.11,2.53c-2.51,1.94-5,3.91-7.57,5.79A32.12,32.12,0,0,1,96.58,22c-1.35.39-2.71.77-4,1.29A33.49,33.49,0,0,0,78.85,33.92c-4.24,5.27-8.13,10.82-12.15,16.26a3.86,3.86,0,0,0,.53,5.45c3.08,2.73,6.19,5.43,9.29,8.13.85.74.88.73.21,1.64-1.81,2.46-3.64,4.91-5.45,7.38q-5.68,7.72-11.35,15.44c-1,1.38-2.06,2.74-3.1,4.1a14.12,14.12,0,0,1-1.17,1.41c-.46.47-.68.76-.65,1-.36.47-.69,1-1,1.42-1.1,1.44-2.24,2.87-3.32,4.33-.82,1.1-1.55,2.27-2.37,3.37-1.75,2.37-3.56,4.71-5.3,7.09-1.93,2.63-3.77,5.32-5.72,7.93-.89,1.19-2.36,3.74-3.38,4.83l.12-.11a2.73,2.73,0,0,0-1,2.23,3.2,3.2,0,0,0,1.43,2.5c2.25,1.69,4.48,3.4,6.72,5.11.76.58.82.83.25,1.61-.91,1.25-1.88,2.44-2.8,3.68q-3.77,5.09-7.51,10.2L21,162.65h0l-8.12,11c-.83,1.13-1.7,2.25-2.51,3.4-.7,1-.7,2,0,2.62A7.56,7.56,0,0,0,12.34,181c2.79,1.14,5.62,2.21,8.45,3.27a3,3,0,0,0,3.47-.88,19.29,19.29,0,0,0,1.49-1.84c1-1.33,1.9-2.69,2.87-4,.67-.91,1.4-1.78,2.1-2.66.15-.19.31-.46.5-.5.73-.16,1-.75,1.41-1.27.56-.78.4-1.16-.54-1.23a2,2,0,0,0-.8.14c-.64.23-1.29.48-1.91.76a2.63,2.63,0,0,0-.85.56,24.86,24.86,0,0,0-1.66,2c-1.4,1.87-2.76,3.77-4.16,5.63-.7.93-.75,1-1.8.57-2.38-.86-4.75-1.76-7.12-2.67-1.1-.42-1.12-.57-.43-1.52,3.51-4.8,7-9.63,10.54-14.38s6.55-9.56,10.31-14c1.86-2.19,3.49-4.58,5.23-6.88,1.15-1.53,2.32-3.06,3.46-4.59.51-.69,1-1.38,1.48-2.11a2.14,2.14,0,0,0-.65-3.21c-.53-.39-1.06-.76-1.58-1.15-2-1.56-4.08-3.14-6.14-4.69-.48-.36-.57-.7-.2-1.19s.89-1.27,1.35-1.9c1.46-2,2.94-3.89,4.38-5.85q6.51-8.84,13-17.69c.83-1.13,1.67-2.25,2.47-3.39.17,0,.3-.2.57-.56l3.85-5.23L78.52,67.31a17.25,17.25,0,0,0,1-1.44,2.54,2.54,0,0,0-.4-3.38c-1.89-1.74-3.87-3.38-5.82-5.05-1.38-1.18-2.8-2.32-4.17-3.51-.86-.74-.9-1.09-.32-2,.21-.35.47-.68.71-1,1.57-2.13,3.13-4.26,4.73-6.37,3-3.94,5.65-8.12,9-11.79A23.78,23.78,0,0,1,88.88,28a20.5,20.5,0,0,1,6.64-2.91c1.72-.3,3.25-1.4,5.06-1.49a1.51,1.51,0,0,0,.58-.2c1.74-.89,3.5-1.75,5.21-2.7,1.27-.7,2.79-1,3.79-2.17a10.65,10.65,0,0,1,1.43-1.56c3.1-2.45,6.22-4.86,9.34-7.28.86-.67,1-.64,1.87,0,1.27,1,2.57,1.95,3.83,3a23.32,23.32,0,0,1,3.15,2.64,10.87,10.87,0,0,1,2.65,9.19c-.3,2-.59,3.94-1,5.88-.58,2.62-.63,5.34-1.66,7.89a9.36,9.36,0,0,0-.1,2.71,9.83,9.83,0,0,1-2.7,5.87c-1,1.11-1.93,2.22-2.85,3.37-1.46,1.82-2.88,3.67-4.32,5.51-1.56,2-3.15,4-4.68,6a2,2,0,0,0-.38,2.38,11.22,11.22,0,0,0,1.74,2.14c1.5,1.4,3.08,2.73,4.64,4.07,1,.9,2.11,1.76,3.15,2.66.43.38.78.37,1.12-.1l.36-.5c.67-.94.68-1-.2-1.76q-3.61-3.13-7.25-6.24c-1-.86-1.07-1-.27-2.1,1.9-2.52,3.84-5,5.74-7.54,1.75-2.33,3.46-4.69,5.19-7l.06,0c.33-.44.63-.9,1-1.33a10.4,10.4,0,0,0,2.28-5.29c.85-5.91,1.89-11.8,2.81-17.7A11.37,11.37,0,0,0,132.55,14.57Z" fill="#fff"/><path d="M33.27,177c.46-.56.87-1.15,1.32-1.71a7.47,7.47,0,0,1,.59-.61,6,6,0,0,0,.71,1c2.71,2.41,5.47,4.78,8.15,7.24a6.29,6.29,0,0,1,1.4,2.22c.56,1.36,1,2.79,1.43,4.18a5.2,5.2,0,0,0,.34.86c.17.3.42.33.67.06.09-.1.18-.21.26-.32,1.38-1.69,2.81-3.36,4.11-5.1.41-.56.78-1.18,1.22-1.72.6-.73.69-.71,1.42-.17l.16.13c.91.71.92.84.09,1.65-.1.09-.18.2-.33.35L53.75,187c-1.21,1.58-2.39,3.18-3.59,4.77-.1.14-.2.28-.3.42a2.74,2.74,0,0,1-4.89-.61c-.4-.91-.65-1.88-1-2.82a13.09,13.09,0,0,1-.49-1.57A5.67,5.67,0,0,0,41.35,184c-2.52-2.22-5-4.5-7.53-6.81" fill="#fff"/><path d="M75.81,161.46l0,.07c-.82,1.08-1.13,1.08-2,.11-.36-.39-.45-.73-.1-1.16s.58-.76.87-1.14a.68.68,0,0,1,1.06-.15C77,160.2,76.78,160.22,75.81,161.46Z" fill="#fff"/><path d="M59.34,177.49c.9.67.93,1,.19,1.79-.09.1-.2.19-.29.28-.83.83-1.58.8-2.18-.22s.54-1.26.84-1.87a.65.65,0,0,1,1-.29Z" fill="#fff"/><path d="M71,164.56a6.63,6.63,0,0,0,.48.53.68.68,0,0,1,0,1.19c-.21.18-.39.38-.59.56-.95.89-.95.89-1.83-.06-.59-.64-.59-.8,0-1.42.26-.27.54-.52.8-.78A.69.69,0,0,1,71,164.56Z" fill="#fff"/><path d="M63.62,174.21l-.05.07c-.87,1-.87,1-1.88.14-.63-.57-.65-.66-.15-1.35.1-.14.21-.27.32-.4,1-1.12,1.15-1.12,2.12,0C64.48,173.2,64.48,173.2,63.62,174.21Z" fill="#fff"/><path d="M61.37,176.89l0,0c-.85,1.09-.91,1.08-2,.14-.44-.39-.57-.73-.16-1.2.23-.26.4-.56.63-.81.66-.75.82-.75,1.57-.1S62.28,175.7,61.37,176.89Z" fill="#fff"/><path d="M68.87,168.81c-.16.18-.32.36-.49.53-.84.83-1,.82-1.81,0-.68-.69-.68-.81,0-1.5.1-.1.2-.19.29-.29,1.11-1.25,1.31-.85,2.24.31.15.19,0,.65-.06,1Z" fill="#fff"/><path d="M55.41,180.67l.42-.58a.64.64,0,0,1,1-.11c.19.15.36.31.56.45a.71.71,0,0,1,.16,1.2c-.15.19-.27.39-.42.58-.72.93-1,1-1.89.22C54.6,181.84,54.6,181.76,55.41,180.67Z" fill="#fff"/><path d="M73.74,164l-.19.24c-.91,1.08-1.81.94-2.34-.37,0-.12-.1-.32,0-.38q.75-.83,1.54-1.62c.06-.05.27,0,.37.05a4.09,4.09,0,0,1,.48.39C74.47,163,74.47,163,73.74,164Z" fill="#fff"/><path d="M66.38,171.24c-.93,1.19-1.31,1.34-2,.8-.88-.68-.93-.93-.3-1.72.79-1,1.19-1.18,1.68-.79C66.69,170.28,66.83,170.66,66.38,171.24Z" fill="#fff"/></svg>