<svg id="Layer_1" data-name="Layer 1" xmlns="http://www.w3.org/2000/svg" viewBox="0 0 200 200"><title>Circuits</title><path d="M192.67,146.21c-4.16-6.32-8.35-12.62-12.41-19-4.41-6.95-13.6-7.8-18.83-1.49a8.88,8.88,0,0,0-1.92,8.89c1.25,3.88,3.73,7,5.93,10.22a22.64,22.64,0,0,1,4.14,11.77,14.19,14.19,0,0,1-3.35,10.56c-3.27,3.65-6.8,3.12-9-1.31-1.39-2.85-2.72-5.73-3.87-8.68-2.17-5.61-4.19-11.28-6.27-16.92-1.46-4-2.57-8.09-4.44-11.84-2.79-5.6-2.9-11.39-2.43-17.37.49-6.39-.78-12.3-4.91-17.42-1.62-2-3.1-4.12-4.76-6.1-2.59-3.09-5.09-6.3-8-9.12C118,73.85,112.46,72.16,106,74c-7.1,2.06-14.22,4-21.31,6.14C78,82.16,71.61,84.66,67.41,91c-2.16,3.25-5.42,3.36-8.54.92-2.43-1.91-4.58-4.2-7.1-6-5.75-4.06-10-9.39-13.61-15.29a3,3,0,0,1-.31-.91,32.18,32.18,0,0,0-.69-3.22C35,60,32.86,53.42,30.52,47A6,6,0,0,1,34,39a33.72,33.72,0,0,1,2.86,1.86C44,46.51,51,52.27,58.17,57.94c5.55,4.41,11.64,6.93,18.92,5.1,3.44-.86,6.49-2.24,8.6-5.27,1.88-2.7,1.42-5.73,1.11-8.66-.37-3.57-2.7-6-5.37-8.18-8.34-6.78-16.6-13.66-25-20.37a62.41,62.41,0,0,0-9.91-6.9,32.13,32.13,0,0,0-21.25-3.29,25.41,25.41,0,0,0-8.95,3.1C6.93,19.59,5,31.4,9.6,40.18c2.06,4,4.35,7.81,6.46,11.75,2.43,4.55,1.86,8.7-1.63,12.52a9.49,9.49,0,0,0,1,13.94q17,13.66,34,27.27,17.51,14.05,35,28.12Q104.6,149.91,124.76,166c8.93,7.16,17.84,14.35,26.8,21.48a18.65,18.65,0,0,0,3.93,2.4,15.83,15.83,0,0,0,10.53,1c3.42-.81,6.49-2.15,8.66-4.74,6-7.19,12-14.44,17.6-22A15.58,15.58,0,0,0,192.67,146.21ZM190,162c-4.52,6.47-9.74,12.46-14.81,18.53-1.18,1.41-3,2.3-4.53,3.45.85,1,.27,1.59-.62,2.18a13.59,13.59,0,0,1-16-.67c-6.86-5.34-13.61-10.82-20.4-16.25-2.76-2.2-5.52-4.4-8.22-6.67L122,159.89a7.68,7.68,0,0,1-.94-.67q-5.19-4-10.3-8.15L97.86,140.61,54.52,106l.62.2c-4-3.14-7.87-6.32-11.82-9.47q-12.49-10-25-20C16.13,75,14.05,73.12,15,69.88a7.27,7.27,0,0,1,1.78-3.36c5.42-4.81,4-13.57.87-18.48a66.64,66.64,0,0,1-6-10.79C8.75,30.14,10.06,23.49,15.51,18a17.33,17.33,0,0,1,10.88-4.84c8.54-.85,16.51.83,23.42,6.06,5.49,4.15,10.73,8.62,16.05,13q7,5.73,13.89,11.55a17.9,17.9,0,0,1,2.52,2.55c3.37,4.26,2.7,8.77-1.65,12.1-3.66,2.79-7.74,2.42-11.85,1.7-3.59-.63-6.44-2.75-9.2-5Q49.14,46.72,38.7,38.29c-4.29-3.44-10.16-1.54-11.3,3.81a12,12,0,0,0,.25,5.81c1.93,6.25,4.33,12.35,6.24,18.61A39.84,39.84,0,0,0,47.61,86.62c3.24,2.56,6.43,5.19,9.63,7.79,4,3.26,7.69,3.12,11.49-.49a18,18,0,0,0,1.87-2.13,22.43,22.43,0,0,1,12.33-8c7.93-2.21,15.79-4.68,23.71-6.95,5.27-1.51,10.53-.3,14.93,4.59,4.59,5.1,8.62,10.71,12.87,16.12a14.67,14.67,0,0,1,2.87,9.21c0,2.49,0,5-.2,7.48-.43,6.2,1.43,11.9,3.6,17.55C145,142.92,149.18,154,153.55,165a16.34,16.34,0,0,0,3.37,5.11c3.17,3.31,8.14,2.88,11.41-.61a15.85,15.85,0,0,0,4-9.07c.56-4.37.47-8.82-1.71-12.86-1.22-2.26-2.7-4.39-4-6.58a60.28,60.28,0,0,1-3.7-6.19,7.41,7.41,0,0,1-.52-4.22c.63-3.34,3.08-5,6.24-5.77s5.93-.14,7.86,2.53c2.42,3.34,4.61,6.83,6.88,10.28s4.5,7.12,6.9,10.58C193.49,152.93,192.93,157.85,190,162Z" fill="#fff"/></svg>