<svg id="Layer_1" data-name="Layer 1" xmlns="http://www.w3.org/2000/svg" viewBox="0 0 200 200"><title>Circuits</title><path d="M189.14,39.57A40.73,40.73,0,0,0,180,35a105.37,105.37,0,0,0-18.72-5.19A170.74,170.74,0,0,0,137,26.91a105.14,105.14,0,0,0-14.44.35,87.4,87.4,0,0,0-25.05,6.67,129.49,129.49,0,0,0-21,10.51,79.36,79.36,0,0,0-10.18,7.24c-3.24,2.92-6.47,5.87-9.55,9a91.86,91.86,0,0,0-7.73,8.56c-3.63,4.72-7,9.64-10.45,14.5l-1.92,2.68-.18.23c-1.71,2.41-3.4,4.83-5.11,7.23Q25,102.94,18.48,112q-4.7,6.58-9.39,13.16C8,126.74,6.84,128.3,5.87,130A5.5,5.5,0,0,0,6,136.15c2,3,4,6.1,6,9.12h0l0,0,1,1.54h0l.93,1.38a3.36,3.36,0,0,0,.64,1.05,14.78,14.78,0,0,1,2.45,4.14L15.76,155l.78.88,1.87-.58a11.61,11.61,0,0,1,1,1.12c1.73,2.62,3.4,5.28,5.16,7.88,1.61,2.39,3.3,4.73,5,7.08a4.45,4.45,0,0,0,6.64.53,22.41,22.41,0,0,0,4.75-5.78,3.65,3.65,0,0,0-.19-4.34A32.47,32.47,0,0,0,37.23,158,7.53,7.53,0,0,0,33,155.86a5.17,5.17,0,0,1-3.55-2.1,17.86,17.86,0,0,1-2.6-5.55c-.57-1.72-.15-2.58,1.49-3.69a3.51,3.51,0,0,1,3,.9c1.08,1,2.15,2,3.24,3q3.36,3,6.75,6A20.85,20.85,0,0,0,46.06,158a6.31,6.31,0,0,0,6.27,0A28.34,28.34,0,0,0,56,155.25c8.14-7,16.29-14,24.38-21.07q12.58-11,25-22.12a13.73,13.73,0,0,1,4.63-2.68c.73-.26,1.46-.49,2.19-.74a5.26,5.26,0,0,0,3.43-3.39c.38-1.07.94-2.07,1.37-3l20.16-11.39L144.08,87c2.07-1.12,4.12-2.22,6.14-3.35q15.71-8.78,31.4-17.59c3.53-2,7-4,9.61-7.24,1.92-2.4,3.5-5,3.74-8.09C195.35,45.86,193,42.29,189.14,39.57Zm-90.1-5c-1.85,1.63-3.25,3.8-6.11,2.78C93.75,36.53,96.31,35.35,99,34.58Zm14.54,72.17-3,1.21-.14-.22,4-3.54.24.13Zm80.14-55.5a16.56,16.56,0,0,1-7.18,10.37c-3.49,2.38-7.28,4.31-11,6.38-3.52,2-7.08,3.89-10.61,5.87-3.92,2.19-7.82,4.42-11.73,6.63l-9.62,5.42h0l-6.2,3.44c-5.37,3-10.69,6.11-16.13,9a51.62,51.62,0,0,0-9,6.19c-8.56,7.21-17,14.57-25.41,21.94S70,141.3,61.65,148.71L60,150.13h0l-2.72,2.4c-1.71,1.36-3.37,2.77-5.12,4.07a5,5,0,0,1-6.12.1,34.64,34.64,0,0,1-3.88-3.14c-3.44-3.07-6.84-6.2-10.29-9.26a3.71,3.71,0,0,0-3.56-1,3.66,3.66,0,0,0-2.89,4.51c.72,2.58,1.52,5.17,3.45,7.23A5.9,5.9,0,0,0,32.37,157a7.87,7.87,0,0,1,4.92,2.78c.67.78,1.39,1.52,2,2.31,1.22,1.45,1.29,2.73.14,4.17a43.76,43.76,0,0,1-3.73,4.38c-1.83,1.77-3.84,1.59-5.53-.34a23.5,23.5,0,0,1-1.76-2.52c-1.64-2.45-3.37-4.85-4.86-7.39-1.16-2-2-4.16-3.06-6.37.35-.77,1.32-1.39.23-2.33l-1.68.21a7.22,7.22,0,0,1-.7-.8c-1.52-2.3-3-4.63-4.54-6.91-.75-1.11-1.6-2.16-2.42-3.22-1.33-1.72-2.74-3.39-4-5.17a4.88,4.88,0,0,1,.06-6.1c3.11-4.4,6.18-8.83,9.33-13.21l4.39-6.25,0,0,16.84-23.7,0,0,.87-1.24a2.56,2.56,0,0,0,.71-.8c2.08-2.93,4.2-5.83,6.23-8.79A112.83,112.83,0,0,1,60.48,58.61,84.05,84.05,0,0,1,74.21,47.43q6.19-3.88,12.6-7.4c3.28-1.81,3.34-1.72,7.18-1.25a4,4,0,0,0,3.38-1c1-.86,2-1.67,2.87-2.59a11.65,11.65,0,0,1,4.61-2.71,80.83,80.83,0,0,1,30.74-4.36c4.56.22,9.11.6,13.65,1.1,3.83.42,7.63,1.06,11.43,1.71a92.92,92.92,0,0,1,17.84,4.81,77.49,77.49,0,0,1,8.56,4A12.12,12.12,0,0,1,193,46,9.16,9.16,0,0,1,193.72,51.26Z" fill="#fff"/></svg>