<svg id="Layer_1" data-name="Layer 1" xmlns="http://www.w3.org/2000/svg" viewBox="0 0 200 200"><title>Circuits</title><path d="M193,45.87a7.56,7.56,0,0,0-10.12-.28c-4.75,3.61-9.38,7.37-14.12,11-5.79,4.44-11.66,8.78-17.44,13.24a8,8,0,0,1-5.79,1.7c-4.56-.42-8-3.08-8.15-8a14.54,14.54,0,0,1,.4-4.15c1.93-7.48,4-14.94,6-22.41a72.4,72.4,0,0,0,2.17-8.55c1.42-10.32-7.66-17.83-15.83-17.41a17.86,17.86,0,0,0-9.84,3.52c-4.68,3.46-9.2,7.12-13.8,10.68Q95.83,33.44,85.23,41.59,72,51.76,58.75,61.91C52.89,66.38,47,70.78,41.11,75.26a40.7,40.7,0,0,0-4.66,4,41.72,41.72,0,0,0-9.36,16.18v0s-2.39,5.48-2.47,14.74h0c-.1,1.46-.18,2.92-.17,4.38a15.8,15.8,0,0,1-4.76,11.3c-2.31,2.46-4.83,4.72-7.23,7.1a46,46,0,0,0-3.8,4,21.26,21.26,0,0,0-3.87,8.36c-1,4.24-1.12,8.52.72,12.57q5.34,11.74,10.91,23.37a28.49,28.49,0,0,0,3.2,5.25,5.64,5.64,0,0,0,7.69,1.58c2.69-1.51,5.3-3.16,7.93-4.78,3.38-2.09,6.72-4.23,10.1-6.3,5.07-3.11,10.17-6.17,15.24-9.29,3.44-2.12,6.84-4.31,10.28-6.44A22.82,22.82,0,0,1,73,160.15l-1.69-3.09a1.56,1.56,0,0,1-.25.23c-2.44,1.64-5,3.17-7.44,4.73-1.68,1.06-3.36,2.12-5.05,3.15-3.39,2.05-6.8,4.08-10.2,6.13-4.15,2.51-8.24,5.12-12.45,7.52a63.16,63.16,0,0,1-7.76,3.67,7,7,0,0,1-8-1.45,28.78,28.78,0,0,1-4.77-6.6c-2.33-4.41-4.34-9-6.41-13.54a34.5,34.5,0,0,1-2.38-6.15,20,20,0,0,1,1.5-12.92,18.11,18.11,0,0,1,4.31-6.07c2.7-2.49,5.41-5,7.93-7.65a20.15,20.15,0,0,0,6-14.09c0-1.35.08-2.7.15-4h0v0c0-.77.08-1.54.11-2.31v0a58.18,58.18,0,0,1,1.74-9.9c.4-1.3.83-2.6,1.32-3.87A36.74,36.74,0,0,1,41.21,78c6.48-5.1,13-10.1,19.58-15.14L81.6,46.76c7.06-5.45,14.1-10.91,21.18-16.33q8.87-6.79,17.83-13.45a21.71,21.71,0,0,1,4.19-2.42c9.28-4.07,18.34,3,19,11.29a15.33,15.33,0,0,1-.13,3.58h0l0,.14a14.57,14.57,0,0,1-.67,2.62l-1.88,7.38a1.16,1.16,0,0,1,0,.19l-.35,1.32,0,.16h0c-1.35,5.05-2.71,10.1-4,15.16a24,24,0,0,0-1.21,6.71,10,10,0,0,0,8.33,10A10.56,10.56,0,0,0,152.73,71c6.42-5.06,12.9-10,19.38-15,3.56-2.75,7.16-5.44,10.74-8.16.53-.4,1.05-.81,1.61-1.17a6,6,0,0,1,7.17.44,6.91,6.91,0,0,1,2.51,6.27c-.17,3-1.85,5.27-4,7.15-4.68,4.14-9.44,8.2-14.2,12.24-2.15,1.82-4.34,3.6-6.52,5.39h0l-.53.45-2,1.62c-.16.13-.31.27-.45.42l-7.09,6h0c-1.41,1.16-2.85,2.34-4.28,3.54-3.16,2.64-6.27,5.33-9.4,8-1,.86-2,1.77-3,2.61a50.27,50.27,0,0,1-4,3.12c-2.29,1.52-4.31,1.07-6-1a13.13,13.13,0,0,1-2.64-6c-1-5.73-2-11.46-3-17.2-.31-1.81-.58-3.64-.85-5.46-.55-3.66-4-7.4-7.6-7.65l-.46,0a5.13,5.13,0,0,0-.62,0,1.49,1.49,0,0,1-.38,0A10.34,10.34,0,0,0,111,69.62h0L99.81,82h0L93,89.47h0c-1.64,1.79-3.22,3.54-4.76,5.33a15.31,15.31,0,0,0-2.35,3.71c-1.88,4.23-.91,8.28,1.33,12,2.5,4.16,5.3,8.13,7.91,12.22,1.66,2.6,3.26,5.24,4.83,7.89,2.35,4,1.06,7.41-1,10-1.69,2.2-4.16,3.21-6.44,4.51-3.32,1.89-6.67,3.71-10,5.56q-4.05,2.23-8.12,4.43h-.06l1.62,3c.34-.17.65-.33.93-.5,3.61-2.27,7.21-4.56,10.83-6.81,2.12-1.32,4.35-2.47,6.4-3.89s4.51-2.44,6.25-4.46A10.92,10.92,0,0,0,102,130.35c-.81-1.56-1.8-3-2.73-4.53-2.85-4.55-5.72-9.08-8.57-13.63A32.69,32.69,0,0,1,88.19,108c-1.88-4.34-2.1-8.26,2-12.6q3.39-3.62,6.71-7.3L103,81.21q3.71-4.15,7.43-8.3c1-1.09,2-2.14,3.05-3.18,2.2-2.22,7.14-1.78,9.1.92a10.63,10.63,0,0,1,2,4.59c1.2,7.19,2.44,14.38,3.67,21.57a17.63,17.63,0,0,0,3,7.05,6,6,0,0,0,8.55,1.49,38.57,38.57,0,0,0,3.49-2.71c4.42-3.76,8.81-7.57,13.24-11.33,1.41-1.2,2.84-2.38,4.27-3.55h0l4.06-3.34a1.93,1.93,0,0,0,.32-.41l5.19-4.44L178,73.11c4.22-3.56,8.46-7.09,12.65-10.68,2.38-2,4.42-4.36,5-7.57C196.35,51.41,195.79,48.29,193,45.87ZM29.82,183c1.46-.68,2.91-1.37,4.37-2.06,0,0,13-7.48,13.26-7.44-2.13,1.28-19,11.37-21.19,12.63a3.69,3.69,0,0,1-4.32-.29,7.38,7.38,0,0,1-3.06-4.4A9.36,9.36,0,0,0,29.82,183Z" fill="#fff"/><rect x="76.66" y="161" width="1.18" height="1.18" transform="translate(223.78 264.58) rotate(150.66)" fill="#fff"/><rect x="75.05" y="160.55" width="1.18" height="1.18" transform="translate(220.55 264.53) rotate(150.66)" fill="#fff"/><rect x="74.6" y="162.15" width="1.18" height="1.18" transform="translate(220.49 267.76) rotate(150.66)" fill="#fff"/><rect x="75.5" y="158.94" width="1.18" height="1.18" transform="translate(220.6 261.3) rotate(150.66)" fill="#fff"/><rect x="73.9" y="158.49" width="1.18" height="1.18" transform="translate(217.37 261.24) rotate(150.66)" fill="#fff"/><rect x="73.45" y="160.1" width="1.18" height="1.18" transform="translate(217.32 264.47) rotate(150.66)" fill="#fff"/><rect x="74.35" y="156.88" width="1.18" height="1.18" transform="translate(217.43 258.01) rotate(150.66)" fill="#fff"/><rect x="72.74" y="156.43" width="1.18" height="1.18" transform="matrix(-0.87, 0.49, -0.49, -0.87, 214.2, 257.96)" fill="#fff"/><rect x="72.29" y="158.04" width="1.18" height="1.18" transform="translate(214.14 261.19) rotate(150.66)" fill="#fff"/><rect x="73.19" y="154.82" width="1.18" height="1.18" transform="translate(214.26 254.73) rotate(150.66)" fill="#fff"/><rect x="71.58" y="154.37" width="1.18" height="1.18" transform="translate(211.02 254.67) rotate(150.66)" fill="#fff"/><rect x="71.13" y="155.98" width="1.18" height="1.18" transform="translate(210.97 257.9) rotate(150.66)" fill="#fff"/><rect x="72.03" y="152.76" width="1.18" height="1.18" transform="translate(211.08 251.44) rotate(150.66)" fill="#fff"/><rect x="69.97" y="153.92" width="1.18" height="1.18" transform="translate(207.79 254.62) rotate(150.66)" fill="#fff"/></svg>