<svg id="Layer_1" data-name="Layer 1" xmlns="http://www.w3.org/2000/svg" viewBox="0 0 200 200"><title>Circuits</title><path d="M183.58,52.74c-.1-9.8-2.76-16.13-5.29-22.44-2.44-6.1-5.3-12-7.86-18.09a9.3,9.3,0,0,1-.87-4.26,3.78,3.78,0,0,1,1.93-2.7,3.66,3.66,0,0,1,3.29.6,16.79,16.79,0,0,1,3.15,4.94c3.87,9.15,8.22,18.16,11.16,27.6,1.86,6,1.74,12.62,2.13,19a37.21,37.21,0,0,1-1,8.54c-.62,3.52-2.41,4.82-6,4.74-1.73,0-7.7,3.84-8.23,5.34s.64,2.81,3,3c3.42.22,5.19,2.28,6.14,5.18a9.25,9.25,0,0,1,.37,4.36c-.94,5.16-2.13,10.28-3.18,15.42-.66,3.21-1.26,6.44-1.87,9.66a93.91,93.91,0,0,1-10.17,27.35,49.63,49.63,0,0,1-20.14,20.47,165.9,165.9,0,0,1-23.32,10.51c-21.16,7.43-42.51,14.32-63.8,21.38-3.76,1.25-5.67.31-7.06-3.48-1-2.85-1.78-5.81-2.77-8.69-1-3-2-3.41-4.67-1.68-3.84,2.53-7.64,5.14-11.41,7.77-4.52,3.15-7.6,2.39-9.75-2.63-1.75-4.08-3.35-8.22-5-12.34-1.51-3.84-.88-7.2,2.22-10.09S31,156,34.19,152.93a18.84,18.84,0,0,0,5-9.12,93,93,0,0,1,4.47-12.74c1.28-2.94,1.23-5.23-1-7.63-3.68-4-7.17-8.14-10.78-12.18s-3.39-7.19,1-10.56c13.32-10.18,26.69-20.29,40-30.49C75.47,68.28,77.7,66,80.22,64c1.72-1.33,3.74-2.27,5.56-3.48q15-10.1,30.06-20.26c5.41-3.65,7.86-3.32,12.33,1.57,2,2.18,4,4.36,6.07,6.48,2.44,2.49,3,2.48,5.83.52,5.79-4.06,11.6-8.07,17.38-12.13,2.56-1.8,5.23-3.12,8.15-1s3.64,5,3.19,8.5c-.68,5.19-1.14,10.42-1.58,15.64-.18,2.15-.13,4.42,2.17,5.61a6.63,6.63,0,0,0,7.22-.75C181.68,61.09,183.77,56.06,183.58,52.74Zm-10.05-44-.92.34a22.65,22.65,0,0,0,.71,2.38c3.42,8.19,7,16.31,10.27,24.56,2.33,5.87,3.56,12,2.48,18.36-1.13,6.63-4.29,12-11.09,14.14-6.09,1.94-10.75-1.57-10.79-7.92a58.06,58.06,0,0,1,.47-6.62c.37-3.43.93-6.84,1.23-10.28.2-2.24.1-4.6-2.22-5.86-2.1-1.13-3.56.56-5.07,1.59-6,4.11-11.87,8.26-17.8,12.41-1.88,1.32-4.06,2.06-6,.67-3.11-2.25-5.93-4.9-8.86-7.41a2.15,2.15,0,0,1-.4-.88c-1.32-3.54-3.76-4.36-6.91-2.28-2.53,1.68-5,3.42-7.54,5.14-10.37,7.09-20.88,14-31.07,21.33-9.39,6.77-18.43,14-27.64,21.06C46.54,94,40.59,98.4,34.75,102.94c-3.34,2.59-3.11,4.71.47,6.74A4.56,4.56,0,0,1,36.52,111c1,1.32,1.78,2.75,2.8,4,2.32,2.88,4.92,5.55,7,8.58a7.7,7.7,0,0,1,1.17,5c-.31,2.11-1.6,4.06-2.33,6.12-1.09,3.08-2.23,6.15-3,9.31-.87,3.39-1.83,6.67-4.37,9.22-3.71,3.72-7.48,7.38-11.2,11.1-1.88,1.88-2.67,3.95-1.47,6.65,1.83,4.13,3.4,8.38,5.11,12.56,1.21,3,2.17,3.25,4.8,1.48,3.74-2.53,7.45-5.12,11.18-7.67,5-3.39,8.48-2.1,10.15,3.68.78,2.68,1.67,5.33,2.54,8a2.1,2.1,0,0,0,3,1.55c7.72-2.57,15.46-5.07,23.17-7.65,9.89-3.31,19.74-6.77,29.66-10,10.4-3.39,20.77-6.82,30.46-12,9.35-5,17-11.77,22.2-21.09,4-7.12,7.29-14.51,9-22.56,2-9.56,4.31-19.07,6.28-28.64.83-4-1.13-6.38-5.21-7.07A5.23,5.23,0,0,1,173,78.15a4.71,4.71,0,0,1,1.75-5.29,56.38,56.38,0,0,1,5.75-4.23,6.27,6.27,0,0,1,3-.84c3.11-.13,3.78-.55,4.14-3.59,1-8.13,1.53-16.38-1.15-24.2-3.06-8.91-6.94-17.55-10.52-26.28C175.33,12,174.37,10.41,173.53,8.76Z" fill="#fff"/></svg>