<svg id="Layer_1" data-name="Layer 1" xmlns="http://www.w3.org/2000/svg" viewBox="0 0 200 200"><title>Circuits</title><path d="M191.46,13.34c-2.88-5.12-7.3-8.26-13.41-8.67a13.68,13.68,0,0,0-10.45,3.42c-2.93,2.59-5.89,5.16-8.82,7.76l-45.08,40-2.11,1.87L112.83,59l18.55-16.55.14.14c-2.71,2.47-5.41,4.95-8.12,7.4-1.56,1.41-3.21,2.73-4.72,4.2-1.2,1.17-2.25,2.5-3.35,3.76-.55.63-1.1,1.28-1.66,2l.53.58c.93-1.14,1.83-2.29,2.82-3.38a37.86,37.86,0,0,1,3.33-3.35c6.31-5.37,12-11.37,17.84-17.23,2.46-2.47,5.15-4.71,7.76-7q11.33-10.08,22.69-20.14a11.6,11.6,0,0,1,7.47-2.95,15.44,15.44,0,0,1,11.11,4,14.28,14.28,0,0,1,3.21,4.27,24.71,24.71,0,0,1,3,13.59,23.4,23.4,0,0,1-4.63,12.13A40.69,40.69,0,0,1,182,47.21a42.9,42.9,0,0,0-5.19,5.07,24.06,24.06,0,0,0-5,11.32,54.19,54.19,0,0,1-2.1,8.95,27.76,27.76,0,0,1-10.16,13.74,27.36,27.36,0,0,1-12.75,4.85,60.34,60.34,0,0,1-9.78,0c-2.91-.13-5.83-.48-8.72-.32a11.41,11.41,0,0,0-11,10,16.94,16.94,0,0,0,2.53,11.52,34.84,34.84,0,0,0,4.16,5.29c3.4,3.83,6.92,7.56,10,11.7C138.18,135,141.9,141,145.5,147a12.79,12.79,0,0,1,1.67,3.44,8.36,8.36,0,0,1-3.65,9,6.65,6.65,0,0,1-7.26.5,29,29,0,0,1-3.74-2.34c-7-5.09-14-10.23-21.08-15.31-6.2-4.48-12.44-8.91-18.66-13.36a4.74,4.74,0,0,0-4.86-.61c-2.23.89-4.5,1.66-6.77,2.47a6.18,6.18,0,0,0-3.2,2.91,46.43,46.43,0,0,0-4.57,10.31,42,42,0,0,0-1.94,13.54,52.61,52.61,0,0,0,1.83,11.88,18.72,18.72,0,0,1,0,10.69A16.15,16.15,0,0,1,61.5,191.31a36.14,36.14,0,0,1-6.44,1c-3.16.29-6.32.61-9.48.89a108,108,0,0,1-12,.78,38.75,38.75,0,0,1-9.87-1.39,21.54,21.54,0,0,1-10.92-7.34,27.81,27.81,0,0,1-6.14-13.26,23.53,23.53,0,0,1,.72-10,36.06,36.06,0,0,1,7.76-14.07,72.53,72.53,0,0,1,9.4-8.9c13.89-11.34,27-23.6,40.28-35.61l5.47-4.94c.69-.62,1-.64,1.67,0,.44.38.82.82,1.26,1.19.19.16.54.34.71.26s.44-.44.64-.69.16-.34.29-.46c.82-.84,1.73-1.61,2.47-2.52a28.77,28.77,0,0,0,1.66-2.61A7.48,7.48,0,0,1,80,92.08q15.4-14.26,30.84-28.48l.11-.1-.54-.58-.15.14L98.81,73.62C92.65,79.31,86.5,85,80.3,90.68a9.23,9.23,0,0,0-2.45,3.23,9.17,9.17,0,0,1-2.3,2.91,1.35,1.35,0,0,1-.61.29c-.51.13-1,.24-1.55.31a1.56,1.56,0,0,1-1.63-.4c-.36-.43-.83-.19-1.31,0l.32-.28L102.6,68.16,109.47,62l.08-.05-1.23-1.32-.29.23q-7.61,6.82-15.22,13.64Q74.94,90.6,57.09,106.71,41.7,120.63,26.38,134.62c-2.71,2.47-5.48,4.89-8.08,7.47-2.14,2.12-4.16,4.38-6.08,6.71-2.7,3.26-4.27,7.15-5.7,11.08a25,25,0,0,0-1.36,11.24,28.45,28.45,0,0,0,3.36,10.45,24.27,24.27,0,0,0,10.86,10.74,32.58,32.58,0,0,0,13.08,3,90,90,0,0,0,12.82-.67c2.78-.26,5.56-.51,8.33-.8,2.35-.25,4.71-.46,7-.85a16.23,16.23,0,0,0,10-5.52c.34-.39.53-.71.14-1.15l.07-.09c.26.18.48.45.81,0a18,18,0,0,0,3.82-9.59,21.27,21.27,0,0,0-.79-7.23,53.93,53.93,0,0,1-1.73-9.72,41,41,0,0,1,1-12.43A45.59,45.59,0,0,1,79.5,134a4.63,4.63,0,0,1,2.58-2.11c2.1-.69,4.18-1.43,6.24-2.22a3.62,3.62,0,0,1,3.66.51q20.1,14.57,40.22,29.11a25.32,25.32,0,0,0,3.84,2.28,7.94,7.94,0,0,0,7.61-.44c5.15-2.82,6.94-8.82,3.69-13.69-1-1.43-1.82-2.92-2.68-4.41a135.93,135.93,0,0,0-18.19-24.84,57.19,57.19,0,0,1-4-4.64,16.9,16.9,0,0,1-3.78-11.29,10.12,10.12,0,0,1,4.08-7.81,12.41,12.41,0,0,1,9.06-2.29,74.23,74.23,0,0,0,13.56.41,38.39,38.39,0,0,0,7.31-1.2,26.06,26.06,0,0,0,10.69-6.3A29.59,29.59,0,0,0,171.61,71c.68-2.48,1.13-5,1.72-7.53a25.14,25.14,0,0,1,6.38-12.21c1.73-1.76,3.6-3.4,5.47-5a27.23,27.23,0,0,0,7.5-9.65A25,25,0,0,0,191.46,13.34Z" fill="#fff"/><rect x="105.79" y="56.72" width="1.52" height="1.52" transform="translate(-11.85 82.75) rotate(-40.39)" fill="#fff"/><rect x="107.93" y="56.89" width="1.52" height="1.52" transform="translate(-11.45 84.17) rotate(-40.39)" fill="#fff"/><rect x="108.1" y="54.75" width="1.52" height="1.52" transform="translate(-10.02 83.78) rotate(-40.39)" fill="#fff"/><rect x="107.76" y="59.03" width="1.52" height="1.52" transform="translate(-12.88 84.57) rotate(-40.39)" fill="#fff"/><rect x="109.9" y="59.21" width="1.52" height="1.52" transform="translate(-12.48 86) rotate(-40.39)" fill="#fff"/><rect x="110.07" y="57.07" width="1.52" height="1.52" transform="translate(-11.05 85.6) rotate(-40.39)" fill="#fff"/><rect x="109.72" y="61.35" width="1.52" height="1.52" transform="translate(-13.91 86.4) rotate(-40.39)" fill="#fff"/><rect x="111.87" y="61.52" width="1.52" height="1.52" transform="translate(-13.51 87.83) rotate(-40.39)" fill="#fff"/><rect x="112.04" y="59.38" width="1.52" height="1.52" transform="translate(-12.08 87.43) rotate(-40.39)" fill="#fff"/><rect x="111.69" y="63.66" width="1.52" height="1.52" transform="translate(-14.94 88.23) rotate(-40.39)" fill="#fff"/><rect x="113.84" y="63.84" width="1.52" height="1.52" transform="translate(-14.54 89.66) rotate(-40.39)" fill="#fff"/><rect x="114.01" y="61.69" width="1.52" height="1.52" transform="translate(-13.11 89.26) rotate(-40.39)" fill="#fff"/><rect x="113.66" y="65.98" width="1.52" height="1.52" transform="translate(-15.97 90.06) rotate(-40.39)" fill="#fff"/><rect x="115.98" y="64.01" width="1.52" height="1.52" transform="translate(-14.14 91.09) rotate(-40.39)" fill="#fff"/></svg>