<svg id="Layer_1" data-name="Layer 1" xmlns="http://www.w3.org/2000/svg" viewBox="0 0 200 200"><title>Circuits</title><path d="M53.91,32c2.4.67,6.49,1.39,10.22,3,9.83,4.13,19.9,8,29.16,13.15,12.7,7.13,24.87,15.25,37,23.31a20.53,20.53,0,0,0,10.56,3.67,9.53,9.53,0,0,1,4.18,1c12.17,7.2,24.27,14.51,36.39,21.8,2.66,1.6,5.37,3.14,7.92,4.9,3.76,2.6,6.62,5.81,7.38,10.64.84,5.3-1.55,9.07-5.75,11.36a90.9,90.9,0,0,1-16,7c-12.46,3.94-22.66,10.73-29.76,21.81-4.31,6.73-10.68,10.51-18,13.06-4,1.42-8,3.14-12.16,4.14a14.48,14.48,0,0,1-7.46-.26C92.37,165.58,77.16,160.44,62,155.29c-2.41-.82-4.69-2-7-3-.5-.22-.95-.55-1.42-.82-7-3.92-13.51-4-19.86,1.56-6.08,5.34-12.42,10.38-18.74,15.44-3.16,2.53-4,6.17-5.22,9.69-.73,2.16-1.39,4.35-2.29,6.43-.29.66-1.26,1-1.92,1.53a9,9,0,0,1-1-2c-.3-1.32-.24-2.74-.62-4-2-6.93.91-13.09,2.88-19.42,1.09-3.51,1.7-7.2,3.09-10.58a39.27,39.27,0,0,1,5-8.47A28,28,0,0,1,21.16,135c5.41-3.63,10.13-7.79,12.79-13.81s7.53-9.94,13.29-12.78c2.36-1.16,3.19-3,3.35-5.46.41-6.56-2.45-11.86-6.23-16.82C40.73,81.36,36.49,77,33.45,71.84,30,66,26.73,59.78,25,53.3a16.68,16.68,0,0,1,3.57-15.23,15.62,15.62,0,0,1,8.14-4.47C41.74,32.56,47,32.56,53.91,32ZM6.32,181.44c.48-1.19.78-1.82,1-2.49,1.8-6,4.63-11.19,9.88-15,5.82-4.23,11.52-8.64,17-13.29s11-5,17.21-2a105.72,105.72,0,0,0,11.46,5.16q21.58,7.47,43.32,14.49a17.91,17.91,0,0,0,8.81.82,70,70,0,0,0,12.81-4.61c4.14-1.8,8.63-3.12,11.67-6.84,2.77-3.4,5.61-6.74,8.25-10.24,6.66-8.83,15.85-13.58,26.08-17A112.76,112.76,0,0,0,190,123.35a9,9,0,0,0,3.78-12.91,22,22,0,0,0-6.79-6.83q-17.47-11.27-35.29-22c-4.79-2.89-9.6-6-15.78-5.26-1.38.17-3.09-1-4.41-1.88-3.7-2.49-7.23-5.23-10.9-7.76C100.74,53,79.83,41.42,56.58,34.49A13.93,13.93,0,0,0,52,33.86q-5.87.29-11.72,1a21.68,21.68,0,0,0-6.61,1.43c-3.42,1.61-5.88,4.25-6.18,8.36-.22,3-1.49,6.2-.68,8.82A76.47,76.47,0,0,0,43.6,82.28c4.32,4.79,7.83,10.26,8.79,17,.65,4.55-.48,8.18-4.37,10.48-5.19,3.06-9.74,6.62-12.36,12.25-2.85,6.13-7.48,10.59-13.19,14.15A21,21,0,0,0,17,141.73a49.75,49.75,0,0,0-5.5,9.12,61.9,61.9,0,0,0-2.92,10.07c-.85,3.44-2.08,6.7-2.5,10.36C5.7,174.54,5.21,177.57,6.32,181.44Z" fill="#fff"/></svg>