<svg id="Layer_1" data-name="Layer 1" xmlns="http://www.w3.org/2000/svg" viewBox="0 0 200 200"><title>Circuits</title><path d="M161.54,36.79l-4.36-2.05,1.5-3.22,4.42,2.06c.6-1.26,1.18-2.48,1.76-3.69Q170.12,19,175.39,8.15a9.64,9.64,0,0,1,1.54-2.26A2.88,2.88,0,0,1,181,5.52a15.36,15.36,0,0,1,2.23,2.24c1.55,1.83,3.07,3.68,4.57,5.55a10.56,10.56,0,0,1,2.14,10c-.6,2.1-1.48,4.13-2.28,6.18-.6,1.52-1.27,3-1.93,4.52a9.86,9.86,0,0,0,0,8c.5,1.21,1.16,2.36,1.77,3.53.88,1.72,1.78,3.44,2.67,5.16.2.39.38.79.54,1.2,1.67,4.18.77,7.8-2.78,10.59-2.18,1.71-4.5,3.25-6.71,4.93a20.58,20.58,0,0,0-2.81,2.5,8,8,0,0,0-1.92,7.7,40,40,0,0,0,1.62,4.76c.79,2,1.68,4,2.49,6a10.72,10.72,0,0,1,0,8.9c-.47,1-1.12,1.89-1.65,2.85a12.8,12.8,0,0,0-1.59,6.32,8.93,8.93,0,0,1-1.07,4.56,8,8,0,0,1-3.85,3.29,26.49,26.49,0,0,0-7.52,4.74,28.27,28.27,0,0,0-3,3.33,14,14,0,0,1-3.05,2.93c-2.51,1.77-5,3.54-7.5,5.38-1.3,1-1.28,1.27-.31,2.59,3,4.09,6.11,8.11,9,12.3a88,88,0,0,1,10.46,22c1.86,5.61,3.45,11.31,5.21,17a9.13,9.13,0,0,1-.54,6.87c-.45,1-.94,1.9-1.48,2.81a1.56,1.56,0,0,1-2.73.24,7.94,7.94,0,0,1-1.23-2.43c-1.13-3.6-2.2-7.23-3.26-10.85a172.66,172.66,0,0,0-9.81-26.31,131.7,131.7,0,0,0-16.72-26.28c-2.28-2.8-4.4-5.74-6.53-8.66a37.26,37.26,0,0,0-11.38-10c-4-2.37-8.32-4.17-12.54-6.13a125.48,125.48,0,0,1-15.2-8.28A147.1,147.1,0,0,0,78.65,87q-27-13.09-54-26.14A18.82,18.82,0,0,0,21,59.64a7.39,7.39,0,0,0-4,.27,6,6,0,0,1-6.85-2.13c-3.36-4.24-1.23-8.94,2.69-11a7,7,0,0,1,3.76-.86,24.56,24.56,0,0,1,3.37.46,1.83,1.83,0,0,1,1.62,2.1c0,.7-.16,1.39-.23,2.08-.15,1.53.1,2,1.49,2.72,7.33,3.6,14.66,7.22,22,10.77Q67.56,75,90.26,85.84a78,78,0,0,0,8.38,3.06,208.38,208.38,0,0,1,21.11,9,14.38,14.38,0,0,0,8.19,1.45A8.64,8.64,0,0,1,137,106c.14.6.25,1.22.44,1.8a2.48,2.48,0,0,0,2.85,2,11.38,11.38,0,0,0,10.9-7.74c1.31-3.44.39-6.35-2-8.92a4.07,4.07,0,0,0-3.77-1.26c-1.58.25-3.15.57-4.72.85l-.53.12a2.76,2.76,0,0,1-3.56-3.09,5,5,0,0,1,.46-1.72q6-12.66,11.95-25.31c4.07-8.53,8.19-17,12.29-25.54Zm1.12-1.4,1.5.6.66-1.42-1.57-.73-.58,1.55-1.51-.84.57-1.44-1.52-.68-.68,1.47,1.65.65-.8,1.5,1.5.69Zm2.95,1.3,1.57.79-.63,1.46,1.47.69.78-1.43,1.4.67.68-1.46-1.5-.69-.57,1.5-1.58-.77.63-1.45-1.48-.69-.78,1.4L164.13,36l-.67,1.45,1.56.73Zm-.76,1.65c-.08.14-.12.21-.16.28L147.35,75.09a9.38,9.38,0,0,0-.15,8.06,13.47,13.47,0,0,0,.82,1.66c1.54,2.55,3.1,5.08,4.65,7.62,2.9,4.76,2.64,9.93-.81,14.05a15.25,15.25,0,0,1-11.31,5.38,4.61,4.61,0,0,1-4.43-2.46,13.81,13.81,0,0,1-.91-2.08c-.26-.69-.45-1.41-.71-2.1a6,6,0,0,0-3.85-3.52,2.36,2.36,0,0,0-1.12-.14,18.39,18.39,0,0,1-10.23-1.6c-3.56-1.53-7.07-3.18-10.65-4.65C96.19,90.24,83.84,84.89,71.7,79Q51.48,69.31,31.31,59.48c-3.4-1.65-6.79-3.3-10.17-5-1.67-.83-2-1.55-1.71-3.39.12-.83.31-1.65.42-2.48a.63.63,0,0,0-.27-.53,7.09,7.09,0,0,0-6.3.41c-3.34,2-4,5.57-1.65,8.39a4.11,4.11,0,0,0,4.93,1.37,8.81,8.81,0,0,1,5.14-.3,22.28,22.28,0,0,1,3.89,1.37Q49.15,70.48,72.67,81.71q7.57,3.62,15,7.43c1.82.93,3.44,2.26,5.23,3.27,4,2.23,8,4.44,12,6.53,5.34,2.76,10.75,5.38,16.11,8.11a36.23,36.23,0,0,1,9.48,6.75,73.84,73.84,0,0,1,6.65,8.1c3.73,5,7.59,10,11.21,15.11a115.73,115.73,0,0,1,15.7,31.27c2.5,7.67,4.92,15.38,7.38,23.06a13.77,13.77,0,0,0,.62,1.38,3.23,3.23,0,0,0,.25-.27c.21-.32.42-.63.62-1a7.39,7.39,0,0,0,.88-6.53c-.7-2-1.25-4.13-1.86-6.2a173.9,173.9,0,0,0-6.12-18.11A43.27,43.27,0,0,0,161,151.6a25.81,25.81,0,0,1-1.69-2.89c-.65-1.19-1.18-2.46-1.94-3.58-1.63-2.44-3.35-4.82-5.07-7.2-1.09-1.51-2.29-2.93-3.34-4.46a2.44,2.44,0,0,1,.48-3.57,5.75,5.75,0,0,1,.5-.43c2.59-1.9,5.18-3.81,7.79-5.68a12,12,0,0,0,2.83-2.73,23.11,23.11,0,0,1,4.5-4.62,36.11,36.11,0,0,1,7.32-4.41,3.82,3.82,0,0,0,2.48-4.2c0-.24,0-.48,0-.72a15,15,0,0,1,2.74-9.26,7.67,7.67,0,0,0,1.33-6,18.45,18.45,0,0,0-1-3.38,93.42,93.42,0,0,1-3.85-10.71,9.8,9.8,0,0,1,2.62-9.88,34.11,34.11,0,0,1,4.2-3.45c1.8-1.32,3.74-2.47,5.52-3.82,2.75-2.08,3.4-4.65,2.15-7.86-.15-.39-.32-.77-.51-1.15-1.29-2.55-2.55-5.11-3.89-7.64a13.24,13.24,0,0,1-.92-10.28q1.36-4.75,2.43-9.58a13.17,13.17,0,0,0,.23-3.92,8.84,8.84,0,0,0-3.81-6.65,3.88,3.88,0,0,0-5.28.49,6.77,6.77,0,0,0-1.13,1.68c-2.34,4.82-4.64,9.65-7,14.47l-2.36,4.91,4.73,2.24-1.51,3.2Zm-1-.39-.18-.08L139,90.26l.15.17c.79-.16,1.59-.29,2.37-.47,2.52-.58,5-1.39,7.76-.56l-.43-.74c-.83-1.46-1.7-2.89-2.47-4.38a13.26,13.26,0,0,1-1.57-5.49,2.11,2.11,0,0,1,.18-1q9-19.06,18-38.1C163.28,39.12,163.55,38.54,163.82,38ZM186.7,25.2l.13,0c.19-.48.39-1,.56-1.43a8.88,8.88,0,0,0-1.32-9c-1.79-2.25-3.56-4.52-5.38-6.74-1.13-1.37-2-1.24-2.85.39-1.14,2.24-2.29,4.48-3.38,6.74-2.63,5.49-5.23,11-7.84,16.5-.44.92-.86,1.85-1.3,2.77a.65.65,0,0,0,.34-.35c2.49-5.25,5-10.51,7.47-15.75a19,19,0,0,1,2.58-4.56c2-2.31,4.77-2.73,7.14-.93a9.59,9.59,0,0,1,4,7,36.72,36.72,0,0,1,0,4.07C186.78,24.33,186.73,24.77,186.7,25.2Zm-29.3,9.46,1.45.68.68-1.46-1.45-.67Z" fill="#fff"/></svg>