<svg id="Layer_1" data-name="Layer 1" xmlns="http://www.w3.org/2000/svg" viewBox="0 0 200 200"><title>Circuits</title><path d="M135.73,38.81c4.67-5.48,10.88-9.62,16.69-14.22,3.94-3.12,8-6.05,12-9.07h0c1.64-.85,3.25-1.75,4.93-2.51a5.93,5.93,0,0,1,1.86-.22c3.56,1.19,5,3.84,5.45,7.48,5.39-2,10.68-1,15.9.25,3.62.87,4.83,3.24,4,6.91a15,15,0,0,1-.71,2.27c-3.43,8.24-6.44,16.66-11,24.39-2.48,4.2-4.46,8.74-7.27,12.7a41.39,41.39,0,0,1-12.79,11.68,107.82,107.82,0,0,1-9.67,5.4c-3.2,1.48-6.64,2.46-10.24,3.75l-1.35.49c-12,.66-23.38,4.61-35.3,2.85a17.67,17.67,0,0,0-3.13-.05c-.19,0,.18-.19,0,0-3.82-.52-7.88-.77-11.37-1.15l-1.91,3.69c-4.18-.08-7.36.16-9.85-2.5a3.93,3.93,0,0,0-2.18-.76c-6.57-1-13.15-1.95-19.73-2.85S47,85.62,40.39,84.79a11.34,11.34,0,0,0-2,.09h0l-4.91-.14c-5.62,6.8-9.86,13.83-11.15,22.39A6.41,6.41,0,0,0,23.62,112c1.11,1.64,2.07,3.37,3.33,5.46-1.17,9.18-2.36,18.61-3.62,28-.08.58-.7,1.08-1.12,1.7l-4.43,1.2c-.23,1.27-.84,2.61-.63,3.81,1,5.91,1.21,12,4,17.56a19.73,19.73,0,0,0,7.93,8.72L30,184c-.91,2.34-2.86,3.1-5.08,3.16q-5.14.15-10.3,0c-4.17-.12-6.43-2.42-6-6.66a13.12,13.12,0,0,0-1.29-6.88,41.15,41.15,0,0,1-1.75-5.25c-.51-1.74-.91-3.52-1.47-5.73L4,159.33c-.41-1.62-.28-3.29-.68-4.83a11.67,11.67,0,0,0,.22-3.68A78.69,78.69,0,0,1,5,126.38c.66-2.95,1-6,1.48-9l.58-4.06c.87-3.79,1.83-7.49,2.55-11.24,1.15-6,3.94-11.2,6.92-16.39,1.44-2.51,2.62-5.18,3.84-7.82.84-1.81,1.47-3.75,2.94-4.2,5.92.57,11.15,1.32,16.39,1.53,7.39.29,14.79.25,22.19.22A63.38,63.38,0,0,1,76.53,76.7a36.88,36.88,0,0,0,16.93.16c7.74-1.82,15.51-1.46,23.27-.13a28.23,28.23,0,0,0,16.65-2.44,10.59,10.59,0,0,0,5.49-13.69,48.06,48.06,0,0,0-2.73-6.16,16.87,16.87,0,0,1-1.95-12.36Zm9.76,43.68a70.06,70.06,0,0,0,14.91-6.66,45.93,45.93,0,0,0,17-17.45c3.43-6.25,6.36-12.78,9.54-19.17a8.64,8.64,0,0,1,1.44-2.36c2.56-2.52,3.62-5.82,4.77-9,.4-1.13.15-2.5.2-4-5-1.12-9.55-2.23-14.52-.61-1.39,5.2,2.36,9,3.43,14L181,40.34l-4.19.67a39.55,39.55,0,0,1-1.77-3.76c-.44-1.24-.53-2.6-.94-3.85-1.24-3.82-2.1-7.58-1.06-11.68.59-2.34.32-4.82-2.65-6a34,34,0,0,0-3.08,1.77c-5.06,3.63-10.16,7.22-15.12,11-3.9,3-7.54,6.27-11.4,9.29a11,11,0,0,0-2.66,14,45.24,45.24,0,0,1,3,6c2.93,8.55,1.48,15.83-7.65,19.76-5.32,2.29-10.84,3.4-16.67,2.27A54.5,54.5,0,0,0,94,80.1c-6.06,1.39-12.07.9-18.11-.36a54.82,54.82,0,0,0-10.61-1.26c-11.1-.1-22.2.3-33.29,0-4.29-.11-7.22,1.45-9.36,4.74A90.6,90.6,0,0,0,15.82,94.9c-2.2,4.82-3.69,9.93-2.43,15.42.82,3.55,1.44,7.15,2.14,10.7h0c-.8,9.08-.67,17.16-.89,25.89l5.89-3.4c.86-7.39,1.65-15,2.68-22.61a7.65,7.65,0,0,0-1.67-6.26,11.17,11.17,0,0,1-2.32-9.3c.25-1.41.38-2.83.48-3.64,1-1.87,1.81-3.21,2.42-4.64a59.22,59.22,0,0,1,7.14-11.92,8.77,8.77,0,0,1,9-3.7q20.44,2.88,40.91,5.48a11.87,11.87,0,0,1,6.76,2.91l3.48.42,1.32-2.85A6.75,6.75,0,0,1,97,86.55a10.67,10.67,0,0,0,2.31.59c11.2.82,22.41,2.25,33.48-1.12a10.84,10.84,0,0,1,2.35-.44c0-.07,1.43-.33,1.39-.4,2.53-1,6.51-1.73,9-2.69ZM10,116.86C7,130.76,4.69,144.23,7.73,158.43c-1.06,4.64.49,9.26,2.51,13.79,1.13,2.54,2.31,5,1.65,8-.21.94.27,2,.44,3.11a8.51,8.51,0,0,0,1.63.49,3,3,0,0,0,1.06-.33c-1.48-4-1.84-5.79-.23-8.22,1.42-2.14.77-3.87.34-6-1.19-5.83-2.8-11.7-3-17.59-.22-7.76.69-15.56,1.28-23.34a27.26,27.26,0,0,0-.81-10.76Zm16.9,66.36c-.38-2.74-.3-2.88-1.59-3.66-2.6-1.56-4.23-3.93-5.75-6.41-.7-1.15-1.29-2.37-1.93-3.55,1.63,4.09-2,7.36-1.83,11C19,184.27,22.59,184.68,26.94,183.22Z" fill="#fff"/><rect x="15.53" y="125.82" width="1.11" height="1.11" transform="translate(143.04 115.75) rotate(92.47)" fill="#fff"/><rect x="14.37" y="126.89" width="1.11" height="1.11" transform="translate(142.9 118.02) rotate(92.47)" fill="#fff"/><rect x="15.43" y="128.05" width="1.11" height="1.11" transform="translate(145.17 118.17) rotate(92.47)" fill="#fff"/><rect x="13.3" y="125.73" width="1.11" height="1.11" transform="translate(140.62 117.88) rotate(92.47)" fill="#fff"/><rect x="12.14" y="126.79" width="1.11" height="1.11" transform="translate(140.48 120.15) rotate(92.47)" fill="#fff"/><rect x="13.21" y="127.95" width="1.11" height="1.11" transform="translate(142.75 120.29) rotate(92.47)" fill="#fff"/><rect x="11.08" y="125.63" width="1.11" height="1.11" transform="translate(138.21 120) rotate(92.47)" fill="#fff"/><rect x="9.92" y="126.7" width="1.11" height="1.11" transform="translate(138.06 122.27) rotate(92.47)" fill="#fff"/><rect x="10.98" y="127.86" width="1.11" height="1.11" transform="translate(140.33 122.42) rotate(92.47)" fill="#fff"/><rect x="8.85" y="125.53" width="1.11" height="1.11" transform="translate(135.79 122.12) rotate(92.47)" fill="#fff"/><rect x="7.69" y="126.6" width="1.11" height="1.11" transform="translate(135.64 124.39) rotate(92.47)" fill="#fff"/><rect x="8.76" y="127.76" width="1.11" height="1.11" transform="translate(137.91 124.54) rotate(92.47)" fill="#fff"/><rect x="6.63" y="125.44" width="1.11" height="1.11" transform="translate(133.37 124.25) rotate(92.47)" fill="#fff"/><rect x="5.46" y="126.5" width="1.11" height="1.11" transform="translate(133.22 126.52) rotate(92.47)" fill="#fff"/><rect x="6.53" y="127.66" width="1.11" height="1.11" transform="translate(135.49 126.67) rotate(92.47)" fill="#fff"/><rect x="4.4" y="125.34" width="1.11" height="1.11" transform="translate(130.95 126.37) rotate(92.47)" fill="#fff"/><rect x="3.24" y="126.41" width="1.11" height="1.11" transform="translate(130.8 128.64) rotate(92.47)" fill="#fff"/><rect x="4.3" y="127.57" width="1.11" height="1.11" transform="translate(133.08 128.79) rotate(92.47)" fill="#fff"/></svg>