<svg id="Layer_1" data-name="Layer 1" xmlns="http://www.w3.org/2000/svg" viewBox="0 0 200 200"><title>Circuits</title><path d="M185,114.24a17.3,17.3,0,0,0-8.2-10.08c-3.53-1.94-7.09-3.8-10.79-5.39-8.06-3.48-16.14-6.9-24.21-10.34q-11.76-5-23.51-10l-18.92-8-4.85-2h0L82.11,63.15h0l-5.49-2.31L73,59.32l-1.55-.65h0Q56,52.24,40.62,45.82L35,43.44l0-.13-4.37-1.69-.79-.33,0,0-.5-.19A4.69,4.69,0,0,0,24,42.6l-4.7,6a4.71,4.71,0,0,0,.31,6.15l-.14.18c5.3,4.36,10.62,8.71,15.9,13.09q21.07,17.49,42.12,35,12.06,10,24.15,20a45.58,45.58,0,0,0,3.71,2.72,4.53,4.53,0,0,0,2.69.75,2.47,2.47,0,0,0,2.19-1.21,5.46,5.46,0,0,0,.69-1.73c.22-1.24.33-2.49.47-3.74.16-1.42.27-2.85.45-4.28a7,7,0,0,1,2.83-4.84,5.92,5.92,0,0,1,7.55-.19c1.07.78,2.09,1.64,3.08,2.52,1.83,1.63,3.57,3.36,5.43,4.95,7.76,6.63,16.69,8.39,26.51,6.24a55.44,55.44,0,0,0,8.63-2.95,19.72,19.72,0,0,1,4.71-1.4,2.37,2.37,0,0,1,2.31.93,4.73,4.73,0,0,1,.85,1.43,7.19,7.19,0,0,1-.41,6,64.73,64.73,0,0,1-5.32,7.66c-2.22,2.92-4.43,5.86-6.54,8.86a25.52,25.52,0,0,0-2.48,4.36,8.32,8.32,0,0,0,1.4,9.47,13.78,13.78,0,0,0,5.28,3.87c4.4,1.76,8.71,1.6,12.72-1.08a17.4,17.4,0,0,0,6.49-8.43,3.53,3.53,0,0,0,.21-1.12q.34-8.28.65-16.57h.15q0-7.87,0-15.74A16.27,16.27,0,0,0,185,114.24Zm-2.89,10.18c-.21,7.8-.51,15.59-.78,23.39a16,16,0,0,0,0,1.78,7.59,7.59,0,0,1-1.29,4.67c-1.37,2.23-3,4.21-5.62,4.94-4.53,1.27-8.66.48-11.55-3.6a4.47,4.47,0,0,1-.61-4.47,21.33,21.33,0,0,1,1.62-3.16,105.24,105.24,0,0,1,7.58-10.31,55.09,55.09,0,0,0,5.37-7.88,7.88,7.88,0,0,0,1-3.28,11.85,11.85,0,0,0-1.61-7.35,9.37,9.37,0,0,0-1.72-1.95,5,5,0,0,0-4-1.19,22.81,22.81,0,0,0-6.34,1.77,51.68,51.68,0,0,1-8.43,2.88,25,25,0,0,1-16.21-1.53,26.32,26.32,0,0,1-6.88-4.57c-1.85-1.71-3.7-3.42-5.58-5.1-.83-.74-1.75-1.4-2.64-2.08-2.66-2-5.59-2.19-8.67-1.26a12.67,12.67,0,0,0-4.37,2.43,8.26,8.26,0,0,0-2.92,4.5c-.38,1.59-.61,3.22-.83,4.85-.16,1.14-.18,2.3-.28,3.45,0,.34-.09.68-.18,1.26-1.66-1.34-3.14-2.51-4.59-3.71L74.44,95.52,27.77,56.79l-5.7-4.73a1.08,1.08,0,0,1,0-1.25l4.7-6a1.07,1.07,0,0,1,.73-.4L69.76,62.16l48,20.12L135,89.7q9.25,4,18.53,7.9c5.61,2.36,11.26,4.63,16.69,7.38,1.87.95,3.72,1.94,5.53,3a12.3,12.3,0,0,1,6.13,9.52A45.16,45.16,0,0,1,182.13,124.42Z" fill="#fff"/></svg>