<svg id="Layer_1" data-name="Layer 1" xmlns="http://www.w3.org/2000/svg" viewBox="0 0 2344.57 1465.02"><title>Suzuka_1987_2002</title><path d="M2376.36,107c-.7-12.11-6.31-22.38-16-30-7.31-5.79-14.8-11.36-22.21-17-8.69-6.66-18.64-10.08-29.39-11.55-18.76-2.58-37.37-1-55.59,3.29-64.44,15.14-126.28,37.52-185,68.19q-22.58,11.79-44.62,24.6c-59.38,34.41-118.62,69-173.67,110.29-167.11,125.41-334.25,250.77-504.73,371.61a250.81,250.81,0,0,0-55.4,54.52c-14.13,18.83-23.49,39.72-24.34,63.41-.76,21-.78,42,.32,63,2.44,46.57,5.72,93.1,8.77,139.64,1.76,26.92,3.93,53.82,5.56,80.75,1.39,22.94,3.31,45.93,3.16,68.88-.22,32.85-8.89,64.52-16.63,96.21-.83,3.42-2.68,6.59-4.31,10.47-5.16-2-9.4-3.77-13.75-5.24-6.29-2.13-12.53-4.73-19-5.9-14.44-2.6-25.74,4.4-30.21,18.3a46.19,46.19,0,0,0-2.52,13.69c0,12-.35,24.08,1.16,35.91,2.25,17.65-2,33-12.73,46.81a148.58,148.58,0,0,1-34.09,32.07,517.82,517.82,0,0,1-80.08,44.89c-8.46,3.75-17.39,7-26.44,8.7-18.34,3.34-36.89,5.5-55.38,8q-77.73,10.47-155.48,20.78c-50.19,6.6-100.41,13-150.62,19.51-12.11,1.57-24.21,3.2-37.06,4.9l-31.5,3.68v0l-19.84,2.36-.8.1h0q-5.12.6-10.22,1.18c-62.89,7.1-125.7,15-188.7,21-59.69,5.65-119.56,9.55-179.4,13.54-28.95,1.93-58,1.45-86.78-3-11.25-1.73-22.43-4.23-31.57-11.48-13.72-10.89-25-23.86-32.52-39.94C50,1401.5,62.18,1373,87.49,1354.09a38.63,38.63,0,0,1,22.17-8.13c31.63-1.09,63.26-2.27,94.89-3.34,41-1.38,81.94-2.21,122.86-4.18,34.1-1.64,61.5-14.8,78-47,5.51-10.74,14.4-19.93,22.59-29.07,8.72-9.74,19.57-17,31.33-22.83,12.43-6.17,25.18-8.13,38.71-4.22,12.47,3.61,25,6.89,37.49,10.5,22.07,6.38,44.14,12.65,67,15.78,30.28,4.15,57.19-3.09,79.14-24.48,11.14-10.86,21-23.21,30.34-35.7,10.15-13.57,18.75-28.19,30.85-40.4,7-7,14-13.59,23.4-16.42,13-3.92,26.35-6.9,39.54-10.31,15.84-4.1,30.06.17,42.06,10.17a218.79,218.79,0,0,1,28.1,28.23c11.68,14.09,21.8,29.47,33.2,43.81A319,319,0,0,0,935,1245.6c13.42,13.2,30,19.2,49,19.05a133.59,133.59,0,0,0,48.76-9.52c87.3-34.86,147.83-96.06,178-185.39,20.82-61.65,19.74-124.72,4.6-187.38-9.8-40.52-17.23-81.42-24.26-122.44-1.36-7.92-.53-14.66,4.21-21.59,8.27-12.08,15.38-25,23.21-37.35q31-49,62.14-97.88c2.81-4.4,6.1-8.49,9.56-13.27l66.06,24.39,22.53-16.28c-13.46-5.27-25-10.05-36.76-14.32q-23.45-8.53-47.15-16.36c-9.58-3.16-17.66-.86-23.56,7.85-6.17,9.1-12.93,17.81-18.78,27.1-27.51,43.71-54.65,87.64-82.3,131.26-4.44,7-6.22,13.5-4,21.52,1.49,5.42,1.73,11.18,2.66,16.76,6.08,36.45,12.28,72.85,21.58,108.7,13.13,50.64,16.32,102,5.33,153.42-18.33,85.81-69.34,146.78-145.47,188a166.06,166.06,0,0,1-52.71,18c-20.46,3.31-38.46-.87-52.39-17.26-6.68-7.87-13.4-15.73-19.72-23.88-12.66-16.32-24.78-33.07-37.68-49.2a122.83,122.83,0,0,0-34.4-30.16c-13-7.52-27.09-12.23-42-9.78a480.52,480.52,0,0,0-49.57,11.25c-11.29,3.1-21.78,8.71-29.94,17.39-11.16,11.86-22.76,23.35-31.26,37.52A174.62,174.62,0,0,1,684,1199.47a224.32,224.32,0,0,1-25.08,25.62c-11.24,9.53-24.75,13.82-39.77,13.62-15.82-.21-31.12-3.27-46.26-7.29-23.48-6.23-46.87-12.8-70.26-19.35-18.24-5.11-35.58-2.52-52.42,5.51-23.43,11.17-42,28-57.09,48.88a210.67,210.67,0,0,0-13,20.17c-8.49,15.13-21.49,23.43-38.33,25.7-13.52,1.82-27.12,3.73-40.72,4.14-56.63,1.68-113.29,2.63-169.93,4.26-12.27.35-24.88.86-36.65,3.92-34.12,8.87-67.22,53.44-58.91,94.36,5.1,25.15,18.07,45.41,35.94,63.27,12.7,12.69,27.53,21.18,45.07,24.08a380.89,380.89,0,0,0,46.59,5.27c51.39,2.1,102.58-2.2,153.73-6.36,30.54-2.49,61-5.51,91.53-8.66q60.63-6.26,121.19-13.13c29.44-3.3,91.52-11.05,120.84-14.52l35.08-4.31h0q45.75-6,91.5-12,57.46-7.54,114.91-15.09,63.37-8.45,126.72-17.13c20.43-2.79,40.9-5,60.05-13.87,31.25-14.4,61.26-30.9,89.43-50.63a153.2,153.2,0,0,0,39.88-40.3c11.32-16.91,16.27-35.36,13.66-55.94-1.37-10.85-1.09-21.95-1.06-32.93,0-3.74,1.52-7.49,2.53-12.11,5.58,1.72,10,2.91,14.35,4.46,5.32,1.91,10.43,4.46,15.81,6.16,13.71,4.34,24.28,0,31-12.66a60.45,60.45,0,0,0,4.78-12c2.5-9,4.71-18,6.8-27.11,8.41-36.51,13.7-73.28,10.56-110.94-2.41-28.88-4-57.82-6-86.74-2.15-31.58-4.68-63.15-6.33-94.75-2.12-40.59-3.41-81.22-5.28-121.82-1.29-27.89,8.74-51.44,26.61-72.2a280.78,280.78,0,0,1,48.28-44.78c35.65-25.76,71.84-50.77,107.25-76.85,110.27-81.23,220.66-162.3,330.25-244.44,68.85-51.61,138.75-101.35,213.5-144.24,59.09-33.91,119.42-64.64,184.54-85.32,27.64-8.78,55.29-17.3,84.36-20.05,17.2-1.63,33.23.51,46.72,12.63a116.76,116.76,0,0,0,11.16,8.43c7.67,5.38,11.38,12.6,11.54,22,.27,16,1.33,32,1.36,48,.08,40.73-18.75,70.49-53.61,90.69-9.49,5.5-19.54,8.28-30.58,7.17-35.79-3.61-71.65-6.68-107.38-10.89-32.73-3.85-65.26-9.4-98-13.32-46-5.51-90.31,1.33-132.95,19.39-40.18,17-76.34,40.7-111,66.8-40.63,30.57-78.24,64.36-109.83,104.44-21.8,27.66-39.85,57.45-51.13,91-10,29.75-12.5,59.79-4.22,90.44,8.16,30.2,15.42,60.66,24.08,90.72,10.32,35.8,19.92,71.91,36.23,105.7a24.66,24.66,0,0,1,2.24,8.66c.78,10.13-6.08,14.95-15.32,10.8a28,28,0,0,1-14-13.66c-9.58-19.41-19.36-38.73-29.18-58-5-9.88-11.87-18.37-19.74-26.23-21.72-21.69-47-38.22-74.36-51.66-47.87-23.52-97.91-41.85-147.5-61.26-2.26-.88-5.81-1.46-7.48-.31-6.63,4.54-14,8.34-19.69,15.14,4.43,1.78,8.13,3.24,11.82,4.74,44.11,17.87,88.35,35.43,132.29,53.73,25,10.4,48.54,23.54,69.94,40.29,17,13.31,31.24,28.75,40.28,48.81,7.25,16.08,15.57,31.68,23.49,47.45,6.17,12.3,16.3,20.11,29.07,24.43,20.34,6.88,38.54-3.79,43.23-24.71,2.47-11-.21-21.05-4.6-31-4-9.13-8.3-18.21-11.51-27.63-18.09-53-32.62-107-46.11-161.27-7-28.28-4.32-55.43,5.49-82.39,11.78-32.38,30-61,52.15-87,51.62-60.59,113.32-108.74,183.47-146.05,49-26,101.16-34.07,156-26.4,40.23,5.63,80.45,11.41,120.76,16.44,23.46,2.93,47.08,4.64,70.65,6.64,9.65.82,19.41.91,28.62-2.78,44.93-18,73.14-50.1,80.86-98.43C2380.88,157.69,2377.81,132.28,2376.36,107Z" transform="translate(-34.29 -47.16)" fill="#fff"/><line x1="611.79" y1="1398.47" x2="616.18" y2="1421.8"/></svg>