<?xml version="1.0" encoding="utf-8"?>
<!-- Generator: Adobe Illustrator 14.0.0, SVG Export Plug-In . SVG Version: 6.00 Build 43363)  -->
<!DOCTYPE svg PUBLIC "-//W3C//DTD SVG 1.1//EN" "http://www.w3.org/Graphics/SVG/1.1/DTD/svg11.dtd">
<svg version="1.1" xmlns="http://www.w3.org/2000/svg" xmlns:xlink="http://www.w3.org/1999/xlink" x="0px" y="0px" width="300px"
	 height="238px" viewBox="0 0 300 238" enable-background="new 0 0 300 238" xml:space="preserve">
<g id="Pitlane">
	<path fill="none" stroke="#BCBEC0" stroke-width="2" d="M160.777,133.292c2.125,2.75,7.204,7.433,9.875,9.375
		c2.75,2,5.25,3.125,7.625,4.25c2.077,0.984,3.958-0.256,3.75-2.75c-0.25-3-1.25-7.625-3-11.875
		c-1.22-2.963-41.75-98.625-44-103.875c-1.557-3.633,0.125-9.25,7-11.375"/>
</g>
<g id="_x31_986_Circuit">
	<path fill="none" stroke="#BCBEC0" stroke-width="3" d="M146.027,16.167c8.25,0,31.375,0.125,35.875,0.125s6.873,1.414,7.375,4.625
		c0.625,4-0.25,5.375-4,8c-2.911,2.038-4.203,2.692-6.875,4.5c-4.25,2.875-6.853,8.124-6.75,12.625c0.125,5.5,1.22,21.87,1.5,27.75
		c0.375,7.875,9.282,18.872,20.125,20.375c3.94,0.546,10.36,1.474,17.475,2.404c10.942,1.43,14.249,5.043,15.608,7.763
		c3.667,7.333,7.001,12.667,10.667,19.667c2.015,3.847,0.705,6.372-4,11c-5.553,5.462-11.333,10.667-17.667,16
		c-2.611,2.199-7.333,7.333-5.333,14c1.85,6.166,0.44,9.937-3.117,12.868c-21.259,17.519-42.445,34.951-47.508,39.049
		c-2.961,2.397-7,3.125-10,0.125s-2.163-6.456-0.75-9.375c3.75-7.75,12-23.875,16.625-32.75c2.688-5.157,1.569-14.678-2.375-19.75
		c-4.375-5.625-16.5-21.5-21.75-28c-4.907-6.076-10.375-9.25-20.25-7.75c-6.644,1.009-14.25,8.625-17.125,17.625
		s-7.75,22.875-10.625,31.25c-2.285,6.657-9.876,7.922-14,4.75c-4.875-3.75-9.875-7.625-13.5-10.375s-3.25-7.5-0.625-13.25
		s17.781-35.674,20.75-41.25c5.125-9.625,13.125-10.75,24.125-10c6.652,0.454,13.625,0.875,20,1.5c2.393,0.234,5.84,1.55,8,4.25
		c5,6.25,32.25,41.625,36.75,47.25c2.871,3.589,7.25,3.375,9.875,2.125s5.481-4.627,3.125-10.125c-3-7-47.25-111.625-49.125-116.375
		S139.896,16.167,146.027,16.167z"/>
</g>
<g id="_x31_992_Circuit">
	<path fill="none" stroke="#000000" stroke-width="3" d="M146.027,16.167c8.25,0,31.375,0.125,35.875,0.125s6.873,1.414,7.375,4.625
		c0.625,4-0.25,5.375-4,8c-2.911,2.038-4.203,2.692-6.875,4.5c-4.25,2.875-6.853,8.124-6.75,12.625c0.125,5.5,1.22,21.87,1.5,27.75
		c0.375,7.875,9.282,18.872,20.125,20.375c12.625,1.75,50.758,6.946,55.125,7.625c5.625,0.875,11.677,5.232,14,12
		c2.875,8.375-0.401,18.563-6.625,23.75c-6,5-85.875,70.875-96.375,79.375c-2.961,2.397-7,3.125-10,0.125s-2.163-6.456-0.75-9.375
		c3.75-7.75,12-23.875,16.625-32.75c2.688-5.157,1.569-14.678-2.375-19.75c-4.375-5.625-16.5-21.5-21.75-28
		c-4.907-6.076-10.375-9.25-20.25-7.75c-6.644,1.009-14.25,8.625-17.125,17.625s-7.75,22.875-10.625,31.25
		c-2.285,6.657-9.876,7.922-14,4.75c-4.875-3.75-9.875-7.625-13.5-10.375s-3.25-7.5-0.625-13.25s17.781-35.674,20.75-41.25
		c5.125-9.625,13.125-10.75,24.125-10c6.652,0.454,13.625,0.875,20,1.5c2.393,0.234,5.84,1.55,8,4.25
		c5,6.25,32.25,41.625,36.75,47.25c2.871,3.589,7.25,3.375,9.875,2.125s5.481-4.627,3.125-10.125c-3-7-47.25-111.625-49.125-116.375
		S139.896,16.167,146.027,16.167z"/>
</g>
<g id="Startline">
	<line fill="none" stroke="#FFFFFF" stroke-width="2" x1="162.214" y1="87.063" x2="165.089" y2="85.833"/>
</g>
<g id="Flag_x2C__North">
	<g>
		<g>
			<path fill="#FFFFFF" stroke="#000000" stroke-width="0.1" d="M141.484,65.872c3.173,6.726,6.345,14.092,9.518,23.749
				c-5.628-1.377-11.255,4.456-16.883,8.285c-3.172-6.723-6.345-14.083-9.517-23.729C130.229,75.534,135.856,69.695,141.484,65.872z
				"/>
			<path d="M136.5,87.233c1.058,2.169,2.115,4.314,3.173,6.495c-1.876,1.384-3.751,2.882-5.627,4.152
				c-1.058-2.245-2.115-4.562-3.173-7.012C132.748,89.962,134.624,88.637,136.5,87.233z"/>
			<path d="M147.76,80.611c1.058,2.763,2.115,5.719,3.173,8.928c-1.876-0.44-3.753-0.083-5.629,0.73
				c-1.057-2.502-2.114-4.86-3.17-7.135C144.009,81.917,145.884,80.961,147.76,80.611z"/>
			<path d="M138.948,76.512c1.058,2.167,2.115,4.357,3.173,6.63c-1.876,1.219-3.752,2.701-5.628,4.104
				c-1.058-2.169-2.115-4.364-3.172-6.644C135.197,79.396,137.072,77.919,138.948,76.512z"/>
			<path d="M141.432,65.846c1.058,2.24,2.115,4.55,3.173,6.991c-1.876,0.921-3.751,2.256-5.627,3.662
				c-1.058-2.168-2.115-4.313-3.173-6.497C137.681,68.624,139.556,67.125,141.432,65.846z"/>
			<path d="M130.139,73.455c1.058,2.515,2.115,4.882,3.173,7.163c-1.875,1.205-3.751,2.139-5.626,2.461
				c-1.058-2.78-2.115-5.754-3.173-8.984C126.388,74.572,128.264,74.245,130.139,73.455z"/>
		</g>
	</g>
	<line fill="#FFFFFF" stroke="#000000" stroke-width="0.5" x1="133.174" y1="97.903" x2="162.042" y2="85.776"/>
	<path d="M133.024,96.899c0.179-0.076,0.333-0.054,0.675,0.757c0.34,0.813,0.269,0.982,0.089,1.058
		c-0.18,0.074-0.397,0.028-0.737-0.785C132.709,97.118,132.844,96.975,133.024,96.899z"/>
	<g>
		<line fill="none" stroke="#000000" x1="169.666" y1="83.082" x2="151.244" y2="38.89"/>
		<path d="M151.329,35.029c1.63,2.011,2.877,3.243,4.368,4.783l-7.005,2.859c0.042-0.786,0.018-3.897-0.226-6.475
			c-0.26-2.761-0.662-5.198-1.068-6.717C148.168,30.85,149.585,32.873,151.329,35.029z"/>
	</g>
	<g>
		<g>
			<g>
				<line fill="none" stroke="#000000" stroke-width="0.5" x1="16.829" y1="54.769" x2="16.829" y2="28.485"/>
				<path d="M16.316,27.305c-0.25,0.827-0.479,1.364-0.746,2.027h2.522c-0.113-0.237-0.496-1.2-0.746-2.027
					c-0.268-0.885-0.45-1.687-0.516-2.207C16.766,25.618,16.583,26.42,16.316,27.305z"/>
			</g>
		</g>
	</g>
	<line fill="none" stroke="#000000" stroke-width="0.25" x1="9.124" y1="35.794" x2="24.559" y2="35.794"/>
	<g>
		<path d="M12.635,20.686L12.578,9.949l1.458-0.008l5.685,8.4l-0.045-8.43l1.362-0.007l0.057,10.737l-1.458,0.008l-5.685-8.407
			l0.045,8.438L12.635,20.686z"/>
	</g>
</g>
<g id="_x31_992_Labels">
	<g>
		<path d="M116.938,52.968V45.81h2.212c0.521,0,0.905,0.045,1.152,0.137c0.339,0.124,0.608,0.353,0.811,0.688
			s0.303,0.747,0.303,1.235c0,0.645-0.164,1.17-0.493,1.577s-0.896,0.61-1.704,0.61h-1.504v2.91H116.938z M117.714,49.213h1.519
			c0.479,0,0.828-0.108,1.05-0.325s0.332-0.543,0.332-0.979c0-0.283-0.055-0.526-0.163-0.728c-0.109-0.202-0.241-0.34-0.396-0.415
			c-0.154-0.075-0.434-0.112-0.837-0.112h-1.504V49.213z"/>
		<path d="M122.309,46.821V45.81h0.718v1.011H122.309z M122.309,52.968v-5.186h0.718v5.186H122.309z"/>
		<path d="M125.731,52.182l0.098,0.776c-0.198,0.052-0.378,0.078-0.537,0.078c-0.251,0-0.452-0.05-0.605-0.149
			s-0.258-0.235-0.315-0.408c-0.057-0.172-0.085-0.516-0.085-1.03v-2.983h-0.527v-0.684h0.527v-1.284l0.718-0.527v1.812h0.728v0.684
			h-0.728v3.032c0,0.28,0.021,0.46,0.063,0.542c0.062,0.117,0.178,0.176,0.347,0.176C125.495,52.216,125.602,52.205,125.731,52.182z
			"/>
		<path d="M126.386,52.968V45.81h0.718v7.158H126.386z"/>
		<path d="M131,52.329c-0.241,0.25-0.491,0.439-0.752,0.566s-0.53,0.19-0.811,0.19c-0.442,0-0.796-0.133-1.06-0.4
			s-0.396-0.626-0.396-1.079c0-0.299,0.062-0.565,0.186-0.796s0.293-0.412,0.508-0.542s0.54-0.226,0.977-0.288
			c0.586-0.086,1.016-0.188,1.289-0.308l0.005-0.225c0-0.355-0.063-0.604-0.19-0.747c-0.179-0.208-0.454-0.313-0.825-0.313
			c-0.335,0-0.586,0.069-0.752,0.208s-0.288,0.4-0.366,0.783l-0.708-0.117c0.101-0.557,0.306-0.962,0.612-1.216
			c0.309-0.254,0.748-0.381,1.321-0.381c0.446,0,0.796,0.084,1.05,0.251s0.414,0.375,0.48,0.623
			c0.067,0.248,0.101,0.609,0.101,1.084v1.172c0,0.82,0.016,1.337,0.046,1.55c0.031,0.213,0.093,0.421,0.184,0.623h-0.752
			C131.071,52.789,131.022,52.576,131,52.329z M130.941,50.366c-0.264,0.13-0.656,0.241-1.177,0.332
			c-0.303,0.052-0.515,0.111-0.635,0.178s-0.214,0.161-0.28,0.283c-0.067,0.122-0.101,0.263-0.101,0.422
			c0,0.248,0.076,0.445,0.229,0.593s0.364,0.222,0.635,0.222c0.257,0,0.49-0.067,0.701-0.2c0.209-0.133,0.366-0.312,0.471-0.535
			s0.156-0.548,0.156-0.974V50.366z"/>
		<path d="M132.792,52.968v-5.186h0.649v0.732c0.156-0.285,0.347-0.498,0.572-0.638c0.227-0.141,0.485-0.211,0.778-0.211
			c0.227,0,0.438,0.045,0.631,0.134s0.35,0.207,0.468,0.352c0.119,0.145,0.207,0.333,0.266,0.564s0.088,0.586,0.088,1.064v3.188
			h-0.718v-3.158c0-0.381-0.032-0.66-0.098-0.836c-0.065-0.176-0.167-0.312-0.306-0.408c-0.138-0.096-0.298-0.144-0.48-0.144
			c-0.345,0-0.62,0.129-0.825,0.386s-0.308,0.699-0.308,1.325v2.835H132.792z"/>
		<path d="M140.258,51.298L141,51.411c-0.124,0.553-0.348,0.971-0.672,1.252c-0.323,0.282-0.725,0.422-1.203,0.422
			c-0.603,0-1.09-0.229-1.463-0.686c-0.372-0.458-0.559-1.117-0.559-1.98c0-0.895,0.188-1.578,0.564-2.048
			c0.375-0.47,0.852-0.706,1.428-0.706c0.55,0,1.009,0.231,1.377,0.693s0.552,1.131,0.552,2.007L141.02,50.6h-3.174
			c0.029,0.583,0.164,1.022,0.405,1.318s0.534,0.444,0.879,0.444C139.67,52.363,140.046,52.008,140.258,51.298z M137.89,49.877
			h2.373c-0.032-0.449-0.129-0.785-0.288-1.006c-0.231-0.322-0.525-0.483-0.884-0.483c-0.322,0-0.598,0.134-0.825,0.403
			S137.912,49.422,137.89,49.877z"/>
	</g>
	<g>
		<path d="M144.835,98.96l0.732-0.078c0.039,0.394,0.128,0.701,0.267,0.92c0.138,0.22,0.336,0.396,0.593,0.53s0.547,0.2,0.869,0.2
			c0.462,0,0.821-0.113,1.077-0.338c0.255-0.226,0.383-0.519,0.383-0.88c0-0.211-0.047-0.396-0.139-0.553
			c-0.094-0.158-0.233-0.287-0.42-0.388c-0.188-0.101-0.592-0.243-1.214-0.427c-0.554-0.165-0.947-0.33-1.182-0.496
			s-0.417-0.377-0.547-0.632s-0.195-0.544-0.195-0.867c0-0.58,0.188-1.053,0.562-1.421s0.879-0.552,1.514-0.552
			c0.437,0,0.818,0.086,1.145,0.259c0.328,0.172,0.582,0.42,0.762,0.742c0.182,0.322,0.278,0.702,0.291,1.138l-0.747,0.068
			c-0.039-0.465-0.179-0.811-0.417-1.035c-0.24-0.225-0.576-0.337-1.009-0.337c-0.439,0-0.774,0.099-1.006,0.295
			s-0.347,0.452-0.347,0.764c0,0.29,0.085,0.514,0.254,0.674c0.169,0.159,0.55,0.321,1.143,0.484c0.579,0.16,0.985,0.299,1.22,0.417
			c0.358,0.183,0.628,0.423,0.811,0.721c0.183,0.298,0.274,0.653,0.274,1.066c0,0.41-0.096,0.783-0.288,1.119
			c-0.192,0.337-0.453,0.593-0.784,0.769c-0.33,0.175-0.728,0.263-1.193,0.263c-0.726,0-1.305-0.218-1.736-0.654
			C145.075,100.297,144.852,99.706,144.835,98.96z"/>
		<path d="M152.066,100.479l0.098,0.776c-0.198,0.052-0.378,0.078-0.537,0.078c-0.251,0-0.452-0.05-0.605-0.149
			s-0.258-0.235-0.314-0.408c-0.058-0.172-0.086-0.516-0.086-1.03v-2.983h-0.527V96.08h0.527v-1.284l0.718-0.527v1.812h0.728v0.684
			h-0.728v3.032c0,0.28,0.021,0.46,0.063,0.542c0.062,0.117,0.178,0.176,0.347,0.176
			C151.83,100.513,151.937,100.502,152.066,100.479z"/>
		<path d="M155.514,100.625c-0.241,0.25-0.491,0.439-0.752,0.566s-0.53,0.19-0.811,0.19c-0.442,0-0.796-0.133-1.06-0.4
			s-0.396-0.626-0.396-1.079c0-0.299,0.062-0.565,0.186-0.796s0.293-0.412,0.508-0.542s0.54-0.226,0.977-0.288
			c0.586-0.086,1.016-0.188,1.289-0.308l0.005-0.225c0-0.355-0.063-0.604-0.19-0.747c-0.179-0.208-0.454-0.313-0.825-0.313
			c-0.335,0-0.586,0.069-0.752,0.208s-0.288,0.4-0.366,0.783l-0.708-0.117c0.101-0.557,0.306-0.962,0.612-1.216
			c0.309-0.254,0.748-0.381,1.321-0.381c0.446,0,0.796,0.084,1.05,0.251s0.414,0.375,0.48,0.623
			c0.067,0.248,0.101,0.609,0.101,1.084v1.172c0,0.82,0.016,1.337,0.046,1.55c0.031,0.213,0.093,0.421,0.184,0.623h-0.752
			C155.585,101.086,155.536,100.873,155.514,100.625z M155.455,98.663c-0.264,0.13-0.656,0.241-1.177,0.332
			c-0.303,0.052-0.515,0.111-0.635,0.178s-0.214,0.161-0.28,0.283c-0.067,0.122-0.101,0.263-0.101,0.422
			c0,0.248,0.076,0.445,0.229,0.593s0.364,0.222,0.635,0.222c0.257,0,0.49-0.067,0.701-0.2c0.209-0.133,0.366-0.312,0.471-0.535
			s0.156-0.548,0.156-0.974V98.663z"/>
		<path d="M157.306,101.265V96.08h0.649v0.786c0.166-0.365,0.318-0.606,0.457-0.725c0.138-0.119,0.293-0.178,0.466-0.178
			c0.241,0,0.486,0.094,0.737,0.283l-0.244,0.815c-0.179-0.127-0.354-0.19-0.522-0.19c-0.153,0-0.293,0.054-0.42,0.161
			s-0.217,0.257-0.269,0.449c-0.091,0.335-0.137,0.692-0.137,1.069v2.715H157.306z"/>
		<path d="M161.637,100.479l0.098,0.776c-0.198,0.052-0.378,0.078-0.537,0.078c-0.251,0-0.452-0.05-0.605-0.149
			s-0.258-0.235-0.314-0.408c-0.058-0.172-0.086-0.516-0.086-1.03v-2.983h-0.527V96.08h0.527v-1.284l0.718-0.527v1.812h0.728v0.684
			h-0.728v3.032c0,0.28,0.021,0.46,0.063,0.542c0.062,0.117,0.178,0.176,0.347,0.176C161.4,100.513,161.507,100.502,161.637,100.479
			z"/>
		<path d="M161.779,101.382l1.701-7.397h0.586l-1.705,7.397H161.779z"/>
		<path d="M145.424,110.265v-4.502h-0.64v-0.684h0.64v-0.552c0-0.407,0.042-0.712,0.127-0.916s0.215-0.359,0.39-0.466
			s0.394-0.161,0.658-0.161c0.206,0,0.431,0.031,0.676,0.093l-0.107,0.762c-0.149-0.033-0.291-0.049-0.425-0.049
			c-0.215,0-0.369,0.056-0.461,0.168c-0.094,0.112-0.14,0.326-0.14,0.642v0.479h0.83v0.684h-0.83v4.502H145.424z"/>
		<path d="M147.504,104.118v-1.011h0.718v1.011H147.504z M147.504,110.265v-5.186h0.718v5.186H147.504z"/>
		<path d="M149.325,110.265v-5.186h0.649v0.732c0.156-0.285,0.347-0.498,0.572-0.638c0.227-0.141,0.485-0.211,0.778-0.211
			c0.227,0,0.438,0.045,0.631,0.134s0.35,0.207,0.468,0.352c0.119,0.145,0.207,0.333,0.266,0.564s0.088,0.586,0.088,1.064v3.188
			h-0.718v-3.158c0-0.381-0.032-0.66-0.098-0.836c-0.065-0.176-0.167-0.312-0.306-0.408c-0.138-0.096-0.298-0.144-0.48-0.144
			c-0.345,0-0.62,0.129-0.825,0.386s-0.308,0.699-0.308,1.325v2.835H149.325z"/>
		<path d="M153.886,104.118v-1.011h0.718v1.011H153.886z M153.886,110.265v-5.186h0.718v5.186H153.886z"/>
		<path d="M155.429,108.712l0.718-0.137c0.042,0.366,0.157,0.639,0.346,0.816c0.188,0.179,0.438,0.268,0.75,0.268
			c0.313,0,0.554-0.077,0.724-0.232c0.171-0.155,0.256-0.351,0.256-0.588c0-0.205-0.073-0.365-0.22-0.479
			c-0.101-0.078-0.345-0.176-0.732-0.293c-0.56-0.172-0.935-0.319-1.123-0.439s-0.335-0.282-0.439-0.483s-0.156-0.431-0.156-0.688
			c0-0.443,0.142-0.802,0.425-1.079s0.676-0.415,1.177-0.415c0.315,0,0.594,0.057,0.832,0.171c0.24,0.114,0.423,0.267,0.55,0.459
			s0.215,0.467,0.264,0.825l-0.703,0.117c-0.065-0.566-0.373-0.85-0.923-0.85c-0.313,0-0.545,0.063-0.698,0.187
			c-0.153,0.125-0.229,0.285-0.229,0.479c0,0.191,0.073,0.342,0.22,0.453c0.089,0.064,0.35,0.168,0.783,0.311
			c0.597,0.189,0.982,0.34,1.157,0.453s0.312,0.266,0.409,0.46c0.097,0.194,0.146,0.425,0.146,0.692
			c0,0.496-0.157,0.897-0.471,1.203c-0.314,0.307-0.743,0.46-1.287,0.46C156.183,110.382,155.592,109.826,155.429,108.712z"/>
		<path d="M159.809,110.265v-7.158h0.718v2.568c0.169-0.238,0.36-0.416,0.573-0.535c0.214-0.119,0.449-0.178,0.706-0.178
			c0.452,0,0.809,0.144,1.071,0.432c0.264,0.288,0.395,0.816,0.395,1.584v3.286h-0.719v-3.286c0-0.449-0.08-0.771-0.238-0.967
			c-0.16-0.195-0.379-0.293-0.66-0.293c-0.313,0-0.578,0.125-0.799,0.376c-0.219,0.25-0.329,0.695-0.329,1.333v2.837H159.809z"/>
	</g>
	<g>
		<path d="M107.694,16.238V9.08h4.243v0.845h-3.467v2.188h3.247v0.845h-3.247v2.437h3.604v0.845H107.694z"/>
		<path d="M112.577,16.238l1.552-2.693l-1.43-2.493h0.9l0.646,1.213c0.121,0.225,0.221,0.418,0.299,0.583
			c0.122-0.218,0.231-0.406,0.327-0.564l0.715-1.231h0.857l-1.468,2.435l1.58,2.75h-0.884l-0.875-1.614l-0.227-0.435l-1.12,2.048
			H112.577z"/>
		<path d="M117.147,18.225v-7.173h0.664v0.674c0.162-0.28,0.343-0.482,0.541-0.605s0.426-0.186,0.683-0.186
			c0.335,0,0.637,0.099,0.906,0.298c0.271,0.199,0.487,0.5,0.651,0.906s0.246,0.893,0.246,1.462c0,0.882-0.185,1.562-0.554,2.039
			c-0.37,0.477-0.804,0.715-1.302,0.715c-0.222,0-0.428-0.057-0.62-0.171s-0.358-0.275-0.498-0.483v2.524H117.147z M117.803,13.674
			c0,0.67,0.112,1.165,0.336,1.482s0.495,0.476,0.813,0.476c0.305,0,0.573-0.165,0.804-0.493s0.346-0.836,0.346-1.523
			c0-0.677-0.112-1.178-0.336-1.504c-0.225-0.326-0.497-0.488-0.818-0.488c-0.289,0-0.552,0.175-0.789,0.525
			S117.803,13.007,117.803,13.674z"/>
		<path d="M121.435,13.645c0-0.895,0.188-1.571,0.563-2.026c0.377-0.456,0.853-0.684,1.429-0.684c0.566,0,1.04,0.228,1.421,0.684
			s0.571,1.113,0.571,1.973c0,0.931-0.188,1.625-0.562,2.08s-0.852,0.684-1.431,0.684c-0.569,0-1.044-0.229-1.423-0.686
			C121.624,15.211,121.435,14.537,121.435,13.645z M122.172,13.643c0,0.671,0.122,1.171,0.366,1.499s0.547,0.491,0.908,0.491
			c0.339,0,0.629-0.166,0.872-0.496c0.242-0.331,0.363-0.829,0.363-1.494c0-0.668-0.122-1.166-0.366-1.494s-0.547-0.491-0.908-0.491
			c-0.342,0-0.633,0.165-0.874,0.494S122.172,12.978,122.172,13.643z"/>
		<path d="M125.995,14.089v-0.884h2.212v0.884H125.995z"/>
		<path d="M128.9,14.583l0.693-0.078c0.11,0.755,0.437,1.133,0.977,1.133c0.241,0,0.46-0.082,0.656-0.247
			c0.197-0.165,0.364-0.457,0.501-0.876s0.205-0.91,0.205-1.47v-0.176c-0.149,0.29-0.352,0.519-0.605,0.688
			s-0.513,0.254-0.776,0.254c-0.479,0-0.891-0.209-1.238-0.627c-0.346-0.418-0.52-0.99-0.52-1.716c0-0.749,0.18-1.339,0.539-1.77
			c0.36-0.431,0.797-0.647,1.312-0.647c0.364,0,0.705,0.121,1.021,0.361s0.56,0.596,0.732,1.064s0.259,1.144,0.259,2.026
			c0,0.983-0.093,1.747-0.278,2.29s-0.438,0.941-0.754,1.191c-0.318,0.25-0.674,0.376-1.067,0.376c-0.446,0-0.818-0.152-1.118-0.457
			S128.959,15.159,128.9,14.583z M131.854,11.421c0-0.512-0.114-0.915-0.343-1.208s-0.491-0.44-0.787-0.44
			c-0.311,0-0.587,0.156-0.83,0.469s-0.364,0.73-0.364,1.252c0,0.47,0.116,0.844,0.348,1.123s0.509,0.418,0.831,0.418
			c0.32,0,0.591-0.14,0.813-0.42S131.854,11.936,131.854,11.421z"/>
		<path d="M137.152,15.393v0.845h-3.882c-0.01-0.342,0.094-0.725,0.31-1.148c0.217-0.424,0.613-0.923,1.189-1.5
			c0.674-0.671,1.115-1.19,1.323-1.557s0.313-0.708,0.313-1.024c0-0.365-0.106-0.662-0.319-0.892
			c-0.214-0.23-0.477-0.345-0.789-0.345c-0.335,0-0.61,0.124-0.825,0.373c-0.215,0.248-0.322,0.604-0.322,1.068l-0.742-0.093
			c0.052-0.687,0.247-1.204,0.583-1.55c0.338-0.347,0.781-0.52,1.331-0.52c0.599,0,1.052,0.202,1.36,0.605
			c0.307,0.404,0.461,0.862,0.461,1.376c0,0.456-0.12,0.892-0.361,1.31c-0.241,0.418-0.698,0.976-1.372,1.673
			c-0.43,0.439-0.707,0.739-0.833,0.899c-0.125,0.16-0.227,0.319-0.305,0.479H137.152z"/>
	</g>
	<g>
		<path d="M193.644,24.384v-7.158h1.167l1.394,5.068l0.278,1.06c0.069-0.264,0.173-0.646,0.313-1.147l1.408-4.98h1.045v7.158h-0.747
			v-5.987l-1.712,5.987h-0.697l-1.702-6.09v6.09H193.644z"/>
		<path d="M200.397,18.237v-1.011h0.718v1.011H200.397z M200.397,24.384v-5.186h0.718v5.186H200.397z"/>
		<path d="M205.001,22.485l0.708,0.112c-0.081,0.619-0.285,1.09-0.613,1.416c-0.326,0.326-0.72,0.488-1.179,0.488
			c-0.557,0-1.015-0.229-1.374-0.686c-0.36-0.458-0.54-1.134-0.54-2.029c0-0.902,0.182-1.578,0.544-2.029
			c0.363-0.451,0.83-0.676,1.399-0.676c0.439,0,0.81,0.137,1.11,0.41c0.302,0.273,0.494,0.684,0.579,1.23l-0.698,0.127
			c-0.068-0.35-0.188-0.611-0.356-0.785c-0.169-0.173-0.373-0.26-0.61-0.26c-0.354,0-0.648,0.157-0.881,0.471
			c-0.233,0.314-0.35,0.813-0.35,1.497c0,0.707,0.111,1.217,0.334,1.533c0.224,0.316,0.509,0.474,0.857,0.474
			c0.273,0,0.507-0.105,0.701-0.315C204.827,23.254,204.95,22.928,205.001,22.485z"/>
		<path d="M206.32,24.384v-7.158h0.718v2.568c0.169-0.238,0.36-0.416,0.574-0.535c0.213-0.119,0.448-0.178,0.705-0.178
			c0.452,0,0.81,0.144,1.072,0.432c0.262,0.288,0.393,0.816,0.393,1.584v3.286h-0.718v-3.286c0-0.449-0.08-0.771-0.239-0.967
			s-0.379-0.293-0.659-0.293c-0.313,0-0.579,0.125-0.798,0.376c-0.221,0.25-0.33,0.695-0.33,1.333v2.837H206.32z"/>
		<path d="M213.786,22.714l0.742,0.112c-0.124,0.553-0.348,0.971-0.672,1.252c-0.323,0.282-0.725,0.422-1.203,0.422
			c-0.603,0-1.09-0.229-1.463-0.686c-0.372-0.458-0.559-1.117-0.559-1.98c0-0.895,0.188-1.578,0.564-2.048
			c0.375-0.47,0.852-0.706,1.428-0.706c0.55,0,1.009,0.231,1.377,0.693s0.552,1.131,0.552,2.007l-0.005,0.234h-3.174
			c0.029,0.583,0.164,1.022,0.405,1.318s0.534,0.444,0.879,0.444C213.198,23.779,213.574,23.424,213.786,22.714z M211.417,21.293
			h2.373c-0.032-0.449-0.129-0.785-0.288-1.006c-0.231-0.322-0.525-0.483-0.884-0.483c-0.322,0-0.598,0.134-0.825,0.403
			S211.44,20.838,211.417,21.293z"/>
		<path d="M215.417,24.384v-7.158h0.718v7.158H215.417z"/>
		<path d="M217.262,18.237v-1.011h0.718v1.011H217.262z M217.262,24.384v-5.186h0.718v5.186H217.262z"/>
		<path d="M219.083,24.384v-5.186h0.649v0.732c0.156-0.285,0.347-0.498,0.572-0.638c0.227-0.141,0.485-0.211,0.778-0.211
			c0.227,0,0.438,0.045,0.631,0.134s0.35,0.207,0.468,0.352c0.119,0.145,0.207,0.333,0.266,0.564s0.088,0.586,0.088,1.064v3.188
			h-0.718v-3.158c0-0.381-0.032-0.66-0.098-0.836c-0.065-0.176-0.167-0.312-0.306-0.408c-0.138-0.096-0.298-0.144-0.48-0.144
			c-0.345,0-0.62,0.129-0.825,0.386s-0.308,0.699-0.308,1.325v2.835H219.083z"/>
	</g>
	<g>
		<path d="M269.833,111.433l0.732-0.078c0.039,0.394,0.128,0.701,0.267,0.92c0.138,0.22,0.336,0.396,0.593,0.53s0.547,0.2,0.869,0.2
			c0.462,0,0.821-0.113,1.077-0.338c0.255-0.226,0.383-0.519,0.383-0.88c0-0.211-0.047-0.396-0.139-0.553
			c-0.094-0.158-0.233-0.287-0.42-0.388c-0.188-0.101-0.592-0.243-1.214-0.427c-0.554-0.165-0.947-0.33-1.182-0.496
			s-0.417-0.377-0.547-0.632s-0.195-0.544-0.195-0.867c0-0.58,0.188-1.053,0.562-1.421s0.879-0.552,1.514-0.552
			c0.437,0,0.818,0.086,1.145,0.259c0.328,0.172,0.582,0.42,0.762,0.742c0.182,0.322,0.278,0.702,0.291,1.138l-0.747,0.068
			c-0.039-0.465-0.179-0.811-0.417-1.035c-0.24-0.225-0.576-0.337-1.009-0.337c-0.439,0-0.774,0.099-1.006,0.295
			s-0.347,0.452-0.347,0.764c0,0.29,0.085,0.514,0.254,0.674c0.169,0.159,0.55,0.321,1.143,0.484c0.579,0.16,0.985,0.299,1.22,0.417
			c0.358,0.183,0.628,0.423,0.811,0.721c0.183,0.298,0.274,0.653,0.274,1.066c0,0.41-0.096,0.783-0.288,1.119
			c-0.192,0.337-0.453,0.593-0.784,0.769c-0.33,0.175-0.728,0.263-1.193,0.263c-0.726,0-1.305-0.218-1.736-0.654
			C270.073,112.77,269.849,112.179,269.833,111.433z"/>
		<path d="M275.462,107.59v-1.011h0.718v1.011H275.462z M275.462,113.738v-5.186h0.718v5.186H275.462z"/>
		<path d="M278.885,112.952l0.098,0.776c-0.198,0.052-0.378,0.078-0.537,0.078c-0.251,0-0.452-0.05-0.605-0.149
			s-0.258-0.235-0.315-0.408c-0.057-0.172-0.085-0.516-0.085-1.03v-2.983h-0.527v-0.684h0.527v-1.284l0.718-0.527v1.812h0.728v0.684
			h-0.728v3.032c0,0.28,0.021,0.46,0.063,0.542c0.062,0.117,0.178,0.176,0.347,0.176
			C278.649,112.986,278.755,112.975,278.885,112.952z"/>
		<path d="M279.291,111.145c0-0.895,0.188-1.571,0.564-2.026c0.375-0.456,0.852-0.684,1.428-0.684c0.566,0,1.04,0.228,1.421,0.684
			s0.571,1.113,0.571,1.973c0,0.931-0.188,1.625-0.562,2.08s-0.852,0.684-1.431,0.684c-0.569,0-1.044-0.229-1.424-0.686
			C279.48,112.711,279.291,112.037,279.291,111.145z M280.028,111.143c0,0.671,0.122,1.171,0.366,1.499s0.547,0.491,0.908,0.491
			c0.339,0,0.629-0.166,0.871-0.496c0.243-0.331,0.364-0.829,0.364-1.494c0-0.668-0.122-1.166-0.366-1.494s-0.547-0.491-0.908-0.491
			c-0.342,0-0.633,0.165-0.874,0.494S280.028,110.478,280.028,111.143z"/>
		<path d="M267.811,122.738v-7.158h2.212c0.521,0,0.905,0.045,1.152,0.137c0.339,0.124,0.608,0.353,0.811,0.688
			s0.303,0.747,0.303,1.235c0,0.645-0.164,1.17-0.493,1.577s-0.896,0.61-1.704,0.61h-1.504v2.91H267.811z M268.587,118.983h1.519
			c0.479,0,0.828-0.108,1.05-0.325s0.332-0.543,0.332-0.979c0-0.283-0.055-0.526-0.164-0.728c-0.108-0.202-0.24-0.34-0.395-0.415
			c-0.155-0.075-0.435-0.112-0.838-0.112h-1.504V118.983z"/>
		<path d="M272.909,120.145c0-0.895,0.188-1.571,0.563-2.026c0.377-0.456,0.853-0.684,1.429-0.684c0.566,0,1.04,0.228,1.421,0.684
			s0.571,1.113,0.571,1.973c0,0.931-0.188,1.625-0.562,2.08s-0.852,0.684-1.431,0.684c-0.569,0-1.044-0.229-1.423-0.686
			C273.098,121.711,272.909,121.037,272.909,120.145z M273.646,120.143c0,0.671,0.122,1.171,0.366,1.499s0.547,0.491,0.908,0.491
			c0.339,0,0.629-0.166,0.872-0.496c0.242-0.331,0.363-0.829,0.363-1.494c0-0.668-0.122-1.166-0.366-1.494s-0.547-0.491-0.908-0.491
			c-0.342,0-0.633,0.165-0.874,0.494S273.646,119.478,273.646,120.143z"/>
		<path d="M277.743,122.738v-5.186h0.649v0.732c0.156-0.285,0.347-0.498,0.572-0.638c0.227-0.141,0.485-0.211,0.778-0.211
			c0.227,0,0.438,0.045,0.631,0.134s0.35,0.207,0.468,0.352c0.119,0.145,0.207,0.333,0.266,0.564s0.088,0.586,0.088,1.064v3.188
			h-0.718v-3.158c0-0.381-0.032-0.66-0.098-0.836c-0.065-0.176-0.167-0.312-0.306-0.408c-0.138-0.096-0.298-0.144-0.48-0.144
			c-0.345,0-0.62,0.129-0.825,0.386s-0.308,0.699-0.308,1.325v2.835H277.743z"/>
		<path d="M282.025,121.185l0.718-0.137c0.042,0.366,0.157,0.639,0.346,0.816c0.188,0.179,0.438,0.268,0.75,0.268
			c0.313,0,0.554-0.077,0.724-0.232c0.171-0.155,0.256-0.351,0.256-0.588c0-0.205-0.073-0.365-0.22-0.479
			c-0.101-0.078-0.345-0.176-0.732-0.293c-0.56-0.172-0.935-0.319-1.123-0.439s-0.335-0.282-0.439-0.483s-0.156-0.431-0.156-0.688
			c0-0.443,0.142-0.802,0.425-1.079s0.676-0.415,1.177-0.415c0.315,0,0.593,0.057,0.833,0.171c0.238,0.114,0.422,0.267,0.549,0.459
			s0.215,0.467,0.264,0.825l-0.703,0.117c-0.065-0.566-0.373-0.85-0.923-0.85c-0.313,0-0.545,0.063-0.698,0.187
			c-0.153,0.125-0.229,0.285-0.229,0.479c0,0.191,0.073,0.342,0.22,0.453c0.089,0.064,0.35,0.168,0.783,0.311
			c0.597,0.189,0.982,0.34,1.157,0.453s0.312,0.266,0.409,0.46c0.097,0.194,0.146,0.425,0.146,0.692
			c0,0.496-0.157,0.897-0.472,1.203c-0.313,0.307-0.742,0.46-1.286,0.46C282.779,122.855,282.188,122.298,282.025,121.185z"/>
	</g>
	<g>
		<path d="M117.139,227.788v-7.158h2.026c0.501,0,0.882,0.044,1.143,0.132c0.342,0.114,0.638,0.322,0.889,0.625
			s0.446,0.685,0.586,1.146c0.14,0.46,0.21,1.006,0.21,1.638c0,0.811-0.119,1.498-0.356,2.063c-0.237,0.564-0.543,0.965-0.915,1.201
			c-0.373,0.235-0.86,0.354-1.463,0.354H117.139z M117.916,226.943h1.25c0.505,0,0.887-0.082,1.147-0.247
			c0.261-0.164,0.461-0.428,0.601-0.793c0.186-0.484,0.278-1.066,0.278-1.743c0-0.726-0.099-1.296-0.295-1.712
			c-0.197-0.414-0.45-0.691-0.76-0.832c-0.208-0.094-0.539-0.142-0.991-0.142h-1.23V226.943z"/>
		<path d="M122.974,227.788v-5.186h0.649v0.786c0.166-0.364,0.318-0.606,0.457-0.726c0.138-0.118,0.293-0.178,0.466-0.178
			c0.241,0,0.486,0.094,0.737,0.283l-0.244,0.815c-0.179-0.127-0.354-0.19-0.522-0.19c-0.153,0-0.293,0.054-0.42,0.161
			s-0.217,0.257-0.269,0.449c-0.091,0.335-0.137,0.692-0.137,1.069v2.715H122.974z"/>
		<path d="M125.679,229.785l-0.078-0.825c0.159,0.053,0.297,0.078,0.41,0.078c0.153,0,0.279-0.031,0.379-0.093
			s0.182-0.158,0.247-0.288c0.022-0.046,0.117-0.333,0.283-0.861l-1.617-5.193h0.776l0.889,3.002
			c0.11,0.373,0.213,0.773,0.308,1.199c0.081-0.402,0.179-0.797,0.293-1.18l0.908-3.021h0.723l-1.613,5.273
			c-0.212,0.684-0.379,1.141-0.501,1.369c-0.122,0.23-0.261,0.395-0.416,0.496c-0.154,0.102-0.33,0.151-0.525,0.151
			C126.006,229.892,125.852,229.856,125.679,229.785z"/>
		<path d="M131.924,225.483l0.732-0.078c0.039,0.395,0.128,0.701,0.266,0.92c0.139,0.221,0.337,0.396,0.594,0.53
			s0.547,0.2,0.869,0.2c0.462,0,0.821-0.113,1.076-0.338c0.256-0.227,0.384-0.52,0.384-0.881c0-0.211-0.046-0.395-0.14-0.553
			c-0.092-0.157-0.232-0.286-0.42-0.387c-0.187-0.102-0.591-0.243-1.213-0.428c-0.554-0.164-0.947-0.329-1.182-0.495
			s-0.417-0.377-0.547-0.632c-0.13-0.256-0.195-0.545-0.195-0.867c0-0.58,0.188-1.053,0.562-1.421s0.879-0.552,1.514-0.552
			c0.437,0,0.817,0.086,1.146,0.259c0.326,0.173,0.58,0.42,0.762,0.742c0.18,0.322,0.277,0.702,0.29,1.138l-0.747,0.068
			c-0.039-0.465-0.178-0.811-0.418-1.035c-0.238-0.225-0.575-0.337-1.008-0.337c-0.439,0-0.774,0.099-1.006,0.296
			c-0.231,0.196-0.347,0.451-0.347,0.764c0,0.289,0.085,0.514,0.254,0.674c0.169,0.159,0.55,0.32,1.143,0.484
			c0.579,0.16,0.985,0.299,1.22,0.417c0.358,0.183,0.628,0.423,0.811,0.721s0.274,0.653,0.274,1.065c0,0.41-0.096,0.783-0.288,1.119
			c-0.192,0.338-0.453,0.594-0.783,0.77c-0.331,0.175-0.729,0.263-1.194,0.263c-0.726,0-1.305-0.218-1.735-0.654
			C132.165,226.819,131.941,226.229,131.924,225.483z"/>
		<path d="M140.323,227.148c-0.241,0.251-0.491,0.439-0.752,0.566s-0.53,0.19-0.811,0.19c-0.442,0-0.796-0.133-1.06-0.4
			s-0.396-0.627-0.396-1.079c0-0.3,0.062-0.565,0.186-0.796s0.293-0.412,0.508-0.542s0.54-0.226,0.977-0.288
			c0.586-0.086,1.016-0.188,1.289-0.308l0.005-0.225c0-0.354-0.063-0.604-0.19-0.747c-0.179-0.209-0.454-0.313-0.825-0.313
			c-0.335,0-0.586,0.069-0.752,0.209c-0.166,0.139-0.288,0.399-0.366,0.782l-0.708-0.117c0.101-0.557,0.306-0.962,0.612-1.216
			c0.309-0.254,0.748-0.381,1.321-0.381c0.446,0,0.796,0.084,1.05,0.252c0.254,0.167,0.414,0.375,0.48,0.622
			c0.067,0.247,0.101,0.608,0.101,1.084v1.172c0,0.82,0.016,1.337,0.046,1.55c0.031,0.214,0.093,0.422,0.184,0.623h-0.752
			C140.394,227.608,140.345,227.395,140.323,227.148z M140.264,225.185c-0.264,0.13-0.656,0.241-1.177,0.332
			c-0.303,0.052-0.515,0.111-0.635,0.179c-0.12,0.066-0.214,0.16-0.28,0.283c-0.067,0.121-0.101,0.262-0.101,0.422
			c0,0.248,0.076,0.445,0.229,0.594c0.153,0.147,0.364,0.222,0.635,0.222c0.257,0,0.49-0.067,0.701-0.2
			c0.209-0.133,0.366-0.312,0.471-0.535c0.104-0.223,0.156-0.547,0.156-0.974V225.185z"/>
		<path d="M144.898,225.888l0.708,0.112c-0.081,0.619-0.285,1.09-0.613,1.416c-0.326,0.326-0.72,0.488-1.179,0.488
			c-0.557,0-1.015-0.229-1.374-0.686c-0.36-0.458-0.54-1.135-0.54-2.029c0-0.902,0.182-1.578,0.544-2.029
			c0.363-0.45,0.83-0.676,1.399-0.676c0.439,0,0.81,0.137,1.11,0.41c0.302,0.273,0.494,0.684,0.579,1.23l-0.698,0.127
			c-0.068-0.35-0.188-0.611-0.356-0.785c-0.169-0.173-0.373-0.26-0.61-0.26c-0.354,0-0.648,0.157-0.881,0.471
			c-0.233,0.314-0.35,0.813-0.35,1.497c0,0.706,0.111,1.218,0.334,1.533c0.224,0.315,0.509,0.474,0.857,0.474
			c0.273,0,0.507-0.105,0.701-0.314C144.723,226.657,144.846,226.331,144.898,225.888z"/>
		<path d="M146.231,227.788v-7.158h0.718v4.089l1.711-2.116h0.933l-1.626,1.926l1.788,3.26h-0.885l-1.412-2.658l-0.509,0.603v2.056
			H146.231z"/>
	</g>
	<g>
		<path d="M89.146,184.556l2.264-7.158h0.83l2.404,7.158h-0.889l-0.683-2.168h-2.47l-0.638,2.168H89.146z M90.831,181.617h1.999
			l-0.61-1.982c-0.188-0.609-0.327-1.104-0.414-1.484c-0.076,0.459-0.184,0.915-0.322,1.367L90.831,181.617z"/>
		<path d="M95.157,184.556v-5.186h0.649v0.732c0.156-0.285,0.347-0.498,0.572-0.638c0.227-0.141,0.485-0.211,0.778-0.211
			c0.227,0,0.438,0.045,0.631,0.134s0.35,0.207,0.468,0.352c0.119,0.145,0.207,0.333,0.266,0.564s0.088,0.586,0.088,1.064v3.188
			h-0.718v-3.158c0-0.381-0.032-0.66-0.098-0.836c-0.065-0.176-0.167-0.312-0.305-0.408c-0.139-0.096-0.299-0.144-0.481-0.144
			c-0.345,0-0.62,0.129-0.825,0.386s-0.308,0.699-0.308,1.325v2.835H95.157z"/>
		<path d="M99.576,184.986l0.703,0.127c0.032,0.278,0.13,0.485,0.293,0.621c0.163,0.136,0.389,0.204,0.679,0.204
			c0.315,0,0.567-0.076,0.754-0.227c0.188-0.151,0.315-0.377,0.384-0.676c0.042-0.183,0.063-0.566,0.063-1.153
			c-0.156,0.223-0.332,0.392-0.527,0.504c-0.195,0.113-0.412,0.17-0.649,0.17c-0.508,0-0.93-0.215-1.265-0.645
			c-0.384-0.495-0.576-1.157-0.576-1.987c0-0.557,0.085-1.043,0.254-1.46s0.392-0.723,0.666-0.918
			c0.275-0.195,0.584-0.293,0.926-0.293c0.251,0,0.479,0.062,0.686,0.185c0.207,0.123,0.391,0.307,0.55,0.553v-0.62h0.664v4.482
			c0,0.797-0.065,1.366-0.195,1.707s-0.344,0.609-0.64,0.806s-0.652,0.295-1.069,0.295c-0.55,0-0.974-0.148-1.27-0.444
			S99.566,185.51,99.576,184.986z M100.172,181.871c0,0.682,0.112,1.18,0.338,1.493c0.225,0.313,0.5,0.47,0.827,0.47
			c0.325,0,0.603-0.153,0.831-0.46c0.229-0.307,0.343-0.795,0.343-1.464c0-0.653-0.117-1.138-0.353-1.456
			c-0.234-0.318-0.521-0.478-0.856-0.478c-0.3,0-0.563,0.159-0.79,0.478C100.285,180.771,100.172,181.244,100.172,181.871z"/>
		<path d="M107.184,182.886l0.742,0.112c-0.124,0.553-0.348,0.971-0.671,1.252c-0.324,0.282-0.726,0.422-1.204,0.422
			c-0.603,0-1.09-0.229-1.462-0.686c-0.373-0.458-0.56-1.117-0.56-1.98c0-0.895,0.188-1.578,0.563-2.048
			c0.377-0.47,0.853-0.706,1.429-0.706c0.55,0,1.009,0.231,1.377,0.693s0.552,1.131,0.552,2.007l-0.005,0.234h-3.174
			c0.029,0.583,0.164,1.022,0.405,1.318s0.534,0.444,0.879,0.444C106.596,183.951,106.972,183.596,107.184,182.886z
			 M104.815,181.465h2.373c-0.032-0.449-0.129-0.785-0.288-1.006c-0.231-0.322-0.525-0.483-0.884-0.483
			c-0.322,0-0.598,0.134-0.825,0.403S104.838,181.01,104.815,181.465z"/>
		<path d="M108.814,184.556v-7.158h0.718v7.158H108.814z"/>
		<path d="M113.019,184.556v-7.158h0.796l3.086,5.631v-5.631h0.742v7.158h-0.796l-3.081-5.632v5.632H113.019z"/>
		<path d="M118.858,178.409v-1.011h0.718v1.011H118.858z M118.858,184.556v-5.186h0.718v5.186H118.858z"/>
		<path d="M123.585,182.886l0.742,0.112c-0.124,0.553-0.348,0.971-0.672,1.252c-0.323,0.282-0.725,0.422-1.203,0.422
			c-0.603,0-1.09-0.229-1.463-0.686c-0.372-0.458-0.559-1.117-0.559-1.98c0-0.895,0.188-1.578,0.564-2.048
			c0.375-0.47,0.852-0.706,1.428-0.706c0.55,0,1.009,0.231,1.377,0.693s0.552,1.131,0.552,2.007l-0.005,0.234h-3.174
			c0.029,0.583,0.164,1.022,0.405,1.318s0.534,0.444,0.879,0.444C122.997,183.951,123.373,183.596,123.585,182.886z
			 M121.217,181.465h2.373c-0.032-0.449-0.129-0.785-0.288-1.006c-0.231-0.322-0.525-0.483-0.884-0.483
			c-0.322,0-0.598,0.134-0.825,0.403S121.239,181.01,121.217,181.465z"/>
		<path d="M126.842,183.77l0.098,0.776c-0.198,0.052-0.378,0.078-0.537,0.078c-0.251,0-0.452-0.05-0.605-0.149
			s-0.258-0.235-0.315-0.408c-0.057-0.172-0.085-0.516-0.085-1.03v-2.983h-0.527v-0.684h0.527v-1.284l0.718-0.527v1.812h0.728v0.684
			h-0.728v3.032c0,0.28,0.021,0.46,0.063,0.542c0.062,0.117,0.178,0.176,0.347,0.176
			C126.605,183.804,126.712,183.793,126.842,183.77z"/>
		<path d="M127.247,181.963c0-0.895,0.188-1.571,0.564-2.026c0.375-0.456,0.852-0.684,1.428-0.684c0.566,0,1.04,0.228,1.421,0.684
			s0.571,1.113,0.571,1.973c0,0.931-0.188,1.625-0.562,2.08s-0.852,0.684-1.431,0.684c-0.569,0-1.044-0.229-1.424-0.686
			C127.437,183.53,127.247,182.855,127.247,181.963z M127.984,181.961c0,0.671,0.122,1.171,0.366,1.499s0.547,0.491,0.908,0.491
			c0.339,0,0.629-0.166,0.871-0.496c0.243-0.331,0.364-0.829,0.364-1.494c0-0.668-0.122-1.166-0.366-1.494s-0.547-0.491-0.908-0.491
			c-0.342,0-0.633,0.165-0.874,0.494S127.984,181.296,127.984,181.961z"/>
	</g>
	<g>
		<path d="M31.917,160.406v-7.158h2.212c0.521,0,0.905,0.045,1.152,0.137c0.339,0.124,0.608,0.353,0.811,0.688
			s0.303,0.747,0.303,1.235c0,0.645-0.164,1.17-0.493,1.577s-0.896,0.61-1.704,0.61h-1.504v2.91H31.917z M32.693,156.651h1.519
			c0.479,0,0.828-0.108,1.05-0.325s0.332-0.543,0.332-0.979c0-0.283-0.055-0.526-0.163-0.728c-0.109-0.202-0.241-0.34-0.396-0.415
			c-0.154-0.075-0.434-0.112-0.837-0.112h-1.504V156.651z"/>
		<path d="M40.193,158.736l0.742,0.112c-0.124,0.553-0.348,0.971-0.671,1.252c-0.324,0.282-0.726,0.422-1.204,0.422
			c-0.603,0-1.09-0.229-1.462-0.686c-0.373-0.458-0.56-1.117-0.56-1.98c0-0.895,0.188-1.578,0.563-2.048
			c0.377-0.47,0.853-0.706,1.429-0.706c0.55,0,1.009,0.231,1.377,0.693s0.552,1.131,0.552,2.007l-0.005,0.234h-3.174
			c0.029,0.583,0.164,1.022,0.405,1.318s0.534,0.444,0.879,0.444C39.605,159.8,39.981,159.445,40.193,158.736z M37.825,157.315
			h2.373c-0.032-0.449-0.129-0.785-0.288-1.006c-0.231-0.322-0.525-0.483-0.884-0.483c-0.322,0-0.598,0.134-0.825,0.403
			S37.848,156.859,37.825,157.315z"/>
		<path d="M41.824,160.406v-7.158h0.718v7.158H41.824z"/>
		<path d="M46.453,160.406v-0.762c-0.166,0.293-0.361,0.513-0.586,0.659s-0.479,0.22-0.762,0.22c-0.335,0-0.622-0.09-0.859-0.271
			s-0.396-0.409-0.476-0.686c-0.08-0.277-0.12-0.654-0.12-1.133v-3.213h0.718v2.876c0,0.534,0.027,0.891,0.08,1.072
			c0.055,0.181,0.153,0.326,0.299,0.435c0.145,0.109,0.31,0.164,0.495,0.164c0.345,0,0.628-0.142,0.85-0.425
			c0.188-0.244,0.283-0.692,0.283-1.343v-2.778h0.723v5.186H46.453z"/>
		<path d="M50.936,162.393v-2.539c-0.114,0.199-0.272,0.36-0.476,0.483c-0.204,0.124-0.408,0.186-0.613,0.186
			c-0.508,0-0.947-0.241-1.318-0.723s-0.557-1.161-0.557-2.036c0-0.762,0.156-1.396,0.469-1.902s0.755-0.759,1.328-0.759
			c0.264,0,0.498,0.067,0.703,0.203s0.383,0.338,0.532,0.608v-0.693h0.649v7.173H50.936z M48.709,157.798
			c0,0.674,0.117,1.176,0.352,1.506s0.515,0.496,0.84,0.496c0.29,0,0.547-0.159,0.771-0.476s0.337-0.79,0.337-1.418
			c0-0.713-0.118-1.243-0.354-1.589c-0.236-0.347-0.518-0.52-0.843-0.52c-0.296,0-0.554,0.162-0.774,0.486
			C48.819,156.606,48.709,157.111,48.709,157.798z"/>
		<path d="M55.574,160.406v-0.762c-0.166,0.293-0.361,0.513-0.586,0.659s-0.479,0.22-0.762,0.22c-0.335,0-0.622-0.09-0.859-0.271
			s-0.396-0.409-0.476-0.686c-0.08-0.277-0.12-0.654-0.12-1.133v-3.213h0.718v2.876c0,0.534,0.027,0.891,0.08,1.072
			c0.055,0.181,0.153,0.326,0.299,0.435c0.145,0.109,0.31,0.164,0.495,0.164c0.345,0,0.628-0.142,0.85-0.425
			c0.188-0.244,0.283-0.692,0.283-1.343v-2.778h0.723v5.186H55.574z"/>
		<path d="M57.352,154.258v-1.011h0.718v1.011H57.352z M57.352,160.406v-5.186h0.718v5.186H57.352z"/>
	</g>
	<g>
		<path d="M172.269,163.763v-7.158h2.026c0.501,0,0.882,0.044,1.143,0.132c0.342,0.114,0.638,0.322,0.889,0.625
			s0.446,0.685,0.586,1.145s0.21,1.007,0.21,1.638c0,0.811-0.119,1.498-0.356,2.063s-0.543,0.965-0.915,1.201
			c-0.373,0.236-0.86,0.354-1.463,0.354H172.269z M173.045,162.918h1.25c0.505,0,0.887-0.082,1.147-0.247s0.461-0.429,0.601-0.793
			c0.186-0.485,0.278-1.066,0.278-1.743c0-0.726-0.099-1.296-0.295-1.711c-0.197-0.415-0.45-0.692-0.76-0.833
			c-0.208-0.094-0.539-0.142-0.991-0.142h-1.23V162.918z"/>
		<path d="M180.887,163.763v-0.762c-0.166,0.293-0.361,0.513-0.586,0.659s-0.479,0.22-0.762,0.22c-0.335,0-0.622-0.09-0.859-0.271
			s-0.396-0.409-0.476-0.686c-0.08-0.277-0.12-0.654-0.12-1.133v-3.213h0.718v2.876c0,0.534,0.027,0.891,0.08,1.072
			c0.055,0.181,0.153,0.326,0.299,0.435c0.145,0.109,0.31,0.164,0.495,0.164c0.345,0,0.628-0.142,0.85-0.425
			c0.188-0.244,0.283-0.692,0.283-1.343v-2.778h0.723v5.186H180.887z"/>
		<path d="M185.448,161.864l0.708,0.112c-0.081,0.619-0.285,1.09-0.613,1.416c-0.326,0.326-0.72,0.488-1.179,0.488
			c-0.557,0-1.015-0.229-1.374-0.686c-0.36-0.458-0.54-1.134-0.54-2.029c0-0.902,0.182-1.578,0.544-2.029
			c0.363-0.451,0.83-0.676,1.399-0.676c0.439,0,0.81,0.137,1.11,0.41c0.302,0.273,0.494,0.684,0.579,1.23l-0.698,0.127
			c-0.068-0.35-0.188-0.611-0.356-0.785c-0.169-0.173-0.373-0.26-0.61-0.26c-0.354,0-0.648,0.157-0.881,0.471
			c-0.233,0.314-0.35,0.813-0.35,1.497c0,0.707,0.111,1.217,0.334,1.533c0.224,0.316,0.509,0.474,0.857,0.474
			c0.273,0,0.507-0.105,0.701-0.315C185.273,162.633,185.396,162.307,185.448,161.864z"/>
		<path d="M186.493,161.17c0-0.895,0.188-1.571,0.563-2.026c0.377-0.456,0.853-0.684,1.429-0.684c0.566,0,1.04,0.228,1.421,0.684
			s0.571,1.113,0.571,1.973c0,0.931-0.188,1.625-0.562,2.08s-0.852,0.684-1.431,0.684c-0.569,0-1.044-0.229-1.423-0.686
			C186.682,162.737,186.493,162.063,186.493,161.17z M187.23,161.168c0,0.671,0.122,1.171,0.366,1.499s0.547,0.491,0.908,0.491
			c0.339,0,0.629-0.166,0.872-0.496c0.242-0.331,0.363-0.829,0.363-1.494c0-0.668-0.122-1.166-0.366-1.494s-0.547-0.491-0.908-0.491
			c-0.342,0-0.633,0.165-0.874,0.494S187.23,160.503,187.23,161.168z"/>
		<path d="M194.081,163.763v-0.654c-0.13,0.25-0.298,0.442-0.503,0.574s-0.427,0.198-0.664,0.198c-0.501,0-0.936-0.237-1.301-0.71
			c-0.367-0.474-0.55-1.14-0.55-2c0-0.589,0.081-1.089,0.244-1.499c0.162-0.41,0.379-0.714,0.65-0.913s0.573-0.298,0.904-0.298
			c0.237,0,0.457,0.063,0.66,0.188s0.372,0.3,0.505,0.525v-2.568h0.728v7.158H194.081z M191.8,161.175
			c0,0.67,0.116,1.168,0.35,1.494c0.232,0.326,0.504,0.488,0.813,0.488c0.306,0,0.571-0.156,0.796-0.469s0.337-0.785,0.337-1.416
			c0-0.726-0.112-1.256-0.337-1.589s-0.508-0.5-0.85-0.5c-0.304,0-0.563,0.16-0.782,0.481
			C191.91,159.985,191.8,160.488,191.8,161.175z"/>
		<path d="M195.614,161.17c0-0.895,0.188-1.571,0.563-2.026c0.377-0.456,0.853-0.684,1.429-0.684c0.566,0,1.04,0.228,1.421,0.684
			s0.571,1.113,0.571,1.973c0,0.931-0.188,1.625-0.562,2.08s-0.852,0.684-1.431,0.684c-0.569,0-1.044-0.229-1.423-0.686
			C195.803,162.737,195.614,162.063,195.614,161.17z M196.351,161.168c0,0.671,0.122,1.171,0.366,1.499s0.547,0.491,0.908,0.491
			c0.339,0,0.629-0.166,0.872-0.496c0.242-0.331,0.363-0.829,0.363-1.494c0-0.668-0.122-1.166-0.366-1.494s-0.547-0.491-0.908-0.491
			c-0.342,0-0.633,0.165-0.874,0.494S196.351,160.503,196.351,161.168z"/>
		<path d="M200.169,162.21l0.718-0.137c0.042,0.366,0.157,0.639,0.346,0.816c0.188,0.179,0.438,0.268,0.75,0.268
			c0.313,0,0.554-0.077,0.724-0.232c0.171-0.155,0.256-0.351,0.256-0.588c0-0.205-0.073-0.365-0.22-0.479
			c-0.101-0.078-0.345-0.176-0.732-0.293c-0.56-0.172-0.935-0.319-1.123-0.439s-0.335-0.282-0.439-0.483s-0.156-0.431-0.156-0.688
			c0-0.443,0.142-0.802,0.425-1.079s0.676-0.415,1.177-0.415c0.315,0,0.593,0.057,0.833,0.171c0.238,0.114,0.422,0.267,0.549,0.459
			s0.215,0.467,0.264,0.825l-0.703,0.117c-0.065-0.566-0.373-0.85-0.923-0.85c-0.313,0-0.545,0.063-0.698,0.187
			c-0.153,0.125-0.229,0.285-0.229,0.479c0,0.191,0.073,0.342,0.22,0.453c0.089,0.064,0.35,0.168,0.783,0.311
			c0.597,0.189,0.982,0.34,1.157,0.453s0.312,0.266,0.409,0.46c0.097,0.194,0.146,0.425,0.146,0.692
			c0,0.496-0.157,0.897-0.472,1.203c-0.313,0.307-0.742,0.46-1.286,0.46C200.923,163.88,200.333,163.324,200.169,162.21z"/>
	</g>
	<g>
		<path d="M109.896,110.615v-7.158h3.96v0.845h-3.184v2.217h2.754v0.845h-2.754v3.252H109.896z"/>
		<path d="M117.655,108.945l0.742,0.112c-0.124,0.553-0.348,0.971-0.672,1.252c-0.323,0.282-0.725,0.422-1.203,0.422
			c-0.603,0-1.09-0.229-1.463-0.686c-0.372-0.458-0.559-1.117-0.559-1.98c0-0.895,0.188-1.578,0.564-2.048
			c0.375-0.47,0.852-0.706,1.428-0.706c0.55,0,1.009,0.231,1.377,0.693s0.552,1.131,0.552,2.007l-0.005,0.234h-3.174
			c0.029,0.583,0.164,1.022,0.405,1.318s0.534,0.444,0.879,0.444C117.067,110.009,117.443,109.654,117.655,108.945z
			 M115.287,107.524h2.373c-0.032-0.449-0.129-0.785-0.288-1.006c-0.231-0.322-0.525-0.483-0.884-0.483
			c-0.322,0-0.598,0.134-0.825,0.403S115.31,107.068,115.287,107.524z"/>
		<path d="M119.311,110.615v-5.186h0.649v0.786c0.166-0.365,0.318-0.606,0.457-0.725c0.138-0.119,0.293-0.178,0.466-0.178
			c0.241,0,0.486,0.094,0.737,0.283l-0.244,0.815c-0.179-0.127-0.354-0.19-0.522-0.19c-0.153,0-0.293,0.054-0.42,0.161
			s-0.217,0.257-0.269,0.449c-0.091,0.335-0.137,0.692-0.137,1.069v2.715H119.311z"/>
		<path d="M122.04,110.615v-5.186h0.649v0.786c0.166-0.365,0.318-0.606,0.456-0.725c0.139-0.119,0.294-0.178,0.467-0.178
			c0.241,0,0.486,0.094,0.737,0.283l-0.244,0.815c-0.179-0.127-0.354-0.19-0.522-0.19c-0.153,0-0.293,0.054-0.42,0.161
			s-0.217,0.257-0.269,0.449c-0.091,0.335-0.137,0.692-0.137,1.069v2.715H122.04z"/>
		<path d="M127.538,109.975c-0.241,0.25-0.491,0.439-0.752,0.566s-0.53,0.19-0.811,0.19c-0.442,0-0.796-0.133-1.06-0.4
			s-0.396-0.626-0.396-1.079c0-0.299,0.062-0.565,0.186-0.796s0.293-0.412,0.508-0.542s0.54-0.226,0.977-0.288
			c0.586-0.086,1.016-0.188,1.289-0.308l0.005-0.225c0-0.355-0.063-0.604-0.19-0.747c-0.179-0.208-0.454-0.313-0.825-0.313
			c-0.335,0-0.586,0.069-0.752,0.208s-0.288,0.4-0.366,0.783l-0.708-0.117c0.101-0.557,0.306-0.962,0.612-1.216
			c0.309-0.254,0.748-0.381,1.321-0.381c0.446,0,0.796,0.084,1.05,0.251s0.414,0.375,0.48,0.623
			c0.067,0.248,0.101,0.609,0.101,1.084v1.172c0,0.82,0.016,1.337,0.046,1.55c0.031,0.213,0.093,0.421,0.184,0.623h-0.752
			C127.609,110.436,127.561,110.223,127.538,109.975z M127.479,108.012c-0.264,0.13-0.656,0.241-1.177,0.332
			c-0.303,0.052-0.515,0.111-0.635,0.178s-0.214,0.161-0.28,0.283c-0.067,0.122-0.101,0.263-0.101,0.422
			c0,0.248,0.076,0.445,0.229,0.593s0.364,0.222,0.635,0.222c0.257,0,0.49-0.067,0.701-0.2c0.209-0.133,0.366-0.312,0.471-0.535
			s0.156-0.548,0.156-0.974V108.012z"/>
		<path d="M129.33,110.615v-5.186h0.649v0.786c0.166-0.365,0.318-0.606,0.457-0.725c0.138-0.119,0.293-0.178,0.466-0.178
			c0.241,0,0.486,0.094,0.737,0.283l-0.244,0.815c-0.179-0.127-0.354-0.19-0.522-0.19c-0.153,0-0.293,0.054-0.42,0.161
			s-0.217,0.257-0.269,0.449c-0.091,0.335-0.137,0.692-0.137,1.069v2.715H129.33z"/>
		<path d="M132.06,104.467v-1.011h0.718v1.011H132.06z M132.06,110.615v-5.186h0.718v5.186H132.06z"/>
	</g>
</g>
</svg>
