<?xml version="1.0" encoding="utf-8"?>
<!-- Generator: Adobe Illustrator 14.0.0, SVG Export Plug-In . SVG Version: 6.00 Build 43363)  -->
<!DOCTYPE svg PUBLIC "-//W3C//DTD SVG 1.1//EN" "http://www.w3.org/Graphics/SVG/1.1/DTD/svg11.dtd">
<svg version="1.1" xmlns="http://www.w3.org/2000/svg" xmlns:xlink="http://www.w3.org/1999/xlink" x="0px" y="0px" width="300px"
	 height="296.762px" viewBox="0 0 300 296.762" enable-background="new 0 0 300 296.762" xml:space="preserve">
<g id="_x31_953_Pitlane">
	<path fill="none" stroke="#BBBDBF" stroke-width="2" d="M40.097,244.888c2.498-0.305,8.438,2.835,11.475,2.835s94.771,0,103.005,0
		c2.633,0,7.391-3.393,12.048-3.442"/>
</g>
<g id="_x31_952_Circuit_v2">
	<path fill="none" stroke="#000000" stroke-width="3" d="M266.762,11.405c-9.518,0.27-36.045,0.81-54.473,1.215
		c-3.044,0.067-5.708,2.798-7.29,4.455c-4.252,4.455-25.109,25.515-27.135,27.743c-2.024,2.227-4.522,1.485-6.008-0.135
		c-1.21-1.319-2.239-2.515-3.848-4.252c-1.688-1.823-4.522-2.7-6.817-0.338C159.554,41.779,26.395,173.81,10.195,189.605
		c-4.369,4.26-2.228,8.1,4.455,7.897c12.347-0.375,61.309-0.492,66.217-0.405c34.222,0.608,59.449-26.958,60.75-57.51
		c0.405-9.518,5.873-17.82,13.365-18.225c1.769-0.096,4.05-0.607,4.658-2.43c0.726-2.179,4.959-1.972,6.075-1.974
		c35.386-0.049,68.979-0.253,70.672-0.253c4.155,0,5.67,3.437,5.67,6.885c0,12.555,0,36.855,0,50.625
		c0,4.675-3.492,9.464-5.872,11.745c-9.72,9.315-42.525,42.526-54.878,54.877c-2.228,2.228-6.277,3.392-9.721,3.443
		c-5.467,0.08-121.297,0.202-126.967,0.202c-4.662,0-9.13,0.865-12.285,5.939c-3.105,4.995-4.05,7.694-2.307,11.005
		c1.735,3.293,3.773,3.801,8.179,4.115c5.655,0.404,215.392,1.215,228.15,1.215c5.674,0,6.298-2.829,6.277-6.479
		c-0.202-35.842-0.81-177.39-0.81-244.62C271.825,12.593,270.407,11.301,266.762,11.405z"/>
</g>
<g id="_x31_953_Startline">
	<line fill="none" stroke="#FFFFFF" stroke-width="2" x1="93.523" y1="242.639" x2="93.523" y2="246.222"/>
</g>
<g id="_x31_953_Flag">
	<g>
		<g>
			<path fill="#FFFFFF" stroke="#231F20" stroke-width="0.1" d="M117.486,225.878c-8.188-3.61-16.375,3.692-24.563,0.102
				c-0.01-6.108-0.02-12.218-0.029-18.326c8.188,3.616,16.375-3.687,24.563-0.102C117.467,213.66,117.477,219.77,117.486,225.878z"
				/>
			<path fill="#231F20" d="M101.162,214.479c-2.729,0.421-5.458,0.444-8.188-0.738c-0.003-2.036-0.007-4.072-0.011-6.108
				c2.729,1.185,5.459,1.164,8.188,0.744C101.156,210.411,101.159,212.445,101.162,214.479z"/>
			<path fill="#231F20" d="M101.175,226.688c-2.73,0.422-5.459,0.447-8.189-0.732c-0.003-2.036-0.007-4.072-0.011-6.108
				c2.73,1.183,5.459,1.159,8.189,0.738C101.167,222.62,101.171,224.654,101.175,226.688z"/>
			<path fill="#231F20" d="M109.354,218.923c-2.73,0.409-5.459,1.229-8.189,1.649c-0.003-2.034-0.007-4.068-0.011-6.103
				c2.729-0.42,5.459-1.239,8.188-1.648C109.346,214.855,109.35,216.89,109.354,218.923z"/>
			<path fill="#231F20" d="M117.543,225.869c-2.73-1.221-5.461-1.222-8.191-0.813c-0.002-2.035-0.005-4.069-0.008-6.104
				c2.73-0.409,5.459-0.409,8.189,0.809C117.537,221.797,117.54,223.833,117.543,225.869z"/>
			<path fill="#231F20" d="M117.521,213.61c-2.73-1.214-5.459-1.212-8.189-0.801c-0.002-2.034-0.005-4.068-0.008-6.103
				c2.729-0.411,5.458-0.414,8.188,0.798C117.515,209.54,117.518,211.575,117.521,213.61z"/>
		</g>
	</g>
	<line fill="#FFFFFF" stroke="#231F20" stroke-width="0.5" x1="92.205" y1="206.317" x2="92.266" y2="243.085"/>
	<path fill="#231F20" d="M93.189,206.567c0,0.194-0.079,0.329-0.961,0.33c-0.879,0-1.008-0.132-1.01-0.328
		c0.003-0.194,0.128-0.374,1.009-0.375C93.109,206.192,93.189,206.372,93.189,206.567z"/>
	<g>
		<line fill="none" stroke="#231F20" x1="94.618" y1="237.527" x2="142.544" y2="237.489"/>
		<path fill="#231F20" d="M146.06,235.895c-2.488-0.707-4.113-1.369-6.115-2.135l0.125,7.563c0.705-0.349,3.576-1.548,6.041-2.336
			c2.643-0.845,5.041-1.435,6.598-1.655C151.146,237.16,148.728,236.652,146.06,235.895z"/>
	</g>
</g>
<g id="North">
	<g>
		<g>
			<g>
				<line fill="none" stroke="#231F20" stroke-width="0.5" x1="20.575" y1="59.841" x2="20.575" y2="33.558"/>
				<path fill="#231F20" d="M20.063,32.377c-0.249,0.827-0.479,1.364-0.746,2.027h2.522c-0.113-0.237-0.496-1.2-0.746-2.027
					c-0.268-0.885-0.449-1.687-0.516-2.207C20.513,30.691,20.329,31.493,20.063,32.377z"/>
			</g>
		</g>
	</g>
	<line fill="none" stroke="#231F20" stroke-width="0.25" x1="12.87" y1="40.867" x2="28.306" y2="40.867"/>
	<g>
		<path fill="#231F20" d="M16.381,25.758l-0.057-10.737l1.458-0.008l5.685,8.4l-0.045-8.43l1.362-0.007l0.057,10.737l-1.458,0.008
			l-5.685-8.407l0.045,8.438L16.381,25.758z"/>
	</g>
</g>
<g id="_x31_953_Labels">
	<g>
		<path fill="#231F20" d="M92.809,257.6v-7.158h2.212c0.521,0,0.905,0.046,1.152,0.137c0.338,0.124,0.609,0.354,0.811,0.688
			s0.303,0.747,0.303,1.235c0,0.645-0.165,1.17-0.493,1.577s-0.897,0.61-1.704,0.61h-1.504v2.91H92.809z M93.585,253.845h1.519
			c0.479,0,0.829-0.108,1.05-0.324c0.221-0.217,0.332-0.543,0.332-0.979c0-0.283-0.055-0.525-0.164-0.728s-0.241-0.34-0.396-0.415
			s-0.434-0.112-0.837-0.112h-1.504V253.845z"/>
		<path fill="#231F20" d="M98.18,251.452v-1.011h0.718v1.011H98.18z M98.18,257.6v-5.186h0.718v5.186H98.18z"/>
		<path fill="#231F20" d="M101.603,256.813l0.098,0.776c-0.199,0.052-0.377,0.078-0.537,0.078c-0.25,0-0.453-0.05-0.605-0.149
			c-0.153-0.099-0.258-0.234-0.315-0.407s-0.085-0.516-0.085-1.03v-2.983H99.63v-0.684h0.527v-1.284l0.718-0.527v1.812h0.728v0.684
			h-0.728v3.032c0,0.28,0.021,0.461,0.063,0.542c0.062,0.117,0.177,0.176,0.347,0.176
			C101.367,256.848,101.473,256.836,101.603,256.813z"/>
		<path fill="#231F20" d="M102.257,257.6v-7.158h0.718v7.158H102.257z"/>
		<path fill="#231F20" d="M106.872,256.96c-0.241,0.251-0.492,0.439-0.752,0.566s-0.531,0.19-0.811,0.19
			c-0.443,0-0.796-0.134-1.06-0.4s-0.396-0.627-0.396-1.079c0-0.3,0.062-0.564,0.186-0.796s0.293-0.412,0.508-0.542
			s0.541-0.227,0.977-0.288c0.586-0.086,1.016-0.188,1.289-0.308l0.005-0.225c0-0.354-0.063-0.604-0.19-0.747
			c-0.179-0.208-0.454-0.313-0.825-0.313c-0.335,0-0.586,0.069-0.752,0.209c-0.166,0.139-0.288,0.399-0.366,0.782l-0.708-0.117
			c0.101-0.557,0.305-0.962,0.613-1.216s0.748-0.381,1.321-0.381c0.446,0,0.796,0.084,1.05,0.251
			c0.254,0.168,0.414,0.376,0.481,0.623s0.1,0.608,0.1,1.084v1.172c0,0.82,0.016,1.337,0.046,1.551
			c0.031,0.213,0.092,0.42,0.183,0.622h-0.752C106.943,257.421,106.895,257.207,106.872,256.96z M106.813,254.997
			c-0.264,0.13-0.656,0.241-1.177,0.332c-0.303,0.052-0.514,0.111-0.635,0.178c-0.121,0.067-0.214,0.162-0.281,0.283
			c-0.067,0.123-0.1,0.264-0.1,0.423c0,0.247,0.077,0.445,0.229,0.593c0.153,0.148,0.365,0.223,0.635,0.223
			c0.257,0,0.491-0.066,0.701-0.2s0.367-0.312,0.471-0.534c0.104-0.224,0.156-0.548,0.156-0.975V254.997z"/>
		<path fill="#231F20" d="M108.664,257.6v-5.186h0.649v0.732c0.156-0.285,0.347-0.497,0.573-0.639
			c0.226-0.141,0.485-0.211,0.777-0.211c0.228,0,0.438,0.045,0.631,0.134c0.193,0.09,0.349,0.207,0.468,0.352
			c0.119,0.146,0.207,0.333,0.266,0.564s0.088,0.586,0.088,1.064v3.188h-0.718v-3.157c0-0.382-0.033-0.66-0.098-0.836
			c-0.065-0.177-0.167-0.313-0.305-0.408c-0.138-0.097-0.299-0.145-0.481-0.145c-0.345,0-0.62,0.129-0.825,0.386
			c-0.205,0.258-0.308,0.699-0.308,1.325v2.835H108.664z"/>
		<path fill="#231F20" d="M116.129,255.93l0.742,0.112c-0.124,0.554-0.348,0.971-0.671,1.252c-0.324,0.282-0.725,0.423-1.204,0.423
			c-0.602,0-1.09-0.229-1.462-0.687c-0.373-0.457-0.559-1.117-0.559-1.979c0-0.896,0.188-1.578,0.564-2.048
			c0.376-0.471,0.852-0.706,1.428-0.706c0.55,0,1.009,0.231,1.377,0.693s0.552,1.131,0.552,2.007l-0.005,0.234h-3.174
			c0.029,0.583,0.165,1.022,0.405,1.318s0.534,0.444,0.879,0.444C115.542,256.994,115.918,256.64,116.129,255.93z M113.761,254.509
			h2.373c-0.033-0.449-0.128-0.784-0.288-1.006c-0.231-0.322-0.526-0.483-0.884-0.483c-0.322,0-0.597,0.134-0.825,0.403
			C113.909,253.69,113.784,254.053,113.761,254.509z"/>
	</g>
	<g>
		<path fill="#231F20" d="M51.419,238.535l0.732-0.078c0.039,0.394,0.128,0.701,0.266,0.92c0.138,0.221,0.336,0.396,0.593,0.53
			s0.547,0.2,0.869,0.2c0.462,0,0.821-0.113,1.077-0.339s0.383-0.519,0.383-0.879c0-0.212-0.046-0.396-0.139-0.554
			c-0.093-0.157-0.233-0.286-0.42-0.387s-0.592-0.243-1.213-0.428c-0.553-0.164-0.947-0.329-1.182-0.495s-0.417-0.377-0.547-0.632
			c-0.13-0.256-0.195-0.545-0.195-0.867c0-0.579,0.187-1.053,0.562-1.421s0.879-0.552,1.514-0.552c0.436,0,0.818,0.086,1.145,0.259
			s0.581,0.42,0.762,0.742s0.277,0.701,0.291,1.138l-0.747,0.068c-0.039-0.466-0.178-0.811-0.417-1.035s-0.575-0.337-1.008-0.337
			c-0.439,0-0.775,0.099-1.006,0.296c-0.231,0.196-0.347,0.451-0.347,0.764c0,0.29,0.084,0.514,0.254,0.674
			c0.169,0.159,0.55,0.321,1.142,0.484c0.579,0.16,0.986,0.299,1.22,0.417c0.358,0.183,0.628,0.423,0.811,0.721
			s0.274,0.653,0.274,1.065c0,0.41-0.096,0.783-0.288,1.12c-0.192,0.336-0.453,0.592-0.784,0.768s-0.729,0.264-1.194,0.264
			c-0.726,0-1.305-0.218-1.736-0.654S51.435,239.28,51.419,238.535z"/>
		<path fill="#231F20" d="M58.65,240.054l0.098,0.776c-0.199,0.052-0.377,0.078-0.537,0.078c-0.25,0-0.453-0.05-0.605-0.148
			c-0.153-0.1-0.258-0.235-0.315-0.408s-0.085-0.516-0.085-1.03v-2.983h-0.527v-0.684h0.527v-1.284l0.718-0.527v1.812h0.728v0.684
			h-0.728v3.032c0,0.28,0.021,0.461,0.063,0.542c0.062,0.117,0.177,0.176,0.347,0.176C58.415,240.088,58.52,240.076,58.65,240.054z"
			/>
		<path fill="#231F20" d="M62.098,240.2c-0.241,0.251-0.492,0.439-0.752,0.566s-0.531,0.19-0.811,0.19
			c-0.443,0-0.796-0.134-1.06-0.4s-0.396-0.627-0.396-1.079c0-0.3,0.062-0.564,0.186-0.796s0.293-0.412,0.508-0.542
			s0.541-0.227,0.977-0.288c0.586-0.086,1.016-0.188,1.289-0.308l0.005-0.225c0-0.354-0.063-0.604-0.19-0.747
			c-0.179-0.208-0.454-0.313-0.825-0.313c-0.335,0-0.586,0.069-0.752,0.209c-0.166,0.139-0.288,0.399-0.366,0.782l-0.708-0.117
			c0.101-0.557,0.305-0.962,0.613-1.216s0.748-0.381,1.321-0.381c0.446,0,0.796,0.084,1.05,0.252
			c0.254,0.167,0.414,0.375,0.481,0.622s0.1,0.608,0.1,1.084v1.172c0,0.82,0.016,1.337,0.046,1.55
			c0.031,0.214,0.092,0.421,0.183,0.623h-0.752C62.169,240.661,62.121,240.447,62.098,240.2z M62.039,238.237
			c-0.264,0.13-0.656,0.241-1.177,0.332c-0.303,0.052-0.514,0.111-0.635,0.179c-0.121,0.066-0.214,0.16-0.281,0.283
			c-0.067,0.121-0.1,0.263-0.1,0.422c0,0.247,0.077,0.445,0.229,0.594c0.153,0.147,0.365,0.222,0.635,0.222
			c0.257,0,0.491-0.066,0.701-0.2s0.367-0.312,0.471-0.535c0.104-0.223,0.156-0.547,0.156-0.974V238.237z"/>
		<path fill="#231F20" d="M63.89,240.84v-5.186h0.649v0.786c0.166-0.364,0.318-0.606,0.457-0.726
			c0.138-0.118,0.294-0.178,0.466-0.178c0.241,0,0.487,0.095,0.737,0.283l-0.244,0.815c-0.179-0.127-0.353-0.19-0.522-0.19
			c-0.153,0-0.293,0.054-0.42,0.161s-0.216,0.257-0.269,0.449c-0.091,0.335-0.137,0.691-0.137,1.069v2.715H63.89z"/>
		<path fill="#231F20" d="M68.221,240.054l0.098,0.776c-0.199,0.052-0.377,0.078-0.537,0.078c-0.25,0-0.453-0.05-0.605-0.148
			c-0.153-0.1-0.258-0.235-0.315-0.408s-0.085-0.516-0.085-1.03v-2.983h-0.527v-0.684h0.527v-1.284l0.718-0.527v1.812h0.728v0.684
			h-0.728v3.032c0,0.28,0.021,0.461,0.063,0.542c0.062,0.117,0.177,0.176,0.347,0.176C67.985,240.088,68.09,240.076,68.221,240.054z
			"/>
		<path fill="#231F20" d="M68.363,240.957l1.701-7.397h0.586l-1.706,7.397H68.363z"/>
		<path fill="#231F20" d="M71.38,240.84v-4.502h-0.64v-0.684h0.64v-0.552c0-0.407,0.042-0.712,0.127-0.915
			c0.084-0.204,0.214-0.359,0.389-0.467c0.174-0.107,0.394-0.161,0.658-0.161c0.206,0,0.431,0.031,0.676,0.093l-0.107,0.762
			c-0.15-0.032-0.292-0.049-0.425-0.049c-0.215,0-0.369,0.057-0.461,0.168c-0.093,0.113-0.139,0.327-0.139,0.643v0.479h0.83v0.684
			h-0.83v4.502H71.38z"/>
		<path fill="#231F20" d="M73.46,234.692v-1.011h0.718v1.011H73.46z M73.46,240.84v-5.186h0.718v5.186H73.46z"/>
		<path fill="#231F20" d="M75.281,240.84v-5.186h0.649v0.732c0.156-0.285,0.347-0.497,0.573-0.639
			c0.226-0.141,0.485-0.211,0.777-0.211c0.228,0,0.438,0.045,0.631,0.135c0.193,0.089,0.349,0.206,0.468,0.352
			c0.119,0.145,0.207,0.332,0.266,0.563s0.088,0.586,0.088,1.064v3.188h-0.718v-3.157c0-0.382-0.033-0.66-0.098-0.836
			c-0.065-0.177-0.167-0.313-0.305-0.408c-0.138-0.097-0.299-0.145-0.481-0.145c-0.345,0-0.62,0.129-0.825,0.386
			c-0.205,0.258-0.308,0.699-0.308,1.325v2.835H75.281z"/>
		<path fill="#231F20" d="M79.842,234.692v-1.011h0.718v1.011H79.842z M79.842,240.84v-5.186h0.718v5.186H79.842z"/>
		<path fill="#231F20" d="M81.385,239.287l0.718-0.137c0.042,0.366,0.157,0.639,0.346,0.816c0.188,0.179,0.438,0.268,0.75,0.268
			c0.312,0,0.553-0.077,0.723-0.232c0.17-0.154,0.256-0.351,0.256-0.588c0-0.205-0.073-0.364-0.22-0.479
			c-0.101-0.078-0.345-0.176-0.732-0.293c-0.56-0.173-0.934-0.319-1.123-0.439s-0.335-0.281-0.439-0.483s-0.156-0.432-0.156-0.688
			c0-0.442,0.142-0.803,0.425-1.079s0.675-0.415,1.177-0.415c0.316,0,0.593,0.057,0.833,0.171s0.422,0.267,0.549,0.459
			s0.215,0.467,0.264,0.825l-0.703,0.117c-0.065-0.566-0.373-0.85-0.923-0.85c-0.313,0-0.545,0.063-0.698,0.188
			s-0.229,0.284-0.229,0.479c0,0.191,0.073,0.342,0.22,0.452c0.088,0.065,0.349,0.169,0.783,0.312
			c0.596,0.189,0.982,0.34,1.157,0.453c0.175,0.112,0.312,0.266,0.409,0.459c0.097,0.194,0.146,0.425,0.146,0.692
			c0,0.496-0.157,0.896-0.471,1.203s-0.743,0.46-1.287,0.46C82.138,240.957,81.547,240.4,81.385,239.287z"/>
		<path fill="#231F20" d="M85.765,240.84v-7.158h0.718v2.568c0.169-0.237,0.36-0.416,0.574-0.535
			c0.213-0.118,0.448-0.178,0.706-0.178c0.453,0,0.81,0.145,1.072,0.432c0.262,0.289,0.393,0.816,0.393,1.585v3.286h-0.718v-3.286
			c0-0.449-0.08-0.771-0.239-0.967s-0.379-0.293-0.659-0.293c-0.313,0-0.579,0.125-0.798,0.376s-0.33,0.695-0.33,1.333v2.837H85.765
			z"/>
	</g>
	<g>
		<path fill="#231F20" d="M181.193,253.059h-0.723v-5.601c-0.166,0.195-0.389,0.395-0.669,0.598
			c-0.28,0.204-0.537,0.357-0.771,0.462v-0.85c0.397-0.228,0.748-0.506,1.052-0.835c0.305-0.329,0.519-0.649,0.643-0.962h0.469
			V253.059z"/>
	</g>
	<g>
		<path fill="#231F20" d="M237.447,178.101v0.845h-3.882c-0.01-0.342,0.094-0.725,0.31-1.148c0.217-0.424,0.613-0.923,1.189-1.5
			c0.674-0.671,1.115-1.19,1.323-1.557s0.313-0.708,0.313-1.024c0-0.365-0.106-0.662-0.319-0.892
			c-0.214-0.23-0.477-0.345-0.789-0.345c-0.335,0-0.61,0.124-0.825,0.373c-0.215,0.248-0.322,0.604-0.322,1.068l-0.742-0.093
			c0.052-0.687,0.247-1.204,0.583-1.55c0.338-0.347,0.781-0.52,1.331-0.52c0.599,0,1.052,0.202,1.36,0.605
			c0.307,0.404,0.461,0.862,0.461,1.376c0,0.456-0.12,0.892-0.361,1.31c-0.241,0.418-0.698,0.976-1.372,1.673
			c-0.43,0.439-0.707,0.739-0.833,0.899c-0.125,0.16-0.227,0.319-0.305,0.479H237.447z"/>
	</g>
	<g>
		<path fill="#231F20" d="M234.154,126.152l0.718-0.117c0.15,0.941,0.53,1.411,1.14,1.411c0.33,0,0.615-0.139,0.856-0.418
			s0.362-0.64,0.362-1.083c0-0.417-0.11-0.753-0.332-1.008s-0.493-0.381-0.815-0.381c-0.137,0-0.306,0.033-0.508,0.098l0.083-0.771
			l0.112,0.01c0.356,0,0.646-0.109,0.868-0.327c0.222-0.217,0.333-0.508,0.333-0.872c0-0.334-0.093-0.603-0.279-0.806
			c-0.186-0.203-0.412-0.305-0.68-0.305c-0.277,0-0.512,0.106-0.703,0.32c-0.19,0.213-0.313,0.536-0.364,0.969l-0.718-0.156
			c0.091-0.612,0.296-1.074,0.615-1.387s0.705-0.469,1.157-0.469c0.476,0,0.879,0.176,1.211,0.527
			c0.332,0.352,0.498,0.794,0.498,1.328c0,0.325-0.07,0.613-0.211,0.863s-0.338,0.447-0.59,0.59
			c0.233,0.065,0.426,0.173,0.578,0.322c0.152,0.15,0.275,0.35,0.37,0.6c0.094,0.25,0.141,0.53,0.141,0.839
			c0,0.657-0.193,1.195-0.581,1.613s-0.852,0.627-1.392,0.627c-0.501,0-0.926-0.182-1.274-0.547S234.203,126.768,234.154,126.152z"
			/>
	</g>
	<g>
		<path fill="#231F20" d="M244.464,203.576v-7.158h0.796l3.086,5.631v-5.631h0.742v7.158h-0.796l-3.081-5.632v5.632H244.464z"/>
		<path fill="#231F20" d="M250.031,200.983c0-0.895,0.188-1.571,0.564-2.026c0.375-0.456,0.852-0.684,1.428-0.684
			c0.566,0,1.04,0.228,1.421,0.684s0.571,1.113,0.571,1.973c0,0.931-0.188,1.625-0.562,2.08s-0.852,0.684-1.431,0.684
			c-0.569,0-1.044-0.229-1.424-0.686C250.22,202.549,250.031,201.875,250.031,200.983z M250.768,200.98
			c0,0.671,0.122,1.171,0.366,1.499s0.547,0.491,0.908,0.491c0.339,0,0.629-0.166,0.871-0.496c0.243-0.331,0.364-0.829,0.364-1.494
			c0-0.668-0.122-1.166-0.366-1.494s-0.547-0.491-0.908-0.491c-0.342,0-0.633,0.165-0.874,0.494S250.768,200.315,250.768,200.98z"/>
		<path fill="#231F20" d="M254.865,203.576v-5.186h0.649v0.786c0.166-0.365,0.318-0.606,0.456-0.725
			c0.139-0.119,0.294-0.178,0.467-0.178c0.241,0,0.486,0.094,0.737,0.283l-0.244,0.815c-0.179-0.127-0.354-0.19-0.522-0.19
			c-0.153,0-0.293,0.054-0.42,0.161s-0.217,0.257-0.269,0.449c-0.091,0.335-0.137,0.692-0.137,1.069v2.715H254.865z"/>
		<path fill="#231F20" d="M259.196,202.79l0.098,0.776c-0.198,0.052-0.378,0.078-0.537,0.078c-0.251,0-0.452-0.05-0.605-0.149
			s-0.258-0.235-0.315-0.408c-0.057-0.172-0.085-0.516-0.085-1.03v-2.983h-0.527v-0.684h0.527v-1.284l0.718-0.527v1.812h0.728v0.684
			h-0.728v3.032c0,0.28,0.021,0.46,0.063,0.542c0.062,0.117,0.178,0.176,0.347,0.176
			C258.959,202.824,259.066,202.813,259.196,202.79z"/>
		<path fill="#231F20" d="M259.875,203.576v-7.158h0.718v2.568c0.169-0.238,0.36-0.416,0.573-0.535
			c0.214-0.119,0.449-0.178,0.706-0.178c0.452,0,0.81,0.144,1.071,0.432c0.263,0.288,0.394,0.816,0.394,1.584v3.286h-0.718v-3.286
			c0-0.449-0.08-0.771-0.239-0.967s-0.379-0.293-0.659-0.293c-0.313,0-0.578,0.125-0.799,0.376c-0.219,0.25-0.329,0.695-0.329,1.333
			v2.837H259.875z"/>
		<path fill="#231F20" d="M243.535,210.271l0.732-0.078c0.039,0.394,0.128,0.701,0.266,0.92c0.139,0.22,0.337,0.396,0.594,0.53
			s0.547,0.2,0.869,0.2c0.462,0,0.821-0.113,1.076-0.338c0.256-0.226,0.384-0.519,0.384-0.88c0-0.211-0.046-0.396-0.14-0.553
			c-0.092-0.158-0.232-0.287-0.42-0.388c-0.187-0.101-0.591-0.243-1.213-0.427c-0.554-0.165-0.947-0.33-1.182-0.496
			s-0.417-0.377-0.547-0.632s-0.195-0.544-0.195-0.867c0-0.58,0.188-1.053,0.562-1.421s0.879-0.552,1.514-0.552
			c0.437,0,0.817,0.086,1.146,0.259c0.326,0.172,0.58,0.42,0.762,0.742c0.18,0.322,0.277,0.702,0.29,1.138l-0.747,0.068
			c-0.039-0.465-0.178-0.811-0.418-1.035c-0.238-0.225-0.575-0.337-1.008-0.337c-0.439,0-0.774,0.099-1.006,0.295
			s-0.347,0.452-0.347,0.764c0,0.29,0.085,0.514,0.254,0.674c0.169,0.159,0.55,0.321,1.143,0.484c0.579,0.16,0.985,0.299,1.22,0.417
			c0.358,0.183,0.628,0.423,0.811,0.721c0.183,0.298,0.274,0.653,0.274,1.066c0,0.41-0.096,0.783-0.288,1.119
			c-0.192,0.337-0.453,0.593-0.783,0.769c-0.331,0.175-0.729,0.263-1.194,0.263c-0.726,0-1.305-0.218-1.735-0.654
			C243.775,211.607,243.551,211.017,243.535,210.271z"/>
		<path fill="#231F20" d="M248.891,209.983c0-0.895,0.188-1.571,0.563-2.026c0.377-0.456,0.853-0.684,1.429-0.684
			c0.566,0,1.04,0.228,1.421,0.684s0.571,1.113,0.571,1.973c0,0.931-0.188,1.625-0.562,2.08s-0.852,0.684-1.431,0.684
			c-0.569,0-1.044-0.229-1.423-0.686C249.081,211.549,248.891,210.875,248.891,209.983z M249.628,209.98
			c0,0.671,0.122,1.171,0.366,1.499s0.547,0.491,0.908,0.491c0.339,0,0.629-0.166,0.872-0.496c0.242-0.331,0.363-0.829,0.363-1.494
			c0-0.668-0.122-1.166-0.366-1.494s-0.547-0.491-0.908-0.491c-0.342,0-0.633,0.165-0.874,0.494S249.628,209.315,249.628,209.98z"/>
		<path fill="#231F20" d="M256.508,212.576v-0.762c-0.166,0.293-0.361,0.513-0.586,0.659s-0.479,0.22-0.762,0.22
			c-0.335,0-0.622-0.09-0.859-0.271s-0.396-0.409-0.476-0.686c-0.08-0.277-0.12-0.654-0.12-1.133v-3.213h0.718v2.876
			c0,0.534,0.027,0.891,0.08,1.072c0.055,0.181,0.153,0.326,0.299,0.435c0.145,0.109,0.31,0.164,0.495,0.164
			c0.345,0,0.628-0.142,0.85-0.425c0.188-0.244,0.283-0.692,0.283-1.343v-2.778h0.723v5.186H256.508z"/>
		<path fill="#231F20" d="M259.887,211.79l0.098,0.776c-0.198,0.052-0.378,0.078-0.537,0.078c-0.251,0-0.452-0.05-0.605-0.149
			s-0.258-0.235-0.315-0.408c-0.057-0.172-0.085-0.516-0.085-1.03v-2.983h-0.527v-0.684h0.527v-1.284l0.718-0.527v1.812h0.728v0.684
			h-0.728v3.032c0,0.28,0.021,0.46,0.063,0.542c0.062,0.117,0.178,0.176,0.347,0.176
			C259.651,211.824,259.757,211.813,259.887,211.79z"/>
		<path fill="#231F20" d="M260.566,212.576v-7.158h0.718v2.568c0.169-0.238,0.36-0.416,0.573-0.535
			c0.214-0.119,0.449-0.178,0.706-0.178c0.452,0,0.81,0.144,1.071,0.432c0.263,0.288,0.394,0.816,0.394,1.584v3.286h-0.718v-3.286
			c0-0.449-0.08-0.771-0.239-0.967s-0.379-0.293-0.659-0.293c-0.313,0-0.578,0.125-0.799,0.376c-0.219,0.25-0.329,0.695-0.329,1.333
			v2.837H260.566z"/>
		<path fill="#231F20" d="M239.699,221.576v-7.158h2.603c0.544,0,0.944,0.067,1.204,0.2c0.258,0.133,0.471,0.355,0.637,0.666
			s0.249,0.671,0.249,1.081c0,0.54-0.141,0.978-0.423,1.313c-0.281,0.335-0.69,0.548-1.228,0.639
			c0.218,0.131,0.384,0.264,0.498,0.398c0.231,0.273,0.435,0.578,0.61,0.913l1.025,1.948h-0.977l-0.783-1.488
			c-0.303-0.583-0.532-0.975-0.687-1.177s-0.304-0.338-0.448-0.409c-0.145-0.07-0.348-0.105-0.607-0.105h-0.897v3.179H239.699z
			 M240.475,217.577h1.67c0.364,0,0.642-0.044,0.83-0.132s0.339-0.226,0.449-0.415s0.166-0.409,0.166-0.659
			c0-0.361-0.105-0.646-0.317-0.852s-0.525-0.31-0.942-0.31h-1.855V217.577z"/>
		<path fill="#231F20" d="M248.302,221.576v-0.762c-0.166,0.293-0.361,0.513-0.586,0.659s-0.479,0.22-0.762,0.22
			c-0.335,0-0.622-0.09-0.859-0.271s-0.396-0.409-0.477-0.686c-0.079-0.277-0.119-0.654-0.119-1.133v-3.213h0.718v2.876
			c0,0.534,0.026,0.891,0.081,1.072c0.053,0.181,0.152,0.326,0.297,0.435c0.146,0.109,0.311,0.164,0.496,0.164
			c0.345,0,0.628-0.142,0.85-0.425c0.188-0.244,0.283-0.692,0.283-1.343v-2.778h0.723v5.186H248.302z"/>
		<path fill="#231F20" d="M250.08,221.576v-5.186h0.649v0.732c0.156-0.285,0.347-0.498,0.572-0.638
			c0.227-0.141,0.485-0.211,0.778-0.211c0.227,0,0.438,0.045,0.631,0.134s0.35,0.207,0.468,0.352
			c0.119,0.145,0.207,0.333,0.266,0.564s0.088,0.586,0.088,1.064v3.188h-0.718v-3.158c0-0.381-0.032-0.66-0.098-0.836
			c-0.065-0.176-0.167-0.312-0.305-0.408c-0.139-0.096-0.299-0.144-0.481-0.144c-0.345,0-0.62,0.129-0.825,0.386
			s-0.308,0.699-0.308,1.325v2.835H250.08z"/>
		<path fill="#231F20" d="M255.424,221.576l-1.307-5.186h0.745l0.677,2.993l0.251,1.113l0.225-1.069l0.675-3.037h0.743l0.633,3.008
			l0.215,0.991l0.243-1.001l0.726-2.998h0.703l-1.327,5.186h-0.751l-0.678-3.105l-0.162-0.884l-0.859,3.989H255.424z"/>
		<path fill="#231F20" d="M263.327,220.936c-0.241,0.25-0.491,0.439-0.752,0.566s-0.53,0.19-0.811,0.19
			c-0.442,0-0.796-0.133-1.06-0.4s-0.396-0.626-0.396-1.079c0-0.299,0.062-0.565,0.186-0.796s0.293-0.412,0.508-0.542
			s0.54-0.226,0.977-0.288c0.586-0.086,1.016-0.188,1.289-0.308l0.005-0.225c0-0.355-0.063-0.604-0.19-0.747
			c-0.179-0.208-0.454-0.313-0.825-0.313c-0.335,0-0.586,0.07-0.752,0.208c-0.166,0.139-0.288,0.4-0.366,0.783l-0.708-0.117
			c0.101-0.557,0.305-0.962,0.613-1.216c0.307-0.254,0.747-0.381,1.32-0.381c0.446,0,0.796,0.084,1.05,0.251
			s0.414,0.375,0.481,0.623c0.066,0.248,0.1,0.609,0.1,1.084v1.172c0,0.82,0.016,1.337,0.047,1.55
			c0.03,0.213,0.092,0.421,0.183,0.623h-0.752C263.398,221.396,263.349,221.184,263.327,220.936z M263.268,218.973
			c-0.264,0.13-0.656,0.241-1.177,0.332c-0.303,0.052-0.515,0.111-0.635,0.178s-0.214,0.161-0.281,0.283
			c-0.066,0.122-0.1,0.263-0.1,0.422c0,0.248,0.076,0.445,0.229,0.593s0.364,0.222,0.635,0.222c0.257,0,0.491-0.067,0.7-0.2
			c0.211-0.133,0.367-0.312,0.472-0.535s0.156-0.548,0.156-0.974V218.973z"/>
		<path fill="#231F20" d="M265.094,223.573l-0.078-0.825c0.159,0.052,0.297,0.078,0.41,0.078c0.153,0,0.279-0.031,0.379-0.093
			s0.182-0.158,0.247-0.288c0.022-0.046,0.117-0.333,0.283-0.861l-1.617-5.193h0.776l0.889,3.001c0.11,0.374,0.213,0.774,0.308,1.2
			c0.081-0.403,0.179-0.797,0.293-1.181l0.908-3.021h0.723l-1.613,5.273c-0.212,0.684-0.379,1.14-0.501,1.37
			s-0.261,0.395-0.416,0.496c-0.154,0.101-0.33,0.151-0.525,0.151C265.421,223.68,265.267,223.645,265.094,223.573z"/>
	</g>
	<g>
		<path fill="#231F20" d="M31.385,273.292l0.732-0.078c0.039,0.394,0.128,0.7,0.266,0.921c0.138,0.219,0.336,0.396,0.593,0.529
			s0.547,0.2,0.869,0.2c0.462,0,0.821-0.113,1.077-0.339s0.383-0.519,0.383-0.879c0-0.212-0.046-0.396-0.139-0.554
			c-0.093-0.157-0.233-0.286-0.42-0.387s-0.592-0.243-1.213-0.428c-0.553-0.164-0.947-0.329-1.182-0.495s-0.417-0.377-0.547-0.633
			c-0.13-0.255-0.195-0.544-0.195-0.866c0-0.579,0.187-1.053,0.562-1.421s0.879-0.552,1.514-0.552c0.436,0,0.818,0.086,1.145,0.259
			s0.581,0.42,0.762,0.742s0.277,0.701,0.291,1.138l-0.747,0.068c-0.039-0.466-0.178-0.811-0.417-1.035s-0.575-0.337-1.008-0.337
			c-0.439,0-0.775,0.099-1.006,0.295c-0.231,0.197-0.347,0.452-0.347,0.765c0,0.29,0.084,0.514,0.254,0.674
			c0.169,0.159,0.55,0.321,1.142,0.484c0.579,0.16,0.986,0.299,1.22,0.417c0.358,0.183,0.628,0.423,0.811,0.721
			s0.274,0.653,0.274,1.065c0,0.41-0.096,0.783-0.288,1.12c-0.192,0.336-0.453,0.592-0.784,0.768s-0.729,0.264-1.194,0.264
			c-0.726,0-1.305-0.218-1.736-0.654S31.401,274.037,31.385,273.292z"/>
		<path fill="#231F20" d="M39.798,275.597v-0.762c-0.166,0.293-0.361,0.513-0.586,0.659s-0.479,0.22-0.762,0.22
			c-0.335,0-0.622-0.091-0.859-0.271c-0.238-0.182-0.396-0.41-0.476-0.687s-0.12-0.654-0.12-1.133v-3.213h0.718v2.876
			c0,0.534,0.027,0.891,0.081,1.072c0.054,0.18,0.153,0.325,0.298,0.434c0.145,0.109,0.31,0.164,0.496,0.164
			c0.345,0,0.628-0.142,0.85-0.425c0.189-0.244,0.283-0.691,0.283-1.343v-2.778h0.723v5.186H39.798z"/>
		<path fill="#231F20" d="M41.576,275.597v-5.186h0.649v0.732c0.156-0.285,0.347-0.497,0.573-0.639
			c0.226-0.141,0.485-0.211,0.777-0.211c0.228,0,0.438,0.045,0.631,0.134c0.193,0.09,0.349,0.207,0.468,0.352
			c0.119,0.146,0.207,0.333,0.266,0.564s0.088,0.586,0.088,1.064v3.188H44.31v-3.157c0-0.382-0.033-0.66-0.098-0.836
			c-0.065-0.177-0.167-0.313-0.305-0.408c-0.138-0.097-0.299-0.145-0.481-0.145c-0.345,0-0.62,0.129-0.825,0.386
			c-0.205,0.258-0.308,0.699-0.308,1.325v2.835H41.576z"/>
		<path fill="#231F20" d="M45.858,274.044l0.718-0.137c0.042,0.366,0.158,0.639,0.346,0.816c0.188,0.179,0.438,0.268,0.75,0.268
			c0.312,0,0.553-0.077,0.723-0.231c0.17-0.155,0.256-0.352,0.256-0.589c0-0.205-0.073-0.364-0.22-0.479
			c-0.101-0.078-0.345-0.176-0.732-0.293c-0.56-0.173-0.934-0.319-1.123-0.439s-0.335-0.281-0.439-0.483s-0.156-0.432-0.156-0.688
			c0-0.442,0.142-0.803,0.425-1.079s0.675-0.415,1.177-0.415c0.316,0,0.593,0.057,0.833,0.171s0.422,0.267,0.549,0.459
			s0.215,0.467,0.264,0.825l-0.703,0.117c-0.065-0.566-0.373-0.85-0.923-0.85c-0.313,0-0.545,0.063-0.698,0.188
			s-0.229,0.284-0.229,0.479c0,0.191,0.073,0.343,0.22,0.452c0.088,0.065,0.349,0.169,0.783,0.312
			c0.596,0.189,0.982,0.34,1.157,0.452c0.175,0.113,0.312,0.267,0.409,0.46c0.097,0.194,0.146,0.425,0.146,0.692
			c0,0.496-0.157,0.896-0.471,1.203s-0.743,0.46-1.287,0.46C46.611,275.714,46.021,275.157,45.858,274.044z"/>
		<path fill="#231F20" d="M53.143,273.927l0.742,0.112c-0.124,0.554-0.348,0.971-0.671,1.252c-0.324,0.282-0.725,0.423-1.204,0.423
			c-0.602,0-1.09-0.229-1.462-0.687c-0.373-0.457-0.559-1.117-0.559-1.979c0-0.896,0.188-1.578,0.564-2.048
			c0.376-0.471,0.852-0.706,1.428-0.706c0.55,0,1.009,0.231,1.377,0.693s0.552,1.131,0.552,2.007l-0.005,0.234h-3.174
			c0.029,0.583,0.165,1.022,0.405,1.318s0.534,0.444,0.879,0.444C52.556,274.991,52.932,274.637,53.143,273.927z M50.775,272.506
			h2.373c-0.033-0.449-0.128-0.784-0.288-1.006c-0.231-0.322-0.526-0.483-0.884-0.483c-0.322,0-0.597,0.134-0.825,0.403
			C50.923,271.688,50.798,272.05,50.775,272.506z"/>
		<path fill="#231F20" d="M56.4,274.811l0.098,0.776c-0.199,0.052-0.377,0.078-0.537,0.078c-0.25,0-0.453-0.05-0.605-0.149
			c-0.153-0.099-0.258-0.234-0.315-0.407s-0.085-0.516-0.085-1.03v-2.983h-0.527v-0.684h0.527v-1.284l0.718-0.527v1.812H56.4v0.684
			h-0.728v3.032c0,0.28,0.021,0.461,0.063,0.542c0.062,0.117,0.177,0.176,0.347,0.176C56.164,274.845,56.27,274.833,56.4,274.811z"
			/>
		<path fill="#231F20" d="M59.432,275.597v-7.158h2.205c0.447,0,0.8,0.069,1.061,0.207c0.261,0.139,0.474,0.354,0.64,0.646
			c0.167,0.293,0.25,0.617,0.25,0.972c0,0.328-0.072,0.624-0.215,0.888c-0.144,0.264-0.345,0.475-0.605,0.634
			c0.34,0.124,0.608,0.335,0.805,0.633c0.196,0.299,0.294,0.666,0.294,1.103c0,0.433-0.089,0.813-0.266,1.141
			s-0.414,0.565-0.71,0.713c-0.296,0.148-0.703,0.223-1.221,0.223H59.432z M60.208,271.446h1.272c0.333,0,0.569-0.022,0.709-0.068
			c0.202-0.068,0.358-0.183,0.467-0.345c0.109-0.16,0.164-0.38,0.164-0.656c0-0.257-0.05-0.471-0.149-0.643
			c-0.099-0.17-0.231-0.288-0.396-0.354s-0.46-0.098-0.888-0.098h-1.179V271.446z M60.208,274.752h1.462
			c0.323,0,0.561-0.029,0.714-0.088c0.222-0.085,0.39-0.224,0.506-0.418c0.116-0.193,0.174-0.437,0.174-0.729
			c0-0.271-0.056-0.499-0.167-0.687c-0.111-0.187-0.26-0.323-0.447-0.41c-0.188-0.086-0.482-0.129-0.883-0.129h-1.36V274.752z"/>
		<path fill="#231F20" d="M67.733,273.927l0.742,0.112c-0.124,0.554-0.348,0.971-0.671,1.252c-0.324,0.282-0.725,0.423-1.204,0.423
			c-0.602,0-1.09-0.229-1.462-0.687c-0.373-0.457-0.559-1.117-0.559-1.979c0-0.896,0.188-1.578,0.564-2.048
			c0.376-0.471,0.852-0.706,1.428-0.706c0.55,0,1.009,0.231,1.377,0.693s0.552,1.131,0.552,2.007l-0.005,0.234h-3.174
			c0.029,0.583,0.165,1.022,0.405,1.318s0.534,0.444,0.879,0.444C67.146,274.991,67.521,274.637,67.733,273.927z M65.365,272.506
			h2.373c-0.033-0.449-0.128-0.784-0.288-1.006c-0.231-0.322-0.526-0.483-0.884-0.483c-0.322,0-0.597,0.134-0.825,0.403
			C65.513,271.688,65.388,272.05,65.365,272.506z"/>
		<path fill="#231F20" d="M69.388,275.597v-5.186h0.649v0.732c0.156-0.285,0.347-0.497,0.573-0.639
			c0.226-0.141,0.485-0.211,0.777-0.211c0.228,0,0.438,0.045,0.631,0.134c0.193,0.09,0.349,0.207,0.468,0.352
			c0.119,0.146,0.207,0.333,0.266,0.564s0.088,0.586,0.088,1.064v3.188h-0.718v-3.157c0-0.382-0.033-0.66-0.098-0.836
			c-0.065-0.177-0.167-0.313-0.305-0.408c-0.138-0.097-0.299-0.145-0.481-0.145c-0.345,0-0.62,0.129-0.825,0.386
			c-0.205,0.258-0.308,0.699-0.308,1.325v2.835H69.388z"/>
		<path fill="#231F20" d="M76.703,275.597v-0.654c-0.13,0.251-0.298,0.442-0.503,0.573c-0.205,0.133-0.426,0.198-0.664,0.198
			c-0.501,0-0.935-0.237-1.301-0.71c-0.366-0.475-0.549-1.141-0.549-2c0-0.589,0.081-1.089,0.244-1.499s0.379-0.715,0.651-0.913
			s0.573-0.298,0.904-0.298c0.237,0,0.458,0.063,0.661,0.188c0.203,0.125,0.371,0.3,0.504,0.524v-2.568h0.728v7.158H76.703z
			 M74.422,273.009c0,0.671,0.116,1.169,0.349,1.494s0.504,0.488,0.814,0.488c0.306,0,0.571-0.156,0.796-0.469
			c0.225-0.313,0.337-0.784,0.337-1.416c0-0.726-0.112-1.256-0.337-1.589c-0.225-0.334-0.508-0.501-0.851-0.501
			c-0.303,0-0.563,0.16-0.782,0.481C74.531,271.818,74.422,272.322,74.422,273.009z"/>
	</g>
	<g>
		<path fill="#231F20" d="M149.622,25.805l-1.563-7.158h0.794l0.895,4.692c0.095,0.482,0.178,0.97,0.249,1.465l0.264-1.323
			l1.117-4.834h0.943l0.837,3.623c0.204,0.882,0.356,1.727,0.458,2.534c0.074-0.465,0.171-0.985,0.288-1.558l0.924-4.6h0.781
			l-1.613,7.158h-0.747l-1.24-5.454l-0.186-0.84c-0.055,0.313-0.111,0.592-0.17,0.84l-1.246,5.454H149.622z"/>
		<path fill="#231F20" d="M158.978,24.135l0.742,0.112c-0.124,0.553-0.348,0.971-0.672,1.252c-0.323,0.282-0.725,0.422-1.203,0.422
			c-0.603,0-1.09-0.229-1.463-0.686c-0.372-0.458-0.559-1.117-0.559-1.98c0-0.895,0.188-1.578,0.564-2.048
			c0.375-0.47,0.852-0.706,1.428-0.706c0.55,0,1.009,0.231,1.377,0.693s0.552,1.131,0.552,2.007l-0.005,0.234h-3.174
			c0.029,0.583,0.164,1.022,0.405,1.318s0.534,0.444,0.879,0.444C158.39,25.199,158.766,24.844,158.978,24.135z M156.61,22.714
			h2.373c-0.032-0.449-0.129-0.785-0.288-1.006c-0.231-0.322-0.525-0.483-0.884-0.483c-0.322,0-0.598,0.134-0.825,0.403
			S156.632,22.258,156.61,22.714z"/>
		<path fill="#231F20" d="M161.292,25.805h-0.669v-7.158h0.723V21.2c0.153-0.234,0.326-0.409,0.521-0.525
			c0.193-0.116,0.409-0.173,0.646-0.173c0.332,0,0.634,0.099,0.906,0.298c0.271,0.199,0.488,0.5,0.651,0.903s0.244,0.894,0.244,1.47
			c0,0.879-0.185,1.557-0.553,2.034s-0.799,0.715-1.291,0.715c-0.248,0-0.471-0.064-0.668-0.193s-0.367-0.32-0.511-0.574V25.805z
			 M161.282,23.173c0,0.537,0.049,0.939,0.146,1.206c0.099,0.267,0.237,0.47,0.416,0.61c0.18,0.14,0.379,0.21,0.598,0.21
			c0.297,0,0.561-0.167,0.791-0.5c0.229-0.333,0.345-0.833,0.345-1.497c0-0.68-0.111-1.18-0.333-1.499s-0.494-0.479-0.817-0.479
			c-0.297,0-0.563,0.167-0.796,0.5S161.282,22.542,161.282,23.173z"/>
		<path fill="#231F20" d="M164.916,24.252l0.718-0.137c0.042,0.366,0.157,0.639,0.346,0.816c0.188,0.179,0.438,0.268,0.75,0.268
			c0.313,0,0.554-0.077,0.724-0.232c0.171-0.155,0.256-0.351,0.256-0.588c0-0.205-0.073-0.365-0.22-0.479
			c-0.101-0.078-0.345-0.176-0.732-0.293c-0.56-0.172-0.935-0.319-1.123-0.439s-0.335-0.282-0.439-0.483s-0.156-0.431-0.156-0.688
			c0-0.443,0.142-0.802,0.425-1.079s0.676-0.415,1.177-0.415c0.315,0,0.593,0.057,0.833,0.171c0.238,0.114,0.422,0.267,0.549,0.459
			s0.215,0.467,0.264,0.825l-0.703,0.117c-0.065-0.566-0.373-0.85-0.923-0.85c-0.313,0-0.545,0.063-0.698,0.187
			c-0.153,0.125-0.229,0.285-0.229,0.479c0,0.191,0.073,0.342,0.22,0.453c0.089,0.064,0.35,0.168,0.783,0.311
			c0.597,0.189,0.982,0.34,1.157,0.453s0.312,0.266,0.409,0.46c0.097,0.194,0.146,0.425,0.146,0.692
			c0,0.496-0.157,0.897-0.472,1.203c-0.313,0.307-0.742,0.46-1.286,0.46C165.669,25.922,165.079,25.365,164.916,24.252z"/>
		<path fill="#231F20" d="M170.897,25.019l0.098,0.776c-0.198,0.052-0.378,0.078-0.537,0.078c-0.251,0-0.452-0.05-0.605-0.149
			s-0.258-0.235-0.315-0.408c-0.057-0.172-0.085-0.516-0.085-1.03v-2.983h-0.527v-0.684h0.527v-1.284l0.718-0.527v1.812h0.728v0.684
			h-0.728v3.032c0,0.28,0.021,0.46,0.063,0.542c0.062,0.117,0.178,0.176,0.347,0.176C170.661,25.053,170.767,25.042,170.897,25.019z
			"/>
		<path fill="#231F20" d="M174.481,24.135l0.742,0.112c-0.124,0.553-0.348,0.971-0.671,1.252c-0.324,0.282-0.726,0.422-1.204,0.422
			c-0.603,0-1.09-0.229-1.462-0.686c-0.373-0.458-0.56-1.117-0.56-1.98c0-0.895,0.188-1.578,0.563-2.048
			c0.377-0.47,0.853-0.706,1.429-0.706c0.55,0,1.009,0.231,1.377,0.693s0.552,1.131,0.552,2.007l-0.005,0.234h-3.174
			c0.029,0.583,0.164,1.022,0.405,1.318s0.534,0.444,0.879,0.444C173.893,25.199,174.269,24.844,174.481,24.135z M172.113,22.714
			h2.373c-0.032-0.449-0.129-0.785-0.288-1.006c-0.231-0.322-0.525-0.483-0.884-0.483c-0.322,0-0.598,0.134-0.825,0.403
			S172.135,22.258,172.113,22.714z"/>
		<path fill="#231F20" d="M176.136,25.805v-5.186h0.649v0.786c0.166-0.365,0.318-0.606,0.456-0.725
			c0.139-0.119,0.294-0.178,0.467-0.178c0.241,0,0.486,0.094,0.737,0.283l-0.244,0.815c-0.179-0.127-0.354-0.19-0.522-0.19
			c-0.153,0-0.293,0.054-0.42,0.161s-0.217,0.257-0.269,0.449c-0.091,0.335-0.137,0.692-0.137,1.069v2.715H176.136z"/>
		<path fill="#231F20" d="M156.996,34.805v-6.313h-1.934v-0.845h4.653v0.845h-1.943v6.313H156.996z"/>
		<path fill="#231F20" d="M162.884,34.805v-0.762c-0.166,0.293-0.361,0.513-0.586,0.659s-0.479,0.22-0.762,0.22
			c-0.335,0-0.622-0.09-0.859-0.271s-0.396-0.409-0.477-0.686c-0.079-0.277-0.119-0.654-0.119-1.133v-3.213h0.718v2.876
			c0,0.534,0.026,0.891,0.081,1.072c0.053,0.181,0.152,0.326,0.297,0.435c0.146,0.109,0.311,0.164,0.496,0.164
			c0.345,0,0.628-0.142,0.85-0.425c0.188-0.244,0.283-0.692,0.283-1.343v-2.778h0.723v5.186H162.884z"/>
		<path fill="#231F20" d="M164.662,34.805v-5.186h0.649v0.786c0.166-0.365,0.318-0.606,0.456-0.725
			c0.139-0.119,0.294-0.178,0.467-0.178c0.241,0,0.486,0.094,0.737,0.283l-0.244,0.815c-0.179-0.127-0.354-0.19-0.522-0.19
			c-0.153,0-0.293,0.054-0.42,0.161s-0.217,0.257-0.269,0.449c-0.091,0.335-0.137,0.692-0.137,1.069v2.715H164.662z"/>
		<path fill="#231F20" d="M167.391,34.805v-5.186h0.649v0.732c0.156-0.285,0.347-0.498,0.572-0.638
			c0.227-0.141,0.485-0.211,0.778-0.211c0.227,0,0.438,0.045,0.631,0.134s0.35,0.207,0.468,0.352
			c0.119,0.145,0.207,0.333,0.266,0.564s0.088,0.586,0.088,1.064v3.188h-0.718v-3.158c0-0.381-0.032-0.66-0.098-0.836
			c-0.065-0.176-0.167-0.312-0.306-0.408c-0.138-0.096-0.298-0.144-0.48-0.144c-0.345,0-0.62,0.129-0.825,0.386
			s-0.308,0.699-0.308,1.325v2.835H167.391z"/>
	</g>
	<g>
		<path fill="#231F20" d="M7.616,207.463v-7.158h0.776v2.939h3.052v-2.939h0.776v7.158h-0.776v-3.374H8.392v3.374H7.616z"/>
		<path fill="#231F20" d="M16.205,206.823c-0.241,0.25-0.492,0.439-0.752,0.566s-0.531,0.19-0.811,0.19
			c-0.443,0-0.796-0.133-1.06-0.4s-0.396-0.626-0.396-1.079c0-0.299,0.062-0.565,0.186-0.796s0.293-0.412,0.508-0.542
			s0.541-0.226,0.977-0.288c0.586-0.086,1.016-0.188,1.289-0.308l0.005-0.225c0-0.355-0.063-0.604-0.19-0.747
			c-0.179-0.208-0.454-0.313-0.825-0.313c-0.335,0-0.586,0.069-0.752,0.208s-0.288,0.4-0.366,0.783l-0.708-0.117
			c0.101-0.557,0.305-0.962,0.613-1.216s0.748-0.381,1.321-0.381c0.446,0,0.796,0.084,1.05,0.251s0.414,0.375,0.481,0.623
			s0.1,0.609,0.1,1.084v1.172c0,0.82,0.016,1.337,0.046,1.55s0.092,0.421,0.183,0.623h-0.752
			C16.276,207.284,16.228,207.071,16.205,206.823z M16.146,204.86c-0.264,0.13-0.656,0.241-1.177,0.332
			c-0.303,0.052-0.514,0.111-0.635,0.178s-0.214,0.161-0.281,0.283s-0.1,0.263-0.1,0.422c0,0.248,0.077,0.445,0.229,0.593
			s0.365,0.222,0.635,0.222c0.257,0,0.491-0.067,0.701-0.2s0.367-0.312,0.471-0.535s0.156-0.548,0.156-0.974V204.86z"/>
		<path fill="#231F20" d="M17.997,201.315v-1.011h0.718v1.011H17.997z M17.997,207.463v-5.186h0.718v5.186H17.997z"/>
		<path fill="#231F20" d="M19.818,207.463v-5.186h0.649v0.786c0.166-0.365,0.318-0.606,0.457-0.725s0.294-0.178,0.466-0.178
			c0.241,0,0.487,0.094,0.737,0.283l-0.244,0.815c-0.179-0.127-0.353-0.19-0.522-0.19c-0.153,0-0.293,0.054-0.42,0.161
			s-0.216,0.257-0.269,0.449c-0.091,0.335-0.137,0.692-0.137,1.069v2.715H19.818z"/>
		<path fill="#231F20" d="M22.547,209.45v-7.173h0.664v0.674c0.163-0.28,0.343-0.482,0.541-0.605s0.426-0.186,0.683-0.186
			c0.335,0,0.637,0.099,0.907,0.298c0.27,0.199,0.487,0.5,0.651,0.906s0.246,0.893,0.246,1.462c0,0.882-0.185,1.562-0.554,2.039
			s-0.803,0.715-1.301,0.715c-0.221,0-0.428-0.057-0.62-0.171s-0.358-0.275-0.498-0.483v2.524H22.547z M23.203,204.899
			c0,0.67,0.112,1.165,0.336,1.482s0.495,0.476,0.813,0.476c0.305,0,0.573-0.165,0.804-0.493s0.346-0.836,0.346-1.523
			c0-0.677-0.112-1.178-0.336-1.504c-0.224-0.326-0.497-0.488-0.818-0.488c-0.289,0-0.552,0.175-0.789,0.525
			C23.321,203.724,23.203,204.232,23.203,204.899z"/>
		<path fill="#231F20" d="M27.108,201.315v-1.011h0.718v1.011H27.108z M27.108,207.463v-5.186h0.718v5.186H27.108z"/>
		<path fill="#231F20" d="M28.929,207.463v-5.186h0.649v0.732c0.156-0.285,0.347-0.498,0.573-0.638
			c0.226-0.141,0.485-0.211,0.777-0.211c0.228,0,0.438,0.045,0.631,0.134s0.349,0.207,0.468,0.352s0.207,0.333,0.266,0.564
			s0.088,0.586,0.088,1.064v3.188h-0.718v-3.158c0-0.381-0.033-0.66-0.098-0.836c-0.065-0.176-0.167-0.312-0.305-0.408
			s-0.299-0.144-0.481-0.144c-0.345,0-0.62,0.129-0.825,0.386s-0.308,0.699-0.308,1.325v2.835H28.929z"/>
	</g>
	<g>
		<path fill="#231F20" d="M119.734,117.825v-6.313h-1.934v-0.845h4.653v0.845h-1.943v6.313H119.734z"/>
		<path fill="#231F20" d="M123.138,117.825v-7.158h0.718v2.568c0.169-0.238,0.36-0.416,0.574-0.535s0.448-0.178,0.706-0.178
			c0.453,0,0.81,0.144,1.072,0.432c0.262,0.288,0.393,0.816,0.393,1.584v3.286h-0.717v-3.286c0-0.449-0.08-0.771-0.239-0.967
			s-0.379-0.293-0.659-0.293c-0.313,0-0.579,0.125-0.798,0.376s-0.33,0.695-0.33,1.333v2.837H123.138z"/>
		<path fill="#231F20" d="M130.603,116.155l0.742,0.112c-0.124,0.553-0.348,0.971-0.672,1.252c-0.323,0.282-0.725,0.422-1.203,0.422
			c-0.603,0-1.09-0.229-1.463-0.686c-0.372-0.458-0.559-1.117-0.559-1.98c0-0.895,0.188-1.578,0.564-2.048
			c0.375-0.47,0.852-0.706,1.428-0.706c0.55,0,1.009,0.231,1.377,0.693s0.552,1.131,0.552,2.007l-0.005,0.234h-3.174
			c0.029,0.583,0.164,1.022,0.405,1.318s0.534,0.444,0.879,0.444C130.015,117.219,130.391,116.864,130.603,116.155z
			 M128.235,114.734h2.373c-0.032-0.449-0.129-0.785-0.288-1.006c-0.231-0.322-0.525-0.483-0.884-0.483
			c-0.322,0-0.598,0.134-0.825,0.403S128.257,114.278,128.235,114.734z"/>
		<path fill="#231F20" d="M134.656,117.825v-7.158h4.243v0.845h-3.467v2.188h3.247v0.845h-3.247v2.437h3.604v0.845H134.656z"/>
		<path fill="#231F20" d="M139.729,116.272l0.718-0.137c0.042,0.366,0.157,0.638,0.346,0.817c0.188,0.178,0.438,0.267,0.75,0.267
			c0.313,0,0.554-0.077,0.724-0.232c0.171-0.155,0.256-0.351,0.256-0.588c0-0.205-0.073-0.365-0.22-0.479
			c-0.101-0.078-0.345-0.176-0.732-0.293c-0.56-0.172-0.935-0.319-1.123-0.439s-0.335-0.282-0.439-0.483s-0.156-0.431-0.156-0.688
			c0-0.443,0.142-0.802,0.425-1.079s0.676-0.415,1.177-0.415c0.315,0,0.594,0.057,0.832,0.171c0.24,0.114,0.423,0.267,0.55,0.459
			s0.215,0.467,0.264,0.825l-0.703,0.117c-0.065-0.566-0.373-0.85-0.923-0.85c-0.313,0-0.545,0.063-0.698,0.187
			c-0.153,0.125-0.229,0.285-0.229,0.479c0,0.191,0.073,0.342,0.22,0.453c0.089,0.064,0.35,0.168,0.783,0.311
			c0.597,0.189,0.982,0.34,1.157,0.453s0.312,0.266,0.409,0.46c0.097,0.194,0.146,0.425,0.146,0.692
			c0,0.496-0.157,0.897-0.471,1.203c-0.314,0.307-0.743,0.46-1.287,0.46C140.483,117.942,139.892,117.385,139.729,116.272z"/>
		<path fill="#231F20" d="M143.831,116.272l0.718-0.137c0.042,0.366,0.157,0.638,0.346,0.817c0.188,0.178,0.438,0.267,0.75,0.267
			c0.313,0,0.554-0.077,0.724-0.232c0.171-0.155,0.256-0.351,0.256-0.588c0-0.205-0.073-0.365-0.22-0.479
			c-0.101-0.078-0.345-0.176-0.732-0.293c-0.56-0.172-0.935-0.319-1.123-0.439s-0.335-0.282-0.439-0.483s-0.156-0.431-0.156-0.688
			c0-0.443,0.142-0.802,0.425-1.079s0.676-0.415,1.177-0.415c0.315,0,0.594,0.057,0.832,0.171c0.24,0.114,0.423,0.267,0.55,0.459
			s0.215,0.467,0.264,0.825l-0.703,0.117c-0.065-0.566-0.373-0.85-0.923-0.85c-0.313,0-0.545,0.063-0.698,0.187
			c-0.153,0.125-0.229,0.285-0.229,0.479c0,0.191,0.073,0.342,0.22,0.453c0.089,0.064,0.35,0.168,0.783,0.311
			c0.597,0.189,0.982,0.34,1.157,0.453s0.312,0.266,0.409,0.46c0.097,0.194,0.146,0.425,0.146,0.692
			c0,0.496-0.157,0.897-0.471,1.203c-0.314,0.307-0.743,0.46-1.287,0.46C144.584,117.942,143.994,117.385,143.831,116.272z"/>
		<path fill="#231F20" d="M151.116,116.155l0.742,0.112c-0.124,0.553-0.348,0.971-0.671,1.252c-0.324,0.282-0.726,0.422-1.204,0.422
			c-0.603,0-1.09-0.229-1.462-0.686c-0.373-0.458-0.56-1.117-0.56-1.98c0-0.895,0.188-1.578,0.563-2.048
			c0.377-0.47,0.853-0.706,1.429-0.706c0.55,0,1.009,0.231,1.377,0.693s0.552,1.131,0.552,2.007l-0.005,0.234h-3.174
			c0.029,0.583,0.164,1.022,0.405,1.318s0.534,0.444,0.879,0.444C150.528,117.219,150.904,116.864,151.116,116.155z
			 M148.748,114.734h2.373c-0.032-0.449-0.129-0.785-0.288-1.006c-0.231-0.322-0.525-0.483-0.884-0.483
			c-0.322,0-0.598,0.134-0.825,0.403S148.77,114.278,148.748,114.734z"/>
		<path fill="#231F20" d="M152.493,116.272l0.718-0.137c0.042,0.366,0.157,0.638,0.346,0.817c0.188,0.178,0.438,0.267,0.75,0.267
			c0.313,0,0.554-0.077,0.724-0.232c0.171-0.155,0.256-0.351,0.256-0.588c0-0.205-0.073-0.365-0.22-0.479
			c-0.101-0.078-0.345-0.176-0.732-0.293c-0.56-0.172-0.935-0.319-1.123-0.439s-0.335-0.282-0.439-0.483s-0.156-0.431-0.156-0.688
			c0-0.443,0.142-0.802,0.425-1.079s0.676-0.415,1.177-0.415c0.315,0,0.594,0.057,0.832,0.171c0.24,0.114,0.423,0.267,0.55,0.459
			s0.215,0.467,0.264,0.825l-0.703,0.117c-0.065-0.566-0.373-0.85-0.923-0.85c-0.313,0-0.545,0.063-0.698,0.187
			c-0.153,0.125-0.229,0.285-0.229,0.479c0,0.191,0.073,0.342,0.22,0.453c0.089,0.064,0.35,0.168,0.783,0.311
			c0.597,0.189,0.982,0.34,1.157,0.453s0.312,0.266,0.409,0.46c0.097,0.194,0.146,0.425,0.146,0.692
			c0,0.496-0.157,0.897-0.471,1.203c-0.314,0.307-0.743,0.46-1.287,0.46C153.247,117.942,152.656,117.385,152.493,116.272z"/>
	</g>
	<g>
		<path fill="#231F20" d="M90.763,175.53v-7.158h2.205c0.447,0,0.8,0.069,1.061,0.208s0.474,0.354,0.64,0.646
			c0.167,0.292,0.25,0.616,0.25,0.971c0,0.329-0.072,0.625-0.215,0.888c-0.144,0.264-0.345,0.475-0.605,0.634
			c0.34,0.124,0.608,0.335,0.805,0.633c0.196,0.298,0.294,0.665,0.294,1.102c0,0.434-0.089,0.813-0.266,1.141
			c-0.177,0.327-0.414,0.565-0.71,0.713c-0.296,0.148-0.703,0.222-1.221,0.222H90.763z M91.54,171.379h1.272
			c0.333,0,0.569-0.023,0.709-0.068c0.202-0.068,0.358-0.183,0.467-0.344c0.109-0.161,0.164-0.38,0.164-0.657
			c0-0.257-0.05-0.471-0.149-0.642c-0.099-0.171-0.231-0.289-0.396-0.354s-0.46-0.098-0.888-0.098H91.54V171.379z M91.54,174.685
			h1.462c0.323,0,0.561-0.029,0.714-0.088c0.222-0.084,0.39-0.224,0.506-0.417s0.174-0.437,0.174-0.73
			c0-0.27-0.056-0.499-0.167-0.686s-0.26-0.324-0.447-0.41s-0.482-0.129-0.883-0.129h-1.36V174.685z"/>
		<path fill="#231F20" d="M96.159,169.382v-1.011h0.718v1.011H96.159z M96.159,175.53v-5.186h0.718v5.186H96.159z"/>
		<path fill="#231F20" d="M97.838,175.959l0.703,0.127c0.033,0.278,0.13,0.485,0.293,0.622c0.163,0.136,0.389,0.204,0.679,0.204
			c0.316,0,0.567-0.076,0.754-0.227s0.315-0.377,0.383-0.676c0.042-0.183,0.063-0.566,0.063-1.153
			c-0.156,0.223-0.332,0.392-0.527,0.504c-0.195,0.113-0.412,0.17-0.649,0.17c-0.508,0-0.929-0.215-1.265-0.645
			c-0.384-0.495-0.576-1.157-0.576-1.987c0-0.557,0.084-1.043,0.254-1.46s0.392-0.723,0.667-0.918s0.583-0.293,0.925-0.293
			c0.25,0,0.479,0.062,0.686,0.184c0.207,0.123,0.39,0.308,0.549,0.553v-0.62h0.664v4.482c0,0.797-0.065,1.366-0.195,1.707
			s-0.343,0.609-0.64,0.806s-0.653,0.295-1.069,0.295c-0.55,0-0.973-0.148-1.27-0.444S97.829,176.483,97.838,175.959z
			 M98.434,172.844c0,0.682,0.112,1.18,0.337,1.493c0.225,0.313,0.501,0.47,0.827,0.47s0.604-0.153,0.832-0.46
			c0.229-0.307,0.343-0.795,0.343-1.464c0-0.653-0.118-1.138-0.353-1.457c-0.234-0.318-0.52-0.477-0.856-0.477
			c-0.3,0-0.563,0.159-0.791,0.477C98.547,171.745,98.434,172.218,98.434,172.844z"/>
		<path fill="#231F20" d="M104.894,175.53v-7.158h2.205c0.446,0,0.8,0.069,1.061,0.208s0.474,0.354,0.641,0.646
			c0.166,0.292,0.249,0.616,0.249,0.971c0,0.329-0.071,0.625-0.215,0.888s-0.345,0.475-0.605,0.634
			c0.34,0.124,0.608,0.335,0.805,0.633s0.294,0.665,0.294,1.102c0,0.434-0.089,0.813-0.266,1.141
			c-0.178,0.327-0.415,0.565-0.711,0.713c-0.296,0.148-0.703,0.222-1.221,0.222H104.894z M105.67,171.379h1.271
			c0.333,0,0.569-0.023,0.71-0.068c0.202-0.068,0.357-0.183,0.467-0.344s0.164-0.38,0.164-0.657c0-0.257-0.05-0.471-0.149-0.642
			s-0.231-0.289-0.396-0.354c-0.164-0.065-0.46-0.098-0.888-0.098h-1.179V171.379z M105.67,174.685h1.463
			c0.322,0,0.561-0.029,0.714-0.088c0.222-0.084,0.391-0.224,0.506-0.417c0.116-0.194,0.174-0.437,0.174-0.73
			c0-0.27-0.056-0.499-0.166-0.686c-0.111-0.187-0.261-0.324-0.448-0.41s-0.481-0.129-0.883-0.129h-1.359V174.685z"/>
		<path fill="#231F20" d="M113.195,173.86l0.742,0.112c-0.124,0.553-0.348,0.971-0.672,1.252c-0.323,0.282-0.725,0.422-1.203,0.422
			c-0.603,0-1.09-0.229-1.463-0.686c-0.372-0.458-0.559-1.117-0.559-1.98c0-0.895,0.188-1.578,0.564-2.048
			c0.375-0.47,0.852-0.706,1.428-0.706c0.55,0,1.009,0.231,1.377,0.693s0.552,1.131,0.552,2.007l-0.005,0.234h-3.174
			c0.029,0.583,0.164,1.022,0.405,1.318s0.534,0.444,0.879,0.444C112.607,174.924,112.983,174.569,113.195,173.86z M110.827,172.439
			h2.373c-0.032-0.449-0.129-0.785-0.288-1.006c-0.231-0.322-0.525-0.483-0.884-0.483c-0.322,0-0.598,0.134-0.825,0.403
			S110.849,171.983,110.827,172.439z"/>
		<path fill="#231F20" d="M114.85,175.53v-5.186h0.649v0.732c0.156-0.285,0.347-0.498,0.572-0.638
			c0.227-0.141,0.485-0.211,0.778-0.211c0.227,0,0.438,0.045,0.631,0.134s0.35,0.207,0.468,0.352
			c0.119,0.145,0.207,0.333,0.266,0.564s0.088,0.586,0.088,1.064v3.188h-0.718v-3.158c0-0.381-0.032-0.66-0.098-0.836
			c-0.065-0.176-0.167-0.312-0.306-0.408c-0.138-0.096-0.298-0.144-0.48-0.144c-0.345,0-0.62,0.129-0.825,0.386
			s-0.308,0.699-0.308,1.325v2.835H114.85z"/>
		<path fill="#231F20" d="M122.165,175.53v-0.654c-0.13,0.25-0.298,0.442-0.503,0.574s-0.427,0.198-0.664,0.198
			c-0.501,0-0.936-0.237-1.301-0.71c-0.367-0.474-0.55-1.14-0.55-2c0-0.589,0.081-1.089,0.244-1.499
			c0.162-0.41,0.379-0.714,0.65-0.913s0.573-0.298,0.904-0.298c0.237,0,0.457,0.063,0.66,0.188s0.372,0.3,0.505,0.525v-2.568h0.728
			v7.158H122.165z M119.884,172.942c0,0.67,0.116,1.168,0.35,1.494c0.232,0.326,0.504,0.488,0.813,0.488
			c0.306,0,0.571-0.156,0.796-0.469s0.337-0.785,0.337-1.416c0-0.726-0.112-1.256-0.337-1.589s-0.508-0.5-0.85-0.5
			c-0.304,0-0.563,0.16-0.782,0.481C119.994,171.751,119.884,172.255,119.884,172.942z"/>
	</g>
	<g>
		<path fill="#231F20" d="M119.857,276.432v-7.158h2.205c0.447,0,0.8,0.069,1.061,0.207c0.261,0.139,0.474,0.354,0.64,0.646
			c0.167,0.293,0.25,0.617,0.25,0.972c0,0.328-0.072,0.624-0.215,0.888c-0.144,0.264-0.345,0.475-0.605,0.635
			c0.34,0.123,0.608,0.334,0.805,0.632c0.196,0.299,0.294,0.666,0.294,1.103c0,0.433-0.089,0.813-0.266,1.141
			s-0.414,0.565-0.71,0.713c-0.296,0.148-0.703,0.223-1.221,0.223H119.857z M120.634,272.281h1.272c0.333,0,0.569-0.022,0.709-0.068
			c0.202-0.068,0.358-0.184,0.467-0.344c0.109-0.162,0.164-0.381,0.164-0.657c0-0.257-0.05-0.472-0.149-0.642
			c-0.099-0.172-0.231-0.289-0.396-0.354s-0.46-0.098-0.888-0.098h-1.179V272.281z M120.634,275.587h1.462
			c0.323,0,0.561-0.029,0.714-0.088c0.222-0.085,0.39-0.224,0.506-0.417c0.116-0.194,0.174-0.438,0.174-0.73
			c0-0.271-0.056-0.499-0.167-0.686c-0.111-0.188-0.26-0.324-0.447-0.41c-0.188-0.087-0.482-0.13-0.883-0.13h-1.36V275.587z"/>
		<path fill="#231F20" d="M128.021,275.792c-0.241,0.251-0.492,0.439-0.752,0.566s-0.531,0.19-0.811,0.19
			c-0.443,0-0.796-0.134-1.06-0.4s-0.396-0.627-0.396-1.079c0-0.3,0.062-0.564,0.186-0.796s0.293-0.412,0.508-0.542
			s0.541-0.227,0.977-0.288c0.586-0.086,1.016-0.188,1.289-0.308l0.005-0.225c0-0.354-0.063-0.604-0.19-0.747
			c-0.179-0.208-0.454-0.313-0.825-0.313c-0.335,0-0.586,0.069-0.752,0.209c-0.166,0.139-0.288,0.399-0.366,0.782l-0.708-0.117
			c0.101-0.557,0.305-0.962,0.613-1.216s0.748-0.381,1.321-0.381c0.446,0,0.796,0.084,1.049,0.252
			c0.254,0.167,0.414,0.375,0.481,0.622s0.101,0.608,0.101,1.084v1.172c0,0.82,0.016,1.337,0.046,1.55
			c0.03,0.214,0.092,0.421,0.183,0.623h-0.752C128.093,276.253,128.044,276.039,128.021,275.792z M127.963,273.829
			c-0.264,0.13-0.656,0.241-1.177,0.332c-0.303,0.052-0.514,0.111-0.635,0.179c-0.121,0.066-0.214,0.16-0.281,0.283
			c-0.067,0.121-0.1,0.263-0.1,0.422c0,0.247,0.077,0.445,0.229,0.594c0.153,0.147,0.365,0.222,0.635,0.222
			c0.257,0,0.491-0.066,0.701-0.2s0.367-0.312,0.471-0.535c0.104-0.223,0.156-0.547,0.156-0.974V273.829z"/>
		<path fill="#231F20" d="M132.597,274.532l0.707,0.112c-0.081,0.618-0.285,1.091-0.612,1.416s-0.72,0.488-1.179,0.488
			c-0.557,0-1.016-0.229-1.375-0.686c-0.359-0.458-0.539-1.134-0.539-2.029c0-0.901,0.182-1.578,0.544-2.029
			c0.362-0.45,0.829-0.676,1.399-0.676c0.439,0,0.809,0.137,1.11,0.41s0.494,0.684,0.579,1.23l-0.699,0.127
			c-0.068-0.35-0.187-0.611-0.355-0.785c-0.17-0.173-0.373-0.26-0.611-0.26c-0.354,0-0.648,0.157-0.881,0.471
			c-0.232,0.314-0.35,0.813-0.35,1.497c0,0.706,0.111,1.218,0.335,1.533s0.509,0.474,0.856,0.474c0.273,0,0.508-0.105,0.701-0.314
			C132.421,275.301,132.544,274.975,132.597,274.532z"/>
		<path fill="#231F20" d="M133.929,276.432v-7.158h0.719v4.089l1.71-2.116h0.934l-1.627,1.926l1.788,3.26h-0.884l-1.413-2.657
			l-0.508,0.602v2.056H133.929z"/>
		<path fill="#231F20" d="M137.738,274.879l0.718-0.137c0.042,0.366,0.157,0.639,0.346,0.816c0.188,0.179,0.438,0.268,0.75,0.268
			c0.313,0,0.554-0.077,0.724-0.232c0.171-0.154,0.256-0.351,0.256-0.588c0-0.205-0.073-0.364-0.22-0.479
			c-0.101-0.078-0.345-0.176-0.732-0.293c-0.56-0.173-0.935-0.319-1.123-0.439s-0.335-0.281-0.439-0.483s-0.156-0.432-0.156-0.688
			c0-0.442,0.142-0.803,0.425-1.079s0.676-0.415,1.177-0.415c0.315,0,0.593,0.057,0.833,0.171c0.238,0.114,0.422,0.267,0.549,0.459
			s0.215,0.467,0.264,0.825l-0.703,0.117c-0.065-0.566-0.373-0.85-0.923-0.85c-0.313,0-0.545,0.063-0.698,0.188
			s-0.229,0.284-0.229,0.479c0,0.191,0.073,0.342,0.22,0.452c0.089,0.065,0.35,0.169,0.783,0.312
			c0.597,0.189,0.982,0.34,1.157,0.453c0.175,0.112,0.312,0.266,0.409,0.459c0.097,0.194,0.146,0.425,0.146,0.692
			c0,0.496-0.157,0.896-0.472,1.203c-0.313,0.307-0.742,0.46-1.286,0.46C138.492,276.549,137.901,275.992,137.738,274.879z"/>
		<path fill="#231F20" d="M143.719,275.646l0.098,0.776c-0.198,0.052-0.378,0.078-0.537,0.078c-0.251,0-0.452-0.05-0.605-0.148
			c-0.153-0.1-0.258-0.235-0.315-0.408c-0.057-0.173-0.085-0.516-0.085-1.03v-2.983h-0.527v-0.684h0.527v-1.284l0.718-0.527v1.812
			h0.728v0.684h-0.728v3.032c0,0.28,0.021,0.461,0.063,0.542c0.062,0.117,0.178,0.176,0.347,0.176
			C143.483,275.68,143.589,275.668,143.719,275.646z"/>
		<path fill="#231F20" d="M144.398,276.432v-5.186h0.649v0.786c0.166-0.364,0.318-0.606,0.456-0.726
			c0.139-0.118,0.294-0.178,0.467-0.178c0.241,0,0.486,0.095,0.737,0.283l-0.244,0.815c-0.179-0.127-0.354-0.19-0.522-0.19
			c-0.153,0-0.293,0.054-0.42,0.161s-0.217,0.257-0.269,0.449c-0.091,0.335-0.137,0.691-0.137,1.069v2.715H144.398z"/>
		<path fill="#231F20" d="M150.033,274.762l0.742,0.112c-0.124,0.554-0.348,0.971-0.672,1.253c-0.323,0.281-0.725,0.422-1.203,0.422
			c-0.603,0-1.09-0.229-1.463-0.686c-0.372-0.458-0.559-1.118-0.559-1.98c0-0.896,0.188-1.578,0.564-2.049
			c0.375-0.47,0.852-0.705,1.428-0.705c0.55,0,1.009,0.231,1.377,0.693s0.552,1.131,0.552,2.007l-0.005,0.234h-3.174
			c0.029,0.583,0.164,1.022,0.405,1.318s0.534,0.444,0.879,0.444C149.445,275.826,149.821,275.472,150.033,274.762z
			 M147.665,273.341h2.373c-0.032-0.449-0.129-0.784-0.288-1.006c-0.231-0.322-0.525-0.483-0.884-0.483
			c-0.322,0-0.598,0.135-0.825,0.402C147.813,272.523,147.687,272.885,147.665,273.341z"/>
		<path fill="#231F20" d="M153.29,275.646l0.098,0.776c-0.198,0.052-0.378,0.078-0.537,0.078c-0.251,0-0.452-0.05-0.605-0.148
			c-0.153-0.1-0.258-0.235-0.315-0.408c-0.057-0.173-0.085-0.516-0.085-1.03v-2.983h-0.527v-0.684h0.527v-1.284l0.718-0.527v1.812
			h0.728v0.684h-0.728v3.032c0,0.28,0.021,0.461,0.063,0.542c0.062,0.117,0.178,0.176,0.347,0.176
			C153.053,275.68,153.16,275.668,153.29,275.646z"/>
		<path fill="#231F20" d="M156.751,274.532l0.708,0.112c-0.081,0.618-0.286,1.091-0.612,1.416c-0.328,0.325-0.721,0.488-1.18,0.488
			c-0.557,0-1.015-0.229-1.375-0.686c-0.359-0.458-0.539-1.134-0.539-2.029c0-0.901,0.182-1.578,0.545-2.029
			c0.362-0.45,0.829-0.676,1.398-0.676c0.439,0,0.81,0.137,1.111,0.41c0.301,0.273,0.493,0.684,0.578,1.23l-0.698,0.127
			c-0.068-0.35-0.188-0.611-0.356-0.785c-0.169-0.173-0.373-0.26-0.61-0.26c-0.354,0-0.648,0.157-0.882,0.471
			c-0.232,0.314-0.349,0.813-0.349,1.497c0,0.706,0.111,1.218,0.335,1.533c0.223,0.315,0.508,0.474,0.856,0.474
			c0.273,0,0.507-0.105,0.7-0.314C156.577,275.301,156.7,274.975,156.751,274.532z"/>
		<path fill="#231F20" d="M158.07,276.432v-7.158h0.718v2.568c0.169-0.237,0.36-0.416,0.573-0.535
			c0.214-0.118,0.449-0.178,0.706-0.178c0.452,0,0.81,0.145,1.071,0.432c0.263,0.289,0.394,0.816,0.394,1.585v3.286h-0.718v-3.286
			c0-0.449-0.08-0.771-0.239-0.967s-0.379-0.293-0.659-0.293c-0.313,0-0.578,0.125-0.799,0.376
			c-0.219,0.251-0.329,0.695-0.329,1.333v2.837H158.07z"/>
	</g>
</g>
</svg>
